<svg width="20" height="20" xmlns="http://www.w3.org/2000/svg" xmlns:xlink="http://www.w3.org/1999/xlink"><defs><path d="M10 0c5.5228475 0 10 4.4771525 10 10s-4.4771525 10-10 10S0 15.5228475 0 10 4.4771525 0 10 0Zm0 2c-4.418278 0-8 3.581722-8 8s3.581722 8 8 8 8-3.581722 8-8-3.581722-8-8-8Zm1.52 7.76v6.672H8.48V9.76h3.04ZM10 3.568c.5546667 0 1.0026667.14666667 1.344.44.3413333.29333333.512.66933333.512 1.128 0 .48-.1706667.87733333-.512 1.192-.3413333.31466667-.7893333.472-1.344.472-.55466667 0-1.00266667-.15466667-1.344-.464-.34133333-.30933333-.512-.69333333-.512-1.152 0-.45866667.17066667-.84266667.512-1.152.34133333-.30933333.78933333-.464 1.344-.464Z" id="infoa"/></defs><g fill="none" fill-rule="evenodd"><path fill="none" d="M0 0h20v20H0z"/><mask id="infob" fill="#fff"><use xlink:href="#infoa"/></mask><use fill="#000" fill-rule="nonzero" xlink:href="#infoa"/><g mask="url(#infob)" fill="currentcolor"><path d="M0 0h20v20H0z"/></g></g></svg>