<?xml version="1.0" encoding="UTF-8"?>
<svg width="20px" height="20px" viewBox="0 0 20 20" version="1.1" xmlns="http://www.w3.org/2000/svg" xmlns:xlink="http://www.w3.org/1999/xlink">
    <defs>
        <path d="M14,13 L14,17.041 L10,19 L6,17.041 L6,13 L10,14.8365 L14,13 Z M10,10 L14,12.0852339 L10,14 L6,12.0852339 L10,10 Z M10.9899912,1 L10.9899912,5.72256 L12.5999411,4.16117749 L14,5.51882251 L10.7000295,8.71882251 C10.3617408,9.04686292 9.83953975,9.08786797 9.455273,8.84183766 L9.37515866,8.78472348 L9.29997054,8.71882251 L6,5.51882251 L7.40005893,4.16117749 L9.01000884,5.72256 L9.01000884,1 L10.9899912,1 Z" id="path-1"></path>
    </defs>
    <g id="Icons" stroke="none" stroke-width="1" fill="none" fill-rule="evenodd">
        <g id="Icon/notebook-mount/black">
            <rect id="Bounding-Box"  class="jp-icon3" fill-opacity="0" fill="#FFFFFF" x="0" y="0" width="20" height="20"></rect>
            <mask id="mask-2" fill="white">
                <use xlink:href="#path-1"></use>
            </mask>
            <use id="Combined-Shape" fill="#926AA1" fill-rule="nonzero" xlink:href="#path-1"></use>
            <g class="jp-icon3" id="Group" mask="url(#mask-2)" fill="#0F1012">
                <g id="Color">
                    <rect x="0" y="0" width="20" height="20"></rect>
                </g>
            </g>
        </g>
    </g>
</svg>