<?xml version="1.0" encoding="UTF-8"?>
<svg width="14px" height="9px" viewBox="0 0 14 9" version="1.1" xmlns="http://www.w3.org/2000/svg" xmlns:xlink="http://www.w3.org/1999/xlink">
    <title>Path Copy 8</title>
    <g id="Doc" stroke="none" stroke-width="1" fill="none" fill-rule="evenodd">
        <g id="home" transform="translate(-277.000000, -590.000000)" fill="#582F6B" fill-rule="nonzero">
            <path d="M288.248354,592.642938 C288.107336,592.788833 287.914134,592.872728 287.711256,592.876164 C287.508377,592.8796 287.312445,592.802296 287.166567,592.66126 L285.001197,590.568258 L285.001197,599.88045 C285.001197,600.302948 284.658694,600.64545 284.236197,600.64545 C283.813699,600.64545 283.471197,600.302948 283.471197,599.88045 L283.471197,590.568258 L281.305826,592.66126 C281.110331,592.85666 280.824635,592.931408 280.558493,592.856788 C280.292352,592.782167 280.087161,592.569784 280.021749,592.301231 C279.956338,592.032678 280.04088,591.749725 280.242897,591.561075 L283.704522,588.215041 C283.717297,588.202649 283.732062,588.193966 283.745487,588.182606 L283.758225,588.172087 C283.774863,588.158699 283.79024,588.143093 283.807682,588.131274 C283.810551,588.129361 283.81384,588.128099 283.816747,588.126187 C283.837479,588.112532 283.859511,588.102395 283.881198,588.090959 C283.903498,588.079254 283.925186,588.066402 283.948289,588.057031 C283.972034,588.048161 283.996213,588.040501 284.020734,588.034081 C284.040739,588.028228 284.06017,588.020158 284.080519,588.01595 L284.090502,588.01465 C284.114868,588.009945 284.139424,588.008798 284.164095,588.006464 C284.18651,588.004399 284.208618,588.000612 284.231148,588.000459 L284.236197,588 L284.24094,588.000459 C284.263316,588.00065 284.285348,588.004284 284.307648,588.006503 C284.332281,588.008798 284.356837,588.009945 284.381202,588.014612 L284.391951,588.016027 C284.411841,588.020158 284.430813,588.028152 284.450358,588.033889 C284.47516,588.040293 284.499621,588.047953 284.523645,588.05684 C284.527088,588.058255 284.530951,588.05879 284.534355,588.060244 C284.55348,588.068315 284.570884,588.080401 284.589359,588.090079 C284.61186,588.100855 284.633793,588.11278 284.655072,588.125804 C284.658285,588.127908 284.661843,588.1294 284.665017,588.131542 C284.680317,588.141755 284.693322,588.15541 284.707819,588.166847 C284.714628,588.172202 284.721245,588.177748 284.727862,588.183371 C284.740905,588.194386 284.755287,588.20284 284.767719,588.214889 L288.229497,591.561075 C288.375488,591.702024 288.459495,591.895203 288.463032,592.0981 C288.466568,592.300998 288.389344,592.496987 288.248354,592.642938 Z" id="Path-Copy-8" transform="translate(284.231574, 594.322725) rotate(90.000000) translate(-284.231574, -594.322725) "></path>
        </g>
    </g>
</svg>