<?xml version="1.0" encoding="UTF-8"?>
<svg width="400px" height="181px" viewBox="0 0 400 181" version="1.1" xmlns="http://www.w3.org/2000/svg" xmlns:xlink="http://www.w3.org/1999/xlink">
    <!-- Generator: Sketch 61.1 (89650) - https://sketch.com -->
    <title>Pachyderm-Character_stacked</title>
    <desc>Created with Sketch.</desc>
    <defs>
        <path d="M6.38985802,13.2856265 C6.38985802,13.2856265 -1.76543202,5.12659784 40.6074353,0.234583432 C50.7324093,-0.934360802 56.2199314,2.37429472 69.6515667,7.7338602 C92.5129969,16.8561546 84.6507944,41.9657483 73.6198866,66.5476686 C66.5042997,82.4044589 70.5464591,84.2141526 69.7522047,86.6566398 C68.9579503,89.0991271 64.3648504,89.0991271 60.370173,89.0991271 C56.3754955,89.0991271 56.1876378,87.6212473 56.4330029,86.6566398 C56.5851292,86.0528397 55.6100906,78.4469488 56.935062,68.5112462 C57.4257921,64.8295382 57.4257921,62.3750662 58.6526175,58.2024639 C58.6526175,58.2024639 53.4287952,59.3339754 50.3102052,59.1842527 C41.4770627,58.7571745 45.2556656,89.7105207 45.0225688,91.0923885 C44.5318387,93.9886654 40.3729199,94.5504621 36.937809,94.16511 C33.502698,93.7797579 29.8775058,94.1408427 30.613601,92.2116277 C31.7766314,89.160719 33.6253806,58.6933583 27.4912539,58.6933583 C16.2044607,58.6933583 27.1796402,90.9500291 26.6398371,92.2116277 C25.9037419,93.9297581 21.6260976,94.0377548 17.2461203,94.0377548 C14.284475,94.0377548 12.7840717,93.7923076 13.0294368,91.0923885 C13.139851,89.8651525 13.505445,85.6980705 11.3266032,80.6636733 C7.83343063,72.5924042 8.22518873,62.7996899 7.86204843,58.2024639 C7.25599671,50.4684226 -8.52097715,30.7909207 6.38985802,13.2856265 Z" id="path-1"></path>
        <path d="M0.144163873,7.37654171 C-0.270877664,6.02780235 1.7754621,4.07915947 2.81271906,3.12268141 C4.52782089,1.54200145 9.82136215,1.25597066 13.5018382,0.51962906 C24.2365599,-1.62803393 32.6111682,5.61715427 35.20057,15.2841682 C37.3076517,23.1505361 32.5785933,24.1205328 27.647659,31.9562551 C22.7167247,39.7919774 27.3524232,44.7150542 23.2617937,47.0821187 C20.154694,48.8800585 17.6730443,45.7988462 13.5018382,44.8170574 C9.91705453,43.972719 10.6261596,37.8242667 8.59453681,38.6808774 C5.8439944,39.8369337 5.86362361,26.4085175 6.3862512,23.4631511 L0.144163873,7.37654171 Z" id="path-3"></path>
        <path d="M36.2399911,8.71696061 C36.7968242,7.46680191 36.6413898,6.01403394 35.8326851,4.91007456 C34.4978991,3.13794579 31.2590802,1.40017963 27.9221153,0.555841262 C21.7841824,-0.994814926 12.294626,1.1983623 7.5188624,2.77992056 C1.74842024,4.69087996 0.0318789813,6.5122609 0.0615160044,11.8955714 C0.0934113902,17.689094 5.37333648,21.9420732 5.49620267,26.9122207 C5.61262428,31.6216735 5.94977538,33.8782103 9.38922558,41.4460432 C12.8286758,49.0138762 12.2610019,38.5128205 21.0322642,38.3252562 C24.4045922,38.2531424 22.5805178,37.1274738 24.3054342,38.2221683 C26.6364023,39.6948515 28.4594648,26.5707898 28.3883089,23.6352413 L36.2399911,8.71696061 Z" id="path-5"></path>
        <path d="M61.2140684,49.2725515 C57.2882273,50.6446013 48.9139176,58.906354 45.8787517,60.9312934 C39.98999,64.8584486 32.8108759,67.9019598 21.3069993,66.5292517 C9.41832557,65.1106274 5.09609397,58.2677659 3.41127239,53.7615065 C2.84078878,52.235679 -1.9449568,42.3548369 1.21269594,43.7698759 C4.37034867,45.1849149 5.64786681,40.8278279 8.28090682,43.6412879 C12.2341378,47.8654004 9.93280623,61.6414025 25.2118007,58.0490306 C33.532148,56.0927643 34.3294179,51.2385835 34.469276,48.7816571 C34.8664212,41.8292909 29.7192901,38.3332099 27.8717292,31.4631589 C27.4363619,29.8442703 27.184214,28.0380309 27.2310065,25.9550676 C27.25913,24.7043964 28.6042531,23.9628161 28.7667641,22.764254 C29.0226128,20.8773009 28.1933962,18.5754152 28.7667641,16.848049 C31.4415561,8.78979324 37.4677801,2.67056474 45.8787517,0.379740471 C48.1081013,-0.227448375 50.0608253,0.379740471 52.4962476,0.379740471 C55.3265318,0.379740471 59.7130068,-0.474675589 62.3569998,0.379740471 C66.369686,1.67645476 70.0593394,3.91220222 73.0966552,6.95053467 C75.1165089,8.9710645 76.7815446,11.280182 78.0516469,13.7810072 C79.0302915,15.7079539 77.5603039,17.6349892 78.0516469,19.7452535 C78.5133398,21.728174 80.9659564,23.8861887 80.9659564,25.9550676 C80.9659564,38.1120673 72.1328139,45.4509386 61.2140684,49.2725515 Z" id="path-7"></path>
    </defs>
    <g id="Page-1" stroke="none" stroke-width="1" fill="none" fill-rule="evenodd">
        <g id="PachydermBrand-Copy-5" transform="translate(-1130.000000, -4794.000000)">
            <g id="Pachyderm-Character_stacked" transform="translate(1130.000000, 4784.000000)">
                <g id="Group-6-Copy" transform="translate(110.749347, 0.000000)">
                    <g id="Group-11">
                        <g id="Group-5-Copy">
                            <g id="Asset-1-Copy-4" transform="translate(0.157174, 0.000000)">
                                <g id="Group">
                                    <path d="M123.967212,56.553489 C121.99165,56.553489 126.285856,58.9501014 125.227344,62.9389125 C124.355387,66.2247222 125.966943,67.6123933 127.086818,68.3349545 C131.258024,71.0348737 134.202405,67.3531657 134.202405,67.3531657" id="Path" stroke="#26101A" stroke-width="1.22780685" stroke-linecap="round"></path>
                                    <path d="M124.568165,56.553489 C122.639399,56.553489 123.160977,65.8019394 127.086818,68.3349545 C128.374985,69.169475 129.540469,69.4468303 130.548919,69.3167433 C135.674596,68.5804017 137.146786,71.0348737 137.146786,71.0348737" id="Path" stroke="#26101A" stroke-width="1.22780685" stroke-linecap="round"></path>
                                    <path d="M123.967212,56.553489 C123.626001,59.2646769 123.160977,65.8019394 127.086818,68.3349545 C128.374985,69.169475 129.540469,69.4370124 130.548919,69.3167433 C134.202405,68.8258489 134.693135,71.7712153 134.693135,71.7712153" id="Path" stroke="#26101A" stroke-width="1.22780685" stroke-linecap="round"></path>
                                    <path d="M99.735974,79.0339979 C99.735974,79.0339979 95.1599155,83.2630531 94.9513552,83.4520475 C92.4977045,85.6610723 90.1667364,89.3427802 90.2894189,107.75132 C90.3164091,111.678475 76.4262926,109.469451 76.4262926,109.469451 L81.578959,79.2794451 L99.735974,79.0339979 Z" id="Path" stroke="#26101A" stroke-width="0.982245479" fill="#4C3D6A" fill-rule="nonzero"></path>
                                    <g id="Group-10" transform="translate(42.180138, 22.650298)">
                                        <mask id="mask-2" fill="white">
                                            <use xlink:href="#path-1"></use>
                                        </mask>
                                        <use id="Path" stroke="#26101A" stroke-width="1.22780685" fill="#4F728F" fill-rule="nonzero" xlink:href="#path-1"></use>
                                        <path d="M68.1947249,18.9373101 C74.2834847,21.1799777 77.7620457,24.2349581 78.630408,28.1022513 C79.4987703,31.9695446 79.4987703,40.8354894 78.630408,54.7000857 C84.9662554,35.0647242 88.1341791,25.0653297 88.1341791,24.701902 C88.1341791,24.3384743 84.075614,18.8903014 75.9584837,8.35738334 L61.8442656,5.33068284 L68.1947249,18.9373101 Z" id="Path-2" fill="#4F6486" mask="url(#mask-2)"></path>
                                        <path d="M83.9867466,34.838997 C84.6640564,26.64464 82.5311694,20.1999732 77.5880857,15.5049965 C72.6450019,10.8100199 67.5690121,8.81408354 62.3601162,9.5171875 L73.234648,1.89442206 L96.7229668,24.701902 L83.9867466,34.838997 Z" id="Path-17" fill="#5DA7B5" mask="url(#mask-2)"></path>
                                    </g>
                                    <path d="M48.5699964,35.9359243 C48.5699964,35.9359243 40.4147064,27.7768956 82.7875737,22.8848812 C92.9125477,21.715937 98.4000698,25.0245925 111.831705,30.384158 C127.495087,36.6342472 128.736092,50.3891405 124.417005,66.3372517 C122.432184,73.6661468 119.273168,81.4582118 115.800025,89.1979664 C108.684438,105.054757 112.726598,106.86445 111.932343,109.306938 C111.138089,111.749425 106.544989,111.749425 102.550311,111.749425 C98.5556339,111.749425 98.3677762,110.271545 98.6131413,109.306938 C98.7652676,108.703138 97.790229,101.097247 99.1152004,91.161544 C99.6059305,87.479836 99.6059305,85.025364 100.832756,80.8527616 C100.832756,80.8527616 95.6089336,81.9842732 92.4903436,81.8345504 C83.6572011,81.4074723 87.435804,112.360819 87.2027072,113.742686 C86.7119771,116.638963 82.5530583,117.20076 79.1179474,116.815408 C75.6828364,116.430056 72.0576442,116.79114 72.7937394,114.861925 C73.9567698,111.811017 75.805519,81.343656 69.6713923,81.343656 C58.3845991,81.343656 69.3597786,113.600327 68.8199755,114.861925 C68.0838803,116.580056 63.806236,116.688053 59.4262586,116.688053 C56.4646134,116.688053 54.9642101,116.442605 55.2095752,113.742686 C55.3199894,112.51545 55.6855834,108.348368 53.5067416,103.313971 C50.013569,95.242702 50.4053271,85.4499877 50.0421868,80.8527616 C49.4361351,73.1187204 33.6591612,53.4412185 48.5699964,35.9359243 Z" id="Path-Copy-5" stroke="#26101A" stroke-width="1.22780685" fill-rule="nonzero"></path>
                                    <path d="M101.107565,96.1220319 C102.302925,96.3448089 103.277314,96.4283503 104.514183,96.2055733" id="Path" stroke="#26101A" stroke-width="1.22780685" stroke-linecap="round" stroke-linejoin="round"></path>
                                    <path d="M100.833707,98.0856094 C102.297357,98.3083865 103.490439,98.3919279 105.004913,98.1691508" id="Path-Copy" stroke="#26101A" stroke-width="1.22780685" stroke-linecap="round" stroke-linejoin="round"></path>
                                    <g id="Group-2" transform="translate(60.007357, 53.122666) rotate(15.000000) translate(-60.007357, -53.122666) translate(10.007357, 11.622666)">
                                        <path d="M39.6800255,43.793022 C39.6800255,43.793022 38.1751006,48.0723531 35.048989,51.7203688 C29.6702353,57.9971052 18.731309,58.7572927 19.5483746,60.225067 C19.9556806,60.9614086 31.6627113,60.010935 36.9652499,55.5566672 C40.2914324,52.762589 43.6726881,48.9305545 43.6726881,48.9305545 L39.6800255,43.793022 Z" id="Path" stroke="#26101A" stroke-width="1.22780685" fill="#E1D9BE" fill-rule="nonzero"></path>
                                        <path d="M51.4230546,82.2299205 C58.7950737,78.1968823 48.010139,74.329168 54.0951927,66.2613186 C54.3405578,65.9373283 55.3539155,64.7518183 55.8274701,64.2388337 C58.6418074,61.183016 62.1186305,58.6475465 66.3634461,57.4252194 C69.4497278,56.540602 72.5223427,52.5807742 75.3044169,51.2890395 C78.6976886,49.7135219 80.6964478,51.4640102 83.0437492,50.0276445 C83.684152,49.6349289 87.2008054,50.2196351 87.5320482,49.9840058 C90.7217941,47.7185282 91.3195272,43.9207146 92.6175084,42.2074931 C108.68892,20.9763105 77.5625032,5.07237902 61.8591388,10.9631118 C46.1557745,16.8538445 44.1099351,64.2006303 44.1099351,64.2006303 L51.4230546,82.2299205 Z" id="Path" fill="#4F597E" fill-rule="nonzero" style="mix-blend-mode: darken;"></path>
                                        <g id="Group-16" transform="translate(63.412306, 0.090355)">
                                            <mask id="mask-4" fill="white">
                                                <use xlink:href="#path-3"></use>
                                            </mask>
                                            <use id="Path-Copy-10" stroke="#26101A" stroke-width="1.22780685" fill="#4F728F" fill-rule="nonzero" xlink:href="#path-3"></use>
                                            <path d="M-0.569430961,8.3811604 C2.27133039,6.29488618 4.36127382,4.93003223 5.70039931,4.28659854 C7.70908755,3.321448 11.9534972,3.4443199 13.5032841,3.02891674 C15.0530711,2.61351357 21.2201896,2.31735981 23.874736,3.86896651 C26.5292824,5.42057321 32.6290166,8.3346474 35.5294034,19.1626614 C37.4629946,26.3813374 38.1752186,20.5571292 37.6660756,1.69003689 L10.9825803,-6.38162716 L-2.20828561,2.26282429 L-0.569430961,8.3811604 Z" id="Path-5" fill="#5DA7B5" mask="url(#mask-4)"></path>
                                            <path d="M0.144163873,7.37654171 C-0.270877664,6.02780235 1.7754621,4.07915947 2.81271906,3.12268141 C4.52782089,1.54200145 9.82136215,1.25597066 13.5018382,0.51962906 C24.2365599,-1.62803393 32.6111682,5.61715427 35.20057,15.2841682 C37.3076517,23.1505361 32.5785933,24.1205328 27.647659,31.9562551 C22.7167247,39.7919774 27.3524232,44.7150542 23.2617937,47.0821187 C20.154694,48.8800585 17.6730443,45.7988462 13.5018382,44.8170574 C9.91705453,43.972719 10.6261596,37.8242667 8.59453681,38.6808774 C5.8439944,39.8369337 5.86362361,26.4085175 6.3862512,23.4631511 L0.144163873,7.37654171 Z" id="Path" stroke="#26101A" stroke-width="1.22780685" fill-rule="nonzero" mask="url(#mask-4)"></path>
                                        </g>
                                        <g id="Group-17" transform="translate(14.510876, 3.239165)">
                                            <mask id="mask-6" fill="white">
                                                <use xlink:href="#path-5"></use>
                                            </mask>
                                            <use id="Path" stroke="#26101A" stroke-width="1.22780685" fill="#4F728F" fill-rule="nonzero" xlink:href="#path-5"></use>
                                            <path d="M28.8871736,1.52580701 C26.0503613,1.46000884 23.7066219,1.67513503 21.8559554,2.17118559 C19.0799558,2.91526143 17.8491432,3.35362622 10.4290014,3.72542783 C3.00885955,4.09722944 -0.0389712504,9.27913856 -0.173615506,13.570009 C-0.308259762,17.8608794 0.618673548,17.573237 -2.17101832,10.7699412 C-4.0308129,6.23441066 -0.977464394,2.89898063 6.9890272,0.763651129 L29.0466335,-3.43626078 L28.8871736,1.52580701 Z" id="Path-13" fill="#5DA7B5" mask="url(#mask-6)"></path>
                                        </g>
                                        <path d="M50.7508669,11.9561259 C51.3077,10.7059672 51.1522656,9.25319924 50.3435608,8.14923986 C49.0087749,6.37711109 45.769956,4.63934493 42.4329911,3.79500656 C36.2950582,2.24435037 26.8055018,4.4375276 22.0297382,6.01908586 C16.259296,7.93004526 14.5427547,9.7514262 14.5723918,15.1347367 C14.6042871,20.9282593 19.8842122,25.1812385 20.0070784,30.151386 C20.1235,34.8608388 20.4606511,37.1173756 23.9001013,44.6852085 C27.3395515,52.2530415 26.7718777,41.7519858 35.5431399,41.5644215 C38.915468,41.4923077 37.0913935,40.3666391 38.81631,41.4613336 C41.1472781,42.9340168 42.9703406,29.8099551 42.8991847,26.8744066 L50.7508669,11.9561259 Z" id="Path-Copy-11" stroke="#26101A" stroke-width="1.22780685" fill-rule="nonzero"></path>
                                        <path d="M61.3334622,53.866235 C57.4076211,55.2382849 49.0333114,63.5000376 45.9981455,65.524977 C40.1093839,69.4521321 32.9302697,72.4956434 21.4263931,71.1229353 C9.53771938,69.7043109 5.21548778,62.8614495 3.53066621,58.3551901 C2.96018259,56.8293626 -1.82556299,46.9485205 1.33208975,48.3635595 C4.48974249,49.7785985 5.76726062,45.4215115 8.40030064,48.2349715 C12.3535316,52.459084 10.0522,66.2350861 25.3311945,62.6427142 C33.6515418,60.6864479 34.4488117,55.8322671 34.5886698,53.3753407 C34.985815,46.4229745 29.8386839,42.9268935 27.991123,36.0568425 C27.5557557,34.4379538 27.3036078,32.6317145 27.3504003,30.5487512 C27.3785238,29.29808 28.7236469,28.5564997 28.8861579,27.3579376 C29.1420066,25.4709845 28.31279,23.1690988 28.8861579,21.4417326 C31.5609499,13.3834768 37.5871739,7.26424833 45.9981455,4.97342406 C48.2274951,4.36623521 50.1802191,4.97342406 52.6156414,4.97342406 C55.4459256,4.97342406 59.8324006,4.119008 62.4763936,4.97342406 C66.4890798,6.27013834 70.1787332,8.5058858 73.216049,11.5442183 C75.2359027,13.5647481 76.9009385,15.8738656 78.1710407,18.3746908 C79.1496853,20.3016375 77.6796977,22.2286728 78.1710407,24.3389371 C78.6327336,26.3218576 81.0853502,28.4798723 81.0853502,30.5487512 C81.0853502,42.7057509 72.2522078,50.0446222 61.3334622,53.866235 Z" id="Path" stroke="#26101A" stroke-width="1.22780685" fill="#4F728F" fill-rule="nonzero"></path>
                                        <path d="M47.4703359,4.65407176 C47.4703359,4.65407176 37.9010983,6.69373798 37.9010983,21.8353756 C37.9010983,30.6714748 47.2097697,32.5631553 44.7713202,40.7348099 C44.3959116,41.9928672 36.9368343,44.8604503 37.2803246,46.0666134 C37.517667,46.900039 43.0959368,45.0414046 45.1614506,46.3772575 C47.2269644,47.7131104 47.8252839,48.6334093 49.0578479,49.9390799 C49.2878937,50.1827704 44.4652119,47.3588241 41.3288483,47.3618843 C37.9307827,47.3651998 36.241987,50.1845271 37.7710548,50.1845271 C38.804406,50.1845271 39.9358624,49.1631205 41.3288483,49.201102 C43.0426613,49.2478312 45.046476,50.3937969 47.3402924,52.6389991 C43.9933057,51.9610231 41.9003416,51.6337572 41.0614003,51.6572012 C37.7355133,51.7501425 37.7873656,53.0085086 37.5256897,53.3753407 C37.0173907,54.0879028 42.4251932,53.435696 42.4329911,54.3571294 C42.4520713,56.6117409 37.8149199,60.7192211 36.4289078,62.2248688 C34.116151,64.7372545 26.9783622,64.9048468 20.9709086,65.0340826 C18.9270176,65.0782631 41.0908441,64.5431882 32.7484318,45.3983067 C31.8503957,43.3340958 29.3452183,40.6611758 28.4545431,37.1758256 C28.4545431,37.1758256 26.3309748,32.8416838 27.3504003,30.6714748 C29.4244663,26.2560893 28.7104975,20.9530561 31.6854164,16.2318353 C38.8010034,4.94126416 47.4703359,4.65407176 47.4703359,4.65407176 Z" id="Path" fill="#4F6486" fill-rule="nonzero"></path>
                                        <g id="Group-15" transform="translate(0.119394, 4.593684)">
                                            <mask id="mask-8" fill="white">
                                                <use xlink:href="#path-7"></use>
                                            </mask>
                                            <use id="Path-Copy-4" stroke="#26101A" stroke-width="1.22780685" fill-rule="nonzero" xlink:href="#path-7"></use>
                                            <path d="M0.262960196,45.8315841 C0.904578758,46.6220872 1.71768859,46.7249695 2.7022897,46.1402308 C4.17919136,45.2631228 5.71240445,43.6231366 6.73571018,44.0966354 C7.75901591,44.5701343 8.91498487,45.9023226 9.79252363,49.1784381 C10.6700624,52.4545536 12.7680692,62.2648252 23.6639121,60.0143663 C30.9278074,58.5140604 34.4729682,55.7361754 34.2993947,51.6807113 L6.73966853,37.7812141 L-1.71755548,42.5785353 L0.262960196,45.8315841 Z" id="Path-4" fill="#5DA7B5" mask="url(#mask-8)"></path>
                                            <path d="M36.6490449,4.71311983 C43.6220587,1.50565295 47.3393182,0.763388486 47.8008236,2.48632644 C48.4930816,5.07073338 45.6816255,3.93012481 46.7049312,4.40362363 C47.7282369,4.87712246 54.6950495,-0.347575134 62.2333327,2.04796056 C67.2588548,3.64498436 71.5079544,6.10219082 74.9806314,9.41957993 L83.5901033,2.6702985 L56.0303771,-11.2291988 L47.5731531,-6.43187757 L36.6490449,4.71311983 Z" id="Path-4-Copy" fill="#5DA7B5" mask="url(#mask-8)"></path>
                                        </g>
                                        <path d="M40.1093839,38.4030615 C40.1093839,37.3869101 39.2849572,36.8076548 38.2691459,36.8076548 C37.2533345,36.8076548 36.4289078,37.3869101 36.4289078,38.4030615 C36.4289078,39.4197371 37.2528105,40.2439155 38.2691459,40.2439155 C39.2854812,40.2439155 40.1093839,39.4197371 40.1093839,38.4030615 Z" id="Path" fill="#26101A" fill-rule="nonzero"></path>
                                        <path d="M61.6254467,38.4717868 C62.0180308,36.7953824 60.6439864,35.8455017 59.0834646,36.1179481 C58.275778,36.2410503 57.6455581,36.8814722 57.535211,37.6912647 C57.37327,39.2032194 58.9215236,40.8968051 60.5286648,39.9886504 C61.0891968,39.6575768 61.4865976,39.1079662 61.6254467,38.4717868 Z" id="Path" fill="#26101A" fill-rule="nonzero"></path>
                                        <path d="M37.2803246,54.1116822 C37.2803246,54.1116822 38.9677822,53.1717123 41.0110011,53.2668601 C43.0542199,53.3620078 44.6740273,54.4042115 45.3773719,55.5843654" id="Path" stroke="#26101A" stroke-width="1.22780685" stroke-linecap="round"></path>
                                        <path d="M3.6505542,49.0949417 C3.6505542,49.0949417 4.87775141,49.3402209 5.61402653,50.0762746 C6.84115173,51.3030307 6.59561868,52.5298948 6.59561868,52.5298948" id="Path" stroke="#26101A" stroke-width="1.22780685" stroke-linecap="round" transform="translate(5.133114, 50.812418) rotate(-257.000000) translate(-5.133114, -50.812418) "></path>
                                        <path d="M37.5256897,50.4299743 C38.7815564,49.5986815 40.2798079,49.2817937 42.0204441,49.479311 C44.9809907,49.8152565 47.0230616,51.3566001 47.5137917,52.5838361" id="Path" stroke="#26101A" stroke-width="1.22780685" stroke-linecap="round"></path>
                                        <path d="M37.7710548,46.7482663 C38.8784403,45.8576819 40.5815506,45.5699469 42.8803857,45.8850613 C46.3286383,46.3577329 48.6551697,48.6812084 49.0578479,50.1845271" id="Path" stroke="#26101A" stroke-width="1.22780685" stroke-linecap="round"></path>
                                        <path d="M68.2577172,35.0489345 C69.6274678,37.1977788 69.0823499,40.2437659 66.7588098,41.4711515" id="Path-Copy-2" stroke="#26101A" stroke-width="1.22780685" stroke-linecap="round"></path>
                                        <path d="M10.0892639,64.229274 C9.58455628,64.6538378 8.5780747,65.0147448 7.69074719,64.9073467" id="Path-Copy-6" stroke="#26101A" stroke-width="1.22780685" stroke-linecap="round"></path>
                                        <path d="M12.3833466,66.1554271 C11.878639,66.5799908 10.8721574,66.9408978 9.9848299,66.8334997" id="Path-Copy-7" stroke="#26101A" stroke-width="1.22780685" stroke-linecap="round"></path>
                                        <path d="M15.1514382,67.9545272 C14.6467306,68.379091 13.640249,68.739998 12.7529215,68.6325999" id="Path-Copy-8" stroke="#26101A" stroke-width="1.22780685" stroke-linecap="round"></path>
                                        <path d="M29.8932555,35.0489345 C31.2630062,37.1977788 30.3021029,40.2439155 29.5144151,42.3302167" id="Path-Copy-3" stroke="#26101A" stroke-width="1.22780685" stroke-linecap="round" transform="translate(30.048901, 38.689576) scale(-1, 1) translate(-30.048901, -38.689576) "></path>
                                        <path d="M18.9749212,12.6436082 C18.9749212,9.82096539 22.4684981,7.35399094 26.9329868,7.35399094 C34.2530379,7.35399094 37.584588,3.17119635 44.3959116,5.26768975" id="Path" stroke="#26101A" stroke-width="1.22780685" stroke-linecap="round"></path>
                                        <path d="M71.6172298,47.9664792 C71.6172298,47.9664792 75.3524665,45.0414046 77.5821888,45.0414046 C79.3237504,45.0414046 81.701451,36.2981545 87.5836045,30.6592806 C93.5743261,24.916329 94.8503654,14.8202078 90.0445117,17.082866 C87.4692906,18.2953135 85.3508459,19.3998935 83.5843095,19.3233401 C81.9499778,19.2525158 81.1725198,17.1275101 78.0244514,12.9655282 C74.8763831,8.80354619 72.9379279,12.2995816 77.6903846,18.4976078 C78.507353,19.563076 78.9158318,27.2470101 79.062423,28.8060833 C79.5456064,33.9449922 78.093201,32.8871099 77.5821888,35.5984342 C76.0281789,43.8436863 71.6172298,47.9664792 71.6172298,47.9664792 Z" id="Path" fill="#4E567C" fill-rule="nonzero" style="mix-blend-mode: darken;"></path>
                                        <path d="M0.744750988,51.9886616 C0.31946707,50.4009491 3.0175182,52.8180686 4.47145718,52.2887044 C6.4874889,51.5546879 5.53923762,57.8788082 8.42729136,61.040093 C11.3153451,64.2013778 15.153246,69.1005526 24.9482195,68.4697533 C40.1608537,67.4879645 45.0166852,62.3341634 51.396177,58.161561 C54.1921935,56.3161944 57.2537001,54.9090854 60.4746845,53.9889586 C60.4746845,53.9889586 56.3697269,55.9525362 53.8841788,58.8979026 C51.3986306,61.843269 41.0925735,68.9654949 35.7148955,70.4069218 C30.3372175,71.8483486 19.1280761,71.8657415 13.6736107,69.5045395 C8.2191452,67.1433374 4.99591917,61.8372541 3.29366175,58.4187165 L2.43712748,57.0836549 L1.79720207,54.6946213 L0.744750988,51.9886616 Z" id="Path" fill="#4D4C75" fill-rule="nonzero" style="mix-blend-mode: darken;"></path>
                                        <path d="M31.0308764,13.4901709 C28.4830751,16.6385083 26.8506941,19.145837 25.7982464,22.298621 C25.3970056,23.5006051 25.6559789,25.0454388 25.404732,26.5063413 C25.2360677,27.4870584 24.3428395,28.2695711 24.4060195,29.4442388 C25.0049779,40.5802996 27.7325804,46.5620302 27.7325804,46.5620302 L30.6829969,43.4033854 L30.1917278,41.5693304 C30.1917278,41.5693304 26.8596702,35.5804188 27.3504003,30.6714748 C27.4905831,29.2691782 28.1268725,28.9777122 28.4272271,27.3579376 C29.1783077,23.3074549 30.1193263,17.6279423 32.7484318,14.4719597 C35.0340175,11.7717264 37.5819525,9.30515742 40.3547489,7.10854374 C39.7707801,7.19445026 34.4193679,9.30038722 31.0308764,13.4901709 Z" id="Path" fill="#4F597E" fill-rule="nonzero" style="mix-blend-mode: darken;"></path>
                                        <path d="M40.3547489,7.10854374 C39.7707801,7.19445026 33.9752572,8.09033254 30.0494161,10.2993573 C24.2710687,13.5490782 20.1630131,17.8610709 21.4616387,24.780742 C23.0735234,33.3696007 25.4856553,47.1642935 25.4856553,47.1642935 L27.7325804,46.5620302 L26.3689401,41.4711515 C26.3689401,41.4711515 24.4060195,34.8440772 24.8967497,29.9351332 C25.3874798,25.0261892 27.3504003,19.1354565 31.0308764,14.7174069 C34.5764016,10.4515346 40.3547489,7.10854374 40.3547489,7.10854374 Z" id="Path" fill="#4F6486" fill-rule="nonzero" style="mix-blend-mode: darken;"></path>
                                        <path d="M61.3334622,53.866235 C57.4076211,55.2382849 49.0333114,63.5000376 45.9981455,65.524977 C40.1093839,69.4521321 32.9302697,72.4956434 21.4263931,71.1229353 C9.53771938,69.7043109 5.21548778,62.8614495 3.53066621,58.3551901 C2.96018259,56.8293626 -1.82556299,46.9485205 1.33208975,48.3635595 C4.48974249,49.7785985 5.76726062,45.4215115 8.40030064,48.2349715 C12.3535316,52.459084 10.0522,66.2350861 25.3311945,62.6427142 C33.6515418,60.6864479 34.4488117,55.8322671 34.5886698,53.3753407 C34.985815,46.4229745 29.8386839,42.9268935 27.991123,36.0568425 C27.5557557,34.4379538 27.3036078,32.6317145 27.3504003,30.5487512 C27.3785238,29.29808 28.7236469,28.5564997 28.8861579,27.3579376 C29.1420066,25.4709845 28.31279,23.1690988 28.8861579,21.4417326 C31.5609499,13.3834768 37.5871739,7.26424833 45.9981455,4.97342406 C48.2274951,4.36623521 50.1802191,4.97342406 52.6156414,4.97342406 C55.4459256,4.97342406 59.8324006,4.119008 62.4763936,4.97342406 C66.4890798,6.27013834 70.1787332,8.5058858 73.216049,11.5442183 C75.2359027,13.5647481 76.9009385,15.8738656 78.1710407,18.3746908 C79.1496853,20.3016375 77.6796977,22.2286728 78.1710407,24.3389371 C78.6327336,26.3218576 81.0853502,28.4798723 81.0853502,30.5487512 C81.0853502,42.7057509 72.2522078,50.0446222 61.3334622,53.866235 Z" id="Path-Copy-9" stroke="#26101A" stroke-width="1.22780685" fill-rule="nonzero"></path>
                                        <path d="M60.3618166,51.3528557 C61.6843343,51.5983029 61.834007,52.9261723 61.6058175,54.2466782 C61.2426772,56.2667086 59.8612718,60.5399444 58.2050576,63.3134977 C54.929434,68.7943337 43.6038337,76.9272224 42.3917303,75.8153466 C41.6556351,75.1501847 52.1568087,65.5593396 53.7541353,62.4765228 C56.2544053,57.6485764 56.5905555,52.5653649 56.5905555,52.5653649 C56.5905555,52.5653649 57.1745243,50.9355955 59.8637255,51.2767671 C60.0403883,51.3111297 60.2072366,51.3258565 60.3618166,51.3528557 Z" id="Path" stroke="#26101A" stroke-width="1.22780685" fill="#E1D9BE" fill-rule="nonzero" stroke-linecap="round" stroke-linejoin="round"></path>
                                        <line x1="56.1734349" y1="49.2027383" x2="56.4187999" y2="53.3753407" id="Path" stroke="#26101A" stroke-width="1.22780685" stroke-linecap="round"></line>
                                        <path d="M46.2435106,9.83055317 C46.2435106,9.83055317 48.4517962,4.9216092 55.8127482,4.9216092" id="Path" stroke="#26101A" stroke-width="1.22780685" stroke-linecap="round"></path>
                                        <line x1="63.5343869" y1="49.9390799" x2="62.5529266" y2="53.1298935" id="Path" stroke="#26101A" stroke-width="1.22780685" stroke-linecap="round"></line>
                                    </g>
                                    <path d="M52.7706464,101.52187 C53.9660071,101.744647 55.2001068,101.459144 56.1763135,100.733985" id="Path" stroke="#26101A" stroke-width="1.22780685" stroke-linecap="round" stroke-linejoin="round"></path>
                                    <path d="M53.5067416,103.240001 C54.7021023,103.462778 55.936202,103.177274 56.9124087,102.452115" id="Path" stroke="#26101A" stroke-width="1.22780685" stroke-linecap="round" stroke-linejoin="round"></path>
                                    <path d="M77.2777094,99.5067487 C78.4175905,100.094991 79.7503327,100.18387 80.9581854,99.7521959" id="Path" stroke="#26101A" stroke-width="1.22780685" stroke-linecap="round" stroke-linejoin="round"></path>
                                    <path d="M88.0737723,86.4980472 C89.0552326,81.0982088 91.1184883,76.4347121 91.3638533,71.7712153" id="Path" stroke="#26101A" stroke-width="1.22780685" stroke-linecap="round" stroke-linejoin="round"></path>
                                    <path d="M99.1152004,90.4252024 C99.8512956,77.6619481 105.740057,76.9256065 103.531772,67.5986129" id="Path" stroke="#26101A" stroke-width="1.22780685" stroke-linecap="round" stroke-linejoin="round"></path>
                                    <path d="M77.2777094,101.715774 C77.2777094,101.715774 79.5080778,102.793287 81.4489155,101.961221" id="Path" stroke="#26101A" stroke-width="1.22780685" stroke-linecap="round" stroke-linejoin="round"></path>
                                </g>
                            </g>
                            <g id="Group-4" transform="translate(103.416450, 19.881223)" stroke="#26101A" stroke-linecap="round" stroke-width="0.736684109">
                                <path d="M0.174494965,1.28843254 C1.31695875,1.2065774 2.41138816,1.31048545 3.4577832,1.60015668 C5.02737575,2.03466352 7.27356953,3.08977363 7.64262903,3.45243912" id="Path-3-Copy" transform="translate(3.908562, 2.356910) rotate(20.000000) translate(-3.908562, -2.356910) "></path>
                            </g>
                            <g id="Group-12" transform="translate(13.652203, 18.600727)" stroke="#26101A" stroke-linecap="round" stroke-width="0.736684109">
                                <path d="M0,0.362831039 C1.00449598,-0.00718076809 1.83098208,-0.0941915583 2.47945832,0.101798669 C3.45217267,0.39578401 4.25356277,1.07653431 4.62256883,1.4391743" id="Path-3"></path>
                            </g>
                        </g>
                    </g>
                    <g id="Group-4" transform="translate(1.245365, 17.672198)" stroke="#26101A">
                        <g id="Group-3" transform="translate(12.418564, 12.310635) rotate(-331.000000) translate(-12.418564, -12.310635) translate(3.418564, 3.310635)" stroke-linejoin="round" stroke-width="1.22780685">
                            <polygon id="Rectangle" fill="#A5597E" points="-9.49863918e-13 5.39983837 11.62445 5.75682386 12.2682534 17.6721983 0.405892681 16.8858669"></polygon>
                            <polygon id="Rectangle" fill="#D06868" points="11.62445 5.75682386 16.9301897 0.490894397 17.217127 11.76225 12.2682534 17.6721983"></polygon>
                            <polygon id="Rectangle-Copy" fill="#F59178" points="5.63929613 0.229586701 16.9301897 0.490894397 11.62445 5.75682386 1.43104885e-12 5.39983837"></polygon>
                        </g>
                        <path d="M22.9979463,6.45908817 C24.3872301,7.34132037 25.0818721,8.02497033 25.0818721,8.51003807 C25.0818721,8.9951058 24.7697547,9.77558992 24.1455199,10.8514904" id="Path-3" stroke-width="0.736684109" stroke-linecap="round"></path>
                    </g>
                    <path d="M69.8796223,51.9788955 C70.2184008,51.9788955 70.493035,51.6492241 70.493035,51.2425539 C70.493035,51.0089434 70.4024087,50.8007418 70.2610568,50.6658459 C70.1563426,50.5659143 70.0237906,50.5328979 69.8796223,50.5328979 C69.5408439,50.5328979 69.2662097,50.8358836 69.2662097,51.2425539 C69.2662097,51.6492241 69.5408439,51.9788955 69.8796223,51.9788955 Z" id="Oval" fill="#C3E5D7" fill-rule="nonzero"></path>
                    <path d="M49.1861497,46.6476746 C49.3894168,46.6476746 49.5541973,46.4498718 49.5541973,46.2058697 C49.5541973,46.0587617 49.5159651,45.866661 49.3946347,45.7954102 C49.3147192,45.7484801 49.1656604,45.7954102 49.0849423,45.7954102 C48.8816752,45.7954102 48.8181021,45.9618675 48.8181021,46.2058697 C48.8181021,46.4498718 48.9828826,46.6476746 49.1861497,46.6476746 Z" id="Oval" fill="#C3E5D7" fill-rule="nonzero"></path>
                </g>
                <path d="M13.2344648,177.010966 L13.2344648,164.779112 L21.3890339,164.779112 C25.6222802,164.779112 29.2985205,164.077285 32.4177546,162.673629 C35.5369887,161.269974 37.943255,159.275892 39.6365535,156.691384 C41.329852,154.106876 42.1765013,151.054482 42.1765013,147.534204 C42.1765013,144.013925 41.329852,140.950392 39.6365535,138.343603 C37.943255,135.736815 35.5369887,133.731593 32.4177546,132.327937 C29.2985205,130.924282 25.6222802,130.222454 21.3890339,130.222454 L21.3890339,130.222454 L0,130.222454 L0,177.010966 L13.2344648,177.010966 Z M20.5869452,154.351958 L13.2344648,154.351958 L13.2344648,140.649608 L20.5869452,140.649608 C23.3051349,140.649608 25.3549173,141.251175 26.7362924,142.454308 C28.1176675,143.657441 28.8083551,145.35074 28.8083551,147.534204 C28.8083551,149.717668 28.1176675,151.399826 26.7362924,152.580679 C25.3549173,153.761532 23.3051349,154.351958 20.5869452,154.351958 L20.5869452,154.351958 Z M60.0898172,177.612533 C65.3925152,177.612533 68.9573542,175.852393 70.7843342,172.332115 L70.7843342,172.332115 L70.7843342,177.010966 L82.6151436,177.010966 L82.6151436,156.891906 C82.6151436,151.232724 81.0332463,147.032898 77.8694517,144.292428 C74.7056571,141.551958 70.1159269,140.181723 64.1002611,140.181723 C61.2038294,140.181723 58.3185379,140.549347 55.4443864,141.284595 C52.570235,142.019843 50.1305483,143.055875 48.1253264,144.392689 L48.1253264,144.392689 L52.4031332,153.015144 C53.6508268,152.034813 55.1658834,151.266144 56.9483029,150.709138 C58.7307224,150.152132 60.4908616,149.873629 62.2287206,149.873629 C67.1303742,149.873629 69.6926023,151.78973 69.9154047,155.621932 L69.9154047,155.621932 L62.6966057,155.621932 C57.2156658,155.621932 53.1606614,156.568842 50.5315927,158.462663 C47.9025239,160.356484 46.5879896,163.018973 46.5879896,166.450131 C46.5879896,168.589034 47.1115753,170.493995 48.1587467,172.165013 C49.2059182,173.836031 50.7543951,175.161706 52.8041775,176.142037 C54.85396,177.122367 57.2825065,177.612533 60.0898172,177.612533 Z M63.632376,169.591645 C62.1618799,169.591645 61.0033072,169.257441 60.156658,168.589034 C59.3100087,167.920627 58.8866841,167.029417 58.8866841,165.915405 C58.8866841,163.464578 60.7359443,162.239164 64.4344648,162.239164 L64.4344648,162.239164 L69.9154047,162.239164 L69.9154047,165.380679 C69.4252393,166.762054 68.6231506,167.809225 67.5091384,168.522193 C66.3951262,169.235161 65.1028721,169.591645 63.632376,169.591645 Z M109.150914,177.612533 C113.250479,177.612533 116.793037,176.732463 119.77859,174.972324 C122.764143,173.212185 124.880766,170.772498 126.12846,167.653264 L126.12846,167.653264 L116.302872,162.640209 C114.654134,165.893124 112.247868,167.519582 109.084073,167.519582 C106.811488,167.519582 104.928808,166.750914 103.436031,165.213577 C101.943255,163.67624 101.196867,161.548477 101.196867,158.830287 C101.196867,156.156658 101.943255,154.062315 103.436031,152.547258 C104.928808,151.032202 106.811488,150.274674 109.084073,150.274674 C112.247868,150.274674 114.654134,151.901131 116.302872,155.154047 L116.302872,155.154047 L126.12846,150.140992 C124.880766,147.021758 122.764143,144.582071 119.77859,142.821932 C116.793037,141.061793 113.250479,140.181723 109.150914,140.181723 C105.14047,140.181723 101.553351,140.972672 98.3895561,142.554569 C95.2257615,144.136466 92.7637946,146.342211 91.0036554,149.171802 C89.2435161,152.001393 88.3634465,155.220888 88.3634465,158.830287 C88.3634465,162.439687 89.2435161,165.670322 91.0036554,168.522193 C92.7637946,171.374064 95.2257615,173.602089 98.3895561,175.206266 C101.553351,176.810444 105.14047,177.612533 109.150914,177.612533 Z M143.640731,177.010966 L143.640731,159.498695 C143.640731,156.646823 144.297998,154.50792 145.612533,153.081984 C146.927067,151.656049 148.676066,150.943081 150.85953,150.943081 C154.825413,150.943081 156.808355,153.416188 156.808355,158.362402 L156.808355,158.362402 L156.808355,177.010966 L169.508094,177.010966 L169.508094,156.290339 C169.508094,150.89852 168.137859,146.865796 165.397389,144.192167 C162.656919,141.518538 159.036379,140.181723 154.53577,140.181723 C152.396867,140.181723 150.391645,140.515927 148.520104,141.184334 C146.648564,141.852742 145.022106,142.833072 143.640731,144.125326 L143.640731,144.125326 L143.640731,127.415144 L130.940992,127.415144 L130.940992,177.010966 L143.640731,177.010966 Z M183.678329,190.579634 C187.46597,190.579634 190.674326,189.677285 193.303394,187.872585 C195.932463,186.067885 198.160487,182.937511 199.987467,178.481462 L199.987467,178.481462 L215.628198,140.78329 L203.530026,140.78329 L194.573368,162.907572 L185.683551,140.78329 L172.649608,140.78329 L188.156658,177.478851 C187.621932,178.548303 186.964665,179.328111 186.184856,179.818277 C185.405048,180.308442 184.413577,180.553525 183.210444,180.553525 C182.185553,180.553525 181.171802,180.364143 180.169191,179.985379 C179.16658,179.606614 178.30879,179.083029 177.595822,178.414621 L177.595822,178.414621 L173.184334,187.304439 C174.387467,188.284769 175.958225,189.075718 177.896606,189.677285 C179.834987,190.278851 181.762228,190.579634 183.678329,190.579634 Z M234.677807,177.612533 C239.401218,177.612533 242.943777,176.208877 245.305483,173.401567 L245.305483,173.401567 L245.305483,177.010966 L257.403655,177.010966 L257.403655,127.415144 L244.703916,127.415144 L244.703916,143.924804 C242.342211,141.429417 239.000174,140.181723 234.677807,140.181723 C231.380331,140.181723 228.372498,140.939252 225.654308,142.454308 C222.936118,143.969365 220.786075,146.141688 219.204178,148.971279 C217.62228,151.80087 216.831332,155.087206 216.831332,158.830287 C216.831332,162.573368 217.62228,165.870844 219.204178,168.722715 C220.786075,171.574587 222.936118,173.769191 225.654308,175.306527 C228.372498,176.843864 231.380331,177.612533 234.677807,177.612533 Z M237.351436,167.519582 C235.123412,167.519582 233.296432,166.750914 231.870496,165.213577 C230.44456,163.67624 229.731593,161.548477 229.731593,158.830287 C229.731593,156.156658 230.44456,154.062315 231.870496,152.547258 C233.296432,151.032202 235.123412,150.274674 237.351436,150.274674 C239.57946,150.274674 241.3953,151.032202 242.798956,152.547258 C244.202611,154.062315 244.904439,156.156658 244.904439,158.830287 C244.904439,161.548477 244.191471,163.67624 242.765535,165.213577 C241.3396,166.750914 239.5349,167.519582 237.351436,167.519582 Z M284.540992,177.612533 C291.314186,177.612533 296.460923,175.651871 299.981201,171.730548 L299.981201,171.730548 L293.297128,164.779112 C292.004874,165.893124 290.72376,166.695213 289.453786,167.185379 C288.183812,167.675544 286.679896,167.920627 284.942037,167.920627 C282.624891,167.920627 280.69765,167.419321 279.160313,166.41671 C277.622977,165.414099 276.586945,163.977023 276.052219,162.105483 L276.052219,162.105483 L302.387467,162.105483 C302.521149,160.100261 302.58799,159.05309 302.58799,158.963969 C302.58799,155.087206 301.7302,151.73403 300.014621,148.904439 C298.299043,146.074848 295.970757,143.913664 293.029765,142.420888 C290.088773,140.928111 286.813577,140.181723 283.204178,140.181723 C279.416536,140.181723 276.007659,140.983812 272.977546,142.58799 C269.947433,144.192167 267.574587,146.409051 265.859008,149.238642 C264.143429,152.068233 263.28564,155.265448 263.28564,158.830287 C263.28564,162.439687 264.165709,165.670322 265.925849,168.522193 C267.685988,171.374064 270.170235,173.602089 273.37859,175.206266 C276.586945,176.810444 280.307746,177.612533 284.540992,177.612533 Z M290.690339,155.42141 L275.851697,155.42141 C276.208181,153.505309 277.04369,151.990252 278.358225,150.87624 C279.672759,149.762228 281.310357,149.205222 283.271018,149.205222 C285.23168,149.205222 286.869278,149.762228 288.183812,150.87624 C289.498346,151.990252 290.333856,153.505309 290.690339,155.42141 L290.690339,155.42141 Z M321.169713,177.010966 L321.169713,160.367624 C321.169713,157.337511 321.938381,155.087206 323.475718,153.61671 C325.013055,152.146214 327.140818,151.410966 329.859008,151.410966 C330.616536,151.410966 331.574587,151.477807 332.733159,151.611488 L332.733159,151.611488 L332.733159,140.181723 C330.05953,140.181723 327.686684,140.593908 325.614621,141.418277 C323.542559,142.242646 321.8604,143.479199 320.568146,145.127937 L320.568146,145.127937 L320.568146,140.78329 L308.469974,140.78329 L308.469974,177.010966 L321.169713,177.010966 Z M350.780157,177.010966 L350.780157,159.030809 C350.780157,156.31262 351.359443,154.285117 352.518016,152.948303 C353.676588,151.611488 355.236205,150.943081 357.196867,150.943081 C360.850827,150.943081 362.677807,153.416188 362.677807,158.362402 L362.677807,158.362402 L362.677807,177.010966 L375.377546,177.010966 L375.377546,159.030809 C375.377546,156.31262 375.956832,154.285117 377.115405,152.948303 C378.273977,151.611488 379.811314,150.943081 381.727415,150.943081 C383.465274,150.943081 384.813229,151.544648 385.771279,152.747781 C386.72933,153.950914 387.208355,155.822454 387.208355,158.362402 L387.208355,158.362402 L387.208355,177.010966 L399.908094,177.010966 L399.908094,156.290339 C399.908094,150.89852 398.582419,146.865796 395.93107,144.192167 C393.279721,141.518538 389.726023,140.181723 385.269974,140.181723 C382.685466,140.181723 380.30148,140.671889 378.118016,141.652219 C375.934552,142.63255 374.129852,144.036205 372.703916,145.863185 C371.456223,143.947084 369.829765,142.521149 367.824543,141.585379 C365.819321,140.649608 363.546736,140.181723 361.006789,140.181723 C358.823325,140.181723 356.806963,140.549347 354.957702,141.284595 C353.108442,142.019843 351.515405,143.122715 350.17859,144.593211 L350.17859,144.593211 L350.17859,140.78329 L338.080418,140.78329 L338.080418,177.010966 L350.780157,177.010966 Z" id="Pachyderm" fill="#020408" fill-rule="nonzero"></path>
            </g>
        </g>
    </g>
</svg>
