<svg width="14" height="23" xmlns="http://www.w3.org/2000/svg" xmlns:xlink="http://www.w3.org/1999/xlink"><defs><linearGradient x1="90.5103601%" y1="46.8981282%" x2="0%" y2="58.0611603%" id="a"><stop stop-color="#FE9B7C" offset="0%"/><stop stop-color="#D06868" offset="100%"/></linearGradient><linearGradient x1="39.3363049%" y1="101.288192%" x2="62.0724469%" y2="13.5277803%" id="e"><stop stop-color="#4C416C" offset="0%"/><stop stop-color="#4F7995" offset="100%"/></linearGradient><linearGradient x1="57.7780496%" y1="-2.45069434%" x2="37.1259825%" y2="98.3818098%" id="k"><stop stop-color="#5190A5" offset="0%"/><stop stop-color="#4E6586" offset="100%"/></linearGradient><linearGradient x1="74.8850735%" y1="36.4357666%" x2="9.54062026%" y2="100%" id="m"><stop stop-color="#EFE8CD" offset="0%"/><stop stop-color="#D3CAAF" offset="100%"/></linearGradient><path id="b" d="M3.17597274.00788421L.83456218.0105123 0 .79893376 2.55005111.79630569z"/><path d="M9.83561667 2.48168798C8.97506715 1.94051549 9.22895951.48480036 9.22895951.48480036s.04615592-.3679563-.18569009-.42038633c-.23184601-.05237746-.30143922-.13116705-.27800193.34185955.02346047.47305289-.22802093 1.78727264.46781847 2.47007191.50831791.49878171 1.22889284.39329091 1.73934354 1.18137073.5082251.78458449-.1949167 1.88777009-.3494034 1.97131649-.4866889.26314881-.4634602.36824539-.85751266.42109591-.39407562.05285052-1.43456602-.0778172-2.013984.15912973-.57944115.23694693-.41980795.47336825-.97595092.8679732-.55614296.39463123-1.48315609.92090256-1.87697671 1.42052524-.15367535.19497663-.25771744.42188433-.31803774.64335192-.37339702.12748776-1.20350821.25455502-1.85757313.67223439-.38322632.2447523-1.39235109 1.0321489-1.85358579 1.7884553-.41688699.6835877-.62506389 1.4984476-.7405812 2.2081057-.07151735.4393348-.11519277 1.287834-.11500737 1.8134483.00041734.5176775.06630834.9303373.14665814 1.4385538.03577323.2262664.06903894.619373.06903894.8725723s-.06903894.3147084-.06903894.4908678c0 .1761595.04830166.2308802.0854635.2737404.03716183.0428601 0-.1327031 0-.1794095 0-.0467064.05504397-.1703566.0718447-.1303385.01680071.040018-.0025295.0031661-.017432.2044326-.0149025.2012665.13189451.5811785.13189451.4088397 0-.1723389 0-.4088397.03500265-.511935.03500264-.1030954.03691846-.0241377.03691846 0s-.00921122.0814503.01341641.069667c.02262763-.0117834.06270989-.0586608.02262763-.2928478-.04008226-.234187-.06385631-.234187-.07798655-.3330167-.0482159-.3372315-.04765073-.5067069-.07649403-.734546-.0465732-.3679037-.07040459-1.5242289-.04743095-1.918466.03512116-.6031424.17147935-.6730754.23138237-.7885791.0953951-.1840439.1897238 1.1125415.60399119 2.2596948.35107249.9721236.83511856.971782 1.02069273 1.1818963.18557418.2101143-.16162687 1.1302022-.02216226 1.787115.12520751.5898706-.04583137.9724127.00062592 1.1300707.0464573.1576318.60292481.340987 1.0202059.340987.41728109-.0003889.92722177-.1321604.92710586-.3424061-.00032456-.5518951-.18571327-.4466408-.23228648-.7882375-.04652684-.3416231.43350869-.842297.48613247-1.2618423.09231185-.7359389-.00048682-.8935444-.13990507-1.4453343-.00887882-.035111-.06994095-.683246-.06994095-.683246s.76510806.1308517 1.27488646-.263727c.84327872-.6527078 1.15814048-1.7353682 1.15814048-1.7353682s.34641285.4359708.55672252.630343c.3019956.2791012.44016201.3060915.602948.3674832.20868691.0787107.76237255.2359746.76237255.2359746s-.27519688.3681402-.43740331.4996489c-.11470594.0930075-.44301343.3945524-.37339703.5521841.06963958.1576318.29761415.5847985.53363297.7617466.42024842.3150532.76802903.4199133.88394044.39358.11588823-.0263596.25171323-.8937283.41389648-1.051544.16218325-.1577894.46605661-.6836403.44271205-.9464212-.02285773-.2575247-.0702655-1.2614217-.65000803-1.6289313-.31476903-.1995232-.70675825-.3126616-.85832402-.9980627-.13944143-.6306321-1.0206-1.0504928-1.0206-1.0504928.27925378-.4528693.74725771-1.0419252.87186248-1.1967975.13545407.0762141.26075431.1256481.39975528.1183683.25238551-.0131666.17528124-.3286403.03018333-.7617465l.04177448.0783954s.44950446-.3102701.60236843-.6574384c.16206734-.3680351.57888479-1.20933342.92654951-1.3409998.4012389-.15192882 1.112425-.57896417 1.0427854-.7365959-.0977133-.22123107-.7187898-.23600083-.7187898-.23600083s.7937381-.33831165.8343303-.42109591c.3231379-.65925175.778322-1.88960974.5081557-3.28548367-.3254793-1.681703-1.7395985-1.65442362-2.15701873-1.91691541z" id="d"/><path d="M.86942833 2.52654917C.45251816 3.21013686.24434126 4.02497045.12882394 4.7346549.0573066 5.1740159.01365436 6.02248881.01389272 6.54810313c.0003412.51765125.05968785 1.09477577.14001446 1.60301853.11635187.7357812.25590921 1.57668526.34863835 1.5503257C.54749597 9.68864865.48397652 8.9007528.38573 8.12468326.33917998 7.75677952.31532541 6.60045431.33829905 6.20621729c.03512116-.60314242.17147935-.67304912.23138237-.78857915.0953951-.18404385.1897238 1.11254154.60401438 2.25972106.3510493.97212367.83509537.97175574 1.02069272 1.18187006.185551.21011433-.16167324 1.13020218-.02220862 1.78711494.12525387.5898707-.04580819.9724128.0006491 1.1300445.04643411.1576843.60292481.3412288 1.0202059.3409271.41728109-.0003027.92722177-.132048.92710586-.34232-.00032456-.551895-.18571327-.4466407-.23226329-.7882375-.04657321-.341623.4334855-.8422969.48610928-1.26181598.09231185-.73596516-.00051001-.89354433-.13990507-1.44536052-.00887882-.03511104-.06991777-.68324605-.06991777-.68324605s.76508488.13085169 1.27486328-.26372698c.84325554-.65270786 1.15814048-1.73536822 1.15814048-1.73536822s.34641285.43597079.55672252.63034297c.3019956.2791012.44013883.30609149.602948.36748324.20868691.07871075.76237255.23597455.76237255.23597455s-.27519688.36814027-.43740331.49964897c-.11470594.09300745-.44301343.3945261-.37339703.55218412.06963958.15760545.29759096.5847722.53363297.76174654.42022524.31505322.76802903.41993956.88394044.39355372.11586505-.02633328.25171323-.89370202.41389648-1.05151772.16218325-.15778942.46603341-.68364026.44271205-.94642113-.02285773-.25752474-.0702655-1.26142179-.65000803-1.6289576-.31479221-.19949692-.70675825-.3126354-.85832402-.99801018-.13944143-.63065834-1.0206-1.05051905-1.0206-1.05051905.32425059-.52585084.90341356-1.23585066.90341356-1.23585066L4.70468202.01395506C4.43284657.16456984 3.46456898.2645154 2.72299094.7380939 2.33976462.9828462 1.33063985 1.77024273.86942834 2.52654917z" id="g"/><path d="M4.73574628 2.86215391c.50829473.4987817 1.22886962.39331719 1.73932031 1.18137073.508202.78458448-.19491663 1.88774381-.34940337 1.97131648-.48668884.26314881-.46343701.36827167-.85751264.42109591-.13121172.01760808-.33410306.0148486-.56775729.01211541-.46809665-.00551895-1.05975487-.01101162-1.44622671.14701432-.57941797.23697322-.41978477.47336826-.97595092.8679732-.55614296.39460495-1.48315609.92090256-1.8769767 1.42052525-.39382063.49962268-.46297338 1.20925459-.30051194 1.49821099.16241507.2889828.64942847.6039835 1.97084177.6293181 1.32139012.0253083 1.64638254.7609318 2.1563464.7343094.25236233-.0131929.1753276-.328614.0302297-.7616939l.04175129.0783428s.4494581-.3102702.60234525-.6574647c.16209052-.3680614.57888478-1.2093334.92654948-1.34099979.40123895-.15192882 1.11242502-.57896417 1.04278544-.7365959-.0977365-.22123106-.71878986-.23600083-.71878986-.23600083s.79373818-.33831165.83433036-.42112219c.32313784-.65922547.77832196-1.88960974.50815564-3.28543111-.32550243-1.68172928-1.7395985-1.65444989-2.15701868-1.91694168C4.4776811 1.9263239 4.73159665.47060878 4.73159665.47060878s.04615592-.3679563-.18569009-.42038633c-.08116117-.01834394-.14245513-.0399204-.18682601-.0399204-.08236666 0-.10640668.07432185-.09117592.38180623.02343728.4730266-.22802094 1.78724635.46784165 2.47004563z" id="j"/><radialGradient cx="41.0573244%" cy="27.7365625%" fx="41.0573244%" fy="27.7365625%" r="60.073125%" gradientTransform="matrix(0 1 -.76473 0 .62268333 -.133207)" id="c"><stop stop-opacity=".5" offset="0%"/><stop stop-opacity="0" offset="100%"/></radialGradient><filter x="-31.2%" y="-20.8%" width="162.5%" height="141.7%" filterUnits="objectBoundingBox" id="i"><feOffset in="SourceAlpha" result="shadowOffsetOuter1"/><feGaussianBlur stdDeviation=".5" in="shadowOffsetOuter1" result="shadowBlurOuter1"/><feColorMatrix values="0 0 0 0 0 0 0 0 0 0 0 0 0 0 0 0 0 0 0.5 0" in="shadowBlurOuter1" result="shadowMatrixOuter1"/><feMerge><feMergeNode in="shadowMatrixOuter1"/><feMergeNode in="SourceGraphic"/></feMerge></filter></defs><g fill="none" fill-rule="evenodd"><path fill="#D06868" d="M9.38882474 18.133694l-.62592163.79630569v2.54922942l.62592163-.78842147z"/><g transform="translate(6.212852 18.133694)"><use fill="url(#a)" xlink:href="#b"/><use fill="url(#c)" xlink:href="#b"/></g><path fill="#A5597E" d="M8.76290311 18.92211547l-2.55005111.00262807v2.55711364l2.55005111-.00262807z"/><path d="M9.61877191 8.73672851c-.00020864-.13695409-.09442144-.71193468.40318629-.72697146.397692-.01203555 1.2271773.14791778 1.9386184-.06011648.7564842-.22120292 1.532743-1.04510187 1.6261907-.94949125.093471.09564125-.8158772 1.36310978-1.9671094 1.71740807-.6735612.20726864-1.5750506.12344856-2.00088599.01917112-.16593878-.0406391.08313167.12305044-.51837902.00140875" fill="#C1BBA7"/><g><path d="M3.60982944 20.72500887s.46369202.07850049.81142627.0782645c.34773424-.00026334.6026698-.13185088.69537575-.18449116.09268277-.05261399.13883869-.42057029-.09307687-.60437762-.15200622-.1204708-.04240039-1.25742712-.27913786-1.68175555-.27846558-.49914964.20752779-1.99749208.20752779-1.99749208l-1.59899795 1.05238498s.34889335 2.07591373.37219155 2.25987874c.023275.18393873-.20808417.9987986-.11530868 1.07758819" fill="#4B2357"/><path d="M7.57350138 13.82371395s-.14370697.75959152.14454153 1.60362299c.28824851.84400518.94324073 1.11543242.96123018 1.51261287.00799789.17668525-.07443831.36732557-.12414113.66379832-.0620126.36997991.15543721.73070902.01673761 1.03517111-.12126652.26624993-1.71377344.18706613-1.5200391-.24330687.19373434-.43034672.24779542-1.02933679.25530648-1.134118.00753424-.10478122-.97817642-1.27687486-.90237036-2.00816205.07580607-.73131348-.35107249-.93096807-.35107249-.93096807l1.51980728-.4986503z" fill="#4B2A5C"/><mask id="f" fill="#fff"><use xlink:href="#d"/></mask><use fill="url(#e)" xlink:href="#d"/><g mask="url(#f)"><g transform="translate(0 9.475249)"><mask id="h" fill="#fff"><use xlink:href="#g"/></mask><path d="M.16047472 5.89954237s.20864054-2.496668 1.25184327-2.65435229c1.0421827-.15752661 1.20879877-.14969298 1.66173421.29960213.55637479.55189503.34492805.80367283.46752292.80367283.12259487 0 .74825531-.45678791.63054263-1.29777082-.11382982-.81324234.66239201-1.66709864 2.31273872-1.59041151C8.13518 1.53694356 4.58829073.90620638 4.58829073.90620638L1.18049516 2.4304879s-.9504736 1.41915865-.97365588 2.496668l-.04636456.97238648z" fill="#4F6486" mask="url(#h)"/><path d="M5.86670553 7.7922033s-1.6788841-.01180004-1.6677566-.25936439c.01112749-.24756434.08980816-.59941056.02199998-.93809014-.01358481-.06793565.76285938.1328753 1.2167453-.28753731.90095624-.83449157.06671861-1.58958909.06671861-1.58958909s1.03165795.6281091 1.10475168.93730172c.13135082.55544293-.74245897 2.13727921-.74245897 2.13727921" fill="#4C3D6A" mask="url(#h)"/><path d="M.14232994 8.13799707S.1753647 6.70490964.18748903 6.00923282c.02246363-1.28778135.1958671-2.13764714.60116296-2.81248335.34740969-.57841228 1.69596944-.07689738 2.20185322-.84258603 1.0423218-1.5775788 2.66538296-1.00058569 2.66538296-1.00058569l2.96774948.7337313S7.90570553 3.56859531 7.5324476 3.3765884c-.25507466-.13121961-.83456218-.47305288-.83456218-.47305288s.14734659.34107113.46601025.49886055c.74204169.3674044.99723226.68256274 1.15980961 1.20807194.06794727.2196805.33704721.62421955.52607554.71520339.18617849.0896125.34152808.20250606.4683006.3253154.02635276.02552891-.07063364.15678499-.04673039.1830508.02143256.02355092.2073708-.09641192.2268649-.07245162.0212866.02616347-.11907579.22121111-.10006415.24764684.01893068.02632314.20102878-.09582652.2177414-.0694564.02372966.03744201-.1804046.17175694-.16105516.20875094.01382889.02643931.20503809-.02593158.21667662 0 .04868575.10847571.07837859.21149197.09051219.30053952.04655002.34162302.2089651.57801806-.2309419 1.55074619-.32221055.71241764 1.36715197-1.0522273 1.36715197-1.0522273L6.79005818-1.80092284l-7.3928068 4.18399507.55964348 5.78133696.18543508-.02641212z" fill="#4F728F" mask="url(#h)"/><path d="M9.13467253 3.90029474s-.80115651-2.43038803-.78970446-2.68005483c.01145204-.24969308-2.17899549.264384-2.17899549.264384s.82355059.31053294 1.39123833.52458937c.83474764.31479041-.34706195 1.18289501-.34706195 1.18289501l1.53047113.78731768.39405244-.07913123z" fill="#4C416D" mask="url(#h)"/><path d="M1.76709964 11.7109944S.45431015 6.39009558.4657622 6.14042878c.01145205-.2496668-.06919912-2.01318167.18469324-1.36672862.09284505.2364476.58134211 3.17954611 1.6014321 3.31021383.59893746.07671341.21835392 1.83681178.30262152 2.20736991.20915056.9196673-.27716737 1.839834-.27716737 1.839834l-.51024205-.4201235z" fill="#4C3D6A" mask="url(#h)"/><path d="M.16047472 4.34846504c.1416194-.94559067 1.13741617-2.3827114 2.1208068-3.01517389.98339062-.63246248 1.41221757-.9124137 2.61932628-.9124137 1.20710871 0-.91927712-.83502868-.91927712-.83502868L.30209412 1.33329115s-.66803008.1548231-.69121236 1.23233244l.54959296 1.78284145z" fill="#5191A6" mask="url(#h)"/></g></g><g filter="url(#i)" mask="url(#f)"><g transform="translate(4.497363 .014192)"><mask id="l" fill="#fff"><use xlink:href="#j"/></mask><path d="M4.73574628 2.86215391c.50829473.4987817 1.22886962.39331719 1.73932031 1.18137073.508202.78458448-.19491663 1.88774381-.34940337 1.97131648-.48668884.26314881-.46343701.36827167-.85751264.42109591-.13121172.01760808-.33410306.0148486-.56775729.01211541-.46809665-.00551895-1.05975487-.01101162-1.44622671.14701432-.57941797.23697322-.41978477.47336826-.97595092.8679732-.55614296.39460495-1.48315609.92090256-1.8769767 1.42052525-.39382063.49962268-.46297338 1.20925459-.30051194 1.49821099.16241507.2889828.64942847.6039835 1.97084177.6293181 1.32139012.0253083 1.64638254.7609318 2.1563464.7343094.25236233-.0131929.1753276-.328614.0302297-.7616939l.04175129.0783428s.4494581-.3102702.60234525-.6574647c.16209052-.3680614.57888478-1.2093334.92654948-1.34099979.40123895-.15192882 1.11242502-.57896417 1.04278544-.7365959-.0977365-.22123106-.71878986-.23600083-.71878986-.23600083s.79373818-.33831165.83433036-.42112219c.32313784-.65922547.77832196-1.88960974.50815564-3.28543111-.32550243-1.68172928-1.7395985-1.65444989-2.15701868-1.91694168C4.4776811 1.9263239 4.73159665.47060878 4.73159665.47060878s.04615592-.3679563-.18569009-.42038633c-.08116117-.01834394-.14245513-.0399204-.18682601-.0399204-.08236666 0-.10640668.07432185-.09117592.38180623.02343728.4730266-.22802094 1.78724635.46784165 2.47004563z" fill="url(#k)" mask="url(#l)"/><path d="M4.29987531 11.0620342s.44948128-.3102702.60236844-.6574384c.16206734-.3680614.57888478-1.20933342.92654948-1.34099981.40123895-.15192881 1.11242502-.57896416 1.04278544-.7365959-.0977365-.22123106-.71878986-.2360271-.71878986-.2360271s.79373818-.33828538.83433036-.42109591c.32313784-.65922547.76622081-1.24617898.33468262-2.58888702-.27867422-.86705338-1.78614853-1.96976593-2.20356871-2.23225772-.86054952-.54117249-.6734685-2.07570348-.6734685-2.07570348S4.44453276.32625669 4.21268675.27385294c-.23186919-.05237746-.13914006-.0524563-.11567959.42059658.02343728.4730266-.05712115 1.48488671.63871825 2.16768599.50831792.4987817 1.26387488.77438757 1.77432556 1.56241483.50822519.78461077 1.25277056 1.62851083.55778891 2.5225545-.35649715.45862477-1.64522343 1.2889377-2.06238861 1.47321808-.36973423.16330836-1.01988135.26354301-1.15897504.23736742-.607654-.11437367-1.02046091-.78768561-1.34489696-.55092264-.55166878.40259428.71920714.97186086.32538652 1.47148355-.39382062.49959645-1.87560895.42201575-1.9005299.76350735-.02299683.3153949.06984821.499281 1.39123833.5246156 1.3214133.0253347 1.40025625.9056598 1.91024329.8790111.51001022-.0266486-.32527061-1.2875185-.34898609-2.2598787-.02373866-.97238648-1.02066954-1.12933491-1.02066954-1.12933491" fill="#4E567C" mask="url(#l)"/><path d="M2.68666662 7.44961577c.37061515-.55218412.50968567-.60485067.88055583-.68392934.25029947-.0534055.96591256-.01918675 1.56103477-.08307725.037717-.00404918.08153974.15427897.13228494.15427897.0507452 0-.00676677-.3030513.04924765-.31498309.05601442-.01193179.1707229.33297409.22287891.31498309.05215601-.01799099-.06945217-.33031831 0-.35332035s.20887561.28960758.24888847.26546988c.04001286-.02413771-.07862507-.26546988-.03952194-.32598097.03910312-.06051109.07303251.09091447.0795348.08691656.64264119-.39512601.89820797-.99074251.92067467-1.42856535.02292727-.44677217-.44106612-1.07719398-.44106612-1.07719398L2.84585935 1.93053407S2.92544413.39316477 4.30534633.16867489c.48678158-.0791838-.05090829.8659233.51112297 1.99696646.29056541.58471829.99746987.47774101 1.67450197.98476047.0469079.03512864.12070521-.05943959.15099612-.03315887.03029091.02628072-.07555183.11574166.04287817.22436134.11842999.10861969.16935631-.07278526.21351358-.02363724.04415726.04914802-.12016575.14405631 0 .26042033.12016574.11636403.18232276-.03925425.22298797.01887644.04066521.05813068-.08329435.12800941-.02999469.19614293.16755561.21418815.17322733.28948284.25328392.6568435.25118003 1.15256707.14906207.90537066.48759295 1.36622929.64089739.87249348-2.989309 2.13089299-2.989309 2.13089299l4.28828185-.76524188-.26149615-1.0458148-5.91261804-12.5368475L-.32524511 10.605483s.62508707-1.49847389 1.43611924-2.10350853c.97982236-.73094554 1.20520052-.50020086 1.57579249-1.0523587z" fill="#5DA7B5" mask="url(#l)"/><path d="M4.5665527 11.2063863l-.33424215-.2581029s-.22164581-.98232064-.33892497-1.29196003c-.13927916-.36785118-.14945618-.55037075-.55672253-.65662368-1.20566416-.31450132-.48724522-.70923767-.48724522-.70923767s.78833671.23597454.97414271.86658031c.07812429.26511986.13965007.97228137.48738431.97201857.34773425-.0002365.46329792-.60477184.76455169-.8152541.30125376-.21045597.50975522-.47342081.78789625-.52619249.27816421-.05274539 1.01999726-.05327101 1.01999726-.05327101l-2.31683735 2.472043z" fill="#4C416D" mask="url(#l)"/><path d="M4.17046949 7.68505945c.34761833-.21050853.41723473-.07913124.62578254-.23697322.208571-.15784197-.76524715-.41993955-1.0896832-.2094573-.18550463.1203394-.26450985.87798615-.06896729.99871976.5101725.31500066.24587129-.37849487.53286795-.55228924z" fill="#4E567C" mask="url(#l)"/></g></g></g><path d="M4.23527176 16.9368562c.15422662-.7595401.20868582-.865412-.21050826-1.4250148-.27946272-.3730685-.43449423-.6507768-.46509455-.8331249-.01206255.2498635.12277125.5547481.40450141.9146536.42259524.5398582.02807223 1.4823795.21331549 2.1065764.1234955.4161313.20002646.7215976.22959289.9163988-.03730899-.369564-.08210013-.6871611-.13437342-.9527914-.02588813-.1315523-.09955483-.4207609-.03743356-.7266977z" fill="#4F6486"/><path d="M9.75790502 8.59200432s.62158658-.02060408.81133358-.07942032c.2549587-.07902612.6258752-.10559592.6257593-.28956093l-.3999639-.13337463-.6306277.24982448-.0226027.06967018-.38389858.18286122z" fill="#4B2A5C"/><path d="M11.9910821 6.57992907c-.5665518.51943835-1.3630255.81588482-1.7149093 1.02618311-.44030113.26312252-.1619051.65714929-.115471.7622196.4163306-.13518801 1.2515419-.52653414 1.7844562-1.02623567.9108319-.85412326 1.2969097-2.28734209 1.1809751-2.31357025-.0014605-.00031537-.0029442-.00047305-.0044974-.00047305-.121962.00010512-.5357425 1.00652513-1.1305536 1.55187626" fill="url(#m)"/><path d="M10.1606856 8.36833703c-.17124753-.30212311-.1249525-.43355297-.1249525-.43355297s.185551.18383361.5100334.05219351c.374533-.15192882.8702397-.37513094 1.4367915-.89456929.602438-.5523418 1.0191859-1.47245594 1.0191859-1.47245594s-.145747.86802576-1.0566021 1.72214902c-.5329143.49970153-1.3681256.89104767-1.7844562 1.02623567" fill="#D3CBAF"/><g><path d="M8.435435 7.46831166c-.00005296-.09734377.07934967-.17629104.1774041-.17634366.09802794-.00007878.17753655.07878964.1775896.17610713.00007942.09734378-.0793497.17629105-.17737765.17636991-.09802793.00005254-.17756304-.0787896-.17761605-.17613338" fill="#020408"/><path d="M8.72445758 7.39611992c.00003237.03576958-.02896562.06479997-.0647676.0648324-.03576959.00003237-.06479998-.02896562-.0648324-.0647676-.00003238-.03576959.02896561-.06479998.0647676-.0648324.03576958-.00003238.06479997.02899801.0648324.0647676" fill="#D5B8D8"/></g></g></svg>