<?xml version="1.0" encoding="utf-8"?>
<!-- Generator: Adobe Illustrator 24.0.0, SVG Export Plug-In . SVG Version: 6.00 Build 0)  -->
<svg version="1.1" id="Layer_1" xmlns="http://www.w3.org/2000/svg" xmlns:xlink="http://www.w3.org/1999/xlink" x="0px" y="0px"
	 viewBox="0 0 383 245" style="enable-background:new 0 0 383 245;" xml:space="preserve">
<style type="text/css">
	.st0{fill:#020408;}
	.st1{fill-rule:evenodd;clip-rule:evenodd;fill:#D06868;}
	.st2{fill-rule:evenodd;clip-rule:evenodd;fill:url(#path-3_2_);}
	.st3{fill-rule:evenodd;clip-rule:evenodd;fill:url(#path-3_3_);}
	.st4{fill-rule:evenodd;clip-rule:evenodd;fill:#A5597E;}
	.st5{fill-rule:evenodd;clip-rule:evenodd;fill:#C1BBA7;}
	.st6{fill-rule:evenodd;clip-rule:evenodd;fill:#4B2357;}
	.st7{fill-rule:evenodd;clip-rule:evenodd;fill:#4B2A5C;}
	.st8{fill-rule:evenodd;clip-rule:evenodd;fill:url(#path-5_4_);}
	.st9{filter:url(#Adobe_OpacityMaskFilter);}
	.st10{fill-rule:evenodd;clip-rule:evenodd;fill:#FFFFFF;}
	.st11{mask:url(#mask-6_1_);}
	.st12{filter:url(#Adobe_OpacityMaskFilter_1_);}
	.st13{mask:url(#mask-8_1_);fill-rule:evenodd;clip-rule:evenodd;fill:#4F6486;}
	.st14{filter:url(#Adobe_OpacityMaskFilter_2_);}
	.st15{mask:url(#mask-8_2_);fill-rule:evenodd;clip-rule:evenodd;fill:#4C3D6A;}
	.st16{filter:url(#Adobe_OpacityMaskFilter_3_);}
	.st17{mask:url(#mask-8_3_);fill-rule:evenodd;clip-rule:evenodd;fill:#4F728F;}
	.st18{filter:url(#Adobe_OpacityMaskFilter_4_);}
	.st19{mask:url(#mask-8_4_);fill-rule:evenodd;clip-rule:evenodd;fill:#4C416D;}
	.st20{filter:url(#Adobe_OpacityMaskFilter_5_);}
	.st21{mask:url(#mask-8_5_);fill-rule:evenodd;clip-rule:evenodd;fill:#4C3D6A;}
	.st22{filter:url(#Adobe_OpacityMaskFilter_6_);}
	.st23{mask:url(#mask-8_6_);fill-rule:evenodd;clip-rule:evenodd;fill:#5191A6;}
	.st24{filter:url(#Adobe_OpacityMaskFilter_7_);}
	.st25{mask:url(#mask-6_2_);}
	.st26{filter:url(#Adobe_OpacityMaskFilter_8_);}
	.st27{mask:url(#mask-11_1_);fill-rule:evenodd;clip-rule:evenodd;fill:url(#Fill-39_1_);}
	.st28{filter:url(#Adobe_OpacityMaskFilter_9_);}
	.st29{mask:url(#mask-11_2_);fill-rule:evenodd;clip-rule:evenodd;fill:#4E567C;}
	.st30{filter:url(#Adobe_OpacityMaskFilter_10_);}
	.st31{mask:url(#mask-11_3_);fill-rule:evenodd;clip-rule:evenodd;fill:#5DA7B5;}
	.st32{filter:url(#Adobe_OpacityMaskFilter_11_);}
	.st33{mask:url(#mask-11_4_);fill-rule:evenodd;clip-rule:evenodd;fill:#4C416D;}
	.st34{filter:url(#Adobe_OpacityMaskFilter_12_);}
	.st35{mask:url(#mask-11_5_);fill-rule:evenodd;clip-rule:evenodd;fill:#4E567C;}
	.st36{fill-rule:evenodd;clip-rule:evenodd;fill:#4F6486;}
	.st37{fill-rule:evenodd;clip-rule:evenodd;fill:url(#Tusk_1_);}
	.st38{fill-rule:evenodd;clip-rule:evenodd;fill:#D3CBAF;}
	.st39{fill-rule:evenodd;clip-rule:evenodd;fill:#020408;}
	.st40{fill-rule:evenodd;clip-rule:evenodd;fill:#D5B8D8;}
	.st41{fill-rule:evenodd;clip-rule:evenodd;fill:#FE9B7C;}
</style>
<title>Group 14</title>
<desc>Created with Sketch.</desc>
<g id="Page-1">
	<g id="PachydermBrand-Copy-5" transform="translate(-208.000000, -3147.000000)">
		<g id="Group-14" transform="translate(208.000000, 3147.000000)">
			<g id="Group-18">
				<path id="Pachyderm" class="st0" d="M20.5,187.2c4.1,0,7.6,0.7,10.6,2c3,1.3,5.3,3.3,6.9,5.8s2.4,5.4,2.4,8.8s-0.8,6.3-2.4,8.8
					c-1.6,2.5-3.9,4.4-6.9,5.7c-3,1.3-6.5,2-10.6,2h-7.8V232H0v-44.8H20.5z M19.7,210.3c2.6,0,4.6-0.6,5.9-1.7s2-2.7,2-4.8
					s-0.7-3.7-2-4.9s-3.3-1.7-5.9-1.7h-7v13.1H19.7z M61.4,196.7c5.8,0,10.2,1.3,13.2,3.9c3,2.6,4.5,6.6,4.5,12.1V232H67.8v-4.5
					c-1.7,3.4-5.2,5.1-10.2,5.1c-2.7,0-5-0.5-7-1.4s-3.4-2.2-4.4-3.8s-1.5-3.4-1.5-5.5c0-3.3,1.3-5.8,3.8-7.6
					c2.5-1.8,6.4-2.7,11.6-2.7h6.9c-0.2-3.7-2.7-5.5-7.4-5.5c-1.7,0-3.3,0.3-5.1,0.8c-1.7,0.5-3.2,1.3-4.4,2.2l-4.1-8.3
					c1.9-1.3,4.3-2.3,7-3C55.8,197.1,58.6,196.7,61.4,196.7z M60.9,224.9c1.4,0,2.6-0.3,3.7-1c1.1-0.7,1.8-1.7,2.3-3v-3h-5.2
					c-3.5,0-5.3,1.2-5.3,3.5c0,1.1,0.4,1.9,1.2,2.6C58.4,224.6,59.5,224.9,60.9,224.9z M104.5,232.6c-3.8,0-7.3-0.8-10.3-2.3
					s-5.4-3.7-7.1-6.4c-1.7-2.7-2.5-5.8-2.5-9.3c0-3.5,0.8-6.5,2.5-9.2c1.7-2.7,4-4.8,7.1-6.3c3-1.5,6.5-2.3,10.3-2.3
					c3.9,0,7.3,0.8,10.2,2.5c2.9,1.7,4.9,4,6.1,7l-9.4,4.8c-1.6-3.1-3.9-4.7-6.9-4.7c-2.2,0-4,0.7-5.4,2.2c-1.4,1.5-2.1,3.5-2.1,6
					c0,2.6,0.7,4.6,2.1,6.1c1.4,1.5,3.2,2.2,5.4,2.2c3,0,5.3-1.6,6.9-4.7l9.4,4.8c-1.2,3-3.2,5.3-6.1,7
					C111.8,231.7,108.4,232.6,104.5,232.6z M148,196.7c4.3,0,7.8,1.3,10.4,3.8c2.6,2.6,3.9,6.4,3.9,11.6V232h-12.2v-17.9
					c0-4.7-1.9-7.1-5.7-7.1c-2.1,0-3.8,0.7-5,2c-1.3,1.4-1.9,3.4-1.9,6.1V232h-12.2v-47.5h12.2v16c1.3-1.2,2.9-2.2,4.7-2.8
					C144,197.1,145.9,196.7,148,196.7z M206.5,197.3l-15,36.1c-1.7,4.3-3.9,7.3-6.4,9c-2.5,1.7-5.6,2.6-9.2,2.6
					c-1.8,0-3.7-0.3-5.5-0.9c-1.9-0.6-3.4-1.3-4.5-2.3l4.2-8.5c0.7,0.6,1.5,1.1,2.5,1.5c1,0.4,1.9,0.5,2.9,0.5
					c1.2,0,2.1-0.2,2.8-0.7c0.7-0.5,1.4-1.2,1.9-2.2l-14.8-35.1h12.5l8.5,21.2l8.6-21.2H206.5z M246.5,184.5V232h-11.6v-3.5
					c-2.3,2.7-5.7,4-10.2,4c-3.2,0-6-0.7-8.6-2.2c-2.6-1.5-4.7-3.6-6.2-6.3s-2.3-5.9-2.3-9.5c0-3.6,0.8-6.7,2.3-9.4
					c1.5-2.7,3.6-4.8,6.2-6.2c2.6-1.5,5.5-2.2,8.6-2.2c4.1,0,7.3,1.2,9.6,3.6v-15.8H246.5z M227.3,222.9c2.1,0,3.8-0.7,5.2-2.2
					c1.4-1.5,2-3.5,2-6.1c0-2.6-0.7-4.6-2-6c-1.3-1.5-3.1-2.2-5.2-2.2c-2.1,0-3.9,0.7-5.2,2.2c-1.4,1.5-2,3.5-2,6
					c0,2.6,0.7,4.6,2,6.1C223.4,222.2,225.1,222.9,227.3,222.9z M289.7,214.7c0,0.1-0.1,1.1-0.2,3h-25.2c0.5,1.8,1.5,3.2,3,4.1
					c1.5,1,3.3,1.4,5.5,1.4c1.7,0,3.1-0.2,4.3-0.7c1.2-0.5,2.4-1.2,3.7-2.3l6.4,6.7c-3.4,3.8-8.3,5.6-14.8,5.6
					c-4.1,0-7.6-0.8-10.7-2.3c-3.1-1.5-5.5-3.7-7.1-6.4c-1.7-2.7-2.5-5.8-2.5-9.3c0-3.4,0.8-6.5,2.5-9.2c1.6-2.7,3.9-4.8,6.8-6.4
					c2.9-1.5,6.2-2.3,9.8-2.3c3.5,0,6.6,0.7,9.4,2.1c2.8,1.4,5,3.5,6.7,6.2S289.7,211,289.7,214.7z M271.2,205.4
					c-1.9,0-3.4,0.5-4.7,1.6c-1.3,1.1-2.1,2.5-2.4,4.4h14.2c-0.3-1.8-1.1-3.3-2.4-4.4C274.7,205.9,273.1,205.4,271.2,205.4z
					 M306.9,201.5c1.2-1.6,2.8-2.8,4.8-3.6s4.3-1.2,6.8-1.2v10.9c-1.1-0.1-2-0.2-2.8-0.2c-2.6,0-4.6,0.7-6.1,2.1
					c-1.5,1.4-2.2,3.6-2.2,6.5V232h-12.2v-34.7h11.6V201.5z M368.9,196.7c4.3,0,7.7,1.3,10.2,3.8c2.5,2.6,3.8,6.4,3.8,11.6V232
					h-12.2v-17.9c0-2.4-0.5-4.2-1.4-5.4c-0.9-1.2-2.2-1.7-3.9-1.7c-1.8,0-3.3,0.6-4.4,1.9c-1.1,1.3-1.7,3.2-1.7,5.8V232h-12.2v-17.9
					c0-4.7-1.7-7.1-5.2-7.1c-1.9,0-3.4,0.6-4.5,1.9c-1.1,1.3-1.7,3.2-1.7,5.8V232h-12.2v-34.7h11.6v3.6c1.3-1.4,2.8-2.5,4.6-3.2
					c1.8-0.7,3.7-1.1,5.8-1.1c2.4,0,4.6,0.4,6.5,1.3c1.9,0.9,3.5,2.3,4.7,4.1c1.4-1.7,3.1-3.1,5.2-4S366.4,196.7,368.9,196.7z"/>
				<g id="Group-5-Copy-8" transform="translate(147.520000, 0.000000)">
					<g id="Group-Copy-11" transform="translate(0.000000, 31.093439)">
						<g id="Group-30" transform="translate(45.655877, 116.600398)">
							<polygon id="Fill-3" class="st1" points="23.3,0 18.7,5.1 18.7,21.5 23.3,16.4 							"/>
							<g id="Fill-8">
								<g>
									
										<linearGradient id="path-3_2_" gradientUnits="userSpaceOnUse" x1="-697.6488" y1="577.4713" x2="-698.5539" y2="577.3858" gradientTransform="matrix(23.339 0 0 -5.0865 16303.5322 2939.7124)">
										<stop  offset="0" style="stop-color:#FE9B7C"/>
										<stop  offset="1" style="stop-color:#D06868"/>
									</linearGradient>
									<polygon id="path-3" class="st2" points="23.3,0.1 6.1,0.1 0,5.1 18.7,5.1 									"/>
								</g>
								<g>
									
										<radialGradient id="path-3_3_" cx="-603.3954" cy="728.838" r="0.6007" gradientTransform="matrix(0 5.0865 15.6171 -1.000000e-15 -11372.7266 3070.6206)" gradientUnits="userSpaceOnUse">
										<stop  offset="0" style="stop-color:#000000;stop-opacity:0.5"/>
										<stop  offset="1" style="stop-color:#000000;stop-opacity:0"/>
									</radialGradient>
									<polygon id="path-3_1_" class="st3" points="23.3,0.1 6.1,0.1 0,5.1 18.7,5.1 									"/>
								</g>
							</g>
							<polygon id="Fill-5" class="st4" points="18.7,5.1 0,5.1 0,21.5 18.7,21.5 							"/>
						</g>
						<path id="Tusk-2" class="st5" d="M70.7,56.2c0-0.9-0.7-4.6,3-4.7c2.9-0.1,9,1,14.2-0.4c5.6-1.4,11.3-6.7,12-6.1
							c0.7,0.6-6,8.8-14.5,11C80.4,57.4,73.8,56.8,70.7,56.2c-1.2-0.3,0.6,0.8-3.8,0"/>
						<g id="Group-71">
							<g id="Group-20" transform="translate(24.531516, 88.808946)">
								<path id="Fill-1" class="st6" d="M2,44.5c0,0,3.4,0.5,6,0.5c2.6,0,4.4-0.8,5.1-1.2c0.7-0.3,1-2.7-0.7-3.9
									c-1.1-0.8-0.3-8.1-2.1-10.8c-2-3.2,1.5-12.8,1.5-12.8L0.1,23c0,0,2.6,13.3,2.7,14.5C3,38.7,1.3,43.9,2,44.5"/>
								<path id="Fill-16" class="st7" d="M31.1,0.1c0,0-1.1,4.9,1.1,10.3c2.1,5.4,6.9,7.2,7.1,9.7c0.1,1.1-0.5,2.4-0.9,4.3
									c-0.5,2.4,1.1,4.7,0.1,6.7c-0.9,1.7-12.6,1.2-11.2-1.6c1.4-2.8,1.8-6.6,1.9-7.3c0.1-0.7-7.2-8.2-6.6-12.9
									c0.6-4.7-2.6-6-2.6-6L31.1,0.1z"/>
							</g>
							<g id="Fill-52">
								
									<linearGradient id="path-5_4_" gradientUnits="userSpaceOnUse" x1="-669.2405" y1="806.6019" x2="-668.9435" y2="807.4796" gradientTransform="matrix(88.6318 0 0 -138.6841 59344.6523 112001.6719)">
									<stop  offset="0" style="stop-color:#4C416C"/>
									<stop  offset="1" style="stop-color:#4F7995"/>
								</linearGradient>
								<path id="path-5_1_" class="st8" d="M72.3,16C66,12.5,67.8,3.1,67.8,3.1s0.3-2.4-1.4-2.7c-1.7-0.3-2.2-0.8-2,2.2
									c0.2,3-1.7,11.5,3.4,15.9c3.7,3.2,9,2.5,12.8,7.6c3.7,5-1.4,12.1-2.6,12.7c-3.6,1.7-3.4,2.4-6.3,2.7
									c-2.9,0.3-10.5-0.5-14.8,1c-4.3,1.5-3.1,3-7.2,5.6C45.7,50.6,38.9,54,36,57.2c-1.1,1.3-1.9,2.7-2.3,4.1
									c-2.7,0.8-8.8,1.6-13.7,4.3c-2.8,1.6-10.2,6.6-13.6,11.5c-3.1,4.4-4.6,9.6-5.4,14.2c-0.5,2.8-0.8,8.3-0.8,11.7
									c0,3.3,0.5,6,1.1,9.2c0.3,1.5,0.5,4,0.5,5.6s-0.5,2-0.5,3.2s0.4,1.5,0.6,1.8c0.3,0.3,0-0.9,0-1.2s0.4-1.1,0.5-0.8
									c0.1,0.3,0,0-0.1,1.3s1,3.7,1,2.6c0-1.1,0-2.6,0.3-3.3c0.3-0.7,0.3-0.2,0.3,0c0,0.2-0.1,0.5,0.1,0.4
									c0.2-0.1,0.5-0.4,0.2-1.9c-0.3-1.5-0.5-1.5-0.6-2.1c-0.4-2.2-0.4-3.3-0.6-4.7c-0.3-2.4-0.5-9.8-0.3-12.3
									c0.3-3.9,1.3-4.3,1.7-5.1c0.7-1.2,1.4,7.2,4.4,14.5c2.6,6.3,6.1,6.2,7.5,7.6s-1.2,7.3-0.2,11.5c0.9,3.8-0.3,6.3,0,7.3
									c0.3,1,4.4,2.2,7.5,2.2c3.1,0,6.8-0.8,6.8-2.2c0-3.5-1.4-2.9-1.7-5.1c-0.3-2.2,3.2-5.4,3.6-8.1c0.7-4.7,0-5.7-1-9.3
									c-0.1-0.2-0.5-4.4-0.5-4.4s5.6,0.8,9.4-1.7c6.2-4.2,8.5-11.2,8.5-11.2s2.5,2.8,4.1,4.1c2.2,1.8,3.2,2,4.4,2.4
									c1.5,0.5,5.6,1.5,5.6,1.5s-2,2.4-3.2,3.2c-0.8,0.6-3.3,2.5-2.7,3.6c0.5,1,2.2,3.8,3.9,4.9c3.1,2,5.6,2.7,6.5,2.5
									c0.9-0.2,1.8-5.7,3-6.8c1.2-1,3.4-4.4,3.3-6.1c-0.2-1.7-0.5-8.1-4.8-10.5c-2.3-1.3-5.2-2-6.3-6.4c-1-4.1-7.5-6.8-7.5-6.8
									c2.1-2.9,5.5-6.7,6.4-7.7c1,0.5,1.9,0.8,2.9,0.8c1.9-0.1,1.3-2.1,0.2-4.9l0.3,0.5c0,0,3.3-2,4.4-4.2
									c1.2-2.4,4.3-7.8,6.8-8.6c2.9-1,8.2-3.7,7.7-4.7c-0.7-1.4-5.3-1.5-5.3-1.5s5.8-2.2,6.1-2.7c2.4-4.2,5.7-12.2,3.7-21.1
									C85.7,17.5,75.3,17.6,72.3,16z"/>
							</g>
							<defs>
								<filter id="Adobe_OpacityMaskFilter" filterUnits="userSpaceOnUse" x="-4.4" y="49.3" width="84.5" height="89.6">
									<feColorMatrix  type="matrix" values="1 0 0 0 0  0 1 0 0 0  0 0 1 0 0  0 0 0 1 0"/>
								</filter>
							</defs>
							<mask maskUnits="userSpaceOnUse" x="-4.4" y="49.3" width="84.5" height="89.6" id="mask-6_1_">
								<g class="st9">
									<path id="path-5_2_" class="st10" d="M72.3,16C66,12.5,67.8,3.1,67.8,3.1s0.3-2.4-1.4-2.7c-1.7-0.3-2.2-0.8-2,2.2
										c0.2,3-1.7,11.5,3.4,15.9c3.7,3.2,9,2.5,12.8,7.6c3.7,5-1.4,12.1-2.6,12.7c-3.6,1.7-3.4,2.4-6.3,2.7
										c-2.9,0.3-10.5-0.5-14.8,1c-4.3,1.5-3.1,3-7.2,5.6C45.7,50.6,38.9,54,36,57.2c-1.1,1.3-1.9,2.7-2.3,4.1
										c-2.7,0.8-8.8,1.6-13.7,4.3c-2.8,1.6-10.2,6.6-13.6,11.5c-3.1,4.4-4.6,9.6-5.4,14.2c-0.5,2.8-0.8,8.3-0.8,11.7
										c0,3.3,0.5,6,1.1,9.2c0.3,1.5,0.5,4,0.5,5.6s-0.5,2-0.5,3.2s0.4,1.5,0.6,1.8c0.3,0.3,0-0.9,0-1.2s0.4-1.1,0.5-0.8
										c0.1,0.3,0,0-0.1,1.3s1,3.7,1,2.6c0-1.1,0-2.6,0.3-3.3c0.3-0.7,0.3-0.2,0.3,0c0,0.2-0.1,0.5,0.1,0.4
										c0.2-0.1,0.5-0.4,0.2-1.9c-0.3-1.5-0.5-1.5-0.6-2.1c-0.4-2.2-0.4-3.3-0.6-4.7c-0.3-2.4-0.5-9.8-0.3-12.3
										c0.3-3.9,1.3-4.3,1.7-5.1c0.7-1.2,1.4,7.2,4.4,14.5c2.6,6.3,6.1,6.2,7.5,7.6s-1.2,7.3-0.2,11.5c0.9,3.8-0.3,6.3,0,7.3
										c0.3,1,4.4,2.2,7.5,2.2c3.1,0,6.8-0.8,6.8-2.2c0-3.5-1.4-2.9-1.7-5.1c-0.3-2.2,3.2-5.4,3.6-8.1c0.7-4.7,0-5.7-1-9.3
										c-0.1-0.2-0.5-4.4-0.5-4.4s5.6,0.8,9.4-1.7c6.2-4.2,8.5-11.2,8.5-11.2s2.5,2.8,4.1,4.1c2.2,1.8,3.2,2,4.4,2.4
										c1.5,0.5,5.6,1.5,5.6,1.5s-2,2.4-3.2,3.2c-0.8,0.6-3.3,2.5-2.7,3.6c0.5,1,2.2,3.8,3.9,4.9c3.1,2,5.6,2.7,6.5,2.5
										c0.9-0.2,1.8-5.7,3-6.8c1.2-1,3.4-4.4,3.3-6.1c-0.2-1.7-0.5-8.1-4.8-10.5c-2.3-1.3-5.2-2-6.3-6.4c-1-4.1-7.5-6.8-7.5-6.8
										c2.1-2.9,5.5-6.7,6.4-7.7c1,0.5,1.9,0.8,2.9,0.8c1.9-0.1,1.3-2.1,0.2-4.9l0.3,0.5c0,0,3.3-2,4.4-4.2
										c1.2-2.4,4.3-7.8,6.8-8.6c2.9-1,8.2-3.7,7.7-4.7c-0.7-1.4-5.3-1.5-5.3-1.5s5.8-2.2,6.1-2.7c2.4-4.2,5.7-12.2,3.7-21.1
										C85.7,17.5,75.3,17.6,72.3,16z"/>
								</g>
							</mask>
							<g id="Group-36" class="st11">
								<g transform="translate(0.000000, 60.926243)">
									<g id="Clip-34">
									</g>
									<defs>
										<filter id="Adobe_OpacityMaskFilter_1_" filterUnits="userSpaceOnUse" x="1.2" y="5.8" width="49.7" height="32.1">
											<feColorMatrix  type="matrix" values="1 0 0 0 0  0 1 0 0 0  0 0 1 0 0  0 0 0 1 0"/>
										</filter>
									</defs>
									<mask maskUnits="userSpaceOnUse" x="1.2" y="5.8" width="49.7" height="32.1" id="mask-8_1_">
										<g class="st12">
											<path id="path-7_1_" class="st10" d="M6.4,16.2c-3.1,4.4-4.6,9.6-5.4,14.2c-0.5,2.8-0.8,8.3-0.8,11.7c0,3.3,0.4,7,1,10.3
												C2,57.1,3,62.6,3.7,62.4c0.3-0.1-0.1-5.1-0.9-10.1c-0.3-2.4-0.5-9.8-0.3-12.3c0.3-3.9,1.3-4.3,1.7-5.1
												c0.7-1.2,1.4,7.2,4.4,14.5c2.6,6.3,6.1,6.2,7.5,7.6c1.4,1.4-1.2,7.3-0.2,11.5c0.9,3.8-0.3,6.3,0,7.3
												c0.3,1,4.4,2.2,7.5,2.2c3.1,0,6.8-0.8,6.8-2.2c0-3.5-1.4-2.9-1.7-5.1c-0.3-2.2,3.2-5.4,3.6-8.1c0.7-4.7,0-5.7-1-9.3
												c-0.1-0.2-0.5-4.4-0.5-4.4s5.6,0.8,9.4-1.7C46.2,43,48.5,36,48.5,36s2.5,2.8,4.1,4.1c2.2,1.8,3.2,2,4.4,2.4
												c1.5,0.5,5.6,1.5,5.6,1.5s-2,2.4-3.2,3.2c-0.8,0.6-3.3,2.5-2.7,3.6c0.5,1,2.2,3.8,3.9,4.9c3.1,2,5.6,2.7,6.5,2.5
												c0.9-0.2,1.8-5.7,3-6.8c1.2-1,3.4-4.4,3.3-6.1c-0.2-1.7-0.5-8.1-4.8-10.5c-2.3-1.3-5.2-2-6.3-6.4c-1-4.1-7.5-6.8-7.5-6.8
												c2.4-3.4,6.6-7.9,6.6-7.9L34.6,0.1c-2,1-9.1,1.6-14.6,4.7C17.2,6.3,9.8,11.4,6.4,16.2z"/>
										</g>
									</mask>
									<path id="Fill-21" class="st13" d="M1.2,37.9c0,0,1.5-16.1,9.2-17.1c7.7-1,8.9-1,12.2,1.9c4.1,3.5,2.5,5.2,3.4,5.2
										s5.5-2.9,4.6-8.3c-0.8-5.2,4.9-10.7,17-10.2c12.1,0.5-13.9-3.6-13.9-3.6l-25,9.8c0,0-7,9.1-7.2,16.1L1.2,37.9z"/>
									<defs>
										<filter id="Adobe_OpacityMaskFilter_2_" filterUnits="userSpaceOnUse" x="30.9" y="30.3" width="17.8" height="19.8">
											<feColorMatrix  type="matrix" values="1 0 0 0 0  0 1 0 0 0  0 0 1 0 0  0 0 0 1 0"/>
										</filter>
									</defs>
									<mask maskUnits="userSpaceOnUse" x="30.9" y="30.3" width="17.8" height="19.8" id="mask-8_2_">
										<g class="st14">
											<path id="path-7_2_" class="st10" d="M6.4,16.2c-3.1,4.4-4.6,9.6-5.4,14.2c-0.5,2.8-0.8,8.3-0.8,11.7c0,3.3,0.4,7,1,10.3
												C2,57.1,3,62.6,3.7,62.4c0.3-0.1-0.1-5.1-0.9-10.1c-0.3-2.4-0.5-9.8-0.3-12.3c0.3-3.9,1.3-4.3,1.7-5.1
												c0.7-1.2,1.4,7.2,4.4,14.5c2.6,6.3,6.1,6.2,7.5,7.6c1.4,1.4-1.2,7.3-0.2,11.5c0.9,3.8-0.3,6.3,0,7.3
												c0.3,1,4.4,2.2,7.5,2.2c3.1,0,6.8-0.8,6.8-2.2c0-3.5-1.4-2.9-1.7-5.1c-0.3-2.2,3.2-5.4,3.6-8.1c0.7-4.7,0-5.7-1-9.3
												c-0.1-0.2-0.5-4.4-0.5-4.4s5.6,0.8,9.4-1.7C46.2,43,48.5,36,48.5,36s2.5,2.8,4.1,4.1c2.2,1.8,3.2,2,4.4,2.4
												c1.5,0.5,5.6,1.5,5.6,1.5s-2,2.4-3.2,3.2c-0.8,0.6-3.3,2.5-2.7,3.6c0.5,1,2.2,3.8,3.9,4.9c3.1,2,5.6,2.7,6.5,2.5
												c0.9-0.2,1.8-5.7,3-6.8c1.2-1,3.4-4.4,3.3-6.1c-0.2-1.7-0.5-8.1-4.8-10.5c-2.3-1.3-5.2-2-6.3-6.4c-1-4.1-7.5-6.8-7.5-6.8
												c2.4-3.4,6.6-7.9,6.6-7.9L34.6,0.1c-2,1-9.1,1.6-14.6,4.7C17.2,6.3,9.8,11.4,6.4,16.2z"/>
										</g>
									</mask>
									<path id="Fill-27" class="st15" d="M43.1,50.1c0,0-12.3-0.1-12.3-1.7c0.1-1.6,0.7-3.9,0.2-6c-0.1-0.4,5.6,0.9,8.9-1.8
										c6.6-5.4,0.5-10.2,0.5-10.2s7.6,4,8.1,6C49.5,39.9,43.1,50.1,43.1,50.1"/>
									<defs>
										<filter id="Adobe_OpacityMaskFilter_3_" filterUnits="userSpaceOnUse" x="-4.4" y="-11.6" width="84.5" height="64.1">
											<feColorMatrix  type="matrix" values="1 0 0 0 0  0 1 0 0 0  0 0 1 0 0  0 0 0 1 0"/>
										</filter>
									</defs>
									<mask maskUnits="userSpaceOnUse" x="-4.4" y="-11.6" width="84.5" height="64.1" id="mask-8_3_">
										<g class="st16">
											<path id="path-7_3_" class="st10" d="M6.4,16.2c-3.1,4.4-4.6,9.6-5.4,14.2c-0.5,2.8-0.8,8.3-0.8,11.7c0,3.3,0.4,7,1,10.3
												C2,57.1,3,62.6,3.7,62.4c0.3-0.1-0.1-5.1-0.9-10.1c-0.3-2.4-0.5-9.8-0.3-12.3c0.3-3.9,1.3-4.3,1.7-5.1
												c0.7-1.2,1.4,7.2,4.4,14.5c2.6,6.3,6.1,6.2,7.5,7.6c1.4,1.4-1.2,7.3-0.2,11.5c0.9,3.8-0.3,6.3,0,7.3
												c0.3,1,4.4,2.2,7.5,2.2c3.1,0,6.8-0.8,6.8-2.2c0-3.5-1.4-2.9-1.7-5.1c-0.3-2.2,3.2-5.4,3.6-8.1c0.7-4.7,0-5.7-1-9.3
												c-0.1-0.2-0.5-4.4-0.5-4.4s5.6,0.8,9.4-1.7C46.2,43,48.5,36,48.5,36s2.5,2.8,4.1,4.1c2.2,1.8,3.2,2,4.4,2.4
												c1.5,0.5,5.6,1.5,5.6,1.5s-2,2.4-3.2,3.2c-0.8,0.6-3.3,2.5-2.7,3.6c0.5,1,2.2,3.8,3.9,4.9c3.1,2,5.6,2.7,6.5,2.5
												c0.9-0.2,1.8-5.7,3-6.8c1.2-1,3.4-4.4,3.3-6.1c-0.2-1.7-0.5-8.1-4.8-10.5c-2.3-1.3-5.2-2-6.3-6.4c-1-4.1-7.5-6.8-7.5-6.8
												c2.4-3.4,6.6-7.9,6.6-7.9L34.6,0.1c-2,1-9.1,1.6-14.6,4.7C17.2,6.3,9.8,11.4,6.4,16.2z"/>
										</g>
									</mask>
									<path id="Fill-24" class="st17" d="M1,52.3c0,0,0.2-9.2,0.3-13.7c0.2-8.3,1.4-13.7,4.4-18.1c2.6-3.7,12.5-0.5,16.2-5.4
										C29.6,5,41.6,8.7,41.6,8.7l21.8,4.7c0,0-5.3,9.5-8,8.3c-1.9-0.8-6.1-3-6.1-3s1.1,2.2,3.4,3.2c5.5,2.4,7.3,4.4,8.5,7.8
										c0.5,1.4,2.5,4,3.9,4.6c1.4,0.6,2.5,1.3,3.4,2.1c0.2,0.2-0.5,1-0.3,1.2c0.2,0.2,1.5-0.6,1.7-0.5c0.2,0.2-0.9,1.4-0.7,1.6
										c0.1,0.2,1.5-0.6,1.6-0.4c0.2,0.2-1.3,1.1-1.2,1.3c0.1,0.2,1.5-0.2,1.6,0c0.4,0.7,0.6,1.4,0.7,1.9c0.3,2.2,1.5,3.7-1.7,10
										c-2.4,4.6,10-6.8,10-6.8L49.9-11.6L-4.4,15.3l4.1,37.2L1,52.3z"/>
									<defs>
										<filter id="Adobe_OpacityMaskFilter_4_" filterUnits="userSpaceOnUse" x="45.3" y="7.4" width="21.8" height="18.2">
											<feColorMatrix  type="matrix" values="1 0 0 0 0  0 1 0 0 0  0 0 1 0 0  0 0 0 1 0"/>
										</filter>
									</defs>
									<mask maskUnits="userSpaceOnUse" x="45.3" y="7.4" width="21.8" height="18.2" id="mask-8_4_">
										<g class="st18">
											<path id="path-7_4_" class="st10" d="M6.4,16.2c-3.1,4.4-4.6,9.6-5.4,14.2c-0.5,2.8-0.8,8.3-0.8,11.7c0,3.3,0.4,7,1,10.3
												C2,57.1,3,62.6,3.7,62.4c0.3-0.1-0.1-5.1-0.9-10.1c-0.3-2.4-0.5-9.8-0.3-12.3c0.3-3.9,1.3-4.3,1.7-5.1
												c0.7-1.2,1.4,7.2,4.4,14.5c2.6,6.3,6.1,6.2,7.5,7.6c1.4,1.4-1.2,7.3-0.2,11.5c0.9,3.8-0.3,6.3,0,7.3
												c0.3,1,4.4,2.2,7.5,2.2c3.1,0,6.8-0.8,6.8-2.2c0-3.5-1.4-2.9-1.7-5.1c-0.3-2.2,3.2-5.4,3.6-8.1c0.7-4.7,0-5.7-1-9.3
												c-0.1-0.2-0.5-4.4-0.5-4.4s5.6,0.8,9.4-1.7C46.2,43,48.5,36,48.5,36s2.5,2.8,4.1,4.1c2.2,1.8,3.2,2,4.4,2.4
												c1.5,0.5,5.6,1.5,5.6,1.5s-2,2.4-3.2,3.2c-0.8,0.6-3.3,2.5-2.7,3.6c0.5,1,2.2,3.8,3.9,4.9c3.1,2,5.6,2.7,6.5,2.5
												c0.9-0.2,1.8-5.7,3-6.8c1.2-1,3.4-4.4,3.3-6.1c-0.2-1.7-0.5-8.1-4.8-10.5c-2.3-1.3-5.2-2-6.3-6.4c-1-4.1-7.5-6.8-7.5-6.8
												c2.4-3.4,6.6-7.9,6.6-7.9L34.6,0.1c-2,1-9.1,1.6-14.6,4.7C17.2,6.3,9.8,11.4,6.4,16.2z"/>
										</g>
									</mask>
									<path id="Fill-30" class="st19" d="M67.1,25.1c0,0-5.9-15.6-5.8-17.2c0.1-1.6-16,1.7-16,1.7s6.1,2,10.2,3.4
										c6.1,2-2.6,7.6-2.6,7.6l11.2,5.1L67.1,25.1z"/>
									<defs>
										<filter id="Adobe_OpacityMaskFilter_5_" filterUnits="userSpaceOnUse" x="3.4" y="29.8" width="15.8" height="48.2">
											<feColorMatrix  type="matrix" values="1 0 0 0 0  0 1 0 0 0  0 0 1 0 0  0 0 0 1 0"/>
										</filter>
									</defs>
									<mask maskUnits="userSpaceOnUse" x="3.4" y="29.8" width="15.8" height="48.2" id="mask-8_5_">
										<g class="st20">
											<path id="path-7_5_" class="st10" d="M6.4,16.2c-3.1,4.4-4.6,9.6-5.4,14.2c-0.5,2.8-0.8,8.3-0.8,11.7c0,3.3,0.4,7,1,10.3
												C2,57.1,3,62.6,3.7,62.4c0.3-0.1-0.1-5.1-0.9-10.1c-0.3-2.4-0.5-9.8-0.3-12.3c0.3-3.9,1.3-4.3,1.7-5.1
												c0.7-1.2,1.4,7.2,4.4,14.5c2.6,6.3,6.1,6.2,7.5,7.6c1.4,1.4-1.2,7.3-0.2,11.5c0.9,3.8-0.3,6.3,0,7.3
												c0.3,1,4.4,2.2,7.5,2.2c3.1,0,6.8-0.8,6.8-2.2c0-3.5-1.4-2.9-1.7-5.1c-0.3-2.2,3.2-5.4,3.6-8.1c0.7-4.7,0-5.7-1-9.3
												c-0.1-0.2-0.5-4.4-0.5-4.4s5.6,0.8,9.4-1.7C46.2,43,48.5,36,48.5,36s2.5,2.8,4.1,4.1c2.2,1.8,3.2,2,4.4,2.4
												c1.5,0.5,5.6,1.5,5.6,1.5s-2,2.4-3.2,3.2c-0.8,0.6-3.3,2.5-2.7,3.6c0.5,1,2.2,3.8,3.9,4.9c3.1,2,5.6,2.7,6.5,2.5
												c0.9-0.2,1.8-5.7,3-6.8c1.2-1,3.4-4.4,3.3-6.1c-0.2-1.7-0.5-8.1-4.8-10.5c-2.3-1.3-5.2-2-6.3-6.4c-1-4.1-7.5-6.8-7.5-6.8
												c2.4-3.4,6.6-7.9,6.6-7.9L34.6,0.1c-2,1-9.1,1.6-14.6,4.7C17.2,6.3,9.8,11.4,6.4,16.2z"/>
										</g>
									</mask>
									<path id="Fill-33" class="st21" d="M13,75.3c0,0-9.6-34.2-9.6-35.8c0.1-1.6-0.5-12.9,1.4-8.8C5.5,32.2,9.1,51.1,16.5,52
										c4.4,0.5,1.6,11.8,2.2,14.2c1.5,5.9-2,11.8-2,11.8L13,75.3z"/>
									<defs>
										<filter id="Adobe_OpacityMaskFilter_6_" filterUnits="userSpaceOnUse" x="-2.9" y="-2.7" width="41.6" height="30.6">
											<feColorMatrix  type="matrix" values="1 0 0 0 0  0 1 0 0 0  0 0 1 0 0  0 0 0 1 0"/>
										</filter>
									</defs>
									<mask maskUnits="userSpaceOnUse" x="-2.9" y="-2.7" width="41.6" height="30.6" id="mask-8_6_">
										<g class="st22">
											<path id="path-7_6_" class="st10" d="M6.4,16.2c-3.1,4.4-4.6,9.6-5.4,14.2c-0.5,2.8-0.8,8.3-0.8,11.7c0,3.3,0.4,7,1,10.3
												C2,57.1,3,62.6,3.7,62.4c0.3-0.1-0.1-5.1-0.9-10.1c-0.3-2.4-0.5-9.8-0.3-12.3c0.3-3.9,1.3-4.3,1.7-5.1
												c0.7-1.2,1.4,7.2,4.4,14.5c2.6,6.3,6.1,6.2,7.5,7.6c1.4,1.4-1.2,7.3-0.2,11.5c0.9,3.8-0.3,6.3,0,7.3
												c0.3,1,4.4,2.2,7.5,2.2c3.1,0,6.8-0.8,6.8-2.2c0-3.5-1.4-2.9-1.7-5.1c-0.3-2.2,3.2-5.4,3.6-8.1c0.7-4.7,0-5.7-1-9.3
												c-0.1-0.2-0.5-4.4-0.5-4.4s5.6,0.8,9.4-1.7C46.2,43,48.5,36,48.5,36s2.5,2.8,4.1,4.1c2.2,1.8,3.2,2,4.4,2.4
												c1.5,0.5,5.6,1.5,5.6,1.5s-2,2.4-3.2,3.2c-0.8,0.6-3.3,2.5-2.7,3.6c0.5,1,2.2,3.8,3.9,4.9c3.1,2,5.6,2.7,6.5,2.5
												c0.9-0.2,1.8-5.7,3-6.8c1.2-1,3.4-4.4,3.3-6.1c-0.2-1.7-0.5-8.1-4.8-10.5c-2.3-1.3-5.2-2-6.3-6.4c-1-4.1-7.5-6.8-7.5-6.8
												c2.4-3.4,6.6-7.9,6.6-7.9L34.6,0.1c-2,1-9.1,1.6-14.6,4.7C17.2,6.3,9.8,11.4,6.4,16.2z"/>
										</g>
									</mask>
									<path id="Fill-21-Copy" class="st23" d="M1.2,28c1-6.1,8.4-15.3,15.6-19.4S27.1,2.7,36,2.7s-6.8-5.4-6.8-5.4L2.2,8.6
										c0,0-4.9,1-5.1,7.9L1.2,28z"/>
								</g>
							</g>
							<defs>
								<filter id="Adobe_OpacityMaskFilter_7_" filterUnits="userSpaceOnUse" x="30.7" y="-41.1" width="69.5" height="116.7">
									<feColorMatrix  type="matrix" values="1 0 0 0 0  0 1 0 0 0  0 0 1 0 0  0 0 0 1 0"/>
								</filter>
							</defs>
							<mask maskUnits="userSpaceOnUse" x="30.7" y="-41.1" width="69.5" height="116.7" id="mask-6_2_">
								<g class="st24">
									<path id="path-5_3_" class="st10" d="M72.3,16C66,12.5,67.8,3.1,67.8,3.1s0.3-2.4-1.4-2.7c-1.7-0.3-2.2-0.8-2,2.2
										c0.2,3-1.7,11.5,3.4,15.9c3.7,3.2,9,2.5,12.8,7.6c3.7,5-1.4,12.1-2.6,12.7c-3.6,1.7-3.4,2.4-6.3,2.7
										c-2.9,0.3-10.5-0.5-14.8,1c-4.3,1.5-3.1,3-7.2,5.6C45.7,50.6,38.9,54,36,57.2c-1.1,1.3-1.9,2.7-2.3,4.1
										c-2.7,0.8-8.8,1.6-13.7,4.3c-2.8,1.6-10.2,6.6-13.6,11.5c-3.1,4.4-4.6,9.6-5.4,14.2c-0.5,2.8-0.8,8.3-0.8,11.7
										c0,3.3,0.5,6,1.1,9.2c0.3,1.5,0.5,4,0.5,5.6s-0.5,2-0.5,3.2s0.4,1.5,0.6,1.8c0.3,0.3,0-0.9,0-1.2s0.4-1.1,0.5-0.8
										c0.1,0.3,0,0-0.1,1.3s1,3.7,1,2.6c0-1.1,0-2.6,0.3-3.3c0.3-0.7,0.3-0.2,0.3,0c0,0.2-0.1,0.5,0.1,0.4
										c0.2-0.1,0.5-0.4,0.2-1.9c-0.3-1.5-0.5-1.5-0.6-2.1c-0.4-2.2-0.4-3.3-0.6-4.7c-0.3-2.4-0.5-9.8-0.3-12.3
										c0.3-3.9,1.3-4.3,1.7-5.1c0.7-1.2,1.4,7.2,4.4,14.5c2.6,6.3,6.1,6.2,7.5,7.6s-1.2,7.3-0.2,11.5c0.9,3.8-0.3,6.3,0,7.3
										c0.3,1,4.4,2.2,7.5,2.2c3.1,0,6.8-0.8,6.8-2.2c0-3.5-1.4-2.9-1.7-5.1c-0.3-2.2,3.2-5.4,3.6-8.1c0.7-4.7,0-5.7-1-9.3
										c-0.1-0.2-0.5-4.4-0.5-4.4s5.6,0.8,9.4-1.7c6.2-4.2,8.5-11.2,8.5-11.2s2.5,2.8,4.1,4.1c2.2,1.8,3.2,2,4.4,2.4
										c1.5,0.5,5.6,1.5,5.6,1.5s-2,2.4-3.2,3.2c-0.8,0.6-3.3,2.5-2.7,3.6c0.5,1,2.2,3.8,3.9,4.9c3.1,2,5.6,2.7,6.5,2.5
										c0.9-0.2,1.8-5.7,3-6.8c1.2-1,3.4-4.4,3.3-6.1c-0.2-1.7-0.5-8.1-4.8-10.5c-2.3-1.3-5.2-2-6.3-6.4c-1-4.1-7.5-6.8-7.5-6.8
										c2.1-2.9,5.5-6.7,6.4-7.7c1,0.5,1.9,0.8,2.9,0.8c1.9-0.1,1.3-2.1,0.2-4.9l0.3,0.5c0,0,3.3-2,4.4-4.2
										c1.2-2.4,4.3-7.8,6.8-8.6c2.9-1,8.2-3.7,7.7-4.7c-0.7-1.4-5.3-1.5-5.3-1.5s5.8-2.2,6.1-2.7c2.4-4.2,5.7-12.2,3.7-21.1
										C85.7,17.5,75.3,17.6,72.3,16z"/>
								</g>
							</mask>
							<g id="Head" class="st25">
								<g transform="translate(33.049404, 0.091252)">
									<g id="Clip-49">
									</g>
									<defs>
										<filter id="Adobe_OpacityMaskFilter_8_" filterUnits="userSpaceOnUse" x="0.1" y="0.1" width="55.5" height="75.5">
											<feColorMatrix  type="matrix" values="1 0 0 0 0  0 1 0 0 0  0 0 1 0 0  0 0 0 1 0"/>
										</filter>
									</defs>
									<mask maskUnits="userSpaceOnUse" x="0.1" y="0.1" width="55.5" height="75.5" id="mask-11_1_">
										<g class="st26">
											<path id="path-10_1_" class="st10" d="M34.8,18.4c3.7,3.2,9,2.5,12.8,7.6c3.7,5-1.4,12.1-2.6,12.7
												c-3.6,1.7-3.4,2.4-6.3,2.7c-1,0.1-2.5,0.1-4.2,0.1c-3.4,0-7.8-0.1-10.6,0.9c-4.3,1.5-3.1,3-7.2,5.6
												c-4.1,2.5-10.9,5.9-13.8,9.1c-2.9,3.2-3.4,7.8-2.2,9.6c1.2,1.9,4.8,3.9,14.5,4c9.7,0.2,12.1,4.9,15.8,4.7
												c1.9-0.1,1.3-2.1,0.2-4.9l0.3,0.5c0,0,3.3-2,4.4-4.2c1.2-2.4,4.3-7.8,6.8-8.6c2.9-1,8.2-3.7,7.7-4.7
												c-0.7-1.4-5.3-1.5-5.3-1.5s5.8-2.2,6.1-2.7c2.4-4.2,5.7-12.2,3.7-21.1c-2.4-10.8-12.8-10.6-15.9-12.3
												C32.9,12.4,34.8,3,34.8,3s0.3-2.4-1.4-2.7c-0.6-0.1-1-0.3-1.4-0.3c-0.6,0-0.8,0.5-0.7,2.5C31.5,5.6,29.7,14,34.8,18.4z"
												/>
										</g>
									</mask>
									
										<linearGradient id="Fill-39_1_" gradientUnits="userSpaceOnUse" x1="-698.3859" y1="803.9081" x2="-698.6556" y2="802.8998" gradientTransform="matrix(55.545 0 0 -75.4617 38829.6445 60664.043)">
										<stop  offset="0" style="stop-color:#5190A5"/>
										<stop  offset="1" style="stop-color:#4E6586"/>
									</linearGradient>
									<path id="Fill-39" class="st27" d="M34.8,18.4c3.7,3.2,9,2.5,12.8,7.6c3.7,5-1.4,12.1-2.6,12.7c-3.6,1.7-3.4,2.4-6.3,2.7
										c-1,0.1-2.5,0.1-4.2,0.1c-3.4,0-7.8-0.1-10.6,0.9c-4.3,1.5-3.1,3-7.2,5.6c-4.1,2.5-10.9,5.9-13.8,9.1
										c-2.9,3.2-3.4,7.8-2.2,9.6c1.2,1.9,4.8,3.9,14.5,4c9.7,0.2,12.1,4.9,15.8,4.7c1.9-0.1,1.3-2.1,0.2-4.9l0.3,0.5
										c0,0,3.3-2,4.4-4.2c1.2-2.4,4.3-7.8,6.8-8.6c2.9-1,8.2-3.7,7.7-4.7c-0.7-1.4-5.3-1.5-5.3-1.5s5.8-2.2,6.1-2.7
										c2.4-4.2,5.7-12.2,3.7-21.1c-2.4-10.8-12.8-10.6-15.9-12.3C32.9,12.4,34.8,3,34.8,3s0.3-2.4-1.4-2.7
										c-0.6-0.1-1-0.3-1.4-0.3c-0.6,0-0.8,0.5-0.7,2.5C31.5,5.6,29.7,14,34.8,18.4z"/>
									<defs>
										<filter id="Adobe_OpacityMaskFilter_9_" filterUnits="userSpaceOnUse" x="6.8" y="1.6" width="48.3" height="73.9">
											<feColorMatrix  type="matrix" values="1 0 0 0 0  0 1 0 0 0  0 0 1 0 0  0 0 0 1 0"/>
										</filter>
									</defs>
									<mask maskUnits="userSpaceOnUse" x="6.8" y="1.6" width="48.3" height="73.9" id="mask-11_2_">
										<g class="st28">
											<path id="path-10_2_" class="st10" d="M34.8,18.4c3.7,3.2,9,2.5,12.8,7.6c3.7,5-1.4,12.1-2.6,12.7
												c-3.6,1.7-3.4,2.4-6.3,2.7c-1,0.1-2.5,0.1-4.2,0.1c-3.4,0-7.8-0.1-10.6,0.9c-4.3,1.5-3.1,3-7.2,5.6
												c-4.1,2.5-10.9,5.9-13.8,9.1c-2.9,3.2-3.4,7.8-2.2,9.6c1.2,1.9,4.8,3.9,14.5,4c9.7,0.2,12.1,4.9,15.8,4.7
												c1.9-0.1,1.3-2.1,0.2-4.9l0.3,0.5c0,0,3.3-2,4.4-4.2c1.2-2.4,4.3-7.8,6.8-8.6c2.9-1,8.2-3.7,7.7-4.7
												c-0.7-1.4-5.3-1.5-5.3-1.5s5.8-2.2,6.1-2.7c2.4-4.2,5.7-12.2,3.7-21.1c-2.4-10.8-12.8-10.6-15.9-12.3
												C32.9,12.4,34.8,3,34.8,3s0.3-2.4-1.4-2.7c-0.6-0.1-1-0.3-1.4-0.3c-0.6,0-0.8,0.5-0.7,2.5C31.5,5.6,29.7,14,34.8,18.4z"
												/>
										</g>
									</mask>
									<path id="Fill-42" class="st29" d="M31.6,71.1c0,0,3.3-2,4.4-4.2c1.2-2.4,4.3-7.8,6.8-8.6c2.9-1,8.2-3.7,7.7-4.7
										c-0.7-1.4-5.3-1.5-5.3-1.5s5.8-2.2,6.1-2.7c2.4-4.2,5.6-8,2.5-16.6c-2-5.6-13.1-12.7-16.2-14.4C31.3,14.8,32.7,5,32.7,5
										s0-2.9-1.7-3.2c-1.7-0.3-1-0.3-0.9,2.7c0.2,3-0.4,9.5,4.7,13.9c3.7,3.2,9.3,5,13,10c3.7,5,9.2,10.5,4.1,16.2
										c-2.6,2.9-12.1,8.3-15.2,9.5c-2.7,1.1-7.5,1.7-8.5,1.5c-4.5-0.7-7.5-5.1-9.9-3.5c-4.1,2.6,5.3,6.2,2.4,9.5
										c-2.9,3.2-13.8,2.7-14,4.9c-0.2,2,0.5,3.2,10.2,3.4c9.7,0.2,10.3,5.8,14,5.7c3.7-0.2-2.4-8.3-2.6-14.5
										c-0.2-6.3-7.5-7.3-7.5-7.3"/>
									<defs>
										<filter id="Adobe_OpacityMaskFilter_10_" filterUnits="userSpaceOnUse" x="-2.4" y="-41.2" width="69.5" height="109.3">
											<feColorMatrix  type="matrix" values="1 0 0 0 0  0 1 0 0 0  0 0 1 0 0  0 0 0 1 0"/>
										</filter>
									</defs>
									<mask maskUnits="userSpaceOnUse" x="-2.4" y="-41.2" width="69.5" height="109.3" id="mask-11_3_">
										<g class="st30">
											<path id="path-10_3_" class="st10" d="M34.8,18.4c3.7,3.2,9,2.5,12.8,7.6c3.7,5-1.4,12.1-2.6,12.7
												c-3.6,1.7-3.4,2.4-6.3,2.7c-1,0.1-2.5,0.1-4.2,0.1c-3.4,0-7.8-0.1-10.6,0.9c-4.3,1.5-3.1,3-7.2,5.6
												c-4.1,2.5-10.9,5.9-13.8,9.1c-2.9,3.2-3.4,7.8-2.2,9.6c1.2,1.9,4.8,3.9,14.5,4c9.7,0.2,12.1,4.9,15.8,4.7
												c1.9-0.1,1.3-2.1,0.2-4.9l0.3,0.5c0,0,3.3-2,4.4-4.2c1.2-2.4,4.3-7.8,6.8-8.6c2.9-1,8.2-3.7,7.7-4.7
												c-0.7-1.4-5.3-1.5-5.3-1.5s5.8-2.2,6.1-2.7c2.4-4.2,5.7-12.2,3.7-21.1c-2.4-10.8-12.8-10.6-15.9-12.3
												C32.9,12.4,34.8,3,34.8,3s0.3-2.4-1.4-2.7c-0.6-0.1-1-0.3-1.4-0.3c-0.6,0-0.8,0.5-0.7,2.5C31.5,5.6,29.7,14,34.8,18.4z"
												/>
										</g>
									</mask>
									<path id="Fill-45" class="st31" d="M19.7,47.9c2.7-3.6,3.7-3.9,6.5-4.4c1.8-0.3,7.1-0.1,11.5-0.5c0.3,0,0.6,1,1,1
										c0.4,0,0-1.9,0.4-2s1.3,2.1,1.6,2c0.4-0.1-0.5-2.1,0-2.3c0.5-0.1,1.5,1.9,1.8,1.7c0.3-0.2-0.6-1.7-0.3-2.1
										c0.3-0.4,0.5,0.6,0.6,0.6c4.7-2.5,6.6-6.4,6.8-9.2c0.2-2.9-3.2-6.9-3.2-6.9L20.9,12.4c0,0,0.6-9.9,10.7-11.3
										c3.6-0.5-0.4,5.6,3.8,12.8c2.1,3.8,7.3,3.1,12.3,6.3c0.3,0.2,0.9-0.4,1.1-0.2s-0.6,0.7,0.3,1.4s1.2-0.5,1.6-0.2
										c0.3,0.3-0.9,0.9,0,1.7s1.3-0.3,1.6,0.1c0.3,0.4-0.6,0.8-0.2,1.3c1.2,1.4,1.3,1.9,1.9,4.2c1.8,7.4,1.1,5.8,3.6,8.8
										c4.7,5.6-22,13.7-22,13.7l31.5-4.9l-1.9-6.7L21.7-41.2L-2.4,68.2c0,0,4.6-9.6,10.6-13.5C15.4,50,17,51.5,19.7,47.9z"/>
									<defs>
										<filter id="Adobe_OpacityMaskFilter_11_" filterUnits="userSpaceOnUse" x="19.4" y="53.3" width="31.2" height="18.7">
											<feColorMatrix  type="matrix" values="1 0 0 0 0  0 1 0 0 0  0 0 1 0 0  0 0 0 1 0"/>
										</filter>
									</defs>
									<mask maskUnits="userSpaceOnUse" x="19.4" y="53.3" width="31.2" height="18.7" id="mask-11_4_">
										<g class="st32">
											<path id="path-10_4_" class="st10" d="M34.8,18.4c3.7,3.2,9,2.5,12.8,7.6c3.7,5-1.4,12.1-2.6,12.7
												c-3.6,1.7-3.4,2.4-6.3,2.7c-1,0.1-2.5,0.1-4.2,0.1c-3.4,0-7.8-0.1-10.6,0.9c-4.3,1.5-3.1,3-7.2,5.6
												c-4.1,2.5-10.9,5.9-13.8,9.1c-2.9,3.2-3.4,7.8-2.2,9.6c1.2,1.9,4.8,3.9,14.5,4c9.7,0.2,12.1,4.9,15.8,4.7
												c1.9-0.1,1.3-2.1,0.2-4.9l0.3,0.5c0,0,3.3-2,4.4-4.2c1.2-2.4,4.3-7.8,6.8-8.6c2.9-1,8.2-3.7,7.7-4.7
												c-0.7-1.4-5.3-1.5-5.3-1.5s5.8-2.2,6.1-2.7c2.4-4.2,5.7-12.2,3.7-21.1c-2.4-10.8-12.8-10.6-15.9-12.3
												C32.9,12.4,34.8,3,34.8,3s0.3-2.4-1.4-2.7c-0.6-0.1-1-0.3-1.4-0.3c-0.6,0-0.8,0.5-0.7,2.5C31.5,5.6,29.7,14,34.8,18.4z"
												/>
										</g>
									</mask>
									<path id="Fill-48" class="st33" d="M33.6,72.1l-2.5-1.7c0,0-1.6-6.3-2.5-8.3c-1-2.4-1.1-3.5-4.1-4.2
										c-8.9-2-3.6-4.6-3.6-4.6s5.8,1.5,7.2,5.6c0.6,1.7,1,6.3,3.6,6.3c2.6,0,3.4-3.9,5.6-5.2c2.2-1.4,3.7-3,5.8-3.4
										c2-0.3,7.5-0.3,7.5-0.3L33.6,72.1z"/>
									<defs>
										<filter id="Adobe_OpacityMaskFilter_12_" filterUnits="userSpaceOnUse" x="25.9" y="46" width="9.6" height="7.4">
											<feColorMatrix  type="matrix" values="1 0 0 0 0  0 1 0 0 0  0 0 1 0 0  0 0 0 1 0"/>
										</filter>
									</defs>
									<mask maskUnits="userSpaceOnUse" x="25.9" y="46" width="9.6" height="7.4" id="mask-11_5_">
										<g class="st34">
											<path id="path-10_5_" class="st10" d="M34.8,18.4c3.7,3.2,9,2.5,12.8,7.6c3.7,5-1.4,12.1-2.6,12.7
												c-3.6,1.7-3.4,2.4-6.3,2.7c-1,0.1-2.5,0.1-4.2,0.1c-3.4,0-7.8-0.1-10.6,0.9c-4.3,1.5-3.1,3-7.2,5.6
												c-4.1,2.5-10.9,5.9-13.8,9.1c-2.9,3.2-3.4,7.8-2.2,9.6c1.2,1.9,4.8,3.9,14.5,4c9.7,0.2,12.1,4.9,15.8,4.7
												c1.9-0.1,1.3-2.1,0.2-4.9l0.3,0.5c0,0,3.3-2,4.4-4.2c1.2-2.4,4.3-7.8,6.8-8.6c2.9-1,8.2-3.7,7.7-4.7
												c-0.7-1.4-5.3-1.5-5.3-1.5s5.8-2.2,6.1-2.7c2.4-4.2,5.7-12.2,3.7-21.1c-2.4-10.8-12.8-10.6-15.9-12.3
												C32.9,12.4,34.8,3,34.8,3s0.3-2.4-1.4-2.7c-0.6-0.1-1-0.3-1.4-0.3c-0.6,0-0.8,0.5-0.7,2.5C31.5,5.6,29.7,14,34.8,18.4z"
												/>
										</g>
									</mask>
									<path id="Fill-63" class="st35" d="M30.6,49.4c2.6-1.4,3.1-0.5,4.6-1.5c1.5-1-5.6-2.7-8-1.3c-1.4,0.8-1.9,5.6-0.5,6.4
										C30.5,55,28.5,50.5,30.6,49.4z"/>
								</g>
							</g>
						</g>
						<path id="Path-15" class="st36" d="M31.1,108.9c1.1-4.9,1.5-5.6-1.5-9.2c-2.1-2.4-3.2-4.2-3.4-5.4c-0.1,1.6,0.9,3.6,3,5.9
							c3.1,3.5,0.2,9.5,1.6,13.5c0.9,2.7,1.5,4.6,1.7,5.9c-0.3-2.4-0.6-4.4-1-6.1C31.2,112.7,30.7,110.9,31.1,108.9z"/>
						<path id="Fill-55" class="st7" d="M71.7,55.2c0,0,4.6-0.1,6-0.5c1.9-0.5,4.6-0.7,4.6-1.9L79.3,52l-4.6,1.6l-0.2,0.4L71.7,55.2
							z"/>
						
							<linearGradient id="Tusk_1_" gradientUnits="userSpaceOnUse" x1="-651.6775" y1="783.7438" x2="-652.4289" y2="783.1841" gradientTransform="matrix(22.8904 0 0 -21.4781 15008.6465 16873.5664)">
							<stop  offset="0" style="stop-color:#EFE8CD"/>
							<stop  offset="1" style="stop-color:#D3CAAF"/>
						</linearGradient>
						<path id="Tusk" class="st37" d="M88.1,42.3c-4.2,3.3-10,5.2-12.6,6.6l0,0c-3.2,1.7-1.2,4.2-0.8,4.9l0,0
							c3.1-0.9,9.2-3.4,13.1-6.6l0,0c6.7-5.5,9.5-14.7,8.7-14.9l0,0c0,0,0,0,0,0l0,0C95.5,32.3,92.5,38.8,88.1,42.3"/>
						<path id="Fill-61" class="st38" d="M74.7,53.8c-1.3-1.9-0.9-2.8-0.9-2.8s1.4,1.2,3.7,0.3c2.8-1,6.4-2.4,10.6-5.8
							c4.4-3.6,7.5-9.5,7.5-9.5s-1.1,5.6-7.8,11.1C83.9,50.4,77.7,52.9,74.7,53.8"/>
						<g id="Eye" transform="translate(61.988790, 46.887656)">
							<path id="Fill-66" class="st39" d="M0,1.1C0,0.5,0.5,0,1.1,0c0.6,0,1.1,0.5,1.1,1.1c0,0.6-0.5,1.1-1.1,1.1
								C0.5,2.3,0,1.8,0,1.1"/>
							<path id="Fill-68" class="st40" d="M1.7,0.6c0,0.2-0.2,0.3-0.3,0.3C1.2,0.9,1,0.8,1,0.6c0-0.2,0.2-0.3,0.3-0.3
								C1.6,0.3,1.7,0.4,1.7,0.6"/>
						</g>
					</g>
					<polygon id="Fill-14" class="st41" points="66.4,0 78.4,11.1 77.8,17.4 65.1,5.7 					"/>
					<polygon id="Fill-10" class="st1" points="66.5,0 65.1,5.7 53.8,17.7 55.2,12 					"/>
					<polygon id="Fill-12" class="st4" points="65.1,5.7 77.8,17.4 66.5,29.4 53.8,17.7 					"/>
				</g>
			</g>
		</g>
	</g>
</g>
</svg>
