<svg id="b792ebcb-ae72-4f46-805c-bfe4575116a4" data-name="Layer 1" xmlns="http://www.w3.org/2000/svg" xmlns:xlink="http://www.w3.org/1999/xlink" viewBox="0 0 200 200"><defs><style>.b7123cdc-ef0c-4171-a5a7-dbbbb11e09ec{fill:#fff;}.a36e0a93-db11-4783-9964-8e5e1df5122a,.a43f0cb3-930c-4822-a10d-5f5b34590911,.a93b6be1-5e0f-45b5-ab03-2aad63fea614,.ac029c79-d6c3-4a20-9941-d9986423103d,.ac35e53a-0c31-44eb-a6f1-82edbe99d645,.afa16f96-e053-4ed9-ab70-9268fb33a428,.b0bc5e11-81e5-4b47-b0c8-27ba96681ba8,.b4d043c8-9344-4adc-8b33-be8a25f25c3b,.b7123cdc-ef0c-4171-a5a7-dbbbb11e09ec,.b7657096-2901-43de-8873-ff4c2d73ee86,.bb246fd4-c300-48ab-af95-c733d7c6a4b6,.bb84be9f-c638-4c06-99bb-c262921b6db8,.bc9447a2-d3dc-4f56-836a-f83d4abf2a8d,.e36ea272-f3fe-4dec-82a7-5391829eac05,.e780b7c4-8256-4fb9-9cf9-1d9e3828ae9e,.eb63faba-2977-4d83-bd9a-b7b522b66701,.ebc945d1-2f69-4248-877f-571626d84694,.f3737460-e9b8-4f2f-a37b-67716fe4e4a5,.f95739ba-5e22-4d43-8150-c7920b52f64f,.fb37bf7c-a4dc-4d09-babb-4cc951250134,.fe1c70c7-c16c-473b-9036-fb8fc565f591,.ff509829-b066-46ff-b918-36610085c1e6{fill-rule:evenodd;}.ff509829-b066-46ff-b918-36610085c1e6{fill:#d06868;}.b4d043c8-9344-4adc-8b33-be8a25f25c3b{fill:url(#efe7cf75-180e-42f7-bc35-f8a06675026e);}.e780b7c4-8256-4fb9-9cf9-1d9e3828ae9e{fill:url(#a47cab68-24ef-459e-9704-22c215126d5b);}.f3737460-e9b8-4f2f-a37b-67716fe4e4a5{fill:#a5597e;}.f95739ba-5e22-4d43-8150-c7920b52f64f{fill:#c1bba7;}.a43f0cb3-930c-4822-a10d-5f5b34590911{fill:#4b2357;}.b0bc5e11-81e5-4b47-b0c8-27ba96681ba8{fill:#4b2a5c;}.a93b6be1-5e0f-45b5-ab03-2aad63fea614{fill:url(#f1d78a01-6e73-4f61-a51a-7d6b5b3e33ca);}.b9620d90-f1ce-45b8-927a-e62a438d60fe{mask:url(#be2be54c-3302-4238-b8fd-caafdcc0c955);}.a6090397-47e1-4a2d-96c3-2c2345a2a16e{mask:url(#b6c2b773-64d8-4add-9db1-0183ffbf2c9f);}.bb246fd4-c300-48ab-af95-c733d7c6a4b6{fill:#4f6486;}.b7657096-2901-43de-8873-ff4c2d73ee86{fill:#4c3d6a;}.ea152c07-a239-4c6a-babf-8c74bb11d06b{mask:url(#bdfdd94a-b632-4686-b4b3-7ffe270e9a74);}.e36ea272-f3fe-4dec-82a7-5391829eac05{fill:#4f728f;}.afa16f96-e053-4ed9-ab70-9268fb33a428{fill:#4c416d;}.bea0c7ee-6673-45ef-8f61-541b574386d1{mask:url(#b5ea0c65-69f8-40c7-8829-939579bcc9d3);}.b854a148-815c-45d7-811a-bef4fadfff9f{mask:url(#e28c7c58-e98a-4060-9275-7a4c2f3dc7a7);}.eb63faba-2977-4d83-bd9a-b7b522b66701{fill:#5191a6;}.f4d0e81a-c3db-4749-be55-c219e257281f{mask:url(#fb043171-1abb-417a-8ff1-d7945200d8ab);}.ebc945d1-2f69-4248-877f-571626d84694{fill:url(#b3bea0b5-57c8-4c48-9e1d-82c661d68ecd);}.bc9447a2-d3dc-4f56-836a-f83d4abf2a8d{fill:#4e567c;}.aa4d3ef2-1567-4fed-96d2-a270f8af964c{mask:url(#eadb8e09-d1d1-41cb-b636-fe742c3c3a98);}.bb84be9f-c638-4c06-99bb-c262921b6db8{fill:#5da7b5;}.fe1c70c7-c16c-473b-9036-fb8fc565f591{fill:url(#a62f73c7-e650-4472-a3b4-f4aec7a26488);}.a36e0a93-db11-4783-9964-8e5e1df5122a{fill:#d3cbaf;}.ac029c79-d6c3-4a20-9941-d9986423103d{fill:#020408;}.ac35e53a-0c31-44eb-a6f1-82edbe99d645{fill:#d5b8d8;}.fb37bf7c-a4dc-4d09-babb-4cc951250134{fill:#fe9b7c;}</style><linearGradient id="efe7cf75-180e-42f7-bc35-f8a06675026e" x1="-616.41" y1="734.57" x2="-617.38" y2="734.48" gradientTransform="matrix(23.34, 0, 0, -5.09, 14504.16, 3905.49)" gradientUnits="userSpaceOnUse"><stop offset="0" stop-color="#fe9b7c"/><stop offset="1" stop-color="#d06868"/></linearGradient><radialGradient id="a47cab68-24ef-459e-9704-22c215126d5b" cx="-521.28" cy="888.49" r="0.65" gradientTransform="matrix(0, 5.09, 15.62, 0, -13770.23, 2819.59)" gradientUnits="userSpaceOnUse"><stop offset="0" stop-opacity="0.5"/><stop offset="1" stop-opacity="0"/></radialGradient><linearGradient id="f1d78a01-6e73-4f61-a51a-7d6b5b3e33ca" x1="-634.2" y1="848.61" x2="-633.88" y2="849.55" gradientTransform="matrix(88.63, 0, 0, -138.68, 56286.96, 117878.95)" gradientUnits="userSpaceOnUse"><stop offset="0" stop-color="#4c416c"/><stop offset="1" stop-color="#4f7995"/></linearGradient><mask id="be2be54c-3302-4238-b8fd-caafdcc0c955" x="46" y="41.1" width="95.46" height="149.37" maskUnits="userSpaceOnUse"><g id="bcceda12-3054-41d1-93b5-53fdf45a45b4" data-name="mask-6"><path id="aabc2a73-dc0c-4161-bb72-10c43a352546" data-name="path-5" class="b7123cdc-ef0c-4171-a5a7-dbbbb11e09ec" d="M123.74,58.12c-6.81-3.75-4.8-13.83-4.8-13.83s.37-2.55-1.47-2.91-2.38-.91-2.2,2.37-1.8,12.38,3.7,17.1c4,3.46,9.73,2.73,13.77,8.19S131.2,82.11,130,82.69c-3.85,1.82-3.66,2.55-6.78,2.92s-11.36-.54-15.94,1.1-3.33,3.28-7.73,6-11.74,6.38-14.85,9.84A12,12,0,0,0,82.15,107c-3,.89-9.53,1.77-14.7,4.66-3,1.69-11,7.15-14.67,12.38-3.3,4.74-5,10.38-5.87,15.3A87.84,87.84,0,0,0,46,151.91a53.93,53.93,0,0,0,1.16,10,40.23,40.23,0,0,1,.55,6c0,1.76-.55,2.18-.55,3.4a2.27,2.27,0,0,0,.68,1.9c.29.29,0-.92,0-1.25s.44-1.18.57-.9,0,0-.14,1.42,1,4,1,2.83a13.31,13.31,0,0,1,.28-3.55c.28-.71.29-.16.29,0s-.07.57.11.49.5-.41.18-2-.51-1.62-.62-2.31c-.38-2.33-.37-3.51-.6-5.09a106.06,106.06,0,0,1-.38-13.28c.28-4.18,1.36-4.66,1.83-5.46.76-1.28,1.5,7.7,4.78,15.65,2.78,6.73,6.61,6.73,8.08,8.18s-1.28,7.83-.17,12.38c1,4.08-.37,6.73,0,7.82s4.77,2.37,8.08,2.37,7.34-.92,7.33-2.37c0-3.83-1.47-3.1-1.83-5.46s3.43-5.84,3.84-8.74c.73-5.1,0-6.19-1.1-10-.07-.25-.56-4.73-.56-4.73s6.06.9,10.09-1.83a26,26,0,0,0,9.17-12,55.43,55.43,0,0,0,4.41,4.37,11.45,11.45,0,0,0,4.77,2.54c1.65.55,6,1.64,6,1.64a29.62,29.62,0,0,1-3.46,3.46c-.91.64-3.51,2.73-3,3.82s2.35,4,4.22,5.28c3.33,2.18,6.08,2.9,7,2.72s2-6.19,3.27-7.28,3.69-4.74,3.51-6.56-.56-8.73-5.15-11.28c-2.49-1.38-5.59-2.16-6.79-6.91-1.11-4.37-8.08-7.27-8.08-7.27a97.67,97.67,0,0,1,6.9-8.29,6.45,6.45,0,0,0,3.16.82c2-.09,1.39-2.28.24-5.28l.33.54s3.56-2.15,4.77-4.55c1.28-2.55,4.58-8.37,7.34-9.29,3.17-1,8.8-4,8.25-5.1-.77-1.53-5.69-1.63-5.69-1.63s6.28-2.35,6.6-2.92c2.56-4.56,6.16-13.09,4-22.75C138.24,59.75,127.05,59.94,123.74,58.12Z"/></g></mask><mask id="b6c2b773-64d8-4add-9db1-0183ffbf2c9f" x="46" y="106.65" width="78.91" height="83.82" maskUnits="userSpaceOnUse"><g id="bd982514-3482-47df-a20e-6d9c064ef75a" data-name="mask-8"><path id="ae389dfa-283a-4190-aa92-069fe49c85b9" data-name="path-7" class="b7123cdc-ef0c-4171-a5a7-dbbbb11e09ec" d="M52.78,124.05c-3.3,4.74-5,10.38-5.87,15.3A87.84,87.84,0,0,0,46,151.91,66.71,66.71,0,0,0,47.11,163c.92,5.09,2,10.92,2.76,10.73.36-.08-.15-5.54-.92-10.92a106.06,106.06,0,0,1-.38-13.28c.28-4.18,1.36-4.66,1.83-5.46.76-1.28,1.5,7.7,4.78,15.65,2.78,6.73,6.61,6.73,8.08,8.18s-1.28,7.83-.17,12.38c1,4.08-.37,6.73,0,7.82s4.77,2.37,8.08,2.37,7.34-.92,7.33-2.37c0-3.83-1.47-3.1-1.83-5.46s3.43-5.84,3.84-8.74c.73-5.1,0-6.19-1.1-10-.07-.25-.56-4.73-.56-4.73s6.06.9,10.09-1.83a26,26,0,0,0,9.17-12,55.43,55.43,0,0,0,4.41,4.37,11.45,11.45,0,0,0,4.77,2.54c1.65.55,6,1.64,6,1.64a29.62,29.62,0,0,1-3.46,3.46c-.91.64-3.51,2.73-3,3.82s2.35,4,4.22,5.28c3.33,2.18,6.08,2.9,7,2.72s2-6.19,3.27-7.28,3.69-4.74,3.51-6.56-.56-8.73-5.15-11.28c-2.49-1.38-5.59-2.16-6.79-6.91-1.11-4.37-8.08-7.27-8.08-7.27a102.83,102.83,0,0,1,7.15-8.56L83.13,106.65c-2.15,1-9.81,1.74-15.68,5C64.41,113.36,56.43,118.82,52.78,124.05Z"/></g></mask><mask id="bdfdd94a-b632-4686-b4b3-7ffe270e9a74" x="41.12" y="94.08" width="91.03" height="96.39" maskUnits="userSpaceOnUse"><g id="a90e8d96-0762-4d21-bd6e-8e71bbb7bc8d" data-name="mask-8"><path id="a2528a6e-6cd9-4062-8929-424837c39d62" data-name="path-7" class="b7123cdc-ef0c-4171-a5a7-dbbbb11e09ec" d="M52.78,124.05c-3.3,4.74-5,10.38-5.87,15.3A87.84,87.84,0,0,0,46,151.91,66.71,66.71,0,0,0,47.11,163c.92,5.09,2,10.92,2.76,10.73.36-.08-.15-5.54-.92-10.92a106.06,106.06,0,0,1-.38-13.28c.28-4.18,1.36-4.66,1.83-5.46.76-1.28,1.5,7.7,4.78,15.65,2.78,6.73,6.61,6.73,8.08,8.18s-1.28,7.83-.17,12.38c1,4.08-.37,6.73,0,7.82s4.77,2.37,8.08,2.37,7.34-.92,7.33-2.37c0-3.83-1.47-3.1-1.83-5.46s3.43-5.84,3.84-8.74c.73-5.1,0-6.19-1.1-10-.07-.25-.56-4.73-.56-4.73s6.06.9,10.09-1.83a26,26,0,0,0,9.17-12,55.43,55.43,0,0,0,4.41,4.37,11.45,11.45,0,0,0,4.77,2.54c1.65.55,6,1.64,6,1.64a29.62,29.62,0,0,1-3.46,3.46c-.91.64-3.51,2.73-3,3.82s2.35,4,4.22,5.28c3.33,2.18,6.08,2.9,7,2.72s2-6.19,3.27-7.28,3.69-4.74,3.51-6.56-.56-8.73-5.15-11.28c-2.49-1.38-5.59-2.16-6.79-6.91-1.11-4.37-8.08-7.27-8.08-7.27a102.83,102.83,0,0,1,7.15-8.56L83.13,106.65c-2.15,1-9.81,1.74-15.68,5C64.41,113.36,56.43,118.82,52.78,124.05Z"/></g></mask><mask id="b5ea0c65-69f8-40c7-8829-939579bcc9d3" x="46" y="106.65" width="78.91" height="83.92" maskUnits="userSpaceOnUse"><g id="b4e08e53-9cc9-410e-80ba-51c40f29f852" data-name="mask-8"><path id="ba70596e-ef4f-4dbe-84b3-38c5a6af59e9" data-name="path-7" class="b7123cdc-ef0c-4171-a5a7-dbbbb11e09ec" d="M52.78,124.05c-3.3,4.74-5,10.38-5.87,15.3A87.84,87.84,0,0,0,46,151.91,66.71,66.71,0,0,0,47.11,163c.92,5.09,2,10.92,2.76,10.73.36-.08-.15-5.54-.92-10.92a106.06,106.06,0,0,1-.38-13.28c.28-4.18,1.36-4.66,1.83-5.46.76-1.28,1.5,7.7,4.78,15.65,2.78,6.73,6.61,6.73,8.08,8.18s-1.28,7.83-.17,12.38c1,4.08-.37,6.73,0,7.82s4.77,2.37,8.08,2.37,7.34-.92,7.33-2.37c0-3.83-1.47-3.1-1.83-5.46s3.43-5.84,3.84-8.74c.73-5.1,0-6.19-1.1-10-.07-.25-.56-4.73-.56-4.73s6.06.9,10.09-1.83a26,26,0,0,0,9.17-12,55.43,55.43,0,0,0,4.41,4.37,11.45,11.45,0,0,0,4.77,2.54c1.65.55,6,1.64,6,1.64a29.62,29.62,0,0,1-3.46,3.46c-.91.64-3.51,2.73-3,3.82s2.35,4,4.22,5.28c3.33,2.18,6.08,2.9,7,2.72s2-6.19,3.27-7.28,3.69-4.74,3.51-6.56-.56-8.73-5.15-11.28c-2.49-1.38-5.59-2.16-6.79-6.91-1.11-4.37-8.08-7.27-8.08-7.27a102.83,102.83,0,0,1,7.15-8.56L83.13,106.65c-2.15,1-9.81,1.74-15.68,5C64.41,113.36,56.43,118.82,52.78,124.05Z"/></g></mask><mask id="e28c7c58-e98a-4060-9275-7a4c2f3dc7a7" x="42.81" y="103.69" width="82.1" height="86.79" maskUnits="userSpaceOnUse"><g id="b221e194-adf7-4e9c-a999-2a1fa1ba69bc" data-name="mask-8"><path id="eec1a67c-7ef7-4261-beec-5746e549c1d8" data-name="path-7" class="b7123cdc-ef0c-4171-a5a7-dbbbb11e09ec" d="M52.78,124.05c-3.3,4.74-5,10.38-5.87,15.3A87.84,87.84,0,0,0,46,151.91,66.71,66.71,0,0,0,47.11,163c.92,5.09,2,10.92,2.76,10.73.36-.08-.15-5.54-.92-10.92a106.06,106.06,0,0,1-.38-13.28c.28-4.18,1.36-4.66,1.83-5.46.76-1.28,1.5,7.7,4.78,15.65,2.78,6.73,6.61,6.73,8.08,8.18s-1.28,7.83-.17,12.38c1,4.08-.37,6.73,0,7.82s4.77,2.37,8.08,2.37,7.34-.92,7.33-2.37c0-3.83-1.47-3.1-1.83-5.46s3.43-5.84,3.84-8.74c.73-5.1,0-6.19-1.1-10-.07-.25-.56-4.73-.56-4.73s6.06.9,10.09-1.83a26,26,0,0,0,9.17-12,55.43,55.43,0,0,0,4.41,4.37,11.45,11.45,0,0,0,4.77,2.54c1.65.55,6,1.64,6,1.64a29.62,29.62,0,0,1-3.46,3.46c-.91.64-3.51,2.73-3,3.82s2.35,4,4.22,5.28c3.33,2.18,6.08,2.9,7,2.72s2-6.19,3.27-7.28,3.69-4.74,3.51-6.56-.56-8.73-5.15-11.28c-2.49-1.38-5.59-2.16-6.79-6.91-1.11-4.37-8.08-7.27-8.08-7.27a102.83,102.83,0,0,1,7.15-8.56L83.13,106.65c-2.15,1-9.81,1.74-15.68,5C64.41,113.36,56.43,118.82,52.78,124.05Z"/></g></mask><mask id="fb043171-1abb-417a-8ff1-d7945200d8ab" x="81.64" y="41.1" width="59.83" height="81.28" maskUnits="userSpaceOnUse"><g id="beeff797-59a9-4b4f-8a82-52fa9b684c49" data-name="mask-11"><path id="b22d3a10-ea52-4923-9c3a-3151ac1da73f" data-name="path-10" class="b7123cdc-ef0c-4171-a5a7-dbbbb11e09ec" d="M119,60.85c4,3.46,9.73,2.73,13.77,8.19S131.2,82.11,130,82.69c-3.85,1.82-3.66,2.55-6.78,2.92a43,43,0,0,1-4.5.08c-3.7,0-8.38-.08-11.44,1-4.59,1.64-3.33,3.28-7.73,6s-11.74,6.38-14.85,9.84-3.67,8.37-2.38,10.37,5.14,4.19,15.6,4.36,13,5.27,17.06,5.09c2-.09,1.39-2.28.24-5.28l.33.54s3.56-2.14,4.77-4.55,4.58-8.37,7.34-9.29c3.17-1,8.8-4,8.25-5.1-.77-1.53-5.69-1.63-5.69-1.63s6.28-2.35,6.6-2.92c2.56-4.56,6.16-13.09,4-22.75-2.58-11.65-13.77-11.46-17.08-13.28-6.81-3.75-4.8-13.83-4.8-13.83s.37-2.55-1.47-2.91A10,10,0,0,0,116,41.1c-.65,0-.84.52-.72,2.65C115.46,47,113.47,56.13,119,60.85Z"/></g></mask><linearGradient id="b3bea0b5-57c8-4c48-9e1d-82c661d68ecd" x1="-630.15" y1="846.09" x2="-630.44" y2="845" gradientTransform="matrix(55.55, 0, 0, -75.46, 35123.75, 63888.18)" gradientUnits="userSpaceOnUse"><stop offset="0" stop-color="#5190a5"/><stop offset="1" stop-color="#4e6586"/></linearGradient><mask id="eadb8e09-d1d1-41cb-b636-fe742c3c3a98" x="78.92" y="-3.3" width="74.85" height="125.68" maskUnits="userSpaceOnUse"><g id="fdedf94c-9fae-440c-980a-7abe702fcc62" data-name="mask-11"><path id="ab9e2641-ca89-441a-b9f5-5db39414e007" data-name="path-10" class="b7123cdc-ef0c-4171-a5a7-dbbbb11e09ec" d="M119,60.85c4,3.46,9.73,2.73,13.77,8.19S131.2,82.11,130,82.69c-3.85,1.82-3.66,2.55-6.78,2.92a43,43,0,0,1-4.5.08c-3.7,0-8.38-.08-11.44,1-4.59,1.64-3.33,3.28-7.73,6s-11.74,6.38-14.85,9.84-3.67,8.37-2.38,10.37,5.14,4.19,15.6,4.36,13,5.27,17.06,5.09c2-.09,1.39-2.28.24-5.28l.33.54s3.56-2.14,4.77-4.55,4.58-8.37,7.34-9.29c3.17-1,8.8-4,8.25-5.1-.77-1.53-5.69-1.63-5.69-1.63s6.28-2.35,6.6-2.92c2.56-4.56,6.16-13.09,4-22.75-2.58-11.65-13.77-11.46-17.08-13.28-6.81-3.75-4.8-13.83-4.8-13.83s.37-2.55-1.47-2.91A10,10,0,0,0,116,41.1c-.65,0-.84.52-.72,2.65C115.46,47,113.47,56.13,119,60.85Z"/></g></mask><linearGradient id="a62f73c7-e650-4472-a3b4-f4aec7a26488" x1="-616" y1="825.73" x2="-616.81" y2="825.13" gradientTransform="matrix(22.89, 0, 0, -21.48, 14244.84, 17819.34)" gradientUnits="userSpaceOnUse"><stop offset="0" stop-color="#efe8cd"/><stop offset="1" stop-color="#d3caaf"/></linearGradient></defs><g id="a76002cf-25a9-42ff-8f7e-2b40b5fe2181" data-name="Page-1"><g id="ac6d3c53-dccd-47f1-baad-4381771c9ba0" data-name="PachydermBrand-Copy-5"><g id="f29fdc8f-b7a7-4848-9ff9-a693d0c9c7be" data-name="Group-14"><g id="abef0e3e-bad7-4185-9dd2-5ea16f79e279" data-name="Group-18"><g id="adf7aa4a-7bf2-4e88-91f3-4fb23ee413f5" data-name="Group-5-Copy-8"><g id="e5a6c360-92ee-4762-8922-1a2bb09231b7" data-name="Group-Copy-11"><g id="a6e71e9e-e7a8-45aa-b910-e82c749abef8" data-name="Group-30"><polygon id="a47b002f-fae9-40dc-a0d8-6acb3cf0783d" data-name="Fill-3" class="ff509829-b066-46ff-b918-36610085c1e6" points="120.21 166.52 115.25 172.04 115.25 189.69 120.21 184.23 120.21 166.52"/><g id="a911d4f5-d1ea-48a1-a4fe-8cefa10e0c94" data-name="Fill-8"><polygon id="a1a4443b-c2c8-4b0c-adb8-791c4ce2e7dc" data-name="path-3" class="b4d043c8-9344-4adc-8b33-be8a25f25c3b" points="120.21 166.58 101.67 166.59 95.07 172.05 115.25 172.04 120.21 166.58"/><polygon id="bf6fffb4-d149-4cf3-90fc-91160dd291db" data-name="path-3" class="e780b7c4-8256-4fb9-9cf9-1d9e3828ae9e" points="120.21 166.58 101.67 166.59 95.07 172.05 115.25 172.04 120.21 166.58"/></g><polygon id="b5e92520-2700-41f3-aa6e-fbea4e2cd628" data-name="Fill-5" class="f3737460-e9b8-4f2f-a37b-67716fe4e4a5" points="115.25 171.98 95.07 172 95.07 189.71 115.25 189.69 115.25 171.98"/></g><path id="badea063-8643-4bfb-9d0d-bb4c501da14b" data-name="Tusk-2" class="f95739ba-5e22-4d43-8150-c7920b52f64f" d="M122,101.44c0-1-.75-4.93,3.19-5,3.15-.09,9.71,1,15.34-.42,6-1.53,12.13-7.24,12.87-6.58s-6.45,9.44-15.57,11.9c-5.33,1.43-12.46.85-15.83.13-1.32-.28.65.85-4.11,0"/><g id="bd29eaf3-03f7-4d41-bcb8-445e290ce43b" data-name="Group-71"><g id="bc32f5f6-e386-435a-beff-b0372a3817aa" data-name="Group-20"><path id="ecd8aeca-d65f-49ef-8314-06a8d32318af" data-name="Fill-1" class="a43f0cb3-930c-4822-a10d-5f5b34590911" d="M74.47,184.47a54,54,0,0,0,6.42.54,12.35,12.35,0,0,0,5.5-1.28c.74-.36,1.1-2.91-.73-4.18-1.21-.84-.34-8.71-2.21-11.65-2.21-3.46,1.64-13.83,1.64-13.83l-12.66,7.28s2.76,14.38,2.95,15.65-1.65,6.92-.91,7.47"/><path id="ab5ba2bb-275e-4fc4-b0e2-4878e460678a" data-name="Fill-16" class="b0bc5e11-81e5-4b47-b0c8-27ba96681ba8" d="M105.84,136.67A21.21,21.21,0,0,0,107,147.78c2.28,5.84,7.47,7.72,7.61,10.47.06,1.23-.59,2.55-1,4.6-.49,2.56,1.23,5.06.13,7.17-1,1.84-13.56,1.3-12-1.69a24.15,24.15,0,0,0,2-7.85c.06-.73-7.74-8.84-7.14-13.91s-2.78-6.44-2.78-6.44Z"/></g><g id="a2e828b4-f86b-423f-912f-2a93e6cccd5d" data-name="Fill-52"><path id="af605125-cc53-4c5e-b1d5-f2c1cdd3e246" data-name="path-5" class="a93b6be1-5e0f-45b5-ab03-2aad63fea614" d="M123.74,58.12c-6.81-3.75-4.8-13.83-4.8-13.83s.37-2.55-1.47-2.91-2.38-.91-2.2,2.37-1.8,12.38,3.7,17.1c4,3.46,9.73,2.73,13.77,8.19S131.2,82.11,130,82.69c-3.85,1.82-3.66,2.55-6.78,2.92s-11.36-.54-15.94,1.1-3.33,3.28-7.73,6-11.74,6.38-14.85,9.84A12,12,0,0,0,82.15,107c-3,.89-9.53,1.77-14.7,4.66-3,1.69-11,7.15-14.67,12.38-3.3,4.74-5,10.38-5.87,15.3A87.84,87.84,0,0,0,46,151.91a53.93,53.93,0,0,0,1.16,10,40.23,40.23,0,0,1,.55,6c0,1.76-.55,2.18-.55,3.4a2.27,2.27,0,0,0,.68,1.9c.29.29,0-.92,0-1.25s.44-1.18.57-.9,0,0-.14,1.42,1,4,1,2.83a13.31,13.31,0,0,1,.28-3.55c.28-.71.29-.16.29,0s-.07.57.11.49.5-.41.18-2-.51-1.62-.62-2.31c-.38-2.33-.37-3.51-.6-5.09a106.06,106.06,0,0,1-.38-13.28c.28-4.18,1.36-4.66,1.83-5.46.76-1.28,1.5,7.7,4.78,15.65,2.78,6.73,6.61,6.73,8.08,8.18s-1.28,7.83-.17,12.38c1,4.08-.37,6.73,0,7.82s4.77,2.37,8.08,2.37,7.34-.92,7.33-2.37c0-3.83-1.47-3.1-1.83-5.46s3.43-5.84,3.84-8.74c.73-5.1,0-6.19-1.1-10-.07-.25-.56-4.73-.56-4.73s6.06.9,10.09-1.83a26,26,0,0,0,9.17-12,55.43,55.43,0,0,0,4.41,4.37,11.45,11.45,0,0,0,4.77,2.54c1.65.55,6,1.64,6,1.64a29.62,29.62,0,0,1-3.46,3.46c-.91.64-3.51,2.73-3,3.82s2.35,4,4.22,5.28c3.33,2.18,6.08,2.9,7,2.72s2-6.19,3.27-7.28,3.69-4.74,3.51-6.56-.56-8.73-5.15-11.28c-2.49-1.38-5.59-2.16-6.79-6.91-1.11-4.37-8.08-7.27-8.08-7.27a97.67,97.67,0,0,1,6.9-8.29,6.45,6.45,0,0,0,3.16.82c2-.09,1.39-2.28.24-5.28l.33.54s3.56-2.15,4.77-4.55c1.28-2.55,4.58-8.37,7.34-9.29,3.17-1,8.8-4,8.25-5.1-.77-1.53-5.69-1.63-5.69-1.63s6.28-2.35,6.6-2.92c2.56-4.56,6.16-13.09,4-22.75C138.24,59.75,127.05,59.94,123.74,58.12Z"/></g><g class="b9620d90-f1ce-45b8-927a-e62a438d60fe"><g id="ae3d8261-704f-4448-acfc-1d873f313263" data-name="Group-36"><g class="a6090397-47e1-4a2d-96c3-2c2345a2a16e"><path id="ec4a3130-cb1f-4536-88fc-ea788a22f839" data-name="Fill-21" class="bb246fd4-c300-48ab-af95-c733d7c6a4b6" d="M47.16,147.41s1.66-17.29,9.91-18.38,9.57-1,13.15,2.08c4.41,3.82,2.73,5.56,3.71,5.56s5.92-3.16,5-9c-.9-5.63,5.24-11.54,18.3-11s-15-3.84-15-3.84l-27,10.56s-7.53,9.83-7.71,17.29Z"/></g><g class="a6090397-47e1-4a2d-96c3-2c2345a2a16e"><path id="b064e091-6cf0-41d5-9ca6-51d4402fb79f" data-name="Fill-27" class="b7657096-2901-43de-8873-ff4c2d73ee86" d="M92.33,160.52s-13.29-.08-13.2-1.79.71-4.16.17-6.5c-.11-.47,6,.92,9.63-2,7.13-5.78.53-11,.53-11s8.17,4.35,8.75,6.49c1,3.85-5.88,14.8-5.88,14.8"/></g><g class="ea152c07-a239-4c6a-babf-8c74bb11d06b"><path id="fcd91b6f-9701-496d-8000-43a46b46f23f" data-name="Fill-24" class="e36ea272-f3fe-4dec-82a7-5391829eac05" d="M47,162.92s.26-9.93.36-14.75c.18-8.92,1.55-14.8,4.76-19.47,2.75-4,13.42-.54,17.42-5.84,8.25-10.93,21.1-6.93,21.1-6.93L114.15,121s-5.68,10.26-8.64,8.93c-2-.91-6.6-3.28-6.6-3.28a8,8,0,0,0,3.69,3.46c5.87,2.54,7.89,4.73,9.18,8.37.53,1.52,2.66,4.32,4.16,4.95a14.47,14.47,0,0,1,3.71,2.25c.2.18-.56,1.09-.37,1.27s1.64-.67,1.79-.5-.94,1.53-.79,1.71,1.59-.66,1.72-.48-1.42,1.19-1.27,1.45,1.62-.18,1.71,0a7,7,0,0,1,.72,2.08c.37,2.37,1.65,4-1.83,10.74-2.55,4.93,10.82-7.29,10.82-7.29L99.64,94.08l-58.52,29,4.43,40Z"/></g><g class="a6090397-47e1-4a2d-96c3-2c2345a2a16e"><path id="fc2f23a9-30b9-4d8e-b661-efa7acdd7e88" data-name="Fill-30" class="afa16f96-e053-4ed9-ab70-9268fb33a428" d="M118.19,133.57s-6.34-16.83-6.25-18.56-17.24,1.83-17.24,1.83l11,3.63c6.61,2.18-2.75,8.19-2.75,8.19l12.12,5.46Z"/></g><g class="bea0c7ee-6673-45ef-8f61-541b574386d1"><path id="b1adc347-4f73-4068-bdb1-aca78bce8ef2" data-name="Fill-33" class="b7657096-2901-43de-8873-ff4c2d73ee86" d="M59.88,187.66s-10.39-36.85-10.3-38.58S49,135.14,51,139.62c.74,1.63,4.6,22,12.68,22.92,4.74.53,1.73,12.72,2.39,15.29,1.66,6.37-2.19,12.74-2.19,12.74Z"/></g><g class="b854a148-815c-45d7-811a-bef4fadfff9f"><path id="a78a3afe-fead-4007-97e1-705b6416b852" data-name="Fill-21-Copy" class="eb63faba-2977-4d83-bd9a-b7b522b66701" d="M47.16,136.67c1.12-6.55,9-16.5,16.79-20.88s11.18-6.32,20.73-6.32-7.27-5.78-7.27-5.78l-29.13,12.1s-5.28,1.07-5.47,8.53Z"/></g></g></g><g class="b9620d90-f1ce-45b8-927a-e62a438d60fe"><g id="a36a5702-7aff-4b93-b7a1-59d42f113c1d" data-name="Head"><g class="f4d0e81a-c3db-4749-be55-c219e257281f"><path id="a5b64fe4-7ca6-495a-a383-0c21a65107ec" data-name="Fill-39" class="ebc945d1-2f69-4248-877f-571626d84694" d="M119,60.85c4,3.46,9.73,2.73,13.77,8.19S131.2,82.11,130,82.69c-3.85,1.82-3.66,2.55-6.78,2.92a43,43,0,0,1-4.5.08c-3.7,0-8.38-.08-11.44,1-4.59,1.64-3.33,3.28-7.73,6s-11.74,6.38-14.85,9.84-3.67,8.37-2.38,10.37,5.14,4.19,15.6,4.36,13,5.27,17.06,5.09c2-.09,1.39-2.28.24-5.28l.33.54s3.56-2.14,4.77-4.55,4.58-8.37,7.34-9.29c3.17-1,8.8-4,8.25-5.1-.77-1.53-5.69-1.63-5.69-1.63s6.28-2.35,6.6-2.92c2.56-4.56,6.16-13.09,4-22.75-2.58-11.65-13.77-11.46-17.08-13.28-6.81-3.75-4.8-13.83-4.8-13.83s.37-2.55-1.47-2.91A10,10,0,0,0,116,41.1c-.65,0-.84.52-.72,2.65C115.46,47,113.47,56.13,119,60.85Z"/></g><g class="f4d0e81a-c3db-4749-be55-c219e257281f"><path id="e8bb5c8c-1463-484e-8de1-0849766c8779" data-name="Fill-42" class="bc9447a2-d3dc-4f56-836a-f83d4abf2a8d" d="M115.52,117.64s3.56-2.15,4.77-4.55c1.28-2.55,4.58-8.37,7.34-9.29,3.17-1,8.8-4,8.25-5.1-.77-1.53-5.69-1.63-5.69-1.63s6.28-2.35,6.6-2.92c2.56-4.56,6.07-8.63,2.65-17.93-2.2-6-14.14-13.64-17.44-15.46-6.81-3.75-5.33-14.37-5.33-14.37s0-3.1-1.84-3.46-1.1-.36-.91,2.91-.45,10.29,5,15c4,3.46,10,5.37,14.05,10.83s9.91,11.27,4.41,17.47c-2.82,3.17-13,8.92-16.32,10.2a29.29,29.29,0,0,1-9.17,1.64c-4.81-.79-8.08-5.45-10.65-3.81-4.37,2.78,5.69,6.73,2.58,10.19S89,110.29,88.82,112.66c-.18,2.18.56,3.45,11,3.63s11.09,6.27,15.12,6.09-2.57-8.92-2.76-15.65-8.08-7.83-8.08-7.83"/></g><g class="aa4d3ef2-1567-4fed-96d2-a270f8af964c"><path id="fc01278e-7fe6-46ab-88dc-c52beae5d672" data-name="Fill-45" class="bb84be9f-c638-4c06-99bb-c262921b6db8" d="M102.76,92.63c2.93-3.83,4-4.19,7-4.74,2-.37,7.65-.13,12.36-.58.3,0,.65,1.07,1,1.07s-.06-2.1.39-2.18,1.35,2.31,1.76,2.18-.55-2.29,0-2.44,1.65,2,2,1.83-.62-1.83-.31-2.25.58.63.63.6c5.08-2.74,7.11-6.86,7.29-9.9s-3.5-7.46-3.5-7.46L104,54.4s.63-10.64,11.55-12.2c3.85-.55-.41,6,4,13.83,2.3,4,7.9,3.31,13.26,6.82.37.24.95-.41,1.19-.23s-.6.8.34,1.55,1.34-.5,1.69-.16-1,1,0,1.8,1.44-.27,1.77.14-.66.88-.24,1.35c1.32,1.49,1.37,2,2,4.55,2,8,1.18,6.27,3.86,9.47,5.07,6-23.66,14.75-23.66,14.75l33.94-5.3-2.07-7.24L104.9-3.3l-26,117.78s4.94-10.38,11.36-14.57C98,94.85,99.82,96.45,102.76,92.63Z"/></g><g class="f4d0e81a-c3db-4749-be55-c219e257281f"><path id="a692ad4f-9e59-47e9-a425-56e4448b133b" data-name="Fill-48" class="afa16f96-e053-4ed9-ab70-9268fb33a428" d="M117.63,118.64,115,116.86s-1.76-6.81-2.68-9c-1.11-2.55-1.19-3.81-4.41-4.55-9.54-2.18-3.86-4.91-3.86-4.91s6.24,1.63,7.71,6c.62,1.84,1.11,6.73,3.86,6.73s3.67-4.19,6-5.64,4-3.28,6.24-3.65a80.54,80.54,0,0,1,8.07-.37Z"/></g><g class="f4d0e81a-c3db-4749-be55-c219e257281f"><path id="aada54c2-e24a-4c23-950c-a541010b4080" data-name="Fill-63" class="bc9447a2-d3dc-4f56-836a-f83d4abf2a8d" d="M114.5,94.26c2.75-1.46,3.3-.55,5-1.65s-6-2.9-8.62-1.45c-1.47.84-2.1,6.08-.55,6.92C114.32,100.26,112.23,95.46,114.5,94.26Z"/></g></g></g></g><path id="e3eebc92-1078-455f-8c85-21d0226a7641" data-name="Path-15" class="bb246fd4-c300-48ab-af95-c733d7c6a4b6" d="M79.42,158.23c1.22-5.26,1.65-6-1.67-9.87q-3.31-3.87-3.68-5.77c-.1,1.73,1,3.85,3.2,6.34,3.34,3.74.22,10.26,1.69,14.59a48.4,48.4,0,0,1,1.82,6.34,62.76,62.76,0,0,0-1.07-6.59A10.89,10.89,0,0,1,79.42,158.23Z"/><path id="ea12a4b7-2658-4f65-9ecc-f9a9cc16572a" data-name="Fill-55" class="b0bc5e11-81e5-4b47-b0c8-27ba96681ba8" d="M123.13,100.44a47.84,47.84,0,0,0,6.42-.55c2-.55,4.95-.73,4.95-2L131.34,97l-5,1.73-.17.48Z"/><path id="fa9a7854-9dd7-41a1-83d4-173960f9ff89" data-name="Tusk" class="fe1c70c7-c16c-473b-9036-fb8fc565f591" d="M140.8,86.5c-4.48,3.6-10.79,5.65-13.57,7.11h0c-3.49,1.82-1.28,4.55-.91,5.28h0c3.29-.94,9.9-3.65,14.12-7.11h0c7.21-5.91,10.26-15.84,9.35-16h0c-1,0-4.24,7-8.95,10.74"/><path id="e519c95e-e196-4c93-b447-82151918c9e9" data-name="Fill-61" class="a36e0a93-db11-4783-9964-8e5e1df5122a" d="M126.32,98.89c-1.36-2.09-1-3-1-3a4.12,4.12,0,0,0,4,.36,36.51,36.51,0,0,0,11.38-6.2c4.76-3.82,8.06-10.19,8.06-10.19s-1.15,6-8.36,11.92c-4.22,3.46-10.83,6.17-14.12,7.11"/><g id="b6958033-9144-48ad-bee3-6d95e9e3bc7f" data-name="Eye"><path id="bcc558fc-7973-4819-80e5-bc3daeb0afbc" data-name="Fill-66" class="ac029c79-d6c3-4a20-9941-d9986423103d" d="M112.66,92.66a1.23,1.23,0,1,1,1.23,1.22,1.22,1.22,0,0,1-1.23-1.22"/><path id="b0d8b8d4-1762-46ec-af6b-68b545158512" data-name="Fill-68" class="ac35e53a-0c31-44eb-a6f1-82edbe99d645" d="M114.5,92.07a.37.37,0,0,1-.74,0,.37.37,0,0,1,.74,0"/></g></g><polygon id="fa681a6e-be34-496b-bd32-f3085ee06ee4" data-name="Fill-14" class="fb37bf7c-a4dc-4d09-babb-4cc951250134" points="117.45 7.48 130.34 19.39 129.66 26.22 116.01 13.61 117.45 7.48"/><polygon id="f13409a3-6fec-4e42-bb69-50e4b9559c6c" data-name="Fill-10" class="ff509829-b066-46ff-b918-36610085c1e6" points="117.49 7.44 116.01 13.61 103.88 26.52 105.32 20.4 117.49 7.44"/><polygon id="a10b86e8-cc65-4ecb-b611-1d59dfd3b300" data-name="Fill-12" class="f3737460-e9b8-4f2f-a37b-67716fe4e4a5" points="116.04 13.57 129.69 26.18 117.53 39.14 103.88 26.52 116.04 13.57"/></g></g></g></g></g></svg>