<svg width="9" height="13" xmlns="http://www.w3.org/2000/svg"><path d="M8.248 4.643a.765.765 0 01-1.081.018L5 2.568v9.312a.765.765 0 01-1.53 0V2.568L1.306 4.661a.765.765 0 11-1.063-1.1L3.705.215c.012-.012.027-.021.04-.032l.013-.01c.017-.014.032-.03.05-.042l.009-.005c.02-.013.043-.024.064-.035.022-.012.044-.025.067-.034a.75.75 0 01.073-.023c.02-.006.04-.014.06-.018l.01-.001c.024-.005.048-.006.073-.009L4.231 0h.01c.022 0 .044.004.067.007.024.002.049.003.073.008l.011.001c.02.004.039.012.058.018.025.006.05.014.074.023l.01.003c.02.008.037.02.055.03a.73.73 0 01.066.036c.003.002.007.003.01.006.015.01.028.023.043.035l.02.016c.013.011.027.02.04.032L8.229 3.56a.765.765 0 01.02 1.082z" fill="#585858" fill-rule="nonzero"/></svg>