<svg width="21" height="21" xmlns="http://www.w3.org/2000/svg"><g fill="#582F6B" fill-rule="nonzero"><path d="M18.836 1.524a5.087 5.087 0 00-7.184 0L8.776 4.4a1.016 1.016 0 001.436 1.436l2.876-2.872a3.054 3.054 0 014.312 0 3.054 3.054 0 010 4.312l-2.876 2.876a1.016 1.016 0 000 1.436c.2.2.744.608 1.436 0l2.876-2.876a5.092 5.092 0 000-7.188zM10.112 14.56L7.24 17.432c-1.152 1.152-3.16 1.152-4.312 0a3.025 3.025 0 01-.892-2.156c0-.816.316-1.58.892-2.156L5.8 10.244a1.016 1.016 0 00-1.436-1.436l-2.872 2.876A5.037 5.037 0 000 15.28c0 1.356.528 2.632 1.488 3.592A5.047 5.047 0 005.08 20.36a5.047 5.047 0 003.592-1.488L11.544 16a1.016 1.016 0 00-1.432-1.44z"/><path d="M12.912 7.448a1.016 1.016 0 00-1.436 0l-5.08 5.08a1.016 1.016 0 000 1.436c.2.2.744.596 1.436 0l5.08-5.08a1.016 1.016 0 000-1.436z"/></g></svg>