<svg width="25" height="16" xmlns="http://www.w3.org/2000/svg"><defs><radialGradient cx="50.001%" cy="49.999%" fx="50.001%" fy="49.999%" r="49.443%" gradientTransform="matrix(1 0 0 .95165 0 .024)" id="a"><stop stop-color="#FFF2E8" offset=".56%"/><stop stop-color="#FEEDDF" offset="9.61%"/><stop stop-color="#FDE1C7" offset="24.38%"/><stop stop-color="#FACD9F" offset="43.03%"/><stop stop-color="#F6B168" offset="64.84%"/><stop stop-color="#F08E22" offset="89.01%"/><stop stop-color="#EE7D00" offset="100%"/></radialGradient></defs><g fill-rule="nonzero" fill="none"><path d="M23.529.251c.676 0 1.227.567 1.227 1.264v12.97c0 .697-.55 1.264-1.227 1.264H1.471c-.676 0-1.227-.567-1.227-1.264V1.515C.244.818.794.251 1.471.251h22.058zm0-.251H1.471C.659 0 0 .678 0 1.515v12.97C0 15.322.659 16 1.471 16h22.058c.812 0 1.471-.678 1.471-1.515V1.515C25 .678 24.341 0 23.529 0z" fill="#EF7D00"/><path d="M24.968 15.095V8.96s-6.409 4.861-18.147 7.038h16.864c.721-.024 1.142-.276 1.283-.903z" fill="#EF7D00"/><path d="M10.886.06c-.963 0-1.744.808-1.744 1.806 0 1.06.747 1.854 1.744 1.854.972 0 1.739-.804 1.739-1.833 0-1.024-.762-1.828-1.74-1.828z" fill="url(#a)" transform="translate(3 4)"/><path d="M3.984 4.125h-.938V7.64h.933c.495 0 .853-.126 1.167-.405.372-.332.593-.833.593-1.35 0-1.038-.721-1.76-1.755-1.76zm.746 2.64c-.202.196-.462.28-.874.28h-.171V4.721h.171c.412 0 .662.079.874.284.22.21.352.537.352.875 0 .337-.132.675-.352.885zM6.034 4.125h1V7.64h-1z" fill="#05171D"/><path d="M8.231 5.474c-.383-.153-.496-.253-.496-.442 0-.222.201-.39.476-.39.191 0 .348.084.516.283l.333-.468a1.373 1.373 0 00-.962-.39c-.578 0-1.02.432-1.02 1.006 0 .485.206.733.805.965.25.095.377.158.441.2.128.09.192.216.192.364a.482.482 0 01-.496.496c-.304 0-.55-.164-.697-.47l-.411.428c.294.463.647.67 1.133.67.662 0 1.127-.475 1.127-1.155 0-.56-.215-.812-.94-1.097zM9.373 5.885c0 1.034.756 1.835 1.727 1.835.275 0 .51-.058.8-.206v-.806c-.256.274-.481.384-.77.384-.643 0-1.1-.5-1.1-1.212 0-.675.471-1.207 1.07-1.207.304 0 .535.116.8.395V4.26a1.541 1.541 0 00-.785-.215c-.967 0-1.742.817-1.742 1.839zM17.068 6.487l-.873-2.362H15.5l1.388 3.605h.343l1.413-3.605h-.691zM18.933 7.64h1.81v-.595H19.57v-.949h1.127v-.595H19.57v-.78h1.171v-.596h-1.809zM23.268 5.163c0-.659-.422-1.038-1.158-1.038h-.946v3.516h.638V6.228h.083l.883 1.413h.784l-1.03-1.481c.481-.106.746-.46.746-.997zm-1.28.58h-.186V4.678h.196c.398 0 .613.18.613.522 0 .353-.215.543-.624.543z" fill="#05171D"/><path d="M24.628 4.701c0-.265-.212-.409-.6-.409h-.512v1.333h.377v-.518l.445.518h.472l-.528-.55c.222-.05.346-.188.346-.374zm-.664.181h-.07v-.346h.073c.188 0 .283.057.283.17 0 .117-.1.176-.286.176z" fill="#1D1D1B"/><path d="M24.022 4.176a.657.657 0 00-.65.666c0 .37.29.667.65.667.354 0 .643-.3.643-.667a.658.658 0 00-.643-.666zm0 1.213a.533.533 0 01-.522-.545c0-.305.23-.547.522-.547.28 0 .512.247.512.547 0 .3-.232.545-.512.545zM8.764 8.564l.853.961v-.91h.122v1.228l-.853-.958v.906h-.122z" fill="#1D1D1B"/><path d="M8.752 8.564v1.24h.188v-.889l1.106.96V8.601H9.86v.893l-1.107-.961v.03zm.03.031l1.107.961v-.93h.128v1.188l-1.106-.96v.925h-.129V8.595zM10.33 8.615h.567v.121h-.445v.35h.432v.121h-.432v.462h.445v.122h-.567z" fill="#1D1D1B"/><path d="M11.587 8.602H10.32v1.334h1.294v-.163h-.977v-.486h.948v-.161h-.948v-.36h.977v-.164h-.026zm-.025.027v.108h-.977v.416h.948v.107h-.948v.54h.977v.108h-1.194V8.63h1.194z" fill="#1D1D1B"/><path fill="#1D1D1B" d="M11.758 9.79h-.122V8.737h-.264v-.121h.653v.121h-.267z"/><path d="M12.633 8.602H11.36v.163h.506v1.17h.277v-1.17h.511v-.163h-.021zm-.022.027v.108H12.1v1.171h-.19v-1.17h-.505v-.109h1.206z" fill="#1D1D1B"/><path fill="#1D1D1B" d="M12.84 9.496l.355-.943.354.943.287-.881h.133l-.42 1.236-.354-.947-.354.947-.42-1.236h.132z"/><path d="M13.184 8.55l-.343.911-.28-.859h-.156l.436 1.285.354-.95.354.95.436-1.285h-.157l-.28.86-.353-.94-.01.027zm-.333.95l.344-.913.354.944.295-.905h.108l-.404 1.191-.353-.945-.354.945-.403-1.19h.107l.295.904.011-.03zM15.698 9.263c0 .37-.293.665-.647.665a.656.656 0 01-.647-.665.66.66 0 01.647-.669.66.66 0 01.647.669zm-1.156-.002c0 .29.227.533.509.533a.523.523 0 00.508-.533.52.52 0 00-.508-.534.521.521 0 00-.51.534z" fill="#1D1D1B"/><path d="M14.392 9.25c0 .367.29.666.647.666a.657.657 0 00.647-.666.658.658 0 00-.647-.668c-.356 0-.647.3-.647.668zm.025 0c0-.354.28-.641.623-.641.342 0 .622.287.622.641 0 .353-.28.64-.622.64a.631.631 0 01-.623-.64z" fill="#1D1D1B"/><path d="M14.514 9.37c0 .37.291.667.648.667a.657.657 0 00.646-.667.657.657 0 00-.646-.666.658.658 0 00-.648.666zm.032 0c0-.349.276-.634.616-.634.34 0 .614.285.614.634 0 .35-.275.635-.614.635a.626.626 0 01-.616-.635zM16.322 9.948h-.249V8.615h.324c.424 0 .818.067.818.367 0 .206-.215.35-.56.368l.712.598h-.306l-.676-.586h-.063v.586zm0-.716h.077c.282 0 .568-.032.568-.24 0-.218-.27-.24-.57-.24h-.075v.48z" fill="#1D1D1B"/><path d="M16.084 8.602h-.022v1.334h.28v-.574h.037c0 .01.625.567.625.567l.308.007h.044s-.649-.561-.683-.592c.314-.026.517-.167.517-.368 0-.252-.26-.374-.799-.374h-.307zm.307.027c.515 0 .755.11.755.347 0 .194-.2.33-.512.347l-.04.002.676.583h-.249.001c0-.01-.625-.567-.625-.567l-.077-.006h-.022v.573h-.192V8.629h.285z" fill="#1D1D1B"/><path d="M16.227 8.724h-.044v1.333h.19c.514 0 1.104-.076 1.104-.663 0-.619-.573-.67-1.11-.67h-.14zm.14.076c.538 0 1.022.043 1.022.594 0 .52-.513.59-1.017.59h-.1V8.8h.095z" fill="#1D1D1B"/><path fill="#1D1D1B" d="M17.81 8.615h.164l-.513.548.53.628h-.168l-.448-.54-.031.032v.508h-.122V8.615h.122v.503z"/><path d="M18.436 8.602h-.27l-.723.54v-.54h-.232v1.334h.232V9.36c.002.001.017-.01.03-.018l.707.589.283.005h.042s-.845-.693-.87-.711l.844-.623h-.043zm-.045.027l-.805.595.836.684h-.229c0-.007-.706-.595-.706-.595l-.013-.01-.063.046-.005.56h-.158v-1.28h.158v.58l.774-.58h.21z" fill="#1D1D1B"/></g></svg>