<svg width="20" height="28" xmlns="http://www.w3.org/2000/svg"><path d="M.875.292C.307.295-.004.784 0 1.166v25.078c0 .458.417.875.875.875H18.37c.458 0 .875-.417.875-.875V5.832a.885.885 0 00-.256-.62L14.325.547a.885.885 0 00-.62-.255H.875zm.875 1.75h11.08v3.79c0 .483.392.875.875.875h3.791v18.662H1.75V2.041zm12.83 1.23l1.686 1.685H14.58V3.271zm-4.957 6.934a.875.875 0 00-.875.875v3.207H5.54a.875.875 0 000 1.75h3.208v3.208a.875.875 0 001.75 0v-3.208h3.207a.875.875 0 000-1.75h-3.207v-3.207a.875.875 0 00-.875-.875z" fill="#020408" fill-rule="nonzero"/></svg>