<svg width="10" height="15" xmlns="http://www.w3.org/2000/svg"><g fill="none" fill-rule="evenodd"><path d="M1.215 8.003a.765.765 0 011.082-.019l2.165 2.093V.765a.765.765 0 011.53 0v9.312l2.165-2.093a.765.765 0 111.063 1.1L5.76 12.43c-.013.013-.028.021-.041.033l-.013.01c-.017.014-.032.03-.05.041l-.009.005c-.02.014-.042.024-.064.035-.022.012-.044.025-.067.034a.75.75 0 01-.073.023c-.02.006-.039.014-.06.018l-.01.002c-.024.005-.048.006-.073.008-.022.002-.044.006-.067.006h-.01c-.022 0-.044-.004-.066-.006-.025-.002-.05-.003-.074-.008l-.01-.002c-.02-.004-.04-.012-.06-.017a.756.756 0 01-.072-.023l-.011-.004c-.02-.008-.037-.02-.055-.03a.73.73 0 01-.066-.035l-.01-.006c-.015-.01-.028-.024-.043-.035a.685.685 0 01-.02-.017l-.04-.031-3.461-3.347a.765.765 0 01-.02-1.081z" fill="#582F6B" fill-rule="nonzero"/><path stroke="#582F6B" stroke-linecap="square" d="M.5 14.5h9"/></g></svg>
