<svg width="500" height="625" xmlns="http://www.w3.org/2000/svg" xmlns:xlink="http://www.w3.org/1999/xlink"><defs><linearGradient x1="90.51%" y1="47.597%" x2="0%" y2="56.245%" id="a"><stop stop-color="#FE9B7C" offset="0%"/><stop stop-color="#D06868" offset="100%"/></linearGradient><linearGradient x1="36.236%" y1="101.288%" x2="65.583%" y2="13.528%" id="e"><stop stop-color="#4C416C" offset="0%"/><stop stop-color="#4F7995" offset="100%"/></linearGradient><linearGradient x1="60.04%" y1="-2.451%" x2="33.382%" y2="98.382%" id="k"><stop stop-color="#5190A5" offset="0%"/><stop stop-color="#4E6586" offset="100%"/></linearGradient><linearGradient x1="78.616%" y1="37.916%" x2="3.475%" y2="94.544%" id="m"><stop stop-color="#EFE8CD" offset="0%"/><stop stop-color="#D3CAAF" offset="100%"/></linearGradient><path id="b" d="M86.354.189L22.692.252 0 19.12l69.336-.063z"/><path d="M267.43 59.392c-23.399-12.951-16.496-47.79-16.496-47.79s1.255-8.806-5.049-10.06c-6.303-1.254-8.196-3.14-7.558 8.181.638 11.321-6.2 42.773 12.72 59.114 13.82 11.937 33.413 9.412 47.292 28.273 13.819 18.777-5.3 45.178-9.5 47.178-13.233 6.297-12.602 8.813-23.316 10.077-10.715 1.265-39.005-1.862-54.76 3.809-15.755 5.67-11.414 11.328-26.536 20.772-15.121 9.445-40.327 22.04-51.035 33.996-4.178 4.667-7.007 10.097-8.647 15.397-10.153 3.051-32.723 6.092-50.507 16.088-10.42 5.858-37.858 24.702-50.399 42.802-11.335 16.36-16.995 35.86-20.136 52.844-1.945 10.515-3.132 30.821-3.127 43.4.011 12.39 1.803 22.265 3.987 34.428.973 5.415 1.877 14.823 1.877 20.882 0 6.06-1.877 7.532-1.877 11.748 0 4.216 1.314 5.525 2.324 6.551 1.01 1.026 0-3.176 0-4.294 0-1.117 1.497-4.077 1.953-3.119.457.958-.068.076-.473 4.893-.406 4.816 3.586 13.908 3.586 9.784 0-4.124 0-9.784.951-12.252.952-2.467 1.004-.577 1.004 0 0 .578-.25 1.95.365 1.668.615-.282 1.705-1.404.615-7.009-1.09-5.604-1.736-5.604-2.12-7.97-1.311-8.07-1.296-12.126-2.08-17.579-1.266-8.805-1.914-36.478-1.29-45.913.955-14.434 4.663-16.108 6.292-18.872 2.593-4.405 5.158 26.625 16.422 54.079 9.546 23.265 22.707 23.257 27.753 28.285 5.045 5.029-4.395 27.048-.603 42.77 3.404 14.117-1.246 23.272.017 27.045 1.263 3.772 16.393 8.16 27.74 8.16 11.345-.009 25.21-3.163 25.207-8.194-.009-13.208-5.05-10.69-6.316-18.864-1.265-8.176 11.787-20.158 13.218-30.199 2.51-17.613-.013-21.384-3.804-34.59-.241-.84-1.901-16.351-1.901-16.351s20.803 3.131 34.664-6.312c22.928-15.62 31.49-41.531 31.49-41.531s9.418 10.434 15.136 15.085c8.212 6.68 11.968 7.326 16.395 8.795 5.674 1.884 20.728 5.647 20.728 5.647s-7.482 8.81-11.893 11.958c-3.118 2.226-12.045 9.443-10.152 13.215 1.893 3.773 8.092 13.996 14.51 18.23 11.426 7.54 20.882 10.05 24.033 9.42 3.151-.631 6.845-21.39 11.254-25.166 4.41-3.776 12.672-16.361 12.038-22.65-.622-6.163-1.91-30.189-17.674-38.984-8.559-4.775-19.217-7.483-23.338-23.886-3.791-15.092-27.75-25.14-27.75-25.14 7.593-10.838 20.318-24.936 23.706-28.642 3.683 1.824 7.09 3.007 10.87 2.833 6.862-.315 4.765-7.865.82-18.23l1.136 1.876s12.222-7.426 16.378-15.734c4.407-8.808 15.74-28.942 25.193-32.093 10.91-3.636 30.247-13.856 28.353-17.629-2.657-5.294-19.544-5.648-19.544-5.648s21.582-8.096 22.686-10.077c8.786-15.778 21.162-45.223 13.816-78.629-8.85-40.247-47.3-39.594-58.649-45.876z" id="d"/><path d="M23.64 60.466C12.304 76.826 6.644 96.326 3.503 113.31 1.558 123.825.37 144.131.378 156.71.387 169.1 2 182.91 4.185 195.074c3.163 17.609 6.958 37.733 9.48 37.102 1.221-.306-.506-19.162-3.177-37.735-1.266-8.805-1.914-36.478-1.29-45.913.955-14.434 4.663-16.107 6.292-18.872 2.593-4.405 5.158 26.625 16.423 54.08C41.458 207 54.619 206.992 59.665 212.02c5.045 5.029-4.396 27.048-.604 42.77 3.406 14.117-1.245 23.272.018 27.044 1.263 3.774 16.393 8.167 27.74 8.16 11.345-.008 25.21-3.16 25.207-8.193-.009-13.208-5.05-10.69-6.315-18.864-1.266-8.176 11.786-20.158 13.217-30.198 2.51-17.614-.014-21.385-3.804-34.59-.241-.841-1.9-16.352-1.9-16.352s20.802 3.131 34.663-6.312c22.928-15.62 31.49-41.531 31.49-41.531s9.418 10.434 15.136 15.085c8.212 6.68 11.968 7.326 16.395 8.795 5.674 1.884 20.728 5.647 20.728 5.647s-7.482 8.81-11.893 11.958c-3.118 2.226-12.045 9.442-10.152 13.215 1.893 3.772 8.091 13.995 14.51 18.23 11.425 7.54 20.882 10.05 24.033 9.419 3.15-.63 6.845-21.388 11.254-25.165 4.41-3.776 12.672-16.361 12.038-22.65-.622-6.163-1.91-30.189-17.674-38.985-8.56-4.774-19.217-7.482-23.338-23.884-3.791-15.093-27.75-25.141-27.75-25.141 8.817-12.585 24.564-29.577 24.564-29.577L127.92.334C120.529 3.939 94.2 6.33 74.038 17.664 63.618 23.522 36.18 42.366 23.64 60.466z" id="g"/><path d="M128.764 68.497c13.82 11.937 33.413 9.413 47.292 28.273 13.818 18.777-5.3 45.178-9.5 47.178-13.233 6.298-12.6 8.814-23.316 10.078-3.567.421-9.084.355-15.437.29-12.727-.132-28.814-.264-39.323 3.518-15.754 5.671-11.413 11.329-26.536 20.773-15.121 9.443-40.326 22.039-51.034 33.996C.202 224.56-1.68 241.543 2.739 248.458c4.416 6.916 17.658 14.455 53.587 15.061 35.928.606 44.765 18.21 58.63 17.574 6.862-.316 4.768-7.865.822-18.23l1.136 1.876s12.22-7.426 16.377-15.735c4.408-8.808 15.74-28.942 25.193-32.093 10.91-3.636 30.247-13.856 28.353-17.628-2.657-5.295-19.543-5.648-19.543-5.648s21.581-8.097 22.685-10.079c8.786-15.776 21.162-45.222 13.817-78.627-8.85-40.247-47.3-39.595-58.65-45.877-23.398-12.95-16.494-47.79-16.494-47.79s1.255-8.805-5.05-10.06c-2.206-.44-3.873-.955-5.08-.955-2.239 0-2.892 1.778-2.478 9.137.637 11.32-6.2 42.773 12.72 59.113z" id="j"/><radialGradient cx="41.057%" cy="27.737%" fx="41.057%" fy="27.737%" r="60.073%" gradientTransform="matrix(0 1 -.6731 0 .597 -.133)" id="c"><stop stop-opacity=".5" offset="0%"/><stop stop-opacity="0" offset="100%"/></radialGradient><filter x="-33.3%" y="-24.5%" width="166.7%" height="148.9%" filterUnits="objectBoundingBox" id="i"><feOffset dy="2" in="SourceAlpha" result="shadowOffsetOuter1"/><feGaussianBlur stdDeviation="17" in="shadowOffsetOuter1" result="shadowBlurOuter1"/><feColorMatrix values="0 0 0 0 0 0 0 0 0 0 0 0 0 0 0 0 0 0 0.5 0" in="shadowBlurOuter1" result="shadowMatrixOuter1"/><feMerge><feMergeNode in="shadowMatrixOuter1"/><feMergeNode in="SourceGraphic"/></feMerge></filter></defs><g fill="none" fill-rule="evenodd"><g fill-rule="nonzero"><path fill="#A5597E" d="M360.619 162.026l-7.785 20.235 16.265 13.236 8.64-20.22z"/><path fill="#F69279" d="M377.74 175.277l15.454-4.14-7.429 18.78-16.666 5.58z"/><path fill="#D06868" d="M376.812 158.26l-16.193 3.766 17.12 13.251 15.455-4.14z"/></g><g fill-rule="nonzero"><path fill="#A5597E" d="M59.95 237.98l37.91 21.05 30.74-28.53-37.64-22.74z"/><path fill="#F69279" d="M90.96 207.76L87.06 176l35.13 19.94 6.41 34.56z"/><path fill="#D06868" d="M57 204.86l2.95 33.12 31.01-30.22-3.9-31.76z"/></g><path fill="#623578" d="M63.824 260.17l-2.707 27.403L39 272.087z"/><circle stroke="#65ADBB" stroke-width="3" cx="373.5" cy="280.5" r="20.5"/><circle stroke="#D16F6F" stroke-width="3" cx="447" cy="411" r="51"/><circle stroke="#623578" stroke-width="3" cx="237.5" cy="107.5" r="89.5"/><path fill="#D16F6F" d="M250.2 3.308l7.755 26.421-26.308-6.073z"/><path fill="#D06868" d="M255.281 541.978l-17.019 19.057v61.009l17.02-18.869z"/><g transform="translate(168.927 541.978)"><use fill="url(#a)" xlink:href="#b"/><use fill="url(#c)" xlink:href="#b"/></g><path fill="#A5597E" d="M238.262 560.847l-69.335.063v61.197l69.335-.063z"/><path d="M261.533 317.089c-.005-3.278-2.567-17.039 10.963-17.398 10.813-.288 33.367 3.54 52.71-1.44 20.57-5.293 41.676-25.01 44.217-22.722 2.541 2.288-22.184 32.622-53.486 41.1-18.314 4.961-42.825 2.955-54.404.46-4.512-.973 2.26 2.944-14.094.033" fill="#C1BBA7"/><g transform="translate(0 108)"><path d="M98.15 495.994s12.609 1.879 22.063 1.873c9.455-.006 16.387-3.156 18.908-4.415 2.52-1.26 3.775-10.066-2.531-14.464-4.133-2.884-1.153-30.093-7.59-40.248-7.571-11.946 5.643-47.805 5.643-47.805l-43.477 25.186s9.487 49.681 10.12 54.084c.633 4.402-5.658 23.903-3.135 25.789" fill="#4B2357"/><path d="M205.923 330.831s-3.908 18.179 3.93 38.378c7.837 20.199 25.646 26.695 26.135 36.2.218 4.229-2.024 8.791-3.375 15.886-1.686 8.855 4.226 17.488.455 24.774-3.297 6.372-46.597 4.477-41.33-5.823 5.268-10.299 6.738-24.634 6.942-27.141.205-2.508-26.596-30.559-24.535-48.06 2.061-17.502-9.546-22.28-9.546-22.28l41.324-11.934z" fill="#4B2A5C"/><mask id="f" fill="#fff"><use xlink:href="#d"/></mask><use fill="url(#e)" xlink:href="#d"/><g mask="url(#f)"><g transform="translate(0 226.763)"><mask id="h" fill="#fff"><use xlink:href="#g"/></mask><path d="M4.363 141.189s5.673-59.75 34.038-63.525c28.337-3.77 32.867-3.582 45.182 7.17 15.128 13.208 9.379 19.234 12.712 19.234s20.345-10.932 17.144-31.058c-3.095-19.463 18.01-39.898 62.884-38.062 44.872 1.834-51.568-13.26-51.568-13.26L32.098 58.166S6.254 92.13 5.624 117.917l-1.26 23.272z" fill="#4F6486" mask="url(#h)"/><path d="M159.515 186.484s-45.649-.282-45.346-6.207c.303-5.925 2.442-14.345.598-22.45-.37-1.626 20.742 3.18 33.083-6.882 24.497-19.971 1.814-38.042 1.814-38.042s28.051 15.032 30.038 22.431c3.572 13.293-20.187 51.15-20.187 51.15" fill="#4C3D6A" mask="url(#h)"/><path d="M3.87 194.76s.898-34.297 1.228-50.946c.61-30.82 5.325-51.159 16.345-67.309 9.446-13.843 46.114-1.84 59.869-20.165 28.34-37.755 72.471-23.946 72.471-23.946l80.693 17.56s-19.52 35.45-29.67 30.855c-6.935-3.14-22.691-11.321-22.691-11.321s4.006 8.162 12.67 11.939c20.177 8.792 27.115 16.335 31.536 28.911 1.847 5.258 9.164 14.94 14.304 17.117 5.062 2.144 9.286 4.846 12.733 7.785.716.611-1.92 3.752-1.271 4.381.583.564 5.638-2.307 6.168-1.734.58.626-3.237 5.294-2.72 5.927.514.63 5.466-2.294 5.92-1.662.645.896-4.905 4.11-4.379 4.995.376.633 5.575-.62 5.891 0 1.324 2.596 2.132 5.062 2.461 7.193 1.266 8.176 5.682 13.833-6.279 37.113-8.76 17.05 37.173-25.182 37.173-25.182L184.62-43.1-16.39 57.031l15.217 138.36 5.042-.632z" fill="#4F728F" mask="url(#h)"/><path d="M248.37 93.342S226.588 35.178 226.9 29.203c.311-5.976-59.247 6.327-59.247 6.327l37.828 12.555c22.696 7.533-9.437 28.309-9.437 28.309l41.613 18.842 10.715-1.894z" fill="#4C416D" mask="url(#h)"/><path d="M48.047 280.27S12.353 152.928 12.664 146.953c.311-5.975-1.881-48.18 5.022-32.71 2.524 5.66 15.806 76.094 43.543 79.221 16.285 1.836 5.937 43.96 8.228 52.827 5.687 22.01-7.536 44.032-7.536 44.032l-13.874-10.055z" fill="#4C3D6A" mask="url(#h)"/><path d="M4.363 104.068c3.85-22.63 30.927-57.023 57.665-72.16 26.738-15.136 38.398-21.836 71.219-21.836 32.821 0-24.995-19.984-24.995-19.984L8.214 31.908S-9.95 35.615-10.58 61.402l14.943 42.667z" fill="#5191A6" mask="url(#h)"/></g></g><g filter="url(#i)" mask="url(#f)"><g transform="translate(122.283 .34)"><mask id="l" fill="#fff"><use xlink:href="#j"/></mask><path d="M128.764 68.497c13.82 11.937 33.413 9.413 47.292 28.273 13.818 18.777-5.3 45.178-9.5 47.178-13.233 6.298-12.6 8.814-23.316 10.078-3.567.421-9.084.355-15.437.29-12.727-.132-28.814-.264-39.323 3.518-15.754 5.671-11.413 11.329-26.536 20.773-15.121 9.443-40.326 22.039-51.034 33.996C.202 224.56-1.68 241.543 2.739 248.458c4.416 6.916 17.658 14.455 53.587 15.061 35.928.606 44.765 18.21 58.63 17.574 6.862-.316 4.768-7.865.822-18.23l1.136 1.876s12.22-7.426 16.377-15.735c4.408-8.808 15.74-28.942 25.193-32.093 10.91-3.636 30.247-13.856 28.353-17.628-2.657-5.295-19.543-5.648-19.543-5.648s21.581-8.097 22.685-10.079c8.786-15.776 21.162-45.222 13.817-78.627-8.85-40.247-47.3-39.595-58.65-45.877-23.398-12.95-16.494-47.79-16.494-47.79s1.255-8.805-5.05-10.06c-2.206-.44-3.873-.955-5.08-.955-2.239 0-2.892 1.778-2.478 9.137.637 11.32-6.2 42.773 12.72 59.113z" fill="url(#k)" mask="url(#l)"/><path d="M116.913 264.738s12.221-7.425 16.378-15.734c4.407-8.808 15.74-28.942 25.193-32.093 10.91-3.636 30.247-13.856 28.353-17.628-2.657-5.295-19.543-5.649-19.543-5.649s21.581-8.096 22.685-10.077c8.786-15.777 20.833-29.824 9.1-61.958-7.577-20.75-48.565-47.14-59.915-53.423C115.766 55.225 120.853 18.5 120.853 18.5s-.007-10.692-6.31-11.946c-6.305-1.254-3.784-1.256-3.146 10.066.637 11.32-1.553 35.536 17.367 51.877 13.821 11.937 34.364 18.533 48.244 37.392 13.818 18.777 34.062 38.974 15.166 60.37-9.693 10.976-44.734 30.847-56.076 35.257-10.053 3.909-27.73 6.307-31.513 5.681-16.522-2.737-27.746-18.85-36.567-13.185-15 9.635 19.555 23.259 8.847 35.216-10.708 11.956-50.998 10.1-51.675 18.272-.626 7.548 1.899 11.95 37.827 12.556 35.93.606 38.073 21.674 51.94 21.036 13.867-.638-8.844-30.813-9.49-54.084-.645-23.27-27.751-27.027-27.751-27.027" fill="#4E567C" mask="url(#l)"/><path d="M73.05 178.285c10.077-13.215 13.858-14.475 23.942-16.368 6.806-1.278 26.263-.459 42.445-1.988 1.025-.097 2.217 3.692 3.597 3.692s-.184-7.252 1.339-7.538c1.523-.285 4.642 7.969 6.06 7.538 1.418-.43-1.889-7.905 0-8.455 1.888-.55 5.679 6.93 6.767 6.353 1.088-.578-2.138-6.353-1.075-7.802 1.064-1.448 1.986 2.176 2.163 2.08 17.473-9.456 24.422-23.71 25.033-34.188.623-10.692-11.993-25.78-11.993-25.78l-93.95-49.627s2.164-36.793 39.684-42.165c13.235-1.895-1.384 20.723 13.897 47.791 7.9 13.994 27.121 11.434 45.53 23.568 1.275.84 3.282-1.423 4.105-.794.824.63-2.054 2.77 1.166 5.37 3.22 2.6 4.605-1.742 5.806-.566 1.2 1.176-3.268 3.448 0 6.232 3.267 2.785 4.957-.939 6.063.452 1.105 1.391-2.265 3.064-.816 4.694 4.556 5.126 4.71 6.928 6.887 15.72 6.83 27.583 4.053 21.667 13.257 32.697 17.426 20.88-81.279 50.997-81.279 50.997l116.598-18.314-7.11-25.029L80.403-153.178l-89.246 406.99S8.153 217.95 30.205 203.47c26.64-17.493 32.769-11.97 42.845-25.185z" fill="#5DA7B5" mask="url(#l)"/><path d="M124.164 268.193l-9.088-6.177s-6.026-23.51-9.215-30.92c-3.787-8.803-4.064-13.171-15.138-15.714-32.781-7.527-13.248-16.974-13.248-16.974s21.435 5.648 26.487 20.74c2.124 6.345 3.797 23.268 13.252 23.262 9.455-.006 12.597-14.473 20.788-19.51 8.191-5.037 13.86-11.33 21.423-12.594 7.563-1.262 27.734-1.274 27.734-1.274l-62.995 59.16z" fill="#4C416D" mask="url(#l)"/><path d="M113.395 183.92c9.451-5.038 11.344-1.894 17.015-5.671 5.67-3.778-20.807-10.05-29.629-5.013-5.044 2.88-7.192 21.012-1.875 23.901 13.872 7.539 6.685-9.058 14.489-13.217z" fill="#4E567C" mask="url(#l)"/></g></g></g><path d="M115.157 513.335c4.193-18.177 5.674-20.71-5.724-34.103-7.599-8.929-11.814-15.575-12.646-19.939-.328 5.98 3.338 13.276 10.998 21.89 11.49 12.92.764 35.476 5.8 50.415 3.358 9.959 5.44 17.269 6.243 21.931-1.014-8.844-2.232-16.445-3.654-22.802-.704-3.149-2.707-10.07-1.017-17.392z" fill="#4F6486"/><path d="M265.316 313.625s16.901-.493 22.06-1.9c6.933-1.892 17.018-2.528 17.015-6.93l-10.875-3.192-17.147 5.978-.614 1.668-10.439 4.376z" fill="#4B2A5C"/><path d="M326.036 157.472c-15.404 12.431-37.06 19.526-46.628 24.559-11.972 6.297-4.402 15.727-3.14 18.241 11.32-3.235 34.03-12.601 48.52-24.56 24.765-20.44 35.262-54.74 32.11-55.369a.65.65 0 00-.122-.01c-3.316.002-14.567 24.087-30.74 37.139" fill="url(#m)" transform="translate(0 108)"/><path d="M276.268 308.272c-4.656-7.23-3.398-10.376-3.398-10.376s5.046 4.4 13.868 1.25c10.184-3.637 23.662-8.978 39.066-21.41 16.38-13.218 27.712-35.239 27.712-35.239s-3.963 20.774-28.729 41.215c-14.49 11.96-37.2 21.325-48.52 24.56" fill="#D3CBAF"/><g><path d="M229.359 286.733a4.22 4.22 0 014.22-4.22 4.22 4.22 0 014.225 4.214 4.22 4.22 0 01-4.22 4.22 4.22 4.22 0 01-4.225-4.214" fill="#020408"/><path d="M235.673 284.712a1.26 1.26 0 01-1.26 1.259 1.26 1.26 0 01-1.262-1.258 1.26 1.26 0 012.521-.001" fill="#D5B8D8"/></g></g></svg>