<svg width="102" height="95" xmlns="http://www.w3.org/2000/svg" xmlns:xlink="http://www.w3.org/1999/xlink"><defs><linearGradient x1="50%" y1="0%" x2="50%" y2="100%" id="eha"><stop stop-color="#4B2357" offset="0%"/><stop stop-color="#4C446D" offset="100%"/></linearGradient><linearGradient x1="50%" y1="0%" x2="50%" y2="100%" id="ehb"><stop stop-color="#D3CBAF" offset="0%"/><stop stop-color="#EFE8CD" offset="100%"/></linearGradient><linearGradient x1="50%" y1="-7.809%" x2="50%" y2="100%" id="ehd"><stop stop-color="#4E567C" offset="0%"/><stop stop-color="#4E5C80" offset="100%"/></linearGradient><linearGradient x1="50%" y1="-10.848%" x2="50%" y2="100%" id="ehg"><stop stop-color="#8AC4D2" offset="0%"/><stop stop-color="#4E5C80" offset="100%"/></linearGradient><linearGradient x1="50%" y1="-10.848%" x2="50%" y2="100%" id="ehl"><stop stop-color="#507E98" offset="0%"/><stop stop-color="#4C436D" offset="100%"/></linearGradient><path d="M40.074.101c5.161.005 6.354 1.243 9.03 1.243 2.677 0 1.576-.91 7.419-.91 2.008 0 3.757.496 5.258 1.258 7.293.402 13.588 1.072 18.886 2.01 8.417 1.49 16.414 4.668 19.173 12.64 2.472 7.144-6.17 12.42-9.562 20.309-3.392 7.888-4.028 16.148-8.518 21.757-4.49 5.61-5.014-1.461-8.168-4.761-3.154-3.3-4.573-3.343-7.845-3.3-.557.007-1.045-.059-1.464-.197.635 2.54.876 3.872.876 4.386v1.568c-1.343-.232-2.544-.232-3.603 0-1.59.348-2.476.675-2.476 1.655s-.678.59-1.197 3.713c-.52 3.123-2.04 16.685-2.04 18.124 0 1.438-.226 11.796-1.148 12.78-.922.984-1.607 1.704-4.567 1.704s-4.802-1.35-5.593-2.854c-.791-1.505-1.426-16.938-1.426-18.436 0-1.498-.774-11.36-.774-12.651 0-1.291-.95-3.6-1.176-3.6-.226 0-.669.668-1.085 0-.416-.668-1.683-1.703-2.862-2.003-.786-.2-1.643-.37-2.572-.513v-.847c0-.302.125-1.224.33-2.376-.358.087-.76.128-1.207.122-3.272-.042-4.69 0-7.845 3.3-3.154 3.301-3.677 10.372-8.168 4.762-4.49-5.61-5.126-13.869-8.517-21.757C5.84 29.337-1.896 26.7.576 19.557c2.759-7.972 7.044-15.73 15.46-17.22 4.637-.82 10.676-.994 18.117-.521C35.831.809 37.816.099 40.073.1z" id="ehc"/><path d="M49.127.616c2.677 0 5.749-1.103 10.698.472 4.95 1.575 6.19 3.544 7.913 6.264 1.723 2.72 1.052 2.894 2.39 7.363 1.34 4.47 2.544 5.102 2.544 9.104 0 4.002-1.91 13.787-4.934 14.978-3.024 1.19-5.576 3.41-4.3 8.118 1.276 4.707 2.103 7.372 1.69 8.14-.276.514-.613.857-1.012 1.03.155-1.737-.298-2.49-1.357-2.257-1.59.348-2.934 4.04-2.934 5.02 0 .98-1.423-.5-1.942 2.624-.52 3.123-2.04 16.685-2.04 18.124 0 1.438-.226 11.796-1.148 12.78-.922.984-1.607 1.704-4.567 1.704s-4.802-1.35-5.593-2.854c-.791-1.505-1.426-16.938-1.426-18.436 0-1.498-.774-11.36-.774-12.651 0-1.291-1.035-3.383-1.796-2.704-.76.679-.552-.682-.968-1.35-.416-.668-1.13-3.096-2.048-3.096-.612 0-1.087.49-1.427 1.472-1.033.137-1.549-.073-1.549-.633 0-.84 1.074-7.187 2.025-9.22.951-2.035-3.9-7.077-5.4-7.776-1.499-.7-6.744-8.96-4.846-15.376 1.898-6.416.936-3.347 1.695-7.224.759-3.878-.602-5.478 1.275-7.948C31.173 3.814 35.613.203 40.074.101c4.46-.101 6.376.515 9.053.515z" id="ehf"/><path d="M40.074.101c5.161.005 6.354 1.243 9.03 1.243 2.677 0 1.576-.91 7.419-.91 2.008 0 3.757.496 5.258 1.258 7.293.402 13.588 1.072 18.886 2.01 8.417 1.49 16.414 4.668 19.173 12.64 2.472 7.144-6.17 12.42-9.562 20.309-3.392 7.888-4.028 16.148-8.518 21.757-4.49 5.61-5.014-1.461-8.168-4.761-3.154-3.3-4.573-3.343-7.845-3.3-.557.007-1.045-.059-1.464-.197.635 2.54.876 3.872.876 4.386v1.568c-1.343-.232-2.544-.232-3.603 0-1.59.348-2.476.675-2.476 1.655s-.678.59-1.197 3.713c-.52 3.123-2.04 16.685-2.04 18.124 0 1.438-.226 11.796-1.148 12.78-.922.984-1.607 1.704-4.567 1.704s-4.802-1.35-5.593-2.854c-.791-1.505-1.426-16.938-1.426-18.436 0-1.498-.774-11.36-.774-12.651 0-1.291-.95-3.6-1.176-3.6-.226 0-.669.668-1.085 0-.416-.668-1.683-1.703-2.862-2.003-.786-.2-1.643-.37-2.572-.513v-.847c0-.302.125-1.224.33-2.376-.358.087-.76.128-1.207.122-3.272-.042-4.69 0-7.845 3.3-3.154 3.301-3.677 10.372-8.168 4.762-4.49-5.61-5.126-13.869-8.517-21.757C5.84 29.337-1.896 26.7.576 19.557c2.759-7.972 7.044-15.73 15.46-17.22 4.637-.82 10.676-.994 18.117-.521C35.831.809 37.816.099 40.073.1z" id="ehh"/><path d="M23.351 0c2.677 0 3.02.242 7.757.242 4.738 0 9.024 2.798 11.284 6.998 2.26 4.2 1.676 3.745 2.897 7.814 1.22 4.069 2.036 4.632 2.036 8.628 0 3.996-1.909 13.765-4.933 14.954s-5.78 3.906-4.3 8.105c1.48 4.2 2.776 7.618 2.363 8.386-.276.512-.257 1.143.057 1.895-.554-.232-1.36-.232-2.42 0-1.59.347-3.35.525-3.35 1.503 0 .979-1.685-.367-2.204 2.751-.52 3.119-2.04 16.66-2.04 18.096 0 1.437-.226 11.778-1.148 12.761-.922.983-1.606 1.702-4.566 1.702s-4.802-1.348-5.593-2.85c-.79-1.502-1.425-16.912-1.425-18.408 0-1.496-.775-11.343-.775-12.632 0-1.289-1.165-3.115-1.926-2.438-.76.678-1.033-.614-1.45-1.281-.416-.667-.68-1.099-1.763-1.099-.722 0-1.263-.284-1.622-.851-.684.138-1.025-.073-1.025-.632 0-.422.195-2.434.587-4.393.386-1.93.965-3.805 1.437-4.813.951-2.031-3.899-7.066-5.398-7.764-1.5-.698-6.84-6.984-5.589-13.74 1.25-6.758 1.25-5.778 2.036-9.786.786-4.009-.2-4.509 1.676-6.975C5.831 3.708 9.225 0 14.731 0h8.62z" id="ehk"/><radialGradient cx="50%" cy="29.493%" fx="50%" fy="29.493%" r="54.772%" gradientTransform="scale(-.9381 -1) rotate(3.573 9.44 -16.56)" id="ehi"><stop stop-color="#4E567C" stop-opacity="0" offset="0%"/><stop stop-opacity=".139" offset="25.82%"/><stop stop-opacity="0" offset="100%"/></radialGradient></defs><g fill="none" fill-rule="evenodd"><path d="M46.832 93.295c1.395.724 6.985 1.754 10.453-1.157 3.467-2.91 9.432-14.991 8.702-19.917-.73-4.927-6.733-4.045-6.733-2.278 0 1.766-.944 5.045-.944 6.626 0 1.054-1.077 3.012-3.233 5.875-6.426 6.752-9.175 10.37-8.245 10.851z" fill="url(#eha)"/><path d="M60.74 50.234l3.879 4c2.5 6.968 3.655 13.15 3.467 18.545-.282 8.092-5.066 17.522-5.906 16.68-.84-.841 1.538-11.813 1.423-17.967-.077-4.102-1.962-9.094-5.655-14.975l2.792-6.283zm-21.362-1.85l2.275 6.373c-3.297 5.825-5.053 10.788-5.269 14.887-.324 6.15 3.848 17.624 2.994 18.436-.854.813-7.698-8.902-7.698-17.003 0-5.401 1.027-11.086 3.081-17.054l4.617-5.639z" fill="url(#ehb)"/><g transform="translate(.121)"><mask id="ehe" fill="#fff"><use xlink:href="#ehc"/></mask><use fill="url(#ehd)" xlink:href="#ehc"/><path d="M34.874 51.264c-5.463-4.128-5.138 1.157-11.955-.96s-7.09-11.062-6.817-16.455c.163-3.22 8.646-4.782 6.817-8.888-1.83-4.105 5.577-4.968 6.492-6.445 6.664-10.768 8.32-4.702 20.524-4.455 12.83.259 24.754 4.907 26.316 10.04 1.563 5.135 5.756 1.781 8.094 5.764 2.339 3.984-3.678 26.605-11.673 21.454-3.704-2.386-6.271-2.405-7.702-.055-16.422 2.752-26.455 2.752-30.096 0z" fill="#4D4C75" mask="url(#ehe)"/><g mask="url(#ehe)"><use fill="#48678A" xlink:href="#ehf"/><use fill="url(#ehg)" xlink:href="#ehf"/></g><mask id="ehj" fill="#fff"><use xlink:href="#ehh"/></mask><use fill="url(#ehi)" xlink:href="#ehh"/><g mask="url(#ehj)"><g transform="translate(25.415 .192)"><mask id="ehm" fill="#fff"><use xlink:href="#ehk"/></mask><use fill="#48678A" xlink:href="#ehk"/><use fill="url(#ehl)" xlink:href="#ehk"/><path d="M16.872 60.31c.252-21.476-.459-33.099-2.132-34.868-2.51-2.654-13.211-6.226-13.211 1.065 0 4.86 2.557 10.924 7.671 18.191 1.21-1.214 1.76-1.214 1.648 0-.06.646-.336 1.965-.83 3.956-.29 1.166-.89 3.435-1.805 6.806l6.527 8.105 2.132-3.254z" fill="#47466D" mask="url(#ehm)"/><path d="M47.688 60.713c.297-21.745-.392-33.502-2.065-35.271-2.51-2.654-13.211-6.226-13.211 1.065 0 4.86 2.656 11.36 7.967 19.497l-1.283 9.456 6.527 8.105 2.065-2.852z" fill="#47466D" mask="url(#ehm)" transform="matrix(-1 0 0 1 80.167 0)"/><path d="M17.32 38.457c2.07-.869 4.447-1.303 7.13-1.303 2.681 0 5.233.594 7.655 1.782-1.355-1.989-3.97-2.983-7.846-2.983-3.875 0-6.188.835-6.94 2.504zM17.32 42.502c2.034-.662 4.392-.993 7.074-.993 2.682 0 5.252.582 7.711 1.745-1.265-2.001-3.836-3.002-7.711-3.002-3.876 0-6.234.75-7.074 2.25zM17.454 46.521c1.981-.654 4.313-.98 6.995-.98 2.682 0 5.16.525 7.435 1.576-1.208-1.787-3.75-2.68-7.625-2.68s-6.144.695-6.805 2.084z" fill="#507E99" mask="url(#ehm)"/><path d="M17.32 38.457c2.07-1.457 4.447-2.185 7.13-2.185 2.681 0 5.233.888 7.655 2.664-1.265-2.665-3.836-3.997-7.711-3.997-3.876 0-6.234 1.172-7.074 3.518z" fill="#464F76" opacity=".5" mask="url(#ehm)"/><path d="M17.32 42.502c2.07-1.206 4.447-1.81 7.13-1.81 2.681 0 5.233.854 7.655 2.562-1.265-2.6-3.836-3.9-7.711-3.9-3.876 0-6.234 1.05-7.074 3.148z" fill="#3E476F" opacity=".5" mask="url(#ehm)"/><path d="M17.454 46.521c1.981-1.08 4.313-1.621 6.995-1.621 2.682 0 5.16.739 7.435 2.217-1.118-2.359-3.615-3.538-7.49-3.538-3.876 0-6.189.98-6.94 2.942z" fill="#3D4771" opacity=".5" mask="url(#ehm)"/><path d="M1.86 12.783c2.559 3.254 5.104 5.108 7.636 5.563 2.532.455 4.268.682 5.209.68-.593.782-2.84.947-6.744.494-3.903-.454-6.39-1.76-7.458-3.918l1.357-2.82zM22.981 13.035c.426-.276 1.653 4.029 3.686 5.18 2.033 1.15 5.644 1.22 5.128 1.554-.517.334-4.732 1.11-6.909-.403-2.177-1.513-2.33-6.056-1.905-6.331z" fill="#507E99" mask="url(#ehm)"/><path d="M2.278 7.646c5.027-4.077 8.452-6.17 10.276-6.282 2.736-.166 4.72-.114 6.222.497 4.686 1.91 3.81 5.458 4.257 5.598.257.08.257-1.741-.192-3.027-.324-.928-1.822-2.183-1.647-2.141 5.01 1.206 8.358-1.922 12.731-.43 4.374 1.492 6.191 3.634 7.87 6.56 1.12 1.95 2.996 6.008 5.629 12.173l-.925-6.07-5.926-18.708L5.468-.091l-3.19 7.737z" fill="#5DA7B5" mask="url(#ehm)"/><path d="M10.95 44.698c1.452-2.868 2.458-5.246 3.016-7.131.839-2.83 3.738-6.823 1-11.645-2.737-4.821-11.356-4.56-12.688-2.577-1.331 1.982-1.415 5.777.488 9.684 1.269 2.604 3.997 6.494 8.184 11.669z" fill="#4C4D74" mask="url(#ehm)"/><path d="M42.762 45.816c1.992.807 2.427-5.944 3.265-8.773.839-2.83 3.738-6.823 1-11.645-2.737-4.821-11.356-4.56-12.688-2.577-1.332 1.982-1.415 5.777.488 9.684 1.903 3.907 5.943 12.504 7.935 13.311z" fill="#4C4D74" mask="url(#ehm)" transform="matrix(-1 0 0 1 81.543 0)"/></g></g><path d="M64.878 30.528c.765 0 2.1-.918 1.922-2.036-.177-1.118-1.406-2.27-2.5-1.612-1.095.657-1.516 1.298-1.516 1.865 0 .566 1.33 1.783 2.094 1.783z" fill="#2D1E2D" mask="url(#ehj)" transform="scale(-1 1) rotate(33 0 -190.153)"/><path d="M34.926 30.528c.765 0 2.1-.918 1.922-2.036-.177-1.118-1.406-2.27-2.5-1.612-1.095.657-1.516 1.298-1.516 1.865 0 .566 1.33 1.783 2.094 1.783z" fill="#2D1E2D" mask="url(#ehj)" transform="rotate(33 34.848 28.608)"/><path d="M.097 25.555C.644 22.38 4.542 10.87 10.29 6.604c2.38-1.768 3.27-3.983 23.01-3.586.706.014 2.762-2.388 3.425-2.474 4.5-.585 11.533-1.182 21.103-1.79l5.376 5.278c5.435-.985 12.595-.128 21.48 2.572 8.886 2.7 14.555 7.723 17.007 15.07l1.704-15.07L52.733-3.992-3.363-2.881C-1.421 18.192-.267 27.671.097 25.555z" fill="#5DA7B5" mask="url(#ehj)"/></g><circle fill="#C3E5D7" cx="64.896" cy="28.032" r="1"/><circle fill="#C3E5D7" cx="34.944" cy="28.032" r="1"/></g></svg>
