<svg width="40" height="36" xmlns="http://www.w3.org/2000/svg" xmlns:xlink="http://www.w3.org/1999/xlink"><defs><linearGradient x1="50%" y1="0%" x2="50%" y2="100%" id="eha"><stop stop-color="#4B2357" offset="0%"/><stop stop-color="#4C446D" offset="100%"/></linearGradient><linearGradient x1="50%" y1="0%" x2="50%" y2="100%" id="ehb"><stop stop-color="#D3CBAF" offset="0%"/><stop stop-color="#EFE8CD" offset="100%"/></linearGradient><linearGradient x1="50%" y1="-7.809%" x2="50%" y2="100%" id="ehd"><stop stop-color="#4E567C" offset="0%"/><stop stop-color="#4E5C80" offset="100%"/></linearGradient><linearGradient x1="50%" y1="-10.848%" x2="50%" y2="100%" id="ehg"><stop stop-color="#8AC4D2" offset="0%"/><stop stop-color="#4E5C80" offset="100%"/></linearGradient><linearGradient x1="50%" y1="-10.848%" x2="50%" y2="100%" id="ehl"><stop stop-color="#507E98" offset="0%"/><stop stop-color="#4C436D" offset="100%"/></linearGradient><path d="M15.216.038c1.96.002 2.412.472 3.428.472 1.017 0 .599-.345 2.817-.345.762 0 1.425.188 1.995.476l-.492-.025c2.979.15 5.534.413 7.664.79 3.196.565 6.233 1.772 7.28 4.8.939 2.711-2.343 4.715-3.63 7.71-1.288 2.995-1.53 6.131-3.235 8.261-1.705 2.13-1.903-.555-3.101-1.808-1.198-1.253-1.736-1.27-2.979-1.253a1.711 1.711 0 01-.555-.074c.24.964.332 1.47.332 1.665v.595c-.51-.088-.966-.088-1.368 0-.604.132-.94.256-.94.628s-.257.224-.455 1.41c-.197 1.186-.774 6.335-.774 6.881 0 .547-.086 4.48-.436 4.853-.35.374-.61.647-1.734.647s-1.823-.512-2.124-1.084c-.3-.57-.54-6.43-.54-7 0-.568-.295-4.313-.295-4.803 0-.49-.361-1.367-.447-1.367-.085 0-.253.254-.411 0-.158-.254-.64-.646-1.087-.76a10.37 10.37 0 00-.977-.195v-.322c0-.115.048-.465.126-.902-.136.033-.289.049-.459.047-1.242-.017-1.78 0-2.978 1.253-1.198 1.253-1.397 3.938-3.101 1.808-1.705-2.13-1.947-5.266-3.235-8.262C2.218 11.14-.72 10.138.22 7.426 1.266 4.399 2.893 1.453 6.089.887 7.849.576 10.142.51 12.967.69c.638-.382 1.391-.651 2.249-.65z" id="ehc"/><path d="M18.653.234c1.016 0 2.183-.419 4.062.18 1.88.597 2.35 1.345 3.004 2.378.654 1.032.4 1.098.908 2.795.508 1.697.965 1.937.965 3.457 0 1.52-.724 5.235-1.873 5.687-1.148.452-2.117 1.295-1.632 3.082.484 1.787.798 2.8.641 3.091-.105.195-.233.325-.384.39.059-.659-.113-.944-.515-.856-.604.132-1.114 1.534-1.114 1.906 0 .372-.54-.19-.738.996-.197 1.186-.774 6.335-.774 6.881 0 .547-.086 4.48-.436 4.853-.35.374-.61.647-1.734.647s-1.823-.512-2.124-1.084c-.3-.57-.54-6.43-.54-7 0-.568-.295-4.313-.295-4.803 0-.49-.393-1.284-.682-1.027-.289.258-.21-.259-.367-.512-.158-.254-.43-1.176-.778-1.176-.232 0-.413.186-.542.559-.392.052-.588-.028-.588-.24 0-.319.408-2.729.769-3.501.361-.772-1.48-2.687-2.05-2.952-.57-.266-2.56-3.402-1.84-5.838s.355-1.271.643-2.743c.288-1.473-.228-2.08.484-3.018.713-.938 2.399-2.31 4.093-2.348 1.693-.038 2.42.196 3.437.196z" id="ehf"/><path d="M15.216.038c1.96.002 2.412.472 3.428.472 1.017 0 .599-.345 2.817-.345.762 0 1.425.188 1.995.476l-.492-.025c2.979.15 5.534.413 7.664.79 3.196.565 6.233 1.772 7.28 4.8.939 2.711-2.343 4.715-3.63 7.71-1.288 2.995-1.53 6.131-3.235 8.261-1.705 2.13-1.903-.555-3.101-1.808-1.198-1.253-1.736-1.27-2.979-1.253a1.711 1.711 0 01-.555-.074c.24.964.332 1.47.332 1.665v.595c-.51-.088-.966-.088-1.368 0-.604.132-.94.256-.94.628s-.257.224-.455 1.41c-.197 1.186-.774 6.335-.774 6.881 0 .547-.086 4.48-.436 4.853-.35.374-.61.647-1.734.647s-1.823-.512-2.124-1.084c-.3-.57-.54-6.43-.54-7 0-.568-.295-4.313-.295-4.803 0-.49-.361-1.367-.447-1.367-.085 0-.253.254-.411 0-.158-.254-.64-.646-1.087-.76a10.37 10.37 0 00-.977-.195v-.322c0-.115.048-.465.126-.902-.136.033-.289.049-.459.047-1.242-.017-1.78 0-2.978 1.253-1.198 1.253-1.397 3.938-3.101 1.808-1.705-2.13-1.947-5.266-3.235-8.262C2.218 11.14-.72 10.138.22 7.426 1.266 4.399 2.893 1.453 6.089.887 7.849.576 10.142.51 12.967.69c.638-.382 1.391-.651 2.249-.65z" id="ehh"/><path d="M8.866 0c1.016 0 1.147.092 2.945.092 1.8 0 3.427 1.062 4.285 2.657.858 1.595.636 1.422 1.1 2.967.463 1.545.773 1.758.773 3.276 0 1.517-.725 5.226-1.873 5.678-1.149.451-2.195 1.483-1.633 3.077.562 1.594 1.054 2.893.897 3.184-.104.194-.097.434.022.72-.21-.089-.517-.089-.919 0-.603.131-1.272.199-1.272.57 0 .372-.64-.14-.837 1.045-.197 1.184-.774 6.325-.774 6.87 0 .546-.086 4.473-.436 4.846-.35.373-.61.646-1.734.646s-1.823-.512-2.123-1.082c-.3-.57-.541-6.421-.541-6.99 0-.567-.295-4.306-.295-4.796 0-.489-.442-1.183-.73-.925-.29.257-.393-.234-.551-.487-.158-.253-.259-.417-.67-.417-.274 0-.48-.108-.616-.323-.26.052-.39-.028-.39-.24 0-.16.075-.924.224-1.668.147-.733.366-1.445.546-1.828.36-.77-1.48-2.682-2.05-2.947-.57-.265-2.597-2.652-2.122-5.218.475-2.565.475-2.193.773-3.715.298-1.522-.076-1.712.636-2.648C2.214 1.408 3.503 0 5.593 0h3.273z" id="ehk"/><radialGradient cx="50%" cy="29.493%" fx="50%" fy="29.493%" r="54.772%" gradientTransform="scale(-.9381 -1) rotate(3.573 9.44 -16.56)" id="ehi"><stop stop-color="#4E567C" stop-opacity="0" offset="0%"/><stop stop-opacity=".139" offset="25.82%"/><stop stop-opacity="0" offset="100%"/></radialGradient></defs><g fill="none" fill-rule="evenodd"><path d="M17.782 35.423c.53.275 2.652.666 3.968-.44 1.317-1.104 3.582-5.691 3.304-7.562-.277-1.87-2.556-1.535-2.556-.865 0 .671-.358 1.916-.358 2.516 0 .4-.41 1.144-1.228 2.23-2.44 2.565-3.483 3.938-3.13 4.121z" fill="url(#eha)"/><path d="M23.062 19.073l1.473 1.519c.95 2.646 1.388 4.993 1.316 7.041-.107 3.073-1.923 6.653-2.242 6.334-.319-.32.584-4.486.54-6.822-.029-1.558-.745-3.453-2.147-5.686l1.06-2.386zm-8.11-.702l.863 2.42c-1.252 2.211-1.918 4.095-2 5.652-.123 2.335 1.46 6.692 1.136 7-.324.308-2.923-3.38-2.923-6.456 0-2.05.39-4.21 1.17-6.475l1.753-2.141z" fill="url(#ehb)"/><g transform="translate(.046)"><mask id="ehe" fill="#fff"><use xlink:href="#ehc"/></mask><use fill="url(#ehd)" xlink:href="#ehc"/><path d="M13.241 19.464c-2.074-1.567-1.95.44-4.539-.364-2.588-.804-2.692-4.2-2.588-6.248.062-1.223 3.282-1.816 2.588-3.375-.694-1.558 2.118-1.886 2.465-2.447 2.53-4.088 3.16-1.785 7.793-1.691 4.871.098 9.398 1.863 9.992 3.812.593 1.95 2.185.676 3.073 2.189.888 1.512-1.397 10.101-4.433 8.145-1.406-.906-2.38-.913-2.924-.02-6.235 1.044-10.044 1.044-11.427 0z" fill="#4D4C75" mask="url(#ehe)"/><g mask="url(#ehe)"><use fill="#48678A" xlink:href="#ehf"/><use fill="url(#ehg)" xlink:href="#ehf"/></g><mask id="ehj" fill="#fff"><use xlink:href="#ehh"/></mask><use fill="url(#ehi)" xlink:href="#ehh"/><g mask="url(#ehj)"><g transform="translate(9.65 .073)"><mask id="ehm" fill="#fff"><use xlink:href="#ehk"/></mask><use fill="#48678A" xlink:href="#ehk"/><use fill="url(#ehl)" xlink:href="#ehk"/><path d="M6.406 22.9c.096-8.155-.174-12.568-.81-13.24C4.643 8.652.58 7.296.58 10.064c0 1.846.971 4.148 2.913 6.907.46-.46.668-.46.626 0-.023.246-.128.746-.315 1.502-.11.443-.339 1.305-.686 2.584l2.478 3.078.81-1.236z" fill="#47466D" mask="url(#ehm)"/><path d="M18.106 23.052c.113-8.256-.148-12.72-.784-13.392-.953-1.008-5.016-2.364-5.016.404 0 1.846 1.009 4.313 3.025 7.403l-.487 3.59 2.478 3.078.784-1.083z" fill="#47466D" mask="url(#ehm)" transform="matrix(-1 0 0 1 30.438 0)"/><path d="M6.576 14.602c.786-.33 1.689-.495 2.707-.495 1.018 0 1.987.225 2.907.676-.515-.755-1.508-1.132-2.98-1.132-1.47 0-2.349.317-2.634.95zM6.576 16.137c.772-.25 1.668-.377 2.686-.377s1.994.221 2.928.663c-.48-.76-1.457-1.14-2.928-1.14-1.471 0-2.367.285-2.686.854zM6.627 17.663c.752-.248 1.638-.372 2.656-.372 1.018 0 1.96.2 2.823.599-.459-.679-1.424-1.018-2.895-1.018-1.472 0-2.333.264-2.584.791z" fill="#507E99" mask="url(#ehm)"/><path d="M6.576 14.602c.786-.554 1.689-.83 2.707-.83 1.018 0 1.987.337 2.907 1.011-.48-1.011-1.457-1.517-2.928-1.517-1.471 0-2.367.445-2.686 1.336z" fill="#464F76" opacity=".5" mask="url(#ehm)"/><path d="M6.576 16.137c.786-.457 1.689-.686 2.707-.686 1.018 0 1.987.324 2.907.972-.48-.987-1.457-1.48-2.928-1.48-1.471 0-2.367.398-2.686 1.194z" fill="#3E476F" opacity=".5" mask="url(#ehm)"/><path d="M6.627 17.663c.752-.41 1.638-.615 2.656-.615 1.018 0 1.96.28 2.823.842-.425-.896-1.373-1.344-2.844-1.344-1.471 0-2.35.373-2.635 1.117z" fill="#3D4771" opacity=".5" mask="url(#ehm)"/><path d="M.706 4.853c.972 1.236 1.938 1.94 2.9 2.113.96.173 1.62.259 1.977.258-.225.297-1.078.36-2.56.187C1.54 7.24.597 6.743.19 5.924l.515-1.07zM8.726 4.95c.161-.105.627 1.529 1.399 1.966.772.437 2.143.463 1.947.59-.196.127-1.797.422-2.623-.153-.827-.575-.885-2.3-.723-2.404z" fill="#507E99" mask="url(#ehm)"/><path d="M.865 2.903C2.774 1.355 4.075.56 4.767.518 5.805.455 6.559.474 7.129.707c1.78.725 1.447 2.072 1.616 2.125.098.03.098-.661-.073-1.15C8.55 1.33 7.981.855 8.047.87c1.903.458 3.173-.73 4.834-.163 1.66.566 2.35 1.38 2.988 2.49.425.74 1.138 2.282 2.137 4.622l-.35-2.305-2.25-7.103L2.075-.035.865 2.903z" fill="#5DA7B5" mask="url(#ehm)"/><path d="M4.158 16.971c.551-1.089.933-1.991 1.145-2.707.318-1.075 1.419-2.591.38-4.422-1.04-1.83-4.312-1.73-4.818-.978-.506.752-.537 2.193.185 3.677.482.989 1.518 2.465 3.108 4.43z" fill="#4C4D74" mask="url(#ehm)"/><path d="M16.236 17.396c.756.306.922-2.257 1.24-3.331.318-1.074 1.419-2.59.38-4.422-1.04-1.83-4.312-1.73-4.818-.978-.506.753-.537 2.193.185 3.677.723 1.483 2.257 4.747 3.013 5.054z" fill="#4C4D74" mask="url(#ehm)" transform="matrix(-1 0 0 1 30.96 0)"/></g></g><path d="M24.633 11.591c.29 0 .797-.348.73-.773-.067-.424-.534-.862-.95-.612-.415.25-.575.493-.575.708 0 .215.505.677.795.677z" fill="#2D1E2D" mask="url(#ehj)" transform="scale(-1 1) rotate(33 0 -72.199)"/><path d="M13.261 11.591c.29 0 .797-.348.73-.773-.068-.424-.534-.862-.95-.612-.415.25-.575.493-.575.708 0 .215.505.677.795.677z" fill="#2D1E2D" mask="url(#ehj)" transform="rotate(33 13.231 10.862)"/><path d="M.037 9.703c.207-1.205 1.687-5.576 3.87-7.196.904-.67 1.241-1.512 8.736-1.361.268.005 1.049-.907 1.3-.94 1.709-.222 4.38-.448 8.013-.68l2.042 2.005c2.063-.374 4.782-.049 8.155.976 3.374 1.025 5.526 2.933 6.458 5.722l.646-5.722-19.235-4.023-21.299.422C-.539 6.907-.101 10.506.037 9.703z" fill="#5DA7B5" mask="url(#ehj)"/></g><circle fill="#C3E5D7" cx="24.64" cy="10.643" r="0.125"/><circle fill="#C3E5D7" cx="13.268" cy="10.643" r="0.125"/></g></svg>
