<svg width="5" height="22" xmlns="http://www.w3.org/2000/svg"><path d="M2.16 0C.96706494 0 0 .96706494 0 2.16v10.8144c0 1.1929351.96706494 2.16 2.16 2.16 1.19293506 0 2.16-.9670649 2.16-2.16v-10.8c.00383581-.57535854-.22204048-1.12846962-.62753555-1.536668C3.28696937.22953364 2.73537133 0 2.16 0zm0 17.2944c-1.19293506 0-2.16.9670649-2.16 2.16 0 1.1929351.96706494 2.16 2.16 2.16 1.19293506 0 2.16-.9670649 2.16-2.16 0-1.1929351-.96706494-2.16-2.16-2.16z" fill="#E02020" fill-rule="nonzero"/></svg>
