<svg width="15" height="15" xmlns="http://www.w3.org/2000/svg"><g fill="#582F6B" fill-rule="nonzero"><path d="M14.744.646a.092.092 0 01-.031-.061c-.03-.062-.03-.093-.062-.123V.4l-.246-.246h-.062L14.22.092H8.095a.923.923 0 100 1.847h3.54L7.54 5.941a.893.893 0 000 1.292c.17.174.403.274.646.277a.831.831 0 00.647-.277l4.094-4.093v3.54a.923.923 0 001.846 0V.922a.4.4 0 00-.03-.184V.646z"/><path d="M11.327 12.928h-9.48v-9.45h3.109V1.631H.923A.893.893 0 000 2.555V13.85a.893.893 0 00.923.923H12.25c.51 0 .924-.413.924-.923V9.819h-1.847v3.109z"/></g></svg>