<svg width="25" height="16" xmlns="http://www.w3.org/2000/svg"><g fill-rule="nonzero" fill="none"><path fill="#F9F9F9" d="M0 4.235h25v7.53H0z"/><path d="M1.042 0h22.916C24.531 0 25 .424 25 .941v3.294H0V.941C0 .424.469 0 1.042 0z" fill="#09599E"/><path d="M0 11.765h25v3.294c0 .517-.469.941-1.042.941H1.042C.469 16 0 15.576 0 15.059v-3.294z" fill="#E59703"/><path d="M1.042 15.976c-.573 0-1.042-.423-1.042-.94V.94C0 .424.469 0 1.042 0h22.916C24.531 0 25 .424 25 .941" fill="#FFF" opacity=".05"/><path fill="#00589F" d="M9.661 9.976L10.417 6h1.198l-.756 3.976zM15.208 6.118a3.622 3.622 0 00-1.067-.165c-1.198 0-2.032.541-2.032 1.318 0 .564.6.894 1.042 1.082.469.188.625.33.625.494 0 .259-.365.4-.73.4-.468 0-.728-.07-1.119-.212l-.156-.094-.156.894c.286.118.807.212 1.328.212 1.25 0 2.083-.541 2.083-1.365 0-.447-.312-.8-1.016-1.082-.416-.188-.677-.306-.677-.494 0-.165.209-.353.677-.353.391 0 .677.07.886.141l.104.047.208-.823M18.281 6.024h-.937c-.287 0-.495.07-.625.329L14.948 10h1.25s.208-.494.26-.588h1.537c.026.14.156.588.156.588h1.12l-.99-3.976zm-1.484 2.54c.104-.235.469-1.105.469-1.105s.104-.235.156-.377l.078.353.286 1.153h-.99v-.023zM8.646 6.024L7.474 8.729l-.13-.54c-.209-.636-.912-1.318-1.667-1.671l1.094 3.458h1.276L9.947 6H8.647"/><path d="M6.38 6H4.453l-.026.094c1.51.33 2.5 1.13 2.917 2.07l-.417-1.811c-.052-.259-.286-.33-.547-.353" fill="#F9A51A"/></g></svg>