<svg width="111" height="22" xmlns="http://www.w3.org/2000/svg"><g fill="#03363D" fill-rule="nonzero"><path d="M73.103 18.183a5.444 5.444 0 003.926-1.531l1.936 2.095c-1.285 1.32-3.063 2.306-5.826 2.306-4.753 0-7.816-3.151-7.816-7.411 0-4.225 3.221-7.41 7.375-7.41 4.718 0 7.376 3.59 7.147 8.554H68.72c.388 2.077 1.849 3.397 4.383 3.397m3.38-5.756c-.3-1.918-1.443-3.344-3.75-3.344-2.147 0-3.625 1.214-4.013 3.344h7.763zM0 18.025l8.572-8.713H.194V6.583h12.339v2.8l-8.555 8.695h8.678v2.728H0v-2.781zm22.267.158a5.444 5.444 0 003.926-1.531l1.936 2.095c-1.285 1.32-3.063 2.306-5.827 2.306-4.735 0-7.815-3.151-7.815-7.411 0-4.225 3.221-7.41 7.375-7.41 4.718 0 7.376 3.59 7.147 8.554H17.884c.405 2.077 1.848 3.397 4.383 3.397m3.398-5.756c-.3-1.918-1.444-3.344-3.75-3.344-2.147 0-3.626 1.214-4.013 3.344h7.763zm21.862 1.233c0-4.56 3.397-7.393 7.146-7.393 1.884 0 3.68.827 4.736 2.13V0h3.027v20.771H59.41V18.8c-1.092 1.39-2.887 2.253-4.77 2.253-3.627 0-7.112-2.87-7.112-7.393m12.058-.036c0-2.534-1.92-4.611-4.507-4.611-2.534 0-4.506 2.024-4.506 4.611 0 2.588 1.972 4.63 4.506 4.63 2.588.017 4.507-2.06 4.507-4.63m22.232 4.12l2.746-1.426a4.076 4.076 0 003.66 2.077c1.708 0 2.606-.88 2.606-1.884 0-1.144-1.655-1.39-3.45-1.76-2.43-.51-4.946-1.303-4.946-4.242 0-2.253 2.147-4.33 5.51-4.295 2.657 0 4.629 1.056 5.738 2.763l-2.553 1.408c-.65-1.003-1.777-1.619-3.203-1.619-1.637 0-2.465.792-2.465 1.708 0 1.02 1.32 1.302 3.38 1.76 2.341.51 5 1.285 5 4.242 0 1.971-1.708 4.612-5.774 4.577-2.958 0-5.052-1.197-6.25-3.31m20.244-3.291l-2.394 2.622v3.697h-3.028V0h3.028v13.59l6.425-7.042h3.678l-5.562 6.09 5.72 8.133h-3.432l-4.435-6.32zM38.374 6.249c-3.609 0-6.619 2.341-6.619 6.196v8.326h3.098V12.85c0-2.341 1.338-3.732 3.626-3.732s3.433 1.39 3.433 3.732v7.921h3.08v-8.308c0-3.873-3.01-6.214-6.618-6.214"/><path d="M108.925 4.7a1.105 1.105 0 011.549 0 1.105 1.105 0 010 1.549 1.105 1.105 0 01-1.55 0c-.44-.423-.44-1.11 0-1.55zm1.355 1.373a.85.85 0 00-.018-1.18.85.85 0 00-1.179.018.813.813 0 00.018 1.162.834.834 0 001.179 0zm-.493-1.303l.335.335c.21.211.21.457.07.598a.352.352 0 01-.423.088l-.105.423-.229-.23.158-.58.088.088a.19.19 0 00.247.035l.017-.017c.07-.07.053-.194-.017-.247l-.018-.017-.123-.124-.616.616-.194-.193.81-.775z"/></g></svg>