<svg xmlns="http://www.w3.org/2000/svg" width="100px" height="140px" viewBox="0 0 41 28"><g fill="#19CAAA" fill-rule="nonzero"><path d="M13.874 23.166c.623 0 1.067.547 1.067 1.186 0 .638-.444 1.185-1.067 1.185H7.56C3.38 25.537 0 21.98 0 17.694c0-4.013 2.935-7.297 6.76-7.753C8.804 4.013 14.318 0 20.543 0c6.137 0 11.651 4.013 13.697 9.941 3.824.456 6.759 3.74 6.759 7.753 0 4.286-3.38 7.843-7.56 7.843h-6.225c-.712 0-1.156-.547-1.156-1.185 0-.639.444-1.186 1.156-1.186h6.225c2.935 0 5.337-2.462 5.337-5.472 0-3.01-2.402-5.381-5.337-5.473-.533 0-.978-.273-1.156-.82-1.512-5.381-6.314-9.12-11.74-9.12-5.514 0-10.316 3.739-11.828 9.12-.09.456-.534.82-1.067.82-2.935 0-5.426 2.463-5.426 5.473s2.402 5.472 5.337 5.472h6.314z"/><path d="M21.612 17.329v9.485c0 .639-.445 1.186-1.068 1.186-.622 0-1.156-.547-1.156-1.186V17.33l-2.49 2.554a1.108 1.108 0 01-1.6 0 1.177 1.177 0 010-1.642l4.446-4.56a1.108 1.108 0 011.6 0l4.359 4.56a1.177 1.177 0 010 1.642 1.108 1.108 0 01-1.601 0l-2.49-2.554z"/></g></svg>
