<svg viewBox="0 0 23 25" xmlns="http://www.w3.org/2000/svg"><path d="M13.4154801 9.55223887c1.0642995 0 1.9270856.86870073 1.9270856 1.94029853v11.5671641C15.3425657 24.1312983 14.4797796 25 13.4154801 25H1.92708553C.86278606 25 0 24.1312983 0 23.0597015V11.4925374c0-1.0715978.86278606-1.94029853 1.92708553-1.94029853H13.4154801zm0 1.94029853H1.92708553v11.5671641H13.4154801V11.4925374zM12.070598 6.05469174c.3762866.37886753.3762866.99313111 0 1.37199864-.3473418.34972328-.8938931.37662455-1.2718823.08070478l-.0907724-.08070478-3.54695126-3.57127071L10.7079433.28414992c.3762866-.37886656.9863681-.37886656 1.3626547 0 .3473417.34972328.3740608.90002201.0801561 1.28060283l-.0801561.09139582-1.0563406 1.06317976 1.566126.00093135c5.6617792 0 10.2688482 4.54671212 10.4159908 10.21157172L23 13.2113168c0 .5357989-.4313935.9701493-.9635428.9701493-.5321502 0-.9635427-.4343504-.9635427-.9701493 0-4.72245367-3.8022361-8.55075863-8.4925311-8.55075863l-1.8956577-.00093135 1.3858723 1.39506492z"/></svg>