<svg width="100px" height="170px" viewBox="0 0 100 170" version="1.1" xmlns="http://www.w3.org/2000/svg" xmlns:xlink="http://www.w3.org/1999/xlink">
    <title>Group 5 Copy 8</title>
    <desc>Created with Sketch.</desc>
    <defs>
        <linearGradient x1="90.5103601%" y1="47.6251294%" x2="0%" y2="56.1718259%" id="linearGradient-1">
            <stop stop-color="#FE9B7C" offset="0%"></stop>
            <stop stop-color="#D06868" offset="100%"></stop>
        </linearGradient>
        <radialGradient cx="41.0573244%" cy="27.7365625%" fx="41.0573244%" fy="27.7365625%" r="60.073125%" gradientTransform="translate(0.410573,0.277366),scale(0.217939,1.000000),rotate(90.000000),scale(1.000000,3.070308),translate(-0.410573,-0.277366)" id="radialGradient-2">
            <stop stop-color="#000000" stop-opacity="0.5" offset="0%"></stop>
            <stop stop-color="#000000" stop-opacity="0" offset="100%"></stop>
        </radialGradient>
        <polygon id="path-3" points="23.3390119 0.050695825 6.13287905 0.0675944334 -7.43336398e-13 5.13717694 18.7393526 5.12027833"></polygon>
        <linearGradient x1="36.0719084%" y1="101.288192%" x2="65.7680939%" y2="13.5277803%" id="linearGradient-4">
            <stop stop-color="#4C416C" offset="0%"></stop>
            <stop stop-color="#4F7995" offset="100%"></stop>
        </linearGradient>
        <path d="M72.2781942,15.9573559 C65.9543441,12.4775944 67.8201022,3.11728628 67.8201022,3.11728628 C67.8201022,3.11728628 68.1592845,0.751312127 66.4555366,0.414184891 C64.7517888,0.0773956262 64.2403748,-0.429224652 64.4126065,2.61235586 C64.5850085,5.65410537 62.7369676,14.1045924 67.8504259,18.4950199 C71.5858603,21.7022068 76.8810903,21.0238966 80.6321976,26.0912823 C84.3669506,31.1361928 79.1998296,38.2297217 78.0645656,38.7669284 C74.488075,40.4589861 74.6587734,41.1347614 71.7630324,41.4745924 C68.867121,41.8144235 61.220954,40.9742247 56.9630324,42.4978032 C52.7049404,44.0213817 53.8780239,45.5415805 49.7911414,48.0789066 C45.7042589,50.6164016 38.8919932,54.0003479 35.9979557,57.2129423 C34.8686542,58.4666501 34.1040886,59.9256759 33.6608177,61.3497217 C30.9168654,62.1694732 24.8166951,62.9865209 20.0102215,65.6722167 C17.1940375,67.2459841 9.77836457,72.3089761 6.38892675,77.1720577 C3.3253833,81.5675547 1.7955707,86.8071372 0.946678024,91.3702684 C0.421124361,94.1952087 0.100170358,99.6510934 0.101532751,103.030815 C0.104599659,106.359503 0.588807496,109.012922 1.17926746,112.280775 C1.44215133,113.735678 1.68660828,116.263369 1.68660828,117.891451 C1.68660828,119.519533 1.17926746,119.915039 1.17926746,121.047752 C1.17926746,122.180464 1.53421795,122.532321 1.80730608,122.807913 C2.08039422,123.083506 1.80730608,121.954627 1.80730608,121.654303 C1.80730608,121.353979 2.21180331,120.558903 2.33526539,120.816221 C2.45872746,121.073539 2.31667709,120.836579 2.20716434,122.130731 C2.09765159,123.424883 3.17640678,125.867733 3.17640678,124.759587 C3.17640678,123.651441 3.17640678,122.130731 3.43362785,121.467824 C3.69084893,120.804917 3.70492756,121.312617 3.70492756,121.467824 C3.70492756,121.62303 3.63723781,121.991553 3.80351962,121.915786 C3.96980143,121.840018 4.26435064,121.538594 3.96980143,120.032762 C3.67525221,118.52693 3.50054576,118.52693 3.39670801,117.891451 C3.04238784,115.723039 3.04654098,114.633305 2.83458262,113.16829 C2.4923339,110.802654 2.31720613,103.367435 2.48603066,100.832475 C2.74412266,96.9542445 3.74616695,96.5045726 4.18637138,95.7618787 C4.88739353,94.5784692 5.58057922,102.915567 8.62487223,110.291809 C11.20477,116.542604 14.7618399,116.540408 16.1255537,117.891451 C17.4892675,119.242495 14.9378194,125.158698 15.9626917,129.382674 C16.8827939,133.175567 15.6258944,135.635328 15.9672913,136.649076 C16.3086882,137.662654 20.3979557,138.841636 23.4643952,138.841636 C26.5308348,138.839135 30.2781942,137.991839 30.2773424,136.63995 C30.2749574,133.091243 28.9126065,133.768032 28.5703578,131.571551 C28.2284497,129.374901 31.7560477,126.155547 32.1427598,123.457853 C32.8211244,118.725736 32.1391823,117.712326 31.1146508,114.164294 C31.0494037,113.938529 30.6006814,109.770994 30.6006814,109.770994 C30.6006814,109.770994 36.2231687,110.612376 39.9693356,108.075219 C46.1662692,103.87828 48.4800681,96.9167296 48.4800681,96.9167296 C48.4800681,96.9167296 51.025724,99.7200398 52.5712095,100.969861 C54.79046,102.764493 55.8057922,102.938042 57.0020443,103.332793 C58.5356048,103.838907 62.6044293,104.850119 62.6044293,104.850119 C62.6044293,104.850119 60.5821124,107.217276 59.3901193,108.062883 C58.5471891,108.660924 56.1345826,110.599871 56.646167,111.613449 C57.1579216,112.627028 58.8332198,115.373728 60.567632,116.511511 C63.6558773,118.537316 66.2115843,119.211571 67.0633731,119.042247 C67.9149915,118.872753 68.9131175,113.295537 70.1049404,112.280775 C71.2967632,111.266183 73.5298126,107.88494 73.3582624,106.195249 C73.1902896,104.539354 72.841908,98.0842545 68.5816014,95.7211531 C66.2684838,94.4382107 63.3879046,93.7107256 62.2741056,89.3035686 C61.2494037,85.2485785 54.7741056,82.5488569 54.7741056,82.5488569 C56.8262351,79.6368887 60.2654174,75.8492346 61.1810903,74.8533996 C62.1764906,75.3434592 63.0972743,75.6613221 64.1187394,75.6145129 C65.9734242,75.5298509 65.4068143,73.5013419 64.3405451,70.7164513 L64.6475298,71.2205368 C64.6475298,71.2205368 67.9507666,69.2254871 69.0741056,66.9931809 C70.2650767,64.6266998 73.328109,59.2171173 75.8829642,58.370497 C78.8315162,57.3935885 84.0577513,54.6477336 83.5459966,53.6341551 C82.8279387,52.2116302 78.2638842,52.11666 78.2638842,52.11666 C78.2638842,52.11666 84.0967632,49.9413022 84.3950596,49.408996 C86.7696763,45.1699801 90.1146508,37.2587276 88.1293015,28.2832008 C85.7374787,17.4697813 75.3456559,17.6451889 72.2781942,15.9573559 Z" id="path-5"></path>
        <path d="M6.3890971,16.2458151 C3.3253833,20.6413121 1.7955707,25.8807256 0.946678024,30.4440258 C0.421124361,33.2691352 0.100340716,38.7248509 0.102092317,42.1045726 C0.104599659,45.4330915 0.540715503,49.1440258 1.13100511,52.4120477 C1.98603066,57.1431511 3.01158433,62.5501988 3.69301533,62.3807058 C4.02333901,62.2984095 3.55655877,57.2322068 2.83458262,52.2420477 C2.49250426,49.8764115 2.31720613,42.4411928 2.48603066,39.9062326 C2.74412266,36.028002 3.74616695,35.578499 4.18637138,34.8356362 C4.88739353,33.6522266 5.58057922,41.9893241 8.62504259,49.3657356 C11.20477,55.6165308 14.7618399,55.614165 16.125724,56.9652087 C17.4892675,58.3162525 14.9376491,64.2324553 15.9625213,68.4564314 C16.8829642,72.2493241 15.6258944,74.7090855 15.9672913,75.722664 C16.3085179,76.7365805 20.3979557,77.9167793 23.4643952,77.914839 C26.5308348,77.9128926 30.2781942,77.0657654 30.2773424,75.7137078 C30.2749574,72.165 28.9126065,72.8417893 28.5705281,70.6453082 C28.2282794,68.4486581 31.7560477,65.2293042 32.1427598,62.5317793 C32.8211244,57.799493 32.1390119,56.7862525 31.1146508,53.2380517 C31.0494037,53.0122863 30.6008518,48.8447515 30.6008518,48.8447515 C30.6008518,48.8447515 36.2231687,49.6861332 39.9693356,47.1489761 C46.1660988,42.9520378 48.4800681,35.9904871 48.4800681,35.9904871 C48.4800681,35.9904871 51.025724,38.7937972 52.5712095,40.0436183 C54.79046,41.8382505 55.8056218,42.0117992 57.0020443,42.4065507 C58.5356048,42.912664 62.6044293,43.9238767 62.6044293,43.9238767 C62.6044293,43.9238767 60.5821124,46.2910338 59.3901193,47.1366402 C58.5471891,47.7346819 56.1345826,49.6734592 56.646167,50.6872068 C57.1579216,51.7006163 58.8330494,54.4473161 60.567632,55.5852684 C63.655707,57.6110736 66.2115843,58.285497 67.0633731,58.115835 C67.9148211,57.9465109 68.9131175,52.3692942 70.1049404,51.3545328 C71.2967632,50.3399404 73.5296422,46.9586978 73.3582624,45.269006 C73.1902896,43.6131113 72.841908,37.1580119 68.5816014,34.7947416 C66.2683135,33.5119682 63.3879046,32.7844831 62.2741056,28.377495 C61.2494037,24.322336 54.7741056,21.6226143 54.7741056,21.6226143 C57.1568995,18.2413718 61.4129472,13.6760437 61.4129472,13.6760437 L34.5729131,0.0897316103 C32.5752981,1.05819085 25.4597956,1.70084493 20.0102215,4.74597416 C17.1940375,6.31974155 9.77836457,11.3827336 6.3890971,16.2458151 Z" id="path-7"></path>
        <filter x="-21.5%" y="-15.9%" width="143.6%" height="132.4%" filterUnits="objectBoundingBox" id="filter-9">
            <feOffset dx="0" dy="0" in="SourceAlpha" result="shadowOffsetOuter1"></feOffset>
            <feGaussianBlur stdDeviation="3" in="shadowOffsetOuter1" result="shadowBlurOuter1"></feGaussianBlur>
            <feColorMatrix values="0 0 0 0 0   0 0 0 0 0   0 0 0 0 0  0 0 0 0.5 0" type="matrix" in="shadowBlurOuter1" result="shadowMatrixOuter1"></feColorMatrix>
            <feMerge>
                <feMergeNode in="shadowMatrixOuter1"></feMergeNode>
                <feMergeNode in="SourceGraphic"></feMergeNode>
            </feMerge>
        </filter>
        <path d="M34.8011925,18.4037674 C38.5364566,21.6109543 43.8316865,20.9328131 47.5827939,26.0000298 C51.3173765,31.0449404 46.1504259,38.1383002 45.0151618,38.6756759 C41.4386712,40.3677336 41.60954,41.0436779 38.7136286,41.38334 C37.7494037,41.4965606 36.2584327,41.4788171 34.5413969,41.4612425 C31.1015332,41.4257555 26.7536627,41.3904374 23.9136286,42.4065507 C19.655707,43.9302982 20.8287905,45.450328 16.7417376,47.9876541 C12.6548552,50.5249801 5.84258944,53.9090954 2.94855196,57.1216899 C0.0545144804,60.3342843 -0.453662692,64.8972465 0.740204429,66.7552485 C1.93373083,68.6134195 5.51260647,70.6388867 15.2231687,70.8017893 C24.9335605,70.9645229 27.3218058,75.6946123 31.0693356,75.5234294 C32.9238501,75.4385984 32.3577513,73.4104274 31.2914821,70.6257058 L31.5982964,71.1294533 C31.5982964,71.1294533 34.9011925,69.1344036 36.0247019,66.9019284 C37.2158433,64.5352783 40.2787053,59.1258648 42.8335605,58.2792445 C45.7821124,57.302336 51.0083475,54.5564811 50.4965928,53.5429026 C49.7783646,52.1203777 45.2144804,52.0254076 45.2144804,52.0254076 C45.2144804,52.0254076 51.0473595,49.8500497 51.3456559,49.3175746 C53.7202726,45.0787276 57.065247,37.1673062 55.0798978,28.1921173 C52.6879046,17.3785288 42.2962521,17.5539364 39.2287905,15.8661034 C32.90477,12.3863419 34.7706985,3.0260338 34.7706985,3.0260338 C34.7706985,3.0260338 35.1098807,0.660059642 33.4061329,0.322932406 C32.8097104,0.204980119 32.3592845,0.0662425447 32.0332198,0.0662425447 C31.4279387,0.0662425447 31.2512777,0.544135189 31.3632027,2.52127237 C31.5354344,5.56285288 29.6875639,14.01334 34.8011925,18.4037674 Z" id="path-10"></path>
        <linearGradient x1="60.1590852%" y1="-2.45069434%" x2="33.1849568%" y2="98.3818098%" id="linearGradient-12">
            <stop stop-color="#5190A5" offset="0%"></stop>
            <stop stop-color="#4E6586" offset="100%"></stop>
        </linearGradient>
        <linearGradient x1="78.6159881%" y1="38.0578869%" x2="3.47471518%" y2="94.0205972%" id="linearGradient-13">
            <stop stop-color="#EFE8CD" offset="0%"></stop>
            <stop stop-color="#D3CAAF" offset="100%"></stop>
        </linearGradient>
    </defs>
    <g id="Page-1" stroke="none" stroke-width="1" fill="none" fill-rule="evenodd">
        <g id="PachydermBrand-Copy-2" transform="translate(-583.000000, -3184.000000)">
            <g id="Group-18" transform="translate(435.480000, 3184.000000)">
                <g id="Group-5-Copy-8" transform="translate(147.520000, 0.000000)">
                    <g id="Group-Copy-11" transform="translate(0.000000, 31.093439)">
                        <g id="Group-30" transform="translate(45.655877, 116.600398)">
                            <polygon id="Fill-3" fill="#D06868" points="23.3390119 9.23705556e-14 18.7393526 5.12027833 18.7393526 21.5119284 23.3390119 16.4423459"></polygon>
                            <g id="Fill-8">
                                <use fill="url(#linearGradient-1)" xlink:href="#path-3"></use>
                                <use fill="url(#radialGradient-2)" xlink:href="#path-3"></use>
                            </g>
                            <polygon id="Fill-5" fill="#A5597E" points="18.7393526 5.0695825 -8.71463605e-13 5.08648111 -8.71463605e-13 21.528827 18.7393526 21.5119284"></polygon>
                        </g>
                        <path d="M70.6846848,56.1775239 C70.6831516,55.2969034 69.9908177,51.5997545 73.6475468,51.5030675 C76.5700341,51.4256784 82.6656048,52.4541848 87.8937138,51.116516 C93.4528279,49.6941721 99.1572572,44.396468 99.8439693,45.0112482 C100.530852,45.6262254 93.8483986,53.7761002 85.3884327,56.0542528 C80.4386882,57.3869986 73.8139864,56.8480321 70.6846848,56.1775239 C69.4652641,55.9162128 71.2955877,56.9687433 66.8753152,56.1865821" id="Tusk-2" fill="#C1BBA7"></path>
                        <g id="Group-71">
                            <g id="Group-20" transform="translate(24.531516, 88.808946)">
                                <path d="M1.99574106,44.4537157 C1.99574106,44.4537157 5.4032368,44.9584771 7.95860307,44.9569597 C10.5139693,44.9552664 12.3873935,44.1091531 13.0686542,43.770674 C13.7497445,43.4323638 14.0889267,41.0663897 12.3846678,39.884501 C11.267632,39.1098688 12.0730835,31.7991928 10.3333901,29.0707435 C8.28705281,25.8611909 11.8584327,16.2267873 11.8584327,16.2267873 L0.108006814,22.993666 C0.108006814,22.993666 2.67189097,36.3418767 2.84310051,37.5247793 C3.01413969,38.7075129 1.31396934,43.9470954 1.99574106,44.4537157" id="Fill-1" fill="#4B2357"></path>
                                <path d="M31.1232538,0.0781053678 C31.1232538,0.0781053678 30.0672061,4.96231014 32.1854344,10.3894672 C34.3036627,15.8164553 39.1169506,17.5617435 39.2491482,20.1156302 C39.3079216,21.2517237 38.7021295,22.4775487 38.3368825,24.3838807 C37.8811755,26.7628668 39.4791312,29.0823698 38.4598807,31.0400736 C37.5687394,32.7520716 25.8660136,32.2429165 27.2896934,29.4756004 C28.7133731,26.7084533 29.1106474,22.8569225 29.1658433,22.183175 C29.2212095,21.5094274 21.977598,13.9728171 22.5346678,9.27061034 C23.0917376,4.56823459 19.95477,3.28444732 19.95477,3.28444732 L31.1232538,0.0781053678 Z" id="Fill-16" fill="#4B2A5C"></path>
                            </g>
                            <mask id="mask-6" fill="white">
                                <use xlink:href="#path-5"></use>
                            </mask>
                            <use id="Fill-52" fill="url(#linearGradient-4)" xlink:href="#path-5"></use>
                            <g id="Group-36" mask="url(#mask-6)">
                                <g transform="translate(0.000000, 60.926243)">
                                    <mask id="mask-8" fill="white">
                                        <use xlink:href="#path-7"></use>
                                    </mask>
                                    <g id="Clip-34" stroke="none" fill="none"></g>
                                    <path d="M1.17926746,37.9343002 C1.17926746,37.9343002 2.71248722,21.8806223 10.378586,20.8667058 C18.0371891,19.8538032 19.261587,19.9041737 22.5900367,22.7931598 C26.6786228,26.3418675 25.1247814,27.9608091 26.0256843,27.9608091 C26.9265872,27.9608091 31.5243271,25.0236441 30.6593015,19.6160894 C29.8228096,14.3869077 35.5269676,8.89657654 47.6547359,9.38967793 C59.7823339,9.88261034 33.717598,5.82694433 33.717598,5.82694433 L8.67500852,15.6281372 C8.67500852,15.6281372 1.69034072,24.7533857 1.51998296,31.6818151 L1.17926746,37.9343002 Z" id="Fill-21" stroke="none" fill="#4F6486" fill-rule="evenodd" mask="url(#mask-8)"></path>
                                    <path d="M43.1121806,50.1041879 C43.1121806,50.1041879 30.7747019,50.0283131 30.8564736,48.4364642 C30.9382453,46.8446153 31.5164395,44.5822296 31.0181431,42.404506 C30.9183135,41.9676769 36.6241056,43.2588996 39.95954,40.5556292 C46.5803237,35.1898141 40.4498296,30.334506 40.4498296,30.334506 C40.4498296,30.334506 48.0310903,34.3732734 48.5682283,36.3613946 C49.5334753,39.9329155 43.1121806,50.1041879 43.1121806,50.1041879" id="Fill-27" stroke="none" fill="#4C3D6A" fill-rule="evenodd" mask="url(#mask-8)"></path>
                                    <path d="M1.04592845,52.3276561 C1.04592845,52.3276561 1.28868825,43.1128449 1.37778535,38.6396143 C1.54286201,30.3591272 2.81713799,24.8944553 5.79550256,20.5552306 C8.34848382,16.8360159 18.2585349,20.0607773 21.9760818,15.1373678 C29.635707,4.99347117 41.5629642,8.70356064 41.5629642,8.70356064 L63.3718228,13.4214831 C63.3718228,13.4214831 58.0960136,22.9462147 55.3530835,21.7116024 C53.4786371,20.8678549 49.2202044,18.6698529 49.2202044,18.6698529 C49.2202044,18.6698529 50.3029983,20.8629543 52.6447359,21.8775467 C58.0977172,24.2399722 59.9730153,26.2664533 61.1677342,29.645499 C61.6670528,31.0580537 63.6445656,33.6592565 65.0336627,34.2442863 C66.4018174,34.8204983 67.5434223,35.5464086 68.4750251,36.3360776 C68.6686815,36.5002296 67.9559654,37.3442116 68.1316213,37.5131019 C68.289121,37.6645352 69.6555102,36.8931693 69.7987649,37.0472349 C69.955192,37.2154671 68.9237223,38.4696315 69.0634316,38.6396143 C69.202546,38.8088732 70.5407155,38.0234459 70.6635301,38.1930068 C70.8379103,38.4337605 69.3378055,39.297411 69.4799972,39.5352839 C69.5816205,39.7052898 70.9867439,39.3685428 71.072271,39.5352839 C71.430044,40.2327872 71.6482454,40.895186 71.7374106,41.4677654 C72.0794889,43.6644155 73.2730153,45.1844453 70.0403066,51.4391272 C67.6725043,56.020002 80.0869847,44.6732624 80.0869847,44.6732624 L49.8975468,-11.580008 L-4.42936968,15.3232525 L-0.316763203,52.4974871 L1.04592845,52.3276561 Z" id="Fill-24" stroke="none" fill="#4F728F" fill-rule="evenodd" mask="url(#mask-8)"></path>
                                    <path d="M67.1272232,25.0790557 C67.1272232,25.0790557 61.2398296,9.45156064 61.3239864,7.84619284 C61.4081431,6.24065606 45.3113799,9.54619284 45.3113799,9.54619284 C45.3113799,9.54619284 51.363339,11.5429324 55.5350596,12.9193241 C61.6693015,14.9434394 52.9846337,20.5253877 52.9846337,20.5253877 L64.2314821,25.5878728 L67.1272232,25.0790557 Z" id="Fill-30" stroke="none" fill="#4C416D" fill-rule="evenodd" mask="url(#mask-8)"></path>
                                    <path d="M12.9857411,75.3021759 C12.9857411,75.3021759 3.33855196,41.0885775 3.42270869,39.4832097 C3.50686542,37.8778419 2.9141908,26.5383688 4.77994889,30.6950885 C5.46223169,32.2154563 9.05201022,51.1397008 16.5482624,51.9798996 C20.9496252,52.47317 18.152862,63.790675 18.7721124,66.1733787 C20.3090801,72.0868777 16.7353152,78.0035875 16.7353152,78.0035875 L12.9857411,75.3021759 Z" id="Fill-33" stroke="none" fill="#4C3D6A" fill-rule="evenodd" mask="url(#mask-8)"></path>
                                    <path d="M1.17926746,27.9608091 C2.21997445,21.8806223 9.53770496,12.6398768 16.7642675,8.57311699 C23.99083,4.50635717 27.1421156,2.70625932 36.012697,2.70625932 C44.8832783,2.70625932 29.2572801,-2.66300944 29.2572801,-2.66300944 L2.21997445,8.57311699 C2.21997445,8.57311699 -2.68912372,9.56863586 -2.85948147,16.4970653 L1.17926746,27.9608091 Z" id="Fill-21-Copy" stroke="none" fill="#5191A6" fill-rule="evenodd" mask="url(#mask-8)"></path>
                                </g>
                            </g>
                            <g id="Head" filter="url(#filter-9)" mask="url(#mask-6)">
                                <g transform="translate(33.049404, 0.091252)">
                                    <mask id="mask-11" fill="white">
                                        <use xlink:href="#path-10"></use>
                                    </mask>
                                    <g id="Clip-49" stroke="none" fill="none"></g>
                                    <path d="M34.8011925,18.4037674 C38.5364566,21.6109543 43.8316865,20.9328131 47.5827939,26.0000298 C51.3173765,31.0449404 46.1504259,38.1383002 45.0151618,38.6756759 C41.4386712,40.3677336 41.60954,41.0436779 38.7136286,41.38334 C37.7494037,41.4965606 36.2584327,41.4788171 34.5413969,41.4612425 C31.1015332,41.4257555 26.7536627,41.3904374 23.9136286,42.4065507 C19.655707,43.9302982 20.8287905,45.450328 16.7417376,47.9876541 C12.6548552,50.5249801 5.84258944,53.9090954 2.94855196,57.1216899 C0.0545144804,60.3342843 -0.453662692,64.8972465 0.740204429,66.7552485 C1.93373083,68.6134195 5.51260647,70.6388867 15.2231687,70.8017893 C24.9335605,70.9645229 27.3218058,75.6946123 31.0693356,75.5234294 C32.9238501,75.4385984 32.3577513,73.4104274 31.2914821,70.6257058 L31.5982964,71.1294533 C31.5982964,71.1294533 34.9011925,69.1344036 36.0247019,66.9019284 C37.2158433,64.5352783 40.2787053,59.1258648 42.8335605,58.2792445 C45.7821124,57.302336 51.0083475,54.5564811 50.4965928,53.5429026 C49.7783646,52.1203777 45.2144804,52.0254076 45.2144804,52.0254076 C45.2144804,52.0254076 51.0473595,49.8500497 51.3456559,49.3175746 C53.7202726,45.0787276 57.065247,37.1673062 55.0798978,28.1921173 C52.6879046,17.3785288 42.2962521,17.5539364 39.2287905,15.8661034 C32.90477,12.3863419 34.7706985,3.0260338 34.7706985,3.0260338 C34.7706985,3.0260338 35.1098807,0.660059642 33.4061329,0.322932406 C32.8097104,0.204980119 32.3592845,0.0662425447 32.0332198,0.0662425447 C31.4279387,0.0662425447 31.2512777,0.544135189 31.3632027,2.52127237 C31.5354344,5.56285288 29.6875639,14.01334 34.8011925,18.4037674 Z" id="Fill-39" stroke="none" fill="url(#linearGradient-12)" fill-rule="evenodd" mask="url(#mask-11)"></path>
                                    <path d="M31.5981431,71.129335 C31.5981431,71.129335 34.9012095,69.1342853 36.0247189,66.9019791 C37.2156899,64.535329 40.2787223,59.1259155 42.8335775,58.2792952 C45.7821295,57.3023867 51.0083646,54.5565318 50.4966099,53.5429533 C49.7783816,52.1204284 45.2144974,52.0252893 45.2144974,52.0252893 C45.2144974,52.0252893 51.0473765,49.8501004 51.3456729,49.3176252 C53.7202896,45.0787783 56.9763373,41.3046431 53.8051278,32.6709751 C51.7572572,27.0957863 40.6794037,20.0052992 37.6119421,18.3174662 C31.288092,14.8377048 32.662879,4.97060736 32.662879,4.97060736 C32.662879,4.97060736 32.6611755,2.09784394 30.9574276,1.76088569 C29.2535094,1.42409642 29.9349404,1.42358946 30.1073424,4.46533897 C30.2795741,7.50691948 29.6875809,14.0132217 34.8010392,18.4036491 C38.5364736,21.610836 44.0887734,23.382993 47.8398807,28.4500408 C51.5746337,33.4951203 57.0460136,38.9214324 51.9388586,44.67017 C49.3190971,47.6191461 39.8487394,52.9580924 36.7831516,54.1430229 C34.0661158,55.1931024 29.2884327,55.8376153 28.2662862,55.6693052 C23.8008688,54.9338777 20.7673083,50.6044543 18.3831516,52.1268499 C14.3291482,54.7155477 23.6683305,58.3759553 20.774293,61.5885497 C17.8802555,64.8009751 6.99115843,64.3021282 6.80802385,66.4979334 C6.63902896,68.5259354 7.32131175,69.708331 17.0317036,69.8712336 C26.7422658,70.0341362 27.3216525,75.694663 31.0693526,75.5233111 C34.8172232,75.3519592 28.679063,67.2445139 28.5047871,60.9921978 C28.3303407,54.7397127 21.004276,53.7305278 21.004276,53.7305278" id="Fill-42" stroke="none" fill="#4E567C" fill-rule="evenodd" mask="url(#mask-11)"></path>
                                    <path d="M19.7432879,47.901336 C22.4667973,44.3507694 23.4887734,44.0121213 26.2141567,43.5036421 C28.053512,43.1602426 33.3122796,43.3802706 37.6856057,42.969452 C37.9627736,42.9434156 38.2848101,43.9614722 38.6577172,43.9614722 C39.0306243,43.9614722 38.6079908,42.0128398 39.0196194,41.9361179 C39.431248,41.859396 40.2741969,44.077155 40.6574715,43.9614722 C41.0407461,43.8457893 40.147094,41.8375118 40.6574715,41.6896078 C41.167849,41.5417037 42.1924187,43.5517964 42.4864579,43.39659 C42.7804971,43.2413835 41.9086723,41.6896078 42.1960262,41.300519 C42.4833801,40.9114301 42.7327143,41.8851027 42.7804971,41.859396 C47.503022,39.3187195 49.3810848,35.4888809 49.546184,32.673662 C49.7146678,29.8008986 46.3049574,25.7472604 46.3049574,25.7472604 L20.9131346,12.4134135 C20.9131346,12.4134135 21.4979727,2.52806561 31.6383475,1.08458648 C35.2155196,0.575431412 31.2642419,6.65250895 35.3943952,13.925163 C37.5296495,17.6849256 42.7244207,16.9970574 47.6996713,20.2572134 C48.0443795,20.483092 48.5866878,19.8750144 48.8092842,20.0440005 C49.0318805,20.2129865 48.2540826,20.7882241 49.1243795,21.4866531 C49.9946763,22.1850822 50.3689144,21.0186409 50.6934093,21.3346647 C51.0179042,21.6506884 49.8103571,22.2609526 50.6934093,23.0091781 C51.5764615,23.7574036 52.0332297,22.7567717 52.3320629,23.1305544 C52.630896,23.5043371 51.7199645,23.9536602 52.1116433,24.3917615 C53.3429455,25.7690001 53.3846249,26.2531481 53.9729302,28.6152922 C55.8187564,36.0263459 55.0683305,34.4368628 57.5560647,37.4002028 C62.2657751,43.0103718 35.5887734,51.1019324 35.5887734,51.1019324 L67.1017206,46.1813956 L65.1800852,39.4567634 L21.7305111,-41.1556819 L-2.39010221,68.1936918 C-2.39010221,68.1936918 2.20342419,58.5584433 8.16339012,54.6680457 C15.3637308,49.9680358 17.0199489,51.4517336 19.7432879,47.901336 Z" id="Fill-45" stroke="none" fill="#5DA7B5" fill-rule="evenodd" mask="url(#mask-11)"></path>
                                    <path d="M33.5578535,72.0575249 L31.1016354,70.3979125 C31.1016354,70.3979125 29.472845,64.0815507 28.6110051,62.0905567 C27.5874957,59.7252584 27.5127087,58.5516501 24.5198637,57.8684394 C15.6598978,55.8461829 20.9392845,53.3080119 20.9392845,53.3080119 C20.9392845,53.3080119 26.7324702,54.825338 28.0978876,58.880159 C28.6719932,60.5848907 29.1241227,65.1319682 31.6794889,65.1302783 C34.2348552,65.1287575 35.0840886,61.2415706 37.2978876,59.888161 C39.5116865,58.5349205 41.0438842,56.8440457 43.0878365,56.5047217 C45.1319591,56.1655666 50.5834072,56.1621869 50.5834072,56.1621869 L33.5578535,72.0575249 Z" id="Fill-48" stroke="none" fill="#4C416D" fill-rule="evenodd" mask="url(#mask-11)"></path>
                                    <path d="M30.6471891,49.4152485 C33.2017036,48.06167 33.7132879,48.9064314 35.2458262,47.891501 C36.7785349,46.8765706 29.6223169,45.1912724 27.2381601,46.5446819 C25.8749574,47.3184692 25.2943782,52.190169 26.7313458,52.9664911 C30.4804089,54.9919583 28.5381601,50.5327535 30.6471891,49.4152485 Z" id="Fill-63" stroke="none" fill="#4E567C" fill-rule="evenodd" mask="url(#mask-11)"></path>
                                </g>
                            </g>
                        </g>
                        <path d="M31.1233962,108.904682 C32.2567488,104.020808 32.6569487,103.340047 29.5764514,99.7417788 C27.5227865,97.3429329 26.383519,95.557257 26.158649,94.3847511 C26.0700059,95.9913841 27.060848,97.9518041 29.1311755,100.266011 C32.2366666,103.737322 29.3374676,109.797773 30.6987496,113.811385 C31.6062709,116.487126 32.1686678,118.451287 32.3859402,119.703867 C32.1117707,117.327555 31.7826177,115.285392 31.3984812,113.577379 C31.2082392,112.731492 30.6668907,110.871868 31.1233962,108.904682 Z" id="Path-15" fill="#4F6486"></path>
                        <path d="M71.707121,55.2469414 C71.707121,55.2469414 76.2749233,55.1144563 77.6693015,54.7362654 C79.5428961,54.2281243 82.2686201,54.0572793 82.2677685,52.8743767 L79.328586,52.0167724 L74.6943441,53.6231541 L74.5282453,54.0711362 L71.707121,55.2469414 Z" id="Fill-55" fill="#4B2A5C"></path>
                        <path d="M88.1178876,42.3092147 C83.9545145,45.6492247 78.1015332,47.5553877 75.5156729,48.9076143 L75.5156729,48.9076143 C72.2800681,50.599503 74.3258944,53.1331113 74.667121,53.8087177 L74.667121,53.8087177 C77.7265758,52.9394533 83.8642249,50.4230815 87.7804089,47.2099801 L87.7804089,47.2099801 C94.4737649,41.7179324 97.3109029,32.5022763 96.4589438,32.3336282 L96.4589438,32.3336282 C96.4482112,32.3316004 96.4373083,32.3305865 96.4258944,32.3305865 L96.4258944,32.3305865 C95.5296422,32.3312624 92.4889267,38.8025845 88.1178876,42.3092147" id="Tusk" fill="url(#linearGradient-13)"></path>
                        <path d="M74.6670017,53.8087515 C73.408569,51.8660875 73.7487734,51.0209881 73.7487734,51.0209881 C73.7487734,51.0209881 75.1123169,52.2030457 77.4968143,51.3565944 C80.2491141,50.3796859 83.8918739,48.9444871 88.055247,45.6044771 C92.4823339,42.0528966 95.5448552,36.1365249 95.5448552,36.1365249 C95.5448552,36.1365249 94.473816,41.7179662 87.7802896,47.2100139 C83.8641056,50.4231153 77.7264566,52.9394871 74.6670017,53.8087515" id="Fill-61" fill="#D3CBAF"></path>
                        <g id="Eye" transform="translate(61.988790, 46.887656)">
                            <path d="M0,1.133897 C-0.000340545074,0.507972547 0.510221636,0.000338351928 1.14071567,0 C1.77103935,-0.00050657849 2.28228296,0.506620658 2.28262406,1.13237613 C2.28313475,1.75830058 1.77240221,2.26593477 1.14207853,2.2664419 C0.511754855,2.2667797 0.000340885932,1.75982145 0,1.133897" id="Fill-66" fill="#020408"></path>
                            <path d="M1.70652501,0.591046105 C1.70669523,0.777606742 1.55422504,0.929018272 1.36597973,0.9291874 C1.17790477,0.929356245 1.02526422,0.7781137 1.02509372,0.591384078 C1.02492351,0.404823441 1.1773937,0.253411911 1.36563901,0.253242783 C1.55371397,0.253073938 1.70635451,0.404485469 1.70652501,0.591046105" id="Fill-68" fill="#D5B8D8"></path>
                        </g>
                    </g>
                    <polygon id="Fill-14" fill="#FE9B7C" points="66.4389097 0.0336789264 78.4039864 11.0873966 77.7734923 17.4324861 65.0952981 5.72006064"></polygon>
                    <polygon id="Fill-10" fill="#D06868" points="66.4705622 4.26325641e-14 65.0952641 5.72000994 53.8330835 17.7153181 55.1768654 12.0289364"></polygon>
                    <polygon id="Fill-12" fill="#A5597E" points="65.1269165 5.68629722 77.8051107 17.3988917 66.511414 29.427828 53.8330494 17.7152336"></polygon>
                </g>
            </g>
        </g>
    </g>
</svg>