<svg  viewBox="0 0 21 31" width="21px" height="31px" xmlns="http://www.w3.org/2000/svg">
  <path d="M.85.001C.365.055-.003.491 0 1.008v28.19c0 .556.425 1.007.95 1.007h18.98c.524 0 .949-.45.949-1.007V6.608a1.04 1.04 0 00-.277-.713l-5.299-5.6a.923.923 0 00-.662-.294H.949a.895.895 0 00-.099 0zm1.048 2.014h11.705v4.698c0 .556.425 1.007.949 1.007h4.429v20.472H1.898V2.015zm13.603 1.332l2.234 2.36h-2.234v-2.36zM4.646 12.083a.949.949 0 00-.797.549c-.154.32-.135.704.05 1.007a.935.935 0 00.846.457h6.327a.94.94 0 00.833-.499 1.06 1.06 0 000-1.015.94.94 0 00-.833-.5H4.745a.895.895 0 00-.099 0zm0 4.698a.949.949 0 00-.797.549c-.154.32-.135.705.05 1.007a.935.935 0 00.846.458h11.389a.94.94 0 00.833-.5 1.06 1.06 0 000-1.015.94.94 0 00-.833-.499H4.745a.895.895 0 00-.099 0zm0 4.699a.949.949 0 00-.797.548c-.154.321-.135.705.05 1.007a.935.935 0 00.846.458h11.389a.94.94 0 00.833-.5 1.06 1.06 0 000-1.014.94.94 0 00-.833-.5H4.745a.895.895 0 00-.099 0z" fill="#582F6B" fill-rule="nonzero"/>
</svg>
