<?xml version="1.0" encoding="UTF-8"?>
<svg width="150px" height="126px" viewBox="0 0 150 126" version="1.1" xmlns="http://www.w3.org/2000/svg" xmlns:xlink="http://www.w3.org/1999/xlink">
    <title>repo</title>
    <g id="Wireframes" stroke="none" stroke-width="1" fill="none" fill-rule="evenodd">
        <g id="Default-Dag" transform="translate(-258.000000, -84.000000)">
            <g id="Group-4" transform="translate(257.000000, 84.000000)">
                <g id="repo" transform="translate(1.800000, 0.000000)">
                    <g id="noun_Data_91714" transform="translate(56.700000, 0.000000)" fill="#5BA3B1" fill-rule="nonzero">
                        <g id="Group">
                            <path d="M38.631168,18.3078144 C38.6871552,18.3078144 38.7991296,18.2518272 38.8551168,18.2518272 L38.8551168,5.4307584 C38.8551168,0.0559872 20.3793408,0 19.59552,0 C18.8116992,0 0.3359232,0.0559872 0.3359232,5.4307584 L0.3359232,18.19584 C0.4478976,18.19584 0.5038848,18.2518272 0.559872,18.3078144 C1.39968,18.5877504 20.0994048,24.8583168 38.631168,18.3078144 Z M2.8553472,5.2627968 C2.9673216,5.1508224 3.1352832,5.038848 3.359232,4.9268736 C3.5271936,4.8148992 3.6951552,4.758912 3.919104,4.6469376 C4.0870656,4.5349632 4.3110144,4.478976 4.5909504,4.3670016 C6.158592,3.8071296 10.8055296,2.4074496 19.59552,2.4074496 C28.0495872,2.4074496 32.6405376,3.6951552 34.2641664,4.19904 C35.9437824,4.758912 36.4476672,5.2627968 36.4476672,5.3747712 C36.4476672,5.3747712 36.39168,5.4307584 36.2797056,5.5427328 C36.2237184,5.59872 36.111744,5.6547072 36.0557568,5.7106944 L35.9997696,5.7666816 C35.8877952,5.8226688 35.7758208,5.878656 35.6078592,5.9906304 L35.4958848,6.0466176 C35.3839104,6.1026048 35.2159488,6.158592 35.0479872,6.2145792 L34.8800256,6.2705664 C34.712064,6.3265536 34.5441024,6.3825408 34.3201536,6.4945152 L34.152192,6.5505024 C33.9282432,6.6064896 33.7602816,6.6624768 33.5363328,6.7744512 L33.2563968,6.8304384 C33.032448,6.8864256 32.8084992,6.9424128 32.5285632,6.9984 L32.19264,7.0543872 C31.912704,7.1103744 31.632768,7.1663616 31.352832,7.2223488 C31.1848704,7.278336 30.9609216,7.278336 30.7369728,7.3343232 L30.1771008,7.4462976 C30.0091392,7.5022848 29.7851904,7.5022848 29.6172288,7.558272 L29.5052544,7.558272 C29.2813056,7.6142592 29.113344,7.6142592 28.8893952,7.6702464 C28.6654464,7.7262336 28.4414976,7.7262336 28.1615616,7.7822208 C27.9376128,7.838208 27.6576768,7.838208 27.433728,7.8941952 C27.2097792,7.8941952 26.9298432,7.9501824 26.7058944,7.9501824 C26.4259584,8.0061696 26.1460224,8.0061696 25.8660864,8.0061696 C25.6421376,8.0061696 25.3622016,8.0621568 25.1382528,8.0621568 C24.8023296,8.0621568 24.4664064,8.118144 24.1304832,8.118144 L23.4026496,8.1741312 C23.0107392,8.1741312 22.6188288,8.2301184 22.2269184,8.2301184 L21.6110592,8.2301184 C20.9952,8.2301184 20.3233536,8.2301184 19.6515072,8.2301184 C18.9796608,8.2301184 18.3638016,8.2301184 17.7479424,8.2301184 L17.1320832,8.2301184 C16.7401728,8.2301184 16.3482624,8.2301184 15.956352,8.1741312 L15.2285184,8.118144 C14.8925952,8.118144 14.556672,8.0621568 14.2207488,8.0621568 C13.9968,8.0621568 13.716864,8.0061696 13.4929152,8.0061696 C13.2129792,8.0061696 12.9330432,7.9501824 12.6531072,7.9501824 C12.4291584,7.9501824 12.1492224,7.8941952 11.9252736,7.8941952 C11.6453376,7.838208 11.4213888,7.838208 11.19744,7.7822208 C10.9734912,7.7262336 10.6935552,7.7262336 10.4696064,7.6702464 C10.2456576,7.6142592 10.077696,7.6142592 9.8537472,7.558272 L9.517824,7.6702464 C9.3498624,7.6702464 9.1819008,7.6142592 9.0139392,7.6142592 L8.4540672,7.5022848 C8.2301184,7.4462976 8.0061696,7.4462976 7.838208,7.3903104 C7.558272,7.3343232 7.278336,7.278336 6.9984,7.2223488 L6.6624768,7.1663616 C6.3825408,7.1103744 6.158592,7.0543872 5.9346432,6.9984 L5.6547072,6.8864256 C5.4307584,6.8304384 5.2068096,6.7744512 5.038848,6.6624768 L4.8148992,6.6064896 C4.6469376,6.5505024 4.478976,6.4945152 4.3110144,6.438528 L4.1430528,6.3825408 C3.9750912,6.3265536 3.8631168,6.2705664 3.6951552,6.158592 L3.639168,6.1026048 C3.5271936,6.0466176 3.359232,5.9906304 3.2472576,5.878656 C3.2472576,5.878656 3.1912704,5.8226688 3.1912704,5.8226688 C3.079296,5.7666816 3.0233088,5.7106944 2.9113344,5.59872 C2.8553472,5.5427328 2.79936,5.4867456 2.79936,5.4867456 C2.6873856,5.4307584 2.7433728,5.3747712 2.8553472,5.2627968 Z" id="Shape"></path>
                            <path d="M38.7431424,32.4165888 C38.7991296,32.4165888 38.8551168,32.4165888 38.911104,32.3606016 L38.911104,20.7712512 C32.5285632,22.8987648 26.0900352,23.6825856 20.3233536,23.6825856 C10.8055296,23.6825856 3.079296,21.6670464 0.3919104,20.7712512 L0.3919104,32.5285632 C3.8631168,33.7042944 21.6670464,39.0230784 38.7431424,32.4165888 Z" id="Path"></path>
                            <path d="M0.3359232,34.992 L0.3359232,44.9577216 C0.3359232,50.3324928 18.8116992,50.38848 19.59552,50.38848 C20.3793408,50.38848 38.8551168,50.3324928 38.8551168,44.9577216 L38.8551168,34.9360128 C32.4165888,37.2874752 26.034048,38.1272832 20.2673664,38.1272832 C11.1414528,38.1272832 3.639168,36.111744 0.3359232,34.992 Z" id="Path"></path>
                        </g>
                    </g>
                </g>
            </g>
        </g>
    </g>
</svg>
