<svg version="1.1" viewBox="0.0 150.0 1024.0 300.0" fill="none" stroke="none" stroke-linecap="square" stroke-miterlimit="10" xmlns:xlink="http://www.w3.org/1999/xlink" xmlns="http://www.w3.org/2000/svg"><clipPath id="p.0"><path d="m0 0l1024.0 0l0 768.0l-1024.0 0l0 -768.0z" clip-rule="nonzero"/></clipPath><g clip-path="url(#p.0)"><path fill="#000000" fill-opacity="0.0" d="m0 0l1024.0 0l0 768.0l-1024.0 0z" fill-rule="evenodd"/><path fill="#000000" fill-opacity="0.0" d="m657.55646 194.33371l0 0c0 -10.448685 8.470276 -18.919006 18.919006 -18.919006l234.19342 0c5.017639 0 9.829773 1.9932404 13.377808 5.5412445c3.5479736 3.5480042 5.54126 8.360123 5.54126 13.377762l0 75.6738c0 10.448669 -8.470337 18.919006 -18.919067 18.919006l-234.19342 0c-10.44873 0 -18.919006 -8.470337 -18.919006 -18.919006z" fill-rule="evenodd"/><path stroke="#000000" stroke-width="1.0" stroke-linejoin="round" stroke-linecap="butt" d="m657.55646 194.33371l0 0c0 -10.448685 8.470276 -18.919006 18.919006 -18.919006l234.19342 0c5.017639 0 9.829773 1.9932404 13.377808 5.5412445c3.5479736 3.5480042 5.54126 8.360123 5.54126 13.377762l0 75.6738c0 10.448669 -8.470337 18.919006 -18.919067 18.919006l-234.19342 0c-10.44873 0 -18.919006 -8.470337 -18.919006 -18.919006z" fill-rule="evenodd"/><path fill="#000000" fill-opacity="0.0" d="m41.934383 319.05295l0 0c0 -12.539001 10.164867 -22.703857 22.703869 -22.703857l842.2458 0c6.0214844 0 11.796265 2.3919983 16.054077 6.649811c4.2578125 4.257782 6.6498413 10.032593 6.6498413 16.054047l0 90.812744c0 12.539001 -10.164917 22.703857 -22.703918 22.703857l-842.2458 0c-12.539001 0 -22.703869 -10.164856 -22.703869 -22.703857z" fill-rule="evenodd"/><path stroke="#000000" stroke-width="1.0" stroke-linejoin="round" stroke-linecap="butt" d="m41.934383 319.05295l0 0c0 -12.539001 10.164867 -22.703857 22.703869 -22.703857l842.2458 0c6.0214844 0 11.796265 2.3919983 16.054077 6.649811c4.2578125 4.257782 6.6498413 10.032593 6.6498413 16.054047l0 90.812744c0 12.539001 -10.164917 22.703857 -22.703918 22.703857l-842.2458 0c-12.539001 0 -22.703869 -10.164856 -22.703869 -22.703857z" fill-rule="evenodd"/><path fill="#d5a6bd" d="m822.74146 324.69553l98.17322 0l0 53.165375l-98.17322 0z" fill-rule="evenodd"/><path stroke="#000000" stroke-width="1.0" stroke-linejoin="round" stroke-linecap="butt" d="m822.74146 324.69553l98.17322 0l0 53.165375l-98.17322 0z" fill-rule="evenodd"/><path fill="#000000" d="m845.3076 345.9351q2.140625 0 3.359375 1.03125q1.21875 1.015625 1.21875 2.8125q0 1.796875 -1.21875 2.8125q-1.21875 1.015625 -3.359375 1.015625l-3.0 0l0 3.53125l-1.1875 0l0 -11.203125l4.1875 0zm-0.03125 6.625q1.65625 0 2.53125 -0.71875q0.890625 -0.734375 0.890625 -2.0625q0 -1.359375 -0.890625 -2.078125q-0.875 -0.734375 -2.53125 -0.734375l-2.96875 0l0 5.59375l2.96875 0zm6.713806 -3.84375l1.140625 0l0 8.421875l-1.140625 0l0 -8.421875zm0.578125 -1.828125q-0.359375 0 -0.59375 -0.234375q-0.234375 -0.25 -0.234375 -0.59375q0 -0.3125 0.234375 -0.546875q0.234375 -0.25 0.59375 -0.25q0.34375 0 0.578125 0.234375q0.25 0.234375 0.25 0.546875q0 0.359375 -0.25 0.609375q-0.234375 0.234375 -0.578125 0.234375zm8.069641 1.765625q1.1875 0 2.140625 0.546875q0.96875 0.53125 1.5 1.515625q0.546875 0.96875 0.546875 2.21875q0 1.265625 -0.546875 2.25q-0.53125 0.96875 -1.484375 1.5q-0.953125 0.53125 -2.15625 0.53125q-1.03125 0 -1.859375 -0.421875q-0.8125 -0.421875 -1.34375 -1.234375l0 4.6875l-1.140625 0l0 -11.53125l1.09375 0l0 1.671875q0.515625 -0.828125 1.34375 -1.28125q0.84375 -0.453125 1.90625 -0.453125zm-0.078125 7.5625q0.875 0 1.59375 -0.40625q0.71875 -0.421875 1.125 -1.171875q0.40625 -0.75 0.40625 -1.703125q0 -0.96875 -0.40625 -1.703125q-0.40625 -0.75 -1.125 -1.15625q-0.71875 -0.421875 -1.59375 -0.421875q-0.90625 0 -1.625 0.421875q-0.703125 0.40625 -1.109375 1.15625q-0.40625 0.734375 -0.40625 1.703125q0 0.953125 0.40625 1.703125q0.40625 0.75 1.109375 1.171875q0.71875 0.40625 1.625 0.40625zm13.910522 -2.9375l-7.03125 0q0.09375 1.3125 1.0 2.125q0.921875 0.8125 2.3125 0.8125q0.78125 0 1.4375 -0.28125q0.65625 -0.28125 1.140625 -0.828125l0.640625 0.734375q-0.5625 0.671875 -1.40625 1.03125q-0.84375 0.34375 -1.84375 0.34375q-1.296875 0 -2.296875 -0.546875q-1.0 -0.5625 -1.5625 -1.53125q-0.5625 -0.96875 -0.5625 -2.203125q0 -1.234375 0.53125 -2.203125q0.546875 -0.984375 1.484375 -1.53125q0.9375 -0.546875 2.09375 -0.546875q1.171875 0 2.09375 0.546875q0.9375 0.546875 1.453125 1.515625q0.53125 0.96875 0.53125 2.21875l-0.015625 0.34375zm-4.0625 -3.640625q-1.21875 0 -2.046875 0.78125q-0.8125 0.765625 -0.921875 2.015625l5.96875 0q-0.109375 -1.25 -0.9375 -2.015625q-0.828125 -0.78125 -2.0625 -0.78125zm6.3983765 -4.375l1.140625 0l0 11.875l-1.140625 0l0 -11.875zm4.304016 3.453125l1.140625 0l0 8.421875l-1.140625 0l0 -8.421875zm0.578125 -1.828125q-0.359375 0 -0.59375 -0.234375q-0.234375 -0.25 -0.234375 -0.59375q0 -0.3125 0.234375 -0.546875q0.234375 -0.25 0.59375 -0.25q0.34375 0 0.578125 0.234375q0.25 0.234375 0.25 0.546875q0 0.359375 -0.25 0.609375q-0.234375 0.234375 -0.578125 0.234375zm8.022766 1.765625q1.578125 0 2.515625 0.921875q0.9375 0.921875 0.9375 2.6875l0 4.875l-1.140625 0l0 -4.765625q0 -1.3125 -0.65625 -2.0q-0.65625 -0.6875 -1.875 -0.6875q-1.359375 0 -2.15625 0.8125q-0.78125 0.796875 -0.78125 2.21875l0 4.421875l-1.140625 0l0 -8.421875l1.09375 0l0 1.5625q0.46875 -0.765625 1.28125 -1.1875q0.828125 -0.4375 1.921875 -0.4375zm13.895264 4.625l-7.03125 0q0.09375 1.3125 1.0 2.125q0.921875 0.8125 2.3125 0.8125q0.78125 0 1.4375 -0.28125q0.65625 -0.28125 1.140625 -0.828125l0.640625 0.734375q-0.5625 0.671875 -1.40625 1.03125q-0.84375 0.34375 -1.84375 0.34375q-1.296875 0 -2.296875 -0.546875q-1.0 -0.5625 -1.5625 -1.53125q-0.5625 -0.96875 -0.5625 -2.203125q0 -1.234375 0.53125 -2.203125q0.546875 -0.984375 1.484375 -1.53125q0.9375 -0.546875 2.09375 -0.546875q1.171875 0 2.09375 0.546875q0.9375 0.546875 1.453125 1.515625q0.53125 0.96875 0.53125 2.21875l-0.015625 0.34375zm-4.0625 -3.640625q-1.21875 0 -2.046875 0.78125q-0.8125 0.765625 -0.921875 2.015625l5.96875 0q-0.109375 -1.25 -0.9375 -2.015625q-0.828125 -0.78125 -2.0625 -0.78125z" fill-rule="nonzero"/><path fill="#d9d2e9" d="m836.54724 208.30753l0 0c0 -7.1538544 15.795776 -12.953201 35.280823 -12.953201c19.485107 0 35.280884 5.799347 35.280884 12.953201l0 51.812775c0 7.153839 -15.795776 12.953186 -35.280884 12.953186c-19.485046 0 -35.280823 -5.799347 -35.280823 -12.953186z" fill-rule="evenodd"/><path fill="#000000" fill-opacity="0.0" d="m907.10895 208.30753l0 0c0 7.1538544 -15.795776 12.953186 -35.280884 12.953186c-19.485046 0 -35.280823 -5.7993317 -35.280823 -12.953186" fill-rule="evenodd"/><path fill="#000000" fill-opacity="0.0" d="m836.54724 208.30753l0 0c0 -7.1538544 15.795776 -12.953201 35.280823 -12.953201c19.485107 0 35.280884 5.799347 35.280884 12.953201l0 51.812775c0 7.153839 -15.795776 12.953186 -35.280884 12.953186c-19.485046 0 -35.280823 -5.799347 -35.280823 -12.953186z" fill-rule="evenodd"/><path stroke="#000000" stroke-width="1.0" stroke-linejoin="round" stroke-linecap="butt" d="m907.10895 208.30753l0 0c0 7.1538544 -15.795776 12.953186 -35.280884 12.953186c-19.485046 0 -35.280823 -5.7993317 -35.280823 -12.953186" fill-rule="evenodd"/><path stroke="#000000" stroke-width="1.0" stroke-linejoin="round" stroke-linecap="butt" d="m836.54724 208.30753l0 0c0 -7.1538544 15.795776 -12.953201 35.280823 -12.953201c19.485107 0 35.280884 5.799347 35.280884 12.953201l0 51.812775c0 7.153839 -15.795776 12.953186 -35.280884 12.953186c-19.485046 0 -35.280823 -5.799347 -35.280823 -12.953186z" fill-rule="evenodd"/><path fill="#000000" d="m854.36017 225.84738l4.5625 0q1.765625 0 3.125 0.71875q1.359375 0.703125 2.109375 1.984375q0.765625 1.265625 0.765625 2.90625q0 1.625 -0.765625 2.90625q-0.75 1.265625 -2.109375 1.984375q-1.359375 0.703125 -3.125 0.703125l-4.5625 0l0 -11.203125zm4.484375 10.171875q1.484375 0 2.578125 -0.578125q1.109375 -0.578125 1.71875 -1.609375q0.609375 -1.03125 0.609375 -2.375q0 -1.34375 -0.609375 -2.375q-0.609375 -1.046875 -1.71875 -1.625q-1.09375 -0.578125 -2.578125 -0.578125l-3.296875 0l0 9.140625l3.296875 0zm11.434753 -7.453125q1.640625 0 2.515625 0.828125q0.890625 0.828125 0.890625 2.4375l0 5.21875l-1.09375 0l0 -1.3125q-0.375 0.65625 -1.125 1.03125q-0.75 0.359375 -1.765625 0.359375q-1.40625 0 -2.25 -0.671875q-0.828125 -0.671875 -0.828125 -1.78125q0 -1.0625 0.78125 -1.71875q0.78125 -0.65625 2.46875 -0.65625l2.671875 0l0 -0.515625q0 -1.09375 -0.609375 -1.65625q-0.609375 -0.5625 -1.765625 -0.5625q-0.8125 0 -1.546875 0.265625q-0.734375 0.265625 -1.265625 0.71875l-0.5 -0.84375q0.640625 -0.546875 1.53125 -0.84375q0.890625 -0.296875 1.890625 -0.296875zm-0.40625 7.671875q0.96875 0 1.65625 -0.4375q0.6875 -0.453125 1.015625 -1.28125l0 -1.375l-2.640625 0q-2.15625 0 -2.15625 1.5q0 0.75 0.5625 1.171875q0.5625 0.421875 1.5625 0.421875zm11.330688 0.296875q-0.3125 0.296875 -0.796875 0.453125q-0.46875 0.140625 -0.984375 0.140625q-1.171875 0 -1.8125 -0.640625q-0.640625 -0.640625 -0.640625 -1.8125l0 -5.078125l-1.515625 0l0 -0.96875l1.515625 0l0 -1.828125l1.125 0l0 1.828125l2.5625 0l0 0.96875l-2.5625 0l0 5.015625q0 0.75 0.375 1.15625q0.375 0.390625 1.09375 0.390625q0.34375 0 0.671875 -0.109375q0.328125 -0.125 0.5625 -0.328125l0.40625 0.8125zm5.0115967 -7.96875q1.640625 0 2.515625 0.828125q0.890625 0.828125 0.890625 2.4375l0 5.21875l-1.09375 0l0 -1.3125q-0.375 0.65625 -1.125 1.03125q-0.75 0.359375 -1.765625 0.359375q-1.40625 0 -2.25 -0.671875q-0.828125 -0.671875 -0.828125 -1.78125q0 -1.0625 0.78125 -1.71875q0.78125 -0.65625 2.46875 -0.65625l2.671875 0l0 -0.515625q0 -1.09375 -0.609375 -1.65625q-0.609375 -0.5625 -1.765625 -0.5625q-0.8125 0 -1.546875 0.265625q-0.734375 0.265625 -1.265625 0.71875l-0.5 -0.84375q0.640625 -0.546875 1.53125 -0.84375q0.890625 -0.296875 1.890625 -0.296875zm-0.40625 7.671875q0.96875 0 1.65625 -0.4375q0.6875 -0.453125 1.015625 -1.28125l0 -1.375l-2.640625 0q-2.15625 0 -2.15625 1.5q0 0.75 0.5625 1.171875q0.5625 0.421875 1.5625 0.421875z" fill-rule="nonzero"/><path fill="#000000" d="m860.2408 256.0505l-2.5625 -3.59375q-0.421875 0.046875 -0.890625 0.046875l-3.0 0l0 3.546875l-1.1875 0l0 -11.203125l4.1875 0q2.140625 0 3.359375 1.03125q1.21875 1.015625 1.21875 2.8125q0 1.3125 -0.671875 2.21875q-0.65625 0.90625 -1.890625 1.296875l2.734375 3.84375l-1.296875 0zm-3.484375 -4.5625q1.65625 0 2.53125 -0.734375q0.890625 -0.734375 0.890625 -2.0625q0 -1.359375 -0.890625 -2.078125q-0.875 -0.734375 -2.53125 -0.734375l-2.96875 0l0 5.609375l2.96875 0zm14.489929 0.703125l-7.03125 0q0.09375 1.3125 1.0 2.125q0.921875 0.8125 2.3125 0.8125q0.78125 0 1.4375 -0.28125q0.65625 -0.28125 1.140625 -0.828125l0.640625 0.734375q-0.5625 0.671875 -1.40625 1.03125q-0.84375 0.34375 -1.84375 0.34375q-1.296875 0 -2.296875 -0.546875q-1.0 -0.5625 -1.5625 -1.53125q-0.5625 -0.96875 -0.5625 -2.203125q0 -1.234375 0.53125 -2.203125q0.546875 -0.984375 1.484375 -1.53125q0.9375 -0.546875 2.09375 -0.546875q1.171875 0 2.09375 0.546875q0.9375 0.546875 1.453125 1.515625q0.53125 0.96875 0.53125 2.21875l-0.015625 0.34375zm-4.0625 -3.640625q-1.21875 0 -2.046875 0.78125q-0.8125 0.765625 -0.921875 2.015625l5.96875 0q-0.109375 -1.25 -0.9375 -2.015625q-0.828125 -0.78125 -2.0625 -0.78125zm10.742126 -0.984375q1.1875 0 2.140625 0.546875q0.96875 0.53125 1.5 1.515625q0.546875 0.96875 0.546875 2.21875q0 1.265625 -0.546875 2.25q-0.53125 0.96875 -1.484375 1.5q-0.953125 0.53125 -2.15625 0.53125q-1.03125 0 -1.859375 -0.421875q-0.8125 -0.421875 -1.34375 -1.234375l0 4.6875l-1.140625 0l0 -11.53125l1.09375 0l0 1.671875q0.515625 -0.828125 1.34375 -1.28125q0.84375 -0.453125 1.90625 -0.453125zm-0.078125 7.5625q0.875 0 1.59375 -0.40625q0.71875 -0.421875 1.125 -1.171875q0.40625 -0.75 0.40625 -1.703125q0 -0.96875 -0.40625 -1.703125q-0.40625 -0.75 -1.125 -1.15625q-0.71875 -0.421875 -1.59375 -0.421875q-0.90625 0 -1.625 0.421875q-0.703125 0.40625 -1.109375 1.15625q-0.40625 0.734375 -0.40625 1.703125q0 0.953125 0.40625 1.703125q0.40625 0.75 1.109375 1.171875q0.71875 0.40625 1.625 0.40625zm10.035522 1.0q-1.21875 0 -2.203125 -0.546875q-0.96875 -0.5625 -1.53125 -1.53125q-0.5625 -0.96875 -0.5625 -2.203125q0 -1.234375 0.5625 -2.203125q0.5625 -0.984375 1.53125 -1.53125q0.984375 -0.546875 2.203125 -0.546875q1.203125 0 2.171875 0.546875q0.984375 0.546875 1.53125 1.53125q0.5625 0.96875 0.5625 2.203125q0 1.234375 -0.5625 2.203125q-0.546875 0.96875 -1.53125 1.53125q-0.96875 0.546875 -2.171875 0.546875zm0 -1.0q0.890625 0 1.59375 -0.40625q0.71875 -0.421875 1.109375 -1.171875q0.40625 -0.75 0.40625 -1.703125q0 -0.96875 -0.40625 -1.71875q-0.390625 -0.75 -1.109375 -1.15625q-0.703125 -0.40625 -1.59375 -0.40625q-0.90625 0 -1.625 0.40625q-0.703125 0.40625 -1.109375 1.15625q-0.40625 0.75 -0.40625 1.71875q0 0.953125 0.40625 1.703125q0.40625 0.75 1.109375 1.171875q0.71875 0.40625 1.625 0.40625z" fill-rule="nonzero"/><path fill="#cfe2f3" d="m684.17456 220.92139l0 0c0 -3.6703644 2.9754028 -6.6457977 6.645752 -6.6457977l98.17297 0c1.7625732 0 3.453003 0.70018005 4.699341 1.946518c1.2462769 1.2463226 1.9464722 2.9367065 1.9464722 4.69928l0 26.582413c0 3.6703796 -2.9754028 6.645813 -6.645813 6.645813l-98.17297 0c-3.6703491 0 -6.645752 -2.9754333 -6.645752 -6.645813z" fill-rule="evenodd"/><path stroke="#000000" stroke-width="1.0" stroke-linejoin="round" stroke-linecap="butt" d="m684.17456 220.92139l0 0c0 -3.6703644 2.9754028 -6.6457977 6.645752 -6.6457977l98.17297 0c1.7625732 0 3.453003 0.70018005 4.699341 1.946518c1.2462769 1.2463226 1.9464722 2.9367065 1.9464722 4.69928l0 26.582413c0 3.6703796 -2.9754028 6.645813 -6.645813 6.645813l-98.17297 0c-3.6703491 0 -6.645752 -2.9754333 -6.645752 -6.645813z" fill-rule="evenodd"/><path fill="#000000" d="m710.8145 237.08823l-6.234375 0l-1.34375 2.984375l-1.234375 0l5.125 -11.203125l1.15625 0l5.125 11.203125l-1.25 0l-1.34375 -2.984375zm-0.421875 -0.96875l-2.6875 -6.015625l-2.6875 6.015625l5.375 0zm12.235779 -7.921875l0 11.875l-1.09375 0l0 -1.65625q-0.515625 0.84375 -1.359375 1.296875q-0.828125 0.4375 -1.890625 0.4375q-1.171875 0 -2.140625 -0.546875q-0.953125 -0.546875 -1.5 -1.515625q-0.546875 -0.96875 -0.546875 -2.21875q0 -1.25 0.546875 -2.21875q0.546875 -0.984375 1.5 -1.515625q0.96875 -0.546875 2.140625 -0.546875q1.03125 0 1.84375 0.4375q0.828125 0.421875 1.359375 1.234375l0 -5.0625l1.140625 0zm-4.234375 10.953125q0.875 0 1.578125 -0.40625q0.71875 -0.421875 1.125 -1.171875q0.40625 -0.75 0.40625 -1.703125q0 -0.96875 -0.40625 -1.71875q-0.40625 -0.75 -1.125 -1.15625q-0.703125 -0.40625 -1.578125 -0.40625q-0.90625 0 -1.625 0.40625q-0.703125 0.40625 -1.109375 1.15625q-0.40625 0.75 -0.40625 1.71875q0 0.953125 0.40625 1.703125q0.40625 0.75 1.109375 1.171875q0.71875 0.40625 1.625 0.40625zm15.082397 -10.953125l0 11.875l-1.09375 0l0 -1.65625q-0.515625 0.84375 -1.359375 1.296875q-0.828125 0.4375 -1.890625 0.4375q-1.171875 0 -2.140625 -0.546875q-0.953125 -0.546875 -1.5 -1.515625q-0.546875 -0.96875 -0.546875 -2.21875q0 -1.25 0.546875 -2.21875q0.546875 -0.984375 1.5 -1.515625q0.96875 -0.546875 2.140625 -0.546875q1.03125 0 1.84375 0.4375q0.828125 0.421875 1.359375 1.234375l0 -5.0625l1.140625 0zm-4.234375 10.953125q0.875 0 1.578125 -0.40625q0.71875 -0.421875 1.125 -1.171875q0.40625 -0.75 0.40625 -1.703125q0 -0.96875 -0.40625 -1.71875q-0.40625 -0.75 -1.125 -1.15625q-0.703125 -0.40625 -1.578125 -0.40625q-0.90625 0 -1.625 0.40625q-0.703125 0.40625 -1.109375 1.15625q-0.40625 0.75 -0.40625 1.71875q0 0.953125 0.40625 1.703125q0.40625 0.75 1.109375 1.171875q0.71875 0.40625 1.625 0.40625zm11.836853 -10.28125l4.5625 0q1.765625 0 3.125 0.71875q1.359375 0.703125 2.109375 1.984375q0.765625 1.265625 0.765625 2.90625q0 1.625 -0.765625 2.90625q-0.75 1.265625 -2.109375 1.984375q-1.359375 0.703125 -3.125 0.703125l-4.5625 0l0 -11.203125zm4.484375 10.171875q1.484375 0 2.578125 -0.578125q1.109375 -0.578125 1.71875 -1.609375q0.609375 -1.03125 0.609375 -2.375q0 -1.34375 -0.609375 -2.375q-0.609375 -1.046875 -1.71875 -1.625q-1.09375 -0.578125 -2.578125 -0.578125l-3.296875 0l0 9.140625l3.296875 0zm11.434814 -7.453125q1.640625 0 2.515625 0.828125q0.890625 0.828125 0.890625 2.4375l0 5.21875l-1.09375 0l0 -1.3125q-0.375 0.65625 -1.125 1.03125q-0.75 0.359375 -1.765625 0.359375q-1.40625 0 -2.25 -0.671875q-0.828125 -0.671875 -0.828125 -1.78125q0 -1.0625 0.78125 -1.71875q0.78125 -0.65625 2.46875 -0.65625l2.671875 0l0 -0.515625q0 -1.09375 -0.609375 -1.65625q-0.609375 -0.5625 -1.765625 -0.5625q-0.8125 0 -1.546875 0.265625q-0.734375 0.265625 -1.265625 0.71875l-0.5 -0.84375q0.640625 -0.546875 1.53125 -0.84375q0.890625 -0.296875 1.890625 -0.296875zm-0.40625 7.671875q0.96875 0 1.65625 -0.4375q0.6875 -0.453125 1.015625 -1.28125l0 -1.375l-2.640625 0q-2.15625 0 -2.15625 1.5q0 0.75 0.5625 1.171875q0.5625 0.421875 1.5625 0.421875zm11.330627 0.296875q-0.3125 0.296875 -0.796875 0.453125q-0.46875 0.140625 -0.984375 0.140625q-1.171875 0 -1.8125 -0.640625q-0.640625 -0.640625 -0.640625 -1.8125l0 -5.078125l-1.515625 0l0 -0.96875l1.515625 0l0 -1.828125l1.125 0l0 1.828125l2.5625 0l0 0.96875l-2.5625 0l0 5.015625q0 0.75 0.375 1.15625q0.375 0.390625 1.09375 0.390625q0.34375 0 0.671875 -0.109375q0.328125 -0.125 0.5625 -0.328125l0.40625 0.8125zm5.0116577 -7.96875q1.640625 0 2.515625 0.828125q0.890625 0.828125 0.890625 2.4375l0 5.21875l-1.09375 0l0 -1.3125q-0.375 0.65625 -1.125 1.03125q-0.75 0.359375 -1.765625 0.359375q-1.40625 0 -2.25 -0.671875q-0.828125 -0.671875 -0.828125 -1.78125q0 -1.0625 0.78125 -1.71875q0.78125 -0.65625 2.46875 -0.65625l2.671875 0l0 -0.515625q0 -1.09375 -0.609375 -1.65625q-0.609375 -0.5625 -1.765625 -0.5625q-0.8125 0 -1.546875 0.265625q-0.734375 0.265625 -1.265625 0.71875l-0.5 -0.84375q0.640625 -0.546875 1.53125 -0.84375q0.890625 -0.296875 1.890625 -0.296875zm-0.40625 7.671875q0.96875 0 1.65625 -0.4375q0.6875 -0.453125 1.015625 -1.28125l0 -1.375l-2.640625 0q-2.15625 0 -2.15625 1.5q0 0.75 0.5625 1.171875q0.5625 0.421875 1.5625 0.421875z" fill-rule="nonzero"/><path fill="#000000" fill-opacity="0.0" d="m795.6391 234.2126l40.91339 0" fill-rule="evenodd"/><path stroke="#000000" stroke-width="1.0" stroke-linejoin="round" stroke-linecap="butt" d="m795.6391 234.2126l34.91339 0" fill-rule="evenodd"/><path fill="#000000" stroke="#000000" stroke-width="1.0" stroke-linecap="butt" d="m830.5525 235.86433l4.538086 -1.6517334l-4.538086 -1.6517334z" fill-rule="evenodd"/><path fill="#000000" fill-opacity="0.0" d="m871.82806 273.0735l0 51.62204" fill-rule="evenodd"/><path stroke="#000000" stroke-width="2.0" stroke-linejoin="round" stroke-linecap="butt" d="m871.82806 273.0735l0 39.62204" fill-rule="evenodd"/><path fill="#000000" stroke="#000000" stroke-width="2.0" stroke-linecap="butt" d="m868.5246 312.69553l3.3034668 9.076202l3.3034668 -9.076202z" fill-rule="evenodd"/><path fill="#cfe2f3" d="m53.996063 335.772l0 0c0 -4.2821045 3.4713326 -7.7534485 7.753437 -7.7534485l118.44589 0c2.0563354 0 4.0284576 0.81689453 5.482498 2.270935c1.4540558 1.4540405 2.270935 3.426178 2.270935 5.4825134l0 31.012817c0 4.2821045 -3.4713287 7.753418 -7.753433 7.753418l-118.44589 0c-4.2821045 0 -7.753437 -3.4713135 -7.753437 -7.753418z" fill-rule="evenodd"/><path stroke="#000000" stroke-width="1.0" stroke-linejoin="round" stroke-linecap="butt" d="m53.996063 335.772l0 0c0 -4.2821045 3.4713326 -7.7534485 7.753437 -7.7534485l118.44589 0c2.0563354 0 4.0284576 0.81689453 5.482498 2.270935c1.4540558 1.4540405 2.270935 3.426178 2.270935 5.4825134l0 31.012817c0 4.2821045 -3.4713287 7.753418 -7.753433 7.753418l-118.44589 0c-4.2821045 0 -7.753437 -3.4713135 -7.753437 -7.753418z" fill-rule="evenodd"/><path fill="#000000" d="m93.40748 345.93527l-3.78125 11.203125l-1.25 0l-3.28125 -9.546875l-3.296875 9.546875l-1.21875 0l-3.78125 -11.203125l1.21875 0l3.234375 9.640625l3.34375 -9.640625l1.09375 0l3.296875 9.6875l3.28125 -9.6875l1.140625 0zm2.684784 4.4375q0.40625 -0.84375 1.1875 -1.28125q0.796875 -0.4375 1.96875 -0.4375l0 1.109375l-0.28125 -0.015625q-1.328125 0 -2.078125 0.8125q-0.75 0.8125 -0.75 2.296875l0 4.28125l-1.140625 0l0 -8.421875l1.09375 0l0 1.65625zm5.1942596 -1.65625l1.140625 0l0 8.421875l-1.140625 0l0 -8.421875zm0.578125 -1.828125q-0.359375 0 -0.59375 -0.234375q-0.234375 -0.25 -0.234375 -0.59375q0 -0.3125 0.234375 -0.546875q0.234375 -0.25 0.59375 -0.25q0.34375 0 0.578125 0.234375q0.25 0.234375 0.25 0.546875q0 0.359375 -0.25 0.609375q-0.234375 0.234375 -0.578125 0.234375zm8.163391 9.734375q-0.3125 0.296875 -0.796875 0.453125q-0.46875 0.140625 -0.984375 0.140625q-1.171875 0 -1.8125 -0.640625q-0.640625 -0.640625 -0.640625 -1.8125l0 -5.078125l-1.515625 0l0 -0.96875l1.515625 0l0 -1.828125l1.125 0l0 1.828125l2.5625 0l0 0.96875l-2.5625 0l0 5.015625q0 0.75 0.375 1.15625q0.375 0.390625 1.09375 0.390625q0.34375 0 0.671875 -0.109375q0.328125 -0.125 0.5625 -0.328125l0.40625 0.8125zm9.082642 -3.34375l-7.03125 0q0.09375 1.3125 1.0 2.125q0.921875 0.8125 2.3125 0.8125q0.78125 0 1.4375 -0.28125q0.65625 -0.28125 1.140625 -0.828125l0.640625 0.734375q-0.5625 0.671875 -1.40625 1.03125q-0.84375 0.34375 -1.84375 0.34375q-1.296875 0 -2.296875 -0.546875q-1.0 -0.5625 -1.5625 -1.53125q-0.5625 -0.96875 -0.5625 -2.203125q0 -1.234375 0.53125 -2.203125q0.546875 -0.984375 1.484375 -1.53125q0.9375 -0.546875 2.09375 -0.546875q1.171875 0 2.09375 0.546875q0.9375 0.546875 1.453125 1.515625q0.53125 0.96875 0.53125 2.21875l-0.015625 0.34375zm-4.0625 -3.640625q-1.21875 0 -2.046875 0.78125q-0.8125 0.765625 -0.921875 2.015625l5.96875 0q-0.109375 -1.25 -0.9375 -2.015625q-0.828125 -0.78125 -2.0625 -0.78125zm15.69976 7.59375q-1.65625 0 -2.9999924 -0.734375q-1.328125 -0.734375 -2.09375 -2.03125q-0.765625 -1.3125 -0.765625 -2.921875q0 -1.625 0.765625 -2.921875q0.765625 -1.3125 2.109375 -2.046875q1.3437424 -0.734375 2.9999924 -0.734375q1.25 0 2.296875 0.421875q1.0625 0.40625 1.796875 1.21875l-0.75 0.75q-1.3125 -1.328125 -3.3125 -1.328125q-1.328125 0 -2.421875 0.609375q-1.0781174 0.59375 -1.7031174 1.65625q-0.609375 1.0625 -0.609375 2.375q0 1.3125 0.609375 2.375q0.625 1.046875 1.7031174 1.65625q1.09375 0.609375 2.421875 0.609375q2.015625 0 3.3125 -1.34375l0.75 0.75q-0.734375 0.796875 -1.796875 1.21875q-1.0625 0.421875 -2.3125 0.421875zm9.479782 -0.015625q-1.21875 0 -2.203125 -0.546875q-0.96875 -0.5625 -1.53125 -1.53125q-0.5625 -0.96875 -0.5625 -2.203125q0 -1.234375 0.5625 -2.203125q0.5625 -0.984375 1.53125 -1.53125q0.984375 -0.546875 2.203125 -0.546875q1.203125 0 2.171875 0.546875q0.984375 0.546875 1.53125 1.53125q0.5625 0.96875 0.5625 2.203125q0 1.234375 -0.5625 2.203125q-0.546875 0.96875 -1.53125 1.53125q-0.96875 0.546875 -2.171875 0.546875zm0 -1.0q0.890625 0 1.59375 -0.40625q0.71875 -0.421875 1.109375 -1.171875q0.40625 -0.75 0.40625 -1.703125q0 -0.96875 -0.40625 -1.71875q-0.390625 -0.75 -1.109375 -1.15625q-0.703125 -0.40625 -1.59375 -0.40625q-0.90625 0 -1.625 0.40625q-0.703125 0.40625 -1.109375 1.15625q-0.40625 0.75 -0.40625 1.71875q0 0.953125 0.40625 1.703125q0.40625 0.75 1.109375 1.171875q0.71875 0.40625 1.625 0.40625zm14.266388 -10.953125l0 11.875l-1.09375 0l0 -1.65625q-0.515625 0.84375 -1.359375 1.296875q-0.828125 0.4375 -1.890625 0.4375q-1.171875 0 -2.140625 -0.546875q-0.953125 -0.546875 -1.5 -1.515625q-0.546875 -0.96875 -0.546875 -2.21875q0 -1.25 0.546875 -2.21875q0.546875 -0.984375 1.5 -1.515625q0.96875 -0.546875 2.140625 -0.546875q1.03125 0 1.84375 0.4375q0.828125 0.421875 1.359375 1.234375l0 -5.0625l1.140625 0zm-4.234375 10.953125q0.875 0 1.578125 -0.40625q0.71875 -0.421875 1.125 -1.171875q0.40625 -0.75 0.40625 -1.703125q0 -0.96875 -0.40625 -1.71875q-0.40625 -0.75 -1.125 -1.15625q-0.703125 -0.40625 -1.578125 -0.40625q-0.90625 0 -1.625 0.40625q-0.703125 0.40625 -1.109375 1.15625q-0.40625 0.75 -0.40625 1.71875q0 0.953125 0.40625 1.703125q0.40625 0.75 1.109375 1.171875q0.71875 0.40625 1.625 0.40625zm14.723022 -2.9375l-7.03125 0q0.09375 1.3125 1.0 2.125q0.921875 0.8125 2.3125 0.8125q0.78125 0 1.4375 -0.28125q0.65625 -0.28125 1.140625 -0.828125l0.640625 0.734375q-0.5625 0.671875 -1.40625 1.03125q-0.84375 0.34375 -1.84375 0.34375q-1.296875 0 -2.296875 -0.546875q-1.0 -0.5625 -1.5625 -1.53125q-0.5625 -0.96875 -0.5625 -2.203125q0 -1.234375 0.53125 -2.203125q0.546875 -0.984375 1.484375 -1.53125q0.9375 -0.546875 2.09375 -0.546875q1.171875 0 2.09375 0.546875q0.9375 0.546875 1.453125 1.515625q0.53125 0.96875 0.53125 2.21875l-0.015625 0.34375zm-4.0625 -3.640625q-1.21875 0 -2.046875 0.78125q-0.8125 0.765625 -0.921875 2.015625l5.96875 0q-0.109375 -1.25 -0.9375 -2.015625q-0.828125 -0.78125 -2.0625 -0.78125z" fill-rule="nonzero"/><path fill="#cfe2f3" d="m208.51181 335.77182l0 0c0 -4.2821045 3.4713287 -7.7534485 7.753433 -7.7534485l118.44588 0c2.0563354 0 4.028473 0.816864 5.4825134 2.270935c1.4540405 1.4540405 2.270935 3.426178 2.270935 5.4825134l0 31.012787c0 4.2821045 -3.471344 7.7534485 -7.7534485 7.7534485l-118.44588 0c-4.2821045 0 -7.753433 -3.471344 -7.753433 -7.7534485z" fill-rule="evenodd"/><path stroke="#000000" stroke-width="1.0" stroke-linejoin="round" stroke-linecap="butt" d="m208.51181 335.77182l0 0c0 -4.2821045 3.4713287 -7.7534485 7.753433 -7.7534485l118.44588 0c2.0563354 0 4.028473 0.816864 5.4825134 2.270935c1.4540405 1.4540405 2.270935 3.426178 2.270935 5.4825134l0 31.012787c0 4.2821045 -3.471344 7.7534485 -7.7534485 7.7534485l-118.44588 0c-4.2821045 0 -7.753433 -3.471344 -7.753433 -7.7534485z" fill-rule="evenodd"/><path fill="#000000" d="m232.37909 341.85696q1.109375 0.25 1.703125 0.96875q0.609375 0.703125 0.609375 1.828125q0 1.4375 -1.0625 2.21875q-1.0625 0.765625 -3.15625 0.765625l-5.140625 0l0 -11.203125l4.828125 0q1.875 0 2.90625 0.75q1.03125 0.75 1.03125 2.140625q0 0.921875 -0.453125 1.578125q-0.453125 0.640625 -1.265625 0.953125zm-5.859375 -4.4375l0 4.0625l3.5625 0q1.359375 0 2.09375 -0.515625q0.734375 -0.53125 0.734375 -1.515625q0 -1.0 -0.734375 -1.515625q-0.734375 -0.515625 -2.09375 -0.515625l-3.5625 0zm3.9375 9.25q1.515625 0 2.28125 -0.515625q0.765625 -0.515625 0.765625 -1.609375q0 -2.09375 -3.046875 -2.09375l-3.9375 0l0 4.21875l3.9375 0zm14.282776 -7.453125l0 8.421875l-1.09375 0l0 -1.53125q-0.453125 0.765625 -1.234375 1.1875q-0.78125 0.421875 -1.78125 0.421875q-1.65625 0 -2.609375 -0.921875q-0.953125 -0.921875 -0.953125 -2.6875l0 -4.890625l1.140625 0l0 4.78125q0 1.328125 0.65625 2.015625q0.65625 0.6875 1.875 0.6875q1.328125 0 2.09375 -0.8125q0.765625 -0.8125 0.765625 -2.25l0 -4.421875l1.140625 0zm3.1742706 0l1.140625 0l0 8.421875l-1.140625 0l0 -8.421875zm0.578125 -1.828125q-0.359375 0 -0.59375 -0.234375q-0.234375 -0.25 -0.234375 -0.59375q0 -0.3125 0.234375 -0.546875q0.234375 -0.25 0.59375 -0.25q0.34375 0 0.578125 0.234375q0.25 0.234375 0.25 0.546875q0 0.359375 -0.25 0.609375q-0.234375 0.234375 -0.578125 0.234375zm3.725891 -1.625l1.140625 0l0 11.875l-1.140625 0l0 -11.875zm11.991531 0l0 11.875l-1.09375 0l0 -1.65625q-0.515625 0.84375 -1.359375 1.296875q-0.828125 0.4375 -1.890625 0.4375q-1.171875 0 -2.140625 -0.546875q-0.953125 -0.546875 -1.5 -1.515625q-0.54689026 -0.96875 -0.54689026 -2.21875q0 -1.25 0.54689026 -2.21875q0.546875 -0.984375 1.5 -1.515625q0.96875 -0.546875 2.140625 -0.546875q1.03125 0 1.84375 0.4375q0.828125 0.421875 1.359375 1.234375l0 -5.0625l1.140625 0zm-4.234375 10.953125q0.875 0 1.578125 -0.40625q0.71875 -0.421875 1.125 -1.171875q0.40625 -0.75 0.40625 -1.703125q0 -0.96875 -0.40625 -1.71875q-0.40625 -0.75 -1.125 -1.15625q-0.703125 -0.40625 -1.578125 -0.40625q-0.90625 0 -1.625 0.40625q-0.703125 0.40625 -1.109375 1.15625q-0.40625 0.75 -0.40625 1.71875q0 0.953125 0.40625 1.703125q0.40625 0.75 1.109375 1.171875q0.71875 0.40625 1.625 0.40625zm11.836884 -10.28125l4.5625 0q1.765625 0 3.125 0.71875q1.359375 0.703125 2.109375 1.984375q0.765625 1.265625 0.765625 2.90625q0 1.625 -0.765625 2.90625q-0.75 1.265625 -2.109375 1.984375q-1.359375 0.703125 -3.125 0.703125l-4.5625 0l0 -11.203125zm4.484375 10.171875q1.484375 0 2.578125 -0.578125q1.109375 -0.578125 1.71875 -1.609375q0.609375 -1.03125 0.609375 -2.375q0 -1.34375 -0.609375 -2.375q-0.609375 -1.046875 -1.71875 -1.625q-1.09375 -0.578125 -2.578125 -0.578125l-3.296875 0l0 9.140625l3.296875 0zm11.934784 1.109375q-1.21875 0 -2.203125 -0.546875q-0.96875 -0.5625 -1.53125 -1.53125q-0.5625 -0.96875 -0.5625 -2.203125q0 -1.234375 0.5625 -2.203125q0.5625 -0.984375 1.53125 -1.53125q0.984375 -0.546875 2.203125 -0.546875q1.203125 0 2.171875 0.546875q0.984375 0.546875 1.53125 1.53125q0.5625 0.96875 0.5625 2.203125q0 1.234375 -0.5625 2.203125q-0.546875 0.96875 -1.53125 1.53125q-0.96875 0.546875 -2.171875 0.546875zm0 -1.0q0.890625 0 1.59375 -0.40625q0.71875 -0.421875 1.109375 -1.171875q0.40625 -0.75 0.40625 -1.703125q0 -0.96875 -0.40625 -1.71875q-0.390625 -0.75 -1.109375 -1.15625q-0.703125 -0.40625 -1.59375 -0.40625q-0.90625 0 -1.625 0.40625q-0.703125 0.40625 -1.109375 1.15625q-0.40625 0.75 -0.40625 1.71875q0 0.953125 0.40625 1.703125q0.40625 0.75 1.109375 1.171875q0.71875 0.40625 1.625 0.40625zm10.078888 1.0q-1.25 0 -2.234375 -0.546875q-0.984375 -0.546875 -1.546875 -1.515625q-0.5625 -0.984375 -0.5625 -2.21875q0 -1.234375 0.5625 -2.203125q0.5625 -0.984375 1.546875 -1.53125q0.984375 -0.546875 2.234375 -0.546875q1.078125 0 1.9375 0.4375q0.859375 0.421875 1.359375 1.234375l-0.859375 0.578125q-0.40625 -0.625 -1.046875 -0.9375q-0.640625 -0.3125 -1.390625 -0.3125q-0.921875 0 -1.65625 0.40625q-0.71875 0.40625 -1.125 1.15625q-0.40625 0.75 -0.40625 1.71875q0 0.96875 0.40625 1.71875q0.40625 0.734375 1.125 1.15625q0.734375 0.40625 1.65625 0.40625q0.75 0 1.390625 -0.296875q0.640625 -0.3125 1.046875 -0.9375l0.859375 0.578125q-0.5 0.8125 -1.375 1.234375q-0.859375 0.421875 -1.921875 0.421875zm8.505005 -4.296875l-1.984375 1.8125l0 2.40625l-1.140625 0l0 -11.875l1.140625 0l0 8.046875l5.03125 -4.59375l1.40625 0l-3.609375 3.453125l3.9375 4.96875l-1.390625 0l-3.390625 -4.21875zm13.483154 0.359375l-7.03125 0q0.09375 1.3125 1.0 2.125q0.921875 0.8125 2.3125 0.8125q0.78125 0 1.4375 -0.28125q0.65625 -0.28125 1.140625 -0.828125l0.640625 0.734375q-0.5625 0.671875 -1.40625 1.03125q-0.84375 0.34375 -1.84375 0.34375q-1.296875 0 -2.296875 -0.546875q-1.0 -0.5625 -1.5625 -1.53125q-0.5625 -0.96875 -0.5625 -2.203125q0 -1.234375 0.53125 -2.203125q0.546875 -0.984375 1.484375 -1.53125q0.9375 -0.546875 2.09375 -0.546875q1.171875 0 2.09375 0.546875q0.9375 0.546875 1.453125 1.515625q0.53125 0.96875 0.53125 2.21875l-0.015625 0.34375zm-4.0625 -3.640625q-1.21875 0 -2.046875 0.78125q-0.8125 0.765625 -0.921875 2.015625l5.96875 0q-0.109375 -1.25 -0.9375 -2.015625q-0.828125 -0.78125 -2.0625 -0.78125zm7.4921265 0.734375q0.40625 -0.84375 1.1875 -1.28125q0.796875 -0.4375 1.96875 -0.4375l0 1.109375l-0.28125 -0.015625q-1.328125 0 -2.078125 0.8125q-0.75 0.8125 -0.75 2.296875l0 4.28125l-1.140625 0l0 -8.421875l1.09375 0l0 1.65625z" fill-rule="nonzero"/><path fill="#000000" d="m251.35626 355.4351l1.1875 0l0 11.203125l-1.1875 0l0 -11.203125zm15.082031 2.71875q1.578125 0 2.484375 0.921875q0.90625 0.90625 0.90625 2.6875l0 4.875l-1.125 0l0 -4.765625q0 -1.3125 -0.640625 -2.0q-0.625 -0.6875 -1.78125 -0.6875q-1.3125 0 -2.0625 0.8125q-0.75 0.796875 -0.75 2.21875l0 4.421875l-1.140625 0l0 -4.765625q0 -1.3125 -0.640625 -2.0q-0.625 -0.6875 -1.796875 -0.6875q-1.296875 0 -2.0625 0.8125q-0.75 0.796875 -0.75 2.21875l0 4.421875l-1.1406403 0l0 -8.421875l1.0937653 0l0 1.546875q0.453125 -0.765625 1.25 -1.1875q0.796875 -0.421875 1.84375 -0.421875q1.046875 0 1.828125 0.453125q0.78125 0.453125 1.15625 1.328125q0.46875 -0.828125 1.328125 -1.296875q0.875 -0.484375 2.0 -0.484375zm9.429138 0q1.640625 0 2.515625 0.828125q0.890625 0.828125 0.890625 2.4375l0 5.21875l-1.09375 0l0 -1.3125q-0.375 0.65625 -1.125 1.03125q-0.75 0.359375 -1.765625 0.359375q-1.40625 0 -2.25 -0.671875q-0.828125 -0.671875 -0.828125 -1.78125q0 -1.0625 0.78125 -1.71875q0.78125 -0.65625 2.46875 -0.65625l2.671875 0l0 -0.515625q0 -1.09375 -0.609375 -1.65625q-0.609375 -0.5625 -1.765625 -0.5625q-0.8125 0 -1.546875 0.265625q-0.734375 0.265625 -1.265625 0.71875l-0.5 -0.84375q0.640625 -0.546875 1.53125 -0.84375q0.890625 -0.296875 1.890625 -0.296875zm-0.40625 7.671875q0.96875 0 1.65625 -0.4375q0.6875 -0.453125 1.015625 -1.28125l0 -1.375l-2.640625 0q-2.15625 0 -2.15625 1.5q0 0.75 0.5625 1.171875q0.5625 0.421875 1.5625 0.421875zm14.722015 -7.609375l0 7.390625q0 2.15625 -1.046875 3.1875q-1.046875 1.03125 -3.15625 1.03125q-1.171875 0 -2.21875 -0.34375q-1.046875 -0.34375 -1.703125 -0.953125l0.578125 -0.859375q0.609375 0.53125 1.46875 0.828125q0.875 0.3125 1.84375 0.3125q1.59375 0 2.34375 -0.75q0.75 -0.734375 0.75 -2.296875l0 -1.078125q-0.515625 0.796875 -1.375 1.21875q-0.859375 0.421875 -1.90625 0.421875q-1.171875 0 -2.140625 -0.515625q-0.96875 -0.53125 -1.53125 -1.46875q-0.546875 -0.9375 -0.546875 -2.125q0 -1.171875 0.546875 -2.09375q0.5625 -0.9375 1.515625 -1.453125q0.96875 -0.515625 2.15625 -0.515625q1.078125 0 1.9375 0.4375q0.875 0.4375 1.390625 1.25l0 -1.625l1.09375 0zm-4.296875 7.09375q0.90625 0 1.640625 -0.390625q0.734375 -0.390625 1.140625 -1.09375q0.40625 -0.703125 0.40625 -1.609375q0 -0.890625 -0.40625 -1.578125q-0.40625 -0.703125 -1.140625 -1.09375q-0.71875 -0.390625 -1.640625 -0.390625q-0.921875 0 -1.65625 0.390625q-0.71875 0.375 -1.125 1.078125q-0.40625 0.703125 -0.40625 1.59375q0 0.90625 0.40625 1.609375q0.40625 0.703125 1.125 1.09375q0.734375 0.390625 1.65625 0.390625zm14.804169 -2.53125l-7.03125 0q0.09375 1.3125 1.0 2.125q0.921875 0.8125 2.3125 0.8125q0.78125 0 1.4375 -0.28125q0.65625 -0.28125 1.140625 -0.828125l0.640625 0.734375q-0.5625 0.671875 -1.40625 1.03125q-0.84375 0.34375 -1.84375 0.34375q-1.296875 0 -2.296875 -0.546875q-1.0 -0.5625 -1.5625 -1.53125q-0.5625 -0.96875 -0.5625 -2.203125q0 -1.234375 0.53125 -2.203125q0.546875 -0.984375 1.484375 -1.53125q0.9375 -0.546875 2.09375 -0.546875q1.171875 0 2.09375 0.546875q0.9375 0.546875 1.453125 1.515625q0.53125 0.96875 0.53125 2.21875l-0.015625 0.34375zm-4.0625 -3.640625q-1.21875 0 -2.046875 0.78125q-0.8125 0.765625 -0.921875 2.015625l5.96875 0q-0.109375 -1.25 -0.9375 -2.015625q-0.828125 -0.78125 -2.0625 -0.78125z" fill-rule="nonzero"/><path fill="#cfe2f3" d="m363.02756 335.77182l0 0c0 -4.2821045 3.471344 -7.7534485 7.7534485 -7.7534485l118.44586 0c2.0563354 0 4.028473 0.816864 5.4825134 2.270935c1.454071 1.4540405 2.270935 3.426178 2.270935 5.4825134l0 31.012787c0 4.2821045 -3.471344 7.7534485 -7.7534485 7.7534485l-118.44586 0c-4.2821045 0 -7.7534485 -3.471344 -7.7534485 -7.7534485z" fill-rule="evenodd"/><path stroke="#000000" stroke-width="1.0" stroke-linejoin="round" stroke-linecap="butt" d="m363.02756 335.77182l0 0c0 -4.2821045 3.471344 -7.7534485 7.7534485 -7.7534485l118.44586 0c2.0563354 0 4.028473 0.816864 5.4825134 2.270935c1.454071 1.4540405 2.270935 3.426178 2.270935 5.4825134l0 31.012787c0 4.2821045 -3.471344 7.7534485 -7.7534485 7.7534485l-118.44586 0c-4.2821045 0 -7.7534485 -3.471344 -7.7534485 -7.7534485z" fill-rule="evenodd"/><path fill="#000000" d="m387.50748 336.4351q2.140625 0 3.359375 1.03125q1.21875 1.015625 1.21875 2.8125q0 1.796875 -1.21875 2.8125q-1.21875 1.015625 -3.359375 1.015625l-3.0 0l0 3.53125l-1.1875 0l0 -11.203125l4.1875 0zm-0.03125 6.625q1.65625 0 2.53125 -0.71875q0.890625 -0.734375 0.890625 -2.0625q0 -1.359375 -0.890625 -2.078125q-0.875 -0.734375 -2.53125 -0.734375l-2.96875 0l0 5.59375l2.96875 0zm14.675507 -3.84375l0 8.421875l-1.09375 0l0 -1.53125q-0.453125 0.765625 -1.234375 1.1875q-0.78125 0.421875 -1.78125 0.421875q-1.65625 0 -2.609375 -0.921875q-0.953125 -0.921875 -0.953125 -2.6875l0 -4.890625l1.140625 0l0 4.78125q0 1.328125 0.65625 2.015625q0.65625 0.6875 1.875 0.6875q1.328125 0 2.09375 -0.8125q0.765625 -0.8125 0.765625 -2.25l0 -4.421875l1.140625 0zm5.439911 8.5q-1.03125 0 -1.96875 -0.296875q-0.9375 -0.296875 -1.453125 -0.734375l0.5 -0.90625q0.53125 0.421875 1.328125 0.6875q0.8125 0.265625 1.671875 0.265625q1.15625 0 1.703125 -0.359375q0.546875 -0.359375 0.546875 -1.015625q0 -0.46875 -0.3125 -0.734375q-0.296875 -0.265625 -0.765625 -0.390625q-0.453125 -0.140625 -1.21875 -0.28125q-1.03125 -0.1875 -1.65625 -0.375q-0.625 -0.203125 -1.0625 -0.6875q-0.4375 -0.484375 -0.4375 -1.328125q0 -1.0625 0.875 -1.734375q0.890625 -0.671875 2.453125 -0.671875q0.8125 0 1.625 0.21875q0.828125 0.21875 1.359375 0.5625l-0.5 0.921875q-1.046875 -0.71875 -2.484375 -0.71875q-1.09375 0 -1.640625 0.390625q-0.546875 0.375 -0.546875 1.0q0 0.484375 0.3125 0.765625q0.3125 0.28125 0.765625 0.421875q0.46875 0.140625 1.28125 0.28125q1.015625 0.1875 1.625 0.390625q0.609375 0.1875 1.03125 0.65625q0.4375 0.453125 0.4375 1.28125q0 1.09375 -0.921875 1.75q-0.921875 0.640625 -2.546875 0.640625zm9.855255 -8.5625q1.578125 0 2.515625 0.921875q0.9375 0.921875 0.9375 2.6875l0 4.875l-1.140625 0l0 -4.765625q0 -1.3125 -0.65625 -2.0q-0.65625 -0.6875 -1.875 -0.6875q-1.359375 0 -2.15625 0.8125q-0.78125 0.796875 -0.78125 2.21875l0 4.421875l-1.140625 0l0 -11.875l1.140625 0l0 4.9375q0.46875 -0.75 1.28125 -1.140625q0.8125 -0.40625 1.875 -0.40625zm10.977142 -2.71875l1.1875 0l0 11.203125l-1.1875 0l0 -11.203125zm15.082031 2.71875q1.578125 0 2.484375 0.921875q0.90625 0.90625 0.90625 2.6875l0 4.875l-1.125 0l0 -4.765625q0 -1.3125 -0.640625 -2.0q-0.625 -0.6875 -1.78125 -0.6875q-1.3125 0 -2.0625 0.8125q-0.75 0.796875 -0.75 2.21875l0 4.421875l-1.140625 0l0 -4.765625q0 -1.3125 -0.640625 -2.0q-0.625 -0.6875 -1.796875 -0.6875q-1.296875 0 -2.0625 0.8125q-0.75 0.796875 -0.75 2.21875l0 4.421875l-1.140625 0l0 -8.421875l1.09375 0l0 1.546875q0.453125 -0.765625 1.25 -1.1875q0.796875 -0.421875 1.84375 -0.421875q1.046875 0 1.828125 0.453125q0.78125 0.453125 1.15625 1.328125q0.46875 -0.828125 1.328125 -1.296875q0.875 -0.484375 2.0 -0.484375zm9.429138 0q1.640625 0 2.515625 0.828125q0.890625 0.828125 0.890625 2.4375l0 5.21875l-1.09375 0l0 -1.3125q-0.375 0.65625 -1.125 1.03125q-0.75 0.359375 -1.765625 0.359375q-1.40625 0 -2.25 -0.671875q-0.828125 -0.671875 -0.828125 -1.78125q0 -1.0625 0.78125 -1.71875q0.78125 -0.65625 2.46875 -0.65625l2.671875 0l0 -0.515625q0 -1.09375 -0.609375 -1.65625q-0.609375 -0.5625 -1.765625 -0.5625q-0.8125 0 -1.546875 0.265625q-0.734375 0.265625 -1.265625 0.71875l-0.5 -0.84375q0.640625 -0.546875 1.53125 -0.84375q0.890625 -0.296875 1.890625 -0.296875zm-0.40625 7.671875q0.96875 0 1.65625 -0.4375q0.6875 -0.453125 1.015625 -1.28125l0 -1.375l-2.640625 0q-2.15625 0 -2.15625 1.5q0 0.75 0.5625 1.171875q0.5625 0.421875 1.5625 0.421875zm14.722015 -7.609375l0 7.390625q0 2.15625 -1.046875 3.1875q-1.046875 1.03125 -3.15625 1.03125q-1.171875 0 -2.21875 -0.34375q-1.046875 -0.34375 -1.703125 -0.953125l0.578125 -0.859375q0.609375 0.53125 1.46875 0.828125q0.875 0.3125 1.84375 0.3125q1.59375 0 2.34375 -0.75q0.75 -0.734375 0.75 -2.296875l0 -1.078125q-0.515625 0.796875 -1.375 1.21875q-0.859375 0.421875 -1.90625 0.421875q-1.171875 0 -2.140625 -0.515625q-0.96875 -0.53125 -1.53125 -1.46875q-0.546875 -0.9375 -0.546875 -2.125q0 -1.171875 0.546875 -2.09375q0.5625 -0.9375 1.515625 -1.453125q0.96875 -0.515625 2.15625 -0.515625q1.078125 0 1.9375 0.4375q0.875 0.4375 1.390625 1.25l0 -1.625l1.09375 0zm-4.296875 7.09375q0.90625 0 1.640625 -0.390625q0.734375 -0.390625 1.140625 -1.09375q0.40625 -0.703125 0.40625 -1.609375q0 -0.890625 -0.40625 -1.578125q-0.40625 -0.703125 -1.140625 -1.09375q-0.71875 -0.390625 -1.640625 -0.390625q-0.921875 0 -1.65625 0.390625q-0.71875 0.375 -1.125 1.078125q-0.40625 0.703125 -0.40625 1.59375q0 0.90625 0.40625 1.609375q0.40625 0.703125 1.125 1.09375q0.734375 0.390625 1.65625 0.390625zm14.804169 -2.53125l-7.03125 0q0.09375 1.3125 1.0 2.125q0.921875 0.8125 2.3125 0.8125q0.78125 0 1.4375 -0.28125q0.65625 -0.28125 1.140625 -0.828125l0.640625 0.734375q-0.5625 0.671875 -1.40625 1.03125q-0.84375 0.34375 -1.84375 0.34375q-1.296875 0 -2.296875 -0.546875q-1.0 -0.5625 -1.5625 -1.53125q-0.5625 -0.96875 -0.5625 -2.203125q0 -1.234375 0.53125 -2.203125q0.546875 -0.984375 1.484375 -1.53125q0.9375 -0.546875 2.09375 -0.546875q1.171875 0 2.09375 0.546875q0.9375 0.546875 1.453125 1.515625q0.53125 0.96875 0.53125 2.21875l-0.015625 0.34375zm-4.0625 -3.640625q-1.21875 0 -2.046875 0.78125q-0.8125 0.765625 -0.921875 2.015625l5.96875 0q-0.109375 -1.25 -0.9375 -2.015625q-0.828125 -0.78125 -2.0625 -0.78125z" fill-rule="nonzero"/><path fill="#000000" d="m392.73148 366.1226q-0.3125 0.296875 -0.796875 0.453125q-0.46875 0.140625 -0.984375 0.140625q-1.171875 0 -1.8125 -0.640625q-0.640625 -0.640625 -0.640625 -1.8125l0 -5.078125l-1.515625 0l0 -0.96875l1.515625 0l0 -1.828125l1.125 0l0 1.828125l2.5625 0l0 0.96875l-2.5625 0l0 5.015625q0 0.75 0.375 1.15625q0.375 0.390625 1.09375 0.390625q0.34375 0 0.671875 -0.109375q0.328125 -0.125 0.5625 -0.328125l0.40625 0.8125zm5.2076416 0.59375q-1.21875 0 -2.203125 -0.546875q-0.96875 -0.5625 -1.53125 -1.53125q-0.5625 -0.96875 -0.5625 -2.203125q0 -1.234375 0.5625 -2.203125q0.5625 -0.984375 1.53125 -1.53125q0.984375 -0.546875 2.203125 -0.546875q1.203125 0 2.171875 0.546875q0.984375 0.546875 1.53125 1.53125q0.5625 0.96875 0.5625 2.203125q0 1.234375 -0.5625 2.203125q-0.546875 0.96875 -1.53125 1.53125q-0.96875 0.546875 -2.171875 0.546875zm0 -1.0q0.890625 0 1.59375 -0.40625q0.71875 -0.421875 1.109375 -1.171875q0.40625 -0.75 0.40625 -1.703125q0 -0.96875 -0.40625 -1.71875q-0.390625 -0.75 -1.109375 -1.15625q-0.703125 -0.40625 -1.59375 -0.40625q-0.90625 0 -1.625 0.40625q-0.703125 0.40625 -1.109375 1.15625q-0.40625 0.75 -0.40625 1.71875q0 0.953125 0.40625 1.703125q0.40625 0.75 1.109375 1.171875q0.71875 0.40625 1.625 0.40625zm18.661499 0.921875l-2.5625 -3.59375q-0.421875 0.046875 -0.890625 0.046875l-3.0 0l0 3.546875l-1.1875 0l0 -11.203125l4.1875 0q2.140625 0 3.359375 1.03125q1.21875 1.015625 1.21875 2.8125q0 1.3125 -0.671875 2.21875q-0.65625 0.90625 -1.890625 1.296875l2.734375 3.84375l-1.296875 0zm-3.484375 -4.5625q1.65625 0 2.53125 -0.734375q0.890625 -0.734375 0.890625 -2.0625q0 -1.359375 -0.890625 -2.078125q-0.875 -0.734375 -2.53125 -0.734375l-2.96875 0l0 5.609375l2.96875 0zm14.489899 0.703125l-7.03125 0q0.09375 1.3125 1.0 2.125q0.921875 0.8125 2.3125 0.8125q0.78125 0 1.4375 -0.28125q0.65625 -0.28125 1.140625 -0.828125l0.640625 0.734375q-0.5625 0.671875 -1.40625 1.03125q-0.84375 0.34375 -1.84375 0.34375q-1.296875 0 -2.296875 -0.546875q-1.0 -0.5625 -1.5625 -1.53125q-0.5625 -0.96875 -0.5625 -2.203125q0 -1.234375 0.53125 -2.203125q0.546875 -0.984375 1.484375 -1.53125q0.9375 -0.546875 2.09375 -0.546875q1.171875 0 2.09375 0.546875q0.9375 0.546875 1.453125 1.515625q0.53125 0.96875 0.53125 2.21875l-0.015625 0.34375zm-4.0625 -3.640625q-1.21875 0 -2.046875 0.78125q-0.8125 0.765625 -0.921875 2.015625l5.96875 0q-0.109375 -1.25 -0.9375 -2.015625q-0.828125 -0.78125 -2.0625 -0.78125zm14.195282 -0.921875l0 7.390625q0 2.15625 -1.046875 3.1875q-1.046875 1.03125 -3.15625 1.03125q-1.171875 0 -2.21875 -0.34375q-1.046875 -0.34375 -1.703125 -0.953125l0.578125 -0.859375q0.609375 0.53125 1.46875 0.828125q0.875 0.3125 1.84375 0.3125q1.59375 0 2.34375 -0.75q0.75 -0.734375 0.75 -2.296875l0 -1.078125q-0.515625 0.796875 -1.375 1.21875q-0.859375 0.421875 -1.90625 0.421875q-1.171875 0 -2.140625 -0.515625q-0.96875 -0.53125 -1.53125 -1.46875q-0.546875 -0.9375 -0.546875 -2.125q0 -1.171875 0.546875 -2.09375q0.5625 -0.9375 1.515625 -1.453125q0.96875 -0.515625 2.15625 -0.515625q1.078125 0 1.9375 0.4375q0.875 0.4375 1.390625 1.25l0 -1.625l1.09375 0zm-4.296875 7.09375q0.90625 0 1.640625 -0.390625q0.734375 -0.390625 1.140625 -1.09375q0.40625 -0.703125 0.40625 -1.609375q0 -0.890625 -0.40625 -1.578125q-0.40625 -0.703125 -1.140625 -1.09375q-0.71875 -0.390625 -1.640625 -0.390625q-0.921875 0 -1.65625 0.390625q-0.71875 0.375 -1.125 1.078125q-0.40625 0.703125 -0.40625 1.59375q0 0.90625 0.40625 1.609375q0.40625 0.703125 1.125 1.09375q0.734375 0.390625 1.65625 0.390625zm7.476013 -7.09375l1.140625 0l0 8.421875l-1.140625 0l0 -8.421875zm0.578125 -1.828125q-0.359375 0 -0.59375 -0.234375q-0.234375 -0.25 -0.234375 -0.59375q0 -0.3125 0.234375 -0.546875q0.234375 -0.25 0.59375 -0.25q0.34375 0 0.578125 0.234375q0.25 0.234375 0.25 0.546875q0 0.359375 -0.25 0.609375q-0.234375 0.234375 -0.578125 0.234375zm5.991516 10.328125q-1.03125 0 -1.96875 -0.296875q-0.9375 -0.296875 -1.453125 -0.734375l0.5 -0.90625q0.53125 0.421875 1.328125 0.6875q0.8125 0.265625 1.671875 0.265625q1.15625 0 1.703125 -0.359375q0.546875 -0.359375 0.546875 -1.015625q0 -0.46875 -0.3125 -0.734375q-0.296875 -0.265625 -0.765625 -0.390625q-0.453125 -0.140625 -1.21875 -0.28125q-1.03125 -0.1875 -1.65625 -0.375q-0.625 -0.203125 -1.0625 -0.6875q-0.4375 -0.484375 -0.4375 -1.328125q0 -1.0625 0.875 -1.734375q0.890625 -0.671875 2.453125 -0.671875q0.8125 0 1.625 0.21875q0.828125 0.21875 1.359375 0.5625l-0.5 0.921875q-1.046875 -0.71875 -2.484375 -0.71875q-1.09375 0 -1.640625 0.390625q-0.546875 0.375 -0.546875 1.0q0 0.484375 0.3125 0.765625q0.3125 0.28125 0.765625 0.421875q0.46875 0.140625 1.28125 0.28125q1.015625 0.1875 1.625 0.390625q0.609375 0.1875 1.03125 0.65625q0.4375 0.453125 0.4375 1.28125q0 1.09375 -0.921875 1.75q-0.921875 0.640625 -2.546875 0.640625zm9.995911 -0.59375q-0.3125 0.296875 -0.796875 0.453125q-0.46875 0.140625 -0.984375 0.140625q-1.171875 0 -1.8125 -0.640625q-0.640625 -0.640625 -0.640625 -1.8125l0 -5.078125l-1.515625 0l0 -0.96875l1.515625 0l0 -1.828125l1.125 0l0 1.828125l2.5625 0l0 0.96875l-2.5625 0l0 5.015625q0 0.75 0.375 1.15625q0.375 0.390625 1.09375 0.390625q0.34375 0 0.671875 -0.109375q0.328125 -0.125 0.5625 -0.328125l0.40625 0.8125zm3.1522522 -6.25q0.40625 -0.84375 1.1875 -1.28125q0.796875 -0.4375 1.96875 -0.4375l0 1.109375l-0.28125 -0.015625q-1.328125 0 -2.078125 0.8125q-0.75 0.8125 -0.75 2.296875l0 4.28125l-1.140625 0l0 -8.421875l1.09375 0l0 1.65625zm12.640411 -1.65625l-4.203125 9.4375q-0.515625 1.171875 -1.1875 1.671875q-0.671875 0.5 -1.625 0.5q-0.59375 0 -1.125 -0.203125q-0.53125 -0.1875 -0.921875 -0.5625l0.53125 -0.859375q0.640625 0.640625 1.53125 0.640625q0.578125 0 0.984375 -0.328125q0.421875 -0.3125 0.765625 -1.078125l0.375 -0.8125l-3.765625 -8.40625l1.1875 0l3.171875 7.15625l3.15625 -7.15625l1.125 0z" fill-rule="nonzero"/><path fill="#cfe2f3" d="m517.54333 335.77182l0 0c0 -4.2821045 3.4713135 -7.7534485 7.753418 -7.7534485l118.44586 0c2.0563354 0 4.0284424 0.816864 5.482544 2.270935c1.4540405 1.4540405 2.270874 3.426178 2.270874 5.4825134l0 31.012787c0 4.2821045 -3.4713135 7.7534485 -7.753418 7.7534485l-118.44586 0c-4.2821045 0 -7.753418 -3.471344 -7.753418 -7.7534485z" fill-rule="evenodd"/><path stroke="#000000" stroke-width="1.0" stroke-linejoin="round" stroke-linecap="butt" d="m517.54333 335.77182l0 0c0 -4.2821045 3.4713135 -7.7534485 7.753418 -7.7534485l118.44586 0c2.0563354 0 4.0284424 0.816864 5.482544 2.270935c1.4540405 1.4540405 2.270874 3.426178 2.270874 5.4825134l0 31.012787c0 4.2821045 -3.4713135 7.7534485 -7.753418 7.7534485l-118.44586 0c-4.2821045 0 -7.753418 -3.471344 -7.753418 -7.7534485z" fill-rule="evenodd"/><path fill="#000000" d="m543.5256 346.60696l0 1.03125l-7.921875 0l0 -11.203125l7.671875 0l0 1.03125l-6.484375 0l0 3.984375l5.78125 0l0 1.0l-5.78125 0l0 4.15625l6.734375 0zm10.091675 -10.84375l0 11.875l-1.09375 0l0 -1.65625q-0.515625 0.84375 -1.359375 1.296875q-0.828125 0.4375 -1.890625 0.4375q-1.171875 0 -2.140625 -0.546875q-0.953125 -0.546875 -1.5 -1.515625q-0.546875 -0.96875 -0.546875 -2.21875q0 -1.25 0.546875 -2.21875q0.546875 -0.984375 1.5 -1.515625q0.96875 -0.546875 2.140625 -0.546875q1.03125 0 1.84375 0.4375q0.828125 0.421875 1.359375 1.234375l0 -5.0625l1.140625 0zm-4.234375 10.953125q0.875 0 1.578125 -0.40625q0.71875 -0.421875 1.125 -1.171875q0.40625 -0.75 0.40625 -1.703125q0 -0.96875 -0.40625 -1.71875q-0.40625 -0.75 -1.125 -1.15625q-0.703125 -0.40625 -1.578125 -0.40625q-0.90625 0 -1.625 0.40625q-0.703125 0.40625 -1.109375 1.15625q-0.40625 0.75 -0.40625 1.71875q0 0.953125 0.40625 1.703125q0.40625 0.75 1.109375 1.171875q0.71875 0.40625 1.625 0.40625zm7.3948975 -7.5l1.140625 0l0 8.421875l-1.140625 0l0 -8.421875zm0.578125 -1.828125q-0.359375 0 -0.59375 -0.234375q-0.234375 -0.25 -0.234375 -0.59375q0 -0.3125 0.234375 -0.546875q0.234375 -0.25 0.59375 -0.25q0.34375 0 0.578125 0.234375q0.25 0.234375 0.25 0.546875q0 0.359375 -0.25 0.609375q-0.234375 0.234375 -0.578125 0.234375zm8.163391 9.734375q-0.3125 0.296875 -0.796875 0.453125q-0.46875 0.140625 -0.984375 0.140625q-1.171875 0 -1.8125 -0.640625q-0.640625 -0.640625 -0.640625 -1.8125l0 -5.078125l-1.515625 0l0 -0.96875l1.515625 0l0 -1.828125l1.125 0l0 1.828125l2.5625 0l0 0.96875l-2.5625 0l0 5.015625q0 0.75 0.375 1.15625q0.375 0.390625 1.09375 0.390625q0.34375 0 0.671875 -0.109375q0.328125 -0.125 0.5625 -0.328125l0.40625 0.8125zm10.687988 -10.6875q2.140625 0 3.359375 1.03125q1.21875 1.015625 1.21875 2.8125q0 1.796875 -1.21875 2.8125q-1.21875 1.015625 -3.359375 1.015625l-3.0 0l0 3.53125l-1.1875 0l0 -11.203125l4.1875 0zm-0.03125 6.625q1.65625 0 2.53125 -0.71875q0.890625 -0.734375 0.890625 -2.0625q0 -1.359375 -0.890625 -2.078125q-0.875 -0.734375 -2.53125 -0.734375l-2.96875 0l0 5.59375l2.96875 0zm6.713806 -3.84375l1.140625 0l0 8.421875l-1.140625 0l0 -8.421875zm0.578125 -1.828125q-0.359375 0 -0.59375 -0.234375q-0.234375 -0.25 -0.234375 -0.59375q0 -0.3125 0.234375 -0.546875q0.234375 -0.25 0.59375 -0.25q0.34375 0 0.578125 0.234375q0.25 0.234375 0.25 0.546875q0 0.359375 -0.25 0.609375q-0.234375 0.234375 -0.578125 0.234375zm8.069641 1.765625q1.1875 0 2.140625 0.546875q0.96875 0.53125 1.5 1.515625q0.546875 0.96875 0.546875 2.21875q0 1.265625 -0.546875 2.25q-0.53125 0.96875 -1.484375 1.5q-0.953125 0.53125 -2.15625 0.53125q-1.03125 0 -1.859375 -0.421875q-0.8125 -0.421875 -1.34375 -1.234375l0 4.6875l-1.140625 0l0 -11.53125l1.09375 0l0 1.671875q0.515625 -0.828125 1.34375 -1.28125q0.84375 -0.453125 1.90625 -0.453125zm-0.078125 7.5625q0.875 0 1.59375 -0.40625q0.71875 -0.421875 1.125 -1.171875q0.40625 -0.75 0.40625 -1.703125q0 -0.96875 -0.40625 -1.703125q-0.40625 -0.75 -1.125 -1.15625q-0.71875 -0.421875 -1.59375 -0.421875q-0.90625 0 -1.625 0.421875q-0.703125 0.40625 -1.109375 1.15625q-0.40625 0.734375 -0.40625 1.703125q0 0.953125 0.40625 1.703125q0.40625 0.75 1.109375 1.171875q0.71875 0.40625 1.625 0.40625zm13.910522 -2.9375l-7.03125 0q0.09375 1.3125 1.0 2.125q0.921875 0.8125 2.3125 0.8125q0.78125 0 1.4375 -0.28125q0.65625 -0.28125 1.140625 -0.828125l0.640625 0.734375q-0.5625 0.671875 -1.40625 1.03125q-0.84375 0.34375 -1.84375 0.34375q-1.296875 0 -2.296875 -0.546875q-1.0 -0.5625 -1.5625 -1.53125q-0.5625 -0.96875 -0.5625 -2.203125q0 -1.234375 0.53125 -2.203125q0.546875 -0.984375 1.484375 -1.53125q0.9375 -0.546875 2.09375 -0.546875q1.171875 0 2.09375 0.546875q0.9375 0.546875 1.453125 1.515625q0.53125 0.96875 0.53125 2.21875l-0.015625 0.34375zm-4.0625 -3.640625q-1.21875 0 -2.046875 0.78125q-0.8125 0.765625 -0.921875 2.015625l5.96875 0q-0.109375 -1.25 -0.9375 -2.015625q-0.828125 -0.78125 -2.0625 -0.78125zm6.3983765 -4.375l1.140625 0l0 11.875l-1.140625 0l0 -11.875zm4.304016 3.453125l1.140625 0l0 8.421875l-1.140625 0l0 -8.421875zm0.578125 -1.828125q-0.359375 0 -0.59375 -0.234375q-0.234375 -0.25 -0.234375 -0.59375q0 -0.3125 0.234375 -0.546875q0.234375 -0.25 0.59375 -0.25q0.34375 0 0.578125 0.234375q0.25 0.234375 0.25 0.546875q0 0.359375 -0.25 0.609375q-0.234375 0.234375 -0.578125 0.234375zm8.022766 1.765625q1.578125 0 2.515625 0.921875q0.9375 0.921875 0.9375 2.6875l0 4.875l-1.140625 0l0 -4.765625q0 -1.3125 -0.65625 -2.0q-0.65625 -0.6875 -1.875 -0.6875q-1.359375 0 -2.15625 0.8125q-0.78125 0.796875 -0.78125 2.21875l0 4.421875l-1.140625 0l0 -8.421875l1.09375 0l0 1.5625q0.46875 -0.765625 1.28125 -1.1875q0.828125 -0.4375 1.921875 -0.4375zm13.895264 4.625l-7.03125 0q0.09375 1.3125 1.0 2.125q0.921875 0.8125 2.3125 0.8125q0.78125 0 1.4375 -0.28125q0.65625 -0.28125 1.140625 -0.828125l0.640625 0.734375q-0.5625 0.671875 -1.40625 1.03125q-0.84375 0.34375 -1.84375 0.34375q-1.296875 0 -2.296875 -0.546875q-1.0 -0.5625 -1.5625 -1.53125q-0.5625 -0.96875 -0.5625 -2.203125q0 -1.234375 0.53125 -2.203125q0.546875 -0.984375 1.484375 -1.53125q0.9375 -0.546875 2.09375 -0.546875q1.171875 0 2.09375 0.546875q0.9375 0.546875 1.453125 1.515625q0.53125 0.96875 0.53125 2.21875l-0.015625 0.34375zm-4.0625 -3.640625q-1.21875 0 -2.046875 0.78125q-0.8125 0.765625 -0.921875 2.015625l5.96875 0q-0.109375 -1.25 -0.9375 -2.015625q-0.828125 -0.78125 -2.0625 -0.78125z" fill-rule="nonzero"/><path fill="#000000" d="m564.21515 366.73196q-1.65625 0 -3.0 -0.734375q-1.328125 -0.734375 -2.09375 -2.03125q-0.765625 -1.3125 -0.765625 -2.921875q0 -1.625 0.765625 -2.921875q0.765625 -1.3125 2.109375 -2.046875q1.34375 -0.734375 3.0 -0.734375q1.25 0 2.296875 0.421875q1.0625 0.40625 1.796875 1.21875l-0.75 0.75q-1.3125 -1.328125 -3.3125 -1.328125q-1.328125 0 -2.421875 0.609375q-1.078125 0.59375 -1.703125 1.65625q-0.609375 1.0625 -0.609375 2.375q0 1.3125 0.609375 2.375q0.625 1.046875 1.703125 1.65625q1.09375 0.609375 2.421875 0.609375q2.015625 0 3.3125 -1.34375l0.75 0.75q-0.734375 0.796875 -1.796875 1.21875q-1.0625 0.421875 -2.3125 0.421875zm9.479736 -0.015625q-1.21875 0 -2.203125 -0.546875q-0.96875 -0.5625 -1.53125 -1.53125q-0.5625 -0.96875 -0.5625 -2.203125q0 -1.234375 0.5625 -2.203125q0.5625 -0.984375 1.53125 -1.53125q0.984375 -0.546875 2.203125 -0.546875q1.203125 0 2.171875 0.546875q0.984375 0.546875 1.53125 1.53125q0.5625 0.96875 0.5625 2.203125q0 1.234375 -0.5625 2.203125q-0.546875 0.96875 -1.53125 1.53125q-0.96875 0.546875 -2.171875 0.546875zm0 -1.0q0.890625 0 1.59375 -0.40625q0.71875 -0.421875 1.109375 -1.171875q0.40625 -0.75 0.40625 -1.703125q0 -0.96875 -0.40625 -1.71875q-0.390625 -0.75 -1.109375 -1.15625q-0.703125 -0.40625 -1.59375 -0.40625q-0.90625 0 -1.625 0.40625q-0.703125 0.40625 -1.109375 1.15625q-0.40625 0.75 -0.40625 1.71875q0 0.953125 0.40625 1.703125q0.40625 0.75 1.109375 1.171875q0.71875 0.40625 1.625 0.40625zm10.875793 -7.5625q1.578125 0 2.515625 0.921875q0.9375 0.921875 0.9375 2.6875l0 4.875l-1.140625 0l0 -4.765625q0 -1.3125 -0.65625 -2.0q-0.65625 -0.6875 -1.875 -0.6875q-1.359375 0 -2.15625 0.8125q-0.78125 0.796875 -0.78125 2.21875l0 4.421875l-1.140625 0l0 -8.421875l1.09375 0l0 1.5625q0.46875 -0.765625 1.28125 -1.1875q0.828125 -0.4375 1.921875 -0.4375zm9.332031 -2.5q-0.75 0 -1.125 0.40625q-0.375 0.390625 -0.375 1.171875l0 0.984375l2.59375 0l0 0.96875l-2.5625 0l0 7.453125l-1.125 0l0 -7.453125l-1.515625 0l0 -0.96875l1.515625 0l0 -1.03125q0 -1.15625 0.65625 -1.828125q0.671875 -0.671875 1.875 -0.671875q0.484375 0 0.9375 0.140625q0.453125 0.125 0.75 0.390625l-0.390625 0.84375q-0.484375 -0.40625 -1.234375 -0.40625zm3.90625 2.5625l1.140625 0l0 8.421875l-1.140625 0l0 -8.421875zm0.578125 -1.828125q-0.359375 0 -0.59375 -0.234375q-0.234375 -0.25 -0.234375 -0.59375q0 -0.3125 0.234375 -0.546875q0.234375 -0.25 0.59375 -0.25q0.34375 0 0.578125 0.234375q0.25 0.234375 0.25 0.546875q0 0.359375 -0.25 0.609375q-0.234375 0.234375 -0.578125 0.234375zm11.523621 1.828125l0 7.390625q0 2.15625 -1.046875 3.1875q-1.046875 1.03125 -3.15625 1.03125q-1.171875 0 -2.21875 -0.34375q-1.046875 -0.34375 -1.703125 -0.953125l0.578125 -0.859375q0.609375 0.53125 1.46875 0.828125q0.875 0.3125 1.84375 0.3125q1.59375 0 2.34375 -0.75q0.75 -0.734375 0.75 -2.296875l0 -1.078125q-0.515625 0.796875 -1.375 1.21875q-0.859375 0.421875 -1.90625 0.421875q-1.171875 0 -2.140625 -0.515625q-0.96875 -0.53125 -1.53125 -1.46875q-0.546875 -0.9375 -0.546875 -2.125q0 -1.171875 0.546875 -2.09375q0.5625 -0.9375 1.515625 -1.453125q0.96875 -0.515625 2.15625 -0.515625q1.078125 0 1.9375 0.4375q0.875 0.4375 1.390625 1.25l0 -1.625l1.09375 0zm-4.296875 7.09375q0.90625 0 1.640625 -0.390625q0.734375 -0.390625 1.140625 -1.09375q0.40625 -0.703125 0.40625 -1.609375q0 -0.890625 -0.40625 -1.578125q-0.40625 -0.703125 -1.140625 -1.09375q-0.71875 -0.390625 -1.640625 -0.390625q-0.921875 0 -1.65625 0.390625q-0.71875 0.375 -1.125 1.078125q-0.40625 0.703125 -0.40625 1.59375q0 0.90625 0.40625 1.609375q0.40625 0.703125 1.125 1.09375q0.734375 0.390625 1.65625 0.390625z" fill-rule="nonzero"/><path fill="#cfe2f3" d="m672.0591 335.77182l0 0c0 -4.2821045 3.4713135 -7.7534485 7.753418 -7.7534485l118.44586 0c2.0563354 0 4.0284424 0.816864 5.482544 2.270935c1.4540405 1.4540405 2.270935 3.426178 2.270935 5.4825134l0 31.012787c0 4.2821045 -3.4713745 7.7534485 -7.753479 7.7534485l-118.44586 0c-4.2821045 0 -7.753418 -3.471344 -7.753418 -7.7534485z" fill-rule="evenodd"/><path stroke="#000000" stroke-width="1.0" stroke-linejoin="round" stroke-linecap="butt" d="m672.0591 335.77182l0 0c0 -4.2821045 3.4713135 -7.7534485 7.753418 -7.7534485l118.44586 0c2.0563354 0 4.0284424 0.816864 5.482544 2.270935c1.4540405 1.4540405 2.270935 3.426178 2.270935 5.4825134l0 31.012787c0 4.2821045 -3.4713745 7.7534485 -7.753479 7.7534485l-118.44586 0c-4.2821045 0 -7.753418 -3.471344 -7.753418 -7.7534485z" fill-rule="evenodd"/><path fill="#000000" d="m715.5471 347.73196q-2.1875 0 -3.40625 -1.25q-1.203125 -1.25 -1.203125 -3.625l0 -6.421875l1.171875 0l0 6.375q0 1.953125 0.875 2.921875q0.890625 0.953125 2.5625 0.953125q1.671875 0 2.546875 -0.953125q0.890625 -0.96875 0.890625 -2.921875l0 -6.375l1.140625 0l0 6.421875q0 2.375 -1.203125 3.625q-1.203125 1.25 -3.375 1.25zm12.250183 -8.578125q1.1875 0 2.140625 0.546875q0.96875 0.53125 1.5 1.515625q0.546875 0.96875 0.546875 2.21875q0 1.265625 -0.546875 2.25q-0.53125 0.96875 -1.484375 1.5q-0.953125 0.53125 -2.15625 0.53125q-1.03125 0 -1.859375 -0.421875q-0.8125 -0.421875 -1.34375 -1.234375l0 4.6875l-1.140625 0l0 -11.53125l1.09375 0l0 1.671875q0.515625 -0.828125 1.34375 -1.28125q0.84375 -0.453125 1.90625 -0.453125zm-0.078125 7.5625q0.875 0 1.59375 -0.40625q0.71875 -0.421875 1.125 -1.171875q0.40625 -0.75 0.40625 -1.703125q0 -0.96875 -0.40625 -1.703125q-0.40625 -0.75 -1.125 -1.15625q-0.71875 -0.421875 -1.59375 -0.421875q-0.90625 0 -1.625 0.421875q-0.703125 0.40625 -1.109375 1.15625q-0.40625 0.734375 -0.40625 1.703125q0 0.953125 0.40625 1.703125q0.40625 0.75 1.109375 1.171875q0.71875 0.40625 1.625 0.40625zm14.269897 -10.953125l0 11.875l-1.09375 0l0 -1.65625q-0.515625 0.84375 -1.359375 1.296875q-0.828125 0.4375 -1.890625 0.4375q-1.171875 0 -2.140625 -0.546875q-0.953125 -0.546875 -1.5 -1.515625q-0.546875 -0.96875 -0.546875 -2.21875q0 -1.25 0.546875 -2.21875q0.546875 -0.984375 1.5 -1.515625q0.96875 -0.546875 2.140625 -0.546875q1.03125 0 1.84375 0.4375q0.828125 0.421875 1.359375 1.234375l0 -5.0625l1.140625 0zm-4.234375 10.953125q0.875 0 1.578125 -0.40625q0.71875 -0.421875 1.125 -1.171875q0.40625 -0.75 0.40625 -1.703125q0 -0.96875 -0.40625 -1.71875q-0.40625 -0.75 -1.125 -1.15625q-0.703125 -0.40625 -1.578125 -0.40625q-0.90625 0 -1.625 0.40625q-0.703125 0.40625 -1.109375 1.15625q-0.40625 0.75 -0.40625 1.71875q0 0.953125 0.40625 1.703125q0.40625 0.75 1.109375 1.171875q0.71875 0.40625 1.625 0.40625zm10.348022 -7.5625q1.640625 0 2.515625 0.828125q0.890625 0.828125 0.890625 2.4375l0 5.21875l-1.09375 0l0 -1.3125q-0.375 0.65625 -1.125 1.03125q-0.75 0.359375 -1.765625 0.359375q-1.40625 0 -2.25 -0.671875q-0.828125 -0.671875 -0.828125 -1.78125q0 -1.0625 0.78125 -1.71875q0.78125 -0.65625 2.46875 -0.65625l2.671875 0l0 -0.515625q0 -1.09375 -0.609375 -1.65625q-0.609375 -0.5625 -1.765625 -0.5625q-0.8125 0 -1.546875 0.265625q-0.734375 0.265625 -1.265625 0.71875l-0.5 -0.84375q0.640625 -0.546875 1.53125 -0.84375q0.890625 -0.296875 1.890625 -0.296875zm-0.40625 7.671875q0.96875 0 1.65625 -0.4375q0.6875 -0.453125 1.015625 -1.28125l0 -1.375l-2.640625 0q-2.15625 0 -2.15625 1.5q0 0.75 0.5625 1.171875q0.5625 0.421875 1.5625 0.421875zm11.330627 0.296875q-0.3125 0.296875 -0.796875 0.453125q-0.46875 0.140625 -0.984375 0.140625q-1.171875 0 -1.8125 -0.640625q-0.640625 -0.640625 -0.640625 -1.8125l0 -5.078125l-1.515625 0l0 -0.96875l1.515625 0l0 -1.828125l1.125 0l0 1.828125l2.5625 0l0 0.96875l-2.5625 0l0 5.015625q0 0.75 0.375 1.15625q0.375 0.390625 1.09375 0.390625q0.34375 0 0.671875 -0.109375q0.328125 -0.125 0.5625 -0.328125l0.40625 0.8125zm9.082642 -3.34375l-7.03125 0q0.09375 1.3125 1.0 2.125q0.921875 0.8125 2.3125 0.8125q0.78125 0 1.4375 -0.28125q0.65625 -0.28125 1.140625 -0.828125l0.640625 0.734375q-0.5625 0.671875 -1.40625 1.03125q-0.84375 0.34375 -1.84375 0.34375q-1.296875 0 -2.296875 -0.546875q-1.0 -0.5625 -1.5625 -1.53125q-0.5625 -0.96875 -0.5625 -2.203125q0 -1.234375 0.53125 -2.203125q0.546875 -0.984375 1.484375 -1.53125q0.9375 -0.546875 2.09375 -0.546875q1.171875 0 2.09375 0.546875q0.9375 0.546875 1.453125 1.515625q0.53125 0.96875 0.53125 2.21875l-0.015625 0.34375zm-4.0625 -3.640625q-1.21875 0 -2.046875 0.78125q-0.8125 0.765625 -0.921875 2.015625l5.96875 0q-0.109375 -1.25 -0.9375 -2.015625q-0.828125 -0.78125 -2.0625 -0.78125z" fill-rule="nonzero"/><path fill="#000000" d="m712.515 355.4351q2.140625 0 3.359375 1.03125q1.21875 1.015625 1.21875 2.8125q0 1.796875 -1.21875 2.8125q-1.21875 1.015625 -3.359375 1.015625l-3.0 0l0 3.53125l-1.1875 0l0 -11.203125l4.1875 0zm-0.03125 6.625q1.65625 0 2.53125 -0.71875q0.890625 -0.734375 0.890625 -2.0625q0 -1.359375 -0.890625 -2.078125q-0.875 -0.734375 -2.53125 -0.734375l-2.96875 0l0 5.59375l2.96875 0zm6.713745 -3.84375l1.140625 0l0 8.421875l-1.140625 0l0 -8.421875zm0.578125 -1.828125q-0.359375 0 -0.59375 -0.234375q-0.234375 -0.25 -0.234375 -0.59375q0 -0.3125 0.234375 -0.546875q0.234375 -0.25 0.59375 -0.25q0.34375 0 0.578125 0.234375q0.25 0.234375 0.25 0.546875q0 0.359375 -0.25 0.609375q-0.234375 0.234375 -0.578125 0.234375zm8.069641 1.765625q1.1875 0 2.140625 0.546875q0.96875 0.53125 1.5 1.515625q0.546875 0.96875 0.546875 2.21875q0 1.265625 -0.546875 2.25q-0.53125 0.96875 -1.484375 1.5q-0.953125 0.53125 -2.15625 0.53125q-1.03125 0 -1.859375 -0.421875q-0.8125 -0.421875 -1.34375 -1.234375l0 4.6875l-1.140625 0l0 -11.53125l1.09375 0l0 1.671875q0.515625 -0.828125 1.34375 -1.28125q0.84375 -0.453125 1.90625 -0.453125zm-0.078125 7.5625q0.875 0 1.59375 -0.40625q0.71875 -0.421875 1.125 -1.171875q0.40625 -0.75 0.40625 -1.703125q0 -0.96875 -0.40625 -1.703125q-0.40625 -0.75 -1.125 -1.15625q-0.71875 -0.421875 -1.59375 -0.421875q-0.90625 0 -1.625 0.421875q-0.703125 0.40625 -1.109375 1.15625q-0.40625 0.734375 -0.40625 1.703125q0 0.953125 0.40625 1.703125q0.40625 0.75 1.109375 1.171875q0.71875 0.40625 1.625 0.40625zm13.910522 -2.9375l-7.03125 0q0.09375 1.3125 1.0 2.125q0.921875 0.8125 2.3125 0.8125q0.78125 0 1.4375 -0.28125q0.65625 -0.28125 1.140625 -0.828125l0.640625 0.734375q-0.5625 0.671875 -1.40625 1.03125q-0.84375 0.34375 -1.84375 0.34375q-1.296875 0 -2.296875 -0.546875q-1.0 -0.5625 -1.5625 -1.53125q-0.5625 -0.96875 -0.5625 -2.203125q0 -1.234375 0.53125 -2.203125q0.546875 -0.984375 1.484375 -1.53125q0.9375 -0.546875 2.09375 -0.546875q1.171875 0 2.09375 0.546875q0.9375 0.546875 1.453125 1.515625q0.53125 0.96875 0.53125 2.21875l-0.015625 0.34375zm-4.0625 -3.640625q-1.21875 0 -2.046875 0.78125q-0.8125 0.765625 -0.921875 2.015625l5.96875 0q-0.109375 -1.25 -0.9375 -2.015625q-0.828125 -0.78125 -2.0625 -0.78125zm6.3983765 -4.375l1.140625 0l0 11.875l-1.140625 0l0 -11.875zm4.304016 3.453125l1.140625 0l0 8.421875l-1.140625 0l0 -8.421875zm0.578125 -1.828125q-0.359375 0 -0.59375 -0.234375q-0.234375 -0.25 -0.234375 -0.59375q0 -0.3125 0.234375 -0.546875q0.234375 -0.25 0.59375 -0.25q0.34375 0 0.578125 0.234375q0.25 0.234375 0.25 0.546875q0 0.359375 -0.25 0.609375q-0.234375 0.234375 -0.578125 0.234375zm8.022766 1.765625q1.578125 0 2.515625 0.921875q0.9375 0.921875 0.9375 2.6875l0 4.875l-1.140625 0l0 -4.765625q0 -1.3125 -0.65625 -2.0q-0.65625 -0.6875 -1.875 -0.6875q-1.359375 0 -2.15625 0.8125q-0.78125 0.796875 -0.78125 2.21875l0 4.421875l-1.140625 0l0 -8.421875l1.09375 0l0 1.5625q0.46875 -0.765625 1.28125 -1.1875q0.828125 -0.4375 1.921875 -0.4375zm13.895264 4.625l-7.03125 0q0.09375 1.3125 1.0 2.125q0.921875 0.8125 2.3125 0.8125q0.78125 0 1.4375 -0.28125q0.65625 -0.28125 1.140625 -0.828125l0.640625 0.734375q-0.5625 0.671875 -1.40625 1.03125q-0.84375 0.34375 -1.84375 0.34375q-1.296875 0 -2.296875 -0.546875q-1.0 -0.5625 -1.5625 -1.53125q-0.5625 -0.96875 -0.5625 -2.203125q0 -1.234375 0.53125 -2.203125q0.546875 -0.984375 1.484375 -1.53125q0.9375 -0.546875 2.09375 -0.546875q1.171875 0 2.09375 0.546875q0.9375 0.546875 1.453125 1.515625q0.53125 0.96875 0.53125 2.21875l-0.015625 0.34375zm-4.0625 -3.640625q-1.21875 0 -2.046875 0.78125q-0.8125 0.765625 -0.921875 2.015625l5.96875 0q-0.109375 -1.25 -0.9375 -2.015625q-0.828125 -0.78125 -2.0625 -0.78125z" fill-rule="nonzero"/><path fill="#000000" fill-opacity="0.0" d="m187.94882 351.2784l20.566925 0" fill-rule="evenodd"/><path stroke="#000000" stroke-width="1.0" stroke-linejoin="round" stroke-linecap="butt" d="m187.94882 351.2784l14.566925 0" fill-rule="evenodd"/><path fill="#000000" stroke="#000000" stroke-width="1.0" stroke-linecap="butt" d="m202.51575 352.93015l4.538101 -1.6517334l-4.538101 -1.6517334z" fill-rule="evenodd"/><path fill="#000000" fill-opacity="0.0" d="m342.46457 351.27823l20.566925 0" fill-rule="evenodd"/><path stroke="#000000" stroke-width="1.0" stroke-linejoin="round" stroke-linecap="butt" d="m342.46457 351.27823l14.566925 0" fill-rule="evenodd"/><path fill="#000000" stroke="#000000" stroke-width="1.0" stroke-linecap="butt" d="m357.0315 352.92996l4.538086 -1.6517334l-4.538086 -1.6517334z" fill-rule="evenodd"/><path fill="#000000" fill-opacity="0.0" d="m496.98032 351.27823l20.566925 0" fill-rule="evenodd"/><path stroke="#000000" stroke-width="1.0" stroke-linejoin="round" stroke-linecap="butt" d="m496.98032 351.27823l14.566925 0" fill-rule="evenodd"/><path fill="#000000" stroke="#000000" stroke-width="1.0" stroke-linecap="butt" d="m511.54724 352.92996l4.538086 -1.6517334l-4.538086 -1.6517334z" fill-rule="evenodd"/><path fill="#000000" fill-opacity="0.0" d="m651.49603 351.27823l20.566956 0" fill-rule="evenodd"/><path stroke="#000000" stroke-width="1.0" stroke-linejoin="round" stroke-linecap="butt" d="m651.49603 351.27823l14.566956 0" fill-rule="evenodd"/><path fill="#000000" stroke="#000000" stroke-width="1.0" stroke-linecap="butt" d="m666.063 352.92996l4.538086 -1.6517334l-4.538086 -1.6517334z" fill-rule="evenodd"/><path fill="#000000" fill-opacity="0.0" d="m806.01184 351.27823l16.724365 0" fill-rule="evenodd"/><path stroke="#000000" stroke-width="1.0" stroke-linejoin="round" stroke-linecap="butt" d="m806.01184 351.27823l10.724365 0" fill-rule="evenodd"/><path fill="#000000" stroke="#000000" stroke-width="1.0" stroke-linecap="butt" d="m816.7362 352.92996l4.538086 -1.6517334l-4.538086 -1.6517334z" fill-rule="evenodd"/><path fill="#000000" fill-opacity="0.0" d="m871.82806 377.8609l0 24.76416l-132.78735 0l0 -28.071259" fill-rule="evenodd"/><path stroke="#000000" stroke-width="1.0" stroke-linejoin="round" stroke-linecap="butt" stroke-dasharray="4.0,3.0" d="m871.82806 377.8609l0 24.76413l-132.78735 0l0 -24.644135" fill-rule="evenodd"/><path fill="#000000" stroke="#000000" stroke-width="1.0" stroke-linecap="butt" d="m739.0407 377.9809l1.1245728 1.1245728l-1.1245728 -3.0897522l-1.1246338 3.0897522z" fill-rule="evenodd"/><path fill="#000000" fill-opacity="0.0" d="m871.82806 377.8609l0 24.76416l-287.30707 0l0 -28.071259" fill-rule="evenodd"/><path stroke="#000000" stroke-width="1.0" stroke-linejoin="round" stroke-linecap="butt" stroke-dasharray="4.0,3.0" d="m871.82806 377.8609l0 24.76413l-287.30707 0l0 -24.644135" fill-rule="evenodd"/><path fill="#000000" stroke="#000000" stroke-width="1.0" stroke-linecap="butt" d="m584.521 377.9809l1.1245728 1.1245728l-1.1245728 -3.0897522l-1.1245728 3.0897522z" fill-rule="evenodd"/><path fill="#000000" fill-opacity="0.0" d="m871.82806 377.8609l0 24.76416l-441.82675 0l0 -28.071259" fill-rule="evenodd"/><path stroke="#000000" stroke-width="1.0" stroke-linejoin="round" stroke-linecap="butt" stroke-dasharray="4.0,3.0" d="m871.82806 377.8609l0 24.76413l-441.82675 0l0 -24.644135" fill-rule="evenodd"/><path fill="#000000" stroke="#000000" stroke-width="1.0" stroke-linecap="butt" d="m430.0013 377.9809l1.1245728 1.1245728l-1.1245728 -3.0897522l-1.1245728 3.0897522z" fill-rule="evenodd"/><path fill="#000000" fill-opacity="0.0" d="m871.82806 377.8609l0 24.76416l-596.34644 0l0 -28.071259" fill-rule="evenodd"/><path stroke="#000000" stroke-width="1.0" stroke-linejoin="round" stroke-linecap="butt" stroke-dasharray="4.0,3.0" d="m871.82806 377.8609l0 24.76413l-596.34644 0l0 -24.644135" fill-rule="evenodd"/><path fill="#000000" stroke="#000000" stroke-width="1.0" stroke-linecap="butt" d="m275.48163 377.9809l1.1245728 1.1245728l-1.1245728 -3.0897522l-1.1245728 3.0897522z" fill-rule="evenodd"/><path fill="#000000" fill-opacity="0.0" d="m871.82806 377.8609l0 24.99997l-750.8661 0l0 -28.307068" fill-rule="evenodd"/><path stroke="#000000" stroke-width="1.0" stroke-linejoin="round" stroke-linecap="butt" stroke-dasharray="4.0,3.0" d="m871.82806 377.8609l0 25.0l-750.8661 0l0 -24.880005" fill-rule="evenodd"/><path fill="#000000" stroke="#000000" stroke-width="1.0" stroke-linecap="butt" d="m120.961945 377.9809l1.1245804 1.1245728l-1.1245804 -3.0897522l-1.124588 3.0897522z" fill-rule="evenodd"/><path fill="#000000" fill-opacity="0.0" d="m65.93438 288.3491l232.6614 0l0 28.346436l-232.6614 0z" fill-rule="evenodd"/><path fill="#000000" d="m81.950005 302.20657q2.5 0 3.90625 1.203125q1.421875 1.1875 1.421875 3.28125q0 2.078125 -1.421875 3.265625q-1.40625 1.1875 -3.90625 1.1875l-3.515625 0l0 4.125l-1.375 0l0 -13.0625l4.890625 0zm-0.03125 7.734375q1.9375 0 2.953125 -0.84375q1.03125 -0.859375 1.03125 -2.40625q0 -1.59375 -1.03125 -2.4375q-1.015625 -0.84375 -2.953125 -0.84375l-3.484375 0l0 6.53125l3.484375 0zm7.825226 -4.484375l1.328125 0l0 9.8125l-1.328125 0l0 -9.8125zm0.671875 -2.140625q-0.40625 0 -0.6875 -0.28125q-0.28125 -0.28125 -0.28125 -0.671875q0 -0.375 0.28125 -0.65625q0.28125 -0.28125 0.6875 -0.28125q0.40625 0 0.6875 0.28125q0.28125 0.265625 0.28125 0.640625q0 0.40625 -0.28125 0.6875q-0.28125 0.28125 -0.6875 0.28125zm9.409164 2.0625q1.375 0 2.484375 0.625q1.125 0.625 1.765625 1.765625q0.640625 1.140625 0.640625 2.59375q0 1.46875 -0.640625 2.609375q-0.640625 1.140625 -1.75 1.765625q-1.109375 0.625 -2.5 0.625q-1.203125 0 -2.171875 -0.484375q-0.953125 -0.5 -1.5625 -1.453125l0 5.46875l-1.328125 0l0 -13.4375l1.265625 0l0 1.9375q0.609375 -0.96875 1.578125 -1.484375q0.984375 -0.53125 2.21875 -0.53125zm-0.09375 8.8125q1.015625 0 1.859375 -0.46875q0.84375 -0.484375 1.3125 -1.359375q0.484375 -0.875 0.484375 -2.0q0 -1.125 -0.484375 -1.984375q-0.46875 -0.875 -1.3125 -1.359375q-0.84375 -0.484375 -1.859375 -0.484375q-1.046875 0 -1.875 0.484375q-0.828125 0.484375 -1.3125 1.359375q-0.46875 0.859375 -0.46875 1.984375q0 1.125 0.46875 2.0q0.484375 0.875 1.3125 1.359375q0.828125 0.46875 1.875 0.46875zm16.227066 -3.421875l-8.203125 0q0.109375 1.53125 1.171875 2.484375q1.0625 0.9375 2.6875 0.9375q0.90625 0 1.671875 -0.328125q0.765625 -0.328125 1.328125 -0.96875l0.75 0.859375q-0.65625 0.78125 -1.640625 1.203125q-0.96875 0.40625 -2.15625 0.40625q-1.5 0 -2.671875 -0.640625q-1.15625 -0.640625 -1.8125 -1.78125q-0.65625 -1.140625 -0.65625 -2.578125q0 -1.4375 0.625 -2.578125q0.625 -1.140625 1.71875 -1.765625q1.09375 -0.640625 2.453125 -0.640625q1.359375 0 2.4375 0.640625q1.078125 0.625 1.6875 1.765625q0.625 1.125 0.625 2.578125l-0.015625 0.40625zm-4.734375 -4.25q-1.421875 0 -2.390625 0.90625q-0.953125 0.90625 -1.078125 2.359375l6.953125 0q-0.125 -1.453125 -1.09375 -2.359375q-0.953125 -0.90625 -2.390625 -0.90625zm7.4558716 -5.09375l1.328125 0l0 13.84375l-1.328125 0l0 -13.84375zm5.0185394 4.03125l1.328125 0l0 9.8125l-1.328125 0l0 -9.8125zm0.671875 -2.140625q-0.40625 0 -0.6875 -0.28125q-0.28125 -0.28125 -0.28125 -0.671875q0 -0.375 0.28125 -0.65625q0.28125 -0.28125 0.6875 -0.28125q0.40625 0 0.6875 0.28125q0.28125 0.265625 0.28125 0.640625q0 0.40625 -0.28125 0.6875q-0.28125 0.28125 -0.6875 0.28125zm9.346672 2.0625q1.84375 0 2.9375 1.078125q1.09375 1.0625 1.09375 3.125l0 5.6875l-1.328125 0l0 -5.5625q0 -1.53125 -0.765625 -2.328125q-0.765625 -0.796875 -2.171875 -0.796875q-1.59375 0 -2.515625 0.9375q-0.921875 0.9375 -0.921875 2.59375l0 5.15625l-1.328125 0l0 -9.8125l1.265625 0l0 1.8125q0.546875 -0.90625 1.5 -1.390625q0.96875 -0.5 2.234375 -0.5zm16.214493 5.390625l-8.203125 0q0.109375 1.53125 1.171875 2.484375q1.0625 0.9375 2.6875 0.9375q0.90625 0 1.671875 -0.328125q0.765625 -0.328125 1.328125 -0.96875l0.75 0.859375q-0.65625 0.78125 -1.640625 1.203125q-0.96875 0.40625 -2.15625 0.40625q-1.5 0 -2.671875 -0.640625q-1.15625 -0.640625 -1.8125 -1.78125q-0.65625 -1.140625 -0.65625 -2.578125q0 -1.4375 0.625 -2.578125q0.625 -1.140625 1.71875 -1.765625q1.09375 -0.640625 2.453125 -0.640625q1.359375 0 2.4375 0.640625q1.078125 0.625 1.6875 1.765625q0.625 1.125 0.625 2.578125l-0.015625 0.40625zm-4.734375 -4.25q-1.421875 0 -2.390625 0.90625q-0.953125 0.90625 -1.078125 2.359375l6.953125 0q-0.125 -1.453125 -1.09375 -2.359375q-0.953125 -0.90625 -2.390625 -0.90625zm30.562561 -4.3125l-4.40625 13.0625l-1.453125 0l-3.828125 -11.140625l-3.84375 11.140625l-1.4375 0l-4.40625 -13.0625l1.421875 0l3.765625 11.234375l3.90625 -11.234375l1.28125 0l3.84375 11.296875l3.828125 -11.296875l1.328125 0zm5.497299 13.15625q-1.421875 0 -2.5625 -0.640625q-1.125 -0.640625 -1.78125 -1.78125q-0.65625 -1.140625 -0.65625 -2.578125q0 -1.4375 0.65625 -2.578125q0.65625 -1.140625 1.78125 -1.765625q1.140625 -0.640625 2.5625 -0.640625q1.421875 0 2.546875 0.640625q1.140625 0.625 1.78125 1.765625q0.65625 1.140625 0.65625 2.578125q0 1.4375 -0.65625 2.578125q-0.640625 1.140625 -1.78125 1.78125q-1.125 0.640625 -2.546875 0.640625zm0 -1.171875q1.046875 0 1.875 -0.46875q0.828125 -0.484375 1.296875 -1.359375q0.46875 -0.875 0.46875 -2.0q0 -1.125 -0.46875 -2.0q-0.46875 -0.875 -1.296875 -1.34375q-0.828125 -0.484375 -1.875 -0.484375q-1.046875 0 -1.875 0.484375q-0.828125 0.46875 -1.3125 1.34375q-0.46875 0.875 -0.46875 2.0q0 1.125 0.46875 2.0q0.484375 0.875 1.3125 1.359375q0.828125 0.46875 1.875 0.46875zm8.947464 -6.8125q0.46875 -0.984375 1.390625 -1.484375q0.921875 -0.515625 2.296875 -0.515625l0 1.296875l-0.328125 -0.03125q-1.546875 0 -2.421875 0.953125q-0.875 0.953125 -0.875 2.671875l0 5.0l-1.328125 0l0 -9.8125l1.265625 0l0 1.921875zm9.706818 2.96875l-2.3125 2.125l0 2.796875l-1.328125 0l0 -13.84375l1.328125 0l0 9.390625l5.859375 -5.359375l1.640625 0l-4.203125 4.015625l4.59375 5.796875l-1.625 0l-3.953125 -4.921875zm10.821777 -7.890625q-0.859375 0 -1.296875 0.46875q-0.4375 0.453125 -0.4375 1.375l0 1.15625l3.015625 0l0 1.125l-2.984375 0l0 8.6875l-1.3125 0l0 -8.6875l-1.765625 0l0 -1.125l1.765625 0l0 -1.21875q0 -1.34375 0.765625 -2.125q0.78125 -0.78125 2.1875 -0.78125q0.5625 0 1.078125 0.15625q0.53125 0.15625 0.890625 0.453125l-0.453125 1.0q-0.578125 -0.484375 -1.453125 -0.484375zm3.078125 -1.03125l1.328125 0l0 13.84375l-1.328125 0l0 -13.84375zm9.030502 13.9375q-1.421875 0 -2.5625 -0.640625q-1.125 -0.640625 -1.78125 -1.78125q-0.65625 -1.140625 -0.65625 -2.578125q0 -1.4375 0.65625 -2.578125q0.65625 -1.140625 1.78125 -1.765625q1.140625 -0.640625 2.5625 -0.640625q1.421875 0 2.546875 0.640625q1.140625 0.625 1.78125 1.765625q0.65625 1.140625 0.65625 2.578125q0 1.4375 -0.65625 2.578125q-0.640625 1.140625 -1.78125 1.78125q-1.125 0.640625 -2.546875 0.640625zm0 -1.171875q1.046875 0 1.875 -0.46875q0.828125 -0.484375 1.296875 -1.359375q0.46875 -0.875 0.46875 -2.0q0 -1.125 -0.46875 -2.0q-0.46875 -0.875 -1.296875 -1.34375q-0.828125 -0.484375 -1.875 -0.484375q-1.046875 0 -1.875 0.484375q-0.828125 0.46875 -1.3125 1.34375q-0.46875 0.875 -0.46875 2.0q0 1.125 0.46875 2.0q0.484375 0.875 1.3125 1.359375q0.828125 0.46875 1.875 0.46875zm21.80809 -8.734375l-3.71875 9.8125l-1.25 0l-3.09375 -8.046875l-3.09375 8.046875l-1.25 0l-3.6875 -9.8125l1.265625 0l3.078125 8.34375l3.15625 -8.34375l1.125 0l3.140625 8.34375l3.109375 -8.34375l1.21875 0z" fill-rule="nonzero"/><path fill="#000000" fill-opacity="0.0" d="m402.82153 394.8609l187.1496 0l0 28.346436l-187.1496 0z" fill-rule="evenodd"/><path fill="#000000" d="m474.1347 407.67526l1.078125 0l0 10.265625l-1.078125 0l0 -10.265625zm8.2699585 9.796875q-0.296875 0.265625 -0.734375 0.40625q-0.421875 0.140625 -0.890625 0.140625q-1.09375 0 -1.6875 -0.578125q-0.578125 -0.59375 -0.578125 -1.671875l0 -4.65625l-1.375 0l0 -0.875l1.375 0l0 -1.6875l1.046875 0l0 1.6875l2.34375 0l0 0.875l-2.34375 0l0 4.59375q0 0.703125 0.34375 1.0625q0.34375 0.34375 0.984375 0.34375q0.328125 0 0.625 -0.09375q0.296875 -0.109375 0.515625 -0.296875l0.375 0.75zm8.312408 -3.0625l-6.4375 0q0.078125 1.203125 0.90625 1.953125q0.84375 0.734375 2.125 0.734375q0.71875 0 1.3125 -0.25q0.609375 -0.265625 1.046875 -0.765625l0.578125 0.671875q-0.5 0.609375 -1.28125 0.9375q-0.765625 0.328125 -1.6875 0.328125q-1.1875 0 -2.109375 -0.5q-0.90625 -0.515625 -1.421875 -1.40625q-0.515625 -0.890625 -0.515625 -2.03125q0 -1.125 0.484375 -2.015625q0.5 -0.890625 1.359375 -1.390625q0.859375 -0.5 1.921875 -0.5q1.078125 0 1.921875 0.5q0.84375 0.5 1.328125 1.390625q0.484375 0.875 0.484375 2.015625l-0.015625 0.328125zm-3.71875 -3.34375q-1.109375 0 -1.875 0.71875q-0.75 0.703125 -0.84375 1.84375l5.46875 0q-0.109375 -1.140625 -0.875 -1.84375q-0.75 -0.71875 -1.875 -0.71875zm6.868042 0.671875q0.359375 -0.765625 1.078125 -1.15625q0.734375 -0.40625 1.796875 -0.40625l0 1.015625l-0.25 -0.015625q-1.203125 0 -1.90625 0.75q-0.6875 0.734375 -0.6875 2.09375l0 3.921875l-1.03125 0l0 -7.703125l1.0 0l0 1.5zm7.432678 -1.5625q1.515625 0 2.3125 0.75q0.8125 0.75 0.8125 2.234375l0 4.78125l-1.0 0l0 -1.203125q-0.34375 0.609375 -1.03125 0.953125q-0.671875 0.328125 -1.609375 0.328125q-1.296875 0 -2.0625 -0.609375q-0.75 -0.625 -0.75 -1.640625q0 -0.984375 0.703125 -1.578125q0.71875 -0.609375 2.265625 -0.609375l2.453125 0l0 -0.46875q0 -0.984375 -0.5625 -1.5q-0.5625 -0.53125 -1.625 -0.53125q-0.734375 0 -1.40625 0.25q-0.671875 0.234375 -1.15625 0.65625l-0.46875 -0.78125q0.578125 -0.484375 1.390625 -0.75q0.828125 -0.28125 1.734375 -0.28125zm-0.359375 7.015625q0.875 0 1.5 -0.390625q0.640625 -0.40625 0.953125 -1.171875l0 -1.265625l-2.421875 0q-1.984375 0 -1.984375 1.375q0 0.671875 0.515625 1.0625q0.515625 0.390625 1.4375 0.390625zm10.381592 0.28125q-0.296875 0.265625 -0.734375 0.40625q-0.421875 0.140625 -0.890625 0.140625q-1.09375 0 -1.6875 -0.578125q-0.578125 -0.59375 -0.578125 -1.671875l0 -4.65625l-1.375 0l0 -0.875l1.375 0l0 -1.6875l1.046875 0l0 1.6875l2.34375 0l0 0.875l-2.34375 0l0 4.59375q0 0.703125 0.34375 1.0625q0.34375 0.34375 0.984375 0.34375q0.328125 0 0.625 -0.09375q0.296875 -0.109375 0.515625 -0.296875l0.375 0.75zm8.312408 -3.0625l-6.4375 0q0.078125 1.203125 0.90625 1.953125q0.84375 0.734375 2.125 0.734375q0.71875 0 1.3125 -0.25q0.609375 -0.265625 1.046875 -0.765625l0.578125 0.671875q-0.5 0.609375 -1.28125 0.9375q-0.765625 0.328125 -1.6875 0.328125q-1.1875 0 -2.109375 -0.5q-0.90625 -0.515625 -1.421875 -1.40625q-0.515625 -0.890625 -0.515625 -2.03125q0 -1.125 0.484375 -2.015625q0.5 -0.890625 1.359375 -1.390625q0.859375 -0.5 1.921875 -0.5q1.078125 0 1.921875 0.5q0.84375 0.5 1.328125 1.390625q0.484375 0.875 0.484375 2.015625l-0.015625 0.328125zm-3.71875 -3.34375q-1.109375 0 -1.875 0.71875q-0.75 0.703125 -0.84375 1.84375l5.46875 0q-0.109375 -1.140625 -0.875 -1.84375q-0.75 -0.71875 -1.875 -0.71875z" fill-rule="nonzero"/><path fill="#000000" fill-opacity="0.0" d="m36.26509 319.97113l33.732285 0l0 24.97638l-33.732285 0z" fill-rule="evenodd"/><path fill="#000000" d="m48.968216 328.57306l0 8.40625l-1.9375 0l0 -6.84375l-1.6875 0l0 -1.5625l3.625 0z" fill-rule="nonzero"/><path fill="#000000" fill-opacity="0.0" d="m189.75328 319.97113l33.732285 0l0 24.97638l-33.732285 0z" fill-rule="evenodd"/><path fill="#000000" d="m205.50328 335.40118l0 1.578125l-6.359375 0l0 -1.265625l3.25 -3.046875q0.515625 -0.5 0.6875 -0.84375q0.1875 -0.359375 0.1875 -0.71875q0 -0.5 -0.34375 -0.765625q-0.34375 -0.265625 -1.0 -0.265625q-0.5625 0 -1.0 0.21875q-0.4375 0.203125 -0.75 0.609375l-1.40625 -0.90625q0.484375 -0.734375 1.34375 -1.140625q0.875 -0.421875 1.984375 -0.421875q0.9375 0 1.640625 0.3125q0.703125 0.296875 1.09375 0.859375q0.390625 0.5625 0.390625 1.3125q0 0.6875 -0.296875 1.296875q-0.28125 0.59375 -1.109375 1.359375l-1.9375 1.828125l3.625 0z" fill-rule="nonzero"/><path fill="#000000" fill-opacity="0.0" d="m344.26904 319.97113l33.73227 0l0 24.97638l-33.73227 0z" fill-rule="evenodd"/><path fill="#000000" d="m357.65967 331.99493q1.109375 0.1875 1.6875 0.828125q0.59375 0.640625 0.59375 1.59375q0 0.71875 -0.390625 1.34375q-0.375 0.625 -1.171875 1.0q-0.78125 0.359375 -1.921875 0.359375q-0.890625 0 -1.75 -0.234375q-0.84375 -0.234375 -1.453125 -0.65625l0.765625 -1.5q0.46875 0.359375 1.09375 0.5625q0.640625 0.203125 1.296875 0.203125q0.734375 0 1.15625 -0.28125q0.421875 -0.28125 0.421875 -0.796875q0 -1.03125 -1.578125 -1.03125l-0.890625 0l0 -1.296875l1.734375 -1.953125l-3.578125 0l0 -1.5625l5.875 0l0 1.265625l-1.890625 2.15625z" fill-rule="nonzero"/><path fill="#000000" fill-opacity="0.0" d="m498.09973 319.97113l33.7323 0l0 24.97638l-33.7323 0z" fill-rule="evenodd"/><path fill="#000000" d="m515.256 335.21368l-1.359375 0l0 1.765625l-1.90625 0l0 -1.765625l-4.515625 0l0 -1.3125l3.953125 -5.328125l2.046875 0l-3.671875 5.0625l2.25 0l0 -1.578125l1.84375 0l0 1.578125l1.359375 0l0 1.578125z" fill-rule="nonzero"/><path fill="#000000" fill-opacity="0.0" d="m652.2743 319.97113l33.7323 0l0 24.97638l-33.7323 0z" fill-rule="evenodd"/><path fill="#000000" d="m664.61804 331.7293q1.78125 0 2.625 0.71875q0.84375 0.703125 0.84375 1.890625q0 0.765625 -0.390625 1.40625q-0.375 0.625 -1.171875 1.0q-0.78125 0.375 -1.921875 0.375q-0.890625 0 -1.75 -0.234375q-0.859375 -0.234375 -1.453125 -0.65625l0.765625 -1.5q0.484375 0.359375 1.09375 0.5625q0.625 0.203125 1.296875 0.203125q0.734375 0 1.140625 -0.28125q0.421875 -0.296875 0.421875 -0.8125q0 -0.546875 -0.4375 -0.8125q-0.4375 -0.28125 -1.515625 -0.28125l-2.140625 0l0.421875 -4.734375l5.125 0l0 1.5625l-3.5 0l-0.140625 1.59375l0.6875 0z" fill-rule="nonzero"/><path fill="#000000" fill-opacity="0.0" d="m657.55646 167.4147l232.66138 0l0 28.34645l-232.66138 0z" fill-rule="evenodd"/><path fill="#000000" d="m668.68146 181.2722l5.3125 0q2.078125 0 3.65625 0.828125q1.59375 0.828125 2.46875 2.3125q0.875 1.484375 0.875 3.390625q0 1.90625 -0.875 3.390625q-0.875 1.484375 -2.46875 2.3125q-1.578125 0.828125 -3.65625 0.828125l-5.3125 0l0 -13.0625zm5.25 11.875q1.703125 0 2.984375 -0.6875q1.296875 -0.6875 2.0 -1.890625q0.71875 -1.203125 0.71875 -2.765625q0 -1.5625 -0.71875 -2.765625q-0.703125 -1.203125 -2.0 -1.875q-1.28125 -0.6875 -2.984375 -0.6875l-3.875 0l0 10.671875l3.875 0zm13.316284 -8.703125q1.921875 0 2.9375 0.96875q1.03125 0.953125 1.03125 2.84375l0 6.078125l-1.265625 0l0 -1.53125q-0.453125 0.765625 -1.328125 1.203125q-0.859375 0.421875 -2.046875 0.421875q-1.640625 0 -2.609375 -0.78125q-0.96875 -0.78125 -0.96875 -2.078125q0 -1.25 0.890625 -2.015625q0.90625 -0.765625 2.890625 -0.765625l3.109375 0l0 -0.59375q0 -1.265625 -0.703125 -1.921875q-0.703125 -0.671875 -2.0625 -0.671875q-0.9375 0 -1.796875 0.3125q-0.859375 0.3125 -1.46875 0.84375l-0.609375 -0.984375q0.75 -0.640625 1.796875 -0.984375q1.046875 -0.34375 2.203125 -0.34375zm-0.46875 8.9375q1.125 0 1.921875 -0.515625q0.796875 -0.515625 1.1875 -1.484375l0 -1.59375l-3.078125 0q-2.515625 0 -2.515625 1.75q0 0.859375 0.65625 1.359375q0.65625 0.484375 1.828125 0.484375zm13.210327 0.359375q-0.375 0.328125 -0.921875 0.515625q-0.546875 0.171875 -1.15625 0.171875q-1.375 0 -2.125 -0.75q-0.734375 -0.75 -0.734375 -2.109375l0 -5.921875l-1.765625 0l0 -1.125l1.765625 0l0 -2.140625l1.3125 0l0 2.140625l2.984375 0l0 1.125l-2.984375 0l0 5.859375q0 0.875 0.4375 1.328125q0.4375 0.453125 1.265625 0.453125q0.40625 0 0.78125 -0.125q0.390625 -0.140625 0.671875 -0.375l0.46875 0.953125zm5.840027 -9.296875q1.921875 0 2.9375 0.96875q1.03125 0.953125 1.03125 2.84375l0 6.078125l-1.265625 0l0 -1.53125q-0.453125 0.765625 -1.328125 1.203125q-0.859375 0.421875 -2.046875 0.421875q-1.640625 0 -2.609375 -0.78125q-0.96875 -0.78125 -0.96875 -2.078125q0 -1.25 0.890625 -2.015625q0.90625 -0.765625 2.890625 -0.765625l3.109375 0l0 -0.59375q0 -1.265625 -0.703125 -1.921875q-0.703125 -0.671875 -2.0625 -0.671875q-0.9375 0 -1.796875 0.3125q-0.859375 0.3125 -1.46875 0.84375l-0.609375 -0.984375q0.75 -0.640625 1.796875 -0.984375q1.046875 -0.34375 2.203125 -0.34375zm-0.46875 8.9375q1.125 0 1.921875 -0.515625q0.796875 -0.515625 1.1875 -1.484375l0 -1.59375l-3.078125 0q-2.515625 0 -2.515625 1.75q0 0.859375 0.65625 1.359375q0.65625 0.484375 1.828125 0.484375zm31.145142 -12.109375l-4.40625 13.0625l-1.453125 0l-3.828125 -11.140625l-3.84375 11.140625l-1.4375 0l-4.40625 -13.0625l1.421875 0l3.765625 11.234375l3.90625 -11.234375l1.28125 0l3.84375 11.296875l3.828125 -11.296875l1.328125 0zm5.4973145 13.15625q-1.421875 0 -2.5625 -0.640625q-1.125 -0.640625 -1.78125 -1.78125q-0.65625 -1.140625 -0.65625 -2.578125q0 -1.4375 0.65625 -2.578125q0.65625 -1.140625 1.78125 -1.765625q1.140625 -0.640625 2.5625 -0.640625q1.421875 0 2.546875 0.640625q1.140625 0.625 1.78125 1.765625q0.65625 1.140625 0.65625 2.578125q0 1.4375 -0.65625 2.578125q-0.640625 1.140625 -1.78125 1.78125q-1.125 0.640625 -2.546875 0.640625zm0 -1.171875q1.046875 0 1.875 -0.46875q0.828125 -0.484375 1.296875 -1.359375q0.46875 -0.875 0.46875 -2.0q0 -1.125 -0.46875 -2.0q-0.46875 -0.875 -1.296875 -1.34375q-0.828125 -0.484375 -1.875 -0.484375q-1.046875 0 -1.875 0.484375q-0.828125 0.46875 -1.3125 1.34375q-0.46875 0.875 -0.46875 2.0q0 1.125 0.46875 2.0q0.484375 0.875 1.3125 1.359375q0.828125 0.46875 1.875 0.46875zm8.947449 -6.8125q0.46875 -0.984375 1.390625 -1.484375q0.921875 -0.515625 2.296875 -0.515625l0 1.296875l-0.328125 -0.03125q-1.546875 0 -2.421875 0.953125q-0.875 0.953125 -0.875 2.671875l0 5.0l-1.328125 0l0 -9.8125l1.265625 0l0 1.921875zm9.706848 2.96875l-2.3125 2.125l0 2.796875l-1.328125 0l0 -13.84375l1.328125 0l0 9.390625l5.859375 -5.359375l1.640625 0l-4.203125 4.015625l4.59375 5.796875l-1.625 0l-3.953125 -4.921875zm10.821777 -7.890625q-0.859375 0 -1.296875 0.46875q-0.4375 0.453125 -0.4375 1.375l0 1.15625l3.015625 0l0 1.125l-2.984375 0l0 8.6875l-1.3125 0l0 -8.6875l-1.765625 0l0 -1.125l1.765625 0l0 -1.21875q0 -1.34375 0.765625 -2.125q0.78125 -0.78125 2.1875 -0.78125q0.5625 0 1.078125 0.15625q0.53125 0.15625 0.890625 0.453125l-0.453125 1.0q-0.578125 -0.484375 -1.453125 -0.484375zm3.078125 -1.03125l1.328125 0l0 13.84375l-1.328125 0l0 -13.84375zm9.030457 13.9375q-1.421875 0 -2.5625 -0.640625q-1.125 -0.640625 -1.78125 -1.78125q-0.65625 -1.140625 -0.65625 -2.578125q0 -1.4375 0.65625 -2.578125q0.65625 -1.140625 1.78125 -1.765625q1.140625 -0.640625 2.5625 -0.640625q1.421875 0 2.546875 0.640625q1.140625 0.625 1.78125 1.765625q0.65625 1.140625 0.65625 2.578125q0 1.4375 -0.65625 2.578125q-0.640625 1.140625 -1.78125 1.78125q-1.125 0.640625 -2.546875 0.640625zm0 -1.171875q1.046875 0 1.875 -0.46875q0.828125 -0.484375 1.296875 -1.359375q0.46875 -0.875 0.46875 -2.0q0 -1.125 -0.46875 -2.0q-0.46875 -0.875 -1.296875 -1.34375q-0.828125 -0.484375 -1.875 -0.484375q-1.046875 0 -1.875 0.484375q-0.828125 0.46875 -1.3125 1.34375q-0.46875 0.875 -0.46875 2.0q0 1.125 0.46875 2.0q0.484375 0.875 1.3125 1.359375q0.828125 0.46875 1.875 0.46875zm21.808105 -8.734375l-3.71875 9.8125l-1.25 0l-3.09375 -8.046875l-3.09375 8.046875l-1.25 0l-3.6875 -9.8125l1.265625 0l3.078125 8.34375l3.15625 -8.34375l1.125 0l3.140625 8.34375l3.109375 -8.34375l1.21875 0z" fill-rule="nonzero"/><path fill="#000000" fill-opacity="0.0" d="m666.9475 209.23622l33.7323 0l0 24.97638l-33.7323 0z" fill-rule="evenodd"/><path fill="#000000" d="m679.65063 217.83817l0 8.40625l-1.9375 0l0 -6.84375l-1.6875 0l0 -1.5625l3.625 0z" fill-rule="nonzero"/></g></svg>
