<svg width="45" height="45" viewBox="0 0 45 45" fill="none" xmlns="http://www.w3.org/2000/svg">
<path fill-rule="evenodd" clip-rule="evenodd" d="M11.25 20.25V15.75C11.25 12.7663 12.4353 9.90483 14.545 7.79505C16.6548 5.68526 19.5163 4.5 22.5 4.5C25.4837 4.5 28.3452 5.68526 30.455 7.79505C32.5647 9.90483 33.75 12.7663 33.75 15.75V20.25C34.9435 20.25 36.0881 20.7241 36.932 21.568C37.7759 22.4119 38.25 23.5565 38.25 24.75V36C38.25 37.1935 37.7759 38.3381 36.932 39.182C36.0881 40.0259 34.9435 40.5 33.75 40.5H11.25C10.0565 40.5 8.91193 40.0259 8.06802 39.182C7.22411 38.3381 6.75 37.1935 6.75 36V24.75C6.75 23.5565 7.22411 22.4119 8.06802 21.568C8.91193 20.7241 10.0565 20.25 11.25 20.25ZM29.25 15.75V20.25H15.75V15.75C15.75 13.9598 16.4612 12.2429 17.727 10.977C18.9929 9.71116 20.7098 9 22.5 9C24.2902 9 26.0071 9.71116 27.273 10.977C28.5388 12.2429 29.25 13.9598 29.25 15.75Z" fill="#6F6F6F"/>
</svg>
