<svg width="25" height="16" xmlns="http://www.w3.org/2000/svg"><g fill-rule="nonzero" fill="none"><path d="M1.042 0h22.916C24.531 0 25 .424 25 .941V15.06c0 .517-.469.941-1.042.941H1.042C.469 16 0 15.576 0 15.059V.94C0 .424.469 0 1.042 0z" fill="#2AA0D0"/><path d="M17.188 6.118h-3.125c-.13 0-.26.094-.26.211 0-.117-.131-.211-.261-.211h-1.51c-.105 0-.21.047-.235.14l-.833 1.883-1.042-1.906c-.052-.07-.13-.14-.235-.14H8.334c-.156 0-.26.093-.26.234v2.212L6.927 6.235a.252.252 0 00-.234-.14h-1.38a.252.252 0 00-.235.14l-1.797 3.53a.255.255 0 00.026.235.27.27 0 00.209.118h1.12c.104 0 .208-.047.234-.142l.39-.8h1.433l.364.8c.052.095.13.142.235.142h2.083c.156 0 .26-.094.26-.236v-1.34l.651 1.434c.053.095.13.142.235.142h.807c.104 0 .208-.047.235-.142l.677-1.458v1.364c0 .142.104.236.26.236h1.042c.13 0 .26-.094.26-.212 0 .118.13.212.26.212h3.126c.156 0 .26-.094.26-.236v-.706c0-.14-.104-.235-.26-.235h-1.823v-.235h1.77c.157 0 .26-.094.26-.235v-.706c0-.141-.103-.236-.26-.236h-1.77v-.235h1.822c.157 0 .26-.094.26-.235v-.706c0-.118-.13-.235-.26-.235zM5.755 8l.235-.47.234.47h-.469zM21.536 9.153L20.495 8.14l1.041-1.012a.205.205 0 00.079-.164v-.612a.205.205 0 00-.079-.165.249.249 0 00-.182-.07h-.703a.314.314 0 00-.208.07l-.912.988-.937-.964a.202.202 0 00-.183-.094h-.703c-.156 0-.26.094-.26.235v3.53c0 .14.104.235.26.235h.625c.078 0 .13-.024.183-.07l.99-.942.989.941c.052.047.13.07.182.07h.677c.078 0 .13-.023.182-.07a.205.205 0 00.079-.165v-.564a.205.205 0 00-.079-.165zm-3.567-.447V7.553l.599.565-.6.588z" fill="#2AA0D0"/><path fill="#FFF" d="M5.365 8.235h1.25l-.625-1.27zM17.708 9.318l1.224-1.177-1.224-1.176z"/><path d="M21.745 8.988l-.886-.847.886-.847a.53.53 0 00.13-.33v-.611a.444.444 0 00-.156-.33.542.542 0 00-.365-.14h-.703a.49.49 0 00-.39.164l-.73.753-.729-.753a.58.58 0 00-.39-.165h-.704a.474.474 0 00-.26.07.474.474 0 00-.26-.07h-3.125a.474.474 0 00-.26.07.474.474 0 00-.261-.07h-1.51c-.21 0-.417.118-.496.306L10.911 7.6l-.78-1.435c-.079-.165-.261-.26-.47-.26H8.333c-.286 0-.52.213-.52.471v1.106L7.16 6.188a.518.518 0 00-.468-.282h-1.38a.518.518 0 00-.47.282l-1.796 3.53c-.078.14-.052.306.026.447.104.14.26.211.443.211h1.12c.208 0 .39-.117.468-.282l.313-.659H6.51l.287.66c.078.187.26.305.495.305h2.083c.286 0 .52-.212.52-.47v-.165l.157.353c.078.164.26.282.469.282h.807c.208 0 .39-.118.495-.282l.156-.353v.117c0 .26.235.47.521.47h1.042a.474.474 0 00.26-.07c.078.047.156.07.26.07h3.126a.474.474 0 00.26-.07c.078.047.156.07.26.07h.625c.13 0 .287-.046.391-.14l.807-.777.808.777a.56.56 0 00.39.14h.625c.13 0 .26-.046.365-.14a.444.444 0 00.156-.33v-.564a.53.53 0 00-.13-.33zm-8.203.894H12.5V7.318l-1.172 2.564h-.807l-1.146-2.54v2.54H7.292l-.417-.94h-1.77l-.444.94h-1.12l1.798-3.53h1.38l1.64 3.295V6.353h1.329l1.302 2.376 1.041-2.376h1.51v3.53zm3.646-2.823h-2.084v.706h2.031v.706h-2.03v.705h2.082v.706h-3.125v-3.53h3.126v.707zm3.541 2.823l-1.198-1.13-1.198 1.13h-.625v-3.53h.703l1.12 1.177 1.12-1.176h.703v.612L20.13 8.14l1.224 1.177v.564h-.625z" fill="#FFF"/><path d="M1.042 16h.468L25 1.365V.94C25 .424 24.531 0 23.958 0H1.042C.469 0 0 .424 0 .941V15.06c0 .517.469.941 1.042.941z" fill="#FFF" opacity=".05"/></g></svg>