<svg width="20" height="20" xmlns="http://www.w3.org/2000/svg"><g fill="none" fill-rule="evenodd"><path fill="none" d="M0 0h20v20H0z"/><path d="M19 1v18l-4.5-2-4.5 2-4.5-2L1 19V1h18Zm-8.278 4.187H9.493v1.127c-.799.095-1.41.353-1.833.773-.423.42-.635.923-.635 1.51 0 .498.13.894.39 1.188.259.294.57.507.931.64.362.133.813.258 1.352.374.491.109.848.213 1.07.312.222.099.333.25.333.456 0 .389-.39.583-1.168.583-.41 0-.826-.064-1.249-.194a4.494 4.494 0 0 1-.917-.39l-.199-.122-.666 1.495c.3.205.68.377 1.137.517.366.112.75.19 1.15.234l.304.027v1.096h1.229v-1.137c.771-.116 1.36-.38 1.766-.793.407-.413.61-.903.61-1.47 0-.498-.132-.892-.395-1.183a2.343 2.343 0 0 0-.931-.634 9.88 9.88 0 0 0-1.357-.374c-.485-.103-.837-.202-1.055-.297-.218-.096-.328-.24-.328-.43 0-.191.092-.347.277-.466.184-.12.478-.18.88-.18.562 0 1.14.142 1.732.424l.255.13.625-1.506a4.138 4.138 0 0 0-.958-.4 5.866 5.866 0 0 0-.832-.172l-.29-.032V5.187Z" fill="#000"/></g></svg>