<svg xmlns="http://www.w3.org/2000/svg" viewBox="0 0 121 18"><defs><radialGradient cx="50.001%" cy="49.999%" fx="50.001%" fy="49.999%" r="49.443%" gradientTransform="matrix(1 0 0 .95165 0 .024)" id="a"><stop stop-color="#FFF2E8" offset=".56%"/><stop stop-color="#FEEDDF" offset="9.61%"/><stop stop-color="#FDE1C7" offset="24.38%"/><stop stop-color="#FACD9F" offset="43.03%"/><stop stop-color="#F6B168" offset="64.84%"/><stop stop-color="#F08E22" offset="89.01%"/><stop stop-color="#EE7D00" offset="100%"/></radialGradient></defs><g fill-rule="nonzero" fill="none"><path d="M34.023 0h22.5c.562 0 1.022.433 1.022.963V15.4c0 .53-.46.963-1.022.963h-22.5c-.563 0-1.023-.434-1.023-.963V.963c0-.53.46-.963 1.023-.963z" fill="#4361C3"/><path d="M48.213 5.114A3.71 3.71 0 0151.92 8.82a3.71 3.71 0 01-3.707 3.707 3.71 3.71 0 01-3.707-3.707 3.71 3.71 0 013.707-3.707z" fill="#FFAF38"/><path fill="#FFAF38" d="M45.017 6.903h2.557v.512h-2.557z"/><path d="M42.332 12.528a3.71 3.71 0 01-3.707-3.707 3.71 3.71 0 013.707-3.707A3.71 3.71 0 0146.04 8.82a3.71 3.71 0 01-3.708 3.707z" fill="#EB3636"/><path d="M45.017 10.483v-.511h3.324v.511h-3.324zm0-3.58h3.324v.512h-3.324v-.512zm3.068 1.535h-3.324v-.512h3.324v.511zm0 1.022h-3.324V8.95h3.324v.511z" fill="#FFAF38"/><path d="M34.023 17.386h.46L57.545 1.483v-.46C57.545.46 57.085 0 56.523 0h-22.5C33.46 0 33 .46 33 1.023v15.34c0 .563.46 1.023 1.023 1.023z" fill="#FFF" opacity=".05"/><g><path fill="#F9F9F9" d="M64.09 4.332h24.546v7.7H64.091z"/><path d="M65.114 0h22.5c.562 0 1.022.433 1.022.963v3.369H64.091V.962c0-.529.46-.962 1.023-.962z" fill="#09599E"/><path d="M64.09 12.032h24.546v3.37c0 .528-.46.962-1.022.962h-22.5c-.563 0-1.023-.434-1.023-.963v-3.369z" fill="#E59703"/><path d="M65.114 16.34c-.563 0-1.023-.434-1.023-.963V.963c0-.53.46-.963 1.023-.963h22.5c.562 0 1.022.433 1.022.963" fill="#FFF" opacity=".05"/><path fill="#00589F" d="M73.577 10.203l.741-4.067h1.176l-.741 4.067zM79.023 6.257a3.426 3.426 0 00-1.049-.169c-1.176 0-1.994.554-1.994 1.348 0 .577.588.914 1.023 1.107.46.192.613.337.613.505 0 .265-.357.41-.715.41-.46 0-.716-.073-1.1-.217l-.153-.097-.154.915c.282.12.793.216 1.304.216 1.228 0 2.046-.553 2.046-1.395 0-.458-.307-.819-.997-1.107-.41-.193-.665-.313-.665-.506 0-.168.204-.36.665-.36.383 0 .664.072.869.144l.102.048.205-.842M82.04 6.16h-.92c-.282 0-.486.073-.614.337l-1.739 3.73h1.227s.205-.505.256-.601h1.509c.025.144.153.601.153.601h1.1L82.04 6.16zm-1.458 2.6c.103-.241.46-1.132.46-1.132s.103-.24.154-.385l.077.361.281 1.18h-.972v-.025zM72.58 6.16l-1.151 2.768-.128-.554c-.204-.65-.895-1.347-1.636-1.708l1.074 3.537h1.252l1.867-4.067H72.58"/><path d="M70.355 6.136h-1.892l-.025.097c1.482.337 2.454 1.155 2.863 2.117l-.409-1.853c-.051-.264-.281-.337-.537-.36" fill="#F9A51A"/></g><g><path d="M96.205 0h22.5c.562 0 1.022.433 1.022.963V15.4c0 .53-.46.963-1.022.963h-22.5c-.563 0-1.023-.434-1.023-.963V.963c0-.53.46-.963 1.023-.963z" fill="#2AA0D0"/><path d="M112.057 6.257h-3.068c-.128 0-.256.096-.256.216 0-.12-.128-.216-.256-.216h-1.483c-.102 0-.204.048-.23.144l-.818 1.925-1.023-1.949c-.05-.072-.128-.144-.23-.144h-1.33c-.153 0-.255.096-.255.24v2.262l-1.125-2.358c-.051-.096-.128-.144-.23-.144h-1.355c-.103 0-.18.048-.23.144l-1.765 3.61a.27.27 0 00.026.24c.051.072.128.12.205.12h1.099c.102 0 .204-.048.23-.144l.384-.818h1.406l.358.818c.05.096.128.145.23.145h2.045c.154 0 .256-.097.256-.241V8.735l.64 1.468c.05.096.127.145.23.145h.792c.102 0 .205-.049.23-.145l.665-1.492v1.396c0 .144.102.24.256.24h1.022c.128 0 .256-.096.256-.216 0 .12.128.217.256.217h3.068c.153 0 .255-.097.255-.241v-.722c0-.144-.102-.24-.255-.24h-1.79v-.241h1.739c.153 0 .255-.097.255-.24V7.94c0-.144-.102-.24-.255-.24h-1.739V7.46h1.79c.153 0 .255-.096.255-.24v-.723c0-.12-.127-.24-.255-.24zm-11.225 1.925l.23-.481.23.48h-.46z" fill="#2AA0D0"/><path d="M116.327 9.361l-1.023-1.035 1.023-1.035a.213.213 0 00.076-.168v-.626a.213.213 0 00-.076-.168.24.24 0 00-.18-.072h-.69a.3.3 0 00-.204.072l-.895 1.01-.92-.986c-.052-.072-.103-.096-.18-.096h-.69c-.153 0-.256.096-.256.24v3.61c0 .144.103.24.256.24h.614a.24.24 0 00.179-.072l.971-.962.972.962a.285.285 0 00.179.073h.665a.24.24 0 00.179-.073.213.213 0 00.076-.168v-.578a.213.213 0 00-.076-.168zm-3.503-.457v-1.18l.588.578-.588.602z" fill="#2AA0D0"/><path fill="#FFF" d="M100.449 8.422h1.227l-.614-1.299zM112.568 9.53l1.202-1.204-1.202-1.203z"/><path d="M116.531 9.193l-.87-.867.87-.866a.554.554 0 00.128-.337v-.626c0-.12-.051-.24-.153-.337a.52.52 0 00-.358-.144h-.69a.472.472 0 00-.384.168l-.716.77-.716-.77a.558.558 0 00-.383-.168h-.69a.451.451 0 00-.257.072.451.451 0 00-.255-.072h-3.068a.451.451 0 00-.256.072.451.451 0 00-.256-.072h-1.483c-.204 0-.409.12-.485.313l-.614 1.444-.767-1.468c-.077-.169-.256-.265-.46-.265h-1.304c-.282 0-.512.217-.512.481v1.131l-.639-1.323a.506.506 0 00-.46-.289h-1.355a.506.506 0 00-.46.289l-1.765 3.61c-.076.144-.05.312.026.457a.512.512 0 00.435.216h1.099c.204 0 .383-.12.46-.288l.307-.674h1.074l.281.674a.5.5 0 00.486.312h2.045c.282 0 .512-.216.512-.48v-.17l.153.362a.506.506 0 00.46.288h.793c.205 0 .383-.12.486-.288l.153-.361v.12c0 .265.23.481.512.481h1.022a.451.451 0 00.256-.072.451.451 0 00.256.072h3.068a.451.451 0 00.255-.072.451.451 0 00.256.072h.614a.583.583 0 00.383-.144l.793-.794.793.794c.102.096.23.144.383.144h.614a.52.52 0 00.358-.144.462.462 0 00.153-.337v-.578c0-.12-.051-.24-.128-.336zm-8.054.914h-1.022V7.484l-1.151 2.623h-.793l-1.125-2.599v2.599h-2.045l-.41-.963h-1.738l-.434.963h-1.1l1.764-3.61h1.355l1.611 3.37v-3.37h1.304l1.279 2.43 1.022-2.43h1.483v3.61zm3.58-2.888h-2.046v.722h1.995v.722h-1.995v.722h2.046v.722h-3.068v-3.61h3.068v.722zm3.477 2.888l-1.176-1.155-1.176 1.155h-.614v-3.61h.69l1.1 1.204 1.1-1.204h.69v.626l-1.202 1.203 1.202 1.203v.578h-.614z" fill="#FFF"/><path d="M96.205 16.364h.46l23.062-14.968V.963c0-.53-.46-.963-1.022-.963h-22.5c-.563 0-1.023.433-1.023.963V15.4c0 .53.46.963 1.023.963z" fill="#FFF" opacity=".05"/></g><g><path d="M23.529.283c.676 0 1.227.567 1.227 1.263v12.97c0 .697-.55 1.264-1.227 1.264H1.471c-.676 0-1.227-.567-1.227-1.264V1.546C.244.85.794.283 1.471.283h22.058zm0-.252H1.471C.659.031 0 .71 0 1.546v12.97c0 .837.659 1.515 1.471 1.515h22.058c.812 0 1.471-.678 1.471-1.515V1.546C25 .71 24.341.031 23.529.031z" fill="#EF7D00"/><path d="M24.968 15.126V8.992s-6.409 4.86-18.147 7.037h16.864c.721-.024 1.142-.276 1.283-.903z" fill="#EF7D00"/><path d="M10.886.06c-.963 0-1.744.808-1.744 1.806 0 1.06.747 1.854 1.744 1.854.972 0 1.739-.804 1.739-1.833 0-1.024-.762-1.828-1.74-1.828z" fill="url(#a)" transform="translate(3 4.031)"/><path d="M3.984 4.156h-.938v3.516h.933c.495 0 .853-.126 1.167-.406.372-.332.593-.833.593-1.35 0-1.038-.721-1.76-1.755-1.76zm.746 2.64c-.202.196-.462.28-.874.28h-.171V4.753h.171c.412 0 .662.079.874.284.22.211.352.538.352.875 0 .338-.132.676-.352.886zM6.034 4.156h1v3.515h-1z" fill="#05171D"/><path d="M8.231 5.505c-.383-.153-.496-.253-.496-.442 0-.222.201-.39.476-.39.191 0 .348.084.516.284l.333-.469a1.373 1.373 0 00-.962-.39c-.578 0-1.02.432-1.02 1.006 0 .486.206.733.805.966.25.094.377.157.441.2.128.09.192.216.192.363a.482.482 0 01-.496.496c-.304 0-.55-.163-.697-.469l-.411.427c.294.464.647.67 1.133.67.662 0 1.127-.475 1.127-1.155 0-.559-.215-.812-.94-1.097zM9.373 5.916c0 1.034.756 1.835 1.727 1.835.275 0 .51-.058.8-.205v-.807c-.256.274-.481.385-.77.385-.643 0-1.1-.501-1.1-1.213 0-.675.471-1.207 1.07-1.207.304 0 .535.116.8.395v-.807a1.541 1.541 0 00-.785-.215c-.967 0-1.742.817-1.742 1.839zM17.068 6.518l-.873-2.362H15.5l1.388 3.606h.343l1.413-3.606h-.691zM18.933 7.672h1.81v-.595H19.57v-.95h1.127v-.595H19.57v-.78h1.171v-.596h-1.809zM23.268 5.194c0-.659-.422-1.037-1.158-1.037h-.946v3.515h.638V6.259h.083l.883 1.413h.784l-1.03-1.48c.481-.107.746-.46.746-.998zm-1.28.58h-.186V4.71h.196c.398 0 .613.18.613.522 0 .353-.215.544-.624.544z" fill="#05171D"/><path d="M24.628 4.732c0-.265-.212-.409-.6-.409h-.512v1.334h.377v-.519l.445.519h.472l-.528-.551c.222-.05.346-.188.346-.374zm-.664.182h-.07v-.347h.073c.188 0 .283.057.283.17 0 .118-.1.177-.286.177z" fill="#1D1D1B"/><path d="M24.022 4.207a.657.657 0 00-.65.666c0 .37.29.667.65.667.354 0 .643-.3.643-.667a.658.658 0 00-.643-.666zm0 1.213a.533.533 0 01-.522-.545c0-.305.23-.547.522-.547.28 0 .512.247.512.547 0 .3-.232.545-.512.545zM8.764 8.596l.853.96v-.91h.122v1.229l-.853-.959v.906h-.122z" fill="#1D1D1B"/><path d="M8.752 8.596v1.239h.188v-.889l1.106.96V8.633H9.86v.892l-1.107-.961v.03zm.03.03l1.107.962v-.93h.128v1.187l-1.106-.96v.925h-.129V8.626zM10.33 8.646h.567v.121h-.445v.35h.432v.122h-.432V9.7h.445v.122h-.567z" fill="#1D1D1B"/><path d="M11.587 8.634H10.32v1.333h1.294v-.163h-.977v-.486h.948v-.16h-.948v-.361h.977v-.163h-.026zm-.025.026v.108h-.977v.416h.948v.108h-.948v.54h.977v.107h-1.194V8.66h1.194z" fill="#1D1D1B"/><path fill="#1D1D1B" d="M11.758 9.822h-.122V8.767h-.264v-.121h.653v.121h-.267z"/><path d="M12.633 8.634H11.36v.163h.506v1.17h.277v-1.17h.511v-.163h-.021zm-.022.026v.108H12.1V9.94h-.19V8.77h-.505V8.66h1.206z" fill="#1D1D1B"/><path fill="#1D1D1B" d="M12.84 9.527l.355-.942.354.942.287-.881h.133l-.42 1.237-.354-.948-.354.948-.42-1.237h.132z"/><path d="M13.184 8.58l-.343.913-.28-.86h-.156l.436 1.285.354-.95.354.95.436-1.284h-.157l-.28.859-.353-.94-.01.027zm-.333.952l.344-.914.354.944.295-.904h.108l-.404 1.19-.353-.945-.354.946-.403-1.191h.107l.295.904.011-.03zM15.698 9.294c0 .37-.293.665-.647.665a.656.656 0 01-.647-.665.66.66 0 01.647-.668.66.66 0 01.647.668zm-1.156-.002c0 .29.227.533.509.533a.523.523 0 00.508-.533.52.52 0 00-.508-.534.521.521 0 00-.51.534z" fill="#1D1D1B"/><path d="M14.392 9.282c0 .366.29.665.647.665a.657.657 0 00.647-.665.658.658 0 00-.647-.668c-.356 0-.647.299-.647.668zm.025 0c0-.355.28-.642.623-.642.342 0 .622.287.622.642 0 .352-.28.639-.622.639a.631.631 0 01-.623-.64z" fill="#1D1D1B"/><path d="M14.514 9.402c0 .369.291.666.648.666a.657.657 0 00.646-.666.657.657 0 00-.646-.667.658.658 0 00-.648.667zm.032 0c0-.35.276-.634.616-.634.34 0 .614.284.614.634 0 .35-.275.634-.614.634a.626.626 0 01-.616-.634zM16.322 9.98h-.249V8.645h.324c.424 0 .818.068.818.368 0 .205-.215.35-.56.368l.712.597h-.306l-.676-.585h-.063v.585zm0-.717h.077c.282 0 .568-.032.568-.239 0-.218-.27-.24-.57-.24h-.075v.479z" fill="#1D1D1B"/><path d="M16.084 8.634h-.022v1.333h.28v-.574h.037c0 .01.625.568.625.568l.308.006h.044l-.683-.591c.314-.027.517-.168.517-.369 0-.252-.26-.373-.799-.373h-.307zm.307.026c.515 0 .755.11.755.347 0 .195-.2.331-.512.347l-.04.003.676.582h-.249.001c0-.01-.625-.567-.625-.567l-.077-.006h-.022v.573h-.192V8.66h.285z" fill="#1D1D1B"/><path d="M16.227 8.755h-.044v1.333h.19c.514 0 1.104-.076 1.104-.663 0-.619-.573-.67-1.11-.67h-.14zm.14.076c.538 0 1.022.043 1.022.594 0 .52-.513.59-1.017.59h-.1V8.83h.095z" fill="#1D1D1B"/><path fill="#1D1D1B" d="M17.81 8.646h.164l-.513.548.53.628h-.168l-.448-.54-.031.032v.508h-.122V8.646h.122v.504z"/><path d="M18.436 8.634h-.27s-.666.496-.723.54v-.54h-.232v1.333h.232v-.575c.002 0 .017-.01.03-.019l.707.59.283.004h.042s-.845-.693-.87-.71l.844-.623h-.043zm-.045.026l-.805.595.836.684h-.229c0-.007-.706-.594-.706-.594l-.013-.011-.063.046-.005.56h-.158V8.66h.158v.58l.774-.58h.21z" fill="#1D1D1B"/></g></g></svg>