<svg width="20" height="20" xmlns="http://www.w3.org/2000/svg"><g fill="none" fill-rule="evenodd"><path fill="none" d="M0 0h20v20H0z"/><path d="M12.316 3.051a1 1 0 0 1 .663 1.152l-.03.113-4 12a1 1 0 0 1-1.928-.52l.03-.112 4-12a1 1 0 0 1 1.265-.633Zm2.563 2.43 3.84 3.84a.96.96 0 0 1 .066 1.285l-.066.073-3.84 3.84-1.358-1.358 3.162-3.16-3.162-3.162L14.88 5.48Zm-9.758 0L6.48 6.84l-3.162 3.16 3.162 3.162L5.12 14.52l-3.84-3.84a.96.96 0 0 1-.066-1.285l.066-.073 3.84-3.84Z" fill="#000" fill-rule="nonzero"/></g></svg>