<svg width="20" height="20" xmlns="http://www.w3.org/2000/svg" xmlns:xlink="http://www.w3.org/1999/xlink"><defs><path d="M5 14.2226c.70117.1591 1.37136.4001 2 .7125V17c0 .5523-.44772 1-1 1s-1-.4477-1-1Zm11.69-4.82587c.2026.83477.31 1.70657.31 2.60307 0 .3912-.0205.778-.0604 1.1593-.0493.4698-.4205.841-.8903.8903-2.0728.2173-3.9369 1.1386-5.3493 2.5231-.3888.3812-1.01119.3812-1.40004 0C8.62708 15.9129 7.85167 15.3584 7 14.9351v-3.957l1.81824.7793c.75465.3234 1.60886.3234 2.36356 0L16.69 9.39673Zm-13.37996 0L5 10.121v4.1016c-.34277-.0777-.69295-.1359-1.04929-.1732-.46977-.0493-.84101-.4205-.89027-.8903C3.02046 12.7778 3 12.391 3 11.9998c0-.8965.10741-1.7683.31004-2.60307Zm6.29604-7.31588c.25155-.1078.53632-.1078.78782 0l7 3C17.7616 5.23843 18 5.59997 18 6s-.2384.76157-.6061.91915l-7 3c-.2515.10785-.53627.10785-.78782 0l-1.9394-.83118 2.72722-1.16881c.5076-.21756.7428-.80544.5252-1.31307-.2175-.50763-.8054-.74278-1.31302-.52522l-4 1.71428c-.13902.05958-.25955.14832-.35571.25726L2.60608 6.91915C2.2384 6.76157 2 6.40003 2 6s.2384-.76157.60608-.91915Z" id="education-a"/></defs><g fill="none" fill-rule="evenodd"><path fill="none" d="M0 0h20v20H0z"/><use fill="currentcolor" fill-rule="nonzero" xlink:href="#education-a"/></g></svg>