<svg width="26" height="25" xmlns="http://www.w3.org/2000/svg">
  <g fill="#5BA3B1" fill-rule="nonzero">
    <path d="M18.699 2.273c-.846 0-1.559.727-1.559 1.59v17.273c0 .864.713 1.591 1.559 1.591s1.558-.727 1.558-1.59V3.863c0-.864-.668-1.591-1.558-1.591zM13 0c-.846 0-1.558.727-1.558 1.59v21.82c0 .863.712 1.59 1.558 1.59.846 0 1.558-.727 1.558-1.59V1.59C14.558.728 13.846 0 13 0zM7.301 5.455c-.846 0-1.558.727-1.558 1.59v10.91c0 .863.712 1.59 1.558 1.59.846 0 1.559-.727 1.559-1.59V7.045c0-.863-.713-1.59-1.559-1.59zM1.558 7.727C.712 7.727 0 8.455 0 9.318v6.364c0 .863.712 1.59 1.558 1.59.846 0 1.558-.727 1.558-1.59V9.318c0-.863-.667-1.59-1.558-1.59zM24.442 7.727c-.846 0-1.558.728-1.558 1.591v6.364c0 .863.712 1.59 1.558 1.59.846 0 1.558-.727 1.558-1.59V9.318c0-.863-.712-1.59-1.558-1.59z"/>
  </g>
</svg>
