<svg width="20" height="20" xmlns="http://www.w3.org/2000/svg" xmlns:xlink="http://www.w3.org/1999/xlink"><defs><path d="M3.99073217 1c.55228475 0 1 .44771525 1 1v16c0 .5522847-.44771525 1-1 1h-1c-.55228475 0-1-.4477153-1-1V2c0-.55228475.44771525-1 1-1h1Zm5.13886198 14.9989705L10.1289765 16l-.0013157 2-1.00057639-.0010311.00250974-1.9999984Zm2.84086055-.1179298.4353172 1.95205c-.3788892.0844942-.7643255.1379923-1.1530595.1594674l-.1103192-1.9969551c.2789396-.0154096.5556929-.0538227.8280615-.1145623Zm1.6165653-.6606439 1.0530183 1.7003389c-.3289622.203726-.6737616.38114-1.0308427.530107l-.7700376-1.8458174c.25882-.1079745.5090123-.2367091.747862-.3846285Zm1.2561535-1.0834114 1.5291233 1.2891013c-.2491016.2954825-.5224076.5711917-.8167468.8241226l-1.3034836-1.5168818c.2133255-.1833144.411151-.3828794.5911071-.5963421Zm.8667374-1.4821854 1.8766289.6915664c-.1349044.3660754-.3013987.7203636-.4973053 1.0595111l-1.7318303-1.0003818c.1392217-.2410163.2571892-.4920429.3525067-.7506957ZM18 11.0317124c0 .3950177-.0347802.7865837-.1033928 1.1717353l-1.9690005-.3507662C15.9756449 11.5830224 16 11.3088257 16 11.0317124h2ZM10.7606011 1l1.0529404 1.06832423L10.8377322 3.028l.1695657.00036529c3.7589809.02743328 6.8609987 3.02182063 6.988618 6.73375022L18 10h-2c0-2.64297658-2.1422031-4.83355561-4.7846811-4.96550563L11 5.02833866 10.8347322 5.028l.9772968.9574856-1.0499154 1.07129714-2.53707132-2.48643467c-.27223871-.26680519-.29755084-.68940212-.07553683-.98516836l.07402439-.08464233L10.7606011 1Z" id="flipa"/></defs><g fill="none" fill-rule="evenodd"><path fill="none" d="M0 0h20v20H0z"/><mask id="flipb" fill="#fff"><use xlink:href="#flipa"/></mask><use fill="#000" fill-rule="nonzero" xlink:href="#flipa"/></g></svg>