<svg width="20" height="20" xmlns="http://www.w3.org/2000/svg"><g fill="none" fill-rule="evenodd"><path fill="none" d="M0 0h20v20H0z"/><path d="m13.049 11.351 3.551 3.552v-2.027H19V17.8a1.2 1.2 0 0 1-1.084 1.195L17.8 19H13v-2.4h1.903l-3.552-3.551 1.698-1.698Zm-6.098 0L8.65 13.05 5.097 16.6h2.027V19H2.2a1.2 1.2 0 0 1-1.195-1.084L1 17.8V13h2.4v1.903l3.551-3.552ZM7 1v2.4H5.097l3.552 3.551L6.95 8.65 3.4 5.097v2.027H1V2.2a1.2 1.2 0 0 1 1.084-1.195L2.2 1H7Zm10.8 0a1.2 1.2 0 0 1 1.195 1.084L19 2.2V7h-2.4V5.097l-3.551 3.552L11.35 6.95 14.903 3.4h-2.027V1H17.8Z" fill="#000" fill-rule="nonzero"/></g></svg>