<svg width="20" height="20" xmlns="http://www.w3.org/2000/svg" xmlns:xlink="http://www.w3.org/1999/xlink"><defs><path d="M0 2.42857143c0-.37888.15051-.74224286.41841857-1.01015286C.68632857 1.15051 1.04969143 1 1.42857143 1H18.5714286c.3788571 0 .7422857.15051 1.0101428.41841857.2678572.26791.4184286.63127286.4184286 1.01015286 0 .37888571-.1505714.74224286-.4184286 1.01015714-.2678571.2679-.6312857.41841429-1.0101428.41841429H1.42857143c-.37888 0-.74224286-.15051429-1.01015286-.41841429C.15051 3.17081429 0 2.80745714 0 2.42857143Zm0 7.14285714c0-.37888571.15051-.74224286.41841857-1.01015714.26791-.2679.63127286-.41841429 1.01015286-.41841429H18.5714286c.3788571 0 .7422857.15051429 1.0101428.41841429C19.8494286 8.82918571 20 9.19254286 20 9.57142857c0 .37888572-.1505714.74224283-.4184286 1.01015713-.2678571.2679-.6312857.4184143-1.0101428.4184143H1.42857143c-.37888 0-.74224286-.1505143-1.01015286-.4184143C.15051 10.3136714 0 9.95031429 0 9.57142857Zm0 7.14285713c0-.3788571.15051-.7422857.41841857-1.0101428.26791-.2678572.63127286-.4184286 1.01015286-.4184286H18.5714286c.3788571 0 .7422857.1505714 1.0101428.4184286C19.8494286 15.972 20 16.3354286 20 16.7142857c0 .3788572-.1505714.7422857-.4184286 1.0101429-.2678571.2678571-.6312857.4184285-1.0101428.4184285H1.42857143c-.37888 0-.74224286-.1505714-1.01015286-.4184285C.15051 17.4565714 0 17.0931429 0 16.7142857Z" id="hamburgera"/></defs><g fill="none" fill-rule="evenodd"><path fill="none" d="M0 0h20v20H0z"/><mask id="hamburgerb" fill="#fff"><use xlink:href="#hamburgera"/></mask><use fill="currentcolor" xlink:href="#hamburgera"/><g mask="url(#hamburgerb)" fill="currentcolor"><path d="M0 0h20v20H0z"/></g></g></svg>