<svg width="20" height="20" xmlns="http://www.w3.org/2000/svg" xmlns:xlink="http://www.w3.org/1999/xlink"><defs><path d="m10.49 1.128.11.072 8 6-1.2 1.6-.4-.3V17a2 2 0 0 1-1.85 1.995L15 19H5a2 2 0 0 1-1.995-1.85L3 17V8.5l-.4.3-1.2-1.6 8-6a1 1 0 0 1 1.09-.072ZM10 3.25 5 7v10h2v-4a2 2 0 0 1 1.85-1.995L9 11h2a2 2 0 0 1 1.995 1.85L13 13v4h2V7l-5-3.75ZM11 13H9v4h2v-4Z" id="homea"/></defs><g fill="none" fill-rule="evenodd"><path fill="none" d="M0 0h20v20H0z"/><mask id="homeb" fill="#fff"><use xlink:href="#homea"/></mask><use fill="currentcolor" fill-rule="nonzero" xlink:href="#homea"/><g mask="url(#homeb)" fill="currentcolor"><path d="M0 0h20v20H0z"/></g></g></svg>