<svg width="20" height="20" xmlns="http://www.w3.org/2000/svg"><g fill="none" fill-rule="evenodd"><path fill="none" d="M0 0h20v20H0z"/><path d="M10 0c5.523 0 10 4.477 10 10s-4.477 10-10 10S0 15.523 0 10 4.477 0 10 0Zm1.376 10.192h-3.04v6.672h3.04v-6.672ZM9.856 4c-.555 0-1.003.155-1.344.464-.341.31-.512.693-.512 1.152 0 .459.17.843.512 1.152.341.31.79.464 1.344.464.555 0 1.003-.157 1.344-.472.341-.315.512-.712.512-1.192 0-.459-.17-.835-.512-1.128-.341-.293-.79-.44-1.344-.44Z" fill="#000" fill-rule="nonzero"/></g></svg>