<svg width="20" height="20" xmlns="http://www.w3.org/2000/svg" xmlns:xlink="http://www.w3.org/1999/xlink"><defs><path d="M10 0c5.5228475 0 10 4.4771525 10 10s-4.4771525 10-10 10S0 15.5228475 0 10 4.4771525 0 10 0Zm.980052 3.85279519c-2.7614238 0-5.00000005 2.23857625-5.00000005 5 0 .65594387.12631041 1.28238641.35593538 1.85633161l-2.02314606 2.0238644c-.3905243.3905243-.3905243 1.0236893 0 1.4142136l1.70710678 1.7071068c.39052429.3905243 1.02368927.3905243 1.41421356 0l2.18885166-2.1878666c.43152613.1214075.88669833.1863502 1.35703873.1863502 2.7614237 0 5-2.2385763 5-5.00000001 0-.54575937-.0874396-1.07109612-.2490738-1.56276523l-2.9224991 2.92199934-.0942074.0831886c-.3922912.3050249-.9595222.2772953-1.3200062-.0831886L9.68715873 8.50492249l-.0831886-.09420734c-.30502489-.3922912-.27729536-.95952226.0831886-1.32000622l2.95545417-2.95485337c-.5201375-.18332895-1.0797025-.28306037-1.6625609-.28306037Z" id="jobs-a"/></defs><g fill="none" fill-rule="evenodd"><path fill="none" d="M0 0h20v20H0z"/><mask id="jobs-b" fill="#fff"><use xlink:href="#jobs-a"/></mask><use fill="#currentcolor" xlink:href="#jobs-a"/><g mask="url(#jobs-b)" fill="currentcolor"><path d="M0 0h20v20H0z"/></g></g></svg>