<svg width="20" height="20" xmlns="http://www.w3.org/2000/svg"><g fill="none" fill-rule="evenodd"><path fill="none" d="M0 0h20v20H0z"/><path d="m11.548 7.24.17.16a1.155 1.155 0 0 1-1.544 1.713l-.088-.08a2.111 2.111 0 0 0-2.858-.117l-.128.118-3.464 3.464a2.656 2.656 0 0 0 3.623 3.88l.133-.125.77-.77a1.155 1.155 0 0 1 1.545-.079l.087.08c.423.422.45 1.09.08 1.544l-.08.088-.77.77a4.965 4.965 0 1 1-7.02-7.021L5.466 7.4a4.42 4.42 0 0 1 6.081-.162Zm6.449-5.126a4.965 4.965 0 0 1 0 7.021L14.533 12.6a4.42 4.42 0 0 1-6.081.162l-.17-.162a1.155 1.155 0 0 1 1.544-1.712l.088.08a2.111 2.111 0 0 0 2.858.117l.128-.118 3.464-3.464a2.656 2.656 0 0 0-3.756-3.755l-.77.77a1.155 1.155 0 0 1-1.545.079l-.087-.08a1.155 1.155 0 0 1-.08-1.544l.08-.088.77-.77a4.965 4.965 0 0 1 7.02 0Z" fill="currentcolor" fill-rule="nonzero"/></g></svg>
