<svg width="20" height="20" xmlns="http://www.w3.org/2000/svg" xmlns:xlink="http://www.w3.org/1999/xlink"><defs><path d="M2.43870441 16.0012369c.39672377-.0161896.78372341.1255344 1.07611969.3941893.29239628.2686032.4663444.6422063.48372369 1.0389301.01298275.2965859-.0622758.590327-.21636187.8440854-.15403434.2537584-.37991344.456103-.64903388.5813788-.26912044.1253275-.56937878.1679481-.86275782.1224826-.29332731-.0454137-.5666374-.1768964-.78522341-.377741-.218586-.2007929-.37272379-.4619996-.44275821-.7504648-.07008614-.2884653-.05301719-.5912581.04908616-.8699992.10210336-.2787411.28463767-.5209133.52443055-.6958959.23984461-.1749309.52613745-.2748101.8227751-.2869653Zm15.06127919-4.5012372c-.5441375 1.7533432-1.5581883 3.2726866-2.9018767 4.3476167-1.3436884 1.07493-2.950549 1.6523833-4.59810944 1.6523833-1.64757439 0-3.25443497-.5774533-4.59812338-1.6523833-1.34368841-1.0749301-2.3577392-2.5942735-2.90187662-4.3476167 1.46094692 1.9540327 4.27546155 3.2741866 7.4981827 3.2741866 3.22277284 0 6.03723574-1.3201539 7.50180344-3.2741866ZM9.99999746 2.50135289c1.64756044 0 3.25442104.57744774 4.59810944 1.6524295 1.3436884 1.07493004 2.3577392 2.59422173 2.9018767 4.3475705-1.460947-1.95398651-4.2754616-3.27414046-7.4982345-3.27414046-3.22272113 0-6.03718403 1.32418843-7.50175164 3.27414046.54413742-1.75334877 1.55818821-3.27264046 2.90187662-4.3475705 1.34368841-1.07498176 2.95054899-1.6524295 4.59812338-1.6524295Zm-7.73999978.35586173c.17420674.06382753.32555142.17787915.43489615.32777556.109293.14984469.17172398.32881004.17932742.51413746.01013792.24806873-.07851717.49003403-.24651701.67282696-.16805157.18279293-.40168929.29146525-.64975802.30217213-.18532742.00801724-.36884449-.03915513-.52737882-.13551711-.15853434-.09636198-.28489629-.23756875-.36315484-.40577549-.07820682-.16820674-.104793-.35581001-.07629303-.53912019.02844825-.18331017.11063783-.35410312.23617219-.49065472.12553437-.13660332.2887756-.23286185.46908577-.27662043.18025846-.04375858.36946518-.03305169.54362019.03077583ZM17.4364146 1.00135428c.3971893-.01686206.7848097.12465505 1.0777232.39346515.2929135.26875837.4671202.64282699.4844478 1.03996455.0128793.29648249-.062431.59006842-.2164653.84372336-.1539826.25365493-.3797583.45594785-.6487753.5812236-.269017.12527574-.5691201.16799984-.8623957.12268954-.2932239-.0453103-.5664823-.17658605-.78512-.37722379-.2186377-.20058602-.3728789-.46158578-.443172-.74989586-.070293-.28825835-.0534827-.59094773.0483103-.86968885.1017413-.27874112.2839135-.52106848.5233961-.69625797.2394825-.17518949.5256202-.27543078.8220509-.28799973Z" id="notebooks-a"/></defs><g fill="none" fill-rule="evenodd"><path fill="none" d="M0 0h20v20H0z"/><mask id="notebooks-b" fill="#fff"><use xlink:href="#notebooks-a"/></mask><use fill="currentcolor" xlink:href="#notebooks-a"/><g mask="url(#notebooks-b)" fill="currentcolor"><path d="M0 0h20v20H0z"/></g></g></svg>