<?xml version="1.0" encoding="UTF-8"?>
<svg xmlns="http://www.w3.org/2000/svg" xmlns:xlink="http://www.w3.org/1999/xlink" width="20px" height="20px" viewBox="0 0 20 20" version="1.1">
<g id="surface1">
<rect x="0" y="0" width="20" height="20" style="fill:rgb(100%,100%,100%);fill-opacity:0.0117647;stroke:none;"/>
<path style=" stroke:none;fill-rule:nonzero;fill:rgb(15.294118%,15.294118%,15.686275%);fill-opacity:1;" d="M 18.75 1.25 C 18.058594 1.25 17.5 1.808594 17.5 2.5 L 17.5 17.5 C 17.5 18.191406 18.058594 18.75 18.75 18.75 C 19.441406 18.75 20 18.191406 20 17.5 L 20 2.5 C 20 1.808594 19.441406 1.25 18.75 1.25 Z M 18.75 1.25 "/>
<path style=" stroke:none;fill-rule:nonzero;fill:rgb(15.294118%,15.294118%,15.686275%);fill-opacity:1;" d="M 9.117188 12.867188 C 8.628906 13.355469 8.628906 14.144531 9.117188 14.632812 C 9.605469 15.121094 10.394531 15.121094 10.882812 14.632812 L 14.632812 10.882812 C 14.867188 10.648438 15 10.332031 15 10 C 15 9.667969 14.867188 9.351562 14.632812 9.117188 L 10.882812 5.367188 C 10.394531 4.878906 9.605469 4.878906 9.117188 5.367188 C 8.628906 5.855469 8.628906 6.644531 9.117188 7.132812 L 10.730469 8.75 L 1.25 8.75 C 0.558594 8.75 0 9.308594 0 10 C 0 10.691406 0.558594 11.25 1.25 11.25 L 10.730469 11.25 Z M 9.117188 12.867188 "/>
</g>
</svg>
