<svg width="20" height="20" xmlns="http://www.w3.org/2000/svg"><g fill="none" fill-rule="evenodd"><path fill="none" d="M0 0h20v20H0z"/><path d="M7.896.646a7.253 7.253 0 0 1 7.25 7.256c0 1.64-.543 3.153-1.46 4.368l5.668 5.67-1.415 1.414-5.666-5.666a7.214 7.214 0 0 1-4.377 1.47 7.253 7.253 0 0 1-7.25-7.256A7.253 7.253 0 0 1 7.896.646Zm0 2.233a5.021 5.021 0 0 0-5.019 5.023 5.021 5.021 0 0 0 5.02 5.024 5.021 5.021 0 0 0 5.019-5.024 5.021 5.021 0 0 0-5.02-5.023Z" fill="#000" fill-rule="nonzero"/></g></svg>