<svg width="20" height="20" xmlns="http://www.w3.org/2000/svg"><g fill="none" fill-rule="evenodd"><path fill="none" d="M0 0h20v20H0z"/><path d="M13 1a1 1 0 0 1 .993.883L14 2v2h4.5v2h-1.106l-1.343 12.11a1 1 0 0 1-.878.883l-.116.007H4.887a1 1 0 0 1-.975-.779l-.02-.115L2.6 6H1.5V4H6V2a1 1 0 0 1 .883-.993L7 1h6Zm2.383 5H4.612l1.174 11h8.376l1.221-11ZM8 7.75a.75.75 0 0 1 .743.648l.007.102v6a.75.75 0 0 1-1.493.102L7.25 14.5v-6A.75.75 0 0 1 8 7.75Zm4 0a.75.75 0 0 1 .743.648l.007.102v6a.75.75 0 0 1-1.493.102l-.007-.102v-6a.75.75 0 0 1 .75-.75ZM12 3H8v1h4V3Z" fill="currentcolor" fill-rule="nonzero"/></g></svg>
