<svg width="20" height="20" xmlns="http://www.w3.org/2000/svg" xmlns:xlink="http://www.w3.org/1999/xlink"><defs><path d="M10 0c5.5228475 0 10 4.4771525 10 10s-4.4771525 10-10 10S0 15.5228475 0 10 4.4771525 0 10 0ZM5 8.5H3l.00408412.23788449c.12761924 3.71192961 3.22963707 6.70631691 6.98861801 6.73375021L10.162 15.472l-.97554147.9596758L10.2393989 17.5l2.5370713-2.5005374.0740243-.0846423c.2220141-.2957662.1967019-.7183632-.0755368-.9851684l-2.5370713-2.4864346-1.04991543 1.0712971L10.165 13.472 10 13.4716613l-.21531885-.0061557C7.14220309 13.3335556 5 11.1429766 5 8.5Zm4.76060114-6-2.5370713 2.50053738-.07402439.08464233c-.22201401.29576624-.19670188.71836317.07553683.98516836l2.5370713 2.48643467L10.812029 7.4854856 9.835 6.528l.165.00033866.2153189.00615571C12.8577969 6.66644439 15 8.85702342 15 11.5h2l-.0040841-.2378845c-.1276193-3.71192958-3.2296371-6.70631693-6.988618-6.73375021L9.838 4.528l.9755415-.95967577L9.76060114 2.5Z" id="updateda"/></defs><g fill="none" fill-rule="evenodd"><path fill="none" d="M0 0h20v20H0z"/><mask id="updatedb" fill="#fff"><use xlink:href="#updateda"/></mask><use fill="currentcolor" fill-rule="nonzero" xlink:href="#updateda"/><g mask="url(#updatedb)" fill="currentcolor"><path d="M0 0h20v20H0z"/></g></g></svg>