<svg width="20" height="20" xmlns="http://www.w3.org/2000/svg"><g fill="none" fill-rule="evenodd"><path fill="none" d="M0 0h20v20H0z"/><path d="M2.998 14a2 2 0 1 1 0 4 2 2 0 0 1 0-4Zm14.504.5a1.5 1.5 0 0 1 .145 2.993l-.145.007H8.48a1.5 1.5 0 0 1-.145-2.993l.145-.007h9.023ZM2.998 8a2 2 0 1 1 0 4 2 2 0 0 1 0-4Zm14.504.5a1.5 1.5 0 0 1 .145 2.993l-.145.007H8.48a1.5 1.5 0 0 1-.145-2.993L8.48 8.5h9.023ZM2.998 2a2 2 0 1 1 0 4 2 2 0 0 1 0-4Zm14.504.5a1.5 1.5 0 0 1 .145 2.993l-.145.007H8.48a1.5 1.5 0 0 1-.145-2.993L8.48 2.5h9.023Z" fill="currentcolor"/></g></svg>
