<?xml version="1.0" encoding="utf-8"?>
<!-- Generator: Adobe Illustrator 26.3.1, SVG Export Plug-In . SVG Version: 6.00 Build 0)  -->
<svg version="1.1" id="Layer_1" xmlns="http://www.w3.org/2000/svg" xmlns:xlink="http://www.w3.org/1999/xlink" x="0px" y="0px"
	 viewBox="0 0 1200 746.7" style="enable-background:new 0 0 1200 746.7;" xml:space="preserve">
<style type="text/css">
	.st0{fill:url(#SVGID_1_);}
	.st1{fill:url(#SVGID_00000134251480434193820460000012115305206247112632_);enable-background:new    ;}
	.st2{fill:url(#SVGID_00000039817698185479055580000005349319801672146352_);enable-background:new    ;}
	.st3{filter:url(#Adobe_OpacityMaskFilter);}
	.st4{fill-rule:evenodd;clip-rule:evenodd;fill:url(#SVGID_00000154424480730064361070000014069565797479542945_);}
	.st5{mask:url(#SVGID_00000028302898008932495730000017303103558091011236_);}
	.st6{opacity:0.2;fill-rule:evenodd;clip-rule:evenodd;fill:#5BA3B1;}
	.st7{filter:url(#Adobe_OpacityMaskFilter_00000052800433020137747280000013733177648639475098_);}
	.st8{fill-rule:evenodd;clip-rule:evenodd;fill:url(#SVGID_00000035520353162866781020000009692663891832663741_);}
	.st9{mask:url(#SVGID_00000125600657635043645240000014058287408726537151_);}
	.st10{opacity:0.3;fill-rule:evenodd;clip-rule:evenodd;fill:#5BA3B1;}
	.st11{clip-path:url(#SVGID_00000008849743480396977670000008106902201927979946_);}
	.st12{fill-rule:evenodd;clip-rule:evenodd;fill:#DEE8EF;}
	.st13{opacity:0.4;fill-rule:evenodd;clip-rule:evenodd;fill:#FFFFFF;}
	.st14{fill-rule:evenodd;clip-rule:evenodd;fill:#FFFFFF;}
	.st15{fill:#5BA3B1;}
	.st16{fill:#FFFFFF;}
	.st17{fill:#582F6B;}
	.st18{fill-rule:evenodd;clip-rule:evenodd;fill:#582F6B;}
	.st19{fill:#8A6D97;}
	.st20{fill-rule:evenodd;clip-rule:evenodd;fill:#E68F52;fill-opacity:0.3;}
	.st21{fill-rule:evenodd;clip-rule:evenodd;fill:#E68F52;}
	.st22{fill:#FFCC33;}
	.st23{fill-rule:evenodd;clip-rule:evenodd;fill:#E25A1C;}
	.st24{fill-rule:evenodd;clip-rule:evenodd;fill:#3C3A3E;}
	.st25{fill:#3C3A3E;}
	.st26{fill:#4E4E4E;}
	.st27{fill:#767677;}
	.st28{fill:#F37726;}
	.st29{fill:#989798;}
	.st30{fill:#6F7070;}
	.st31{clip-path:url(#SVGID_00000075132701248567331790000010874331717762220441_);}
	.st32{fill:url(#SVGID_00000122722005003110673610000003123875372544071095_);}
	.st33{clip-path:url(#SVGID_00000181808700741857172890000013527962449261729184_);}
	.st34{fill:url(#SVGID_00000077326631999303520250000005953880392013449858_);}
	.st35{fill:#425066;}
	.st36{fill:#F14621;}
	.st37{fill:#464648;}
	.st38{fill:#100F0D;}
	.st39{fill:#252F3E;}
	.st40{fill-rule:evenodd;clip-rule:evenodd;fill:#FF9900;}
	.st41{fill:#F78D1E;}
	.st42{fill:#326DE6;}
	.st43{fill:#E2E3E4;enable-background:new    ;}
	.st44{enable-background:new    ;}
	.st45{fill:#0074BC;}
	.st46{fill:#EA4334;}
	.st47{fill:#F8BB16;}
	.st48{fill:#2072B8;}
	.st49{fill:#4285F4;}
	.st50{fill-rule:evenodd;clip-rule:evenodd;fill:#3D7CE3;}
	.st51{fill:none;stroke:#E5EDF2;stroke-width:4;stroke-linecap:round;stroke-miterlimit:10;}
	.st52{fill:none;stroke:#5BA3B1;stroke-width:8;stroke-linecap:round;stroke-miterlimit:10;}
</style>
<linearGradient id="SVGID_1_" gradientUnits="userSpaceOnUse" x1="599.6772" y1="43.6046" x2="599.6772" y2="695.7247">
	<stop  offset="0" style="stop-color:#5BA3B1;stop-opacity:5.000000e-02"/>
	<stop  offset="0.5244" style="stop-color:#9CEEFE;stop-opacity:0.1"/>
	<stop  offset="1" style="stop-color:#582F6B;stop-opacity:5.000000e-02"/>
</linearGradient>
<path class="st0" d="M289.1,702.1c-24.8,0-45-20.2-45-45V95c0-24.8,20.2-45,45-45h621.2c24.8,0,45,20.2,45,45v562.1
	c0,24.8-20.2,45-45,45H289.1z"/>
<linearGradient id="SVGID_00000100343551333163707220000001224604586062319524_" gradientUnits="userSpaceOnUse" x1="27.7394" y1="376.0862" x2="287.3945" y2="376.0862">
	<stop  offset="0.4347" style="stop-color:#9CEEFE;stop-opacity:0"/>
	<stop  offset="0.9985" style="stop-color:#9CEEFE;stop-opacity:0.4"/>
</linearGradient>
<rect x="27.7" y="209.8" style="fill:url(#SVGID_00000100343551333163707220000001224604586062319524_);enable-background:new    ;" width="259.7" height="332.5"/>
<linearGradient id="SVGID_00000044148963008608866260000017782232931564895890_" gradientUnits="userSpaceOnUse" x1="912.788" y1="376.0862" x2="1162.443" y2="376.0862">
	<stop  offset="1.535000e-03" style="stop-color:#9CEEFE;stop-opacity:0.4"/>
	<stop  offset="0.5653" style="stop-color:#9CEEFE;stop-opacity:0"/>
</linearGradient>
<rect x="912.8" y="209.8" style="fill:url(#SVGID_00000044148963008608866260000017782232931564895890_);enable-background:new    ;" width="249.7" height="332.5"/>
<defs>
	<filter id="Adobe_OpacityMaskFilter" filterUnits="userSpaceOnUse" x="929.4" y="230.3" width="203.2" height="323.3">
		<feColorMatrix  type="matrix" values="1 0 0 0 0  0 1 0 0 0  0 0 1 0 0  0 0 0 1 0"/>
	</filter>
</defs>
<mask maskUnits="userSpaceOnUse" x="929.4" y="230.3" width="203.2" height="323.3" id="SVGID_00000160908910982062895500000004271142293651369659_">
	<g class="st3">
		
			<linearGradient id="SVGID_00000054258894158882726720000008347518762219060371_" gradientUnits="userSpaceOnUse" x1="912.7321" y1="374.7587" x2="1192.4353" y2="374.7587">
			<stop  offset="0.3704" style="stop-color:#FFFFFF"/>
			<stop  offset="0.3738" style="stop-color:#FDFDFD"/>
			<stop  offset="0.555" style="stop-color:#A5A5A5"/>
			<stop  offset="0.7143" style="stop-color:#5E5E5E"/>
			<stop  offset="0.8459" style="stop-color:#2B2B2B"/>
			<stop  offset="0.945" style="stop-color:#0C0C0C"/>
			<stop  offset="1" style="stop-color:#000000"/>
		</linearGradient>
		
			<rect x="912.7" y="223.1" style="fill-rule:evenodd;clip-rule:evenodd;fill:url(#SVGID_00000054258894158882726720000008347518762219060371_);" width="279.7" height="303.4"/>
	</g>
</mask>
<g style="mask:url(#SVGID_00000160908910982062895500000004271142293651369659_);">
	<g>
		<g>
			<rect x="931.1" y="230.3" class="st6" width="17.8" height="17.8"/>
			<rect x="967.4" y="230.3" class="st6" width="17.8" height="17.8"/>
			<rect x="1003.7" y="230.3" class="st6" width="17.8" height="17.8"/>
			<circle class="st6" cx="940" cy="293.3" r="9.7"/>
			<circle class="st6" cx="976.3" cy="293.3" r="9.7"/>
			<circle class="st6" cx="1012.6" cy="293.3" r="9.7"/>
			<polygon class="st6" points="941.1,255 930.5,273.4 951.7,273.4 			"/>
			<polygon class="st6" points="976.3,255.5 965.7,273.9 986.9,273.9 			"/>
			<polygon class="st6" points="1012.6,255.5 1002,273.9 1023.2,273.9 			"/>
			<rect x="931.1" y="312.2" class="st6" width="17.8" height="17.8"/>
			<rect x="967.4" y="312.2" class="st6" width="17.8" height="17.8"/>
			<rect x="1003.7" y="312.2" class="st6" width="17.8" height="17.8"/>
			<circle class="st6" cx="940" cy="376.3" r="9.7"/>
			<circle class="st6" cx="976.3" cy="376.3" r="9.7"/>
			<circle class="st6" cx="1012.6" cy="376.3" r="9.7"/>
			<polygon class="st6" points="940,337.7 929.4,356.1 950.6,356.1 			"/>
			<polygon class="st6" points="976.3,337.7 965.7,356.1 986.9,356.1 			"/>
			<polygon class="st6" points="1012.6,337.7 1002,356.1 1023.2,356.1 			"/>
		</g>
	</g>
	<g>
		<g>
			<rect x="931.1" y="398" class="st6" width="17.8" height="17.8"/>
			<rect x="967.4" y="398" class="st6" width="17.8" height="17.8"/>
			<rect x="1003.7" y="398" class="st6" width="17.8" height="17.8"/>
			<circle class="st6" cx="940" cy="461" r="9.7"/>
			<circle class="st6" cx="976.3" cy="461" r="9.7"/>
			<circle class="st6" cx="1012.6" cy="461" r="9.7"/>
			<polygon class="st6" points="941.1,422.7 930.5,441.1 951.7,441.1 			"/>
			<polygon class="st6" points="976.3,423.2 965.7,441.6 986.9,441.6 			"/>
			<polygon class="st6" points="1012.6,423.2 1002,441.6 1023.2,441.6 			"/>
			<rect x="931.1" y="479.9" class="st6" width="17.8" height="17.8"/>
			<rect x="967.4" y="479.9" class="st6" width="17.8" height="17.8"/>
			<rect x="1003.7" y="479.9" class="st6" width="17.8" height="17.8"/>
			<circle class="st6" cx="940" cy="544" r="9.7"/>
			<circle class="st6" cx="976.3" cy="544" r="9.7"/>
			<circle class="st6" cx="1012.6" cy="544" r="9.7"/>
			<polygon class="st6" points="940,505.4 929.4,523.7 950.6,523.7 			"/>
			<polygon class="st6" points="976.3,505.4 965.7,523.7 986.9,523.7 			"/>
			<polygon class="st6" points="1012.6,505.4 1002,523.7 1023.2,523.7 			"/>
		</g>
	</g>
	<g>
		<g>
			<rect x="1040.5" y="230.3" class="st6" width="17.8" height="17.8"/>
			<rect x="1076.8" y="230.3" class="st6" width="17.8" height="17.8"/>
			<rect x="1113.1" y="230.3" class="st6" width="17.8" height="17.8"/>
			<circle class="st6" cx="1049.4" cy="293.3" r="9.7"/>
			<circle class="st6" cx="1085.7" cy="293.3" r="9.7"/>
			<circle class="st6" cx="1122" cy="293.3" r="9.7"/>
			<polygon class="st6" points="1050.5,255 1039.9,273.4 1061.1,273.4 			"/>
			<polygon class="st6" points="1085.7,255.5 1075.1,273.9 1096.3,273.9 			"/>
			<polygon class="st6" points="1122,255.5 1111.4,273.9 1132.6,273.9 			"/>
			<rect x="1040.5" y="312.2" class="st6" width="17.8" height="17.8"/>
			<rect x="1076.8" y="312.2" class="st6" width="17.8" height="17.8"/>
			<rect x="1113.1" y="312.2" class="st6" width="17.8" height="17.8"/>
			<circle class="st6" cx="1049.4" cy="376.3" r="9.7"/>
			<circle class="st6" cx="1085.7" cy="376.3" r="9.7"/>
			<circle class="st6" cx="1122" cy="376.3" r="9.7"/>
			<polygon class="st6" points="1049.4,337.7 1038.8,356.1 1060,356.1 			"/>
			<polygon class="st6" points="1085.7,337.7 1075.1,356.1 1096.3,356.1 			"/>
			<polygon class="st6" points="1122,337.7 1111.4,356.1 1132.6,356.1 			"/>
		</g>
	</g>
	<g>
		<g>
			<rect x="1040.5" y="398" class="st6" width="17.8" height="17.8"/>
			<rect x="1076.8" y="398" class="st6" width="17.8" height="17.8"/>
			<rect x="1113.1" y="398" class="st6" width="17.8" height="17.8"/>
			<circle class="st6" cx="1049.4" cy="461" r="9.7"/>
			<circle class="st6" cx="1085.7" cy="461" r="9.7"/>
			<circle class="st6" cx="1122" cy="461" r="9.7"/>
			<polygon class="st6" points="1050.5,422.7 1039.9,441.1 1061.1,441.1 			"/>
			<polygon class="st6" points="1085.7,423.2 1075.1,441.6 1096.3,441.6 			"/>
			<polygon class="st6" points="1122,423.2 1111.4,441.6 1132.6,441.6 			"/>
			<rect x="1040.5" y="479.9" class="st6" width="17.8" height="17.8"/>
			<rect x="1076.8" y="479.9" class="st6" width="17.8" height="17.8"/>
			<rect x="1113.1" y="479.9" class="st6" width="17.8" height="17.8"/>
			<circle class="st6" cx="1049.4" cy="544" r="9.7"/>
			<circle class="st6" cx="1085.7" cy="544" r="9.7"/>
			<circle class="st6" cx="1122" cy="544" r="9.7"/>
			<polygon class="st6" points="1049.4,505.4 1038.8,523.7 1060,523.7 			"/>
			<polygon class="st6" points="1085.7,505.4 1075.1,523.7 1096.3,523.7 			"/>
			<polygon class="st6" points="1122,505.4 1111.4,523.7 1132.6,523.7 			"/>
		</g>
	</g>
</g>
<defs>
	
		<filter id="Adobe_OpacityMaskFilter_00000119081794683122959100000007089914744817797256_" filterUnits="userSpaceOnUse" x="59" y="236.2" width="222.4" height="281.3">
		<feColorMatrix  type="matrix" values="1 0 0 0 0  0 1 0 0 0  0 0 1 0 0  0 0 0 1 0"/>
	</filter>
</defs>
<mask maskUnits="userSpaceOnUse" x="59" y="236.2" width="222.4" height="281.3" id="SVGID_00000128469667154084186050000004841272207219861132_">
	<g style="filter:url(#Adobe_OpacityMaskFilter_00000119081794683122959100000007089914744817797256_);">
		
			<linearGradient id="SVGID_00000141457831857722054800000005063556920340811199_" gradientUnits="userSpaceOnUse" x1="13.6783" y1="363.4576" x2="287.8035" y2="363.4576">
			<stop  offset="1.273019e-03" style="stop-color:#000000"/>
			<stop  offset="7.937823e-02" style="stop-color:#191919"/>
			<stop  offset="0.2456" style="stop-color:#595959"/>
			<stop  offset="0.4844" style="stop-color:#BEBEBE"/>
			<stop  offset="0.6296" style="stop-color:#FFFFFF"/>
		</linearGradient>
		
			<rect x="13.7" y="208" style="fill-rule:evenodd;clip-rule:evenodd;fill:url(#SVGID_00000141457831857722054800000005063556920340811199_);" width="274.1" height="310.8"/>
	</g>
</mask>
<g style="mask:url(#SVGID_00000128469667154084186050000004841272207219861132_);">
	<rect x="79.1" y="238.3" class="st10" width="42.8" height="42.8"/>
	<rect x="232.2" y="467.1" class="st10" width="34.1" height="34.1"/>
	<rect x="225.4" y="313.7" class="st10" width="25.8" height="25.8"/>
	<rect x="104.9" y="415" class="st10" width="25.8" height="25.8"/>
	<rect x="161.5" y="414.9" class="st10" width="21.8" height="21.8"/>
	<rect x="192.3" y="255.9" class="st10" width="21.8" height="21.8"/>
	<circle class="st10" cx="161.5" cy="299.4" r="18.3"/>
	<circle class="st10" cx="232.9" cy="425.8" r="18.3"/>
	<circle class="st10" cx="95.8" cy="493.2" r="24.3"/>
	<circle class="st10" cx="104.8" cy="339.6" r="15.7"/>
	<circle class="st10" cx="241.9" cy="245.1" r="8.9"/>
	<circle class="st10" cx="69.3" cy="302.6" r="8.9"/>
	<circle class="st10" cx="205.7" cy="453.8" r="8.9"/>
	<polygon class="st10" points="184.3,480.9 164.2,515.8 204.4,515.8 	"/>
	<polygon class="st10" points="192.3,313 168,355 216.5,355 	"/>
	<polygon class="st10" points="266.3,354.7 251.3,380.7 281.3,380.7 	"/>
	<polygon class="st10" points="86.5,372.7 71.5,398.7 101.5,398.7 	"/>
	<polygon class="st10" points="256.9,268.2 241.9,294.1 271.9,294.1 	"/>
	<polygon class="st10" points="148.6,246.7 137.8,265.2 159.3,265.2 	"/>
	<polygon class="st10" points="153.9,462.7 143.1,481.3 164.6,481.3 	"/>
	<polygon class="st10" points="69.7,435.7 59,454.2 80.4,454.2 	"/>
</g>
<g>
	<path d="M122,381.8h-8.5l-1.6,3.9h-4.3l8.1-18.2h4.2l8.1,18.2h-4.4L122,381.8z M120.7,378.6l-2.9-7l-2.9,7H120.7z"/>
	<path d="M143.7,377.7v8h-4.1v-7.4c0-2.3-1-3.3-2.8-3.3c-1.9,0-3.4,1.2-3.4,3.8v6.9h-4.1v-14h3.9v1.6c1.1-1.2,2.7-1.8,4.6-1.8
		C141.2,371.5,143.7,373.4,143.7,377.7z"/>
	<path d="M160.2,371.7l-6.3,14.8c-1.4,3.4-3.3,4.4-5.8,4.4c-1.4,0-3-0.5-3.9-1.3l1.5-2.9c0.6,0.5,1.5,0.9,2.3,0.9
		c1.1,0,1.7-0.5,2.3-1.7l0.1-0.1l-6.1-14.1h4.2l3.9,9.5l4-9.5H160.2z"/>
	<path d="M169,367.5h8.3c6,0,10,3.6,10,9.1c0,5.5-4.1,9.1-10,9.1H169V367.5z M177,382.2c3.6,0,6-2.2,6-5.6c0-3.5-2.4-5.6-6-5.6h-3.8
		v11.3H177z"/>
	<path d="M202.1,377.7v8h-3.8v-1.7c-0.8,1.3-2.2,2-4.3,2c-3.3,0-5.2-1.8-5.2-4.2c0-2.5,1.7-4.2,6-4.2h3.2c0-1.7-1-2.8-3.2-2.8
		c-1.5,0-3,0.5-4,1.3l-1.5-2.8c1.5-1.1,3.8-1.7,6-1.7C199.6,371.5,202.1,373.4,202.1,377.7z M198,381.2v-1.4h-2.8
		c-1.9,0-2.5,0.7-2.5,1.6c0,1,0.9,1.7,2.3,1.7C196.4,383.1,197.5,382.5,198,381.2z"/>
	<path d="M214.1,385c-0.8,0.6-2.1,0.9-3.3,0.9c-3.3,0-5.2-1.7-5.2-5v-5.7h-2.2V372h2.2v-3.4h4.1v3.4h3.5v3.1h-3.5v5.7
		c0,1.2,0.6,1.8,1.7,1.8c0.6,0,1.2-0.2,1.6-0.5L214.1,385z"/>
	<path d="M228.1,377.7v8h-3.8v-1.7c-0.8,1.3-2.2,2-4.3,2c-3.3,0-5.2-1.8-5.2-4.2c0-2.5,1.7-4.2,6-4.2h3.2c0-1.7-1-2.8-3.2-2.8
		c-1.5,0-3,0.5-4,1.3l-1.5-2.8c1.5-1.1,3.8-1.7,6-1.7C225.7,371.5,228.1,373.4,228.1,377.7z M224.1,381.2v-1.4h-2.8
		c-1.9,0-2.5,0.7-2.5,1.6c0,1,0.9,1.7,2.3,1.7C222.4,383.1,223.6,382.5,224.1,381.2z"/>
</g>
<g>
	<path d="M965,370.1l-3.5-5.1h-0.2h-3.7v5.1h-4.2v-18.2h7.9c4.9,0,7.9,2.5,7.9,6.6c0,2.7-1.4,4.7-3.7,5.7l4.1,5.9H965z M961,355.3
		h-3.4v6.3h3.4c2.6,0,3.9-1.2,3.9-3.2C964.9,356.5,963.6,355.3,961,355.3z"/>
	<path d="M985.4,364.2h-10.6c0.4,1.7,1.9,2.8,4,2.8c1.5,0,2.5-0.4,3.5-1.4l2.2,2.3c-1.3,1.5-3.3,2.3-5.8,2.3c-4.8,0-8-3-8-7.2
		c0-4.2,3.2-7.2,7.5-7.2c4.1,0,7.3,2.8,7.3,7.3C985.4,363.4,985.4,363.9,985.4,364.2z M974.7,361.8h6.9c-0.3-1.8-1.6-2.9-3.4-2.9
		C976.3,358.9,975,360.1,974.7,361.8z"/>
	<path d="M1002.9,363.1c0,4.4-3,7.2-7,7.2c-1.7,0-3.2-0.5-4.2-1.7v6.5h-4.1v-19h3.9v1.6c1-1.2,2.5-1.8,4.4-1.8
		C999.8,355.9,1002.9,358.7,1002.9,363.1z M998.8,363.1c0-2.4-1.5-3.9-3.6-3.9s-3.6,1.5-3.6,3.9c0,2.4,1.5,3.9,3.6,3.9
		S998.8,365.5,998.8,363.1z"/>
	<path d="M1013.8,355.9v3.7c-0.3,0-0.6-0.1-0.9-0.1c-2.2,0-3.7,1.2-3.7,3.9v6.6h-4.1v-14h3.9v1.8
		C1010,356.6,1011.7,355.9,1013.8,355.9z"/>
	<path d="M1014.7,363.1c0-4.2,3.2-7.2,7.7-7.2s7.7,3,7.7,7.2c0,4.2-3.2,7.2-7.7,7.2S1014.7,367.3,1014.7,363.1z M1025.9,363.1
		c0-2.4-1.5-3.9-3.6-3.9s-3.6,1.5-3.6,3.9c0,2.4,1.6,3.9,3.6,3.9S1025.9,365.5,1025.9,363.1z"/>
	<path d="M1046.6,350.8v19.3h-3.9v-1.6c-1,1.2-2.5,1.8-4.4,1.8c-4,0-7-2.8-7-7.2s3-7.2,7-7.2c1.7,0,3.2,0.5,4.2,1.7v-6.8H1046.6z
		 M1042.6,363.1c0-2.4-1.6-3.9-3.6-3.9c-2,0-3.6,1.5-3.6,3.9c0,2.4,1.6,3.9,3.6,3.9C1041.1,366.9,1042.6,365.5,1042.6,363.1z"/>
	<path d="M1063.8,356.1v14h-3.8v-1.7c-1.1,1.2-2.6,1.9-4.3,1.9c-3.5,0-6-2-6-6.3v-7.9h4.1v7.3c0,2.3,1,3.4,2.8,3.4
		c1.9,0,3.2-1.2,3.2-3.8v-6.9H1063.8z"/>
	<path d="M1066.1,363.1c0-4.2,3.2-7.2,7.8-7.2c2.9,0,5.3,1.3,6.3,3.6l-3.1,1.7c-0.8-1.3-1.9-1.9-3.1-1.9c-2.1,0-3.7,1.4-3.7,3.9
		c0,2.4,1.6,3.9,3.7,3.9c1.3,0,2.4-0.6,3.1-1.9l3.1,1.7c-1,2.2-3.3,3.5-6.3,3.5C1069.3,370.3,1066.1,367.3,1066.1,363.1z"/>
	<path d="M1081.5,351.9c0-1.3,1-2.3,2.5-2.3s2.5,0.9,2.5,2.2c0,1.4-1,2.3-2.5,2.3S1081.5,353.1,1081.5,351.9z M1082,356.1h4.1v14
		h-4.1V356.1z"/>
	<path d="M1104.4,363.1c0,4.4-3,7.2-7,7.2c-1.9,0-3.4-0.6-4.4-1.8v1.6h-3.9v-19.3h4.1v6.8c1-1.1,2.5-1.7,4.2-1.7
		C1101.4,355.9,1104.4,358.7,1104.4,363.1z M1100.3,363.1c0-2.4-1.5-3.9-3.6-3.9s-3.6,1.5-3.6,3.9c0,2.4,1.5,3.9,3.6,3.9
		S1100.3,365.5,1100.3,363.1z"/>
	<path d="M1106.7,350.8h4.1v19.3h-4.1V350.8z"/>
	<path d="M1127.7,364.2h-10.6c0.4,1.7,1.9,2.8,4,2.8c1.5,0,2.5-0.4,3.5-1.4l2.2,2.3c-1.3,1.5-3.2,2.3-5.8,2.3c-4.8,0-8-3-8-7.2
		c0-4.2,3.2-7.2,7.5-7.2c4.1,0,7.3,2.8,7.3,7.3C1127.7,363.4,1127.7,363.9,1127.7,364.2z M1117,361.8h6.9c-0.3-1.8-1.6-2.9-3.4-2.9
		C1118.6,358.9,1117.3,360.1,1117,361.8z"/>
	<path d="M978.3,383.1h8.3c6,0,10,3.6,10,9.1c0,5.5-4.1,9.1-10,9.1h-8.3V383.1z M986.4,397.8c3.6,0,6-2.2,6-5.6c0-3.5-2.4-5.6-6-5.6
		h-3.8v11.3H986.4z"/>
	<path d="M1011.4,393.3v8h-3.8v-1.7c-0.8,1.3-2.2,2-4.3,2c-3.3,0-5.2-1.8-5.2-4.2c0-2.5,1.7-4.2,6-4.2h3.2c0-1.7-1-2.8-3.2-2.8
		c-1.5,0-3,0.5-4,1.3l-1.5-2.8c1.5-1.1,3.8-1.7,6-1.7C1009,387.1,1011.4,389,1011.4,393.3z M1007.4,396.8v-1.4h-2.8
		c-1.9,0-2.5,0.7-2.5,1.6c0,1,0.9,1.7,2.3,1.7C1005.7,398.7,1006.9,398.1,1007.4,396.8z"/>
	<path d="M1023.5,400.6c-0.8,0.6-2.1,0.9-3.3,0.9c-3.3,0-5.2-1.7-5.2-5v-5.7h-2.2v-3.1h2.2v-3.4h4.1v3.4h3.5v3.1h-3.5v5.7
		c0,1.2,0.7,1.8,1.7,1.8c0.6,0,1.2-0.2,1.6-0.5L1023.5,400.6z"/>
	<path d="M1037.5,393.3v8h-3.8v-1.7c-0.8,1.3-2.2,2-4.3,2c-3.3,0-5.2-1.8-5.2-4.2c0-2.5,1.7-4.2,6-4.2h3.2c0-1.7-1-2.8-3.2-2.8
		c-1.5,0-3,0.5-4,1.3l-1.5-2.8c1.5-1.1,3.8-1.7,6-1.7C1035,387.1,1037.5,389,1037.5,393.3z M1033.5,396.8v-1.4h-2.8
		c-1.9,0-2.5,0.7-2.5,1.6c0,1,0.9,1.7,2.3,1.7C1031.8,398.7,1033,398.1,1033.5,396.8z"/>
	<path d="M1046.9,399.5l1.4-3.2c1.5,1.1,3.8,1.9,6,1.9c2.5,0,3.5-0.8,3.5-2c0-3.4-10.6-1.1-10.6-7.8c0-3.1,2.5-5.7,7.7-5.7
		c2.3,0,4.6,0.5,6.3,1.6l-1.3,3.2c-1.7-1-3.4-1.4-5-1.4c-2.5,0-3.5,0.9-3.5,2.1c0,3.4,10.6,1,10.6,7.7c0,3-2.5,5.6-7.7,5.6
		C1051.4,401.6,1048.5,400.7,1046.9,399.5z"/>
	<path d="M1078,395.4h-10.6c0.4,1.7,1.9,2.8,4,2.8c1.5,0,2.5-0.4,3.5-1.4l2.2,2.3c-1.3,1.5-3.2,2.3-5.8,2.3c-4.8,0-8-3-8-7.2
		c0-4.2,3.2-7.2,7.5-7.2c4.1,0,7.3,2.8,7.3,7.3C1078.1,394.6,1078,395.1,1078,395.4z M1067.3,393h6.9c-0.3-1.8-1.6-2.9-3.4-2.9
		C1069,390.1,1067.6,391.3,1067.3,393z"/>
	<path d="M1089.4,400.6c-0.8,0.6-2.1,0.9-3.3,0.9c-3.3,0-5.2-1.7-5.2-5v-5.7h-2.2v-3.1h2.2v-3.4h4.1v3.4h3.5v3.1h-3.5v5.7
		c0,1.2,0.7,1.8,1.7,1.8c0.6,0,1.2-0.2,1.6-0.5L1089.4,400.6z"/>
	<path d="M1090.3,400l1.4-2.9c1.2,0.8,3.1,1.4,4.9,1.4c1.9,0,2.6-0.5,2.6-1.3c0-2.3-8.5,0.1-8.5-5.5c0-2.7,2.4-4.5,6.5-4.5
		c1.9,0,4.1,0.4,5.4,1.2l-1.4,2.9c-1.4-0.8-2.8-1-4-1c-1.8,0-2.6,0.6-2.6,1.3c0,2.4,8.5,0.1,8.5,5.6c0,2.6-2.4,4.4-6.6,4.4
		C1094,401.5,1091.6,400.8,1090.3,400z"/>
</g>
<g>
	<g>
		<defs>
			<path id="SVGID_00000054962681663004625400000009174260757161330109_" d="M910.3,682.1H289.1c-13.8,0-25-11.2-25-25V95
				c0-13.8,11.2-25,25-25h621.2c13.8,0,25,11.2,25,25v562.1C935.3,671,924.1,682.1,910.3,682.1z"/>
		</defs>
		<clipPath id="SVGID_00000168821843530887126890000011977965869218735537_">
			<use xlink:href="#SVGID_00000054962681663004625400000009174260757161330109_"  style="overflow:visible;"/>
		</clipPath>
		<g style="clip-path:url(#SVGID_00000168821843530887126890000011977965869218735537_);">
			
				<rect x="293.6" y="40.5" transform="matrix(-1.836970e-16 1 -1 -1.836970e-16 975.7634 -223.591)" class="st12" width="612.1" height="671.2"/>
			<polygon class="st13" points="264.1,70 935.3,70 935.3,682.1 			"/>
			<polygon class="st13" points="264.1,682.1 264.1,70 935.3,70 			"/>
		</g>
		
			<use xlink:href="#SVGID_00000054962681663004625400000009174260757161330109_"  style="overflow:visible;fill-rule:evenodd;clip-rule:evenodd;fill:none;stroke:#DEE8EF;stroke-width:4;stroke-miterlimit:10;"/>
	</g>
	<path class="st14" d="M305.1,651.3h589.2c4.4,0,8-3.6,8-8V108.8c0-4.4-3.6-8-8-8H305.1c-4.4,0-8,3.6-8,8v534.5
		C297.1,647.8,300.7,651.3,305.1,651.3z"/>
</g>
<g>
	<path class="st15" d="M318.2,129.8c0-3.3,2.6-5.8,6.1-5.8c3.5,0,6.1,2.4,6.1,5.8c0,3.3-2.6,5.8-6.1,5.8
		C320.8,135.6,318.2,133.2,318.2,129.8z M327.8,129.8c0-2.1-1.5-3.6-3.5-3.6c-2,0-3.5,1.5-3.5,3.6c0,2.1,1.5,3.6,3.5,3.6
		C326.3,133.4,327.8,132,327.8,129.8z"/>
	<path class="st15" d="M342.1,128.3c0,2.5-1.9,4-4.9,4H335v3.1h-2.6v-11.2h4.9C340.2,124.2,342.1,125.8,342.1,128.3z M339.5,128.3
		c0-1.2-0.8-2-2.4-2H335v3.9h2.1C338.7,130.2,339.5,129.5,339.5,128.3z"/>
	<path class="st15" d="M352.6,133.4v2.1H344v-11.2h8.5v2.1h-5.9v2.4h5.2v2h-5.2v2.6H352.6z"/>
	<path class="st15" d="M365,124.2v11.2h-2.1l-5.6-6.8v6.8h-2.6v-11.2h2.1l5.6,6.8v-6.8H365z"/>
	<path class="st15" d="M372.1,124.2h2.6v11.2h-2.6V124.2z"/>
	<path class="st15" d="M387.7,124.2v11.2h-2.1l-5.6-6.8v6.8h-2.6v-11.2h2.1l5.6,6.8v-6.8H387.7z"/>
	<path class="st15" d="M392.6,126.3h-3.6v-2.1h9.8v2.1h-3.6v9.1h-2.6V126.3z"/>
	<path class="st15" d="M408.9,133.4v2.1h-8.7v-11.2h8.5v2.1h-5.9v2.4h5.2v2h-5.2v2.6H408.9z"/>
	<path class="st15" d="M418.5,129.7h2.4v4.5c-1.2,0.9-2.9,1.4-4.5,1.4c-3.5,0-6.1-2.4-6.1-5.8c0-3.4,2.6-5.8,6.2-5.8
		c2,0,3.6,0.7,4.7,1.9l-1.7,1.5c-0.8-0.9-1.8-1.3-2.9-1.3c-2.2,0-3.7,1.5-3.7,3.6c0,2.1,1.5,3.6,3.6,3.6c0.7,0,1.4-0.1,2-0.5V129.7z
		"/>
	<path class="st15" d="M430.4,135.4l-2.2-3.1h-0.1h-2.3v3.1h-2.6v-11.2h4.9c3,0,4.9,1.6,4.9,4.1c0,1.7-0.8,2.9-2.3,3.5l2.5,3.6
		H430.4z M428,126.3h-2.1v3.9h2.1c1.6,0,2.4-0.7,2.4-2C430.3,127.1,429.5,126.3,428,126.3z"/>
	<path class="st15" d="M442.4,133h-5.2l-1,2.4h-2.7l5-11.2h2.6l5,11.2h-2.7L442.4,133z M441.6,131.1l-1.8-4.3l-1.8,4.3H441.6z"/>
	<path class="st15" d="M449,126.3h-3.6v-2.1h9.8v2.1h-3.6v9.1H449V126.3z"/>
	<path class="st15" d="M456.6,124.2h2.6v11.2h-2.6V124.2z"/>
	<path class="st15" d="M461.1,129.8c0-3.3,2.6-5.8,6.1-5.8c3.5,0,6.1,2.4,6.1,5.8c0,3.3-2.6,5.8-6.1,5.8
		C463.7,135.6,461.1,133.2,461.1,129.8z M470.8,129.8c0-2.1-1.5-3.6-3.5-3.6c-2,0-3.5,1.5-3.5,3.6c0,2.1,1.5,3.6,3.5,3.6
		C469.3,133.4,470.8,132,470.8,129.8z"/>
	<path class="st15" d="M485.6,124.2v11.2h-2.1l-5.6-6.8v6.8h-2.6v-11.2h2.1l5.6,6.8v-6.8H485.6z"/>
</g>
<g>
	<g>
		<path class="st15" d="M326,525.1l-2.2-3.1h-0.1h-2.3v3.1h-2.6v-11.2h4.9c3,0,4.9,1.6,4.9,4.1c0,1.7-0.8,2.9-2.3,3.5l2.5,3.6H326z
			 M323.6,516h-2.1v3.9h2.1c1.6,0,2.4-0.7,2.4-2C326,516.7,325.2,516,323.6,516z"/>
		<path class="st15" d="M339.3,523v2.1h-8.7v-11.2h8.5v2.1h-5.9v2.4h5.2v2h-5.2v2.6H339.3z"/>
		<path class="st15" d="M340.5,524l0.9-2c0.9,0.7,2.4,1.2,3.7,1.2c1.5,0,2.2-0.5,2.2-1.2c0-2.1-6.5-0.7-6.5-4.8
			c0-1.9,1.5-3.5,4.7-3.5c1.4,0,2.8,0.3,3.9,1l-0.8,2c-1-0.6-2.1-0.9-3.1-0.9c-1.5,0-2.1,0.6-2.1,1.3c0,2.1,6.5,0.6,6.5,4.8
			c0,1.9-1.6,3.5-4.8,3.5C343.3,525.3,341.5,524.8,340.5,524z"/>
		<path class="st15" d="M350.9,519.5c0-3.3,2.6-5.8,6.1-5.8c3.5,0,6.1,2.4,6.1,5.8c0,3.3-2.6,5.8-6.1,5.8
			C353.5,525.3,350.9,522.8,350.9,519.5z M360.5,519.5c0-2.1-1.5-3.6-3.5-3.6c-2,0-3.5,1.5-3.5,3.6c0,2.1,1.5,3.6,3.5,3.6
			C359,523.1,360.5,521.6,360.5,519.5z"/>
		<path class="st15" d="M365,520.2v-6.3h2.6v6.2c0,2.1,0.9,3,2.5,3c1.6,0,2.5-0.9,2.5-3v-6.2h2.6v6.3c0,3.3-1.9,5.1-5.1,5.1
			C366.9,525.3,365,523.5,365,520.2z"/>
		<path class="st15" d="M384.9,525.1l-2.2-3.1h-0.1h-2.3v3.1h-2.6v-11.2h4.9c3,0,4.9,1.6,4.9,4.1c0,1.7-0.8,2.9-2.3,3.5l2.5,3.6
			H384.9z M382.4,516h-2.1v3.9h2.1c1.6,0,2.4-0.7,2.4-2C384.8,516.7,384,516,382.4,516z"/>
		<path class="st15" d="M388.8,519.5c0-3.4,2.6-5.8,6.1-5.8c1.9,0,3.6,0.7,4.6,2l-1.7,1.5c-0.8-0.9-1.7-1.3-2.8-1.3
			c-2.1,0-3.6,1.5-3.6,3.6c0,2.1,1.5,3.6,3.6,3.6c1.1,0,2.1-0.4,2.8-1.3l1.7,1.5c-1.1,1.3-2.7,2-4.6,2
			C391.4,525.3,388.8,522.9,388.8,519.5z"/>
		<path class="st15" d="M409.9,523v2.1h-8.7v-11.2h8.5v2.1h-5.9v2.4h5.2v2h-5.2v2.6H409.9z"/>
		<path class="st15" d="M318.2,541.5c0-3.3,2.6-5.8,6.1-5.8c3.5,0,6.1,2.4,6.1,5.8c0,3.3-2.6,5.8-6.1,5.8
			C320.8,547.3,318.2,544.8,318.2,541.5z M327.8,541.5c0-2.1-1.5-3.6-3.5-3.6c-2,0-3.5,1.5-3.5,3.6c0,2.1,1.5,3.6,3.5,3.6
			C326.3,545.1,327.8,543.6,327.8,541.5z"/>
		<path class="st15" d="M339.5,547.1l-2.2-3.1h-0.1H335v3.1h-2.6v-11.2h4.9c3,0,4.9,1.6,4.9,4.1c0,1.7-0.8,2.9-2.3,3.5l2.5,3.6
			H339.5z M337.1,538H335v3.9h2.1c1.6,0,2.4-0.7,2.4-2C339.5,538.7,338.7,538,337.1,538z"/>
		<path class="st15" d="M343.5,541.5c0-3.4,2.6-5.8,6.1-5.8c1.9,0,3.6,0.7,4.6,2l-1.7,1.5c-0.8-0.9-1.7-1.3-2.8-1.3
			c-2.1,0-3.6,1.5-3.6,3.6c0,2.1,1.5,3.6,3.6,3.6c1.1,0,2.1-0.4,2.8-1.3l1.7,1.5c-1.1,1.3-2.7,2-4.6,2
			C346.1,547.3,343.5,544.9,343.5,541.5z"/>
		<path class="st15" d="M366.2,535.9v11.2h-2.6v-4.6h-5.1v4.6h-2.6v-11.2h2.6v4.4h5.1v-4.4H366.2z"/>
		<path class="st15" d="M377.5,545v2.1h-8.7v-11.2h8.5v2.1h-5.9v2.4h5.2v2h-5.2v2.6H377.5z"/>
		<path class="st15" d="M378.7,546l0.9-2c0.9,0.7,2.4,1.2,3.7,1.2c1.5,0,2.2-0.5,2.2-1.2c0-2.1-6.5-0.7-6.5-4.8
			c0-1.9,1.5-3.5,4.7-3.5c1.4,0,2.8,0.3,3.9,1l-0.8,2c-1-0.6-2.1-0.9-3.1-0.9c-1.5,0-2.1,0.6-2.1,1.3c0,2.1,6.5,0.6,6.5,4.8
			c0,1.9-1.6,3.5-4.8,3.5C381.5,547.3,379.7,546.8,378.7,546z"/>
		<path class="st15" d="M391.9,538h-3.6v-2.1h9.8v2.1h-3.6v9.1h-2.6V538z"/>
		<path class="st15" d="M406.6,547.1l-2.2-3.1h-0.1h-2.3v3.1h-2.6v-11.2h4.9c3,0,4.9,1.6,4.9,4.1c0,1.7-0.8,2.9-2.3,3.5l2.5,3.6
			H406.6z M404.2,538h-2.1v3.9h2.1c1.6,0,2.4-0.7,2.4-2C406.6,538.7,405.8,538,404.2,538z"/>
		<path class="st15" d="M418.6,544.7h-5.2l-1,2.4h-2.7l5-11.2h2.6l5,11.2h-2.7L418.6,544.7z M417.8,542.7l-1.8-4.3l-1.8,4.3H417.8z"
			/>
		<path class="st15" d="M425.3,538h-3.6v-2.1h9.8v2.1h-3.6v9.1h-2.6V538z"/>
		<path class="st15" d="M432,541.5c0-3.3,2.6-5.8,6.1-5.8c3.5,0,6.1,2.4,6.1,5.8c0,3.3-2.6,5.8-6.1,5.8
			C434.6,547.3,432,544.8,432,541.5z M441.6,541.5c0-2.1-1.5-3.6-3.5-3.6c-2,0-3.5,1.5-3.5,3.6c0,2.1,1.5,3.6,3.5,3.6
			C440.1,545.1,441.6,543.6,441.6,541.5z"/>
		<path class="st15" d="M453.3,547.1l-2.2-3.1H451h-2.3v3.1h-2.6v-11.2h4.9c3,0,4.9,1.6,4.9,4.1c0,1.7-0.8,2.9-2.3,3.5l2.5,3.6
			H453.3z M450.9,538h-2.1v3.9h2.1c1.6,0,2.4-0.7,2.4-2C453.3,538.7,452.5,538,450.9,538z"/>
	</g>
</g>
<g>
	<g>
		<path class="st15" d="M326,618.9l-2.2-3.1h-0.1h-2.3v3.1h-2.6v-11.2h4.9c3,0,4.9,1.6,4.9,4.1c0,1.7-0.8,2.9-2.3,3.5l2.5,3.6H326z
			 M323.6,609.8h-2.1v3.9h2.1c1.6,0,2.4-0.7,2.4-2C326,610.5,325.2,609.8,323.6,609.8z"/>
		<path class="st15" d="M339.3,616.8v2.1h-8.7v-11.2h8.5v2.1h-5.9v2.4h5.2v2h-5.2v2.6H339.3z"/>
		<path class="st15" d="M340.5,617.8l0.9-2c0.9,0.7,2.4,1.2,3.7,1.2c1.5,0,2.2-0.5,2.2-1.2c0-2.1-6.5-0.7-6.5-4.8
			c0-1.9,1.5-3.5,4.7-3.5c1.4,0,2.8,0.3,3.9,1l-0.8,2c-1-0.6-2.1-0.9-3.1-0.9c-1.5,0-2.1,0.6-2.1,1.3c0,2.1,6.5,0.6,6.5,4.8
			c0,1.9-1.6,3.5-4.8,3.5C343.3,619.1,341.5,618.6,340.5,617.8z"/>
		<path class="st15" d="M350.9,613.3c0-3.3,2.6-5.8,6.1-5.8c3.5,0,6.1,2.4,6.1,5.8s-2.6,5.8-6.1,5.8
			C353.5,619.1,350.9,616.6,350.9,613.3z M360.5,613.3c0-2.1-1.5-3.6-3.5-3.6c-2,0-3.5,1.5-3.5,3.6s1.5,3.6,3.5,3.6
			C359,616.9,360.5,615.4,360.5,613.3z"/>
		<path class="st15" d="M365,614v-6.3h2.6v6.2c0,2.1,0.9,3,2.5,3c1.6,0,2.5-0.9,2.5-3v-6.2h2.6v6.3c0,3.3-1.9,5.1-5.1,5.1
			C366.9,619.1,365,617.3,365,614z"/>
		<path class="st15" d="M384.9,618.9l-2.2-3.1h-0.1h-2.3v3.1h-2.6v-11.2h4.9c3,0,4.9,1.6,4.9,4.1c0,1.7-0.8,2.9-2.3,3.5l2.5,3.6
			H384.9z M382.4,609.8h-2.1v3.9h2.1c1.6,0,2.4-0.7,2.4-2C384.8,610.5,384,609.8,382.4,609.8z"/>
		<path class="st15" d="M388.8,613.3c0-3.4,2.6-5.8,6.1-5.8c1.9,0,3.6,0.7,4.6,2l-1.7,1.5c-0.8-0.9-1.7-1.3-2.8-1.3
			c-2.1,0-3.6,1.5-3.6,3.6s1.5,3.6,3.6,3.6c1.1,0,2.1-0.4,2.8-1.3l1.7,1.5c-1.1,1.3-2.7,2-4.6,2
			C391.4,619.1,388.8,616.7,388.8,613.3z"/>
		<path class="st15" d="M409.9,616.8v2.1h-8.7v-11.2h8.5v2.1h-5.9v2.4h5.2v2h-5.2v2.6H409.9z"/>
		<path class="st15" d="M426.2,611.8c0,2.5-1.9,4-4.9,4h-2.3v3.1h-2.6v-11.2h4.9C424.3,607.7,426.2,609.2,426.2,611.8z M423.6,611.8
			c0-1.2-0.8-2-2.4-2h-2.1v3.9h2.1C422.8,613.7,423.6,613,423.6,611.8z"/>
		<path class="st15" d="M435.2,618.9l-2.2-3.1h-0.1h-2.3v3.1H428v-11.2h4.9c3,0,4.9,1.6,4.9,4.1c0,1.7-0.8,2.9-2.3,3.5l2.5,3.6
			H435.2z M432.7,609.8h-2.1v3.9h2.1c1.6,0,2.4-0.7,2.4-2C435.1,610.5,434.3,609.8,432.7,609.8z"/>
		<path class="st15" d="M439.1,613.3c0-3.3,2.6-5.8,6.1-5.8c3.5,0,6.1,2.4,6.1,5.8s-2.6,5.8-6.1,5.8
			C441.7,619.1,439.1,616.6,439.1,613.3z M448.7,613.3c0-2.1-1.5-3.6-3.5-3.6c-2,0-3.5,1.5-3.5,3.6s1.5,3.6,3.5,3.6
			C447.2,616.9,448.7,615.4,448.7,613.3z"/>
		<path class="st15" d="M463.7,607.7l-4.9,11.2h-2.6l-4.8-11.2h2.8l3.4,8l3.5-8H463.7z"/>
		<path class="st15" d="M464.6,607.7h2.6v11.2h-2.6V607.7z"/>
		<path class="st15" d="M469.9,607.7h5.1c3.7,0,6.2,2.2,6.2,5.6s-2.5,5.6-6.2,5.6h-5.1V607.7z M474.8,616.8c2.2,0,3.7-1.3,3.7-3.5
			s-1.5-3.5-3.7-3.5h-2.4v6.9H474.8z"/>
		<path class="st15" d="M491.7,616.8v2.1h-8.7v-11.2h8.5v2.1h-5.9v2.4h5.2v2h-5.2v2.6H491.7z"/>
		<path class="st15" d="M500.9,618.9l-2.2-3.1h-0.1h-2.3v3.1h-2.6v-11.2h4.9c3,0,4.9,1.6,4.9,4.1c0,1.7-0.8,2.9-2.3,3.5l2.5,3.6
			H500.9z M498.5,609.8h-2.1v3.9h2.1c1.6,0,2.4-0.7,2.4-2C500.9,610.5,500.1,609.8,498.5,609.8z"/>
		<path class="st15" d="M504.7,617.8l0.9-2c0.9,0.7,2.4,1.2,3.7,1.2c1.5,0,2.2-0.5,2.2-1.2c0-2.1-6.5-0.7-6.5-4.8
			c0-1.9,1.5-3.5,4.7-3.5c1.4,0,2.8,0.3,3.9,1l-0.8,2c-1-0.6-2.1-0.9-3.1-0.9c-1.5,0-2.1,0.6-2.1,1.3c0,2.1,6.5,0.6,6.5,4.8
			c0,1.9-1.6,3.5-4.8,3.5C507.5,619.1,505.7,618.6,504.7,617.8z"/>
	</g>
</g>
<g>
	<g>
		<path class="st15" d="M583.3,519.5c0-3.3,2.6-5.8,6.1-5.8c3.5,0,6.1,2.4,6.1,5.8c0,3.3-2.6,5.8-6.1,5.8
			C585.9,525.3,583.3,522.8,583.3,519.5z M592.9,519.5c0-2.1-1.5-3.6-3.5-3.6c-2,0-3.5,1.5-3.5,3.6c0,2.1,1.5,3.6,3.5,3.6
			C591.4,523.1,592.9,521.6,592.9,519.5z"/>
		<path class="st15" d="M607.8,522c0,1.9-1.5,3.1-4.5,3.1h-5.8v-11.2h5.5c2.8,0,4.2,1.2,4.2,2.9c0,1.1-0.6,2-1.5,2.5
			C607,519.7,607.8,520.6,607.8,522z M600.1,515.8v2.6h2.6c1.3,0,2-0.4,2-1.3c0-0.9-0.7-1.3-2-1.3H600.1z M605.2,521.8
			c0-0.9-0.7-1.4-2.1-1.4h-3v2.8h3C604.4,523.1,605.2,522.7,605.2,521.8z"/>
		<path class="st15" d="M608.2,523.7l1.4-1.7c0.6,0.8,1.3,1.2,2.1,1.2c1,0,1.6-0.6,1.6-1.9V516h-3.9v-2.1h6.5v7.3
			c0,2.8-1.4,4.1-4,4.1C610.3,525.3,609,524.7,608.2,523.7z"/>
		<path class="st15" d="M627.1,523v2.1h-8.7v-11.2h8.5v2.1H621v2.4h5.2v2H621v2.6H627.1z"/>
		<path class="st15" d="M628.4,519.5c0-3.4,2.6-5.8,6.1-5.8c1.9,0,3.6,0.7,4.6,2l-1.7,1.5c-0.8-0.9-1.7-1.3-2.8-1.3
			c-2.1,0-3.6,1.5-3.6,3.6c0,2.1,1.5,3.6,3.6,3.6c1.1,0,2.1-0.4,2.8-1.3l1.7,1.5c-1.1,1.3-2.7,2-4.6,2
			C631,525.3,628.4,522.9,628.4,519.5z"/>
		<path class="st15" d="M643,516h-3.6v-2.1h9.8v2.1h-3.6v9.1H643V516z"/>
		<path class="st15" d="M583.1,546l0.9-2c0.9,0.7,2.4,1.2,3.7,1.2c1.5,0,2.2-0.5,2.2-1.2c0-2.1-6.5-0.7-6.5-4.8
			c0-1.9,1.5-3.5,4.7-3.5c1.4,0,2.8,0.3,3.9,1l-0.8,2c-1-0.6-2.1-0.9-3.1-0.9c-1.5,0-2.1,0.6-2.1,1.3c0,2.1,6.5,0.6,6.5,4.8
			c0,1.9-1.6,3.5-4.8,3.5C585.9,547.3,584.1,546.8,583.1,546z"/>
		<path class="st15" d="M596.4,538h-3.6v-2.1h9.8v2.1H599v9.1h-2.6V538z"/>
		<path class="st15" d="M603.1,541.5c0-3.3,2.6-5.8,6.1-5.8c3.5,0,6.1,2.4,6.1,5.8c0,3.3-2.6,5.8-6.1,5.8
			C605.7,547.3,603.1,544.8,603.1,541.5z M612.7,541.5c0-2.1-1.5-3.6-3.5-3.6s-3.5,1.5-3.5,3.6c0,2.1,1.5,3.6,3.5,3.6
			S612.7,543.6,612.7,541.5z"/>
		<path class="st15" d="M624.4,547.1l-2.2-3.1h-0.1h-2.3v3.1h-2.6v-11.2h4.9c3,0,4.9,1.6,4.9,4.1c0,1.7-0.8,2.9-2.3,3.5l2.5,3.6
			H624.4z M622,538h-2.1v3.9h2.1c1.6,0,2.4-0.7,2.4-2C624.4,538.7,623.6,538,622,538z"/>
		<path class="st15" d="M637.7,545v2.1H629v-11.2h8.5v2.1h-5.9v2.4h5.2v2h-5.2v2.6H637.7z"/>
		<path class="st15" d="M638.9,546l0.9-2c0.9,0.7,2.4,1.2,3.7,1.2c1.5,0,2.2-0.5,2.2-1.2c0-2.1-6.5-0.7-6.5-4.8
			c0-1.9,1.5-3.5,4.7-3.5c1.4,0,2.8,0.3,3.9,1l-0.8,2c-1-0.6-2.1-0.9-3.1-0.9c-1.5,0-2.1,0.6-2.1,1.3c0,2.1,6.5,0.6,6.5,4.8
			c0,1.9-1.6,3.5-4.8,3.5C641.7,547.3,639.9,546.8,638.9,546z"/>
	</g>
</g>
<g>
	<path class="st16" d="M322,482.4c-0.7,0-1.3-0.7-1.3-1.5V248.1h557.9v232.8c0,0.8-0.6,1.5-1.3,1.5H322z"/>
	<path class="st17" d="M876.1,250.6v229.3H323.2V250.6H876.1 M881.1,245.6H318.2v235.3c0,2.2,1.7,4,3.8,4h555.3c2.1,0,3.8-1.8,3.8-4
		V245.6L881.1,245.6z"/>
</g>
<path class="st18" d="M881.1,264.3H318.2V225c0-2.2,1.8-4,4-4h554.9c2.2,0,4,1.8,4,4V264.3z"/>
<path class="st18" d="M332.2,378.6h535v93.8h-535V378.6z"/>
<path class="st18" d="M332.2,274.6h535v93.8h-535V274.6z"/>
<g>
	<path class="st16" d="M485.6,241.4c0,4.1-3,6.6-7.9,6.6H474v5h-4.2v-18.2h7.9C482.6,234.8,485.6,237.3,485.6,241.4z M481.3,241.4
		c0-2-1.3-3.2-3.9-3.2H474v6.3h3.4C480,244.5,481.3,243.3,481.3,241.4z"/>
	<path class="st16" d="M500.2,245v8h-3.8v-1.7c-0.8,1.3-2.2,2-4.3,2c-3.3,0-5.2-1.8-5.2-4.2c0-2.5,1.7-4.2,6-4.2h3.2
		c0-1.7-1-2.8-3.2-2.8c-1.5,0-3,0.5-4,1.3l-1.5-2.8c1.5-1.1,3.8-1.7,6-1.7C497.7,238.8,500.2,240.7,500.2,245z M496.1,248.5v-1.4
		h-2.8c-1.9,0-2.5,0.7-2.5,1.6c0,1,0.9,1.7,2.3,1.7C494.5,250.4,495.7,249.8,496.1,248.5z"/>
	<path class="st16" d="M502.2,246c0-4.2,3.2-7.2,7.8-7.2c2.9,0,5.3,1.3,6.3,3.6l-3.1,1.7c-0.8-1.3-1.9-1.9-3.1-1.9
		c-2.1,0-3.7,1.4-3.7,3.9c0,2.4,1.6,3.9,3.7,3.9c1.3,0,2.4-0.6,3.1-1.9l3.1,1.7c-1,2.2-3.3,3.5-6.3,3.5
		C505.5,253.2,502.2,250.2,502.2,246z"/>
	<path class="st16" d="M532.5,245v8h-4.1v-7.4c0-2.3-1-3.3-2.8-3.3c-2,0-3.4,1.2-3.4,3.8v6.9h-4.1v-19.3h4.1v6.8
		c1.1-1.1,2.7-1.7,4.4-1.7C530,238.8,532.5,240.7,532.5,245z"/>
	<path class="st16" d="M548.9,239l-6.3,14.8c-1.4,3.4-3.3,4.4-5.8,4.4c-1.4,0-3-0.5-3.9-1.3l1.5-2.9c0.6,0.5,1.5,0.9,2.3,0.9
		c1.1,0,1.7-0.5,2.3-1.7l0.1-0.1L533,239h4.2l3.9,9.5l4-9.5H548.9z"/>
	<path class="st16" d="M564,233.7V253h-3.9v-1.6c-1,1.2-2.5,1.8-4.4,1.8c-4,0-7-2.8-7-7.2c0-4.4,3-7.2,7-7.2c1.7,0,3.2,0.5,4.2,1.7
		v-6.8H564z M560,246c0-2.4-1.6-3.9-3.6-3.9c-2,0-3.6,1.5-3.6,3.9s1.6,3.9,3.6,3.9C558.4,249.8,560,248.4,560,246z"/>
	<path class="st16" d="M580.8,247.1h-10.6c0.4,1.7,1.9,2.8,4,2.8c1.5,0,2.5-0.4,3.5-1.4l2.2,2.3c-1.3,1.5-3.2,2.3-5.8,2.3
		c-4.8,0-8-3-8-7.2c0-4.2,3.2-7.2,7.5-7.2c4.1,0,7.3,2.8,7.3,7.3C580.9,246.3,580.9,246.8,580.8,247.1z M570.2,244.8h6.9
		c-0.3-1.8-1.6-2.9-3.4-2.9C571.8,241.8,570.5,243,570.2,244.8z"/>
	<path class="st16" d="M591.8,238.8v3.7c-0.3,0-0.6-0.1-0.9-0.1c-2.2,0-3.7,1.2-3.7,3.9v6.6h-4.1v-14h3.9v1.8
		C588,239.5,589.6,238.8,591.8,238.8z"/>
	<path class="st16" d="M617.1,245v8h-4.1v-7.4c0-2.3-1-3.3-2.7-3.3c-1.8,0-3.1,1.2-3.1,3.7v7h-4.1v-7.4c0-2.3-1-3.3-2.7-3.3
		c-1.8,0-3.1,1.2-3.1,3.7v7h-4.1v-14h3.9v1.6c1-1.2,2.6-1.8,4.4-1.8c2,0,3.6,0.8,4.6,2.3c1.1-1.4,2.9-2.3,5-2.3
		C614.7,238.8,617.1,240.7,617.1,245z"/>
	<path class="st16" d="M626.8,243.9c0-5.5,4.2-9.4,9.9-9.4c3.1,0,5.8,1.1,7.5,3.2l-2.7,2.5c-1.2-1.4-2.8-2.1-4.6-2.1
		c-3.4,0-5.8,2.4-5.8,5.8c0,3.4,2.4,5.8,5.8,5.8c1.8,0,3.4-0.7,4.6-2.2l2.7,2.5c-1.7,2.1-4.3,3.2-7.5,3.2
		C631,253.3,626.8,249.4,626.8,243.9z"/>
	<path class="st16" d="M645,246c0-4.2,3.2-7.2,7.7-7.2s7.7,3,7.7,7.2c0,4.2-3.2,7.2-7.7,7.2S645,250.2,645,246z M656.2,246
		c0-2.4-1.5-3.9-3.6-3.9c-2,0-3.6,1.5-3.6,3.9s1.6,3.9,3.6,3.9C654.7,249.8,656.2,248.4,656.2,246z"/>
	<path class="st16" d="M676.8,245v8h-4.1v-7.4c0-2.3-1-3.3-2.8-3.3c-2,0-3.4,1.2-3.4,3.8v6.9h-4.1v-14h3.9v1.6
		c1.1-1.2,2.7-1.8,4.6-1.8C674.3,238.8,676.8,240.7,676.8,245z"/>
	<path class="st16" d="M678.8,251.7l1.4-2.9c1.2,0.8,3.1,1.4,4.9,1.4c1.9,0,2.6-0.5,2.6-1.3c0-2.3-8.5,0.1-8.5-5.5
		c0-2.7,2.4-4.5,6.5-4.5c1.9,0,4.1,0.4,5.4,1.2l-1.4,2.9c-1.4-0.8-2.8-1-4-1c-1.8,0-2.6,0.6-2.6,1.3c0,2.4,8.5,0.1,8.5,5.6
		c0,2.6-2.4,4.4-6.6,4.4C682.4,253.2,680,252.5,678.8,251.7z"/>
	<path class="st16" d="M692.5,246c0-4.2,3.2-7.2,7.7-7.2s7.7,3,7.7,7.2c0,4.2-3.2,7.2-7.7,7.2S692.5,250.2,692.5,246z M703.8,246
		c0-2.4-1.5-3.9-3.6-3.9s-3.6,1.5-3.6,3.9s1.6,3.9,3.6,3.9S703.8,248.4,703.8,246z"/>
	<path class="st16" d="M710.1,233.7h4.1V253h-4.1V233.7z"/>
	<path class="st16" d="M731,247.1h-10.6c0.4,1.7,1.9,2.8,4,2.8c1.5,0,2.5-0.4,3.5-1.4l2.2,2.3c-1.3,1.5-3.2,2.3-5.8,2.3
		c-4.8,0-8-3-8-7.2c0-4.2,3.2-7.2,7.5-7.2c4.1,0,7.3,2.8,7.3,7.3C731.1,246.3,731.1,246.8,731,247.1z M720.4,244.8h6.9
		c-0.3-1.8-1.6-2.9-3.4-2.9C722,241.8,720.7,243,720.4,244.8z"/>
</g>
<g>
	<path class="st16" d="M485.2,300.4c0,4.1-3,6.6-7.9,6.6h-3.7v5h-4.2v-18.2h7.9C482.2,293.8,485.2,296.4,485.2,300.4z M480.9,300.4
		c0-2-1.3-3.2-3.9-3.2h-3.4v6.3h3.4C479.6,303.6,480.9,302.4,480.9,300.4z"/>
	<path class="st16" d="M499.8,304.1v8H496v-1.7c-0.8,1.3-2.2,2-4.3,2c-3.3,0-5.2-1.8-5.2-4.2c0-2.5,1.7-4.2,6-4.2h3.2
		c0-1.7-1-2.8-3.2-2.8c-1.5,0-3,0.5-4,1.3l-1.5-2.8c1.5-1.1,3.8-1.7,6-1.7C497.3,297.8,499.8,299.8,499.8,304.1z M495.7,307.6v-1.4
		H493c-1.9,0-2.5,0.7-2.5,1.6c0,1,0.9,1.7,2.3,1.7C494.1,309.5,495.3,308.9,495.7,307.6z"/>
	<path class="st16" d="M501.9,305c0-4.2,3.2-7.2,7.8-7.2c2.9,0,5.3,1.3,6.3,3.6l-3.1,1.7c-0.8-1.3-1.9-1.9-3.1-1.9
		c-2.1,0-3.7,1.4-3.7,3.9c0,2.4,1.6,3.9,3.7,3.9c1.3,0,2.4-0.6,3.1-1.9l3.1,1.7c-1,2.2-3.3,3.5-6.3,3.5
		C505.1,312.2,501.9,309.3,501.9,305z"/>
	<path class="st16" d="M532.1,304v8H528v-7.4c0-2.3-1-3.3-2.8-3.3c-1.9,0-3.4,1.2-3.4,3.8v6.9h-4.1v-19.3h4.1v6.8
		c1.1-1.1,2.7-1.7,4.4-1.7C529.6,297.8,532.1,299.8,532.1,304z"/>
	<path class="st16" d="M548.6,298l-6.3,14.8c-1.4,3.4-3.3,4.4-5.8,4.4c-1.4,0-3-0.5-3.9-1.3l1.5-2.9c0.6,0.5,1.5,0.9,2.3,0.9
		c1.1,0,1.7-0.5,2.3-1.7l0.1-0.1l-6.1-14.1h4.2l3.9,9.5l4-9.5H548.6z"/>
	<path class="st16" d="M563.6,292.7V312h-3.9v-1.6c-1,1.2-2.5,1.8-4.4,1.8c-4,0-7-2.8-7-7.2c0-4.4,3-7.2,7-7.2
		c1.7,0,3.2,0.5,4.2,1.7v-6.8H563.6z M559.6,305c0-2.4-1.6-3.9-3.6-3.9c-2,0-3.6,1.5-3.6,3.9s1.6,3.9,3.6,3.9
		C558,308.9,559.6,307.5,559.6,305z"/>
	<path class="st16" d="M580.4,306.2h-10.6c0.4,1.7,1.9,2.8,4,2.8c1.5,0,2.5-0.4,3.5-1.4l2.2,2.3c-1.3,1.5-3.2,2.3-5.8,2.3
		c-4.8,0-8-3-8-7.2c0-4.2,3.2-7.2,7.5-7.2c4.1,0,7.3,2.8,7.3,7.3C580.5,305.4,580.5,305.8,580.4,306.2z M569.8,303.8h6.9
		c-0.3-1.8-1.6-2.9-3.4-2.9C571.4,300.9,570.1,302,569.8,303.8z"/>
	<path class="st16" d="M591.4,297.8v3.7c-0.3,0-0.6-0.1-0.9-0.1c-2.2,0-3.7,1.2-3.7,3.9v6.6h-4.1v-14h3.9v1.8
		C587.6,298.5,589.3,297.8,591.4,297.8z"/>
	<path class="st16" d="M616.7,304v8h-4.1v-7.4c0-2.3-1-3.3-2.7-3.3c-1.8,0-3.1,1.2-3.1,3.7v7h-4.1v-7.4c0-2.3-1-3.3-2.7-3.3
		c-1.8,0-3.1,1.2-3.1,3.7v7h-4.1v-14h3.9v1.6c1-1.2,2.6-1.8,4.4-1.8c1.9,0,3.6,0.8,4.6,2.3c1.1-1.4,2.9-2.3,5-2.3
		C614.3,297.8,616.7,299.8,616.7,304z"/>
	<path class="st16" d="M643.3,300.4c0,4.1-3,6.6-7.9,6.6h-3.7v5h-4.2v-18.2h7.9C640.2,293.8,643.3,296.4,643.3,300.4z M639,300.4
		c0-2-1.3-3.2-3.9-3.2h-3.4v6.3h3.4C637.7,303.6,639,302.4,639,300.4z"/>
	<path class="st16" d="M644.8,293.8c0-1.3,1-2.3,2.5-2.3s2.5,0.9,2.5,2.2c0,1.4-1,2.3-2.5,2.3S644.8,295.1,644.8,293.8z M645.3,298
		h4.1v14h-4.1V298z"/>
	<path class="st16" d="M667.7,305c0,4.4-3,7.2-7,7.2c-1.7,0-3.2-0.5-4.2-1.7v6.5h-4.1v-19h3.9v1.6c1-1.2,2.5-1.8,4.4-1.8
		C664.7,297.8,667.7,300.6,667.7,305z M663.6,305c0-2.4-1.5-3.9-3.6-3.9s-3.6,1.5-3.6,3.9s1.5,3.9,3.6,3.9S663.6,307.5,663.6,305z"
		/>
	<path class="st16" d="M683.7,306.2h-10.6c0.4,1.7,1.9,2.8,4,2.8c1.5,0,2.5-0.4,3.5-1.4l2.2,2.3c-1.3,1.5-3.2,2.3-5.8,2.3
		c-4.8,0-8-3-8-7.2c0-4.2,3.2-7.2,7.5-7.2c4.1,0,7.3,2.8,7.3,7.3C683.8,305.4,683.7,305.8,683.7,306.2z M673.1,303.8h6.9
		c-0.3-1.8-1.6-2.9-3.4-2.9C674.7,300.9,673.4,302,673.1,303.8z"/>
	<path class="st16" d="M686,292.7h4.1V312H686V292.7z"/>
	<path class="st16" d="M692.7,293.8c0-1.3,1-2.3,2.5-2.3s2.5,0.9,2.5,2.2c0,1.4-1,2.3-2.5,2.3S692.7,295.1,692.7,293.8z M693.2,298
		h4.1v14h-4.1V298z"/>
	<path class="st16" d="M714.7,304v8h-4.1v-7.4c0-2.3-1-3.3-2.8-3.3c-2,0-3.4,1.2-3.4,3.8v6.9h-4.1v-14h3.9v1.6
		c1.1-1.2,2.7-1.8,4.6-1.8C712.2,297.8,714.7,299.8,714.7,304z"/>
	<path class="st16" d="M731.4,306.2h-10.6c0.4,1.7,1.9,2.8,4,2.8c1.5,0,2.5-0.4,3.5-1.4l2.2,2.3c-1.3,1.5-3.2,2.3-5.8,2.3
		c-4.8,0-8-3-8-7.2c0-4.2,3.2-7.2,7.5-7.2c4.1,0,7.3,2.8,7.3,7.3C731.5,305.4,731.4,305.8,731.4,306.2z M720.8,303.8h6.9
		c-0.3-1.8-1.6-2.9-3.4-2.9C722.4,300.9,721,302,720.8,303.8z"/>
	<path class="st16" d="M391.8,342.5h-7.4l-1.5,3.5h-2.1l6.3-14h2l6.4,14h-2.1L391.8,342.5z M391.1,340.9l-3-6.9l-3,6.9H391.1z"/>
	<path class="st16" d="M406.4,335.4V346h-1.8v-1.6c-0.8,1.1-2.1,1.7-3.6,1.7c-2.7,0-4.6-1.5-4.6-4.6v-6.1h1.9v5.9
		c0,2.1,1,3.1,2.9,3.1c2,0,3.3-1.2,3.3-3.5v-5.5H406.4z"/>
	<path class="st16" d="M415.5,345.4c-0.6,0.5-1.5,0.7-2.3,0.7c-2.1,0-3.4-1.2-3.4-3.3V337h-1.8v-1.6h1.8v-2.3h1.9v2.3h3v1.6h-3v5.7
		c0,1.1,0.6,1.8,1.7,1.8c0.6,0,1.1-0.2,1.5-0.5L415.5,345.4z"/>
	<path class="st16" d="M416.1,340.7c0-3.2,2.3-5.4,5.5-5.4s5.5,2.2,5.5,5.4s-2.3,5.4-5.5,5.4S416.1,343.9,416.1,340.7z M425.2,340.7
		c0-2.3-1.5-3.7-3.6-3.7s-3.6,1.5-3.6,3.7c0,2.3,1.5,3.7,3.6,3.7S425.2,343,425.2,340.7z"/>
	<path class="st16" d="M446.9,339.9v6.1H445v-5.9c0-2.1-1-3.1-2.7-3.1c-1.9,0-3.2,1.2-3.2,3.5v5.5h-1.9v-5.9c0-2.1-1-3.1-2.7-3.1
		c-1.9,0-3.2,1.2-3.2,3.5v5.5h-1.9v-10.6h1.8v1.6c0.8-1.1,2.1-1.7,3.7-1.7c1.6,0,3,0.6,3.7,2c0.8-1.2,2.3-2,4.1-2
		C445.2,335.3,446.9,336.8,446.9,339.9z"/>
	<path class="st16" d="M458.3,339.6v6.4h-1.8v-1.4c-0.6,1-1.8,1.5-3.5,1.5c-2.4,0-3.9-1.3-3.9-3.1c0-1.7,1.1-3.1,4.3-3.1h3v-0.4
		c0-1.6-0.9-2.6-2.8-2.6c-1.3,0-2.5,0.4-3.4,1.1l-0.8-1.4c1.1-0.9,2.7-1.4,4.4-1.4C456.7,335.3,458.3,336.7,458.3,339.6z
		 M456.4,342.8v-1.5h-3c-1.9,0-2.4,0.7-2.4,1.6c0,1.1,0.9,1.7,2.3,1.7C454.8,344.7,455.9,344,456.4,342.8z"/>
	<path class="st16" d="M467.2,345.4c-0.6,0.5-1.5,0.7-2.3,0.7c-2.1,0-3.4-1.2-3.4-3.3V337h-1.8v-1.6h1.8v-2.3h1.9v2.3h3v1.6h-3v5.7
		c0,1.1,0.6,1.8,1.7,1.8c0.6,0,1.1-0.2,1.5-0.5L467.2,345.4z"/>
	<path class="st16" d="M468.5,332.2c0-0.7,0.6-1.3,1.3-1.3c0.7,0,1.3,0.5,1.3,1.2c0,0.7-0.5,1.3-1.3,1.3
		C469.1,333.4,468.5,332.9,468.5,332.2z M468.9,335.4h1.9V346h-1.9V335.4z"/>
	<path class="st16" d="M473,340.7c0-3.2,2.3-5.4,5.5-5.4s5.5,2.2,5.5,5.4s-2.3,5.4-5.5,5.4S473,343.9,473,340.7z M482.1,340.7
		c0-2.3-1.5-3.7-3.6-3.7s-3.6,1.5-3.6,3.7c0,2.3,1.5,3.7,3.6,3.7S482.1,343,482.1,340.7z"/>
	<path class="st16" d="M496.3,339.9v6.1h-1.9v-5.9c0-2.1-1-3.1-2.9-3.1c-2,0-3.4,1.2-3.4,3.5v5.5h-1.9v-10.6h1.8v1.6
		c0.8-1.1,2.1-1.7,3.8-1.7C494.5,335.3,496.3,336.8,496.3,339.9z"/>
	<path class="st19" d="M515.5,331.2h1.8v18.7h-1.8V331.2z"/>
	<path class="st16" d="M535.5,344.4l0.7-1.6c1,0.9,2.8,1.6,4.6,1.6c2.4,0,3.5-0.9,3.5-2.2c0-3.4-8.5-1.3-8.5-6.5c0-2.2,1.7-4,5.4-4
		c1.6,0,3.3,0.4,4.5,1.2l-0.7,1.6c-1.2-0.8-2.6-1.1-3.8-1.1c-2.4,0-3.4,1-3.4,2.2c0,3.4,8.5,1.3,8.5,6.4c0,2.1-1.7,4-5.4,4
		C538.7,346.2,536.6,345.5,535.5,344.4z"/>
	<path class="st16" d="M558.6,339.9v6.1h-1.9v-5.9c0-2.1-1-3.1-2.9-3.1c-2,0-3.4,1.2-3.4,3.5v5.5h-1.9v-14.8h1.9v5.7
		c0.8-1,2.1-1.6,3.7-1.6C556.8,335.3,558.6,336.8,558.6,339.9z"/>
	<path class="st16" d="M570,339.6v6.4h-1.8v-1.4c-0.6,1-1.8,1.5-3.5,1.5c-2.4,0-3.9-1.3-3.9-3.1c0-1.7,1.1-3.1,4.3-3.1h3v-0.4
		c0-1.6-0.9-2.6-2.8-2.6c-1.3,0-2.5,0.4-3.4,1.1l-0.8-1.4c1.1-0.9,2.7-1.4,4.4-1.4C568.3,335.3,570,336.7,570,339.6z M568.1,342.8
		v-1.5h-3c-1.9,0-2.4,0.7-2.4,1.6c0,1.1,0.9,1.7,2.3,1.7C566.4,344.7,567.6,344,568.1,342.8z"/>
	<path class="st16" d="M578.6,335.3v1.9c-0.2,0-0.3,0-0.4,0c-2.1,0-3.3,1.3-3.3,3.6v5.3h-1.9v-10.6h1.8v1.8
		C575.4,336,576.8,335.3,578.6,335.3z"/>
	<path class="st16" d="M590.5,331.2V346h-1.8v-1.7c-0.9,1.2-2.2,1.8-3.8,1.8c-3.1,0-5.4-2.2-5.4-5.4s2.3-5.4,5.4-5.4
		c1.5,0,2.8,0.6,3.7,1.7v-5.8H590.5z M588.6,340.7c0-2.3-1.5-3.7-3.6-3.7c-2,0-3.6,1.5-3.6,3.7c0,2.3,1.5,3.7,3.6,3.7
		C587,344.5,588.6,343,588.6,340.7z"/>
	<path class="st16" d="M593.1,332.2c0-0.7,0.6-1.3,1.3-1.3c0.7,0,1.3,0.5,1.3,1.2c0,0.7-0.5,1.3-1.3,1.3
		C593.7,333.4,593.1,332.9,593.1,332.2z M593.5,335.4h1.9V346h-1.9V335.4z"/>
	<path class="st16" d="M608.5,339.9v6.1h-1.9v-5.9c0-2.1-1-3.1-2.9-3.1c-2,0-3.4,1.2-3.4,3.5v5.5h-1.9v-10.6h1.8v1.6
		c0.8-1.1,2.1-1.7,3.8-1.7C606.7,335.3,608.5,336.8,608.5,339.9z"/>
	<path class="st16" d="M621.7,335.4v9.2c0,3.7-1.9,5.4-5.5,5.4c-1.9,0-3.9-0.5-5.1-1.6l0.9-1.5c1,0.8,2.5,1.4,4.1,1.4
		c2.5,0,3.6-1.2,3.6-3.6V344c-0.9,1.1-2.3,1.6-3.8,1.6c-3.1,0-5.4-2.1-5.4-5.1s2.3-5.1,5.4-5.1c1.6,0,3,0.6,3.9,1.7v-1.6H621.7z
		 M619.8,340.5c0-2.1-1.5-3.4-3.6-3.4c-2.1,0-3.7,1.4-3.7,3.4c0,2,1.5,3.5,3.7,3.5C618.3,343.9,619.8,342.5,619.8,340.5z"/>
	<path class="st19" d="M640.9,331.2h1.8v18.7h-1.8V331.2z"/>
	<path class="st16" d="M665,333.8h-4.8V332h11.6v1.7H667V346h-2V333.8z"/>
	<path class="st16" d="M677.4,335.3v1.9c-0.2,0-0.3,0-0.4,0c-2.1,0-3.3,1.3-3.3,3.6v5.3h-1.9v-10.6h1.8v1.8
		C674.3,336,675.6,335.3,677.4,335.3z"/>
	<path class="st16" d="M687.9,339.6v6.4h-1.8v-1.4c-0.6,1-1.8,1.5-3.5,1.5c-2.4,0-3.9-1.3-3.9-3.1c0-1.7,1.1-3.1,4.3-3.1h3v-0.4
		c0-1.6-0.9-2.6-2.8-2.6c-1.3,0-2.5,0.4-3.4,1.1l-0.8-1.4c1.1-0.9,2.7-1.4,4.4-1.4C686.3,335.3,687.9,336.7,687.9,339.6z M686,342.8
		v-1.5h-3c-1.9,0-2.4,0.7-2.4,1.6c0,1.1,0.9,1.7,2.3,1.7C684.4,344.7,685.5,344,686,342.8z"/>
	<path class="st16" d="M700.9,339.9v6.1H699v-5.9c0-2.1-1-3.1-2.9-3.1c-2,0-3.4,1.2-3.4,3.5v5.5h-1.9v-10.6h1.8v1.6
		c0.8-1.1,2.1-1.7,3.8-1.7C699.1,335.3,700.9,336.8,700.9,339.9z"/>
	<path class="st16" d="M702.8,344.9l0.8-1.5c0.9,0.6,2.3,1.1,3.7,1.1c1.8,0,2.5-0.5,2.5-1.4c0-2.4-6.7-0.3-6.7-4.5
		c0-1.9,1.7-3.2,4.4-3.2c1.4,0,2.9,0.4,3.9,1l-0.8,1.5c-1-0.6-2-0.8-3.1-0.8c-1.7,0-2.5,0.6-2.5,1.5c0,2.5,6.7,0.5,6.7,4.6
		c0,1.9-1.8,3.1-4.6,3.1C705.4,346.2,703.7,345.6,702.8,344.9z"/>
	<path class="st16" d="M716.3,334.5v0.9h3.1v1.6h-3v9h-1.9v-9h-1.8v-1.6h1.8v-0.9c0-2.1,1.2-3.4,3.5-3.4c0.8,0,1.6,0.2,2.2,0.6
		l-0.6,1.5c-0.4-0.3-0.9-0.5-1.5-0.5C716.9,332.7,716.3,333.3,716.3,334.5z"/>
	<path class="st16" d="M719.8,340.7c0-3.2,2.3-5.4,5.5-5.4s5.5,2.2,5.5,5.4s-2.3,5.4-5.5,5.4S719.8,343.9,719.8,340.7z M728.8,340.7
		c0-2.3-1.5-3.7-3.6-3.7s-3.6,1.5-3.6,3.7c0,2.3,1.5,3.7,3.6,3.7S728.8,343,728.8,340.7z"/>
	<path class="st16" d="M738.7,335.3v1.9c-0.2,0-0.3,0-0.4,0c-2.1,0-3.3,1.3-3.3,3.6v5.3H733v-10.6h1.8v1.8
		C735.5,336,736.8,335.3,738.7,335.3z"/>
	<path class="st16" d="M758.1,339.9v6.1h-1.9v-5.9c0-2.1-1-3.1-2.7-3.1c-1.9,0-3.2,1.2-3.2,3.5v5.5h-1.9v-5.9c0-2.1-1-3.1-2.7-3.1
		c-1.9,0-3.2,1.2-3.2,3.5v5.5h-1.9v-10.6h1.8v1.6c0.8-1.1,2.1-1.7,3.7-1.7c1.6,0,3,0.6,3.7,2c0.8-1.2,2.3-2,4.1-2
		C756.4,335.3,758.1,336.8,758.1,339.9z"/>
	<path class="st16" d="M769.5,339.6v6.4h-1.8v-1.4c-0.6,1-1.8,1.5-3.5,1.5c-2.4,0-3.9-1.3-3.9-3.1c0-1.7,1.1-3.1,4.3-3.1h3v-0.4
		c0-1.6-0.9-2.6-2.8-2.6c-1.3,0-2.5,0.4-3.4,1.1l-0.8-1.4c1.1-0.9,2.7-1.4,4.4-1.4C767.9,335.3,769.5,336.7,769.5,339.6z
		 M767.6,342.8v-1.5h-3c-1.9,0-2.4,0.7-2.4,1.6c0,1.1,0.9,1.7,2.3,1.7C766,344.7,767.1,344,767.6,342.8z"/>
	<path class="st16" d="M778.4,345.4c-0.6,0.5-1.5,0.7-2.3,0.7c-2.1,0-3.4-1.2-3.4-3.3V337h-1.8v-1.6h1.8v-2.3h1.9v2.3h3v1.6h-3v5.7
		c0,1.1,0.6,1.8,1.7,1.8c0.6,0,1.1-0.2,1.5-0.5L778.4,345.4z"/>
	<path class="st16" d="M779.7,332.2c0-0.7,0.6-1.3,1.3-1.3s1.3,0.5,1.3,1.2c0,0.7-0.5,1.3-1.3,1.3
		C780.3,333.4,779.7,332.9,779.7,332.2z M780.1,335.4h1.9V346h-1.9V335.4z"/>
	<path class="st16" d="M784.2,340.7c0-3.2,2.3-5.4,5.5-5.4s5.5,2.2,5.5,5.4s-2.3,5.4-5.5,5.4S784.2,343.9,784.2,340.7z M793.2,340.7
		c0-2.3-1.5-3.7-3.6-3.7s-3.6,1.5-3.6,3.7c0,2.3,1.5,3.7,3.6,3.7S793.2,343,793.2,340.7z"/>
	<path class="st16" d="M807.5,339.9v6.1h-1.9v-5.9c0-2.1-1-3.1-2.9-3.1c-2,0-3.4,1.2-3.4,3.5v5.5h-1.9v-10.6h1.8v1.6
		c0.8-1.1,2.1-1.7,3.8-1.7C805.6,335.3,807.5,336.8,807.5,339.9z"/>
	<path class="st16" d="M809.3,344.9l0.8-1.5c0.9,0.6,2.3,1.1,3.7,1.1c1.8,0,2.5-0.5,2.5-1.4c0-2.4-6.7-0.3-6.7-4.5
		c0-1.9,1.7-3.2,4.4-3.2c1.4,0,2.9,0.4,3.9,1l-0.8,1.5c-1-0.6-2-0.8-3.1-0.8c-1.7,0-2.5,0.6-2.5,1.5c0,2.5,6.7,0.5,6.7,4.6
		c0,1.9-1.8,3.1-4.6,3.1C811.9,346.2,810.2,345.6,809.3,344.9z"/>
</g>
<g>
	<path class="st16" d="M415,406.2c0,4.1-3,6.6-7.9,6.6h-3.7v5h-4.2v-18.2h7.9C411.9,399.6,415,402.1,415,406.2z M410.7,406.2
		c0-2-1.3-3.2-3.9-3.2h-3.4v6.3h3.4C409.4,409.3,410.7,408.2,410.7,406.2z"/>
	<path class="st16" d="M429.6,409.8v8h-3.8V416c-0.8,1.3-2.2,2-4.3,2c-3.3,0-5.2-1.8-5.2-4.2c0-2.5,1.7-4.2,6-4.2h3.2
		c0-1.7-1-2.8-3.2-2.8c-1.5,0-3,0.5-4,1.3l-1.5-2.8c1.5-1.1,3.8-1.7,6-1.7C427.1,403.6,429.6,405.6,429.6,409.8z M425.5,413.4v-1.4
		h-2.8c-1.9,0-2.5,0.7-2.5,1.6c0,1,0.9,1.7,2.3,1.7C423.9,415.3,425,414.6,425.5,413.4z"/>
	<path class="st16" d="M431.6,410.8c0-4.2,3.2-7.2,7.8-7.2c2.9,0,5.3,1.3,6.3,3.6l-3.1,1.7c-0.8-1.3-1.9-1.9-3.1-1.9
		c-2.1,0-3.7,1.4-3.7,3.9s1.6,3.9,3.7,3.9c1.3,0,2.4-0.6,3.1-1.9l3.1,1.7c-1,2.2-3.3,3.5-6.3,3.5C434.9,418,431.6,415,431.6,410.8z"
		/>
	<path class="st16" d="M461.8,409.8v8h-4.1v-7.4c0-2.3-1-3.3-2.8-3.3c-1.9,0-3.4,1.2-3.4,3.8v6.9h-4.1v-19.3h4.1v6.8
		c1.1-1.1,2.7-1.7,4.4-1.7C459.4,403.6,461.8,405.5,461.8,409.8z"/>
	<path class="st16" d="M478.3,403.8l-6.3,14.8c-1.4,3.4-3.3,4.4-5.8,4.4c-1.4,0-3-0.5-3.9-1.3l1.5-2.9c0.6,0.5,1.5,0.9,2.3,0.9
		c1.1,0,1.7-0.5,2.3-1.7l0.1-0.1l-6.1-14.1h4.2l3.9,9.5l4-9.5H478.3z"/>
	<path class="st16" d="M493.3,398.5v19.3h-3.9v-1.6c-1,1.2-2.5,1.8-4.4,1.8c-4,0-7-2.8-7-7.2s3-7.2,7-7.2c1.7,0,3.2,0.5,4.2,1.7
		v-6.8H493.3z M489.3,410.8c0-2.4-1.6-3.9-3.6-3.9c-2,0-3.6,1.5-3.6,3.9s1.6,3.9,3.6,3.9C487.8,414.7,489.3,413.2,489.3,410.8z"/>
	<path class="st16" d="M510.2,411.9h-10.6c0.4,1.7,1.9,2.8,4,2.8c1.5,0,2.5-0.4,3.5-1.4l2.2,2.3c-1.3,1.5-3.2,2.3-5.8,2.3
		c-4.8,0-8-3-8-7.2c0-4.2,3.2-7.2,7.5-7.2c4.1,0,7.3,2.8,7.3,7.3C510.3,411.2,510.2,411.6,510.2,411.9z M499.6,409.6h6.9
		c-0.3-1.8-1.6-2.9-3.4-2.9C501.2,406.7,499.8,407.8,499.6,409.6z"/>
	<path class="st16" d="M521.2,403.6v3.7c-0.3,0-0.6-0.1-0.9-0.1c-2.2,0-3.7,1.2-3.7,3.9v6.6h-4.1v-14h3.9v1.8
		C517.3,404.3,519,403.6,521.2,403.6z"/>
	<path class="st16" d="M546.5,409.8v8h-4.1v-7.4c0-2.3-1-3.3-2.7-3.3c-1.8,0-3.1,1.2-3.1,3.7v7h-4.1v-7.4c0-2.3-1-3.3-2.7-3.3
		c-1.8,0-3.1,1.2-3.1,3.7v7h-4.1v-14h3.9v1.6c1-1.2,2.6-1.8,4.4-1.8c1.9,0,3.6,0.8,4.6,2.3c1.1-1.4,2.9-2.3,5-2.3
		C544.1,403.6,546.5,405.5,546.5,409.8z"/>
	<path class="st16" d="M557.3,399.6h8.3c6,0,10,3.6,10,9.1c0,5.5-4.1,9.1-10,9.1h-8.3V399.6z M565.3,414.3c3.6,0,6-2.2,6-5.6
		c0-3.5-2.4-5.6-6-5.6h-3.8v11.3H565.3z"/>
	<path class="st16" d="M590.4,409.8v8h-3.8V416c-0.8,1.3-2.2,2-4.3,2c-3.3,0-5.2-1.8-5.2-4.2c0-2.5,1.7-4.2,6-4.2h3.2
		c0-1.7-1-2.8-3.2-2.8c-1.5,0-3,0.5-4,1.3l-1.5-2.8c1.5-1.1,3.8-1.7,6-1.7C587.9,403.6,590.4,405.6,590.4,409.8z M586.3,413.4v-1.4
		h-2.8c-1.9,0-2.5,0.7-2.5,1.6c0,1,0.9,1.7,2.3,1.7C584.7,415.3,585.8,414.6,586.3,413.4z"/>
	<path class="st16" d="M602.4,417.1c-0.8,0.6-2.1,0.9-3.3,0.9c-3.3,0-5.2-1.7-5.2-5v-5.7h-2.2v-3.1h2.2v-3.4h4.1v3.4h3.5v3.1h-3.5
		v5.7c0,1.2,0.6,1.8,1.7,1.8c0.6,0,1.2-0.2,1.6-0.5L602.4,417.1z"/>
	<path class="st16" d="M616.4,409.8v8h-3.8V416c-0.8,1.3-2.2,2-4.3,2c-3.3,0-5.2-1.8-5.2-4.2c0-2.5,1.7-4.2,6-4.2h3.2
		c0-1.7-1-2.8-3.2-2.8c-1.5,0-3,0.5-4,1.3l-1.5-2.8c1.5-1.1,3.8-1.7,6-1.7C614,403.6,616.4,405.6,616.4,409.8z M612.4,413.4v-1.4
		h-2.8c-1.9,0-2.5,0.7-2.5,1.6c0,1,0.9,1.7,2.3,1.7C610.7,415.3,611.9,414.6,612.4,413.4z"/>
	<path class="st16" d="M643.8,417.8l0-10.9l-5.4,9h-1.9l-5.3-8.8v10.7h-4v-18.2h3.5l6.8,11.3l6.7-11.3h3.5l0.1,18.2H643.8z"/>
	<path class="st16" d="M663.7,409.8v8h-3.8V416c-0.8,1.3-2.2,2-4.3,2c-3.3,0-5.2-1.8-5.2-4.2c0-2.5,1.7-4.2,6-4.2h3.2
		c0-1.7-1-2.8-3.2-2.8c-1.5,0-3,0.5-4,1.3l-1.5-2.8c1.5-1.1,3.8-1.7,6-1.7C661.3,403.6,663.7,405.6,663.7,409.8z M659.7,413.4v-1.4
		h-2.8c-1.9,0-2.5,0.7-2.5,1.6c0,1,0.9,1.7,2.3,1.7C658,415.3,659.2,414.6,659.7,413.4z"/>
	<path class="st16" d="M681.1,409.8v8H677v-7.4c0-2.3-1-3.3-2.8-3.3c-2,0-3.4,1.2-3.4,3.8v6.9h-4.1v-14h3.9v1.6
		c1.1-1.2,2.7-1.8,4.6-1.8C678.6,403.6,681.1,405.5,681.1,409.8z"/>
	<path class="st16" d="M696.5,409.8v8h-3.8V416c-0.8,1.3-2.2,2-4.3,2c-3.3,0-5.2-1.8-5.2-4.2c0-2.5,1.7-4.2,6-4.2h3.2
		c0-1.7-1-2.8-3.2-2.8c-1.5,0-3,0.5-4,1.3l-1.5-2.8c1.5-1.1,3.8-1.7,6-1.7C694,403.6,696.5,405.6,696.5,409.8z M692.4,413.4v-1.4
		h-2.8c-1.9,0-2.5,0.7-2.5,1.6c0,1,0.9,1.7,2.3,1.7C690.8,415.3,692,414.6,692.4,413.4z"/>
	<path class="st16" d="M714,403.8v11.6c0,5.2-2.8,7.6-7.9,7.6c-2.7,0-5.2-0.6-6.9-1.9l1.6-2.9c1.2,1,3.1,1.6,4.9,1.6
		c2.9,0,4.1-1.3,4.1-3.8v-0.6c-1.1,1.2-2.6,1.7-4.4,1.7c-3.9,0-7-2.7-7-6.8c0-4.1,3.1-6.8,7-6.8c2,0,3.6,0.7,4.6,2v-1.8H714z
		 M710,410.4c0-2.1-1.5-3.4-3.7-3.4s-3.7,1.4-3.7,3.4c0,2.1,1.6,3.4,3.7,3.4S710,412.4,710,410.4z"/>
	<path class="st16" d="M730.9,411.9h-10.6c0.4,1.7,1.9,2.8,4,2.8c1.5,0,2.5-0.4,3.5-1.4l2.2,2.3c-1.3,1.5-3.3,2.3-5.8,2.3
		c-4.8,0-8-3-8-7.2c0-4.2,3.2-7.2,7.5-7.2c4.1,0,7.3,2.8,7.3,7.3C731,411.2,730.9,411.6,730.9,411.9z M720.3,409.6h6.9
		c-0.3-1.8-1.6-2.9-3.4-2.9C721.9,406.7,720.5,407.8,720.3,409.6z"/>
	<path class="st16" d="M756.8,409.8v8h-4.1v-7.4c0-2.3-1-3.3-2.7-3.3c-1.8,0-3.1,1.2-3.1,3.7v7H743v-7.4c0-2.3-1-3.3-2.7-3.3
		c-1.8,0-3.1,1.2-3.1,3.7v7h-4.1v-14h3.9v1.6c1-1.2,2.6-1.8,4.4-1.8c2,0,3.6,0.8,4.6,2.3c1.1-1.4,2.9-2.3,5-2.3
		C754.4,403.6,756.8,405.5,756.8,409.8z"/>
	<path class="st16" d="M773.6,411.9H763c0.4,1.7,1.9,2.8,4,2.8c1.5,0,2.5-0.4,3.5-1.4l2.2,2.3c-1.3,1.5-3.3,2.3-5.8,2.3
		c-4.8,0-8-3-8-7.2c0-4.2,3.2-7.2,7.5-7.2c4.1,0,7.3,2.8,7.3,7.3C773.6,411.2,773.6,411.6,773.6,411.9z M762.9,409.6h6.9
		c-0.3-1.8-1.6-2.9-3.4-2.9C764.5,406.7,763.2,407.8,762.9,409.6z"/>
	<path class="st16" d="M790.1,409.8v8h-4.1v-7.4c0-2.3-1-3.3-2.8-3.3c-2,0-3.4,1.2-3.4,3.8v6.9h-4.1v-14h3.9v1.6
		c1.1-1.2,2.7-1.8,4.6-1.8C787.7,403.6,790.1,405.5,790.1,409.8z"/>
	<path class="st16" d="M802.2,417.1c-0.8,0.6-2.1,0.9-3.3,0.9c-3.3,0-5.2-1.7-5.2-5v-5.7h-2.2v-3.1h2.2v-3.4h4.1v3.4h3.5v3.1h-3.5
		v5.7c0,1.2,0.7,1.8,1.7,1.8c0.6,0,1.2-0.2,1.6-0.5L802.2,417.1z"/>
	<path class="st16" d="M416.7,437.8l-6.1,14h-2l-6.2-14h2.2l5,11.5l5.1-11.5H416.7z"/>
	<path class="st16" d="M426.7,447.1h-8.6c0.2,1.9,1.7,3.1,3.8,3.1c1.2,0,2.3-0.4,3.1-1.3l1.1,1.2c-1,1.1-2.4,1.7-4.2,1.7
		c-3.4,0-5.7-2.3-5.7-5.4c0-3.1,2.3-5.4,5.3-5.4c3.1,0,5.2,2.2,5.2,5.5C426.8,446.7,426.8,446.9,426.7,447.1z M418.1,445.7h6.8
		c-0.2-1.8-1.5-3-3.4-3C419.7,442.7,418.3,443.9,418.1,445.7z"/>
	<path class="st16" d="M434.7,441.1v1.9c-0.2,0-0.3,0-0.4,0c-2.1,0-3.3,1.3-3.3,3.6v5.3H429v-10.6h1.8v1.8
		C431.5,441.7,432.8,441.1,434.7,441.1z"/>
	<path class="st16" d="M435.6,450.7l0.8-1.5c0.9,0.6,2.3,1.1,3.7,1.1c1.8,0,2.5-0.5,2.5-1.4c0-2.4-6.7-0.3-6.7-4.5
		c0-1.9,1.7-3.2,4.4-3.2c1.4,0,2.9,0.4,3.9,1l-0.8,1.5c-1-0.6-2-0.8-3.1-0.8c-1.7,0-2.5,0.6-2.5,1.5c0,2.5,6.7,0.5,6.7,4.6
		c0,1.9-1.8,3.1-4.6,3.1C438.2,451.9,436.4,451.4,435.6,450.7z"/>
	<path class="st16" d="M446.2,437.9c0-0.7,0.6-1.3,1.3-1.3c0.7,0,1.3,0.5,1.3,1.2c0,0.7-0.5,1.3-1.3,1.3
		C446.8,439.1,446.2,438.6,446.2,437.9z M446.6,441.2h1.9v10.6h-1.9V441.2z"/>
	<path class="st16" d="M450.6,446.5c0-3.2,2.3-5.4,5.5-5.4s5.5,2.2,5.5,5.4c0,3.2-2.3,5.4-5.5,5.4S450.6,449.6,450.6,446.5z
		 M459.7,446.5c0-2.3-1.5-3.7-3.6-3.7s-3.6,1.5-3.6,3.7s1.5,3.7,3.6,3.7S459.7,448.7,459.7,446.5z"/>
	<path class="st16" d="M473.9,445.7v6.1H472v-5.9c0-2.1-1-3.1-2.9-3.1c-2,0-3.4,1.2-3.4,3.5v5.5h-1.9v-10.6h1.8v1.6
		c0.8-1.1,2.1-1.7,3.8-1.7C472.1,441.1,473.9,442.6,473.9,445.7z"/>
	<path class="st16" d="M476.5,437.9c0-0.7,0.6-1.3,1.3-1.3c0.7,0,1.3,0.5,1.3,1.2c0,0.7-0.5,1.3-1.3,1.3
		C477.1,439.1,476.5,438.6,476.5,437.9z M476.8,441.2h1.9v10.6h-1.9V441.2z"/>
	<path class="st16" d="M491.8,445.7v6.1h-1.9v-5.9c0-2.1-1-3.1-2.9-3.1c-2,0-3.4,1.2-3.4,3.5v5.5h-1.9v-10.6h1.8v1.6
		c0.8-1.1,2.1-1.7,3.8-1.7C490,441.1,491.8,442.6,491.8,445.7z"/>
	<path class="st16" d="M505,441.2v9.2c0,3.7-1.9,5.4-5.5,5.4c-1.9,0-3.9-0.5-5.1-1.6l0.9-1.5c1,0.8,2.5,1.4,4.1,1.4
		c2.5,0,3.6-1.2,3.6-3.6v-0.8c-0.9,1.1-2.3,1.6-3.8,1.6c-3.1,0-5.4-2.1-5.4-5.1s2.3-5.1,5.4-5.1c1.6,0,3,0.6,3.9,1.7v-1.6H505z
		 M503.1,446.2c0-2.1-1.5-3.4-3.6-3.4c-2.1,0-3.7,1.4-3.7,3.4c0,2,1.5,3.5,3.7,3.5C501.6,449.7,503.1,448.2,503.1,446.2z"/>
	<path class="st19" d="M524.3,436.9h1.8v18.7h-1.8V436.9z"/>
	<path class="st16" d="M545.6,437.8h2V450h7.6v1.7h-9.6V437.8z"/>
	<path class="st16" d="M556.5,437.9c0-0.7,0.6-1.3,1.3-1.3s1.3,0.5,1.3,1.2c0,0.7-0.5,1.3-1.3,1.3
		C557.1,439.1,556.5,438.6,556.5,437.9z M556.9,441.2h1.9v10.6h-1.9V441.2z"/>
	<path class="st16" d="M571.8,445.7v6.1h-1.9v-5.9c0-2.1-1-3.1-2.9-3.1c-2,0-3.4,1.2-3.4,3.5v5.5h-1.9v-10.6h1.8v1.6
		c0.8-1.1,2.1-1.7,3.8-1.7C570,441.1,571.8,442.6,571.8,445.7z"/>
	<path class="st16" d="M584.5,447.1h-8.6c0.2,1.9,1.7,3.1,3.8,3.1c1.2,0,2.3-0.4,3.1-1.3l1.1,1.2c-1,1.1-2.4,1.7-4.2,1.7
		c-3.4,0-5.7-2.3-5.7-5.4c0-3.1,2.3-5.4,5.3-5.4c3.1,0,5.2,2.2,5.2,5.5C584.5,446.7,584.5,446.9,584.5,447.1z M575.9,445.7h6.8
		c-0.2-1.8-1.5-3-3.4-3C577.4,442.7,576.1,443.9,575.9,445.7z"/>
	<path class="st16" d="M595.1,445.4v6.4h-1.8v-1.4c-0.6,1-1.8,1.5-3.5,1.5c-2.4,0-3.9-1.3-3.9-3.1c0-1.7,1.1-3.1,4.3-3.1h3v-0.4
		c0-1.6-0.9-2.6-2.8-2.6c-1.3,0-2.5,0.4-3.4,1.1l-0.8-1.4c1.1-0.9,2.7-1.4,4.4-1.4C593.4,441.1,595.1,442.5,595.1,445.4z
		 M593.2,448.5v-1.5h-3c-1.9,0-2.4,0.7-2.4,1.6c0,1.1,0.9,1.7,2.3,1.7C591.5,450.4,592.7,449.8,593.2,448.5z"/>
	<path class="st16" d="M608.3,441.2v9.2c0,3.7-1.9,5.4-5.5,5.4c-1.9,0-3.9-0.5-5.1-1.6l0.9-1.5c1,0.8,2.5,1.4,4.1,1.4
		c2.5,0,3.6-1.2,3.6-3.6v-0.8c-0.9,1.1-2.3,1.6-3.8,1.6c-3.1,0-5.4-2.1-5.4-5.1s2.3-5.1,5.4-5.1c1.6,0,3,0.6,3.9,1.7v-1.6H608.3z
		 M606.4,446.2c0-2.1-1.5-3.4-3.6-3.4c-2.1,0-3.7,1.4-3.7,3.4c0,2,1.5,3.5,3.7,3.5C604.9,449.7,606.4,448.2,606.4,446.2z"/>
	<path class="st16" d="M621,447.1h-8.6c0.2,1.9,1.7,3.1,3.8,3.1c1.2,0,2.3-0.4,3.1-1.3l1.1,1.2c-1,1.1-2.4,1.7-4.2,1.7
		c-3.4,0-5.7-2.3-5.7-5.4c0-3.1,2.3-5.4,5.3-5.4s5.2,2.2,5.2,5.5C621.1,446.7,621.1,446.9,621,447.1z M612.4,445.7h6.8
		c-0.2-1.8-1.5-3-3.4-3C614,442.7,612.6,443.9,612.4,445.7z"/>
	<path class="st19" d="M639.4,436.9h1.8v18.7h-1.8V436.9z"/>
	<path class="st16" d="M660.7,437.8h5.9c4.5,0,7.6,2.8,7.6,7c0,4.2-3.1,7-7.6,7h-5.9V437.8z M666.5,450c3.5,0,5.7-2.1,5.7-5.3
		s-2.2-5.3-5.7-5.3h-3.8V450H666.5z"/>
	<path class="st16" d="M686.3,447.1h-8.6c0.2,1.9,1.7,3.1,3.8,3.1c1.2,0,2.3-0.4,3.1-1.3l1.1,1.2c-1,1.1-2.4,1.7-4.2,1.7
		c-3.4,0-5.7-2.3-5.7-5.4c0-3.1,2.3-5.4,5.3-5.4s5.2,2.2,5.2,5.5C686.3,446.7,686.3,446.9,686.3,447.1z M677.7,445.7h6.8
		c-0.2-1.8-1.5-3-3.4-3C679.3,442.7,677.9,443.9,677.7,445.7z"/>
	<path class="st16" d="M698.7,436.9v14.8h-1.8v-1.7c-0.9,1.2-2.2,1.8-3.8,1.8c-3.1,0-5.4-2.2-5.4-5.4c0-3.2,2.3-5.4,5.4-5.4
		c1.5,0,2.8,0.6,3.7,1.7v-5.8H698.7z M696.8,446.5c0-2.3-1.5-3.7-3.6-3.7c-2,0-3.6,1.5-3.6,3.7s1.5,3.7,3.6,3.7
		C695.3,450.2,696.8,448.7,696.8,446.5z"/>
	<path class="st16" d="M711.7,441.2v10.6h-1.8v-1.6c-0.8,1.1-2.1,1.7-3.6,1.7c-2.7,0-4.6-1.5-4.6-4.6v-6.1h1.9v5.9
		c0,2.1,1,3.1,2.9,3.1c2,0,3.3-1.2,3.3-3.5v-5.5H711.7z"/>
	<path class="st16" d="M725.7,446.5c0,3.3-2.3,5.4-5.4,5.4c-1.5,0-2.8-0.6-3.7-1.7v5.5h-1.9v-14.5h1.8v1.7c0.9-1.2,2.2-1.8,3.8-1.8
		C723.4,441.1,725.7,443.2,725.7,446.5z M723.8,446.5c0-2.2-1.5-3.7-3.6-3.7c-2,0-3.6,1.5-3.6,3.7c0,2.3,1.5,3.7,3.6,3.7
		C722.2,450.2,723.8,448.7,723.8,446.5z"/>
	<path class="st16" d="M727.9,436.9h1.9v14.8h-1.9V436.9z"/>
	<path class="st16" d="M732.5,437.9c0-0.7,0.6-1.3,1.3-1.3s1.3,0.5,1.3,1.2c0,0.7-0.5,1.3-1.3,1.3
		C733.1,439.1,732.5,438.6,732.5,437.9z M732.9,441.2h1.9v10.6h-1.9V441.2z"/>
	<path class="st16" d="M737,446.5c0-3.2,2.3-5.4,5.6-5.4c1.9,0,3.5,0.8,4.3,2.3l-1.5,0.9c-0.7-1-1.7-1.5-2.9-1.5
		c-2.1,0-3.6,1.5-3.6,3.7c0,2.3,1.6,3.7,3.6,3.7c1.2,0,2.2-0.5,2.9-1.5l1.5,0.9c-0.8,1.5-2.4,2.3-4.3,2.3
		C739.3,451.9,737,449.6,737,446.5z"/>
	<path class="st16" d="M757.5,445.4v6.4h-1.8v-1.4c-0.6,1-1.8,1.5-3.5,1.5c-2.4,0-3.9-1.3-3.9-3.1c0-1.7,1.1-3.1,4.3-3.1h3v-0.4
		c0-1.6-0.9-2.6-2.8-2.6c-1.3,0-2.5,0.4-3.4,1.1l-0.8-1.4c1.1-0.9,2.7-1.4,4.4-1.4C755.8,441.1,757.5,442.5,757.5,445.4z
		 M755.6,448.5v-1.5h-3c-1.9,0-2.4,0.7-2.4,1.6c0,1.1,0.9,1.7,2.3,1.7C753.9,450.4,755.1,449.8,755.6,448.5z"/>
	<path class="st16" d="M766.3,451.2c-0.6,0.5-1.5,0.7-2.3,0.7c-2.1,0-3.4-1.2-3.4-3.3v-5.8h-1.8v-1.6h1.8v-2.3h1.9v2.3h3v1.6h-3v5.7
		c0,1.1,0.6,1.8,1.7,1.8c0.6,0,1.1-0.2,1.5-0.5L766.3,451.2z"/>
	<path class="st16" d="M767.7,437.9c0-0.7,0.6-1.3,1.3-1.3s1.3,0.5,1.3,1.2c0,0.7-0.5,1.3-1.3,1.3
		C768.3,439.1,767.7,438.6,767.7,437.9z M768,441.2h1.9v10.6H768V441.2z"/>
	<path class="st16" d="M772.1,446.5c0-3.2,2.3-5.4,5.5-5.4s5.5,2.2,5.5,5.4c0,3.2-2.3,5.4-5.5,5.4S772.1,449.6,772.1,446.5z
		 M781.2,446.5c0-2.3-1.5-3.7-3.6-3.7s-3.6,1.5-3.6,3.7s1.5,3.7,3.6,3.7S781.2,448.7,781.2,446.5z"/>
	<path class="st16" d="M795.4,445.7v6.1h-1.9v-5.9c0-2.1-1-3.1-2.9-3.1c-2,0-3.4,1.2-3.4,3.5v5.5h-1.9v-10.6h1.8v1.6
		c0.8-1.1,2.1-1.7,3.8-1.7C793.6,441.1,795.4,442.6,795.4,445.7z"/>
</g>
<g>
	<path d="M648.2,194.1h8.8v-2.3h-6.2v-11.3h-2.6V194.1z M661.8,194.4c2,0,2.6-1.1,2.8-1.6h0.4v0c0,0.8,0.7,1.3,1.7,1.3h1.6v-2h-0.8
		c-0.4,0-0.5-0.2-0.5-0.6v-3.6c0-2.4-1.6-3.7-4.1-3.7c-2.5,0-3.8,1.3-4.2,2.7l2.3,0.8c0.2-0.9,0.7-1.5,1.9-1.5
		c1.2,0,1.8,0.7,1.8,1.6v0.5h-2.6c-2.2,0-3.7,1-3.7,3S659.7,194.4,661.8,194.4z M662.2,192.4c-1.1,0-1.6-0.5-1.6-1.2
		c0-0.7,0.5-1.1,1.5-1.1h2.5v0.2C664.6,191.6,663.6,192.4,662.2,192.4z M675.9,194.4c2.3,0,4.4-1.8,4.4-4.9v-0.3
		c0-3.2-2-4.9-4.4-4.9c-1.8,0-2.6,0.7-3,1.4h-0.4v-5.1h-2.5v13.6h2.4V193h0.4C673.3,193.7,674.1,194.4,675.9,194.4z M675.1,192.3
		c-1.5,0-2.6-1-2.6-2.9v-0.2c0-1.9,1.1-2.9,2.6-2.9s2.6,1,2.6,2.9v0.2C677.8,191.3,676.6,192.3,675.1,192.3z M686.9,194.4
		c2.6,0,3.8-1.5,4.3-2.5l-2-1.1c-0.3,0.7-0.9,1.4-2.3,1.4c-1.4,0-2.4-0.9-2.5-2.2h7v-0.8c0-3-1.9-5-4.7-5c-2.9,0-4.8,1.9-4.8,5v0.2
		C682,192.5,684,194.4,686.9,194.4z M684.5,188.2c0.2-1.1,1-1.9,2.3-1.9c1.3,0,2.1,0.7,2.2,1.9H684.5z M693.7,194.1h2.5v-13.6h-2.5
		V194.1z M707.2,194.4c3.2,0,5.2-1.7,5.2-4.2c0-2.5-1.9-3.5-4.8-4.1L707,186c-1.6-0.4-2.4-0.8-2.4-1.9s0.7-1.6,2.3-1.6
		s2.5,0.6,2.5,2.2v0.6h2.5v-0.6c0-3-2.1-4.4-5-4.4s-4.8,1.5-4.8,4c0,2.5,1.7,3.4,4.5,4.1l0.4,0.1c1.8,0.4,2.7,0.8,2.7,1.9
		c0,1.1-0.9,1.9-2.6,1.9s-2.8-0.8-2.8-2.5v-0.5h-2.5v0.5C701.8,192.7,704,194.4,707.2,194.4z M718,194.1h2.7v-2h-1.9
		c-0.4,0-0.5-0.2-0.5-0.6v-5h2.6v-2h-2.6v-3h-2.5v3h-2.4v2h2.4v5.5C715.9,193.3,716.7,194.1,718,194.1z M726.9,194.3
		c1.7,0,2.5-0.8,2.8-1.4h0.4v1.3h2.4v-9.7H730v4.9c0,1.8-0.9,2.8-2.4,2.8c-1.3,0-2.1-0.7-2.1-2.2v-5.6h-2.5v5.8
		C723.1,192.6,724.6,194.3,726.9,194.3z M739.1,194.4c1.8,0,2.6-0.7,3-1.4h0.4v1.2h2.4v-13.6h-2.5v5.1h-0.4c-0.4-0.7-1.2-1.4-3-1.4
		c-2.3,0-4.4,1.8-4.4,4.9v0.3C734.7,192.6,736.8,194.4,739.1,194.4z M739.8,192.3c-1.5,0-2.6-1-2.6-2.9v-0.2c0-1.9,1.1-2.9,2.6-2.9
		c1.5,0,2.6,1,2.6,2.9v0.2C742.5,191.3,741.3,192.3,739.8,192.3z M748.8,183.3c0.9,0,1.6-0.6,1.6-1.6c0-0.9-0.7-1.6-1.6-1.6
		c-0.9,0-1.6,0.6-1.6,1.6C747.3,182.7,748,183.3,748.8,183.3z M747.6,194.1h2.5v-9.7h-2.5V194.1z M757.4,194.4
		c2.9,0,5.1-1.8,5.1-4.9v-0.3c0-3.1-2.2-4.9-5.1-4.9c-2.9,0-5.1,1.8-5.1,4.9v0.3C752.3,192.6,754.5,194.4,757.4,194.4z M757.4,192.2
		c-1.5,0-2.6-1-2.6-2.8v-0.2c0-1.8,1.1-2.8,2.6-2.8s2.6,1,2.6,2.8v0.2C760,191.2,758.9,192.2,757.4,192.2z"/>
	<path class="st20" d="M619.4,180h14.2v14.2h-14.2V180z"/>
	<path class="st21" d="M622.1,179.1v-1.8h-5.3v5.3h1.8v8.9h-1.8v5.3h5.3V195h8.9v1.8h5.3v-5.3h-1.8v-8.9h1.8v-5.3H631v1.8H622.1z
		 M620.3,182.6h1.8v-1.8h8.9v1.8h1.8v8.9H631v1.8h-8.9v-1.8h-1.8V182.6z"/>
</g>
<g>
	<path class="st22" d="M652.6,144.3c0,1.6,1.3,2.8,2.8,2.8s2.8-1.3,2.8-2.8c0-1.6-1.3-2.8-2.8-2.8S652.6,142.7,652.6,144.3z"/>
	<path class="st22" d="M652.6,158.5c0,1.6,1.3,2.8,2.8,2.8s2.8-1.3,2.8-2.8c0-1.6-1.3-2.8-2.8-2.8S652.6,156.9,652.6,158.5z"/>
	<path class="st22" d="M653.7,151.4c0,1,0.8,1.8,1.8,1.8s1.8-0.8,1.8-1.8s-0.8-1.8-1.8-1.8S653.7,150.4,653.7,151.4z"/>
	<path class="st22" d="M653.7,137.2c0,1,0.8,1.8,1.8,1.8s1.8-0.8,1.8-1.8c0-1-0.8-1.8-1.8-1.8S653.7,136.2,653.7,137.2z"/>
	<path class="st22" d="M663.5,154c0,1.6,1.3,2.8,2.8,2.8c1.6,0,2.8-1.3,2.8-2.8c0-1.6-1.3-2.8-2.8-2.8
		C664.8,151.2,663.5,152.4,663.5,154z"/>
	<path class="st22" d="M664.6,161.1c0,1,0.8,1.8,1.8,1.8c1,0,1.8-0.8,1.8-1.8c0-1-0.8-1.8-1.8-1.8
		C665.4,159.3,664.6,160.1,664.6,161.1z"/>
	<path class="st22" d="M664.6,146.9c0,1,0.8,1.8,1.8,1.8c1,0,1.8-0.8,1.8-1.8c0-1-0.8-1.8-1.8-1.8
		C665.4,145.1,664.6,145.9,664.6,146.9z"/>
	<path class="st22" d="M664.6,139.8c0,1,0.8,1.8,1.8,1.8c1,0,1.8-0.8,1.8-1.8c0-1-0.8-1.8-1.8-1.8
		C665.4,138.1,664.6,138.9,664.6,139.8z"/>
	<path class="st22" d="M674.4,144.3c0,1.6,1.3,2.8,2.8,2.8s2.8-1.3,2.8-2.8c0-1.6-1.3-2.8-2.8-2.8S674.4,142.7,674.4,144.3z"/>
	<path class="st22" d="M675.5,137.2c0,1,0.8,1.8,1.8,1.8c1,0,1.8-0.8,1.8-1.8c0-1-0.8-1.8-1.8-1.8
		C676.2,135.4,675.5,136.2,675.5,137.2z"/>
	<path class="st22" d="M675.5,151.4c0,1,0.8,1.8,1.8,1.8c1,0,1.8-0.8,1.8-1.8s-0.8-1.8-1.8-1.8C676.2,149.6,675.5,150.4,675.5,151.4
		z"/>
	<path class="st22" d="M675.5,158.5c0,1,0.8,1.8,1.8,1.8c1,0,1.8-0.8,1.8-1.8c0-1-0.8-1.8-1.8-1.8
		C676.2,156.7,675.5,157.5,675.5,158.5z"/>
	<path d="M697.2,155.8h0.8l3.2-11.8l1.6-0.2v-0.8h-4.3v0.8l1.7,0.2l-2.4,8.8l-2.8-8.8l1.9-0.2v-0.8h-5.2v0.8l1.9,0.2l-2.9,8.7
		l-2.3-8.7l1.7-0.2v-0.8H685v0.8l1.6,0.2l3.4,11.9h0.8l3.1-9.9L697.2,155.8z"/>
	<path d="M706.7,147.2c1.2,0,2.1,1,2.1,2.1c0,0.6-0.2,1-1.1,1h-3.5C704.4,148.1,705.7,147.2,706.7,147.2z M706.9,146.4
		c-2.4,0-4.4,1.9-4.4,4.8s1.7,4.7,4.2,4.7c1.7,0,2.9-0.9,3.6-2.2l-0.5-0.4c-0.7,0.8-1.4,1.3-2.6,1.3c-1.8,0-3-1.2-3.1-3.6h6.1
		c0.1-0.2,0.1-0.6,0.1-1.1C710.4,147.7,708.8,146.4,706.9,146.4z"/>
	<path d="M714.2,144.3c0.7,0,1.3-0.5,1.3-1.2c0-0.7-0.6-1.2-1.3-1.2c-0.7,0-1.3,0.5-1.3,1.2C712.9,143.8,713.5,144.3,714.2,144.3z
		 M716.4,155l-1.3-0.3c0-0.9,0-2.2,0-3v-2.5l0.1-2.6l-0.3-0.2l-2.9,1.2v0.7l1.5,0.2c0,0.8,0.1,1.3,0.1,2.4v0.9c0,0.8,0,2.1,0,3
		L712,155v0.7h4.4V155z"/>
	<path d="M721.5,147.1c1.2,0,1.9,0.9,1.9,2.3c0,1.4-0.7,2.4-1.9,2.4c-1.2,0-1.8-0.9-1.8-2.3C719.6,148.1,720.3,147.1,721.5,147.1z
		 M718.1,149.5c0,1.3,0.6,2.2,1.5,2.7c-0.9,0.9-1.3,1.5-1.3,2.1c0,0.7,0.4,1.2,1.3,1.4c-1.4,0.7-1.9,1.3-1.9,2.2
		c0,1.3,1.2,2.3,3.9,2.3c3.1,0,4.7-1.6,4.7-3.3c0-1.5-1-2.4-3.1-2.4h-2.5c-0.9,0-1.1-0.3-1.1-0.8c0-0.4,0.2-0.8,0.5-1.2
		c0.4,0.1,0.9,0.2,1.4,0.2c2,0,3.4-1.1,3.4-3.1c0-0.7-0.2-1.3-0.4-1.7h1.9v-1.2l-0.3-0.2l-2.1,0.7c-0.6-0.5-1.4-0.7-2.4-0.7
		C719.5,146.4,718.1,147.5,718.1,149.5z M721.7,159.3c-1.5,0-2.4-0.5-2.4-1.7c0-0.6,0.2-1.1,0.7-1.7c0.2,0,0.5,0,0.8,0h2.2
		c1.4,0,1.9,0.6,1.9,1.5C724.8,158.4,723.7,159.3,721.7,159.3z"/>
	<path d="M728.6,151.6c0,0.8,0,2.1,0,3l-1.4,0.3v0.7h4.4V155l-1.3-0.3c0-0.9,0-2.2,0-3V149c1-0.9,1.7-1.2,2.7-1.2
		c1.1,0,1.6,0.6,1.6,2.3v1.6c0,0.9,0,2.1,0,3.1L733,155v0.7h4.4V155l-1.3-0.3c0-0.9,0-2.2,0-3v-1.8c0-2.5-0.8-3.5-2.4-3.5
		c-1.2,0-2.5,0.7-3.5,1.8v-3.7l0.1-2.7l-0.3-0.2l-2.9,0.9v0.7l1.6,0.2V151.6z"/>
	<path d="M741.3,153.5v-5.9h2.6v-1h-2.5l0.1-2.6h-1.1l-0.5,2.5l-1.7,0.2v0.8h1.6v4.5c0,0.7,0,1.1,0,1.6c0,1.5,0.8,2.2,2.2,2.2
		c1,0,1.7-0.4,2.2-1l-0.5-0.5c-0.5,0.3-0.9,0.5-1.3,0.5C741.7,154.9,741.3,154.5,741.3,153.5z"/>
	<path d="M747.9,155.9c2.4,0,3.7-1.3,3.7-2.7c0-1.2-0.7-2.1-2.6-2.8l-0.6-0.2c-1.3-0.5-1.7-0.8-1.7-1.6c0-0.8,0.6-1.3,1.8-1.3
		c0.5,0,0.9,0.1,1.3,0.3l0.3,1.5h1l0.1-1.9c-0.8-0.5-1.6-0.8-2.7-0.8c-2.1,0-3.3,1.3-3.3,2.7c0,1.3,0.9,2.1,2.3,2.6l0.9,0.3
		c1.2,0.4,1.8,0.8,1.8,1.7c0,0.9-0.7,1.4-2.1,1.4c-0.6,0-1.1-0.1-1.5-0.3l-0.4-1.7h-1l0.1,2.1C746,155.6,746.8,155.9,747.9,155.9z"
		/>
	<path d="M761,147.2c-0.7-0.9-0.9-1.5-0.9-2.1c0-1,0.8-1.8,1.7-1.8c0.9,0,1.7,0.7,1.7,1.8c0,1.1-0.8,1.9-2,2.8
		C761.3,147.7,761.1,147.5,761,147.2z M769.5,155.7l0.1-0.8l-1.8-0.2c-0.6-0.6-1.1-1.2-1.6-1.7c0.9-1.3,1.5-2.7,2-4.4l1.4-0.3v-0.8
		h-3.9v0.8l1.5,0.2c-0.3,1.5-0.9,2.7-1.6,3.9c-0.7-0.8-1.4-1.5-2.2-2.4c-0.7-0.7-1.1-1.2-1.5-1.7c1.9-1,2.8-2,2.8-3.3
		c0-1.4-1-2.4-2.9-2.4c-1.8,0-3.1,1-3.1,2.7c0,1,0.4,2,1.3,3.1c0,0,0.1,0.1,0.1,0.1c-1.9,0.9-2.9,2.2-2.9,3.9c0,1.9,1.6,3.5,4,3.5
		c1.8,0,3-0.7,3.9-1.6c0.2,0.2,0.4,0.5,0.7,0.7c0.6,0.6,1.2,0.9,2.2,0.9C768.5,155.9,768.9,155.8,769.5,155.7z M762.7,151.5
		c0.6,0.7,1.3,1.4,1.9,2.2c-0.7,0.6-1.7,1-2.8,1c-1.8,0-2.9-1.4-2.9-2.8c0-0.9,0.4-2.1,1.7-2.9C761.2,149.7,761.8,150.4,762.7,151.5
		z"/>
	<path d="M777.5,149.7c0,1.7,0,3.3,0,4.9l-1.7,0.2v0.8h5.2c3.6,0,5.1-1.7,5.1-3.5c0-1.5-1.1-2.8-3.6-3.1c2.1-0.4,2.9-1.7,2.9-3
		c0-1.8-1.5-3.1-4.1-3.1h-5.5v0.8l1.7,0.2c0,1.6,0,3.3,0,4.9V149.7z M780.3,149.5c2.6,0,3.8,0.9,3.8,2.7c0,1.7-1.2,2.6-3.6,2.6h-1.2
		c0-1.6,0-3.2,0-5.2H780.3z M780.6,143.8c1.9,0,2.9,0.6,2.9,2.4c0,1.7-1,2.5-3.3,2.5h-1c0-1.5,0-3.2,0-4.8H780.6z"/>
	<path d="M789.7,144.3c0.7,0,1.3-0.5,1.3-1.2c0-0.7-0.6-1.2-1.3-1.2c-0.7,0-1.3,0.5-1.3,1.2C788.4,143.8,789,144.3,789.7,144.3z
		 M791.9,155l-1.3-0.3c0-0.9,0-2.2,0-3v-2.5l0.1-2.6l-0.3-0.2l-2.9,1.2v0.7l1.5,0.2c0,0.8,0.1,1.3,0.1,2.4v0.9c0,0.8,0,2.1,0,3
		l-1.4,0.3v0.7h4.4V155z"/>
	<path d="M800.3,155.8c0.7,0,1.2-0.2,1.7-1l-0.4-0.4c-0.2,0.2-0.4,0.4-0.7,0.4c-0.4,0-0.7-0.3-0.7-1.1v-4c0-2.4-0.9-3.3-2.9-3.3
		c-1.9,0-3.3,0.9-3.7,2.4c0.1,0.5,0.4,0.8,0.9,0.8c0.5,0,0.8-0.3,1-0.9l0.4-1.2c0.4-0.1,0.7-0.1,1-0.1c1.3,0,1.8,0.5,1.8,2.3v0.5
		c-0.8,0.2-1.6,0.4-2.1,0.6c-2.6,0.9-3.2,1.8-3.2,2.9c0,1.6,1.2,2.4,2.5,2.4c1.1,0,1.7-0.5,2.8-1.5
		C798.8,155.3,799.4,155.8,800.3,155.8z M795,153.2c0-0.6,0.2-1.3,1.9-1.9c0.4-0.2,1.1-0.4,1.7-0.6v2.9c-1.1,0.8-1.4,1-2.1,1
		C795.6,154.6,795,154.2,795,153.2z"/>
	<path d="M805.9,155.9c2.4,0,3.7-1.3,3.7-2.7c0-1.2-0.7-2.1-2.6-2.8l-0.6-0.2c-1.3-0.5-1.7-0.8-1.7-1.6c0-0.8,0.6-1.3,1.8-1.3
		c0.5,0,0.9,0.1,1.3,0.3l0.3,1.5h1l0.1-1.9c-0.8-0.5-1.6-0.8-2.7-0.8c-2.1,0-3.3,1.3-3.3,2.7c0,1.3,0.9,2.1,2.3,2.6l0.9,0.3
		c1.2,0.4,1.8,0.8,1.8,1.7c0,0.9-0.7,1.4-2.1,1.4c-0.6,0-1.1-0.1-1.5-0.3l-0.4-1.7h-1l0.1,2.1C804,155.6,804.8,155.9,805.9,155.9z"
		/>
	<path d="M815.4,147.2c1.2,0,2.1,1,2.1,2.1c0,0.6-0.2,1-1.1,1h-3.5C813.1,148.1,814.4,147.2,815.4,147.2z M815.6,146.4
		c-2.4,0-4.4,1.9-4.4,4.8s1.7,4.7,4.2,4.7c1.7,0,2.9-0.9,3.6-2.2l-0.5-0.4c-0.7,0.8-1.4,1.3-2.6,1.3c-1.8,0-3-1.2-3.1-3.6h6.1
		c0.1-0.2,0.1-0.6,0.1-1.1C819.1,147.7,817.5,146.4,815.6,146.4z"/>
	<path d="M823.8,155.9c2.4,0,3.7-1.3,3.7-2.7c0-1.2-0.7-2.1-2.6-2.8l-0.6-0.2c-1.3-0.5-1.7-0.8-1.7-1.6c0-0.8,0.6-1.3,1.8-1.3
		c0.5,0,0.9,0.1,1.3,0.3l0.3,1.5h1l0.1-1.9c-0.8-0.5-1.6-0.8-2.7-0.8c-2.1,0-3.3,1.3-3.3,2.7c0,1.3,0.9,2.1,2.3,2.6l0.9,0.3
		c1.2,0.4,1.8,0.8,1.8,1.7c0,0.9-0.7,1.4-2.1,1.4c-0.6,0-1.1-0.1-1.5-0.3l-0.4-1.7h-1l0.1,2.1C821.9,155.6,822.8,155.9,823.8,155.9z
		"/>
</g>
<g transform="matrix(1.33 0 0 1.33 0 4.05e-6)">
	<path class="st23" d="M640.4,137.3c0-0.1-0.1-0.1-0.1-0.2c-0.6-1.2-1.2-2.4-1.9-3.6c-0.1-0.1-0.1-0.2,0-0.3c1-1.2,2-2.3,3-3.5
		c0,0,0.1-0.1,0.1-0.2c-0.3,0.1-0.6,0.1-0.9,0.2c-1.2,0.3-2.4,0.6-3.6,1c-0.1,0-0.2,0-0.2-0.1c-0.7-1.1-1.4-2.3-2.1-3.4
		c0-0.1-0.1-0.1-0.1-0.2c-0.1,0.3-0.1,0.6-0.2,0.9c-0.2,1.1-0.4,2.1-0.6,3.2c0,0.1,0,0.2-0.1,0.3c0,0.1-0.1,0.2-0.2,0.2
		c-1.4,0.4-2.8,0.9-4.2,1.3c-0.1,0-0.1,0-0.2,0.1c1.2,0.5,2.3,0.9,3.5,1.4c0,0-0.1,0.1-0.1,0.1c-0.7,0.5-1.4,0.9-2.2,1.4
		c-0.1,0.1-0.2,0.1-0.3,0c-0.9-0.4-1.7-0.8-2.6-1.2c-0.4-0.2-0.7-0.4-1-0.7c-0.6-0.8-0.5-1.6,0.3-2.1c0.3-0.2,0.6-0.3,0.9-0.4
		c1.4-0.5,2.8-0.9,4.2-1.3c0.1,0,0.2-0.1,0.2-0.2c0.2-1.1,0.4-2.2,0.6-3.2c0.1-0.6,0.2-1.2,0.4-1.7c0.1-0.2,0.2-0.4,0.4-0.6
		c0.6-0.6,1.3-0.6,1.9-0.1c0.2,0.2,0.4,0.4,0.5,0.7c0.6,1,1.3,2.1,1.9,3.2c0.1,0.1,0.1,0.1,0.3,0.1c1.5-0.4,3.1-0.8,4.7-1.2
		c0.3-0.1,0.6-0.1,1-0.1c0.7,0.1,1,0.7,0.8,1.4c-0.1,0.3-0.3,0.6-0.5,0.8c-1.1,1.3-2.2,2.6-3.2,3.8c-0.1,0.1-0.1,0.2,0,0.3
		c0.6,1.2,1.3,2.4,1.9,3.7c0.2,0.3,0.3,0.6,0.3,0.9c0,0.8-0.6,1.4-1.3,1.5c-0.4,0.1-0.8,0-1.2-0.2c-1-0.3-1.9-0.6-2.9-0.9
		c-0.1,0-0.1-0.1-0.1-0.2c-0.1-0.7-0.2-1.4-0.4-2.1c0,0,0,0,0-0.1C638.2,136.7,639.3,137,640.4,137.3"/>
	<path class="st24" d="M638.5,147.4c-0.9,0-1.7,0-2.6,0c-0.1,0-0.2,0-0.2-0.1c-1-1.6-2.1-3.2-3.1-4.7c0-0.1-0.1-0.1-0.1-0.2
		c-0.2,1.7-0.4,3.4-0.7,5h-2.3c0-0.2,0.1-0.4,0.1-0.7c0.2-1.7,0.4-3.4,0.7-5.1c0.2-1.6,0.4-3.3,0.6-4.9c0,0,0-0.1,0.1-0.1
		c0.8-0.5,1.6-1,2.4-1.5c0,0,0,0,0.1,0c-0.2,1.8-0.5,3.6-0.7,5.5c0,0,0,0,0,0c1.2-1.4,2.5-2.8,3.8-4.2c0,0.2,0.1,0.4,0.1,0.6
		c0.1,0.5,0.2,1,0.3,1.6c0,0.1,0,0.2-0.1,0.2c-0.8,0.8-1.6,1.7-2.4,2.5c0,0-0.1,0.1-0.1,0.1c0,0,0,0.1,0.1,0.1
		c1.4,1.9,2.8,3.9,4.1,5.8C638.4,147.3,638.5,147.3,638.5,147.4L638.5,147.4"/>
	<path class="st24" d="M611.4,142.2c0-0.2-0.1-0.4-0.1-0.7c-0.4-1.2-1.6-1.8-2.9-1.5c-1.4,0.3-2.4,1.4-2.5,2.8
		c-0.1,1,0.5,2.1,1.5,2.4c0.8,0.3,1.7,0.2,2.4-0.3C610.8,144.4,611.3,143.5,611.4,142.2L611.4,142.2z M605.3,146.6
		c-0.1,0.5-0.1,1-0.2,1.5c-0.1,0.6-0.2,1.3-0.2,1.9c0,0.1,0,0.1-0.1,0.1c-0.6,0-1.3,0-1.9,0c0,0,0,0-0.1,0c0-0.3,0.1-0.6,0.1-0.9
		c0.1-1.1,0.3-2.1,0.4-3.2c0.2-1.2,0.3-2.4,0.5-3.6c0.4-2.1,2.2-4,4.3-4.4c1.2-0.3,2.4-0.1,3.5,0.6c1.1,0.7,1.7,1.7,1.8,3
		c0.2,1.8-0.5,3.3-1.7,4.5c-0.8,0.8-1.8,1.3-3,1.5c-1.2,0.2-2.3,0-3.3-0.7C605.4,146.7,605.4,146.7,605.3,146.6"/>
	<path class="st24" d="M604.2,136.5c-0.7,0.5-1.4,1-2.1,1.5c-0.1-0.2-0.2-0.3-0.3-0.5c-0.3-0.4-0.7-0.7-1.2-0.8
		c-0.4,0-0.8,0.1-1.1,0.4c-0.3,0.3-0.3,0.7-0.1,1c0.3,0.4,0.6,0.7,0.9,1.1c0.5,0.6,1.1,1.1,1.6,1.7c0.5,0.5,0.8,1.1,1,1.8
		c0.1,0.8,0,1.6-0.4,2.4c-0.7,1.4-1.9,2.2-3.4,2.4c-0.7,0.1-1.3,0.1-2-0.1c-0.9-0.3-1.5-0.8-1.9-1.6c-0.1-0.3-0.2-0.6-0.4-0.9
		c0.8-0.4,1.5-0.8,2.2-1.2c0,0.1,0,0.1,0.1,0.2c0.1,0.3,0.2,0.5,0.4,0.8c0.5,0.7,1.2,0.9,2,0.6c0.2-0.1,0.4-0.2,0.6-0.4
		c0.5-0.4,0.6-1.1,0.2-1.6c-0.2-0.3-0.5-0.6-0.7-0.9c-0.6-0.7-1.3-1.3-1.8-2c-0.4-0.5-0.7-1-0.8-1.7c-0.1-0.7,0-1.4,0.4-1.9
		c0.9-1.5,2.2-2.2,3.9-2.2c1,0,1.8,0.5,2.4,1.3C603.9,136.1,604,136.3,604.2,136.5"/>
	<path class="st24" d="M621,144.3c-0.1,0.9-0.2,1.7-0.3,2.6c0,0,0,0.1-0.1,0.1c-1.7,0.8-4,0.7-5.4-0.9c-0.8-0.9-1.1-1.9-1-3
		c0.1-2.6,2.3-4.9,4.9-5.2c1.5-0.2,2.8,0.2,3.9,1.4c0.7,0.8,1,1.8,1,2.8c0,0.7-0.1,1.4-0.2,2.1c-0.1,1-0.3,2-0.4,3c0,0,0,0.1,0,0.1
		h-2c0-0.2,0.1-0.4,0.1-0.7c0.1-1.1,0.3-2.3,0.4-3.4c0.1-0.7,0-1.4-0.3-2.1c-0.3-0.7-0.9-1.1-1.7-1.1c-1.6-0.2-3.1,0.9-3.4,2.5
		c-0.2,1,0.1,2,0.9,2.6c0.8,0.5,1.6,0.5,2.5,0.2C620.3,144.9,620.6,144.7,621,144.3"/>
	<path class="st24" d="M629.7,138.1c-0.1,0.7-0.2,1.4-0.3,2.1c-0.4,0-0.9,0-1.3,0c-0.3,0-0.7,0.2-0.8,0.5c0,0.1-0.1,0.3-0.1,0.4
		c-0.2,1.6-0.4,3.3-0.6,4.9c-0.1,0.4-0.1,0.8-0.2,1.2h-2.1c0-0.3,0.1-0.6,0.1-0.9c0.1-1.1,0.3-2.1,0.4-3.2c0.1-0.9,0.2-1.8,0.4-2.7
		c0.2-1.2,1.4-2.3,2.6-2.4C628.5,138.1,629,138.1,629.7,138.1"/>
	<path class="st25" d="M641.1,147.4v-0.9h0l-0.4,0.9h-0.1l-0.4-0.9h0v0.9H640v-1.1h0.3l0.3,0.8l0.3-0.8h0.3v1.1H641.1z M639.5,146.4
		v0.9h-0.2v-0.9H639v-0.1h0.9v0.1H639.5"/>
	<path class="st25" d="M607.1,135h0.5l-0.1-0.8L607.1,135z M607.7,135.5h-0.9l-0.3,0.5h-0.6l1.4-2.6h0.6l0.5,2.6h-0.6L607.7,135.5"
		/>
	<path class="st25" d="M610.8,134h-0.3l-0.1,0.6h0.3c0.2,0,0.3-0.1,0.3-0.4C611.1,134.1,611,134,610.8,134L610.8,134z M610.1,133.5
		h0.8c0.4,0,0.7,0.3,0.7,0.7c0,0.6-0.4,0.9-1,0.9h-0.4l-0.2,0.9h-0.5L610.1,133.5"/>
	<path class="st25" d="M613.5,135h0.5l-0.1-0.8L613.5,135z M614.1,135.5h-0.9l-0.3,0.5h-0.6l1.4-2.6h0.6l0.5,2.6h-0.6L614.1,135.5"
		/>
	<path class="st25" d="M617.5,136c-0.2,0.1-0.4,0.1-0.6,0.1c-0.7,0-1.1-0.5-1.1-1.1c0-0.8,0.7-1.5,1.5-1.5c0.2,0,0.4,0,0.5,0.1
		l-0.1,0.6c-0.1-0.1-0.3-0.2-0.5-0.2c-0.5,0-0.9,0.4-0.9,0.9c0,0.4,0.2,0.7,0.6,0.7c0.2,0,0.4-0.1,0.6-0.2L617.5,136"/>
	<path class="st25" d="M620.8,135.1h-1.1l-0.2,1H619l0.5-2.6h0.5l-0.2,1h1.1l0.2-1h0.5l-0.5,2.6h-0.5L620.8,135.1"/>
	<path class="st25" d="M622.8,136.1l0.5-2.6h1.4l-0.1,0.5h-0.9l-0.1,0.5h0.8l-0.1,0.5h-0.8l-0.1,0.5h0.9l-0.1,0.5L622.8,136.1"/>
</g>
<g transform="translate(-1638 -2093)">
	<g>
		<g>
			<path id="A" class="st26" d="M2013.3,2281.3c0,3-0.2,4-0.8,4.7c-0.7,0.6-1.5,1-2.4,0.9l0.2,1.8c1.4,0,2.7-0.5,3.8-1.4
				c1.1-1.1,1.5-2.7,1.5-5.1v-11.3h-2.2L2013.3,2281.3C2013.3,2281.4,2013.3,2281.3,2013.3,2281.3z"/>
		</g>
		<g>
			<path id="B" class="st26" d="M2030,2280l0.1,3.4h-2l-0.1-2h-0.1c-0.4,0.7-1,1.3-1.7,1.7c-0.7,0.4-1.5,0.6-2.3,0.6
				c-1.9,0-4.2-1.1-4.2-5.5v-7.3h2.2v6.9c0,2.4,0.7,4,2.7,4c0.6,0,1.3-0.2,1.8-0.6c0.5-0.4,0.9-0.9,1.2-1.5c0.1-0.4,0.2-0.8,0.2-1.2
				v-7.7h2.2L2030,2280L2030,2280L2030,2280z"/>
		</g>
		<g>
			<path id="C" class="st26" d="M2034.2,2275l-0.1-4.1h2l0.1,2.1h0.1c0.4-0.8,1.1-1.4,1.8-1.8c0.8-0.4,1.6-0.6,2.5-0.6
				c3,0,5.2,2.6,5.2,6.3c0,4.5-2.7,6.7-5.6,6.7c-0.7,0-1.5-0.1-2.1-0.5c-0.7-0.3-1.2-0.9-1.6-1.5h-0.1v6.8h-2.2L2034.2,2275
				L2034.2,2275L2034.2,2275z M2036.4,2278.3c0,0.3,0,0.6,0.1,0.9c0.2,0.8,0.6,1.4,1.2,1.9c0.6,0.5,1.4,0.7,2.1,0.7
				c2.4,0,3.7-2,3.7-4.8c0-2.5-1.3-4.6-3.6-4.6c-0.8,0-1.6,0.3-2.2,0.8c-0.6,0.5-1,1.2-1.2,2c-0.1,0.3-0.1,0.6-0.2,0.9V2278.3
				L2036.4,2278.3z"/>
		</g>
		<g>
			<path id="D" class="st26" d="M2049.7,2270.9l2.7,7.4l0.8,2.6h0.1l0.8-2.6l2.4-7.3h2.4l-3.3,8.9c-1.6,4.3-2.7,6.5-4.2,7.8
				c-0.8,0.7-1.7,1.2-2.7,1.5l-0.6-1.9c0.7-0.2,1.4-0.6,2-1.1c0.8-0.7,1.5-1.5,1.9-2.5c0.1-0.2,0.2-0.4,0.2-0.5
				c0-0.2-0.1-0.4-0.2-0.6l-4.5-11.5L2049.7,2270.9L2049.7,2270.9z"/>
		</g>
		<g>
			<path id="E" class="st26" d="M2064.6,2267.3v3.6h3.2v1.7h-3.2v6.7c0,1.5,0.4,2.4,1.7,2.4c0.4,0,0.9,0,1.3-0.2l0.1,1.7
				c-0.6,0.2-1.3,0.3-2,0.3c-0.4,0-0.9,0-1.3-0.2s-0.8-0.4-1.1-0.7c-0.6-0.7-0.9-1.8-0.9-3.2v-6.8h-1.9v-1.7h1.9v-3L2064.6,2267.3z"
				/>
		</g>
		<g>
			<path id="F" class="st26" d="M2071.9,2277.5c0.1,3.1,2,4.3,4.2,4.3c1.2,0,2.3-0.2,3.4-0.6l0.4,1.6c-1.3,0.5-2.7,0.8-4.1,0.8
				c-3.8,0-6-2.5-6-6.3s2.2-6.7,5.7-6.7c4,0,5.1,3.6,5.1,5.9c0,0.4,0,0.7-0.1,1.1H2071.9L2071.9,2277.5z M2078.5,2275.9
				c0-1.4-0.6-3.7-3.1-3.7c-2.3,0-3.2,2.1-3.4,3.7H2078.5L2078.5,2275.9L2078.5,2275.9z"/>
		</g>
		<g>
			<path id="G" class="st26" d="M2083.9,2274.8l-0.1-3.9h2l0.1,2.4h0.1c0.6-1.7,1.9-2.7,3.4-2.7c0.2,0,0.4,0,0.6,0.1v2.1
				c-0.2-0.1-0.5-0.1-0.8-0.1c-1.6,0-2.7,1.2-3,2.9c-0.1,0.3-0.1,0.7-0.1,1.1v6.6h-2.2V2274.8z"/>
		</g>
	</g>
	<g>
		<path id="H" class="st27" d="M2002.1,2265.1c0,0.3-0.1,0.7-0.2,1c-0.2,0.3-0.4,0.5-0.7,0.7c-0.3,0.1-0.7,0.2-1,0.1
			c-0.3-0.1-0.6-0.2-0.9-0.4c-0.2-0.2-0.4-0.5-0.5-0.9c-0.1-0.3-0.1-0.7,0.1-1c0.1-0.3,0.3-0.6,0.6-0.8c0.3-0.2,0.6-0.3,0.9-0.3
			c0.5,0,0.9,0.1,1.2,0.5S2002.1,2264.6,2002.1,2265.1L2002.1,2265.1z"/>
	</g>
	<g>
		<g>
			<path id="I" class="st28" d="M1992.1,2285.4c-4.6,0-8.5-1.7-10.6-4.1c0.8,2.2,2.2,4.1,4.1,5.5c1.9,1.4,4.2,2.1,6.5,2.1
				s4.6-0.7,6.5-2.1c1.9-1.4,3.3-3.3,4.1-5.5C2000.7,2283.7,1996.7,2285.4,1992.1,2285.4z"/>
		</g>
		<g>
			<path id="J" class="st28" d="M1992.1,2269.3c4.6,0,8.5,1.7,10.6,4.1c-0.8-2.2-2.2-4.1-4.1-5.5c-1.9-1.4-4.2-2.1-6.5-2.1
				s-4.6,0.7-6.5,2.1c-1.9,1.4-3.3,3.3-4.1,5.5C1983.6,2271,1987.6,2269.3,1992.1,2269.3z"/>
		</g>
	</g>
	<g>
		<path id="K" class="st29" d="M1985.9,2290.2c0,0.4-0.1,0.9-0.3,1.2c-0.2,0.4-0.5,0.7-0.9,0.8c-0.4,0.2-0.8,0.2-1.2,0.2
			c-0.4-0.1-0.8-0.3-1.1-0.5c-0.3-0.3-0.5-0.7-0.6-1.1c-0.1-0.4-0.1-0.9,0.1-1.3c0.1-0.4,0.4-0.8,0.8-1c0.3-0.3,0.8-0.4,1.2-0.4
			c0.6,0,1.1,0.2,1.5,0.6C1985.6,2289.1,1985.8,2289.6,1985.9,2290.2L1985.9,2290.2L1985.9,2290.2z"/>
	</g>
	<g>
		<path id="L" class="st30" d="M1982,2268.7c-0.3,0-0.5-0.1-0.7-0.2s-0.4-0.3-0.5-0.6s-0.1-0.5-0.1-0.7s0.1-0.5,0.3-0.7
			c0.2-0.2,0.4-0.3,0.6-0.4s0.5,0,0.7,0s0.4,0.2,0.6,0.4c0.4,0.5,0.3,1.2-0.1,1.6C1982.7,2268.6,1982.4,2268.7,1982,2268.7
			L1982,2268.7L1982,2268.7z"/>
	</g>
</g>
<g>
	<g>
		<defs>
			<polygon id="SVGID_00000129895769479543907730000003948112794946587285_" points="549,149.3 536.6,142.2 536.6,171.2 
				541.5,168.3 541.5,160.2 545.3,162.3 545.3,156.8 541.5,154.6 541.5,151.4 549,155.7 			"/>
		</defs>
		<clipPath id="SVGID_00000098924058270037353090000014447097706723620994_">
			<use xlink:href="#SVGID_00000129895769479543907730000003948112794946587285_"  style="overflow:visible;"/>
		</clipPath>
		<g style="clip-path:url(#SVGID_00000098924058270037353090000014447097706723620994_);">
			
				<linearGradient id="SVGID_00000041989343422405487430000006863230121170457787_" gradientUnits="userSpaceOnUse" x1="521.9688" y1="591.9894" x2="552.3537" y2="591.9894" gradientTransform="matrix(1 0 0 -1 0 748.6691)">
				<stop  offset="0" style="stop-color:#FF6F00"/>
				<stop  offset="1" style="stop-color:#FFA800"/>
			</linearGradient>
			
				<rect x="522" y="142.1" style="fill:url(#SVGID_00000041989343422405487430000006863230121170457787_);" width="30.4" height="29.1"/>
		</g>
	</g>
	<g>
		<defs>
			<polygon id="SVGID_00000077316270850617511450000006694275526543698840_" points="523.1,149.3 535.5,142.2 535.5,171.2 
				530.5,168.3 530.5,151.4 523.1,155.7 			"/>
		</defs>
		<clipPath id="SVGID_00000170250018767015748250000011397129421367796139_">
			<use xlink:href="#SVGID_00000077316270850617511450000006694275526543698840_"  style="overflow:visible;"/>
		</clipPath>
		<g style="clip-path:url(#SVGID_00000170250018767015748250000011397129421367796139_);">
			
				<linearGradient id="SVGID_00000039843728387631131670000005430833199037598384_" gradientUnits="userSpaceOnUse" x1="521.7636" y1="591.9894" x2="552.1486" y2="591.9894" gradientTransform="matrix(1 0 0 -1 0 748.6691)">
				<stop  offset="0" style="stop-color:#FF6F00"/>
				<stop  offset="1" style="stop-color:#FFA800"/>
			</linearGradient>
			
				<rect x="521.8" y="142.1" style="fill:url(#SVGID_00000039843728387631131670000005430833199037598384_);" width="30.4" height="29.1"/>
		</g>
	</g>
	<path class="st35" d="M498.2,182.9h-4.5v12.3h-2.5v-12.3h-4.4v-2h11.4V182.9z"/>
	<path class="st35" d="M501.2,195.4c-1.5,0-2.7-0.5-3.7-1.4s-1.4-2.2-1.4-3.8v-0.3c0-1,0.2-2,0.6-2.8c0.4-0.8,1-1.5,1.7-2
		c0.7-0.5,1.6-0.7,2.5-0.7c1.4,0,2.6,0.5,3.4,1.4c0.8,0.9,1.2,2.2,1.2,3.9v1h-6.9c0.1,0.9,0.4,1.6,0.9,2.1c0.5,0.5,1.2,0.8,1.9,0.8
		c1.1,0,2.1-0.5,2.7-1.3l1.3,1.2c-0.4,0.6-1,1.1-1.7,1.5C502.8,195.2,502,195.4,501.2,195.4z M500.9,186.2c-0.6,0-1.2,0.2-1.6,0.7
		c-0.4,0.5-0.7,1.1-0.8,1.9h4.6v-0.2c-0.1-0.8-0.3-1.4-0.6-1.8C502.1,186.4,501.5,186.2,500.9,186.2L500.9,186.2z"/>
	<path class="st35" d="M509.5,184.5l0.1,1.2c0.8-0.9,1.9-1.5,3.1-1.4c2.2,0,3.3,1.3,3.4,3.8v7h-2.4v-6.9c0-0.7-0.1-1.2-0.4-1.5
		c-0.3-0.3-0.8-0.5-1.4-0.5c-1,0-1.7,0.4-2.2,1.3v7.6h-2.4v-10.6H509.5z"/>
	<path class="st35" d="M523.8,192.3c0-0.4-0.2-0.8-0.5-1c-0.4-0.2-0.9-0.4-1.7-0.6c-0.7-0.1-1.4-0.4-2-0.6c-1.2-0.6-1.8-1.4-1.8-2.5
		c0-0.9,0.4-1.8,1.2-2.3c0.8-0.6,1.8-0.9,3-0.9c1.3,0,2.3,0.3,3.1,0.9c0.8,0.6,1.2,1.5,1.2,2.5h-2.4c0-0.4-0.2-0.9-0.5-1.2
		c-0.4-0.3-0.9-0.5-1.4-0.5c-0.5,0-0.9,0.1-1.3,0.4c-0.3,0.2-0.5,0.6-0.5,1c0,0.3,0.2,0.7,0.5,0.9c0.3,0.2,0.9,0.4,1.9,0.6
		c0.8,0.1,1.5,0.4,2.2,0.7c0.5,0.2,0.9,0.6,1.2,1c0.3,0.4,0.4,0.9,0.4,1.5c0,0.9-0.4,1.8-1.2,2.3c-0.8,0.6-1.8,0.9-3.1,0.9
		c-0.8,0-1.6-0.1-2.3-0.5c-0.6-0.3-1.2-0.7-1.6-1.3c-0.4-0.5-0.6-1.1-0.6-1.8h2.3c0,0.5,0.2,1,0.6,1.3c0.5,0.3,1,0.5,1.6,0.5
		c0.6,0,1.1-0.1,1.4-0.4C523.6,193,523.8,192.7,523.8,192.3z"/>
	<path class="st35" d="M527.4,189.7c0-1,0.2-1.9,0.6-2.8c0.4-0.8,1-1.5,1.7-1.9c0.8-0.5,1.7-0.7,2.6-0.7c1.4,0,2.6,0.5,3.5,1.4
		s1.4,2.2,1.5,3.7l0,0.6c0,1-0.2,1.9-0.6,2.8c-0.4,0.8-1,1.5-1.7,1.9c-0.8,0.5-1.7,0.7-2.6,0.7c-1.5,0-2.7-0.5-3.6-1.5
		s-1.4-2.3-1.4-4L527.4,189.7z M529.8,190c0,1.1,0.2,2,0.7,2.6c0.4,0.6,1.1,1,1.9,0.9c0.7,0,1.5-0.3,1.9-0.9
		c0.4-0.6,0.7-1.6,0.7-2.8c0-1.1-0.2-1.9-0.7-2.6c-0.8-1-2.2-1.3-3.3-0.5c-0.2,0.1-0.3,0.3-0.5,0.5C530,187.8,529.8,188.7,529.8,190
		z"/>
	<path class="st35" d="M544.5,186.7c-0.3-0.1-0.6-0.1-1-0.1c-1.1,0-1.8,0.4-2.2,1.3v7.3h-2.4v-10.7h2.3l0.1,1.2
		c0.6-0.9,1.4-1.4,2.4-1.4c0.3,0,0.6,0,0.8,0.1L544.5,186.7z"/>
	<path class="st35" d="M554.5,189.1h-5.8v6.1h-2.5v-14.3h9.1v2h-6.6v4.3h5.8V189.1z"/>
	<path class="st35" d="M559.2,195.2h-2.4v-14.3h2.4V195.2z"/>
	<path class="st35" d="M561,189.7c0-1,0.2-1.9,0.6-2.8c0.4-0.8,1-1.5,1.7-1.9c0.8-0.5,1.7-0.7,2.6-0.7c1.4,0,2.6,0.5,3.5,1.4
		s1.4,2.2,1.5,3.7v0.6c0,1-0.2,1.9-0.6,2.8c-0.4,0.8-1,1.5-1.7,1.9c-0.8,0.5-1.7,0.7-2.6,0.7c-1.5,0-2.7-0.5-3.6-1.5s-1.3-2.3-1.3-4
		L561,189.7z M563.3,190c0,1.1,0.2,2,0.7,2.6c0.8,1,2.3,1.2,3.3,0.4c0.2-0.1,0.3-0.3,0.5-0.5c0.4-0.6,0.7-1.6,0.7-2.8
		c0-1.1-0.2-1.9-0.7-2.6c-0.4-0.6-1.1-1-1.9-0.9c-0.7,0-1.4,0.3-1.9,0.9C563.6,187.8,563.3,188.7,563.3,190z"/>
	<path class="st35" d="M581.6,191.9l1.7-7.3h2.3l-2.9,10.6h-2l-2.3-7.3l-2.2,7.3h-2l-2.9-10.6h2.3l1.7,7.3l2.2-7.3h1.8L581.6,191.9z
		"/>
</g>
<g>
	<path class="st36" d="M862.6,503.9l7.1,11.7c0,0,0,0.1,0,0.2c0,0.1-0.1,0.1-0.2,0c0,0,0,0,0,0l-9.2-9.6L862.6,503.9z"/>
	<path class="st37" d="M846.8,535.3c1.6-3.3,3.7-6.3,6.3-8.9c1-1,2-1.9,3.1-2.8v6.8L846.8,535.3z M841.4,541.6l14.8-7.5v17.3
		l3.3,4.3v-23.4l2-1c5-2.5,7-8.6,4.5-13.5c-0.4-0.9-1-1.7-1.7-2.4l-7.6-8c-0.6-0.7-0.6-1.8,0.1-2.4c0.7-0.6,1.8-0.6,2.4,0.1l1.1,1.1
		l2.3-2.2c-2.7-3.5-6-3.1-7.9-1.3c-2,1.8-2,4.9-0.2,6.9l7.7,8c2.6,2.8,2.4,7.1-0.3,9.7c-0.4,0.3-0.7,0.6-1.2,0.9l-1,0.5v-10.9
		C850.3,522.6,843.6,531.3,841.4,541.6L841.4,541.6z"/>
	<path class="st38" d="M859.6,532.3v3.5l-3.3,1.7V534L859.6,532.3z"/>
</g>
<g>
	<path class="st39" d="M604.7,610.2c0,0.7,0.1,1.3,0.2,1.8c0.2,0.4,0.4,0.9,0.6,1.4c0.1,0.2,0.1,0.3,0.1,0.5c0,0.2-0.1,0.4-0.4,0.6
		l-1.3,0.8c-0.2,0.1-0.4,0.2-0.5,0.2c-0.2,0-0.4-0.1-0.6-0.3c-0.3-0.3-0.5-0.6-0.7-0.9c-0.2-0.3-0.4-0.7-0.6-1.2
		c-1.6,1.8-3.5,2.8-5.9,2.8c-1.7,0-3-0.5-4-1.4c-1-1-1.5-2.2-1.5-3.9c0-1.7,0.6-3.1,1.8-4.1c1.2-1,2.8-1.6,4.9-1.6
		c0.7,0,1.4,0.1,2.1,0.2c0.7,0.1,1.5,0.3,2.3,0.4V604c0-1.5-0.3-2.6-0.9-3.2c-0.6-0.6-1.7-0.9-3.3-0.9c-0.7,0-1.4,0.1-2.2,0.3
		c-0.7,0.2-1.5,0.4-2.2,0.7c-0.3,0.1-0.6,0.2-0.7,0.3c-0.1,0-0.2,0.1-0.3,0.1c-0.3,0-0.4-0.2-0.4-0.6v-1c0-0.3,0-0.6,0.1-0.7
		c0.1-0.1,0.3-0.3,0.6-0.4c0.7-0.4,1.5-0.7,2.5-0.9c1-0.3,2-0.4,3.1-0.4c2.4,0,4.1,0.5,5.2,1.6c1.1,1.1,1.7,2.7,1.7,4.9V610.2z
		 M596.6,613.2c0.7,0,1.3-0.1,2.1-0.4c0.7-0.2,1.4-0.7,1.9-1.3c0.3-0.4,0.6-0.8,0.7-1.3c0.1-0.5,0.2-1.1,0.2-1.7v-0.8
		c-0.6-0.1-1.2-0.3-1.8-0.3c-0.6-0.1-1.3-0.1-1.9-0.1c-1.3,0-2.3,0.3-3,0.8c-0.7,0.5-1,1.3-1,2.3c0,0.9,0.2,1.6,0.7,2.1
		C594.9,613,595.6,613.2,596.6,613.2z M612.6,615.4c-0.4,0-0.6-0.1-0.8-0.2c-0.2-0.1-0.3-0.4-0.4-0.8l-4.7-15.5
		c-0.1-0.4-0.2-0.7-0.2-0.8c0-0.3,0.2-0.5,0.5-0.5h2c0.4,0,0.6,0.1,0.8,0.2c0.2,0.1,0.3,0.4,0.4,0.8l3.4,13.2l3.1-13.2
		c0.1-0.4,0.2-0.7,0.4-0.8c0.2-0.1,0.4-0.2,0.8-0.2h1.6c0.4,0,0.6,0.1,0.8,0.2c0.2,0.1,0.3,0.4,0.4,0.8l3.2,13.4l3.5-13.4
		c0.1-0.4,0.3-0.7,0.4-0.8c0.2-0.1,0.4-0.2,0.8-0.2h1.9c0.3,0,0.5,0.2,0.5,0.5c0,0.1,0,0.2,0,0.3c0,0.1-0.1,0.3-0.1,0.5l-4.8,15.5
		c-0.1,0.4-0.3,0.7-0.4,0.8c-0.2,0.1-0.4,0.2-0.8,0.2h-1.7c-0.4,0-0.6-0.1-0.8-0.2c-0.2-0.1-0.3-0.4-0.4-0.8l-3.1-12.9l-3.1,12.9
		c-0.1,0.4-0.2,0.7-0.4,0.8c-0.2,0.1-0.4,0.2-0.8,0.2H612.6z M638.3,615.9c-1.1,0-2.1-0.1-3.1-0.4c-1-0.2-1.8-0.5-2.3-0.8
		c-0.3-0.2-0.5-0.4-0.6-0.6c-0.1-0.2-0.1-0.4-0.1-0.6v-1c0-0.4,0.2-0.6,0.5-0.6c0.1,0,0.2,0,0.4,0.1c0.1,0,0.3,0.1,0.5,0.2
		c0.7,0.3,1.4,0.5,2.2,0.7c0.8,0.2,1.6,0.2,2.4,0.2c1.3,0,2.2-0.2,2.9-0.7c0.7-0.4,1-1.1,1-1.9c0-0.6-0.2-1-0.5-1.4
		c-0.4-0.4-1-0.7-2-1.1l-2.9-0.9c-1.5-0.5-2.5-1.1-3.2-2c-0.7-0.9-1-1.9-1-2.9c0-0.8,0.2-1.6,0.5-2.2c0.4-0.6,0.8-1.2,1.4-1.6
		c0.6-0.5,1.3-0.8,2.1-1c0.8-0.2,1.6-0.4,2.5-0.4c0.4,0,0.9,0,1.3,0.1c0.5,0.1,0.9,0.1,1.3,0.2c0.4,0.1,0.8,0.2,1.1,0.3
		c0.4,0.1,0.6,0.2,0.8,0.4c0.3,0.2,0.5,0.3,0.6,0.5c0.1,0.2,0.2,0.4,0.2,0.7v0.9c0,0.4-0.2,0.6-0.5,0.6c-0.2,0-0.4-0.1-0.8-0.2
		c-1.1-0.5-2.4-0.8-3.9-0.8c-1.1,0-2,0.2-2.7,0.6c-0.6,0.4-0.9,1-0.9,1.8c0,0.6,0.2,1,0.6,1.4c0.4,0.4,1.1,0.8,2.2,1.1l2.8,0.9
		c1.4,0.5,2.5,1.1,3.1,1.9c0.6,0.8,0.9,1.8,0.9,2.8c0,0.9-0.2,1.6-0.5,2.3c-0.4,0.7-0.8,1.3-1.5,1.8c-0.6,0.5-1.4,0.9-2.2,1.1
		C640.3,615.8,639.4,615.9,638.3,615.9z"/>
	<g>
		<path class="st40" d="M642.1,625.8c-6.6,4.9-16.1,7.4-24.4,7.4c-11.5,0-21.9-4.3-29.8-11.4c-0.6-0.6-0.1-1.3,0.7-0.9
			c8.5,4.9,19,7.9,29.8,7.9c7.3,0,15.3-1.5,22.7-4.6C642.3,623.8,643.2,625,642.1,625.8z"/>
		<path class="st40" d="M644.9,622.6c-0.8-1.1-5.6-0.5-7.7-0.3c-0.6,0.1-0.7-0.5-0.2-0.9c3.8-2.6,10-1.9,10.7-1
			c0.7,0.9-0.2,7.1-3.7,10c-0.5,0.5-1.1,0.2-0.8-0.4C643.9,628.2,645.7,623.7,644.9,622.6z"/>
	</g>
</g>
<g>
	<polygon class="st41" points="717.7,521.8 709.8,519.1 709.8,507.7 717.7,510 	"/>
	<polygon class="st41" points="719.8,510 727.7,507.7 727.7,519.1 719.8,521.8 	"/>
	<polygon class="st41" points="718.7,504.2 711.4,506.4 718.7,508.4 726.1,506.4 718.7,504.2 	"/>
	<polygon class="st41" points="737.7,521.8 729.8,519.1 729.8,507.7 737.7,510 	"/>
	<polygon class="st41" points="739.8,510 747.7,507.7 747.7,519.1 739.8,521.8 	"/>
	<polygon class="st41" points="738.7,504.2 731.4,506.4 738.7,508.4 746.1,506.4 738.7,504.2 	"/>
	<polygon class="st41" points="679.8,535.9 687.8,538.5 687.8,526.8 679.8,524.4 	"/>
	<polygon class="st41" points="689.8,526.8 697.8,524.4 697.7,535.9 689.8,538.5 	"/>
	<polygon class="st41" points="696.1,523.2 688.7,520.9 681.4,523.2 688.8,525.2 	"/>
	<polygon class="st41" points="707.7,538.5 699.8,535.9 699.8,524.4 707.8,526.8 	"/>
	<polygon class="st41" points="709.8,526.8 717.7,524.4 717.7,535.9 709.8,538.5 	"/>
	<polygon class="st41" points="716.1,523.2 708.7,520.9 701.4,523.2 708.7,525.2 	"/>
	<polygon class="st41" points="689.8,552.7 696.1,554.8 697.7,554.8 697.8,543.5 689.8,541.2 	"/>
	<polygon class="st41" points="699.8,543.5 699.8,554.8 701.4,554.8 707.7,552.6 707.8,541.2 	"/>
	<polygon class="st41" points="706.1,539.9 698.7,537.7 691.4,539.9 698.7,541.9 	"/>
</g>
<g>
	<path class="st16" d="M528.2,515.9c-0.3-0.9-1-1.7-1.9-2.1l-17.7-8.5c-0.5-0.2-1-0.3-1.4-0.3s-1,0-1.4,0.1l-17.7,8.5
		c-0.9,0.4-1.5,1.2-1.7,2.1l-4.3,19.1c-0.2,1,0.1,2,0.6,2.8l12.2,15.1c0.7,0.7,1.7,1.2,2.7,1.2H517c1,0.1,2-0.3,2.7-1.2l12.2-15.1
		c0.6-0.8,0.8-1.8,0.7-2.8L528.2,515.9z"/>
	<path class="st42" d="M528.2,515.9c-0.3-0.9-1-1.7-1.9-2.1l-17.7-8.5c-0.5-0.2-1-0.3-1.4-0.3s-1,0-1.4,0.1l-17.7,8.5
		c-0.9,0.4-1.5,1.2-1.7,2.1l-4.3,19.1c-0.2,1,0.1,2,0.6,2.8l12.2,15.1c0.7,0.7,1.7,1.2,2.7,1.2H517c1,0.1,2-0.3,2.7-1.2l12.2-15.1
		c0.6-0.8,0.8-1.8,0.7-2.8L528.2,515.9z"/>
	<path class="st16" d="M525.4,534.1L525.4,534.1c-0.1,0-0.1,0-0.1-0.1s-0.1-0.1-0.2-0.1c-0.2-0.1-0.5-0.1-0.7-0.1
		c-0.1,0-0.2,0-0.3-0.1H524c-0.6-0.1-1.3-0.2-2-0.3c-0.2-0.1-0.3-0.2-0.4-0.4c0.1,0,0,0,0,0l0,0l-0.5-0.1c0.2-1.7,0.1-3.4-0.2-5.1
		c-0.4-1.7-1.1-3.3-2-4.7l0.3-0.3l0,0v-0.1c0-0.2,0.1-0.4,0.2-0.5c0.5-0.5,1-0.8,1.6-1.2l0,0c0.1-0.1,0.2-0.1,0.3-0.2
		c0.2-0.1,0.4-0.2,0.6-0.3c0.1-0.1,0.1-0.1,0.2-0.1s0-0.1,0-0.1l0,0c0.5-0.4,0.6-1.1,0.2-1.6c-0.2-0.2-0.5-0.4-0.8-0.4
		s-0.6,0.1-0.8,0.3l0,0l-0.1,0.1c-0.1,0.1-0.1,0.1-0.2,0.1c-0.2,0.2-0.3,0.3-0.5,0.5c-0.1,0.1-0.2,0.2-0.2,0.2l0,0
		c-0.4,0.5-0.9,0.9-1.4,1.3c-0.1,0.1-0.2,0.1-0.3,0.1c-0.1,0-0.2,0-0.2-0.1h-0.1l-0.5,0.3c-0.5-0.5-1-0.9-1.4-1.4
		c-2.1-1.7-4.8-2.7-7.5-3l-0.1-0.5l0,0l0,0.1c-0.2-0.1-0.2-0.3-0.3-0.5c0-0.6,0-1.3,0.1-2v-0.1c0-0.1,0.1-0.2,0.1-0.3
		c0.1-0.2,0.1-0.5,0.1-0.7v-0.3l0,0c0.1-0.6-0.4-1.2-1-1.2c-0.3-0.1-0.7,0.1-1,0.4c-0.2,0.2-0.3,0.5-0.3,0.8l0,0v0.3
		c0,0.2,0.1,0.5,0.1,0.7c0.1,0.1,0.1,0.2,0.1,0.3v0.1c0.1,0.6,0.1,1.3,0.1,2c-0.1,0.2-0.1,0.3-0.3,0.5v0.1l0,0l-0.1,0.5
		c-0.6,0.1-1.3,0.2-2,0.3c-2.7,0.6-5.2,2-7.1,4.1l-0.3-0.2h-0.1c-0.1,0-0.1,0.1-0.2,0.1s-0.2-0.1-0.3-0.1c-0.5-0.4-1-0.9-1.4-1.3
		l0,0c-0.1-0.1-0.2-0.2-0.2-0.2c-0.2-0.2-0.3-0.3-0.5-0.5c-0.1-0.1-0.1-0.1-0.2-0.1s-0.1-0.1-0.1-0.1l0,0c-0.2-0.2-0.5-0.3-0.8-0.3
		c-0.3,0-0.6,0.1-0.8,0.4c-0.3,0.5-0.2,1.2,0.2,1.6l0,0c0.1,0,0.1,0.1,0.1,0.1s0.1,0.1,0.2,0.1c0.2,0.1,0.4,0.2,0.6,0.3
		c0.1,0.1,0.2,0.1,0.3,0.2l0,0c0.6,0.3,1.2,0.7,1.6,1.2c0.1,0.1,0.2,0.3,0.2,0.5v-0.1l0,0l0.3,0.3c-0.1,0.1-0.1,0.2-0.2,0.3
		c-1.8,2.8-2.5,6.2-2,9.5l-0.5,0.1l0,0c0,0.1-0.1,0.1-0.1,0.1c-0.1,0.2-0.2,0.3-0.4,0.4c-0.6,0.2-1.3,0.3-2,0.3l0,0
		c-0.1,0-0.2,0-0.3,0.1c-0.2,0-0.5,0.1-0.7,0.1c-0.1,0-0.1,0.1-0.2,0.1c-0.1,0-0.1,0-0.1,0.1l0,0c-0.6,0.1-1,0.7-0.9,1.3l0,0
		c0.1,0.5,0.6,0.9,1.2,0.8c0.1,0,0.2,0,0.3-0.1l0,0c0.1,0,0.1,0,0.1-0.1s0.2,0,0.2,0c0.2-0.1,0.5-0.2,0.6-0.2
		c0.1-0.1,0.2-0.1,0.3-0.1h0.1c0.6-0.2,1.2-0.4,1.9-0.5h0.1c0.2,0,0.3,0.1,0.5,0.2c0.1,0,0.1,0.1,0.1,0.1l0,0l0.5-0.1
		c0.9,2.7,2.5,5,4.7,6.8c0.5,0.4,1,0.8,1.6,1l-0.3,0.4l0,0c0,0.1,0.1,0.1,0.1,0.1c0.1,0.2,0.1,0.4,0.1,0.6c-0.2,0.6-0.6,1.2-0.9,1.7
		v0.1c-0.1,0.1-0.1,0.2-0.2,0.3s-0.2,0.3-0.4,0.6c-0.1,0.1-0.1,0.1-0.1,0.2c0,0,0,0.1-0.1,0.1l0,0c-0.3,0.6-0.1,1.3,0.5,1.6
		c0.1,0.1,0.3,0.1,0.4,0.1c0.5,0,0.9-0.3,1.1-0.7l0,0c0,0,0-0.1,0.1-0.1c0-0.1,0.1-0.1,0.1-0.2c0.1-0.2,0.2-0.4,0.2-0.6l0.1-0.3l0,0
		c0.2-0.6,0.5-1.2,0.8-1.8c0.1-0.2,0.3-0.3,0.5-0.3c0.1,0,0.1,0,0.1-0.1l0,0l0.2-0.5c1.6,0.6,3.3,0.9,5,0.9c1,0,2.1-0.1,3.1-0.4
		c0.6-0.1,1.3-0.3,1.9-0.5l0.2,0.4l0,0c0.1,0,0.1,0,0.1,0.1c0.2,0.1,0.3,0.2,0.5,0.3c0.3,0.6,0.6,1.2,0.8,1.8v0.1l0.1,0.3
		c0.1,0.2,0.1,0.5,0.2,0.6c0.1,0.1,0.1,0.1,0.1,0.2c0,0,0,0.1,0.1,0.1l0,0c0.2,0.4,0.6,0.7,1.1,0.7c0.2,0,0.3-0.1,0.5-0.1
		c0.2-0.1,0.5-0.3,0.5-0.6s0.1-0.6-0.1-0.9l0,0c0-0.1-0.1-0.1-0.1-0.1c0-0.1-0.1-0.1-0.1-0.2c-0.1-0.2-0.2-0.4-0.4-0.6
		c-0.1-0.1-0.1-0.2-0.2-0.3v-0.1c-0.4-0.5-0.7-1.1-0.9-1.7c-0.1-0.2-0.1-0.4,0.1-0.6c0-0.1,0.1-0.1,0.1-0.1l0,0l-0.2-0.5
		c3-1.8,5.2-4.6,6.3-7.9l0.5,0.1l0,0c0.1,0,0.1-0.1,0.1-0.1c0.1-0.1,0.3-0.2,0.5-0.2h0.1c0.6,0.1,1.3,0.3,1.9,0.5h0.1
		c0.1,0.1,0.2,0.1,0.3,0.1c0.2,0.1,0.4,0.2,0.6,0.3c0.1,0,0.1,0.1,0.2,0.1c0.1,0,0.1,0,0.1,0.1l0,0c0.1,0.1,0.2,0.1,0.3,0.1
		c0.5,0,1-0.3,1.2-0.8C526.4,534.6,526,534.2,525.4,534.1z M508.7,532.3l-1.6,0.8l-1.6-0.8l-0.4-1.7l1.1-1.4h1.7l1.1,1.4
		L508.7,532.3z M518.1,528.5c0.3,1.2,0.3,2.4,0.2,3.6l-5.5-1.6l0,0c-0.5-0.1-0.8-0.6-0.7-1.2c0.1-0.2,0.1-0.3,0.2-0.4l4.3-3.9
		C517.4,526.1,517.9,527.3,518.1,528.5z M515,522.9l-4.7,3.4c-0.4,0.2-1,0.2-1.3-0.2c-0.1-0.1-0.2-0.2-0.2-0.4l-0.3-5.9
		C511,520.1,513.3,521.2,515,522.9L515,522.9z M504.5,520l1.2-0.2l-0.3,5.8l0,0c0,0.5-0.5,0.9-1,0.9c-0.2,0-0.3-0.1-0.5-0.1
		l-4.8-3.4C500.7,521.5,502.5,520.4,504.5,520z M497.5,525.1l4.3,3.8l0,0c0.4,0.3,0.5,0.9,0.1,1.3c-0.1,0.2-0.2,0.2-0.5,0.3
		l-5.6,1.6C495.6,529.7,496.2,527.2,497.5,525.1z M496.5,534.9l5.7-1c0.5,0,0.9,0.3,1,0.8c0.1,0.2,0.1,0.4-0.1,0.6l0,0l-2.2,5.3
		C498.9,539.2,497.3,537.2,496.5,534.9z M509.6,542c-0.8,0.2-1.6,0.3-2.5,0.3c-1.2,0-2.5-0.2-3.6-0.6l2.8-5.2
		c0.3-0.3,0.8-0.5,1.2-0.2c0.2,0.1,0.3,0.2,0.5,0.4l0,0l2.8,5C510.4,541.9,510,541.9,509.6,542z M516.7,537
		c-0.9,1.4-2.1,2.6-3.5,3.5L511,535c-0.1-0.5,0.1-0.9,0.5-1.1c0.2-0.1,0.3-0.1,0.5-0.1l5.8,1C517.5,535.6,517.2,536.4,516.7,537z"/>
</g>
<g>
	<path class="st43" d="M699.6,597.4h17.7l8.9,15.4l-8.9,15.4h-17.7l-8.9-15.4L699.6,597.4"/>
	<path class="st16" d="M708.7,605.8c3.8,0,6.9,3.1,6.9,6.9c0,3.8-3.1,6.9-6.9,6.9c-3.8,0-6.9-3.1-6.9-6.9
		C701.8,608.9,704.9,605.8,708.7,605.8"/>
	<g transform="translate(25.207161, 0.000000)" class="st44">
		<path class="st45" d="M697.4,633.3l4.4-7.7c-0.6,0.3-1.2,0.6-1.8,0.6l-24.4,0l-7.7-13.3l-4.3,7.4c-0.3,0.5-0.4,1.3-0.4,2l6.4,11.1
			c0.5,0.9,1.9,1.7,3,1.7h21.9C695.6,635,696.9,634.3,697.4,633.3"/>
	</g>
	<g transform="translate(138.475703, 44.521739)" class="st44">
		<path class="st46" d="M595.1,569.9c0.5-0.9,0.5-2.5,0-3.4l-10.9-18.9c-0.5-0.9-1.9-1.7-3-1.7h-8.9c0.5,0.3,1,0.7,1.2,1.2l12,21.3
			l-7.6,13.4h8.8c0.6,0,1.2-0.2,1.8-0.6L595.1,569.9"/>
	</g>
	<g transform="translate(0.000000, 64.491049)" class="st44">
		<path class="st47" d="M701.1,534.9h15.4l-4.5-7.9c-0.3-0.5-0.7-0.9-1.2-1.2h-13c-1.1,0-2.4,0.8-3,1.7l-10.9,18.9
			c-0.5,0.9-0.5,2.5,0,3.4l4.5,7.9c-0.1-0.7,0.1-1.5,0.4-2L701.1,534.9"/>
	</g>
</g>
<g>
	<polygon class="st48" points="772.5,629.7 785.8,629.7 804.3,589 787.2,603.6 	"/>
	<polygon class="st48" points="785.3,634.8 829.9,634.8 806,592 798.9,612.9 812.8,629.8 	"/>
</g>
<g>
	<path class="st49" d="M816.2,531.1l-3.8,6.6l-2.7,4.6l-4.4,7.7c-0.6,0.9-1.9,1.7-3,1.7h-21.9c-1.1,0-2.4-0.8-3-1.7l-6.4-11.1
		l-4.6-7.9c-0.5-0.9-0.5-2.5,0-3.4l10.9-18.9c0.6-0.9,1.9-1.7,3-1.7h21.9c1.1,0,2.4,0.8,3,1.7l10.9,18.9
		C816.8,528.7,816.8,530.2,816.2,531.1z"/>
	<path class="st50" d="M812.4,537.8l-2.7,4.6l-4.4,7.7c-0.6,0.9-1.9,1.7-3,1.7h-2.9l-16.1-17l4.5-1.8l-4.5-4.5l16.7-3.9L812.4,537.8
		z"/>
	<g>
		<path class="st16" d="M799.5,524h-16.1c-0.3,0-0.5,0.2-0.5,0.5v3.4c0,0.3,0.2,0.5,0.5,0.5h16.1c0.3,0,0.5-0.2,0.5-0.5v-3.4
			C800,524.3,799.7,524,799.5,524z M797.3,527.1c-0.5,0-0.8-0.4-0.8-0.8s0.4-0.8,0.8-0.8s0.8,0.4,0.8,0.8S797.8,527.1,797.3,527.1z"
			/>
		<path class="st16" d="M799.5,530.4h-16.1c-0.3,0-0.5,0.2-0.5,0.5v3.4c0,0.3,0.2,0.5,0.5,0.5h16.1c0.3,0,0.5-0.2,0.5-0.5v-3.4
			C800,530.6,799.7,530.4,799.5,530.4z M797.3,533.5c-0.5,0-0.8-0.4-0.8-0.8s0.4-0.8,0.8-0.8s0.8,0.4,0.8,0.8
			S797.8,533.5,797.3,533.5z"/>
	</g>
</g>
<g>
	<line class="st51" x1="312.2" y1="574.4" x2="884.8" y2="574.4"/>
</g>
<line class="st51" x1="560.3" y1="574.4" x2="560.3" y2="497.5"/>
<g>
	<g>
		<line class="st52" x1="65.8" y1="209.8" x2="236.4" y2="209.8"/>
		<g>
			<polygon class="st15" points="233.4,220.2 251.3,209.8 233.4,199.5 			"/>
		</g>
	</g>
</g>
<g>
	<g>
		<line class="st52" x1="65.8" y1="542.1" x2="236.4" y2="542.1"/>
		<g>
			<polygon class="st15" points="233.4,552.5 251.3,542.1 233.4,531.8 			"/>
		</g>
	</g>
</g>
<g>
	<g>
		<line class="st52" x1="950.5" y1="209.8" x2="1121.2" y2="209.8"/>
		<g>
			<polygon class="st15" points="1118.1,220.2 1136.1,209.8 1118.1,199.5 			"/>
		</g>
	</g>
</g>
<g>
	<g>
		<line class="st52" x1="950.5" y1="542.1" x2="1121.2" y2="542.1"/>
		<g>
			<polygon class="st15" points="1118.1,552.5 1136.1,542.1 1118.1,531.8 			"/>
		</g>
	</g>
</g>
</svg>
