<svg width="16" height="16" xmlns="http://www.w3.org/2000/svg">
  <g>
    <path d="M8.013 0C12.415 0 16 3.585 16 8.013 16 12.415 12.415 16 8.013 16 3.585 16 0 12.415 0 8.013A8.01 8.01 0 018.013 0zM5.852 4.138h.184c.448 0 .817.37.817.818v6.088a.827.827 0 01-.817.844h-.184a.827.827 0 01-.817-.844V4.956c0-.449.369-.818.817-.818zm4.138 0h.185c.448 0 .817.37.817.818v6.088a.827.827 0 01-.817.844H9.99a.85.85 0 01-.843-.844V4.956c0-.449.395-.818.843-.818z" fill="#FFD256" fill-rule="evenodd"/>
  </g>
</svg>
