<svg width="16" height="16" xmlns="http://www.w3.org/2000/svg" xmlns:xlink="http://www.w3.org/1999/xlink"><defs><path d="M2.54549457.00000143C2.19120137.00174345 1.99768756.2939173 2 .52174336V15.4782624c0 .2731825.25990474.521739.54549457.521739H13.4545442c.2855898 0 .5454558-.2485565.5454558-.521739V3.3043446c.0003603-.13671302-.0582068-.272713-.1590937-.36956515L10.9318264.15217821c-.101245-.09650433-.2434336-.15250432-.3863621-.15217678H2.54549457zm.54545248 1.04348097h6.90906475v2.2608622c.0000301.28813658.2442199.52171022.5454525.52173903h2.3636274V14.9565233H3.09094705V1.0434824zm7.99996975.73370421l1.0511323 1.00541895h-1.0511323V1.77718661zM8.00001937 5.91303978c-.30123522 0-.54545248.23358256-.54545248.52173903V8.3478289H5.45457446c-.3012534 0-.54545248.23359996-.54545248.52173904 0 .28813908.24419908.52173903.54545248.52173903h1.99999243v1.91304313c0 .2881564.24421726.521739.54545248.521739s.54545248-.2335826.54545248-.521739V9.39130697h1.99999245c.3012352 0 .5454525-.23359995.5454525-.52173903s-.2442173-.52173904-.5454525-.52173904H8.54547185V6.43477881c0-.28815647-.24421726-.52173903-.54545248-.52173903z" id="a"/></defs><g fill="none" fill-rule="evenodd"><mask id="b" fill="#fff"><use xlink:href="#a"/></mask><use fill="#272728" fill-rule="nonzero" xlink:href="#a"/><g mask="url(#b)" fill="#582F6B"><path d="M0 0h16v16H0z"/></g></g></svg>