<svg width="16" height="16" xmlns="http://www.w3.org/2000/svg"><path d="M8.013 0C3.587 0 0 3.582 0 8s3.587 8 8.013 8h.011c4.312 0 7.965-3.635 7.976-7.944C16.014 3.633 12.443.031 8.013 0zm3.37 13.38a5.973 5.973 0 01-3.347.979 6.322 6.322 0 01-4.304-1.665 6.378 6.378 0 01-2.045-3.97 6.21 6.21 0 01.924-4.088l.344-.533 8.942 8.921-.514.355zm1.893-1.59l-.36.518L3.691 3.08l.517-.36a6.321 6.321 0 014.09-1.054 6.58 6.58 0 016.038 6.065 6.29 6.29 0 01-1.061 4.059z" fill="#868686" fill-rule="nonzero"/></svg>