<?xml version="1.0" encoding="UTF-8"?>
<svg width="150px" height="121px" viewBox="0 0 150 121" version="1.1" xmlns="http://www.w3.org/2000/svg" xmlns:xlink="http://www.w3.org/1999/xlink">
    <title>no access</title>
    <g id="Wireframes" stroke="none" stroke-width="1" fill="none" fill-rule="evenodd">
        <g id="Access-Control" transform="translate(-442.000000, -723.000000)">
            <g id="Group-4" transform="translate(257.000000, 86.000000)">
                <g id="no-access" transform="translate(185.400000, 637.200000)">
                    <path d="M74.2780784,0.9 C64.5699738,0.9 56.7,8.75740264 56.7,18.45 C56.7,28.1425974 64.5699738,36 74.2780784,36 L74.3026877,36 C83.7632096,36 91.7752977,28.02528 91.8,18.57285 C91.8311264,8.86930268 83.9969647,0.967617982 74.2780784,0.9 Z M81.6705319,30.2505966 C79.4922171,31.6808876 76.9358252,32.4290293 74.3289895,32.399138 C74.056439,32.399138 73.7838884,32.3910651 73.5113378,32.3749194 C70.302405,32.2002051 67.2540241,30.9172378 64.8878838,28.7455797 C62.3911227,26.4769503 60.7979926,23.3848009 60.4011932,20.0372404 C60.0171341,16.9038112 60.7334557,13.7343678 62.4279994,11.0694154 L63.1832878,9.9 L82.8,29.4721396 L81.6705319,30.2505966 Z M85.8242857,26.7638724 L85.0333365,27.9 L64.8,7.65627163 L65.9329813,6.86561229 C68.5697403,5.08952353 71.737112,4.2734509 74.9041983,4.55418025 C81.9964731,5.12050208 87.6185465,10.7677232 88.1508166,17.860051 C88.4171814,21.0066592 87.595993,24.1494134 85.8242857,26.7638724 Z" id="Shape" fill="#868686" fill-rule="nonzero"></path>
                </g>
            </g>
        </g>
    </g>
</svg>
