<svg width="22" height="25" xmlns="http://www.w3.org/2000/svg"><path d="M19.411 2.678a2.25 2.25 0 00-2.246 2.247c0 .432.115.835.345 1.18l-2.85 2.247a3.978 3.978 0 00-2.967-1.325c-1.066 0-2.016.432-2.736 1.095L4.694 4.176c.317-.432.519-.922.519-1.498A2.477 2.477 0 002.736.202 2.495 2.495 0 00.259 2.678a2.495 2.495 0 002.477 2.477c.634 0 1.21-.23 1.642-.633L8.61 8.467c-.576.691-.893 1.555-.893 2.535 0 1.41.72 2.62 1.815 3.34L6.97 18.864a3.005 3.005 0 00-1.239-.288 2.993 2.993 0 00-2.995 2.995 2.993 2.993 0 002.995 2.995A2.944 2.944 0 008.698 21.6c0-1.037-.519-1.93-1.296-2.477l2.563-4.521c.518.259 1.123.403 1.728.403.835 0 1.613-.26 2.246-.691l2.103 2.678c-.23.26-.404.605-.404 1.008 0 .835.663 1.498 1.498 1.498s1.498-.663 1.498-1.498-.663-1.498-1.498-1.498c-.26 0-.49.058-.72.173l-2.131-2.707a3.978 3.978 0 001.325-2.966c0-.836-.26-1.613-.72-2.276l2.85-2.246c.404.403.98.662 1.585.662a2.25 2.25 0 002.246-2.246c0-1.238-.921-2.218-2.16-2.218z" fill="#DF686C" fill-rule="nonzero"/></svg>
