<svg version="1.1" viewBox="100.0 100.0 775.0 320.0" fill="none" stroke="none" stroke-linecap="square" stroke-miterlimit="10" xmlns:xlink="http://www.w3.org/1999/xlink" xmlns="http://www.w3.org/2000/svg"><clipPath id="p.0"><path d="m0 0l1024.0 0l0 768.0l-1024.0 0l0 -768.0z" clip-rule="nonzero"/></clipPath><g clip-path="url(#p.0)"><path fill="#000000" fill-opacity="0.0" d="m0 0l1024.0 0l0 768.0l-1024.0 0z" fill-rule="evenodd"/><path fill="#000000" fill-opacity="0.0" d="m696.6521 149.08455l0 0c0 -15.562851 12.61615 -28.179039 28.179016 -28.179039l112.71283 0l0 0c7.4735107 0 14.640991 2.9688568 19.925537 8.253456c5.284607 5.2845917 8.253479 12.452042 8.253479 19.925583l0 237.94115c0 15.562836 -12.616211 28.179016 -28.179016 28.179016l-112.71283 0c-15.562866 0 -28.179016 -12.61618 -28.179016 -28.179016z" fill-rule="evenodd"/><path stroke="#666666" stroke-width="1.0" stroke-linejoin="round" stroke-linecap="butt" d="m696.6521 149.08455l0 0c0 -15.562851 12.61615 -28.179039 28.179016 -28.179039l112.71283 0l0 0c7.4735107 0 14.640991 2.9688568 19.925537 8.253456c5.284607 5.2845917 8.253479 12.452042 8.253479 19.925583l0 237.94115c0 15.562836 -12.616211 28.179016 -28.179016 28.179016l-112.71283 0c-15.562866 0 -28.179016 -12.61618 -28.179016 -28.179016z" fill-rule="evenodd"/><path fill="#000000" fill-opacity="0.0" d="m490.937 150.0977l0 0c0 -16.122406 13.069794 -29.192192 29.1922 -29.192192l116.7652 0l0 0c7.7422485 0 15.167419 3.0755997 20.642029 8.550194c5.4746094 5.474594 8.550171 12.89975 8.550171 20.641998l0 235.91484c0 16.122406 -13.069763 29.19217 -29.1922 29.19217l-116.7652 0c-16.122406 0 -29.1922 -13.069763 -29.1922 -29.19217z" fill-rule="evenodd"/><path stroke="#666666" stroke-width="1.0" stroke-linejoin="round" stroke-linecap="butt" d="m490.937 150.0977l0 0c0 -16.122406 13.069794 -29.192192 29.1922 -29.192192l116.7652 0l0 0c7.7422485 0 15.167419 3.0755997 20.642029 8.550194c5.4746094 5.474594 8.550171 12.89975 8.550171 20.641998l0 235.91484c0 16.122406 -13.069763 29.19217 -29.1922 29.19217l-116.7652 0c-16.122406 0 -29.1922 -13.069763 -29.1922 -29.19217z" fill-rule="evenodd"/><path fill="#000000" fill-opacity="0.0" d="m123.115486 145.63255l0 0c0 -9.329605 7.5631332 -16.89273 16.892723 -16.89273l311.94684 0c4.4802246 0 8.776947 1.7797699 11.944946 4.947769c3.1679993 3.1679993 4.9477844 7.4647217 4.9477844 11.944962l0 67.56888c0 9.32959 -7.563141 16.892715 -16.89273 16.892715l-311.94684 0c-9.32959 0 -16.892723 -7.5631256 -16.892723 -16.892715z" fill-rule="evenodd"/><path stroke="#666666" stroke-width="1.0" stroke-linejoin="round" stroke-linecap="butt" d="m123.115486 145.63255l0 0c0 -9.329605 7.5631332 -16.89273 16.892723 -16.89273l311.94684 0c4.4802246 0 8.776947 1.7797699 11.944946 4.947769c3.1679993 3.1679993 4.9477844 7.4647217 4.9477844 11.944962l0 67.56888c0 9.32959 -7.563141 16.892715 -16.89273 16.892715l-311.94684 0c-9.32959 0 -16.892723 -7.5631256 -16.892723 -16.892715z" fill-rule="evenodd"/><path fill="#d9d2e9" d="m719.3858 338.32895l0 0c0 -6.894623 27.656738 -12.483795 61.77301 -12.483795c34.116272 0 61.77295 5.5891724 61.77295 12.483795l0 49.935272c0 6.894623 -27.656677 12.483795 -61.77295 12.483795c-34.116272 0 -61.77301 -5.5891724 -61.77301 -12.483795z" fill-rule="evenodd"/><path fill="#000000" fill-opacity="0.0" d="m842.93176 338.32895l0 0c0 6.894623 -27.656677 12.483826 -61.77295 12.483826c-34.116272 0 -61.77301 -5.589203 -61.77301 -12.483826" fill-rule="evenodd"/><path fill="#000000" fill-opacity="0.0" d="m719.3858 338.32895l0 0c0 -6.894623 27.656738 -12.483795 61.77301 -12.483795c34.116272 0 61.77295 5.5891724 61.77295 12.483795l0 49.935272c0 6.894623 -27.656677 12.483795 -61.77295 12.483795c-34.116272 0 -61.77301 -5.5891724 -61.77301 -12.483795z" fill-rule="evenodd"/><path stroke="#000000" stroke-width="1.0" stroke-linejoin="round" stroke-linecap="butt" d="m842.93176 338.32895l0 0c0 6.894623 -27.656677 12.483826 -61.77295 12.483826c-34.116272 0 -61.77301 -5.589203 -61.77301 -12.483826" fill-rule="evenodd"/><path stroke="#000000" stroke-width="1.0" stroke-linejoin="round" stroke-linecap="butt" d="m719.3858 338.32895l0 0c0 -6.894623 27.656738 -12.483795 61.77301 -12.483795c34.116272 0 61.77295 5.5891724 61.77295 12.483795l0 49.935272c0 6.894623 -27.656677 12.483795 -61.77295 12.483795c-34.116272 0 -61.77301 -5.5891724 -61.77301 -12.483795z" fill-rule="evenodd"/><path fill="#000000" d="m753.92834 365.8985l0 -11.453125l4.328125 0q1.140625 0 1.734375 0.109375q0.84375 0.140625 1.40625 0.53125q0.578125 0.390625 0.921875 1.109375q0.359375 0.703125 0.359375 1.5625q0 1.453125 -0.9375 2.46875q-0.921875 1.015625 -3.359375 1.015625l-2.9375 0l0 4.65625l-1.515625 0zm1.515625 -6.015625l2.96875 0q1.46875 0 2.078125 -0.546875q0.625 -0.546875 0.625 -1.53125q0 -0.71875 -0.375 -1.234375q-0.359375 -0.515625 -0.953125 -0.671875q-0.375 -0.109375 -1.40625 -0.109375l-2.9375 0l0 4.09375zm8.984375 -3.828125l0 -1.609375l1.40625 0l0 1.609375l-1.40625 0zm0 9.84375l0 -8.296875l1.40625 0l0 8.296875l-1.40625 0zm3.5546875 3.1875l0 -11.484375l1.28125 0l0 1.078125q0.453125 -0.640625 1.015625 -0.953125q0.578125 -0.3125 1.390625 -0.3125q1.0625 0 1.875 0.546875q0.8125 0.546875 1.21875 1.546875q0.421875 0.984375 0.421875 2.171875q0 1.28125 -0.46875 2.296875q-0.453125 1.015625 -1.328125 1.5625q-0.859375 0.546875 -1.828125 0.546875q-0.703125 0 -1.265625 -0.296875q-0.546875 -0.296875 -0.90625 -0.75l0 4.046875l-1.40625 0zm1.265625 -7.296875q0 1.609375 0.640625 2.375q0.65625 0.765625 1.578125 0.765625q0.9375 0 1.609375 -0.796875q0.671875 -0.796875 0.671875 -2.453125q0 -1.59375 -0.65625 -2.375q-0.65625 -0.796875 -1.5625 -0.796875q-0.890625 0 -1.59375 0.84375q-0.6875 0.84375 -0.6875 2.4375zm13.3046875 1.4375l1.453125 0.171875q-0.34375 1.28125 -1.28125 1.984375q-0.921875 0.703125 -2.359375 0.703125q-1.828125 0 -2.890625 -1.125q-1.0625 -1.125 -1.0625 -3.140625q0 -2.09375 1.078125 -3.25q1.078125 -1.15625 2.796875 -1.15625q1.65625 0 2.703125 1.140625q1.0625 1.125 1.0625 3.171875q0 0.125 0 0.375l-6.1875 0q0.078125 1.375 0.765625 2.109375q0.703125 0.71875 1.734375 0.71875q0.78125 0 1.328125 -0.40625q0.546875 -0.40625 0.859375 -1.296875zm-4.609375 -2.28125l4.625 0q-0.09375 -1.046875 -0.53125 -1.5625q-0.671875 -0.8125 -1.734375 -0.8125q-0.96875 0 -1.640625 0.65625q-0.65625 0.640625 -0.71875 1.71875zm7.8046875 4.953125l0 -11.453125l1.40625 0l0 11.453125l-1.40625 0zm3.5859375 -9.84375l0 -1.609375l1.40625 0l0 1.609375l-1.40625 0zm0 9.84375l0 -8.296875l1.40625 0l0 8.296875l-1.40625 0zm3.5546875 0l0 -8.296875l1.265625 0l0 1.171875q0.90625 -1.359375 2.640625 -1.359375q0.75 0 1.375 0.265625q0.625 0.265625 0.9375 0.703125q0.3125 0.4375 0.4375 1.046875q0.078125 0.390625 0.078125 1.359375l0 5.109375l-1.40625 0l0 -5.046875q0 -0.859375 -0.171875 -1.28125q-0.15625 -0.4375 -0.578125 -0.6875q-0.40625 -0.25 -0.96875 -0.25q-0.90625 0 -1.5625 0.578125q-0.640625 0.5625 -0.640625 2.15625l0 4.53125l-1.40625 0zm14.5703125 -2.671875l1.453125 0.171875q-0.34375 1.28125 -1.28125 1.984375q-0.921875 0.703125 -2.359375 0.703125q-1.828125 0 -2.890625 -1.125q-1.0625 -1.125 -1.0625 -3.140625q0 -2.09375 1.078125 -3.25q1.078125 -1.15625 2.796875 -1.15625q1.65625 0 2.703125 1.140625q1.0625 1.125 1.0625 3.171875q0 0.125 0 0.375l-6.1875 0q0.078125 1.375 0.765625 2.109375q0.703125 0.71875 1.734375 0.71875q0.78125 0 1.328125 -0.40625q0.546875 -0.40625 0.859375 -1.296875zm-4.609375 -2.28125l4.625 0q-0.09375 -1.046875 -0.53125 -1.5625q-0.671875 -0.8125 -1.734375 -0.8125q-0.96875 0 -1.640625 0.65625q-0.65625 0.640625 -0.71875 1.71875z" fill-rule="nonzero"/><path fill="#000000" d="m757.92444 379.32037q0 -2.859375 1.53125 -4.46875q1.53125 -1.609375 3.953125 -1.609375q1.578125 0 2.84375 0.765625q1.28125 0.75 1.953125 2.109375q0.671875 1.34375 0.671875 3.0625q0 1.75 -0.703125 3.125q-0.703125 1.375 -2.0 2.09375q-1.28125 0.703125 -2.78125 0.703125q-1.609375 0 -2.890625 -0.78125q-1.265625 -0.796875 -1.921875 -2.140625q-0.65625 -1.359375 -0.65625 -2.859375zm1.5625 0.015625q0 2.078125 1.109375 3.265625q1.109375 1.1875 2.796875 1.1875q1.703125 0 2.8125 -1.203125q1.109375 -1.203125 1.109375 -3.40625q0 -1.40625 -0.484375 -2.4375q-0.46875 -1.046875 -1.375 -1.625q-0.90625 -0.578125 -2.046875 -0.578125q-1.609375 0 -2.765625 1.109375q-1.15625 1.109375 -1.15625 3.6875zm16.601562 5.5625l0 -1.21875q-0.96875 1.40625 -2.640625 1.40625q-0.734375 0 -1.375 -0.28125q-0.625 -0.28125 -0.9375 -0.703125q-0.3125 -0.4375 -0.4375 -1.046875q-0.078125 -0.421875 -0.078125 -1.3125l0 -5.140625l1.40625 0l0 4.59375q0 1.109375 0.078125 1.484375q0.140625 0.5625 0.5625 0.875q0.4375 0.3125 1.0625 0.3125q0.640625 0 1.1875 -0.3125q0.5625 -0.328125 0.78125 -0.890625q0.234375 -0.5625 0.234375 -1.625l0 -4.4375l1.40625 0l0 8.296875l-1.25 0zm6.5234375 -1.265625l0.203125 1.25q-0.59375 0.125 -1.0625 0.125q-0.765625 0 -1.1875 -0.234375q-0.421875 -0.25 -0.59375 -0.640625q-0.171875 -0.40625 -0.171875 -1.671875l0 -4.765625l-1.03125 0l0 -1.09375l1.03125 0l0 -2.0625l1.40625 -0.84375l0 2.90625l1.40625 0l0 1.09375l-1.40625 0l0 4.84375q0 0.609375 0.0625 0.78125q0.078125 0.171875 0.25 0.28125q0.171875 0.09375 0.484375 0.09375q0.234375 0 0.609375 -0.0625zm1.3828125 4.453125l0 -11.484375l1.28125 0l0 1.078125q0.453125 -0.640625 1.015625 -0.953125q0.578125 -0.3125 1.390625 -0.3125q1.0625 0 1.875 0.546875q0.8125 0.546875 1.21875 1.546875q0.421875 0.984375 0.421875 2.171875q0 1.28125 -0.46875 2.296875q-0.453125 1.015625 -1.328125 1.5625q-0.859375 0.546875 -1.828125 0.546875q-0.703125 0 -1.265625 -0.296875q-0.546875 -0.296875 -0.90625 -0.75l0 4.046875l-1.40625 0zm1.265625 -7.296875q0 1.609375 0.640625 2.375q0.65625 0.765625 1.578125 0.765625q0.9375 0 1.609375 -0.796875q0.671875 -0.796875 0.671875 -2.453125q0 -1.59375 -0.65625 -2.375q-0.65625 -0.796875 -1.5625 -0.796875q-0.890625 0 -1.59375 0.84375q-0.6875 0.84375 -0.6875 2.4375zm13.0703125 4.109375l0 -1.21875q-0.96875 1.40625 -2.640625 1.40625q-0.734375 0 -1.375 -0.28125q-0.625 -0.28125 -0.9375 -0.703125q-0.3125 -0.4375 -0.4375 -1.046875q-0.078125 -0.421875 -0.078125 -1.3125l0 -5.140625l1.40625 0l0 4.59375q0 1.109375 0.078125 1.484375q0.140625 0.5625 0.5625 0.875q0.4375 0.3125 1.0625 0.3125q0.640625 0 1.1875 -0.3125q0.5625 -0.328125 0.78125 -0.890625q0.234375 -0.5625 0.234375 -1.625l0 -4.4375l1.40625 0l0 8.296875l-1.25 0zm6.5234375 -1.265625l0.203125 1.25q-0.59375 0.125 -1.0625 0.125q-0.765625 0 -1.1875 -0.234375q-0.421875 -0.25 -0.59375 -0.640625q-0.171875 -0.40625 -0.171875 -1.671875l0 -4.765625l-1.03125 0l0 -1.09375l1.03125 0l0 -2.0625l1.40625 -0.84375l0 2.90625l1.40625 0l0 1.09375l-1.40625 0l0 4.84375q0 0.609375 0.0625 0.78125q0.078125 0.171875 0.25 0.28125q0.171875 0.09375 0.484375 0.09375q0.234375 0 0.609375 -0.0625z" fill-rule="nonzero"/><path fill="#d5a6bd" d="m732.07086 244.72966l98.17322 0l0 53.16536l-98.17322 0z" fill-rule="evenodd"/><path stroke="#000000" stroke-width="1.0" stroke-linejoin="round" stroke-linecap="butt" d="m732.07086 244.72966l98.17322 0l0 53.16536l-98.17322 0z" fill-rule="evenodd"/><path fill="#000000" d="m754.637 256.9692q2.140625 0 3.359375 1.03125q1.21875 1.015625 1.21875 2.8125q0 1.796875 -1.21875 2.8125q-1.21875 1.015625 -3.359375 1.015625l-3.0 0l0 3.53125l-1.1875 0l0 -11.203125l4.1875 0zm-0.03125 6.625q1.65625 0 2.53125 -0.71875q0.890625 -0.734375 0.890625 -2.0625q0 -1.359375 -0.890625 -2.078125q-0.875 -0.734375 -2.53125 -0.734375l-2.96875 0l0 5.59375l2.96875 0zm6.713806 -3.84375l1.140625 0l0 8.421875l-1.140625 0l0 -8.421875zm0.578125 -1.828125q-0.359375 0 -0.59375 -0.234375q-0.234375 -0.25 -0.234375 -0.59375q0 -0.3125 0.234375 -0.546875q0.234375 -0.25 0.59375 -0.25q0.34375 0 0.578125 0.234375q0.25 0.234375 0.25 0.546875q0 0.359375 -0.25 0.609375q-0.234375 0.234375 -0.578125 0.234375zm8.069641 1.765625q1.1875 0 2.140625 0.546875q0.96875 0.53125 1.5 1.515625q0.546875 0.96875 0.546875 2.21875q0 1.265625 -0.546875 2.25q-0.53125 0.96875 -1.484375 1.5q-0.953125 0.53125 -2.15625 0.53125q-1.03125 0 -1.859375 -0.421875q-0.8125 -0.421875 -1.34375 -1.234375l0 4.6875l-1.140625 0l0 -11.53125l1.09375 0l0 1.671875q0.515625 -0.828125 1.34375 -1.28125q0.84375 -0.453125 1.90625 -0.453125zm-0.078125 7.5625q0.875 0 1.59375 -0.40625q0.71875 -0.421875 1.125 -1.171875q0.40625 -0.75 0.40625 -1.703125q0 -0.96875 -0.40625 -1.703125q-0.40625 -0.75 -1.125 -1.15625q-0.71875 -0.421875 -1.59375 -0.421875q-0.90625 0 -1.625 0.421875q-0.703125 0.40625 -1.109375 1.15625q-0.40625 0.734375 -0.40625 1.703125q0 0.953125 0.40625 1.703125q0.40625 0.75 1.109375 1.171875q0.71875 0.40625 1.625 0.40625zm13.910522 -2.9375l-7.03125 0q0.09375 1.3125 1.0 2.125q0.921875 0.8125 2.3125 0.8125q0.78125 0 1.4375 -0.28125q0.65625 -0.28125 1.140625 -0.828125l0.640625 0.734375q-0.5625 0.671875 -1.40625 1.03125q-0.84375 0.34375 -1.84375 0.34375q-1.296875 0 -2.296875 -0.546875q-1.0 -0.5625 -1.5625 -1.53125q-0.5625 -0.96875 -0.5625 -2.203125q0 -1.234375 0.53125 -2.203125q0.546875 -0.984375 1.484375 -1.53125q0.9375 -0.546875 2.09375 -0.546875q1.171875 0 2.09375 0.546875q0.9375 0.546875 1.453125 1.515625q0.53125 0.96875 0.53125 2.21875l-0.015625 0.34375zm-4.0625 -3.640625q-1.21875 0 -2.046875 0.78125q-0.8125 0.765625 -0.921875 2.015625l5.96875 0q-0.109375 -1.25 -0.9375 -2.015625q-0.828125 -0.78125 -2.0625 -0.78125zm6.3983765 -4.375l1.140625 0l0 11.875l-1.140625 0l0 -11.875zm4.304016 3.453125l1.140625 0l0 8.421875l-1.140625 0l0 -8.421875zm0.578125 -1.828125q-0.359375 0 -0.59375 -0.234375q-0.234375 -0.25 -0.234375 -0.59375q0 -0.3125 0.234375 -0.546875q0.234375 -0.25 0.59375 -0.25q0.34375 0 0.578125 0.234375q0.25 0.234375 0.25 0.546875q0 0.359375 -0.25 0.609375q-0.234375 0.234375 -0.578125 0.234375zm8.022766 1.765625q1.578125 0 2.515625 0.921875q0.9375 0.921875 0.9375 2.6875l0 4.875l-1.140625 0l0 -4.765625q0 -1.3125 -0.65625 -2.0q-0.65625 -0.6875 -1.875 -0.6875q-1.359375 0 -2.15625 0.8125q-0.78125 0.796875 -0.78125 2.21875l0 4.421875l-1.140625 0l0 -8.421875l1.09375 0l0 1.5625q0.46875 -0.765625 1.28125 -1.1875q0.828125 -0.4375 1.921875 -0.4375zm13.895264 4.625l-7.03125 0q0.09375 1.3125 1.0 2.125q0.921875 0.8125 2.3125 0.8125q0.78125 0 1.4375 -0.28125q0.65625 -0.28125 1.140625 -0.828125l0.640625 0.734375q-0.5625 0.671875 -1.40625 1.03125q-0.84375 0.34375 -1.84375 0.34375q-1.296875 0 -2.296875 -0.546875q-1.0 -0.5625 -1.5625 -1.53125q-0.5625 -0.96875 -0.5625 -2.203125q0 -1.234375 0.53125 -2.203125q0.546875 -0.984375 1.484375 -1.53125q0.9375 -0.546875 2.09375 -0.546875q1.171875 0 2.09375 0.546875q0.9375 0.546875 1.453125 1.515625q0.53125 0.96875 0.53125 2.21875l-0.015625 0.34375zm-4.0625 -3.640625q-1.21875 0 -2.046875 0.78125q-0.8125 0.765625 -0.921875 2.015625l5.96875 0q-0.109375 -1.25 -0.9375 -2.015625q-0.828125 -0.78125 -2.0625 -0.78125z" fill-rule="nonzero"/><path fill="#000000" d="m756.9324 288.73608q-0.8125 -1.34375 -1.25 -3.09375q-0.4375 -1.765625 -0.4375 -3.765625q0 -2.015625 0.4375 -3.78125q0.4375 -1.765625 1.25 -3.078125l1.0 0q-0.859375 1.484375 -1.265625 3.1875q-0.40625 1.6875 -0.40625 3.671875q0 1.984375 0.40625 3.6875q0.40625 1.6875 1.265625 3.171875l-1.0 0zm9.712585 -5.578125l-5.71875 0l-1.234375 2.734375l-1.125 0l4.6875 -10.265625l1.078125 0l4.6875 10.265625l-1.140625 0l-1.234375 -2.734375zm-0.40625 -0.890625l-2.453125 -5.5l-2.46875 5.5l4.921875 0zm7.3727417 3.703125q-1.140625 0 -2.046875 -0.5q-0.890625 -0.5 -1.40625 -1.390625q-0.515625 -0.90625 -0.515625 -2.046875q0 -1.125 0.515625 -2.015625q0.515625 -0.890625 1.40625 -1.390625q0.90625 -0.5 2.046875 -0.5q1.0 0 1.78125 0.390625q0.78125 0.390625 1.25 1.125l-0.78125 0.53125q-0.390625 -0.5625 -0.984375 -0.84375q-0.578125 -0.296875 -1.265625 -0.296875q-0.828125 0 -1.5 0.375q-0.65625 0.375 -1.03125 1.0625q-0.375 0.6875 -0.375 1.5625q0 0.90625 0.375 1.59375q0.375 0.671875 1.03125 1.046875q0.671875 0.375 1.5 0.375q0.6875 0 1.265625 -0.28125q0.59375 -0.28125 0.984375 -0.859375l0.78125 0.53125q-0.46875 0.75 -1.265625 1.140625q-0.78125 0.390625 -1.765625 0.390625zm9.214478 -0.546875q-0.296875 0.265625 -0.734375 0.40625q-0.421875 0.140625 -0.890625 0.140625q-1.09375 0 -1.6875 -0.578125q-0.578125 -0.59375 -0.578125 -1.671875l0 -4.65625l-1.375 0l0 -0.875l1.375 0l0 -1.6875l1.046875 0l0 1.6875l2.34375 0l0 0.875l-2.34375 0l0 4.59375q0 0.703125 0.34375 1.0625q0.34375 0.34375 0.984375 0.34375q0.328125 0 0.625 -0.09375q0.296875 -0.109375 0.515625 -0.296875l0.375 0.75zm1.8879395 -7.234375l1.03125 0l0 7.703125l-1.03125 0l0 -7.703125zm0.53125 -1.6875q-0.328125 0 -0.546875 -0.21875q-0.21875 -0.21875 -0.21875 -0.53125q0 -0.296875 0.21875 -0.515625q0.21875 -0.21875 0.546875 -0.21875q0.3125 0 0.53125 0.21875q0.21875 0.203125 0.21875 0.5q0 0.328125 -0.21875 0.546875q-0.21875 0.21875 -0.53125 0.21875zm9.880066 1.6875l-3.421875 7.703125l-1.078125 0l-3.40625 -7.703125l1.078125 0l2.890625 6.5625l2.921875 -6.5625l1.015625 0zm7.958069 4.171875l-6.4375 0q0.078125 1.203125 0.90625 1.953125q0.84375 0.734375 2.125 0.734375q0.71875 0 1.3125 -0.25q0.609375 -0.265625 1.046875 -0.765625l0.578125 0.671875q-0.5 0.609375 -1.28125 0.9375q-0.765625 0.328125 -1.6875 0.328125q-1.1875 0 -2.109375 -0.5q-0.90625 -0.515625 -1.421875 -1.40625q-0.515625 -0.890625 -0.515625 -2.03125q0 -1.125 0.484375 -2.015625q0.5 -0.890625 1.359375 -1.390625q0.859375 -0.5 1.921875 -0.5q1.078125 0 1.921875 0.5q0.84375 0.5 1.328125 1.390625q0.484375 0.875 0.484375 2.015625l-0.015625 0.328125zm-3.71875 -3.34375q-1.109375 0 -1.875 0.71875q-0.75 0.703125 -0.84375 1.84375l5.46875 0q-0.109375 -1.140625 -0.875 -1.84375q-0.75 -0.71875 -1.875 -0.71875zm5.008667 9.71875q0.859375 -1.484375 1.265625 -3.171875q0.40625 -1.6875 0.40625 -3.6875q0 -2.0 -0.40625 -3.6875q-0.40625 -1.6875 -1.265625 -3.171875l0.984375 0q0.828125 1.3125 1.265625 3.078125q0.453125 1.765625 0.453125 3.78125q0 2.0 -0.4375 3.765625q-0.4375 1.765625 -1.28125 3.09375l-0.984375 0z" fill-rule="nonzero"/><path fill="#000000" fill-opacity="0.0" d="m781.1575 193.1076l0 51.622055" fill-rule="evenodd"/><path stroke="#000000" stroke-width="2.0" stroke-linejoin="round" stroke-linecap="butt" d="m781.1575 193.1076l0 39.622055" fill-rule="evenodd"/><path fill="#000000" stroke="#000000" stroke-width="2.0" stroke-linecap="butt" d="m777.854 232.72966l3.3034668 9.076187l3.3034668 -9.076187z" fill-rule="evenodd"/><path fill="#cfe2f3" d="m135.17586 166.39911l0 0c0 -4.2821045 3.4713287 -7.753433 7.753433 -7.753433l118.44589 0c2.0563354 0 4.0284424 0.816864 5.482483 2.2709198c1.454071 1.4540558 2.270935 3.426178 2.270935 5.4825134l0 31.012802c0 4.2821045 -3.4713135 7.7534485 -7.753418 7.7534485l-118.44589 0c-4.2821045 0 -7.753433 -3.471344 -7.753433 -7.7534485z" fill-rule="evenodd"/><path stroke="#000000" stroke-width="1.0" stroke-linejoin="round" stroke-linecap="butt" d="m135.17586 166.39911l0 0c0 -4.2821045 3.4713287 -7.753433 7.753433 -7.753433l118.44589 0c2.0563354 0 4.0284424 0.816864 5.482483 2.2709198c1.454071 1.4540558 2.270935 3.426178 2.270935 5.4825134l0 31.012802c0 4.2821045 -3.4713135 7.7534485 -7.753418 7.7534485l-118.44589 0c-4.2821045 0 -7.753433 -3.471344 -7.753433 -7.7534485z" fill-rule="evenodd"/><path fill="#000000" d="m174.58727 176.5624l-3.78125 11.203125l-1.25 0l-3.28125 -9.546875l-3.296875 9.546875l-1.21875 0l-3.78125 -11.203125l1.21875 0l3.234375 9.640625l3.34375 -9.640625l1.09375 0l3.296875 9.6875l3.28125 -9.6875l1.140625 0zm2.684784 4.4375q0.40625 -0.84375 1.1875 -1.28125q0.796875 -0.4375 1.96875 -0.4375l0 1.109375l-0.28125 -0.015625q-1.328125 0 -2.078125 0.8125q-0.75 0.8125 -0.75 2.296875l0 4.28125l-1.140625 0l0 -8.421875l1.09375 0l0 1.65625zm5.1942596 -1.65625l1.140625 0l0 8.421875l-1.140625 0l0 -8.421875zm0.578125 -1.828125q-0.359375 0 -0.59375 -0.234375q-0.234375 -0.25 -0.234375 -0.59375q0 -0.3125 0.234375 -0.546875q0.234375 -0.25 0.59375 -0.25q0.34375 0 0.578125 0.234375q0.25 0.234375 0.25 0.546875q0 0.359375 -0.25 0.609375q-0.234375 0.234375 -0.578125 0.234375zm8.163391 9.734375q-0.3125 0.296875 -0.796875 0.453125q-0.46875 0.140625 -0.984375 0.140625q-1.171875 0 -1.8125 -0.640625q-0.640625 -0.640625 -0.640625 -1.8125l0 -5.078125l-1.515625 0l0 -0.96875l1.515625 0l0 -1.828125l1.125 0l0 1.828125l2.5625 0l0 0.96875l-2.5625 0l0 5.015625q0 0.75 0.375 1.15625q0.375 0.390625 1.09375 0.390625q0.34375 0 0.671875 -0.109375q0.328125 -0.125 0.5625 -0.328125l0.40625 0.8125zm9.082642 -3.34375l-7.03125 0q0.09375 1.3125 1.0 2.125q0.921875 0.8125 2.3125 0.8125q0.78125 0 1.4375 -0.28125q0.65625 -0.28125 1.140625 -0.828125l0.640625 0.734375q-0.5625 0.671875 -1.40625 1.03125q-0.84375 0.34375 -1.84375 0.34375q-1.296875 0 -2.296875 -0.546875q-1.0 -0.5625 -1.5625 -1.53125q-0.5625 -0.96875 -0.5625 -2.203125q0 -1.234375 0.53125 -2.203125q0.546875 -0.984375 1.484375 -1.53125q0.9375 -0.546875 2.09375 -0.546875q1.171875 0 2.09375 0.546875q0.9375 0.546875 1.453125 1.515625q0.53125 0.96875 0.53125 2.21875l-0.015625 0.34375zm-4.0625 -3.640625q-1.21875 0 -2.046875 0.78125q-0.8125 0.765625 -0.921875 2.015625l5.96875 0q-0.109375 -1.25 -0.9375 -2.015625q-0.828125 -0.78125 -2.0625 -0.78125zm15.699768 7.59375q-1.65625 0 -3.0 -0.734375q-1.328125 -0.734375 -2.09375 -2.03125q-0.765625 -1.3125 -0.765625 -2.921875q0 -1.625 0.765625 -2.921875q0.765625 -1.3125 2.109375 -2.046875q1.34375 -0.734375 3.0 -0.734375q1.25 0 2.296875 0.421875q1.0625 0.40625 1.796875 1.21875l-0.75 0.75q-1.3125 -1.328125 -3.3125 -1.328125q-1.328125 0 -2.421875 0.609375q-1.078125 0.59375 -1.703125 1.65625q-0.609375 1.0625 -0.609375 2.375q0 1.3125 0.609375 2.375q0.625 1.046875 1.703125 1.65625q1.09375 0.609375 2.421875 0.609375q2.015625 0 3.3125 -1.34375l0.75 0.75q-0.734375 0.796875 -1.796875 1.21875q-1.0625 0.421875 -2.3125 0.421875zm9.479782 -0.015625q-1.21875 0 -2.203125 -0.546875q-0.96875 -0.5625 -1.53125 -1.53125q-0.5625 -0.96875 -0.5625 -2.203125q0 -1.234375 0.5625 -2.203125q0.5625 -0.984375 1.53125 -1.53125q0.984375 -0.546875 2.203125 -0.546875q1.203125 0 2.171875 0.546875q0.984375 0.546875 1.53125 1.53125q0.5625 0.96875 0.5625 2.203125q0 1.234375 -0.5625 2.203125q-0.546875 0.96875 -1.53125 1.53125q-0.96875 0.546875 -2.171875 0.546875zm0 -1.0q0.890625 0 1.59375 -0.40625q0.71875 -0.421875 1.109375 -1.171875q0.40625 -0.75 0.40625 -1.703125q0 -0.96875 -0.40625 -1.71875q-0.390625 -0.75 -1.109375 -1.15625q-0.703125 -0.40625 -1.59375 -0.40625q-0.90625 0 -1.625 0.40625q-0.703125 0.40625 -1.109375 1.15625q-0.40625 0.75 -0.40625 1.71875q0 0.953125 0.40625 1.703125q0.40625 0.75 1.109375 1.171875q0.71875 0.40625 1.625 0.40625zm14.266388 -10.953125l0 11.875l-1.09375 0l0 -1.65625q-0.515625 0.84375 -1.359375 1.296875q-0.828125 0.4375 -1.890625 0.4375q-1.171875 0 -2.140625 -0.546875q-0.953125 -0.546875 -1.5 -1.515625q-0.546875 -0.96875 -0.546875 -2.21875q0 -1.25 0.546875 -2.21875q0.546875 -0.984375 1.5 -1.515625q0.96875 -0.546875 2.140625 -0.546875q1.03125 0 1.84375 0.4375q0.828125 0.421875 1.359375 1.234375l0 -5.0625l1.140625 0zm-4.234375 10.953125q0.875 0 1.578125 -0.40625q0.71875 -0.421875 1.125 -1.171875q0.40625 -0.75 0.40625 -1.703125q0 -0.96875 -0.40625 -1.71875q-0.40625 -0.75 -1.125 -1.15625q-0.703125 -0.40625 -1.578125 -0.40625q-0.90625 0 -1.625 0.40625q-0.703125 0.40625 -1.109375 1.15625q-0.40625 0.75 -0.40625 1.71875q0 0.953125 0.40625 1.703125q0.40625 0.75 1.109375 1.171875q0.71875 0.40625 1.625 0.40625zm14.723022 -2.9375l-7.03125 0q0.09375 1.3125 1.0 2.125q0.921875 0.8125 2.3125 0.8125q0.78125 0 1.4375 -0.28125q0.65625 -0.28125 1.140625 -0.828125l0.640625 0.734375q-0.5625 0.671875 -1.40625 1.03125q-0.84375 0.34375 -1.84375 0.34375q-1.296875 0 -2.296875 -0.546875q-1.0 -0.5625 -1.5625 -1.53125q-0.5625 -0.96875 -0.5625 -2.203125q0 -1.234375 0.53125 -2.203125q0.546875 -0.984375 1.484375 -1.53125q0.9375 -0.546875 2.09375 -0.546875q1.171875 0 2.09375 0.546875q0.9375 0.546875 1.453125 1.515625q0.53125 0.96875 0.53125 2.21875l-0.015625 0.34375zm-4.0625 -3.640625q-1.21875 0 -2.046875 0.78125q-0.8125 0.765625 -0.921875 2.015625l5.96875 0q-0.109375 -1.25 -0.9375 -2.015625q-0.828125 -0.78125 -2.0625 -0.78125z" fill-rule="nonzero"/><path fill="#000000" fill-opacity="0.0" d="m117.444885 152.36089l33.732285 0l0 24.97638l-33.732285 0z" fill-rule="evenodd"/><path fill="#000000" d="m130.14801 160.96283l0 8.40625l-1.9375 0l0 -6.84375l-1.6875 0l0 -1.5625l3.625 0z" fill-rule="nonzero"/><path fill="#000000" fill-opacity="0.0" d="m781.1575 297.89502l0 27.937012" fill-rule="evenodd"/><path stroke="#000000" stroke-width="2.0" stroke-linejoin="round" stroke-linecap="butt" d="m781.1575 297.89502l0 15.937012" fill-rule="evenodd"/><path fill="#000000" stroke="#000000" stroke-width="2.0" stroke-linecap="butt" d="m777.854 313.83203l3.3034668 9.076172l3.3034668 -9.076172z" fill-rule="evenodd"/><path fill="#d9d2e9" d="m719.6063 159.06036l0 0c0 -6.308502 27.656677 -11.422562 61.77295 -11.422562c34.116272 0 61.77295 5.1140594 61.77295 11.422562l0 45.690292c0 6.3085175 -27.656677 11.422577 -61.77295 11.422577c-34.116272 0 -61.77295 -5.1140594 -61.77295 -11.422577z" fill-rule="evenodd"/><path fill="#000000" fill-opacity="0.0" d="m843.1522 159.06036l0 0c0 6.3085175 -27.656677 11.422577 -61.77295 11.422577c-34.116272 0 -61.77295 -5.1140594 -61.77295 -11.422577" fill-rule="evenodd"/><path fill="#000000" fill-opacity="0.0" d="m719.6063 159.06036l0 0c0 -6.308502 27.656677 -11.422562 61.77295 -11.422562c34.116272 0 61.77295 5.1140594 61.77295 11.422562l0 45.690292c0 6.3085175 -27.656677 11.422577 -61.77295 11.422577c-34.116272 0 -61.77295 -5.1140594 -61.77295 -11.422577z" fill-rule="evenodd"/><path stroke="#000000" stroke-width="1.0" stroke-linejoin="round" stroke-linecap="butt" d="m843.1522 159.06036l0 0c0 6.3085175 -27.656677 11.422577 -61.77295 11.422577c-34.116272 0 -61.77295 -5.1140594 -61.77295 -11.422577" fill-rule="evenodd"/><path stroke="#000000" stroke-width="1.0" stroke-linejoin="round" stroke-linecap="butt" d="m719.6063 159.06036l0 0c0 -6.308502 27.656677 -11.422562 61.77295 -11.422562c34.116272 0 61.77295 5.1140594 61.77295 11.422562l0 45.690292c0 6.3085175 -27.656677 11.422577 -61.77295 11.422577c-34.116272 0 -61.77295 -5.1140594 -61.77295 -11.422577z" fill-rule="evenodd"/><path fill="#000000" d="m745.9652 193.47679l0 -11.453125l1.515625 0l0 11.453125l-1.515625 0zm4.0078125 0l0 -8.296875l1.265625 0l0 1.171875q0.90625 -1.359375 2.640625 -1.359375q0.75 0 1.375 0.265625q0.625 0.265625 0.9375 0.703125q0.3125 0.4375 0.4375 1.046875q0.078125 0.390625 0.078125 1.359375l0 5.109375l-1.40625 0l0 -5.046875q0 -0.859375 -0.171875 -1.28125q-0.15625 -0.4375 -0.578125 -0.6875q-0.40625 -0.25 -0.96875 -0.25q-0.90625 0 -1.5625 0.578125q-0.640625 0.5625 -0.640625 2.15625l0 4.53125l-1.40625 0zm8.8984375 3.1875l0 -11.484375l1.28125 0l0 1.078125q0.453125 -0.640625 1.015625 -0.953125q0.578125 -0.3125 1.390625 -0.3125q1.0625 0 1.875 0.546875q0.8125 0.546875 1.21875 1.546875q0.421875 0.984375 0.421875 2.171875q0 1.28125 -0.46875 2.296875q-0.453125 1.015625 -1.328125 1.5625q-0.859375 0.546875 -1.828125 0.546875q-0.703125 0 -1.265625 -0.296875q-0.546875 -0.296875 -0.90625 -0.75l0 4.046875l-1.40625 0zm1.265625 -7.296875q0 1.609375 0.640625 2.375q0.65625 0.765625 1.578125 0.765625q0.9375 0 1.609375 -0.796875q0.671875 -0.796875 0.671875 -2.453125q0 -1.59375 -0.65625 -2.375q-0.65625 -0.796875 -1.5625 -0.796875q-0.890625 0 -1.59375 0.84375q-0.6875 0.84375 -0.6875 2.4375zm13.0703125 4.109375l0 -1.21875q-0.96875 1.40625 -2.640625 1.40625q-0.734375 0 -1.375 -0.28125q-0.625 -0.28125 -0.9375 -0.703125q-0.3125 -0.4375 -0.4375 -1.046875q-0.078125 -0.421875 -0.078125 -1.3125l0 -5.140625l1.40625 0l0 4.59375q0 1.109375 0.078125 1.484375q0.140625 0.5625 0.5625 0.875q0.4375 0.3125 1.0625 0.3125q0.640625 0 1.1875 -0.3125q0.5625 -0.328125 0.78125 -0.890625q0.234375 -0.5625 0.234375 -1.625l0 -4.4375l1.40625 0l0 8.296875l-1.25 0zm6.5234375 -1.265625l0.203125 1.25q-0.59375 0.125 -1.0625 0.125q-0.765625 0 -1.1875 -0.234375q-0.421875 -0.25 -0.59375 -0.640625q-0.171875 -0.40625 -0.171875 -1.671875l0 -4.765625l-1.03125 0l0 -1.09375l1.03125 0l0 -2.0625l1.40625 -0.84375l0 2.90625l1.40625 0l0 1.09375l-1.40625 0l0 4.84375q0 0.609375 0.0625 0.78125q0.078125 0.171875 0.25 0.28125q0.171875 0.09375 0.484375 0.09375q0.234375 0 0.609375 -0.0625zm6.0 1.265625l0 -11.453125l3.953125 0q1.328125 0 2.03125 0.15625q0.984375 0.234375 1.6875 0.828125q0.90625 0.765625 1.34375 1.953125q0.453125 1.1875 0.453125 2.71875q0 1.3125 -0.3125 2.328125q-0.296875 1.0 -0.78125 1.65625q-0.46875 0.65625 -1.03125 1.046875q-0.5625 0.375 -1.375 0.578125q-0.796875 0.1875 -1.828125 0.1875l-4.140625 0zm1.515625 -1.359375l2.453125 0q1.125 0 1.765625 -0.203125q0.65625 -0.21875 1.03125 -0.59375q0.546875 -0.546875 0.84375 -1.453125q0.296875 -0.90625 0.296875 -2.203125q0 -1.796875 -0.59375 -2.765625q-0.578125 -0.96875 -1.421875 -1.296875q-0.609375 -0.234375 -1.96875 -0.234375l-2.40625 0l0 8.75zm15.2734375 0.328125q-0.78125 0.671875 -1.5 0.953125q-0.71875 0.265625 -1.546875 0.265625q-1.375 0 -2.109375 -0.671875q-0.734375 -0.671875 -0.734375 -1.703125q0 -0.609375 0.28125 -1.109375q0.28125 -0.515625 0.71875 -0.8125q0.453125 -0.3125 1.015625 -0.46875q0.421875 -0.109375 1.25 -0.203125q1.703125 -0.203125 2.515625 -0.484375q0 -0.296875 0 -0.375q0 -0.859375 -0.390625 -1.203125q-0.546875 -0.484375 -1.609375 -0.484375q-0.984375 0 -1.46875 0.359375q-0.46875 0.34375 -0.6875 1.21875l-1.375 -0.1875q0.1875 -0.875 0.609375 -1.421875q0.4375 -0.546875 1.25 -0.828125q0.8125 -0.296875 1.875 -0.296875q1.0625 0 1.71875 0.25q0.671875 0.25 0.984375 0.625q0.3125 0.375 0.4375 0.953125q0.078125 0.359375 0.078125 1.296875l0 1.875q0 1.96875 0.078125 2.484375q0.09375 0.515625 0.359375 1.0l-1.46875 0q-0.21875 -0.4375 -0.28125 -1.03125zm-0.109375 -3.140625q-0.765625 0.3125 -2.296875 0.53125q-0.875 0.125 -1.234375 0.28125q-0.359375 0.15625 -0.5625 0.46875q-0.1875 0.296875 -0.1875 0.65625q0 0.5625 0.421875 0.9375q0.4375 0.375 1.25 0.375q0.8125 0 1.4375 -0.34375q0.640625 -0.359375 0.9375 -0.984375q0.234375 -0.46875 0.234375 -1.40625l0 -0.515625zm6.6640625 2.90625l0.203125 1.25q-0.59375 0.125 -1.0625 0.125q-0.765625 0 -1.1875 -0.234375q-0.421875 -0.25 -0.59375 -0.640625q-0.171875 -0.40625 -0.171875 -1.671875l0 -4.765625l-1.03125 0l0 -1.09375l1.03125 0l0 -2.0625l1.40625 -0.84375l0 2.90625l1.40625 0l0 1.09375l-1.40625 0l0 4.84375q0 0.609375 0.0625 0.78125q0.078125 0.171875 0.25 0.28125q0.171875 0.09375 0.484375 0.09375q0.234375 0 0.609375 -0.0625zm6.7890625 0.234375q-0.78125 0.671875 -1.5 0.953125q-0.71875 0.265625 -1.546875 0.265625q-1.375 0 -2.109375 -0.671875q-0.734375 -0.671875 -0.734375 -1.703125q0 -0.609375 0.28125 -1.109375q0.28125 -0.515625 0.71875 -0.8125q0.453125 -0.3125 1.015625 -0.46875q0.421875 -0.109375 1.25 -0.203125q1.703125 -0.203125 2.515625 -0.484375q0 -0.296875 0 -0.375q0 -0.859375 -0.390625 -1.203125q-0.546875 -0.484375 -1.609375 -0.484375q-0.984375 0 -1.46875 0.359375q-0.46875 0.34375 -0.6875 1.21875l-1.375 -0.1875q0.1875 -0.875 0.609375 -1.421875q0.4375 -0.546875 1.25 -0.828125q0.8125 -0.296875 1.875 -0.296875q1.0625 0 1.71875 0.25q0.671875 0.25 0.984375 0.625q0.3125 0.375 0.4375 0.953125q0.078125 0.359375 0.078125 1.296875l0 1.875q0 1.96875 0.078125 2.484375q0.09375 0.515625 0.359375 1.0l-1.46875 0q-0.21875 -0.4375 -0.28125 -1.03125zm-0.109375 -3.140625q-0.765625 0.3125 -2.296875 0.53125q-0.875 0.125 -1.234375 0.28125q-0.359375 0.15625 -0.5625 0.46875q-0.1875 0.296875 -0.1875 0.65625q0 0.5625 0.421875 0.9375q0.4375 0.375 1.25 0.375q0.8125 0 1.4375 -0.34375q0.640625 -0.359375 0.9375 -0.984375q0.234375 -0.46875 0.234375 -1.40625l0 -0.515625z" fill-rule="nonzero"/><path fill="#d9d2e9" d="m518.28345 159.06036l0 0c0 -6.308502 27.656738 -11.422562 61.77301 -11.422562c34.11621 0 61.77295 5.1140594 61.77295 11.422562l0 45.690292c0 6.3085175 -27.656738 11.422577 -61.77295 11.422577c-34.116272 0 -61.77301 -5.1140594 -61.77301 -11.422577z" fill-rule="evenodd"/><path fill="#000000" fill-opacity="0.0" d="m641.8294 159.06036l0 0c0 6.3085175 -27.656738 11.422577 -61.77295 11.422577c-34.116272 0 -61.77301 -5.1140594 -61.77301 -11.422577" fill-rule="evenodd"/><path fill="#000000" fill-opacity="0.0" d="m518.28345 159.06036l0 0c0 -6.308502 27.656738 -11.422562 61.77301 -11.422562c34.11621 0 61.77295 5.1140594 61.77295 11.422562l0 45.690292c0 6.3085175 -27.656738 11.422577 -61.77295 11.422577c-34.116272 0 -61.77301 -5.1140594 -61.77301 -11.422577z" fill-rule="evenodd"/><path stroke="#000000" stroke-width="1.0" stroke-linejoin="round" stroke-linecap="butt" d="m641.8294 159.06036l0 0c0 6.3085175 -27.656738 11.422577 -61.77295 11.422577c-34.116272 0 -61.77301 -5.1140594 -61.77301 -11.422577" fill-rule="evenodd"/><path stroke="#000000" stroke-width="1.0" stroke-linejoin="round" stroke-linecap="butt" d="m518.28345 159.06036l0 0c0 -6.308502 27.656738 -11.422562 61.77301 -11.422562c34.11621 0 61.77295 5.1140594 61.77295 11.422562l0 45.690292c0 6.3085175 -27.656738 11.422577 -61.77295 11.422577c-34.116272 0 -61.77301 -5.1140594 -61.77301 -11.422577z" fill-rule="evenodd"/><path fill="#000000" d="m534.0799 189.78929l1.4375 -0.125q0.09375 0.859375 0.46875 1.421875q0.375 0.546875 1.15625 0.890625q0.78125 0.328125 1.75 0.328125q0.875 0 1.53125 -0.25q0.671875 -0.265625 0.984375 -0.703125q0.328125 -0.453125 0.328125 -0.984375q0 -0.546875 -0.3125 -0.9375q-0.3125 -0.40625 -1.03125 -0.6875q-0.453125 -0.171875 -2.03125 -0.546875q-1.578125 -0.390625 -2.21875 -0.71875q-0.8125 -0.4375 -1.21875 -1.0625q-0.40625 -0.640625 -0.40625 -1.4375q0 -0.859375 0.484375 -1.609375q0.5 -0.765625 1.4375 -1.15625q0.953125 -0.390625 2.109375 -0.390625q1.28125 0 2.25 0.421875q0.96875 0.40625 1.484375 1.203125q0.53125 0.796875 0.578125 1.796875l-1.453125 0.109375q-0.125 -1.078125 -0.796875 -1.625q-0.671875 -0.5625 -2.0 -0.5625q-1.375 0 -2.0 0.5q-0.625 0.5 -0.625 1.21875q0 0.609375 0.4375 1.015625q0.4375 0.390625 2.28125 0.8125q1.859375 0.421875 2.546875 0.734375q1.0 0.453125 1.46875 1.171875q0.484375 0.703125 0.484375 1.625q0 0.90625 -0.53125 1.71875q-0.515625 0.8125 -1.5 1.265625q-0.984375 0.453125 -2.203125 0.453125q-1.5625 0 -2.609375 -0.453125q-1.046875 -0.46875 -1.65625 -1.375q-0.59375 -0.90625 -0.625 -2.0625zm10.484375 -0.46875q0 -2.296875 1.28125 -3.40625q1.078125 -0.921875 2.609375 -0.921875q1.71875 0 2.796875 1.125q1.09375 1.109375 1.09375 3.09375q0 1.59375 -0.484375 2.515625q-0.484375 0.921875 -1.40625 1.4375q-0.90625 0.5 -2.0 0.5q-1.734375 0 -2.8125 -1.109375q-1.078125 -1.125 -1.078125 -3.234375zm1.453125 0q0 1.59375 0.6875 2.390625q0.703125 0.796875 1.75 0.796875q1.046875 0 1.734375 -0.796875q0.703125 -0.796875 0.703125 -2.4375q0 -1.53125 -0.703125 -2.328125q-0.6875 -0.796875 -1.734375 -0.796875q-1.046875 0 -1.75 0.796875q-0.6875 0.78125 -0.6875 2.375zm13.4140625 4.15625l0 -1.21875q-0.96875 1.40625 -2.640625 1.40625q-0.734375 0 -1.375 -0.28125q-0.625 -0.28125 -0.9375 -0.703125q-0.3125 -0.4375 -0.4375 -1.046875q-0.078125 -0.421875 -0.078125 -1.3125l0 -5.140625l1.40625 0l0 4.59375q0 1.109375 0.078125 1.484375q0.140625 0.5625 0.5625 0.875q0.4375 0.3125 1.0625 0.3125q0.640625 0 1.1875 -0.3125q0.5625 -0.328125 0.78125 -0.890625q0.234375 -0.5625 0.234375 -1.625l0 -4.4375l1.40625 0l0 8.296875l-1.25 0zm3.4453125 0l0 -8.296875l1.265625 0l0 1.25q0.484375 -0.875 0.890625 -1.15625q0.40625 -0.28125 0.90625 -0.28125q0.703125 0 1.4375 0.453125l-0.484375 1.296875q-0.515625 -0.296875 -1.03125 -0.296875q-0.453125 0 -0.828125 0.28125q-0.359375 0.265625 -0.515625 0.765625q-0.234375 0.75 -0.234375 1.640625l0 4.34375l-1.40625 0zm10.75 -3.046875l1.390625 0.1875q-0.234375 1.421875 -1.171875 2.234375q-0.921875 0.8125 -2.28125 0.8125q-1.703125 0 -2.75 -1.109375q-1.03125 -1.125 -1.03125 -3.203125q0 -1.34375 0.4375 -2.34375q0.453125 -1.015625 1.359375 -1.515625q0.921875 -0.5 1.984375 -0.5q1.359375 0 2.21875 0.6875q0.859375 0.671875 1.09375 1.9375l-1.359375 0.203125q-0.203125 -0.828125 -0.703125 -1.25q-0.484375 -0.421875 -1.1875 -0.421875q-1.0625 0 -1.734375 0.765625q-0.65625 0.75 -0.65625 2.40625q0 1.671875 0.640625 2.4375q0.640625 0.75 1.671875 0.75q0.828125 0 1.375 -0.5q0.5625 -0.515625 0.703125 -1.578125zm8.265625 0.375l1.453125 0.171875q-0.34375 1.28125 -1.28125 1.984375q-0.921875 0.703125 -2.359375 0.703125q-1.828125 0 -2.890625 -1.125q-1.0625 -1.125 -1.0625 -3.140625q0 -2.09375 1.078125 -3.25q1.078125 -1.15625 2.796875 -1.15625q1.65625 0 2.703125 1.140625q1.0625 1.125 1.0625 3.171875q0 0.125 0 0.375l-6.1875 0q0.078125 1.375 0.765625 2.109375q0.703125 0.71875 1.734375 0.71875q0.78125 0 1.328125 -0.40625q0.546875 -0.40625 0.859375 -1.296875zm-4.609375 -2.28125l4.625 0q-0.09375 -1.046875 -0.53125 -1.5625q-0.671875 -0.8125 -1.734375 -0.8125q-0.96875 0 -1.640625 0.65625q-0.65625 0.640625 -0.71875 1.71875zm20.625 0.9375l1.515625 0.375q-0.46875 1.875 -1.71875 2.859375q-1.234375 0.984375 -3.015625 0.984375q-1.859375 0 -3.015625 -0.75q-1.15625 -0.765625 -1.765625 -2.1875q-0.609375 -1.4375 -0.609375 -3.078125q0 -1.796875 0.6875 -3.125q0.6875 -1.328125 1.9375 -2.015625q1.265625 -0.703125 2.78125 -0.703125q1.71875 0 2.890625 0.875q1.171875 0.875 1.640625 2.46875l-1.5 0.34375q-0.390625 -1.25 -1.15625 -1.8125q-0.75 -0.578125 -1.90625 -0.578125q-1.3125 0 -2.203125 0.640625q-0.890625 0.625 -1.25 1.703125q-0.359375 1.0625 -0.359375 2.1875q0 1.46875 0.421875 2.5625q0.4375 1.078125 1.328125 1.625q0.90625 0.53125 1.953125 0.53125q1.265625 0 2.140625 -0.734375q0.890625 -0.734375 1.203125 -2.171875zm2.6796875 -0.140625q0 -2.296875 1.28125 -3.40625q1.078125 -0.921875 2.609375 -0.921875q1.71875 0 2.796875 1.125q1.09375 1.109375 1.09375 3.09375q0 1.59375 -0.484375 2.515625q-0.484375 0.921875 -1.40625 1.4375q-0.90625 0.5 -2.0 0.5q-1.734375 0 -2.8125 -1.109375q-1.078125 -1.125 -1.078125 -3.234375zm1.453125 0q0 1.59375 0.6875 2.390625q0.703125 0.796875 1.75 0.796875q1.046875 0 1.734375 -0.796875q0.703125 -0.796875 0.703125 -2.4375q0 -1.53125 -0.703125 -2.328125q-0.6875 -0.796875 -1.734375 -0.796875q-1.046875 0 -1.75 0.796875q-0.6875 0.78125 -0.6875 2.375zm13.3515625 4.15625l0 -1.046875q-0.78125 1.234375 -2.3125 1.234375q-1.0 0 -1.828125 -0.546875q-0.828125 -0.546875 -1.296875 -1.53125q-0.453125 -0.984375 -0.453125 -2.25q0 -1.25 0.40625 -2.25q0.421875 -1.015625 1.25 -1.546875q0.828125 -0.546875 1.859375 -0.546875q0.75 0 1.328125 0.3125q0.59375 0.3125 0.953125 0.828125l0 -4.109375l1.40625 0l0 11.453125l-1.3125 0zm-4.4375 -4.140625q0 1.59375 0.671875 2.390625q0.671875 0.78125 1.578125 0.78125q0.921875 0 1.5625 -0.75q0.65625 -0.765625 0.65625 -2.3125q0 -1.703125 -0.65625 -2.5q-0.65625 -0.796875 -1.625 -0.796875q-0.9375 0 -1.5625 0.765625q-0.625 0.765625 -0.625 2.421875zm13.6328125 1.46875l1.453125 0.171875q-0.34375 1.28125 -1.28125 1.984375q-0.921875 0.703125 -2.359375 0.703125q-1.828125 0 -2.890625 -1.125q-1.0625 -1.125 -1.0625 -3.140625q0 -2.09375 1.078125 -3.25q1.078125 -1.15625 2.796875 -1.15625q1.65625 0 2.703125 1.140625q1.0625 1.125 1.0625 3.171875q0 0.125 0 0.375l-6.1875 0q0.078125 1.375 0.765625 2.109375q0.703125 0.71875 1.734375 0.71875q0.78125 0 1.328125 -0.40625q0.546875 -0.40625 0.859375 -1.296875zm-4.609375 -2.28125l4.625 0q-0.09375 -1.046875 -0.53125 -1.5625q-0.671875 -0.8125 -1.734375 -0.8125q-0.96875 0 -1.640625 0.65625q-0.65625 0.640625 -0.71875 1.71875z" fill-rule="nonzero"/><path fill="#d5a6bd" d="m530.9711 243.18898l98.17322 0l0 53.16536l-98.17322 0z" fill-rule="evenodd"/><path stroke="#000000" stroke-width="1.0" stroke-linejoin="round" stroke-linecap="butt" d="m530.9711 243.18898l98.17322 0l0 53.16536l-98.17322 0z" fill-rule="evenodd"/><path fill="#000000" d="m567.7887 260.3504q1.109375 0.25 1.703125 0.96875q0.609375 0.703125 0.609375 1.828125q0 1.4375 -1.0625 2.21875q-1.0625 0.765625 -3.15625 0.765625l-5.140625 0l0 -11.203125l4.828125 0q1.875 0 2.90625 0.75q1.03125 0.75 1.03125 2.140625q0 0.921875 -0.453125 1.578125q-0.453125 0.640625 -1.265625 0.953125zm-5.859375 -4.4375l0 4.0625l3.5625 0q1.359375 0 2.09375 -0.515625q0.734375 -0.53125 0.734375 -1.515625q0 -1.0 -0.734375 -1.515625q-0.734375 -0.515625 -2.09375 -0.515625l-3.5625 0zm3.9375 9.25q1.515625 0 2.28125 -0.515625q0.765625 -0.515625 0.765625 -1.609375q0 -2.09375 -3.046875 -2.09375l-3.9375 0l0 4.21875l3.9375 0zm14.282776 -7.453125l0 8.421875l-1.09375 0l0 -1.53125q-0.453125 0.765625 -1.234375 1.1875q-0.78125 0.421875 -1.78125 0.421875q-1.65625 0 -2.609375 -0.921875q-0.953125 -0.921875 -0.953125 -2.6875l0 -4.890625l1.140625 0l0 4.78125q0 1.328125 0.65625 2.015625q0.65625 0.6875 1.875 0.6875q1.328125 0 2.09375 -0.8125q0.765625 -0.8125 0.765625 -2.25l0 -4.421875l1.140625 0zm3.1742554 0l1.140625 0l0 8.421875l-1.140625 0l0 -8.421875zm0.578125 -1.828125q-0.359375 0 -0.59375 -0.234375q-0.234375 -0.25 -0.234375 -0.59375q0 -0.3125 0.234375 -0.546875q0.234375 -0.25 0.59375 -0.25q0.34375 0 0.578125 0.234375q0.25 0.234375 0.25 0.546875q0 0.359375 -0.25 0.609375q-0.234375 0.234375 -0.578125 0.234375zm3.725891 -1.625l1.140625 0l0 11.875l-1.140625 0l0 -11.875zm11.991516 0l0 11.875l-1.09375 0l0 -1.65625q-0.515625 0.84375 -1.359375 1.296875q-0.828125 0.4375 -1.890625 0.4375q-1.171875 0 -2.140625 -0.546875q-0.953125 -0.546875 -1.5 -1.515625q-0.546875 -0.96875 -0.546875 -2.21875q0 -1.25 0.546875 -2.21875q0.546875 -0.984375 1.5 -1.515625q0.96875 -0.546875 2.140625 -0.546875q1.03125 0 1.84375 0.4375q0.828125 0.421875 1.359375 1.234375l0 -5.0625l1.140625 0zm-4.234375 10.953125q0.875 0 1.578125 -0.40625q0.71875 -0.421875 1.125 -1.171875q0.40625 -0.75 0.40625 -1.703125q0 -0.96875 -0.40625 -1.71875q-0.40625 -0.75 -1.125 -1.15625q-0.703125 -0.40625 -1.578125 -0.40625q-0.90625 0 -1.625 0.40625q-0.703125 0.40625 -1.109375 1.15625q-0.40625 0.75 -0.40625 1.71875q0 0.953125 0.40625 1.703125q0.40625 0.75 1.109375 1.171875q0.71875 0.40625 1.625 0.40625z" fill-rule="nonzero"/><path fill="#000000" d="m553.5373 273.92853q2.140625 0 3.359375 1.03125q1.21875 1.015625 1.21875 2.8125q0 1.796875 -1.21875 2.8125q-1.21875 1.015625 -3.359375 1.015625l-3.0 0l0 3.53125l-1.1875 0l0 -11.203125l4.1875 0zm-0.03125 6.625q1.65625 0 2.53125 -0.71875q0.890625 -0.734375 0.890625 -2.0625q0 -1.359375 -0.890625 -2.078125q-0.875 -0.734375 -2.53125 -0.734375l-2.96875 0l0 5.59375l2.96875 0zm6.713806 -3.84375l1.140625 0l0 8.421875l-1.140625 0l0 -8.421875zm0.578125 -1.828125q-0.359375 0 -0.59375 -0.234375q-0.234375 -0.25 -0.234375 -0.59375q0 -0.3125 0.234375 -0.546875q0.234375 -0.25 0.59375 -0.25q0.34375 0 0.578125 0.234375q0.25 0.234375 0.25 0.546875q0 0.359375 -0.25 0.609375q-0.234375 0.234375 -0.578125 0.234375zm8.069641 1.765625q1.1875 0 2.140625 0.546875q0.96875 0.53125 1.5 1.515625q0.546875 0.96875 0.546875 2.21875q0 1.265625 -0.546875 2.25q-0.53125 0.96875 -1.484375 1.5q-0.953125 0.53125 -2.15625 0.53125q-1.03125 0 -1.859375 -0.421875q-0.8125 -0.421875 -1.34375 -1.234375l0 4.6875l-1.140625 0l0 -11.53125l1.09375 0l0 1.671875q0.515625 -0.828125 1.34375 -1.28125q0.84375 -0.453125 1.90625 -0.453125zm-0.078125 7.5625q0.875 0 1.59375 -0.40625q0.71875 -0.421875 1.125 -1.171875q0.40625 -0.75 0.40625 -1.703125q0 -0.96875 -0.40625 -1.703125q-0.40625 -0.75 -1.125 -1.15625q-0.71875 -0.421875 -1.59375 -0.421875q-0.90625 0 -1.625 0.421875q-0.703125 0.40625 -1.109375 1.15625q-0.40625 0.734375 -0.40625 1.703125q0 0.953125 0.40625 1.703125q0.40625 0.75 1.109375 1.171875q0.71875 0.40625 1.625 0.40625zm13.910522 -2.9375l-7.03125 0q0.09375 1.3125 1.0 2.125q0.921875 0.8125 2.3125 0.8125q0.78125 0 1.4375 -0.28125q0.65625 -0.28125 1.140625 -0.828125l0.640625 0.734375q-0.5625 0.671875 -1.40625 1.03125q-0.84375 0.34375 -1.84375 0.34375q-1.296875 0 -2.296875 -0.546875q-1.0 -0.5625 -1.5625 -1.53125q-0.5625 -0.96875 -0.5625 -2.203125q0 -1.234375 0.53125 -2.203125q0.546875 -0.984375 1.484375 -1.53125q0.9375 -0.546875 2.09375 -0.546875q1.171875 0 2.09375 0.546875q0.9375 0.546875 1.453125 1.515625q0.53125 0.96875 0.53125 2.21875l-0.015625 0.34375zm-4.0625 -3.640625q-1.21875 0 -2.046875 0.78125q-0.8125 0.765625 -0.921875 2.015625l5.96875 0q-0.109375 -1.25 -0.9375 -2.015625q-0.828125 -0.78125 -2.0625 -0.78125zm6.3983765 -4.375l1.140625 0l0 11.875l-1.140625 0l0 -11.875zm4.304016 3.453125l1.140625 0l0 8.421875l-1.140625 0l0 -8.421875zm0.578125 -1.828125q-0.359375 0 -0.59375 -0.234375q-0.234375 -0.25 -0.234375 -0.59375q0 -0.3125 0.234375 -0.546875q0.234375 -0.25 0.59375 -0.25q0.34375 0 0.578125 0.234375q0.25 0.234375 0.25 0.546875q0 0.359375 -0.25 0.609375q-0.234375 0.234375 -0.578125 0.234375zm8.022766 1.765625q1.578125 0 2.515625 0.921875q0.9375 0.921875 0.9375 2.6875l0 4.875l-1.140625 0l0 -4.765625q0 -1.3125 -0.65625 -2.0q-0.65625 -0.6875 -1.875 -0.6875q-1.359375 0 -2.15625 0.8125q-0.78125 0.796875 -0.78125 2.21875l0 4.421875l-1.140625 0l0 -8.421875l1.09375 0l0 1.5625q0.46875 -0.765625 1.28125 -1.1875q0.828125 -0.4375 1.921875 -0.4375zm13.895264 4.625l-7.03125 0q0.09375 1.3125 1.0 2.125q0.921875 0.8125 2.3125 0.8125q0.78125 0 1.4375 -0.28125q0.65625 -0.28125 1.140625 -0.828125l0.640625 0.734375q-0.5625 0.671875 -1.40625 1.03125q-0.84375 0.34375 -1.84375 0.34375q-1.296875 0 -2.296875 -0.546875q-1.0 -0.5625 -1.5625 -1.53125q-0.5625 -0.96875 -0.5625 -2.203125q0 -1.234375 0.53125 -2.203125q0.546875 -0.984375 1.484375 -1.53125q0.9375 -0.546875 2.09375 -0.546875q1.171875 0 2.09375 0.546875q0.9375 0.546875 1.453125 1.515625q0.53125 0.96875 0.53125 2.21875l-0.015625 0.34375zm-4.0625 -3.640625q-1.21875 0 -2.046875 0.78125q-0.8125 0.765625 -0.921875 2.015625l5.96875 0q-0.109375 -1.25 -0.9375 -2.015625q-0.828125 -0.78125 -2.0625 -0.78125z" fill-rule="nonzero"/><path fill="#d9d2e9" d="m518.28345 336.0551l0 0c0 -6.308502 27.656738 -11.422577 61.77301 -11.422577c34.11621 0 61.77295 5.1140747 61.77295 11.422577l0 45.690277c0 6.3085327 -27.656738 11.422577 -61.77295 11.422577c-34.116272 0 -61.77301 -5.114044 -61.77301 -11.422577z" fill-rule="evenodd"/><path fill="#000000" fill-opacity="0.0" d="m641.8294 336.0551l0 0c0 6.308502 -27.656738 11.422577 -61.77295 11.422577c-34.116272 0 -61.77301 -5.1140747 -61.77301 -11.422577" fill-rule="evenodd"/><path fill="#000000" fill-opacity="0.0" d="m518.28345 336.0551l0 0c0 -6.308502 27.656738 -11.422577 61.77301 -11.422577c34.11621 0 61.77295 5.1140747 61.77295 11.422577l0 45.690277c0 6.3085327 -27.656738 11.422577 -61.77295 11.422577c-34.116272 0 -61.77301 -5.114044 -61.77301 -11.422577z" fill-rule="evenodd"/><path stroke="#000000" stroke-width="1.0" stroke-linejoin="round" stroke-linecap="butt" d="m641.8294 336.0551l0 0c0 6.308502 -27.656738 11.422577 -61.77295 11.422577c-34.116272 0 -61.77301 -5.1140747 -61.77301 -11.422577" fill-rule="evenodd"/><path stroke="#000000" stroke-width="1.0" stroke-linejoin="round" stroke-linecap="butt" d="m518.28345 336.0551l0 0c0 -6.308502 27.656738 -11.422577 61.77301 -11.422577c34.11621 0 61.77295 5.1140747 61.77295 11.422577l0 45.690277c0 6.3085327 -27.656738 11.422577 -61.77295 11.422577c-34.116272 0 -61.77301 -5.114044 -61.77301 -11.422577z" fill-rule="evenodd"/><path fill="#000000" d="m534.99005 370.47156l0 -11.453125l4.296875 0q1.3125 0 2.109375 0.34375q0.796875 0.34375 1.234375 1.078125q0.453125 0.71875 0.453125 1.5q0 0.734375 -0.40625 1.390625q-0.390625 0.640625 -1.1875 1.046875q1.03125 0.296875 1.59375 1.03125q0.5625 0.734375 0.5625 1.734375q0 0.8125 -0.34375 1.5q-0.34375 0.6875 -0.84375 1.0625q-0.5 0.375 -1.25 0.578125q-0.75 0.1875 -1.84375 0.1875l-4.375 0zm1.515625 -6.640625l2.484375 0q1.0 0 1.4375 -0.140625q0.578125 -0.171875 0.875 -0.5625q0.296875 -0.40625 0.296875 -1.0q0 -0.578125 -0.28125 -1.0q-0.265625 -0.4375 -0.78125 -0.59375q-0.5 -0.171875 -1.734375 -0.171875l-2.296875 0l0 3.46875zm0 5.28125l2.859375 0q0.734375 0 1.03125 -0.046875q0.515625 -0.09375 0.859375 -0.3125q0.359375 -0.21875 0.578125 -0.640625q0.234375 -0.421875 0.234375 -0.96875q0 -0.640625 -0.328125 -1.109375q-0.328125 -0.46875 -0.90625 -0.65625q-0.578125 -0.203125 -1.671875 -0.203125l-2.65625 0l0 3.9375zm14.484375 1.359375l0 -1.21875q-0.96875 1.40625 -2.640625 1.40625q-0.734375 0 -1.375 -0.28125q-0.625 -0.28125 -0.9375 -0.703125q-0.3125 -0.4375 -0.4375 -1.046875q-0.078125 -0.421875 -0.078125 -1.3125l0 -5.140625l1.40625 0l0 4.59375q0 1.109375 0.078125 1.484375q0.140625 0.5625 0.5625 0.875q0.4375 0.3125 1.0625 0.3125q0.640625 0 1.1875 -0.3125q0.5625 -0.328125 0.78125 -0.890625q0.234375 -0.5625 0.234375 -1.625l0 -4.4375l1.40625 0l0 8.296875l-1.25 0zm3.4609375 -9.84375l0 -1.609375l1.40625 0l0 1.609375l-1.40625 0zm0 9.84375l0 -8.296875l1.40625 0l0 8.296875l-1.40625 0zm3.5234375 0l0 -11.453125l1.40625 0l0 11.453125l-1.40625 0zm6.6484375 -1.265625l0.203125 1.25q-0.59375 0.125 -1.0625 0.125q-0.765625 0 -1.1875 -0.234375q-0.421875 -0.25 -0.59375 -0.640625q-0.171875 -0.40625 -0.171875 -1.671875l0 -4.765625l-1.03125 0l0 -1.09375l1.03125 0l0 -2.0625l1.40625 -0.84375l0 2.90625l1.40625 0l0 1.09375l-1.40625 0l0 4.84375q0 0.609375 0.0625 0.78125q0.078125 0.171875 0.25 0.28125q0.171875 0.09375 0.484375 0.09375q0.234375 0 0.609375 -0.0625zm3.8515625 1.265625l4.40625 -11.453125l1.640625 0l4.6875 11.453125l-1.734375 0l-1.328125 -3.46875l-4.796875 0l-1.25 3.46875l-1.625 0zm3.3125 -4.703125l3.890625 0l-1.203125 -3.171875q-0.546875 -1.453125 -0.8125 -2.375q-0.21875 1.09375 -0.609375 2.1875l-1.265625 3.359375zm8.4375 4.703125l0 -8.296875l1.265625 0l0 1.25q0.484375 -0.875 0.890625 -1.15625q0.40625 -0.28125 0.90625 -0.28125q0.703125 0 1.4375 0.453125l-0.484375 1.296875q-0.515625 -0.296875 -1.03125 -0.296875q-0.453125 0 -0.828125 0.28125q-0.359375 0.265625 -0.515625 0.765625q-0.234375 0.75 -0.234375 1.640625l0 4.34375l-1.40625 0zm8.40625 -1.265625l0.203125 1.25q-0.59375 0.125 -1.0625 0.125q-0.765625 0 -1.1875 -0.234375q-0.421875 -0.25 -0.59375 -0.640625q-0.171875 -0.40625 -0.171875 -1.671875l0 -4.765625l-1.03125 0l0 -1.09375l1.03125 0l0 -2.0625l1.40625 -0.84375l0 2.90625l1.40625 0l0 1.09375l-1.40625 0l0 4.84375q0 0.609375 0.0625 0.78125q0.078125 0.171875 0.25 0.28125q0.171875 0.09375 0.484375 0.09375q0.234375 0 0.609375 -0.0625zm1.3828125 -8.578125l0 -1.609375l1.40625 0l0 1.609375l-1.40625 0zm0 9.84375l0 -8.296875l1.40625 0l0 8.296875l-1.40625 0zm3.8828125 0l0 -7.203125l-1.234375 0l0 -1.09375l1.234375 0l0 -0.890625q0 -0.828125 0.15625 -1.234375q0.203125 -0.546875 0.703125 -0.890625q0.515625 -0.34375 1.4375 -0.34375q0.59375 0 1.3125 0.140625l-0.203125 1.234375q-0.4375 -0.078125 -0.828125 -0.078125q-0.640625 0 -0.90625 0.28125q-0.265625 0.265625 -0.265625 1.015625l0 0.765625l1.609375 0l0 1.09375l-1.609375 0l0 7.203125l-1.40625 0zm9.5234375 -1.03125q-0.78125 0.671875 -1.5 0.953125q-0.71875 0.265625 -1.546875 0.265625q-1.375 0 -2.109375 -0.671875q-0.734375 -0.671875 -0.734375 -1.703125q0 -0.609375 0.28125 -1.109375q0.28125 -0.515625 0.71875 -0.8125q0.453125 -0.3125 1.015625 -0.46875q0.421875 -0.109375 1.25 -0.203125q1.703125 -0.203125 2.515625 -0.484375q0 -0.296875 0 -0.375q0 -0.859375 -0.390625 -1.203125q-0.546875 -0.484375 -1.609375 -0.484375q-0.984375 0 -1.46875 0.359375q-0.46875 0.34375 -0.6875 1.21875l-1.375 -0.1875q0.1875 -0.875 0.609375 -1.421875q0.4375 -0.546875 1.25 -0.828125q0.8125 -0.296875 1.875 -0.296875q1.0625 0 1.71875 0.25q0.671875 0.25 0.984375 0.625q0.3125 0.375 0.4375 0.953125q0.078125 0.359375 0.078125 1.296875l0 1.875q0 1.96875 0.078125 2.484375q0.09375 0.515625 0.359375 1.0l-1.46875 0q-0.21875 -0.4375 -0.28125 -1.03125zm-0.109375 -3.140625q-0.765625 0.3125 -2.296875 0.53125q-0.875 0.125 -1.234375 0.28125q-0.359375 0.15625 -0.5625 0.46875q-0.1875 0.296875 -0.1875 0.65625q0 0.5625 0.421875 0.9375q0.4375 0.375 1.25 0.375q0.8125 0 1.4375 -0.34375q0.640625 -0.359375 0.9375 -0.984375q0.234375 -0.46875 0.234375 -1.40625l0 -0.515625zm9.0078125 1.125l1.390625 0.1875q-0.234375 1.421875 -1.171875 2.234375q-0.921875 0.8125 -2.28125 0.8125q-1.703125 0 -2.75 -1.109375q-1.03125 -1.125 -1.03125 -3.203125q0 -1.34375 0.4375 -2.34375q0.453125 -1.015625 1.359375 -1.515625q0.921875 -0.5 1.984375 -0.5q1.359375 0 2.21875 0.6875q0.859375 0.671875 1.09375 1.9375l-1.359375 0.203125q-0.203125 -0.828125 -0.703125 -1.25q-0.484375 -0.421875 -1.1875 -0.421875q-1.0625 0 -1.734375 0.765625q-0.65625 0.75 -0.65625 2.40625q0 1.671875 0.640625 2.4375q0.640625 0.75 1.671875 0.75q0.828125 0 1.375 -0.5q0.5625 -0.515625 0.703125 -1.578125zm5.65625 1.78125l0.203125 1.25q-0.59375 0.125 -1.0625 0.125q-0.765625 0 -1.1875 -0.234375q-0.421875 -0.25 -0.59375 -0.640625q-0.171875 -0.40625 -0.171875 -1.671875l0 -4.765625l-1.03125 0l0 -1.09375l1.03125 0l0 -2.0625l1.40625 -0.84375l0 2.90625l1.40625 0l0 1.09375l-1.40625 0l0 4.84375q0 0.609375 0.0625 0.78125q0.078125 0.171875 0.25 0.28125q0.171875 0.09375 0.484375 0.09375q0.234375 0 0.609375 -0.0625zm0.8203125 -1.21875l1.390625 -0.21875q0.109375 0.84375 0.640625 1.296875q0.546875 0.4375 1.5 0.4375q0.96875 0 1.4375 -0.390625q0.46875 -0.40625 0.46875 -0.9375q0 -0.46875 -0.40625 -0.75q-0.296875 -0.1875 -1.4375 -0.46875q-1.546875 -0.390625 -2.15625 -0.671875q-0.59375 -0.296875 -0.90625 -0.796875q-0.296875 -0.5 -0.296875 -1.109375q0 -0.5625 0.25 -1.03125q0.25 -0.46875 0.6875 -0.78125q0.328125 -0.25 0.890625 -0.40625q0.578125 -0.171875 1.21875 -0.171875q0.984375 0 1.71875 0.28125q0.734375 0.28125 1.078125 0.765625q0.359375 0.46875 0.5 1.28125l-1.375 0.1875q-0.09375 -0.640625 -0.546875 -1.0q-0.453125 -0.359375 -1.265625 -0.359375q-0.96875 0 -1.390625 0.328125q-0.40625 0.3125 -0.40625 0.734375q0 0.28125 0.171875 0.5q0.171875 0.21875 0.53125 0.375q0.21875 0.078125 1.25 0.359375q1.484375 0.390625 2.078125 0.65625q0.59375 0.25 0.921875 0.734375q0.34375 0.484375 0.34375 1.203125q0 0.703125 -0.421875 1.328125q-0.40625 0.609375 -1.1875 0.953125q-0.765625 0.34375 -1.734375 0.34375q-1.625 0 -2.46875 -0.671875q-0.84375 -0.671875 -1.078125 -2.0z" fill-rule="nonzero"/><path fill="#000000" fill-opacity="0.0" d="m580.05646 216.17323l0 27.02362" fill-rule="evenodd"/><path stroke="#000000" stroke-width="2.0" stroke-linejoin="round" stroke-linecap="butt" d="m580.05646 216.17323l0 15.023621" fill-rule="evenodd"/><path fill="#000000" stroke="#000000" stroke-width="2.0" stroke-linecap="butt" d="m576.753 231.19685l3.3034668 9.076187l3.3034668 -9.076187z" fill-rule="evenodd"/><path fill="#000000" fill-opacity="0.0" d="m580.05774 296.35434l0 28.283447" fill-rule="evenodd"/><path stroke="#000000" stroke-width="2.0" stroke-linejoin="round" stroke-linecap="butt" d="m580.05774 296.35434l0 16.283447" fill-rule="evenodd"/><path fill="#000000" stroke="#000000" stroke-width="2.0" stroke-linecap="butt" d="m576.7543 312.6378l3.3034668 9.076202l3.3034668 -9.076202z" fill-rule="evenodd"/><path fill="#cfe2f3" d="m320.1076 166.39911l0 0c0 -4.2821045 3.471344 -7.753433 7.7534485 -7.753433l118.44589 0c2.0563354 0 4.0284424 0.816864 5.482483 2.2709198c1.454071 1.4540558 2.270935 3.426178 2.270935 5.4825134l0 31.012802c0 4.2821045 -3.4713135 7.7534485 -7.753418 7.7534485l-118.44589 0c-4.2821045 0 -7.7534485 -3.471344 -7.7534485 -7.7534485z" fill-rule="evenodd"/><path stroke="#000000" stroke-width="1.0" stroke-linejoin="round" stroke-linecap="butt" d="m320.1076 166.39911l0 0c0 -4.2821045 3.471344 -7.753433 7.7534485 -7.753433l118.44589 0c2.0563354 0 4.0284424 0.816864 5.482483 2.2709198c1.454071 1.4540558 2.270935 3.426178 2.270935 5.4825134l0 31.012802c0 4.2821045 -3.4713135 7.7534485 -7.753418 7.7534485l-118.44589 0c-4.2821045 0 -7.7534485 -3.471344 -7.7534485 -7.7534485z" fill-rule="evenodd"/><path fill="#000000" d="m340.35562 178.35927q-2.1875 0 -3.40625 -1.25q-1.203125 -1.25 -1.203125 -3.625l0 -6.421875l1.171875 0l0 6.375q0 1.953125 0.875 2.921875q0.890625 0.953125 2.5625 0.953125q1.671875 0 2.546875 -0.953125q0.890625 -0.96875 0.890625 -2.921875l0 -6.375l1.140625 0l0 6.421875q0 2.375 -1.203125 3.625q-1.203125 1.25 -3.375 1.25zm12.250153 -8.578125q1.1875 0 2.140625 0.546875q0.96875 0.53125 1.5 1.515625q0.546875 0.96875 0.546875 2.21875q0 1.265625 -0.546875 2.25q-0.53125 0.96875 -1.484375 1.5q-0.953125 0.53125 -2.15625 0.53125q-1.03125 0 -1.859375 -0.421875q-0.8125 -0.421875 -1.34375 -1.234375l0 4.6875l-1.140625 0l0 -11.53125l1.09375 0l0 1.671875q0.515625 -0.828125 1.34375 -1.28125q0.84375 -0.453125 1.90625 -0.453125zm-0.078125 7.5625q0.875 0 1.59375 -0.40625q0.71875 -0.421875 1.125 -1.171875q0.40625 -0.75 0.40625 -1.703125q0 -0.96875 -0.40625 -1.703125q-0.40625 -0.75 -1.125 -1.15625q-0.71875 -0.421875 -1.59375 -0.421875q-0.90625 0 -1.625 0.421875q-0.703125 0.40625 -1.109375 1.15625q-0.40625 0.734375 -0.40625 1.703125q0 0.953125 0.40625 1.703125q0.40625 0.75 1.109375 1.171875q0.71875 0.40625 1.625 0.40625zm14.269897 -10.953125l0 11.875l-1.09375 0l0 -1.65625q-0.515625 0.84375 -1.359375 1.296875q-0.828125 0.4375 -1.890625 0.4375q-1.171875 0 -2.140625 -0.546875q-0.953125 -0.546875 -1.5 -1.515625q-0.546875 -0.96875 -0.546875 -2.21875q0 -1.25 0.546875 -2.21875q0.546875 -0.984375 1.5 -1.515625q0.96875 -0.546875 2.140625 -0.546875q1.03125 0 1.84375 0.4375q0.828125 0.421875 1.359375 1.234375l0 -5.0625l1.140625 0zm-4.234375 10.953125q0.875 0 1.578125 -0.40625q0.71875 -0.421875 1.125 -1.171875q0.40625 -0.75 0.40625 -1.703125q0 -0.96875 -0.40625 -1.71875q-0.40625 -0.75 -1.125 -1.15625q-0.703125 -0.40625 -1.578125 -0.40625q-0.90625 0 -1.625 0.40625q-0.703125 0.40625 -1.109375 1.15625q-0.40625 0.75 -0.40625 1.71875q0 0.953125 0.40625 1.703125q0.40625 0.75 1.109375 1.171875q0.71875 0.40625 1.625 0.40625zm10.348022 -7.5625q1.640625 0 2.515625 0.828125q0.890625 0.828125 0.890625 2.4375l0 5.21875l-1.09375 0l0 -1.3125q-0.375 0.65625 -1.125 1.03125q-0.75 0.359375 -1.765625 0.359375q-1.40625 0 -2.25 -0.671875q-0.828125 -0.671875 -0.828125 -1.78125q0 -1.0625 0.78125 -1.71875q0.78125 -0.65625 2.46875 -0.65625l2.671875 0l0 -0.515625q0 -1.09375 -0.609375 -1.65625q-0.609375 -0.5625 -1.765625 -0.5625q-0.8125 0 -1.546875 0.265625q-0.734375 0.265625 -1.265625 0.71875l-0.5 -0.84375q0.640625 -0.546875 1.53125 -0.84375q0.890625 -0.296875 1.890625 -0.296875zm-0.40625 7.671875q0.96875 0 1.65625 -0.4375q0.6875 -0.453125 1.015625 -1.28125l0 -1.375l-2.640625 0q-2.15625 0 -2.15625 1.5q0 0.75 0.5625 1.171875q0.5625 0.421875 1.5625 0.421875zm11.330658 0.296875q-0.3125 0.296875 -0.796875 0.453125q-0.46875 0.140625 -0.984375 0.140625q-1.171875 0 -1.8125 -0.640625q-0.640625 -0.640625 -0.640625 -1.8125l0 -5.078125l-1.515625 0l0 -0.96875l1.515625 0l0 -1.828125l1.125 0l0 1.828125l2.5625 0l0 0.96875l-2.5625 0l0 5.015625q0 0.75 0.375 1.15625q0.375 0.390625 1.09375 0.390625q0.34375 0 0.671875 -0.109375q0.328125 -0.125 0.5625 -0.328125l0.40625 0.8125zm9.082642 -3.34375l-7.03125 0q0.09375 1.3125 1.0 2.125q0.921875 0.8125 2.3125 0.8125q0.78125 0 1.4375 -0.28125q0.65625 -0.28125 1.140625 -0.828125l0.640625 0.734375q-0.5625 0.671875 -1.40625 1.03125q-0.84375 0.34375 -1.84375 0.34375q-1.296875 0 -2.296875 -0.546875q-1.0 -0.5625 -1.5625 -1.53125q-0.5625 -0.96875 -0.5625 -2.203125q0 -1.234375 0.53125 -2.203125q0.546875 -0.984375 1.484375 -1.53125q0.9375 -0.546875 2.09375 -0.546875q1.171875 0 2.09375 0.546875q0.9375 0.546875 1.453125 1.515625q0.53125 0.96875 0.53125 2.21875l-0.015625 0.34375zm-4.0625 -3.640625q-1.21875 0 -2.046875 0.78125q-0.8125 0.765625 -0.921875 2.015625l5.96875 0q-0.109375 -1.25 -0.9375 -2.015625q-0.828125 -0.78125 -2.0625 -0.78125zm17.887268 1.71875q1.109375 0.25 1.703125 0.96875q0.609375 0.703125 0.609375 1.828125q0 1.4375 -1.0625 2.21875q-1.0625 0.765625 -3.15625 0.765625l-5.140625 0l0 -11.203125l4.828125 0q1.875 0 2.90625 0.75q1.03125 0.75 1.03125 2.140625q0 0.921875 -0.453125 1.578125q-0.453125 0.640625 -1.265625 0.953125zm-5.859375 -4.4375l0 4.0625l3.5625 0q1.359375 0 2.09375 -0.515625q0.734375 -0.53125 0.734375 -1.515625q0 -1.0 -0.734375 -1.515625q-0.734375 -0.515625 -2.09375 -0.515625l-3.5625 0zm3.9375 9.25q1.515625 0 2.28125 -0.515625q0.765625 -0.515625 0.765625 -1.609375q0 -2.09375 -3.046875 -2.09375l-3.9375 0l0 4.21875l3.9375 0zm14.282776 -7.453125l0 8.421875l-1.09375 0l0 -1.53125q-0.453125 0.765625 -1.234375 1.1875q-0.78125 0.421875 -1.78125 0.421875q-1.65625 0 -2.609375 -0.921875q-0.953125 -0.921875 -0.953125 -2.6875l0 -4.890625l1.140625 0l0 4.78125q0 1.328125 0.65625 2.015625q0.65625 0.6875 1.875 0.6875q1.328125 0 2.09375 -0.8125q0.765625 -0.8125 0.765625 -2.25l0 -4.421875l1.140625 0zm3.1742554 0l1.140625 0l0 8.421875l-1.140625 0l0 -8.421875zm0.578125 -1.828125q-0.359375 0 -0.59375 -0.234375q-0.234375 -0.25 -0.234375 -0.59375q0 -0.3125 0.234375 -0.546875q0.234375 -0.25 0.59375 -0.25q0.34375 0 0.578125 0.234375q0.25 0.234375 0.25 0.546875q0 0.359375 -0.25 0.609375q-0.234375 0.234375 -0.578125 0.234375zm3.725891 -1.625l1.140625 0l0 11.875l-1.140625 0l0 -11.875zm11.991516 0l0 11.875l-1.09375 0l0 -1.65625q-0.515625 0.84375 -1.359375 1.296875q-0.828125 0.4375 -1.890625 0.4375q-1.171875 0 -2.140625 -0.546875q-0.953125 -0.546875 -1.5 -1.515625q-0.546875 -0.96875 -0.546875 -2.21875q0 -1.25 0.546875 -2.21875q0.546875 -0.984375 1.5 -1.515625q0.96875 -0.546875 2.140625 -0.546875q1.03125 0 1.84375 0.4375q0.828125 0.421875 1.359375 1.234375l0 -5.0625l1.140625 0zm-4.234375 10.953125q0.875 0 1.578125 -0.40625q0.71875 -0.421875 1.125 -1.171875q0.40625 -0.75 0.40625 -1.703125q0 -0.96875 -0.40625 -1.71875q-0.40625 -0.75 -1.125 -1.15625q-0.703125 -0.40625 -1.578125 -0.40625q-0.90625 0 -1.625 0.40625q-0.703125 0.40625 -1.109375 1.15625q-0.40625 0.75 -0.40625 1.71875q0 0.953125 0.40625 1.703125q0.40625 0.75 1.109375 1.171875q0.71875 0.40625 1.625 0.40625z" fill-rule="nonzero"/><path fill="#000000" d="m360.56354 186.0624q2.140625 0 3.359375 1.03125q1.21875 1.015625 1.21875 2.8125q0 1.796875 -1.21875 2.8125q-1.21875 1.015625 -3.359375 1.015625l-3.0 0l0 3.53125l-1.1875 0l0 -11.203125l4.1875 0zm-0.03125 6.625q1.65625 0 2.53125 -0.71875q0.890625 -0.734375 0.890625 -2.0625q0 -1.359375 -0.890625 -2.078125q-0.875 -0.734375 -2.53125 -0.734375l-2.96875 0l0 5.59375l2.96875 0zm6.7137756 -3.84375l1.140625 0l0 8.421875l-1.140625 0l0 -8.421875zm0.578125 -1.828125q-0.359375 0 -0.59375 -0.234375q-0.234375 -0.25 -0.234375 -0.59375q0 -0.3125 0.234375 -0.546875q0.234375 -0.25 0.59375 -0.25q0.34375 0 0.578125 0.234375q0.25 0.234375 0.25 0.546875q0 0.359375 -0.25 0.609375q-0.234375 0.234375 -0.578125 0.234375zm8.069641 1.765625q1.1875 0 2.140625 0.546875q0.96875 0.53125 1.5 1.515625q0.546875 0.96875 0.546875 2.21875q0 1.265625 -0.546875 2.25q-0.53125 0.96875 -1.484375 1.5q-0.953125 0.53125 -2.15625 0.53125q-1.03125 0 -1.859375 -0.421875q-0.8125 -0.421875 -1.34375 -1.234375l0 4.6875l-1.140625 0l0 -11.53125l1.09375 0l0 1.671875q0.515625 -0.828125 1.34375 -1.28125q0.84375 -0.453125 1.90625 -0.453125zm-0.078125 7.5625q0.875 0 1.59375 -0.40625q0.71875 -0.421875 1.125 -1.171875q0.40625 -0.75 0.40625 -1.703125q0 -0.96875 -0.40625 -1.703125q-0.40625 -0.75 -1.125 -1.15625q-0.71875 -0.421875 -1.59375 -0.421875q-0.90625 0 -1.625 0.421875q-0.703125 0.40625 -1.109375 1.15625q-0.40625 0.734375 -0.40625 1.703125q0 0.953125 0.40625 1.703125q0.40625 0.75 1.109375 1.171875q0.71875 0.40625 1.625 0.40625zm13.910522 -2.9375l-7.03125 0q0.09375 1.3125 1.0 2.125q0.921875 0.8125 2.3125 0.8125q0.78125 0 1.4375 -0.28125q0.65625 -0.28125 1.140625 -0.828125l0.640625 0.734375q-0.5625 0.671875 -1.40625 1.03125q-0.84375 0.34375 -1.84375 0.34375q-1.296875 0 -2.296875 -0.546875q-1.0 -0.5625 -1.5625 -1.53125q-0.5625 -0.96875 -0.5625 -2.203125q0 -1.234375 0.53125 -2.203125q0.546875 -0.984375 1.484375 -1.53125q0.9375 -0.546875 2.09375 -0.546875q1.171875 0 2.09375 0.546875q0.9375 0.546875 1.453125 1.515625q0.53125 0.96875 0.53125 2.21875l-0.015625 0.34375zm-4.0625 -3.640625q-1.21875 0 -2.046875 0.78125q-0.8125 0.765625 -0.921875 2.015625l5.96875 0q-0.109375 -1.25 -0.9375 -2.015625q-0.828125 -0.78125 -2.0625 -0.78125zm6.398407 -4.375l1.140625 0l0 11.875l-1.140625 0l0 -11.875zm4.304016 3.453125l1.140625 0l0 8.421875l-1.140625 0l0 -8.421875zm0.578125 -1.828125q-0.359375 0 -0.59375 -0.234375q-0.234375 -0.25 -0.234375 -0.59375q0 -0.3125 0.234375 -0.546875q0.234375 -0.25 0.59375 -0.25q0.34375 0 0.578125 0.234375q0.25 0.234375 0.25 0.546875q0 0.359375 -0.25 0.609375q-0.234375 0.234375 -0.578125 0.234375zm8.022766 1.765625q1.578125 0 2.515625 0.921875q0.9375 0.921875 0.9375 2.6875l0 4.875l-1.140625 0l0 -4.765625q0 -1.3125 -0.65625 -2.0q-0.65625 -0.6875 -1.875 -0.6875q-1.359375 0 -2.15625 0.8125q-0.78125 0.796875 -0.78125 2.21875l0 4.421875l-1.140625 0l0 -8.421875l1.09375 0l0 1.5625q0.46875 -0.765625 1.28125 -1.1875q0.828125 -0.4375 1.921875 -0.4375zm13.895264 4.625l-7.03125 0q0.09375 1.3125 1.0 2.125q0.921875 0.8125 2.3125 0.8125q0.78125 0 1.4375 -0.28125q0.65625 -0.28125 1.140625 -0.828125l0.640625 0.734375q-0.5625 0.671875 -1.40625 1.03125q-0.84375 0.34375 -1.84375 0.34375q-1.296875 0 -2.296875 -0.546875q-1.0 -0.5625 -1.5625 -1.53125q-0.5625 -0.96875 -0.5625 -2.203125q0 -1.234375 0.53125 -2.203125q0.546875 -0.984375 1.484375 -1.53125q0.9375 -0.546875 2.09375 -0.546875q1.171875 0 2.09375 0.546875q0.9375 0.546875 1.453125 1.515625q0.53125 0.96875 0.53125 2.21875l-0.015625 0.34375zm-4.0625 -3.640625q-1.21875 0 -2.046875 0.78125q-0.8125 0.765625 -0.921875 2.015625l5.96875 0q-0.109375 -1.25 -0.9375 -2.015625q-0.828125 -0.78125 -2.0625 -0.78125z" fill-rule="nonzero"/><path fill="#000000" fill-opacity="0.0" d="m299.06824 150.73097l37.039368 0l0 24.97638l-37.039368 0z" fill-rule="evenodd"/><path fill="#000000" d="m314.81824 166.16104l0 1.578125l-6.359375 0l0 -1.265625l3.25 -3.046875q0.515625 -0.5 0.6875 -0.84375q0.1875 -0.359375 0.1875 -0.71875q0 -0.5 -0.34375 -0.765625q-0.34375 -0.265625 -1.0 -0.265625q-0.5625 0 -1.0 0.21875q-0.4375 0.203125 -0.75 0.609375l-1.40625 -0.90625q0.484375 -0.734375 1.34375 -1.140625q0.875 -0.421875 1.984375 -0.421875q0.9375 0 1.640625 0.3125q0.703125 0.296875 1.09375 0.859375q0.390625 0.5625 0.390625 1.3125q0 0.6875 -0.296875 1.296875q-0.28125 0.59375 -1.109375 1.359375l-1.9375 1.828125l3.625 0z" fill-rule="nonzero"/><path fill="#000000" fill-opacity="0.0" d="m269.1286 181.90552l50.992126 0" fill-rule="evenodd"/><path stroke="#000000" stroke-width="1.0" stroke-linejoin="round" stroke-linecap="butt" d="m269.1286 181.90552l44.992126 0" fill-rule="evenodd"/><path fill="#000000" stroke="#000000" stroke-width="1.0" stroke-linecap="butt" d="m314.12073 183.55725l4.5381165 -1.6517334l-4.5381165 -1.6517334z" fill-rule="evenodd"/><path fill="#000000" fill-opacity="0.0" d="m454.06036 181.90552l64.22046 0" fill-rule="evenodd"/><path stroke="#000000" stroke-width="1.0" stroke-linejoin="round" stroke-linecap="butt" d="m454.06036 181.90552l58.22046 0" fill-rule="evenodd"/><path fill="#000000" stroke="#000000" stroke-width="1.0" stroke-linecap="butt" d="m512.2808 183.55725l4.538086 -1.6517334l-4.538086 -1.6517334z" fill-rule="evenodd"/><path fill="#000000" fill-opacity="0.0" d="m506.163 112.543304l202.67715 0l0 43.11812l-202.67715 0z" fill-rule="evenodd"/><path fill="#000000" d="m524.03796 131.12206q1.109375 0.25 1.703125 0.96875q0.609375 0.703125 0.609375 1.828125q0 1.4375 -1.0625 2.21875q-1.0625 0.765625 -3.15625 0.765625l-5.140625 0l0 -11.203125l4.828125 0q1.875 0 2.90625 0.75q1.03125 0.75 1.03125 2.140625q0 0.921875 -0.453125 1.578125q-0.453125 0.640625 -1.265625 0.953125zm-5.859375 -4.4375l0 4.0625l3.5625 0q1.359375 0 2.09375 -0.515625q0.734375 -0.53125 0.734375 -1.515625q0 -1.0 -0.734375 -1.515625q-0.734375 -0.515625 -2.09375 -0.515625l-3.5625 0zm3.9375 9.25q1.515625 0 2.28125 -0.515625q0.765625 -0.515625 0.765625 -1.609375q0 -2.09375 -3.046875 -2.09375l-3.9375 0l0 4.21875l3.9375 0zm14.282776 -7.453125l0 8.421875l-1.09375 0l0 -1.53125q-0.453125 0.765625 -1.234375 1.1875q-0.78125 0.421875 -1.78125 0.421875q-1.65625 0 -2.609375 -0.921875q-0.953125 -0.921875 -0.953125 -2.6875l0 -4.890625l1.140625 0l0 4.78125q0 1.328125 0.65625 2.015625q0.65625 0.6875 1.875 0.6875q1.328125 0 2.09375 -0.8125q0.765625 -0.8125 0.765625 -2.25l0 -4.421875l1.140625 0zm3.1743164 0l1.140625 0l0 8.421875l-1.140625 0l0 -8.421875zm0.578125 -1.828125q-0.359375 0 -0.59375 -0.234375q-0.234375 -0.25 -0.234375 -0.59375q0 -0.3125 0.234375 -0.546875q0.234375 -0.25 0.59375 -0.25q0.34375 0 0.578125 0.234375q0.25 0.234375 0.25 0.546875q0 0.359375 -0.25 0.609375q-0.234375 0.234375 -0.578125 0.234375zm3.725891 -1.625l1.140625 0l0 11.875l-1.140625 0l0 -11.875zm11.991516 0l0 11.875l-1.09375 0l0 -1.65625q-0.515625 0.84375 -1.359375 1.296875q-0.828125 0.4375 -1.890625 0.4375q-1.171875 0 -2.140625 -0.546875q-0.953125 -0.546875 -1.5 -1.515625q-0.546875 -0.96875 -0.546875 -2.21875q0 -1.25 0.546875 -2.21875q0.546875 -0.984375 1.5 -1.515625q0.96875 -0.546875 2.140625 -0.546875q1.03125 0 1.84375 0.4375q0.828125 0.421875 1.359375 1.234375l0 -5.0625l1.140625 0zm-4.234375 10.953125q0.875 0 1.578125 -0.40625q0.71875 -0.421875 1.125 -1.171875q0.40625 -0.75 0.40625 -1.703125q0 -0.96875 -0.40625 -1.71875q-0.40625 -0.75 -1.125 -1.15625q-0.703125 -0.40625 -1.578125 -0.40625q-0.90625 0 -1.625 0.40625q-0.703125 0.40625 -1.109375 1.15625q-0.40625 0.75 -0.40625 1.71875q0 0.953125 0.40625 1.703125q0.40625 0.75 1.109375 1.171875q0.71875 0.40625 1.625 0.40625zm16.024353 -10.28125q2.140625 0 3.359375 1.03125q1.21875 1.015625 1.21875 2.8125q0 1.796875 -1.21875 2.8125q-1.21875 1.015625 -3.359375 1.015625l-3.0 0l0 3.53125l-1.1875 0l0 -11.203125l4.1875 0zm-0.03125 6.625q1.65625 0 2.53125 -0.71875q0.890625 -0.734375 0.890625 -2.0625q0 -1.359375 -0.890625 -2.078125q-0.875 -0.734375 -2.53125 -0.734375l-2.96875 0l0 5.59375l2.96875 0zm6.713806 -3.84375l1.140625 0l0 8.421875l-1.140625 0l0 -8.421875zm0.578125 -1.828125q-0.359375 0 -0.59375 -0.234375q-0.234375 -0.25 -0.234375 -0.59375q0 -0.3125 0.234375 -0.546875q0.234375 -0.25 0.59375 -0.25q0.34375 0 0.578125 0.234375q0.25 0.234375 0.25 0.546875q0 0.359375 -0.25 0.609375q-0.234375 0.234375 -0.578125 0.234375zm8.069641 1.765625q1.1875 0 2.140625 0.546875q0.96875 0.53125 1.5 1.515625q0.546875 0.96875 0.546875 2.21875q0 1.265625 -0.546875 2.25q-0.53125 0.96875 -1.484375 1.5q-0.953125 0.53125 -2.15625 0.53125q-1.03125 0 -1.859375 -0.421875q-0.8125 -0.421875 -1.34375 -1.234375l0 4.6875l-1.140625 0l0 -11.53125l1.09375 0l0 1.671875q0.515625 -0.828125 1.34375 -1.28125q0.84375 -0.453125 1.90625 -0.453125zm-0.078125 7.5625q0.875 0 1.59375 -0.40625q0.71875 -0.421875 1.125 -1.171875q0.40625 -0.75 0.40625 -1.703125q0 -0.96875 -0.40625 -1.703125q-0.40625 -0.75 -1.125 -1.15625q-0.71875 -0.421875 -1.59375 -0.421875q-0.90625 0 -1.625 0.421875q-0.703125 0.40625 -1.109375 1.15625q-0.40625 0.734375 -0.40625 1.703125q0 0.953125 0.40625 1.703125q0.40625 0.75 1.109375 1.171875q0.71875 0.40625 1.625 0.40625zm13.910522 -2.9375l-7.03125 0q0.09375 1.3125 1.0 2.125q0.921875 0.8125 2.3125 0.8125q0.78125 0 1.4375 -0.28125q0.65625 -0.28125 1.140625 -0.828125l0.640625 0.734375q-0.5625 0.671875 -1.40625 1.03125q-0.84375 0.34375 -1.84375 0.34375q-1.296875 0 -2.296875 -0.546875q-1.0 -0.5625 -1.5625 -1.53125q-0.5625 -0.96875 -0.5625 -2.203125q0 -1.234375 0.53125 -2.203125q0.546875 -0.984375 1.484375 -1.53125q0.9375 -0.546875 2.09375 -0.546875q1.171875 0 2.09375 0.546875q0.9375 0.546875 1.453125 1.515625q0.53125 0.96875 0.53125 2.21875l-0.015625 0.34375zm-4.0625 -3.640625q-1.21875 0 -2.046875 0.78125q-0.8125 0.765625 -0.921875 2.015625l5.96875 0q-0.109375 -1.25 -0.9375 -2.015625q-0.828125 -0.78125 -2.0625 -0.78125zm6.3983765 -4.375l1.140625 0l0 11.875l-1.140625 0l0 -11.875zm4.304016 3.453125l1.140625 0l0 8.421875l-1.140625 0l0 -8.421875zm0.578125 -1.828125q-0.359375 0 -0.59375 -0.234375q-0.234375 -0.25 -0.234375 -0.59375q0 -0.3125 0.234375 -0.546875q0.234375 -0.25 0.59375 -0.25q0.34375 0 0.578125 0.234375q0.25 0.234375 0.25 0.546875q0 0.359375 -0.25 0.609375q-0.234375 0.234375 -0.578125 0.234375zm8.022766 1.765625q1.578125 0 2.515625 0.921875q0.9375 0.921875 0.9375 2.6875l0 4.875l-1.140625 0l0 -4.765625q0 -1.3125 -0.65625 -2.0q-0.65625 -0.6875 -1.875 -0.6875q-1.359375 0 -2.15625 0.8125q-0.78125 0.796875 -0.78125 2.21875l0 4.421875l-1.140625 0l0 -8.421875l1.09375 0l0 1.5625q0.46875 -0.765625 1.28125 -1.1875q0.828125 -0.4375 1.921875 -0.4375zm13.895264 4.625l-7.03125 0q0.09375 1.3125 1.0 2.125q0.921875 0.8125 2.3125 0.8125q0.78125 0 1.4375 -0.28125q0.65625 -0.28125 1.140625 -0.828125l0.640625 0.734375q-0.5625 0.671875 -1.40625 1.03125q-0.84375 0.34375 -1.84375 0.34375q-1.296875 0 -2.296875 -0.546875q-1.0 -0.5625 -1.5625 -1.53125q-0.5625 -0.96875 -0.5625 -2.203125q0 -1.234375 0.53125 -2.203125q0.546875 -0.984375 1.484375 -1.53125q0.9375 -0.546875 2.09375 -0.546875q1.171875 0 2.09375 0.546875q0.9375 0.546875 1.453125 1.515625q0.53125 0.96875 0.53125 2.21875l-0.015625 0.34375zm-4.0625 -3.640625q-1.21875 0 -2.046875 0.78125q-0.8125 0.765625 -0.921875 2.015625l5.96875 0q-0.109375 -1.25 -0.9375 -2.015625q-0.828125 -0.78125 -2.0625 -0.78125z" fill-rule="nonzero"/><path fill="#000000" fill-opacity="0.0" d="m641.8294 181.90552l39.24646 0l0 77.22833l50.989746 0" fill-rule="evenodd"/><path stroke="#000000" stroke-width="2.0" stroke-linejoin="round" stroke-linecap="butt" d="m641.8294 181.90552l39.2464 0l0 77.22833l38.989807 0" fill-rule="evenodd"/><path fill="#000000" stroke="#000000" stroke-width="2.0" stroke-linecap="butt" d="m720.0656 262.43732l9.076172 -3.3034668l-9.076172 -3.3034515z" fill-rule="evenodd"/><path fill="#000000" fill-opacity="0.0" d="m641.8294 358.90027l40.27002 0l0 -75.77954l49.46228 0" fill-rule="evenodd"/><path stroke="#000000" stroke-width="2.0" stroke-linejoin="round" stroke-linecap="butt" d="m641.8294 358.90027l40.27002 0l0 -75.77954l37.46228 0" fill-rule="evenodd"/><path fill="#000000" stroke="#000000" stroke-width="2.0" stroke-linecap="butt" d="m719.5617 286.4242l9.076172 -3.3034668l-9.076172 -3.3034668z" fill-rule="evenodd"/><path fill="#000000" fill-opacity="0.0" d="m703.87823 112.543304l202.67712 0l0 43.11812l-202.67712 0z" fill-rule="evenodd"/><path fill="#000000" d="m721.722 133.91893l-6.234375 0l-1.34375 2.984375l-1.234375 0l5.125 -11.203125l1.15625 0l5.125 11.203125l-1.25 0l-1.34375 -2.984375zm-0.421875 -0.96875l-2.6875 -6.015625l-2.6875 6.015625l5.375 0zm8.048279 4.03125q-1.25 0 -2.234375 -0.546875q-0.984375 -0.546875 -1.546875 -1.515625q-0.5625 -0.984375 -0.5625 -2.21875q0 -1.234375 0.5625 -2.203125q0.5625 -0.984375 1.546875 -1.53125q0.984375 -0.546875 2.234375 -0.546875q1.078125 0 1.9375 0.4375q0.859375 0.421875 1.359375 1.234375l-0.859375 0.578125q-0.40625 -0.625 -1.046875 -0.9375q-0.640625 -0.3125 -1.390625 -0.3125q-0.921875 0 -1.65625 0.40625q-0.71875 0.40625 -1.125 1.15625q-0.40625 0.75 -0.40625 1.71875q0 0.96875 0.40625 1.71875q0.40625 0.734375 1.125 1.15625q0.734375 0.40625 1.65625 0.40625q0.75 0 1.390625 -0.296875q0.640625 -0.3125 1.046875 -0.9375l0.859375 0.578125q-0.5 0.8125 -1.375 1.234375q-0.859375 0.421875 -1.921875 0.421875zm10.041504 -0.59375q-0.3125 0.296875 -0.796875 0.453125q-0.46875 0.140625 -0.984375 0.140625q-1.171875 0 -1.8125 -0.640625q-0.640625 -0.640625 -0.640625 -1.8125l0 -5.078125l-1.515625 0l0 -0.96875l1.515625 0l0 -1.828125l1.125 0l0 1.828125l2.5625 0l0 0.96875l-2.5625 0l0 5.015625q0 0.75 0.375 1.15625q0.375 0.390625 1.09375 0.390625q0.34375 0 0.671875 -0.109375q0.328125 -0.125 0.5625 -0.328125l0.40625 0.8125zm2.0584717 -7.90625l1.140625 0l0 8.421875l-1.140625 0l0 -8.421875zm0.578125 -1.828125q-0.359375 0 -0.59375 -0.234375q-0.234375 -0.25 -0.234375 -0.59375q0 -0.3125 0.234375 -0.546875q0.234375 -0.25 0.59375 -0.25q0.34375 0 0.578125 0.234375q0.25 0.234375 0.25 0.546875q0 0.359375 -0.25 0.609375q-0.234375 0.234375 -0.578125 0.234375zm10.804016 1.828125l-3.75 8.421875l-1.15625 0l-3.734375 -8.421875l1.1875 0l3.15625 7.171875l3.171875 -7.171875l1.125 0zm8.682007 4.5625l-7.03125 0q0.09375 1.3125 1.0 2.125q0.921875 0.8125 2.3125 0.8125q0.78125 0 1.4375 -0.28125q0.65625 -0.28125 1.140625 -0.828125l0.640625 0.734375q-0.5625 0.671875 -1.40625 1.03125q-0.84375 0.34375 -1.84375 0.34375q-1.296875 0 -2.296875 -0.546875q-1.0 -0.5625 -1.5625 -1.53125q-0.5625 -0.96875 -0.5625 -2.203125q0 -1.234375 0.53125 -2.203125q0.546875 -0.984375 1.484375 -1.53125q0.9375 -0.546875 2.09375 -0.546875q1.171875 0 2.09375 0.546875q0.9375 0.546875 1.453125 1.515625q0.53125 0.96875 0.53125 2.21875l-0.015625 0.34375zm-4.0625 -3.640625q-1.21875 0 -2.046875 0.78125q-0.8125 0.765625 -0.921875 2.015625l5.96875 0q-0.109375 -1.25 -0.9375 -2.015625q-0.828125 -0.78125 -2.0625 -0.78125zm15.027893 -3.703125q2.140625 0 3.359375 1.03125q1.21875 1.015625 1.21875 2.8125q0 1.796875 -1.21875 2.8125q-1.21875 1.015625 -3.359375 1.015625l-3.0 0l0 3.53125l-1.1875 0l0 -11.203125l4.1875 0zm-0.03125 6.625q1.65625 0 2.53125 -0.71875q0.890625 -0.734375 0.890625 -2.0625q0 -1.359375 -0.890625 -2.078125q-0.875 -0.734375 -2.53125 -0.734375l-2.96875 0l0 5.59375l2.96875 0zm6.713806 -3.84375l1.140625 0l0 8.421875l-1.140625 0l0 -8.421875zm0.578125 -1.828125q-0.359375 0 -0.59375 -0.234375q-0.234375 -0.25 -0.234375 -0.59375q0 -0.3125 0.234375 -0.546875q0.234375 -0.25 0.59375 -0.25q0.34375 0 0.578125 0.234375q0.25 0.234375 0.25 0.546875q0 0.359375 -0.25 0.609375q-0.234375 0.234375 -0.578125 0.234375zm8.069641 1.765625q1.1875 0 2.140625 0.546875q0.96875 0.53125 1.5 1.515625q0.546875 0.96875 0.546875 2.21875q0 1.265625 -0.546875 2.25q-0.53125 0.96875 -1.484375 1.5q-0.953125 0.53125 -2.15625 0.53125q-1.03125 0 -1.859375 -0.421875q-0.8125 -0.421875 -1.34375 -1.234375l0 4.6875l-1.140625 0l0 -11.53125l1.09375 0l0 1.671875q0.515625 -0.828125 1.34375 -1.28125q0.84375 -0.453125 1.90625 -0.453125zm-0.078125 7.5625q0.875 0 1.59375 -0.40625q0.71875 -0.421875 1.125 -1.171875q0.40625 -0.75 0.40625 -1.703125q0 -0.96875 -0.40625 -1.703125q-0.40625 -0.75 -1.125 -1.15625q-0.71875 -0.421875 -1.59375 -0.421875q-0.90625 0 -1.625 0.421875q-0.703125 0.40625 -1.109375 1.15625q-0.40625 0.734375 -0.40625 1.703125q0 0.953125 0.40625 1.703125q0.40625 0.75 1.109375 1.171875q0.71875 0.40625 1.625 0.40625zm13.910522 -2.9375l-7.03125 0q0.09375 1.3125 1.0 2.125q0.921875 0.8125 2.3125 0.8125q0.78125 0 1.4375 -0.28125q0.65625 -0.28125 1.140625 -0.828125l0.640625 0.734375q-0.5625 0.671875 -1.40625 1.03125q-0.84375 0.34375 -1.84375 0.34375q-1.296875 0 -2.296875 -0.546875q-1.0 -0.5625 -1.5625 -1.53125q-0.5625 -0.96875 -0.5625 -2.203125q0 -1.234375 0.53125 -2.203125q0.546875 -0.984375 1.484375 -1.53125q0.9375 -0.546875 2.09375 -0.546875q1.171875 0 2.09375 0.546875q0.9375 0.546875 1.453125 1.515625q0.53125 0.96875 0.53125 2.21875l-0.015625 0.34375zm-4.0625 -3.640625q-1.21875 0 -2.046875 0.78125q-0.8125 0.765625 -0.921875 2.015625l5.96875 0q-0.109375 -1.25 -0.9375 -2.015625q-0.828125 -0.78125 -2.0625 -0.78125zm6.3983765 -4.375l1.140625 0l0 11.875l-1.140625 0l0 -11.875zm4.304016 3.453125l1.140625 0l0 8.421875l-1.140625 0l0 -8.421875zm0.578125 -1.828125q-0.359375 0 -0.59375 -0.234375q-0.234375 -0.25 -0.234375 -0.59375q0 -0.3125 0.234375 -0.546875q0.234375 -0.25 0.59375 -0.25q0.34375 0 0.578125 0.234375q0.25 0.234375 0.25 0.546875q0 0.359375 -0.25 0.609375q-0.234375 0.234375 -0.578125 0.234375zm8.022766 1.765625q1.578125 0 2.515625 0.921875q0.9375 0.921875 0.9375 2.6875l0 4.875l-1.140625 0l0 -4.765625q0 -1.3125 -0.65625 -2.0q-0.65625 -0.6875 -1.875 -0.6875q-1.359375 0 -2.15625 0.8125q-0.78125 0.796875 -0.78125 2.21875l0 4.421875l-1.140625 0l0 -8.421875l1.09375 0l0 1.5625q0.46875 -0.765625 1.28125 -1.1875q0.828125 -0.4375 1.921875 -0.4375zm13.895264 4.625l-7.03125 0q0.09375 1.3125 1.0 2.125q0.921875 0.8125 2.3125 0.8125q0.78125 0 1.4375 -0.28125q0.65625 -0.28125 1.140625 -0.828125l0.640625 0.734375q-0.5625 0.671875 -1.40625 1.03125q-0.84375 0.34375 -1.84375 0.34375q-1.296875 0 -2.296875 -0.546875q-1.0 -0.5625 -1.5625 -1.53125q-0.5625 -0.96875 -0.5625 -2.203125q0 -1.234375 0.53125 -2.203125q0.546875 -0.984375 1.484375 -1.53125q0.9375 -0.546875 2.09375 -0.546875q1.171875 0 2.09375 0.546875q0.9375 0.546875 1.453125 1.515625q0.53125 0.96875 0.53125 2.21875l-0.015625 0.34375zm-4.0625 -3.640625q-1.21875 0 -2.046875 0.78125q-0.8125 0.765625 -0.921875 2.015625l5.96875 0q-0.109375 -1.25 -0.9375 -2.015625q-0.828125 -0.78125 -2.0625 -0.78125z" fill-rule="nonzero"/><path fill="#000000" fill-opacity="0.0" d="m131.11417 120.738846l232.66144 0l0 28.34645l-232.66144 0z" fill-rule="evenodd"/><path fill="#000000" d="m141.94229 133.89572l4.5625 0q1.765625 0 3.125 0.71875q1.359375 0.703125 2.109375 1.984375q0.765625 1.265625 0.765625 2.90625q0 1.625 -0.765625 2.90625q-0.75 1.265625 -2.109375 1.984375q-1.359375 0.703125 -3.125 0.703125l-4.5625 0l0 -11.203125zm4.484375 10.171875q1.484375 0 2.578125 -0.578125q1.109375 -0.578125 1.71875 -1.609375q0.609375 -1.03125 0.609375 -2.375q0 -1.34375 -0.609375 -2.375q-0.609375 -1.046875 -1.71875 -1.625q-1.09375 -0.578125 -2.578125 -0.578125l-3.296875 0l0 9.140625l3.296875 0zm15.809784 -2.828125l-7.03125 0q0.09375 1.3125 1.0 2.125q0.921875 0.8125 2.3125 0.8125q0.78125 0 1.4375 -0.28125q0.65625 -0.28125 1.140625 -0.828125l0.640625 0.734375q-0.5625 0.671875 -1.40625 1.03125q-0.84375 0.34375 -1.84375 0.34375q-1.296875 0 -2.296875 -0.546875q-1.0 -0.5625 -1.5625 -1.53125q-0.5625 -0.96875 -0.5625 -2.203125q0 -1.234375 0.53125 -2.203125q0.546875 -0.984375 1.484375 -1.53125q0.9375 -0.546875 2.09375 -0.546875q1.171875 0 2.09375 0.546875q0.9375 0.546875 1.453125 1.515625q0.53125 0.96875 0.53125 2.21875l-0.015625 0.34375zm-4.0625 -3.640625q-1.21875 0 -2.046875 0.78125q-0.8125 0.765625 -0.921875 2.015625l5.96875 0q-0.109375 -1.25 -0.9375 -2.015625q-0.828125 -0.78125 -2.0625 -0.78125zm13.316513 -0.921875l-3.75 8.421875l-1.15625 0l-3.734375 -8.421875l1.1875 0l3.15625 7.171875l3.171875 -7.171875l1.125 0zm8.682007 4.5625l-7.03125 0q0.09375 1.3125 1.0 2.125q0.921875 0.8125 2.3125 0.8125q0.78125 0 1.4375 -0.28125q0.65625 -0.28125 1.140625 -0.828125l0.640625 0.734375q-0.5625 0.671875 -1.40625 1.03125q-0.84375 0.34375 -1.84375 0.34375q-1.296875 0 -2.296875 -0.546875q-1.0 -0.5625 -1.5625 -1.53125q-0.5625 -0.96875 -0.5625 -2.203125q0 -1.234375 0.53125 -2.203125q0.546875 -0.984375 1.484375 -1.53125q0.9375 -0.546875 2.09375 -0.546875q1.171875 0 2.09375 0.546875q0.9375 0.546875 1.453125 1.515625q0.53125 0.96875 0.53125 2.21875l-0.015625 0.34375zm-4.0625 -3.640625q-1.21875 0 -2.046875 0.78125q-0.8125 0.765625 -0.921875 2.015625l5.96875 0q-0.109375 -1.25 -0.9375 -2.015625q-0.828125 -0.78125 -2.0625 -0.78125zm6.3983917 -4.375l1.140625 0l0 11.875l-1.140625 0l0 -11.875zm7.757141 11.953125q-1.21875 0 -2.203125 -0.546875q-0.96875 -0.5625 -1.53125 -1.53125q-0.5625 -0.96875 -0.5625 -2.203125q0 -1.234375 0.5625 -2.203125q0.5625 -0.984375 1.53125 -1.53125q0.984375 -0.546875 2.203125 -0.546875q1.203125 0 2.171875 0.546875q0.984375 0.546875 1.53125 1.53125q0.5625 0.96875 0.5625 2.203125q0 1.234375 -0.5625 2.203125q-0.546875 0.96875 -1.53125 1.53125q-0.96875 0.546875 -2.171875 0.546875zm0 -1.0q0.890625 0 1.59375 -0.40625q0.71875 -0.421875 1.109375 -1.171875q0.40625 -0.75 0.40625 -1.703125q0 -0.96875 -0.40625 -1.71875q-0.390625 -0.75 -1.109375 -1.15625q-0.703125 -0.40625 -1.59375 -0.40625q-0.90625 0 -1.625 0.40625q-0.703125 0.40625 -1.109375 1.15625q-0.40625 0.75 -0.40625 1.71875q0 0.953125 0.40625 1.703125q0.40625 0.75 1.109375 1.171875q0.71875 0.40625 1.625 0.40625zm10.922638 -7.5625q1.1875 0 2.140625 0.546875q0.96875 0.53125 1.5 1.515625q0.546875 0.96875 0.546875 2.21875q0 1.265625 -0.546875 2.25q-0.53125 0.96875 -1.484375 1.5q-0.953125 0.53125 -2.15625 0.53125q-1.03125 0 -1.859375 -0.421875q-0.8125 -0.421875 -1.34375 -1.234375l0 4.6875l-1.140625 0l0 -11.53125l1.09375 0l0 1.671875q0.515625 -0.828125 1.34375 -1.28125q0.84375 -0.453125 1.90625 -0.453125zm-0.078125 7.5625q0.875 0 1.59375 -0.40625q0.71875 -0.421875 1.125 -1.171875q0.40625 -0.75 0.40625 -1.703125q0 -0.96875 -0.40625 -1.703125q-0.40625 -0.75 -1.125 -1.15625q-0.71875 -0.421875 -1.59375 -0.421875q-0.90625 0 -1.625 0.421875q-0.703125 0.40625 -1.109375 1.15625q-0.40625 0.734375 -0.40625 1.703125q0 0.953125 0.40625 1.703125q0.40625 0.75 1.109375 1.171875q0.71875 0.40625 1.625 0.40625zm17.082397 -7.5625q1.578125 0 2.484375 0.921875q0.90625 0.90625 0.90625 2.6875l0 4.875l-1.125 0l0 -4.765625q0 -1.3125 -0.640625 -2.0q-0.625 -0.6875 -1.78125 -0.6875q-1.3125 0 -2.0625 0.8125q-0.75 0.796875 -0.75 2.21875l0 4.421875l-1.140625 0l0 -4.765625q0 -1.3125 -0.640625 -2.0q-0.625 -0.6875 -1.796875 -0.6875q-1.296875 0 -2.0625 0.8125q-0.75 0.796875 -0.75 2.21875l0 4.421875l-1.140625 0l0 -8.421875l1.09375 0l0 1.546875q0.453125 -0.765625 1.25 -1.1875q0.796875 -0.421875 1.84375 -0.421875q1.046875 0 1.828125 0.453125q0.78125 0.453125 1.15625 1.328125q0.46875 -0.828125 1.328125 -1.296875q0.875 -0.484375 2.0 -0.484375zm13.836151 4.625l-7.03125 0q0.09375 1.3125 1.0 2.125q0.921875 0.8125 2.3125 0.8125q0.78125 0 1.4375 -0.28125q0.65625 -0.28125 1.140625 -0.828125l0.640625 0.734375q-0.5625 0.671875 -1.40625 1.03125q-0.84375 0.34375 -1.84375 0.34375q-1.296875 0 -2.296875 -0.546875q-1.0 -0.5625 -1.5625 -1.53125q-0.5625 -0.96875 -0.5625 -2.203125q0 -1.234375 0.53125 -2.203125q0.546875 -0.984375 1.484375 -1.53125q0.9375 -0.546875 2.09375 -0.546875q1.171875 0 2.09375 0.546875q0.9375 0.546875 1.453125 1.515625q0.53125 0.96875 0.53125 2.21875l-0.015625 0.34375zm-4.0625 -3.640625q-1.21875 0 -2.046875 0.78125q-0.8125 0.765625 -0.921875 2.015625l5.96875 0q-0.109375 -1.25 -0.9375 -2.015625q-0.828125 -0.78125 -2.0625 -0.78125zm10.695267 -0.984375q1.578125 0 2.515625 0.921875q0.9375 0.921875 0.9375 2.6875l0 4.875l-1.140625 0l0 -4.765625q0 -1.3125 -0.65625 -2.0q-0.65625 -0.6875 -1.875 -0.6875q-1.359375 0 -2.15625 0.8125q-0.78125 0.796875 -0.78125 2.21875l0 4.421875l-1.140625 0l0 -8.421875l1.09375 0l0 1.5625q0.46875 -0.765625 1.28125 -1.1875q0.828125 -0.4375 1.921875 -0.4375zm10.972641 7.96875q-0.3125 0.296875 -0.796875 0.453125q-0.46875 0.140625 -0.984375 0.140625q-1.171875 0 -1.8125 -0.640625q-0.640625 -0.640625 -0.640625 -1.8125l0 -5.078125l-1.515625 0l0 -0.96875l1.515625 0l0 -1.828125l1.125 0l0 1.828125l2.5625 0l0 0.96875l-2.5625 0l0 5.015625q0 0.75 0.375 1.15625q0.375 0.390625 1.09375 0.390625q0.34375 0 0.671875 -0.109375q0.328125 -0.125 0.5625 -0.328125l0.40625 0.8125zm21.875519 -10.6875l-3.78125 11.203125l-1.25 0l-3.28125 -9.546875l-3.296875 9.546875l-1.21875 0l-3.78125 -11.203125l1.21875 0l3.234375 9.640625l3.34375 -9.640625l1.09375 0l3.296875 9.6875l3.28125 -9.6875l1.140625 0zm4.7241516 11.28125q-1.21875 0 -2.203125 -0.546875q-0.96875 -0.5625 -1.53125 -1.53125q-0.5625 -0.96875 -0.5625 -2.203125q0 -1.234375 0.5625 -2.203125q0.5625 -0.984375 1.53125 -1.53125q0.984375 -0.546875 2.203125 -0.546875q1.203125 0 2.171875 0.546875q0.984375 0.546875 1.53125 1.53125q0.5625 0.96875 0.5625 2.203125q0 1.234375 -0.5625 2.203125q-0.546875 0.96875 -1.53125 1.53125q-0.96875 0.546875 -2.171875 0.546875zm0 -1.0q0.890625 0 1.59375 -0.40625q0.71875 -0.421875 1.109375 -1.171875q0.40625 -0.75 0.40625 -1.703125q0 -0.96875 -0.40625 -1.71875q-0.390625 -0.75 -1.109375 -1.15625q-0.703125 -0.40625 -1.59375 -0.40625q-0.90625 0 -1.625 0.40625q-0.703125 0.40625 -1.109375 1.15625q-0.40625 0.75 -0.40625 1.71875q0 0.953125 0.40625 1.703125q0.40625 0.75 1.109375 1.171875q0.71875 0.40625 1.625 0.40625zm7.672638 -5.84375q0.40625 -0.84375 1.1875 -1.28125q0.796875 -0.4375 1.96875 -0.4375l0 1.109375l-0.28125 -0.015625q-1.328125 0 -2.078125 0.8125q-0.75 0.8125 -0.75 2.296875l0 4.28125l-1.140625 0l0 -8.421875l1.09375 0l0 1.65625zm8.319275 2.546875l-1.984375 1.8125l0 2.40625l-1.140625 0l0 -11.875l1.140625 0l0 8.046875l5.03125 -4.59375l1.40625 0l-3.609375 3.453125l3.9375 4.96875l-1.390625 0l-3.390625 -4.21875zm9.287872 -6.765625q-0.75 0 -1.125 0.40625q-0.375 0.390625 -0.375 1.171875l0 0.984375l2.59375 0l0 0.96875l-2.5625 0l0 7.453125l-1.125 0l0 -7.453125l-1.515625 0l0 -0.96875l1.515625 0l0 -1.03125q0 -1.15625 0.65625 -1.828125q0.671875 -0.671875 1.875 -0.671875q0.484375 0 0.9375 0.140625q0.453125 0.125 0.75 0.390625l-0.390625 0.84375q-0.484375 -0.40625 -1.234375 -0.40625zm2.625 -0.890625l1.140625 0l0 11.875l-1.140625 0l0 -11.875zm7.7592773 11.953125q-1.21875 0 -2.203125 -0.546875q-0.96875 -0.5625 -1.53125 -1.53125q-0.5625 -0.96875 -0.5625 -2.203125q0 -1.234375 0.5625 -2.203125q0.5625 -0.984375 1.53125 -1.53125q0.984375 -0.546875 2.203125 -0.546875q1.203125 0 2.171875 0.546875q0.984375 0.546875 1.53125 1.53125q0.5625 0.96875 0.5625 2.203125q0 1.234375 -0.5625 2.203125q-0.546875 0.96875 -1.53125 1.53125q-0.96875 0.546875 -2.171875 0.546875zm0 -1.0q0.890625 0 1.59375 -0.40625q0.71875 -0.421875 1.109375 -1.171875q0.40625 -0.75 0.40625 -1.703125q0 -0.96875 -0.40625 -1.71875q-0.390625 -0.75 -1.109375 -1.15625q-0.703125 -0.40625 -1.59375 -0.40625q-0.90625 0 -1.625 0.40625q-0.703125 0.40625 -1.109375 1.15625q-0.40625 0.75 -0.40625 1.71875q0 0.953125 0.40625 1.703125q0.40625 0.75 1.109375 1.171875q0.71875 0.40625 1.625 0.40625zm18.698273 -7.5l-3.1875 8.421875l-1.0625 0l-2.65625 -6.890625l-2.65625 6.890625l-1.078125 0l-3.171875 -8.421875l1.09375 0l2.640625 7.15625l2.703125 -7.15625l0.96875 0l2.6875 7.15625l2.671875 -7.15625l1.046875 0z" fill-rule="nonzero"/></g></svg>
