<?xml version="1.0" encoding="UTF-8"?>
<svg width="14px" height="23px" viewBox="0 0 14 23" version="1.1" xmlns="http://www.w3.org/2000/svg" xmlns:xlink="http://www.w3.org/1999/xlink">
    <title>D07EDBEC-713D-4404-ACC0-1817718EEE1E</title>
    <defs>
        <linearGradient x1="90.5103601%" y1="46.8981282%" x2="0%" y2="58.0611603%" id="linearGradient-1">
            <stop stop-color="#FE9B7C" offset="0%"></stop>
            <stop stop-color="#D06868" offset="100%"></stop>
        </linearGradient>
        <radialGradient cx="41.0573244%" cy="27.7365625%" fx="41.0573244%" fy="27.7365625%" r="60.073125%" gradientTransform="translate(0.410573,0.277366),scale(0.249073,1.000000),rotate(90.000000),scale(1.000000,3.070308),translate(-0.410573,-0.277366)" id="radialGradient-2">
            <stop stop-color="#000000" stop-opacity="0.5" offset="0%"></stop>
            <stop stop-color="#000000" stop-opacity="0" offset="100%"></stop>
        </radialGradient>
        <polygon id="path-3" points="3.17597274 0.00788421471 0.834562181 0.0105122863 -1.01153217e-13 0.798933757 2.55005111 0.796305686"></polygon>
        <linearGradient x1="39.3363049%" y1="101.288192%" x2="62.0724469%" y2="13.5277803%" id="linearGradient-4">
            <stop stop-color="#4C416C" offset="0%"></stop>
            <stop stop-color="#4F7995" offset="100%"></stop>
        </linearGradient>
        <path d="M9.83561667,2.48168798 C8.97506715,1.94051549 9.22895951,0.484800363 9.22895951,0.484800363 C9.22895951,0.484800363 9.27511543,0.116844062 9.04326942,0.0644140342 C8.81142341,0.0120365678 8.7418302,-0.0667530179 8.76526749,0.406273584 C8.78872796,0.879326467 8.53724656,2.19354622 9.23308596,2.87634549 C9.74140387,3.3751272 10.4619788,3.2696364 10.9724295,4.05771622 C11.4806546,4.84230071 10.7775128,5.94548631 10.6230261,6.02903271 C10.1363372,6.29218152 10.1595659,6.3972781 9.76551344,6.45012862 C9.37143782,6.50297914 8.33094742,6.37231142 7.75152944,6.60925835 C7.17208829,6.84620528 7.33172149,7.0826266 6.77557852,7.47723155 C6.21943556,7.87186278 5.29242243,8.39813411 4.89860181,8.89775679 C4.74492646,9.09273342 4.64088437,9.31964112 4.58056407,9.54110871 C4.20716705,9.66859647 3.37705586,9.79566373 2.72299094,10.2133431 C2.33976462,10.4580954 1.33063985,11.245492 0.869405152,12.0017984 C0.45251816,12.6853861 0.244341261,13.500246 0.128823945,14.2099041 C0.0573066031,14.6492389 0.0136311823,15.4977381 0.0138165767,16.0233524 C0.0142339216,16.5410299 0.080124924,16.9536897 0.160474716,17.4619062 C0.196247953,17.6881726 0.229513655,18.0812792 0.229513655,18.3344785 C0.229513655,18.5876778 0.160474716,18.6491869 0.160474716,18.8253463 C0.160474716,19.0015058 0.208776379,19.0562265 0.245938212,19.0990867 C0.283100045,19.1419468 0.245938212,18.9663836 0.245938212,18.9196772 C0.245938212,18.8729708 0.300982195,18.7493206 0.317782914,18.7893387 C0.334583633,18.8293567 0.315253419,18.7925048 0.300350924,18.9937713 C0.285448429,19.1950378 0.432245435,19.5749498 0.432245435,19.402611 C0.432245435,19.2302721 0.432245435,18.9937713 0.467248078,18.890676 C0.502250722,18.7875806 0.504166543,18.8665383 0.504166543,18.890676 C0.504166543,18.9148137 0.494955321,18.9721263 0.51758295,18.960343 C0.540210578,18.9485596 0.580292836,18.9016822 0.540210578,18.6674952 C0.500128321,18.4333082 0.476354267,18.4333082 0.462224026,18.3344785 C0.414008138,17.997247 0.414573297,17.8277716 0.385730003,17.5999325 C0.339156797,17.2320288 0.315325411,16.0757036 0.338299053,15.6814665 C0.373420211,15.0783241 0.509778399,15.0083911 0.569681417,14.8928874 C0.665076511,14.7088435 0.75940522,16.0054289 1.17367261,17.1525822 C1.5247451,18.1247058 2.00879117,18.1243642 2.19436534,18.3344785 C2.37993952,18.5445928 2.03273847,19.4646807 2.17220308,20.1215935 C2.29741059,20.7114641 2.12637171,21.0940062 2.172829,21.2516642 C2.2192863,21.409296 2.77575381,21.5926512 3.1930349,21.5926512 C3.61031599,21.5922623 4.12025667,21.4604908 4.12014076,21.2502451 C4.1198162,20.69835 3.93442749,20.8036043 3.88785428,20.4620076 C3.84132744,20.1203845 4.32136297,19.6197106 4.37398675,19.2001653 C4.4662986,18.4642264 4.37349993,18.3066209 4.23408168,17.754831 C4.22520286,17.71972 4.16414073,17.071585 4.16414073,17.071585 C4.16414073,17.071585 4.92924879,17.2024367 5.43902719,16.807858 C6.28230591,16.1551502 6.59716767,15.0724898 6.59716767,15.0724898 C6.59716767,15.0724898 6.94358052,15.5084606 7.15389019,15.7028328 C7.45588579,15.981934 7.5940522,16.0089243 7.75683819,16.070316 C7.9655251,16.1490267 8.51921074,16.3062906 8.51921074,16.3062906 C8.51921074,16.3062906 8.24401386,16.6744308 8.08180743,16.8059395 C7.96710149,16.898947 7.638794,17.2004919 7.7084104,17.3581236 C7.77804998,17.5157554 8.00602455,17.9429221 8.24204337,18.1198702 C8.66229179,18.4349234 9.0100724,18.5397835 9.12598381,18.5134502 C9.24187204,18.4870906 9.37769704,17.6197219 9.53988029,17.4619062 C9.70206354,17.3041168 10.0059369,16.7782659 9.98259234,16.515485 C9.95973461,16.2579603 9.91232684,15.2540633 9.33258431,14.8865537 C9.01781528,14.6870305 8.62582606,14.5738921 8.47426029,13.888491 C8.33481886,13.2578589 7.45366029,12.8379982 7.45366029,12.8379982 C7.73291407,12.3851289 8.200918,11.796073 8.32552277,11.6412007 C8.46097684,11.7174148 8.58627708,11.7668488 8.72527805,11.759569 C8.97766356,11.7464024 8.90055929,11.4309287 8.75546138,10.9978225 L8.79723586,11.0762179 C8.79723586,11.0762179 9.24674032,10.7659478 9.39960429,10.4187795 C9.56167163,10.0507444 9.97848908,9.20944608 10.3261538,9.0777797 C10.7273927,8.92585088 11.4385788,8.49881553 11.3689392,8.3411838 C11.2712259,8.11995273 10.6501494,8.10518297 10.6501494,8.10518297 C10.6501494,8.10518297 11.4438875,7.76687132 11.4844797,7.68408706 C11.8076176,7.02483531 12.2628017,5.79447732 11.9926354,4.39860339 C11.6671561,2.71690039 10.2530369,2.74417977 9.83561667,2.48168798 Z" id="path-5"></path>
        <path d="M0.869428334,2.52654917 C0.45251816,3.21013686 0.244341261,4.02497045 0.128823945,4.7346549 C0.0573066031,5.1740159 0.0136543646,6.02248881 0.0138927224,6.54810313 C0.0142339216,7.06575438 0.0735805656,7.6428789 0.153907175,8.15112166 C0.270259053,8.88690286 0.409816395,9.72780692 0.502545526,9.70144736 C0.547495973,9.68864865 0.483976518,8.9007528 0.385730003,8.12468326 C0.33917998,7.75677952 0.315325411,6.60045431 0.338299053,6.20621729 C0.373420211,5.60307487 0.509778399,5.53316817 0.569681417,5.41763814 C0.665076511,5.23359429 0.75940522,6.53017968 1.1736958,7.6773592 C1.5247451,8.64948287 2.00879117,8.64911494 2.19438852,8.85922926 C2.37993952,9.06934359 2.03271528,9.98943144 2.1721799,10.6463442 C2.29743377,11.2362149 2.12637171,11.618757 2.172829,11.7763887 C2.21926311,11.934073 2.77575381,12.1176175 3.1930349,12.1173158 C3.61031599,12.1170131 4.12025667,11.9852678 4.12014076,11.7749958 C4.1198162,11.2231008 3.93442749,11.3283551 3.88787747,10.9867583 C3.84130426,10.6451353 4.32136297,10.1444614 4.37398675,9.72494232 C4.4662986,8.98897716 4.37347674,8.83139799 4.23408168,8.2795818 C4.22520286,8.24447076 4.16416391,7.59633575 4.16416391,7.59633575 C4.16416391,7.59633575 4.92924879,7.72718744 5.43902719,7.33260877 C6.28228273,6.67990091 6.59716767,5.59724055 6.59716767,5.59724055 C6.59716767,5.59724055 6.94358052,6.03321134 7.15389019,6.22758352 C7.45588579,6.50668472 7.59402902,6.53367501 7.75683819,6.59506676 C7.9655251,6.67377751 8.51921074,6.83104131 8.51921074,6.83104131 C8.51921074,6.83104131 8.24401386,7.19918158 8.08180743,7.33069028 C7.96710149,7.42369773 7.638794,7.72521638 7.7084104,7.8828744 C7.77804998,8.04047985 8.00600136,8.4676466 8.24204337,8.64462094 C8.66226861,8.95967416 9.0100724,9.0645605 9.12598381,9.03817466 C9.24184886,9.01184138 9.37769704,8.14447264 9.53988029,7.98665694 C9.70206354,7.82886752 10.0059137,7.30301668 9.98259234,7.04023581 C9.95973461,6.78271107 9.91232684,5.77881402 9.33258431,5.41127821 C9.0177921,5.21178129 8.62582606,5.09864281 8.47426029,4.41326803 C8.33481886,3.78260969 7.45366029,3.36274898 7.45366029,3.36274898 C7.77791088,2.83689814 8.35707385,2.12689832 8.35707385,2.12689832 L4.70468202,0.01395506 C4.43284657,0.164569842 3.46456898,0.264515404 2.72299094,0.738093901 C2.33976462,0.982846206 1.33063985,1.77024273 0.869428334,2.52654917 Z" id="path-7"></path>
        <filter x="-31.2%" y="-20.8%" width="162.5%" height="141.7%" filterUnits="objectBoundingBox" id="filter-9">
            <feOffset dx="0" dy="0" in="SourceAlpha" result="shadowOffsetOuter1"></feOffset>
            <feGaussianBlur stdDeviation="0.5" in="shadowOffsetOuter1" result="shadowBlurOuter1"></feGaussianBlur>
            <feColorMatrix values="0 0 0 0 0   0 0 0 0 0   0 0 0 0 0  0 0 0 0.5 0" type="matrix" in="shadowBlurOuter1" result="shadowMatrixOuter1"></feColorMatrix>
            <feMerge>
                <feMergeNode in="shadowMatrixOuter1"></feMergeNode>
                <feMergeNode in="SourceGraphic"></feMergeNode>
            </feMerge>
        </filter>
        <path d="M4.73574628,2.86215391 C5.24404101,3.36093561 5.9646159,3.2554711 6.47506659,4.04352464 C6.98326859,4.82810912 6.28014996,5.93126845 6.12566322,6.01484112 C5.63897438,6.27798993 5.66222621,6.38311279 5.26815058,6.43593703 C5.13693886,6.45354511 4.93404752,6.45078563 4.70039329,6.44805244 C4.23229664,6.44253349 3.64063842,6.43704082 3.25416658,6.59506676 C2.67474861,6.83203998 2.83438181,7.06843502 2.27821566,7.46303996 C1.7220727,7.85764491 0.795059571,8.38394252 0.401238951,8.88356521 C0.00741833049,9.38318789 -0.0617344191,10.0928198 0.100727019,10.3817762 C0.263142092,10.670759 0.750155489,10.9857597 2.07156879,11.0110943 C3.39295891,11.0364026 3.71795133,11.7720261 4.22791519,11.7454037 C4.48027752,11.7322108 4.40324279,11.4167897 4.25814489,10.9837098 L4.29989618,11.0620526 C4.29989618,11.0620526 4.74935428,10.7517824 4.90224143,10.4045879 C5.06433195,10.0365265 5.48112621,9.1952545 5.82879091,9.06358811 C6.23002986,8.91165929 6.94121593,8.48462394 6.87157635,8.32699221 C6.77383985,8.10576115 6.15278649,8.09099138 6.15278649,8.09099138 C6.15278649,8.09099138 6.94652467,7.75267973 6.98711685,7.66986919 C7.31025469,7.01064372 7.76543881,5.78025945 7.49527249,4.38443808 C7.16977006,2.7027088 5.75567399,2.72998819 5.33825381,2.4674964 C4.4776811,1.9263239 4.73159665,0.470608776 4.73159665,0.470608776 C4.73159665,0.470608776 4.77775257,0.102652476 4.54590656,0.0502224477 C4.46474539,0.0318785082 4.40345143,0.0103020406 4.35908055,0.0103020406 C4.27671389,0.0103020406 4.25267387,0.0846239046 4.26790463,0.392108278 C4.29134191,0.86513488 4.03988369,2.17935463 4.73574628,2.86215391 Z" id="path-10"></path>
        <linearGradient x1="57.7780496%" y1="-2.45069434%" x2="37.1259825%" y2="98.3818098%" id="linearGradient-12">
            <stop stop-color="#5190A5" offset="0%"></stop>
            <stop stop-color="#4E6586" offset="100%"></stop>
        </linearGradient>
        <linearGradient x1="74.8850735%" y1="36.4357666%" x2="9.54062026%" y2="100%" id="linearGradient-13">
            <stop stop-color="#EFE8CD" offset="0%"></stop>
            <stop stop-color="#D3CAAF" offset="100%"></stop>
        </linearGradient>
    </defs>
    <g id="Designs" stroke="none" stroke-width="1" fill="none" fill-rule="evenodd">
        <g id="DashLanding_TeamP1" transform="translate(-34.000000, -19.000000)">
            <g id="Group" transform="translate(34.000000, 14.000000)">
                <g id="Group-Copy-9" transform="translate(0.000000, 5.000000)">
                    <g id="Group-30" transform="translate(6.212852, 18.133694)">
                        <polygon id="Fill-3" fill="#D06868" points="3.17597274 2.87309376e-14 2.55005111 0.796305686 2.55005111 3.34553511 3.17597274 2.55711364"></polygon>
                        <g id="Fill-8">
                            <use fill="url(#linearGradient-1)" xlink:href="#path-3"></use>
                            <use fill="url(#radialGradient-2)" xlink:href="#path-3"></use>
                        </g>
                        <polygon id="Fill-5" fill="#A5597E" points="2.55005111 0.788421471 -1.18588767e-13 0.791049543 -1.18588767e-13 3.34816318 2.55005111 3.34553511"></polygon>
                    </g>
                    <path d="M9.61877191,8.73672851 C9.61856327,8.59977442 9.52435047,8.02479383 10.0219582,8.00975705 C10.4196502,7.9977215 11.2491355,8.15767483 11.9605766,7.94964057 C12.7170608,7.72843765 13.4933196,6.9045387 13.5867673,7.00014932 C13.6802383,7.09579057 12.7708901,8.3632591 11.6196579,8.71755739 C10.9460967,8.92482603 10.0446073,8.84100595 9.61877191,8.73672851 C9.45283313,8.69608941 9.70190358,8.85977895 9.10039289,8.73813726" id="Tusk-2" fill="#C1BBA7"></path>
                    <g id="Group-71">
                        <g id="Group-20" transform="translate(3.338249, 13.811567)">
                            <path d="M0.271580443,6.91344187 C0.271580443,6.91344187 0.735272463,6.99194236 1.08300671,6.99170637 C1.43074095,6.99144303 1.68567651,6.85985549 1.77838246,6.80721521 C1.87106523,6.75460122 1.91722115,6.38664492 1.68530559,6.20283759 C1.53329937,6.08236679 1.6429052,4.94541047 1.40616773,4.52108204 C1.12770215,4.0219324 1.61369552,2.52358996 1.61369552,2.52358996 L0.0146975673,3.57597494 C0.0146975673,3.57597494 0.363590923,5.65188867 0.386889118,5.83585368 C0.410164129,6.01979241 0.178804947,6.83465228 0.271580443,6.91344187" id="Fill-1" fill="#4B2357"></path>
                            <path d="M4.23525238,0.0121469468 C4.23525238,0.0121469468 4.09154541,0.771738473 4.37979391,1.61576994 C4.66804242,2.45977512 5.32303464,2.73120236 5.34102409,3.12838281 C5.34902198,3.30506806 5.26658578,3.49570838 5.21688296,3.79218113 C5.15487036,4.16216104 5.37232017,4.52289015 5.23362057,4.82735224 C5.11235405,5.09360217 3.51984713,5.01441837 3.71358147,4.58404537 C3.90731581,4.15369865 3.96137689,3.55470858 3.96888795,3.44992737 C3.97642219,3.34514615 2.99071153,2.17305251 3.06651759,1.44176532 C3.14232366,0.710451844 2.7154451,0.510797247 2.7154451,0.510797247 L4.23525238,0.0121469468 Z" id="Fill-16" fill="#4B2A5C"></path>
                        </g>
                        <mask id="mask-6" fill="white">
                            <use xlink:href="#path-5"></use>
                        </mask>
                        <use id="Fill-52" fill="url(#linearGradient-4)" xlink:href="#path-5"></use>
                        <g id="Group-36" mask="url(#mask-6)">
                            <g transform="translate(0.000000, 9.475249)">
                                <mask id="mask-8" fill="white">
                                    <use xlink:href="#path-7"></use>
                                </mask>
                                <g id="Clip-34" stroke="none" fill="none"></g>
                                <path d="M0.160474716,5.89954237 C0.160474716,5.89954237 0.369115261,3.40287437 1.41231799,3.24519008 C2.45450069,3.08766347 2.62111676,3.0954971 3.0740522,3.54479221 C3.63042699,4.09668724 3.41898025,4.34846504 3.54157512,4.34846504 C3.66416999,4.34846504 4.28983043,3.89167713 4.17211775,3.05069422 C4.05828793,2.23745188 4.83450976,1.38359558 6.48485647,1.46028271 C8.13518,1.53694356 4.58829073,0.906206383 4.58829073,0.906206383 L1.18049516,2.43048789 C1.18049516,2.43048789 0.230021565,3.84964654 0.206839282,4.92715589 L0.160474716,5.89954237 Z" id="Fill-21" stroke="none" fill="#4F6486" fill-rule="evenodd" mask="url(#mask-8)"></path>
                                <path d="M5.86670553,7.7922033 C5.86670553,7.7922033 4.18782143,7.78040326 4.19894893,7.53283891 C4.21007642,7.28527457 4.28875709,6.93342835 4.22094891,6.59474877 C4.2073641,6.52681312 4.98380829,6.72762407 5.43769421,6.30721146 C6.33865045,5.47271989 5.50441282,4.71762237 5.50441282,4.71762237 C5.50441282,4.71762237 6.53607077,5.34573147 6.6091645,5.65492409 C6.74051532,6.21036702 5.86670553,7.7922033 5.86670553,7.7922033" id="Fill-27" stroke="none" fill="#4C3D6A" fill-rule="evenodd" mask="url(#mask-8)"></path>
                                <path d="M0.142329943,8.13799707 C0.142329943,8.13799707 0.175364696,6.70490964 0.18748903,6.00923282 C0.209952662,4.72145147 0.383356138,3.87158568 0.788651988,3.19674947 C1.13606168,2.61833719 2.48462143,3.11985209 2.99050521,2.35416344 C4.03282701,0.776584637 5.65588817,1.35357775 5.65588817,1.35357775 L8.62363765,2.08730905 C8.62363765,2.08730905 7.90570553,3.56859531 7.5324476,3.3765884 C7.27737294,3.24536879 6.69788542,2.90353552 6.69788542,2.90353552 C6.69788542,2.90353552 6.84523201,3.24460665 7.16389567,3.40239607 C7.90593736,3.76980047 8.16112793,4.08495881 8.32370528,4.61046801 C8.39165255,4.83014851 8.66075249,5.23468756 8.84978082,5.3256714 C9.03595931,5.4152839 9.1913089,5.52817746 9.31808142,5.6509868 C9.34443418,5.67651571 9.24744778,5.80777179 9.27135103,5.8340376 C9.29278359,5.85758852 9.47872183,5.73762568 9.49821593,5.76158598 C9.51950253,5.78774945 9.37914014,5.98279709 9.39815178,6.00923282 C9.41708246,6.03555596 9.59918056,5.9134063 9.61589318,5.93977642 C9.63962284,5.97721843 9.43548858,6.11153336 9.45483802,6.14852736 C9.46866691,6.17496667 9.65987611,6.12259578 9.67151464,6.14852736 C9.72020039,6.25700307 9.74989323,6.36001933 9.76202683,6.44906688 C9.80857685,6.7906899 9.97099193,7.02708494 9.53108493,7.99981307 C9.20887438,8.71223071 10.8982369,6.94758577 10.8982369,6.94758577 L6.79005818,-1.80092284 L-0.602748626,2.38307223 L-0.0431051366,8.16440919 L0.142329943,8.13799707 Z" id="Fill-24" stroke="none" fill="#4F728F" fill-rule="evenodd" mask="url(#mask-8)"></path>
                                <path d="M9.13467253,3.90029474 C9.13467253,3.90029474 8.33351602,1.46990671 8.34496807,1.22023991 C8.35642011,0.970546831 6.16597258,1.48462391 6.16597258,1.48462391 C6.16597258,1.48462391 6.98952317,1.79515685 7.55721091,2.00921328 C8.39195855,2.32400369 7.21014896,3.19210829 7.21014896,3.19210829 L8.74062009,3.97942597 L9.13467253,3.90029474 Z" id="Fill-30" stroke="none" fill="#4C416D" fill-rule="evenodd" mask="url(#mask-8)"></path>
                                <path d="M1.76709964,11.7109944 C1.76709964,11.7109944 0.454310151,6.39009558 0.465762198,6.14042878 C0.477214246,5.89076198 0.396563084,4.12724711 0.650455445,4.77370016 C0.743300488,5.01014776 1.23179755,7.95324627 2.25188754,8.08391399 C2.850825,8.1606274 2.47024146,9.92072577 2.55450906,10.2912839 C2.76365962,11.2109512 2.27734169,12.1311179 2.27734169,12.1311179 L1.76709964,11.7109944 Z" id="Fill-33" stroke="none" fill="#4C3D6A" fill-rule="evenodd" mask="url(#mask-8)"></path>
                                <path d="M0.160474716,4.34846504 C0.302094123,3.40287437 1.29789089,1.96575364 2.28128152,1.33329115 C3.26467214,0.700828667 3.69349909,0.420877449 4.9006078,0.420877449 C6.10771651,0.420877449 3.98133068,-0.414151229 3.98133068,-0.414151229 L0.302094123,1.33329115 C0.302094123,1.33329115 -0.365935956,1.48811425 -0.389118239,2.56562359 L0.160474716,4.34846504 Z" id="Fill-21-Copy" stroke="none" fill="#5191A6" fill-rule="evenodd" mask="url(#mask-8)"></path>
                            </g>
                        </g>
                        <g id="Head" filter="url(#filter-9)" mask="url(#mask-6)">
                            <g transform="translate(4.497363, 0.014192)">
                                <mask id="mask-11" fill="white">
                                    <use xlink:href="#path-10"></use>
                                </mask>
                                <g id="Clip-49" stroke="none" fill="none"></g>
                                <path d="M4.73574628,2.86215391 C5.24404101,3.36093561 5.9646159,3.2554711 6.47506659,4.04352464 C6.98326859,4.82810912 6.28014996,5.93126845 6.12566322,6.01484112 C5.63897438,6.27798993 5.66222621,6.38311279 5.26815058,6.43593703 C5.13693886,6.45354511 4.93404752,6.45078563 4.70039329,6.44805244 C4.23229664,6.44253349 3.64063842,6.43704082 3.25416658,6.59506676 C2.67474861,6.83203998 2.83438181,7.06843502 2.27821566,7.46303996 C1.7220727,7.85764491 0.795059571,8.38394252 0.401238951,8.88356521 C0.00741833049,9.38318789 -0.0617344191,10.0928198 0.100727019,10.3817762 C0.263142092,10.670759 0.750155489,10.9857597 2.07156879,11.0110943 C3.39295891,11.0364026 3.71795133,11.7720261 4.22791519,11.7454037 C4.48027752,11.7322108 4.40324279,11.4167897 4.25814489,10.9837098 L4.29989618,11.0620526 C4.29989618,11.0620526 4.74935428,10.7517824 4.90224143,10.4045879 C5.06433195,10.0365265 5.48112621,9.1952545 5.82879091,9.06358811 C6.23002986,8.91165929 6.94121593,8.48462394 6.87157635,8.32699221 C6.77383985,8.10576115 6.15278649,8.09099138 6.15278649,8.09099138 C6.15278649,8.09099138 6.94652467,7.75267973 6.98711685,7.66986919 C7.31025469,7.01064372 7.76543881,5.78025945 7.49527249,4.38443808 C7.16977006,2.7027088 5.75567399,2.72998819 5.33825381,2.4674964 C4.4776811,1.9263239 4.73159665,0.470608776 4.73159665,0.470608776 C4.73159665,0.470608776 4.77775257,0.102652476 4.54590656,0.0502224477 C4.46474539,0.0318785082 4.40345143,0.0103020406 4.35908055,0.0103020406 C4.27671389,0.0103020406 4.25267387,0.0846239046 4.26790463,0.392108278 C4.29134191,0.86513488 4.03988369,2.17935463 4.73574628,2.86215391 Z" id="Fill-39" stroke="none" fill="url(#linearGradient-12)" fill-rule="evenodd" mask="url(#mask-11)"></path>
                                <path d="M4.29987531,11.0620342 C4.29987531,11.0620342 4.74935659,10.751764 4.90224375,10.4045958 C5.06431109,10.0365344 5.48112853,9.19526238 5.82879323,9.06359599 C6.23003218,8.91166718 6.94121825,8.48463183 6.87157867,8.32700009 C6.77384217,8.10576903 6.15278881,8.09097299 6.15278881,8.09097299 C6.15278881,8.09097299 6.94652699,7.75268761 6.98711917,7.66987708 C7.31025701,7.01065161 7.75333998,6.4236981 7.32180179,5.08099006 C7.04312757,4.21393668 5.53565326,3.11122413 5.11823308,2.84873234 C4.25768356,2.30755985 4.44476458,0.773028856 4.44476458,0.773028856 C4.44476458,0.773028856 4.44453276,0.326256689 4.21268675,0.273852942 C3.98081756,0.221475475 4.07354669,0.221396633 4.09700716,0.694449516 C4.12044444,1.16747612 4.03988601,2.17933623 4.73572541,2.86213551 C5.24404333,3.36091721 5.99960029,3.63652308 6.51005097,4.42455034 C7.01827616,5.20916111 7.76282153,6.05306117 7.06783988,6.94710484 C6.71134273,7.40572961 5.42261645,8.23604254 5.00545127,8.42032292 C4.63571704,8.58363128 3.98556992,8.68386593 3.84647623,8.65769034 C3.23882223,8.54331667 2.82601532,7.87000473 2.50157927,8.1067677 C1.94991049,8.50936198 3.22078641,9.07862856 2.82696579,9.57825125 C2.43314517,10.0778477 0.95135684,10.000267 0.926435886,10.3417586 C0.903439061,10.6571535 0.996284104,10.8410396 2.31767422,10.8663742 C3.63908752,10.8917089 3.71793047,11.772034 4.22791751,11.7453853 C4.73792773,11.7187367 3.9026469,10.4578668 3.87893142,9.4855066 C3.85519276,8.51312012 2.85826188,8.35617169 2.85826188,8.35617169" id="Fill-42" stroke="none" fill="#4E567C" fill-rule="evenodd" mask="url(#mask-11)"></path>
                                <path d="M2.68666662,7.44961577 C3.05728177,6.89743165 3.19635229,6.8447651 3.56722245,6.76568643 C3.81752192,6.71228093 4.53313501,6.74649968 5.12825722,6.68260918 C5.16597422,6.67856 5.20979696,6.83688815 5.26054216,6.83688815 C5.31128736,6.83688815 5.25377539,6.53383685 5.30978981,6.52190506 C5.36580423,6.50997327 5.48051271,6.85487915 5.53266872,6.83688815 C5.58482473,6.81889716 5.46321655,6.50656984 5.53266872,6.4835678 C5.60212089,6.46056576 5.74154433,6.77317538 5.78155719,6.74903768 C5.82157005,6.72489997 5.70293212,6.4835678 5.74203525,6.42305671 C5.78113837,6.36254562 5.81506776,6.51397118 5.82157005,6.50997327 C6.46421124,6.11484726 6.71977802,5.51923076 6.74224472,5.08140792 C6.76517199,4.63463575 6.3011786,4.00421394 6.3011786,4.00421394 L2.84585935,1.93053407 C2.84585935,1.93053407 2.92544413,0.393164763 4.30534633,0.16867489 C4.79212791,0.0894910931 4.25443804,1.03459819 4.8164693,2.16564135 C5.10703471,2.75035964 5.81393917,2.64338236 6.49097127,3.15040182 C6.53787917,3.18553046 6.61167648,3.09096223 6.64196739,3.11724295 C6.6722583,3.14352367 6.56641556,3.23298461 6.68484556,3.34160429 C6.80327555,3.45022398 6.85420187,3.26881903 6.89835914,3.31796705 C6.9425164,3.36711507 6.77819339,3.46202336 6.89835914,3.57838738 C7.01852488,3.69475141 7.0806819,3.53913313 7.12134711,3.59726382 C7.16201232,3.6553945 7.03805276,3.72527323 7.09135242,3.79340675 C7.25890803,4.0075949 7.26457975,4.08288959 7.34463634,4.45025025 C7.59581637,5.60281732 7.49369841,5.35562091 7.83222929,5.81647954 C8.47312668,6.68897302 4.84292029,7.94737253 4.84292029,7.94737253 L9.13120214,7.18213065 L8.86970599,6.13631585 L2.95708795,-6.40053165 L-0.325245109,10.605483 C-0.325245109,10.605483 0.299841964,9.10700911 1.11087413,8.50197447 C2.09069649,7.77102893 2.31607465,8.00177361 2.68666662,7.44961577 Z" id="Fill-45" stroke="none" fill="#5DA7B5" fill-rule="evenodd" mask="url(#mask-11)"></path>
                                <path d="M4.5665527,11.2063863 L4.23231055,10.9482834 C4.23231055,10.9482834 4.01066474,9.96596276 3.89338558,9.65632337 C3.75410642,9.28847219 3.7439294,9.10595262 3.33666305,8.99969969 C2.13099889,8.68519837 2.84941783,8.29046202 2.84941783,8.29046202 C2.84941783,8.29046202 3.63775454,8.52643656 3.82356054,9.15704233 C3.90168483,9.42216219 3.96321061,10.1293237 4.31094485,10.1290609 C4.6586791,10.1288244 4.77424277,9.52428906 5.07549654,9.3138068 C5.3767503,9.10335083 5.58525176,8.84038599 5.86339279,8.78761431 C6.141557,8.73486892 6.88339005,8.7343433 6.88339005,8.7343433 L4.5665527,11.2063863 Z" id="Fill-48" stroke="none" fill="#4C416D" fill-rule="evenodd" mask="url(#mask-11)"></path>
                                <path d="M4.17046949,7.68505945 C4.51808782,7.47455092 4.58770422,7.60592821 4.79625203,7.44808623 C5.00482303,7.29024426 4.03100488,7.02814668 3.70656883,7.23862893 C3.5210642,7.35896833 3.44205898,8.11661508 3.63760154,8.23734869 C4.14777404,8.55234935 3.88347283,7.85885382 4.17046949,7.68505945 Z" id="Fill-63" stroke="none" fill="#4E567C" fill-rule="evenodd" mask="url(#mask-11)"></path>
                            </g>
                        </g>
                    </g>
                    <path d="M4.23527176,16.9368562 C4.38949838,16.1773161 4.44395758,16.0714442 4.0247635,15.5118414 C3.74530078,15.1387729 3.59026927,14.8610646 3.55966895,14.6787165 C3.5476064,14.92858 3.6824402,15.2334646 3.96417036,15.5933701 C4.3867656,16.1332283 3.99224259,17.0757496 4.17748585,17.6999465 C4.30098135,18.1160778 4.37751231,18.4215441 4.40707874,18.6163453 C4.36976975,18.2467813 4.32497861,17.9291842 4.27270532,17.6635539 C4.24681719,17.5320016 4.17315049,17.242793 4.23527176,16.9368562 Z" id="Path-15" fill="#4F6486"></path>
                    <path d="M9.75790502,8.59200432 C9.75790502,8.59200432 10.3794916,8.57140024 10.5692386,8.512584 C10.8241973,8.43355788 11.1951138,8.40698808 11.1949979,8.22302307 L10.795034,8.08964844 L10.1644063,8.33947292 L10.1418036,8.4091431 L9.75790502,8.59200432 Z" id="Fill-55" fill="#4B2A5C"></path>
                    <path d="M11.9910821,6.57992907 C11.4245303,7.09936742 10.6280566,7.39581389 10.2761728,7.60611218 L10.2761728,7.60611218 C9.83587167,7.8692347 10.1142677,8.26326147 10.1607018,8.36833178 L10.1607018,8.36833178 C10.5770324,8.23314377 11.4122437,7.84179764 11.945158,7.34209611 L11.945158,7.34209611 C12.8559899,6.48797285 13.2420677,5.05475402 13.1261331,5.02852586 L13.1261331,5.02852586 C13.1246726,5.02821049 13.1231889,5.02805281 13.1216357,5.02805281 L13.1216357,5.02805281 C12.9996737,5.02815793 12.5858932,6.03457794 11.9910821,6.57992907" id="Tusk" fill="url(#linearGradient-13)"></path>
                    <path d="M10.1606856,8.36833703 C9.98943807,8.06621392 10.0357331,7.93478406 10.0357331,7.93478406 C10.0357331,7.93478406 10.2212841,8.11861767 10.5457665,7.98697757 C10.9202995,7.83504875 11.4160062,7.61184663 11.982558,7.09240828 C12.584996,6.54006648 13.0017439,5.61995234 13.0017439,5.61995234 C13.0017439,5.61995234 12.8559969,6.4879781 11.9451418,7.34210136 C11.4122275,7.84180289 10.5770162,8.23314903 10.1606856,8.36833703" id="Fill-61" fill="#D3CBAF"></path>
                    <g id="Eye" transform="translate(8.435435, 7.291968)">
                        <path d="M0,0.176343661 C-5.29615698e-05,0.0789998905 0.0793496688,5.26204918e-05 0.177404101,0 C0.27543204,-7.87830867e-05 0.354940647,0.0787896447 0.354993694,0.176107135 C0.355073117,0.273450906 0.275643992,0.352398176 0.177616054,0.352477044 C0.0795881151,0.35252958 5.30145801e-05,0.273687432 0,0.176343661" id="Fill-66" fill="#020408"></path>
                        <path d="M0.289022576,0.104151918 C0.289054949,0.139921503 0.260056961,0.168951891 0.224254976,0.168984318 C0.188485391,0.169016691 0.159455003,0.140018703 0.159422576,0.104216718 C0.159390203,0.0684471326 0.188388191,0.0394167447 0.224190176,0.0393843176 C0.259959761,0.0393519447 0.288990149,0.0683823326 0.289022576,0.104151918" id="Fill-68" fill="#D5B8D8"></path>
                    </g>
                </g>
            </g>
        </g>
    </g>
</svg>