<svg xmlns="http://www.w3.org/2000/svg" xmlns:xlink="http://www.w3.org/1999/xlink" xmlns:lucid="lucid" width="1420" height="477.2"><g transform="translate(-280 180)" lucid:page-tab-id="0_0"><path d="M0-1296h1760v2656H0z" fill="#fff"/><path d="M300 86c0-3.3 2.7-6 6-6h488c3.3 0 6 2.7 6 6v168c0 3.3-2.7 6-6 6H306c-3.3 0-6-2.7-6-6z" stroke="#5e5e5e" stroke-width="2" fill="#fff"/><path d="M324.67 123.33c0-3.3 2.68-6 6-6h420.5c3.3 0 6 2.7 6 6v24.93c0 3.3-2.7 6-6 6h-420.5c-3.32 0-6-2.7-6-6z" stroke="#5e5e5e" stroke-width="3" fill="#fff"/><use xlink:href="#a" transform="matrix(1,0,0,1,329.66666666666663,122.33333333333331) translate(105.51234567901236 19.46527777777778)"/><use xlink:href="#b" transform="matrix(1,0,0,1,329.66666666666663,122.33333333333331) translate(183.2283950617284 19.46527777777778)"/><use xlink:href="#c" transform="matrix(1,0,0,1,329.66666666666663,122.33333333333331) translate(263.35185185185185 19.46527777777778)"/><path d="M324.67 206c0-3.3 2.68-6 6-6h420.5c3.3 0 6 2.7 6 6v24.92c0 3.32-2.7 6-6 6h-420.5c-3.32 0-6-2.68-6-6z" stroke="#5e5e5e" stroke-width="3" fill="#fff"/><use xlink:href="#d" transform="matrix(1,0,0,1,329.66666666666663,205) translate(148.59876543209876 19.46527777777778)"/><use xlink:href="#e" transform="matrix(1,0,0,1,329.66666666666663,205) translate(200.4506172839506 19.46527777777778)"/><path d="M540.9 174.26V180" stroke="#5e5e5e" stroke-width="2" fill="none"/><path d="M540.9 159l4.65 14.26h-9.27zM540.9 195.26L536.3 181h9.27z" stroke="#5e5e5e" stroke-width="2" fill="#5e5e5e"/><path d="M300-134c0-3.3 2.7-6 6-6h488c3.3 0 6 2.7 6 6v86c0 3.3-2.7 6-6 6H306c-3.3 0-6-2.7-6-6z" stroke="#5e5e5e" stroke-width="2" fill="#fff"/><use xlink:href="#f" transform="matrix(1,0,0,1,305,-135) translate(146.20370370370375 33.30555555555556)"/><use xlink:href="#g" transform="matrix(1,0,0,1,305,-135) translate(195.0925925925926 33.30555555555556)"/><use xlink:href="#h" transform="matrix(1,0,0,1,305,-135) translate(307.60493827160496 33.30555555555556)"/><use xlink:href="#i" transform="matrix(1,0,0,1,305,-135) translate(118.26234567901237 62.638888888888886)"/><use xlink:href="#j" transform="matrix(1,0,0,1,305,-135) translate(125.0524691358025 62.638888888888886)"/><use xlink:href="#k" transform="matrix(1,0,0,1,305,-135) translate(213.18827160493828 62.638888888888886)"/><use xlink:href="#l" transform="matrix(1,0,0,1,305,-135) translate(287.7438271604938 62.638888888888886)"/><path d="M900-154c0-3.3 2.7-6 6-6h768c3.3 0 6 2.7 6 6v425.2c0 3.3-2.7 6-6 6H906c-3.3 0-6-2.7-6-6z" fill="#fff"/><path d="M920.88-160h5.96m11.9 0h5.96m11.9 0h5.96m11.9 0h5.96m11.9 0h5.96m11.9 0h5.96m11.9 0h5.96m11.9 0h5.96m11.9 0h5.96m11.9 0h5.96m11.9 0h5.96m11.9 0h5.96m11.9 0h5.96m11.9 0h5.96m11.9 0h5.96m11.9 0h5.96m11.9 0h5.96m11.9 0h5.97m11.9 0h5.96m11.9 0h5.96m11.9 0h5.95m11.9 0h5.96m11.9 0h5.97m11.9 0h5.96m11.9 0h5.96m11.9 0h5.95m11.9 0h5.96m11.92 0h5.95m11.9 0h5.96m11.9 0h5.96m11.9 0h5.95m11.9 0h5.96m11.92 0h5.95m11.9 0h5.96m11.9 0h5.96m11.9 0h5.95m11.9 0h5.96m11.92 0h5.95m11.9 0h5.96m11.9 0h5.97m11.9 0h5.96m11.9 0h5.96m11.9 0h2.98l3.03.82 2.15 2.15.82 3.03v2.95m0 11.8v5.92m0 11.8v5.92m0 11.8v5.9m0 11.8v5.92m0 11.8v5.92m0 11.8v5.9m0 11.82v5.9m0 11.82v5.9m0 11.82v5.9m0 11.8v5.92m0 11.8v5.92m0 11.8v5.9m0 11.82v5.9m0 11.82v5.9m0 11.82v5.9m0 11.8v5.92m0 11.8v5.92m0 11.8v5.9m0 11.82v5.9m0 11.82v5.9m0 11.82v5.9m0 11.8v5.92m0 11.8v5.92m0 11.8v2.96l-.82 3.03-2.15 2.15-3.03.82h-2.98m-11.9 0h-5.96m-11.9 0h-5.96m-11.9 0h-5.96m-11.9 0h-5.96m-11.9 0h-5.96m-11.9 0h-5.96m-11.9 0H1546m-11.9 0h-5.96m-11.9 0h-5.96m-11.9 0h-5.96m-11.9 0h-5.96m-11.9 0h-5.96m-11.9 0h-5.96m-11.9 0h-5.96m-11.9 0h-5.96m-11.9 0h-5.96m-11.9 0h-5.96m-11.9 0h-5.97m-11.9 0h-5.96m-11.9 0h-5.96m-11.9 0h-5.95m-11.9 0h-5.96m-11.9 0h-5.97m-11.9 0h-5.96m-11.9 0h-5.96m-11.9 0h-5.95m-11.9 0h-5.96m-11.92 0h-5.95m-11.9 0h-5.96m-11.9 0h-5.96m-11.9 0h-5.95m-11.9 0h-5.96m-11.92 0h-5.95m-11.9 0h-5.96m-11.9 0h-5.96m-11.9 0h-5.95m-11.9 0h-5.96m-11.92 0h-5.95m-11.9 0h-5.96m-11.9 0h-5.97m-11.9 0h-5.96m-11.9 0h-5.96m-11.9 0H906l-3.03-.82-2.15-2.15-.82-3.03v-2.95m0-11.8v-5.92m0-11.8v-5.92m0-11.8v-5.9m0-11.8v-5.92m0-11.8v-5.92m0-11.8v-5.9m0-11.82v-5.9m0-11.82v-5.9m0-11.82v-5.9m0-11.8v-5.92m0-11.8v-5.92m0-11.8v-5.9m0-11.82v-5.9m0-11.82v-5.9m0-11.82V2.5m0-11.8v-5.92m0-11.8v-5.92m0-11.8v-5.9m0-11.82v-5.9m0-11.82v-5.9m0-11.82v-5.9m0-11.8v-5.92m0-11.8v-5.92m0-11.8V-154l.82-3.03 2.15-2.15L906-160h2.98" stroke="#5e5e5e" stroke-width="3" fill="none"/><use xlink:href="#m" transform="matrix(1,0,0,1,905,-155) translate(0 12.8)"/><use xlink:href="#n" transform="matrix(1,0,0,1,905,-155) translate(26.666666666666664 12.8)"/><use xlink:href="#o" transform="matrix(1,0,0,1,905,-155) translate(0 36.800000000000004)"/><use xlink:href="#p" transform="matrix(1,0,0,1,905,-155) translate(26.666666666666664 36.800000000000004)"/><use xlink:href="#q" transform="matrix(1,0,0,1,905,-155) translate(69.19999999999999 36.800000000000004)"/><use xlink:href="#r" transform="matrix(1,0,0,1,905,-155) translate(0 60.80000000000001)"/><use xlink:href="#s" transform="matrix(1,0,0,1,905,-155) translate(26.666666666666664 60.80000000000001)"/><use xlink:href="#t" transform="matrix(1,0,0,1,905,-155) translate(50.577777777777776 60.80000000000001)"/><use xlink:href="#r" transform="matrix(1,0,0,1,905,-155) translate(0 84.80000000000001)"/><use xlink:href="#u" transform="matrix(1,0,0,1,905,-155) translate(26.666666666666664 84.80000000000001)"/><use xlink:href="#v" transform="matrix(1,0,0,1,905,-155) translate(78.13333333333333 84.80000000000001)"/><use xlink:href="#r" transform="matrix(1,0,0,1,905,-155) translate(0 108.80000000000001)"/><use xlink:href="#w" transform="matrix(1,0,0,1,905,-155) translate(26.666666666666664 108.80000000000001)"/><use xlink:href="#x" transform="matrix(1,0,0,1,905,-155) translate(93.19999999999999 108.80000000000001)"/><use xlink:href="#r" transform="matrix(1,0,0,1,905,-155) translate(0 132.8)"/><use xlink:href="#y" transform="matrix(1,0,0,1,905,-155) translate(26.666666666666664 132.8)"/><use xlink:href="#z" transform="matrix(1,0,0,1,905,-155) translate(0 156.80000000000004)"/><use xlink:href="#A" transform="matrix(1,0,0,1,905,-155) translate(53.33333333333332 156.80000000000004)"/><use xlink:href="#B" transform="matrix(1,0,0,1,905,-155) translate(110.13333333333333 156.80000000000004)"/><use xlink:href="#z" transform="matrix(1,0,0,1,905,-155) translate(0 180.80000000000004)"/><use xlink:href="#C" transform="matrix(1,0,0,1,905,-155) translate(53.33333333333332 180.80000000000004)"/><use xlink:href="#D" transform="matrix(1,0,0,1,905,-155) translate(120.71111111111111 180.80000000000004)"/><use xlink:href="#z" transform="matrix(1,0,0,1,905,-155) translate(0 204.80000000000004)"/><use xlink:href="#E" transform="matrix(1,0,0,1,905,-155) translate(53.33333333333332 204.80000000000004)"/><use xlink:href="#F" transform="matrix(1,0,0,1,905,-155) translate(0 228.80000000000004)"/><use xlink:href="#G" transform="matrix(1,0,0,1,905,-155) translate(53.33333333333332 228.80000000000004)"/><use xlink:href="#H" transform="matrix(1,0,0,1,905,-155) translate(66.66666666666666 228.80000000000004)"/><use xlink:href="#I" transform="matrix(1,0,0,1,905,-155) translate(113.06666666666665 228.80000000000004)"/><use xlink:href="#J" transform="matrix(1,0,0,1,905,-155) translate(164.57777777777775 228.80000000000004)"/><use xlink:href="#K" transform="matrix(1,0,0,1,905,-155) translate(201.46666666666664 228.80000000000004)"/><use xlink:href="#L" transform="matrix(1,0,0,1,905,-155) translate(215.2444444444444 228.80000000000004)"/><use xlink:href="#z" transform="matrix(1,0,0,1,905,-155) translate(0 252.80000000000004)"/><use xlink:href="#M" transform="matrix(1,0,0,1,905,-155) translate(53.33333333333332 252.80000000000004)"/><use xlink:href="#N" transform="matrix(1,0,0,1,905,-155) translate(149.1111111111111 252.80000000000004)"/><use xlink:href="#O" transform="matrix(1,0,0,1,905,-155) translate(36.01 276.80000000000007)"/><use xlink:href="#P" transform="matrix(1,0,0,1,905,-155) translate(53.78777777777778 276.80000000000007)"/><use xlink:href="#Q" transform="matrix(1,0,0,1,905,-155) translate(0 300.80000000000007)"/><use xlink:href="#R" transform="matrix(1,0,0,1,905,-155) translate(57.777777777777764 300.80000000000007)"/><use xlink:href="#S" transform="matrix(1,0,0,1,905,-155) translate(67.51111111111109 300.80000000000007)"/><use xlink:href="#T" transform="matrix(1,0,0,1,905,-155) translate(36.01 324.80000000000007)"/><use xlink:href="#U" transform="matrix(1,0,0,1,905,-155) translate(58.23222222222222 324.80000000000007)"/><use xlink:href="#V" transform="matrix(1,0,0,1,905,-155) translate(67.96555555555555 324.80000000000007)"/><use xlink:href="#T" transform="matrix(1,0,0,1,905,-155) translate(36.01 348.80000000000007)"/><use xlink:href="#U" transform="matrix(1,0,0,1,905,-155) translate(58.23222222222222 348.80000000000007)"/><use xlink:href="#W" transform="matrix(1,0,0,1,905,-155) translate(67.96555555555555 348.80000000000007)"/><use xlink:href="#X" transform="matrix(1,0,0,1,905,-155) translate(36.01 372.80000000000007)"/><use xlink:href="#Y" transform="matrix(1,0,0,1,905,-155) translate(49.343333333333334 372.80000000000007)"/><use xlink:href="#Z" transform="matrix(1,0,0,1,905,-155) translate(0 396.80000000000007)"/><use xlink:href="#aa" transform="matrix(1,0,0,1,905,-155) translate(71.1111111111111 396.80000000000007)"/><use xlink:href="#ab" transform="matrix(1,0,0,1,905,-155) translate(134.88888888888889 396.80000000000007)"/><use xlink:href="#X" transform="matrix(1,0,0,1,905,-155) translate(36.01 420.80000000000007)"/><use xlink:href="#ac" transform="matrix(1,0,0,1,905,-155) translate(49.343333333333334 420.80000000000007)"/><use xlink:href="#ad" transform="matrix(1,0,0,1,905,-155) translate(233.87666666666672 420.80000000000007)"/><path d="M897.5 20H559.4" stroke="#5e5e5e" stroke-width="2" fill="none"/><path d="M898.5 21h-1.03v-2h1.03z" fill="#5e5e5e"/><path d="M544.15 20l14.26-4.64v9.28z" stroke="#5e5e5e" stroke-width="2" fill="#5e5e5e"/><path d="M320 66c0-3.3 2.7-6 6-6h48c3.3 0 6 2.7 6 6v37.9c0 3.32-2.7 6-6 6h-48c-3.3 0-6-2.68-6-6z" stroke="#5e5e5e" fill="#fff"/><g><use xlink:href="#ae" transform="matrix(1,0,0,1,325,65) translate(0 22.799999999999997)"/></g><path d="M540.9-22.5V97.33" stroke="#5e5e5e" stroke-width="2" fill="none"/><path d="M540.9-37.76l4.65 14.26h-9.27zM540.9 112.6l-4.62-14.27h9.27z" stroke="#5e5e5e" stroke-width="2" fill="#5e5e5e"/><defs><path fill="#333" d="M33 0v-248h34V0H33" id="af"/><path fill="#333" d="M85-194c31 0 48 13 60 33l-1-100h32l1 261h-30c-2-10 0-23-3-31C134-8 116 4 85 4 32 4 16-35 15-94c0-66 23-100 70-100zm9 24c-40 0-46 34-46 75 0 40 6 74 45 74 42 0 51-32 51-76 0-42-9-74-50-73" id="ag"/><path fill="#333" d="M100-194c63 0 86 42 84 106H49c0 40 14 67 53 68 26 1 43-12 49-29l28 8c-11 28-37 45-77 45C44 4 14-33 15-96c1-61 26-98 85-98zm52 81c6-60-76-77-97-28-3 7-6 17-6 28h103" id="ah"/><path fill="#333" d="M117-194c89-4 53 116 60 194h-32v-121c0-31-8-49-39-48C34-167 62-67 57 0H25l-1-190h30c1 10-1 24 2 32 11-22 29-35 61-36" id="ai"/><path fill="#333" d="M59-47c-2 24 18 29 38 22v24C64 9 27 4 27-40v-127H5v-23h24l9-43h21v43h35v23H59v120" id="aj"/><path fill="#333" d="M24-231v-30h32v30H24zM24 0v-190h32V0H24" id="ak"/><path fill="#333" d="M179-190L93 31C79 59 56 82 12 73V49c39 6 53-20 64-50L1-190h34L92-34l54-156h33" id="al"/><g id="a"><use transform="matrix(0.06172839506172839,0,0,0.06172839506172839,0,0)" xlink:href="#af"/><use transform="matrix(0.06172839506172839,0,0,0.06172839506172839,6.172839506172839,0)" xlink:href="#ag"/><use transform="matrix(0.06172839506172839,0,0,0.06172839506172839,18.51851851851852,0)" xlink:href="#ah"/><use transform="matrix(0.06172839506172839,0,0,0.06172839506172839,30.864197530864196,0)" xlink:href="#ai"/><use transform="matrix(0.06172839506172839,0,0,0.06172839506172839,43.20987654320987,0)" xlink:href="#aj"/><use transform="matrix(0.06172839506172839,0,0,0.06172839506172839,49.382716049382715,0)" xlink:href="#ak"/><use transform="matrix(0.06172839506172839,0,0,0.06172839506172839,54.25925925925926,0)" xlink:href="#aj"/><use transform="matrix(0.06172839506172839,0,0,0.06172839506172839,60.4320987654321,0)" xlink:href="#al"/></g><path fill="#333" d="M185-189c-5-48-123-54-124 2 14 75 158 14 163 119 3 78-121 87-175 55-17-10-28-26-33-46l33-7c5 56 141 63 141-1 0-78-155-14-162-118-5-82 145-84 179-34 5 7 8 16 11 25" id="am"/><path fill="#333" d="M114-163C36-179 61-72 57 0H25l-1-190h30c1 12-1 29 2 39 6-27 23-49 58-41v29" id="an"/><path fill="#333" d="M108 0H70L1-190h34L89-25l56-165h34" id="ao"/><path fill="#333" d="M96-169c-40 0-48 33-48 73s9 75 48 75c24 0 41-14 43-38l32 2c-6 37-31 61-74 61-59 0-76-41-82-99-10-93 101-131 147-64 4 7 5 14 7 22l-32 3c-4-21-16-35-41-35" id="ap"/><g id="b"><use transform="matrix(0.06172839506172839,0,0,0.06172839506172839,0,0)" xlink:href="#am"/><use transform="matrix(0.06172839506172839,0,0,0.06172839506172839,14.814814814814813,0)" xlink:href="#ah"/><use transform="matrix(0.06172839506172839,0,0,0.06172839506172839,27.160493827160494,0)" xlink:href="#an"/><use transform="matrix(0.06172839506172839,0,0,0.06172839506172839,34.50617283950617,0)" xlink:href="#ao"/><use transform="matrix(0.06172839506172839,0,0,0.06172839506172839,45.61728395061728,0)" xlink:href="#ak"/><use transform="matrix(0.06172839506172839,0,0,0.06172839506172839,50.49382716049382,0)" xlink:href="#ap"/><use transform="matrix(0.06172839506172839,0,0,0.06172839506172839,61.60493827160494,0)" xlink:href="#ah"/></g><path fill="#333" d="M87 75C49 33 22-17 22-94c0-76 28-126 65-167h31c-38 41-64 92-64 168S80 34 118 75H87" id="aq"/><path fill="#333" d="M30-248c118-7 216 8 213 122C240-48 200 0 122 0H30v-248zM63-27c89 8 146-16 146-99s-60-101-146-95v194" id="ar"/><path fill="#333" d="M141 0L90-78 38 0H4l68-98-65-92h35l48 74 47-74h35l-64 92 68 98h-35" id="as"/><path fill="#333" d="M33-261c38 41 65 92 65 168S71 34 33 75H2C39 34 66-17 66-93S39-220 2-261h31" id="at"/><g id="c"><use transform="matrix(0.06172839506172839,0,0,0.06172839506172839,0,0)" xlink:href="#aq"/><use transform="matrix(0.06172839506172839,0,0,0.06172839506172839,7.345679012345679,0)" xlink:href="#ar"/><use transform="matrix(0.06172839506172839,0,0,0.06172839506172839,23.333333333333332,0)" xlink:href="#ah"/><use transform="matrix(0.06172839506172839,0,0,0.06172839506172839,35.67901234567901,0)" xlink:href="#as"/><use transform="matrix(0.06172839506172839,0,0,0.06172839506172839,46.79012345679013,0)" xlink:href="#at"/></g><path fill="#333" d="M205 0l-28-72H64L36 0H1l101-248h38L239 0h-34zm-38-99l-47-123c-12 45-31 82-46 123h93" id="au"/><path fill="#333" d="M84 4C-5 8 30-112 23-190h32v120c0 31 7 50 39 49 72-2 45-101 50-169h31l1 190h-30c-1-10 1-25-2-33-11 22-28 36-60 37" id="av"/><path fill="#333" d="M106-169C34-169 62-67 57 0H25v-261h32l-1 103c12-21 28-36 61-36 89 0 53 116 60 194h-32v-121c2-32-8-49-39-48" id="aw"/><g id="d"><use transform="matrix(0.06172839506172839,0,0,0.06172839506172839,0,0)" xlink:href="#au"/><use transform="matrix(0.06172839506172839,0,0,0.06172839506172839,14.814814814814813,0)" xlink:href="#av"/><use transform="matrix(0.06172839506172839,0,0,0.06172839506172839,27.160493827160494,0)" xlink:href="#aj"/><use transform="matrix(0.06172839506172839,0,0,0.06172839506172839,33.333333333333336,0)" xlink:href="#aw"/></g><g id="e"><use transform="matrix(0.06172839506172839,0,0,0.06172839506172839,0,0)" xlink:href="#am"/><use transform="matrix(0.06172839506172839,0,0,0.06172839506172839,14.814814814814813,0)" xlink:href="#ah"/><use transform="matrix(0.06172839506172839,0,0,0.06172839506172839,27.160493827160494,0)" xlink:href="#an"/><use transform="matrix(0.06172839506172839,0,0,0.06172839506172839,34.50617283950617,0)" xlink:href="#ao"/><use transform="matrix(0.06172839506172839,0,0,0.06172839506172839,45.61728395061728,0)" xlink:href="#ak"/><use transform="matrix(0.06172839506172839,0,0,0.06172839506172839,50.49382716049382,0)" xlink:href="#ap"/><use transform="matrix(0.06172839506172839,0,0,0.06172839506172839,61.60493827160494,0)" xlink:href="#ah"/></g><g id="f"><use transform="matrix(0.06790123456790122,0,0,0.06790123456790122,0,0)" xlink:href="#au"/><use transform="matrix(0.06790123456790122,0,0,0.06790123456790122,16.29629629629629,0)" xlink:href="#ai"/><use transform="matrix(0.06790123456790122,0,0,0.06790123456790122,29.876543209876534,0)" xlink:href="#al"/></g><path fill="#333" d="M212-179c-10-28-35-45-73-45-59 0-87 40-87 99 0 60 29 101 89 101 43 0 62-24 78-52l27 14C228-24 195 4 139 4 59 4 22-46 18-125c-6-104 99-153 187-111 19 9 31 26 39 46" id="ax"/><path fill="#333" d="M135-143c-3-34-86-38-87 0 15 53 115 12 119 90S17 21 10-45l28-5c4 36 97 45 98 0-10-56-113-15-118-90-4-57 82-63 122-42 12 7 21 19 24 35" id="ay"/><path fill="#333" d="M100-194c62-1 85 37 85 99 1 63-27 99-86 99S16-35 15-95c0-66 28-99 85-99zM99-20c44 1 53-31 53-75 0-43-8-75-51-75s-53 32-53 75 10 74 51 75" id="az"/><path fill="#333" d="M210-169c-67 3-38 105-44 169h-31v-121c0-29-5-50-35-48C34-165 62-65 56 0H25l-1-190h30c1 10-1 24 2 32 10-44 99-50 107 0 11-21 27-35 58-36 85-2 47 119 55 194h-31v-121c0-29-5-49-35-48" id="aA"/><g id="g"><use transform="matrix(0.06790123456790122,0,0,0.06790123456790122,0,0)" xlink:href="#ax"/><use transform="matrix(0.06790123456790122,0,0,0.06790123456790122,17.586419753086414,0)" xlink:href="#av"/><use transform="matrix(0.06790123456790122,0,0,0.06790123456790122,31.166666666666657,0)" xlink:href="#ay"/><use transform="matrix(0.06790123456790122,0,0,0.06790123456790122,43.38888888888888,0)" xlink:href="#aj"/><use transform="matrix(0.06790123456790122,0,0,0.06790123456790122,50.179012345679,0)" xlink:href="#az"/><use transform="matrix(0.06790123456790122,0,0,0.06790123456790122,63.75925925925924,0)" xlink:href="#aA"/><use transform="matrix(0.06790123456790122,0,0,0.06790123456790122,84.0617283950617,0)" xlink:href="#ah"/><use transform="matrix(0.06790123456790122,0,0,0.06790123456790122,97.64197530864195,0)" xlink:href="#an"/></g><path fill="#333" d="M30-248c87 1 191-15 191 75 0 78-77 80-158 76V0H30v-248zm33 125c57 0 124 11 124-50 0-59-68-47-124-48v98" id="aB"/><g id="h"><use transform="matrix(0.06790123456790122,0,0,0.06790123456790122,0,0)" xlink:href="#af"/><use transform="matrix(0.06790123456790122,0,0,0.06790123456790122,6.790123456790122,0)" xlink:href="#ag"/><use transform="matrix(0.06790123456790122,0,0,0.06790123456790122,20.370370370370367,0)" xlink:href="#aB"/></g><path fill="#333" d="M240 0l2-218c-23 76-54 145-80 218h-23L58-218 59 0H30v-248h44l77 211c21-75 51-140 76-211h43V0h-30" id="aC"/><path fill="#333" d="M30 0v-248h33v221h125V0H30" id="aD"/><path fill="#333" d="M68-38c1 34 0 65-14 84H32c9-13 17-26 17-46H33v-38h35" id="aE"/><g id="j"><use transform="matrix(0.06790123456790122,0,0,0.06790123456790122,0,0)" xlink:href="#aq"/><use transform="matrix(0.06790123456790122,0,0,0.06790123456790122,8.080246913580245,0)" xlink:href="#am"/><use transform="matrix(0.06790123456790122,0,0,0.06790123456790122,24.376543209876537,0)" xlink:href="#au"/><use transform="matrix(0.06790123456790122,0,0,0.06790123456790122,40.67283950617283,0)" xlink:href="#aC"/><use transform="matrix(0.06790123456790122,0,0,0.06790123456790122,60.975308641975296,0)" xlink:href="#aD"/><use transform="matrix(0.06790123456790122,0,0,0.06790123456790122,74.55555555555554,0)" xlink:href="#aE"/></g><path fill="#333" d="M140-251c81 0 123 46 123 126C263-46 219 4 140 4 59 4 17-45 17-125s42-126 123-126zm0 227c63 0 89-41 89-101s-29-99-89-99c-61 0-89 39-89 99S79-25 140-24" id="aF"/><g id="k"><use transform="matrix(0.06790123456790122,0,0,0.06790123456790122,0,0)" xlink:href="#aF"/><use transform="matrix(0.06790123456790122,0,0,0.06790123456790122,19.01234567901234,0)" xlink:href="#af"/><use transform="matrix(0.06790123456790122,0,0,0.06790123456790122,25.80246913580246,0)" xlink:href="#ar"/><use transform="matrix(0.06790123456790122,0,0,0.06790123456790122,43.38888888888887,0)" xlink:href="#ax"/><use transform="matrix(0.06790123456790122,0,0,0.06790123456790122,60.975308641975296,0)" xlink:href="#aE"/></g><path fill="#333" d="M143 4C61 4 22-44 18-125c-5-107 100-154 193-111 17 8 29 25 37 43l-32 9c-13-25-37-40-76-40-61 0-88 39-88 99 0 61 29 100 91 101 35 0 62-11 79-27v-45h-74v-28h105v86C228-13 192 4 143 4" id="aG"/><path fill="#333" d="M197 0v-115H63V0H30v-248h33v105h134v-105h34V0h-34" id="aH"/><path fill="#333" d="M115-194c53 0 69 39 70 98 0 66-23 100-70 100C84 3 66-7 56-30L54 0H23l1-261h32v101c10-23 28-34 59-34zm-8 174c40 0 45-34 45-75 0-40-5-75-45-74-42 0-51 32-51 76 0 43 10 73 51 73" id="aI"/><g id="l"><use transform="matrix(0.06790123456790122,0,0,0.06790123456790122,0,0)" xlink:href="#aG"/><use transform="matrix(0.06790123456790122,0,0,0.06790123456790122,19.01234567901234,0)" xlink:href="#ak"/><use transform="matrix(0.06790123456790122,0,0,0.06790123456790122,24.376543209876537,0)" xlink:href="#aj"/><use transform="matrix(0.06790123456790122,0,0,0.06790123456790122,31.166666666666657,0)" xlink:href="#aH"/><use transform="matrix(0.06790123456790122,0,0,0.06790123456790122,48.753086419753075,0)" xlink:href="#av"/><use transform="matrix(0.06790123456790122,0,0,0.06790123456790122,62.333333333333314,0)" xlink:href="#aI"/><use transform="matrix(0.06790123456790122,0,0,0.06790123456790122,75.91358024691355,0)" xlink:href="#at"/></g><path fill="#569cd6" d="M190-63c-7 42-38 67-86 67-59 0-84-38-90-98-12-110 154-137 174-36l-49 2c-2-19-15-32-35-32-30 0-35 28-38 64-6 74 65 87 74 30" id="aJ"/><path fill="#569cd6" d="M110-194c64 0 96 36 96 99 0 64-35 99-97 99-61 0-95-36-95-99 0-62 34-99 96-99zm-1 164c35 0 45-28 45-65 0-40-10-65-43-65-34 0-45 26-45 65 0 36 10 65 43 65" id="aK"/><path fill="#569cd6" d="M135-194c87-1 58 113 63 194h-50c-7-57 23-157-34-157-59 0-34 97-39 157H25l-1-190h47c2 12-1 28 3 38 12-26 28-41 61-42" id="aL"/><path fill="#569cd6" d="M185-48c-13 30-37 53-82 52C43 2 14-33 14-96s30-98 90-98c62 0 83 45 84 108H66c0 31 8 55 39 56 18 0 30-7 34-22zm-45-69c5-46-57-63-70-21-2 6-4 13-4 21h74" id="aM"/><path fill="#569cd6" d="M115-3C79 11 28 4 28-45v-112H4v-33h27l15-45h31v45h36v33H77v99c-1 23 16 31 38 25v30" id="aN"/><path fill="#569cd6" d="M135-150c-39-12-60 13-60 57V0H25l-1-190h47c2 13-1 29 3 40 6-28 27-53 61-41v41" id="aO"/><path fill="#569cd6" d="M137-138c1-29-70-34-71-4 15 46 118 7 119 86 1 83-164 76-172 9l43-7c4 19 20 25 44 25 33 8 57-30 24-41C81-84 22-81 20-136c-2-80 154-74 161-7" id="aP"/><path fill="#569cd6" d="M35-132v-50h50v50H35zM35 0v-49h50V0H35" id="aQ"/><g id="n"><use transform="matrix(0.044444444444444446,0,0,0.044444444444444446,0,0)" xlink:href="#aJ"/><use transform="matrix(0.044444444444444446,0,0,0.044444444444444446,8.88888888888889,0)" xlink:href="#aK"/><use transform="matrix(0.044444444444444446,0,0,0.044444444444444446,18.622222222222224,0)" xlink:href="#aL"/><use transform="matrix(0.044444444444444446,0,0,0.044444444444444446,28.355555555555558,0)" xlink:href="#aL"/><use transform="matrix(0.044444444444444446,0,0,0.044444444444444446,38.08888888888889,0)" xlink:href="#aM"/><use transform="matrix(0.044444444444444446,0,0,0.044444444444444446,46.97777777777777,0)" xlink:href="#aJ"/><use transform="matrix(0.044444444444444446,0,0,0.044444444444444446,55.86666666666666,0)" xlink:href="#aN"/><use transform="matrix(0.044444444444444446,0,0,0.044444444444444446,61.155555555555544,0)" xlink:href="#aK"/><use transform="matrix(0.044444444444444446,0,0,0.044444444444444446,70.88888888888889,0)" xlink:href="#aO"/><use transform="matrix(0.044444444444444446,0,0,0.044444444444444446,77.11111111111111,0)" xlink:href="#aP"/><use transform="matrix(0.044444444444444446,0,0,0.044444444444444446,86,0)" xlink:href="#aQ"/></g><path fill="#569cd6" d="M123 10C108 53 80 86 19 72V37c35 8 53-11 59-39L3-190h52l48 148c12-52 28-100 44-148h51" id="aR"/><path fill="#569cd6" d="M135-194c53 0 70 44 70 98 0 56-19 98-73 100-31 1-45-17-59-34 3 33 2 69 2 105H25l-1-265h48c2 10 0 23 3 31 11-24 29-35 60-35zM114-30c33 0 39-31 40-66 0-38-9-64-40-64-56 0-55 130 0 130" id="aS"/><g id="p"><use transform="matrix(0.044444444444444446,0,0,0.044444444444444446,0,0)" xlink:href="#aN"/><use transform="matrix(0.044444444444444446,0,0,0.044444444444444446,5.288888888888889,0)" xlink:href="#aR"/><use transform="matrix(0.044444444444444446,0,0,0.044444444444444446,14.177777777777779,0)" xlink:href="#aS"/><use transform="matrix(0.044444444444444446,0,0,0.044444444444444446,23.91111111111111,0)" xlink:href="#aM"/><use transform="matrix(0.044444444444444446,0,0,0.044444444444444446,32.8,0)" xlink:href="#aQ"/></g><path fill="#834187" d="M110-194c64 0 96 36 96 99 0 64-35 99-97 99-61 0-95-36-95-99 0-62 34-99 96-99zm-1 164c35 0 45-28 45-65 0-40-10-65-43-65-34 0-45 26-45 65 0 36 10 65 43 65" id="aT"/><path fill="#834187" d="M25-224v-37h50v37H25zM25 0v-190h50V0H25" id="aU"/><path fill="#834187" d="M88-194c31-1 46 15 58 34l-1-101h50l1 261h-48c-2-10 0-23-3-31C134-8 116 4 84 4 32 4 16-41 15-95c0-56 19-97 73-99zm17 164c33 0 40-30 41-66 1-37-9-64-41-64s-38 30-39 65c0 43 13 65 39 65" id="aV"/><path fill="#834187" d="M190-63c-7 42-38 67-86 67-59 0-84-38-90-98-12-110 154-137 174-36l-49 2c-2-19-15-32-35-32-30 0-35 28-38 64-6 74 65 87 74 30" id="aW"/><g id="q"><use transform="matrix(0.044444444444444446,0,0,0.044444444444444446,0,0)" xlink:href="#aT"/><use transform="matrix(0.044444444444444446,0,0,0.044444444444444446,9.733333333333334,0)" xlink:href="#aU"/><use transform="matrix(0.044444444444444446,0,0,0.044444444444444446,14.177777777777779,0)" xlink:href="#aV"/><use transform="matrix(0.044444444444444446,0,0,0.044444444444444446,23.91111111111111,0)" xlink:href="#aW"/></g><path fill="#569cd6" d="M25-224v-37h50v37H25zM25 0v-190h50V0H25" id="aX"/><path fill="#569cd6" d="M88-194c31-1 46 15 58 34l-1-101h50l1 261h-48c-2-10 0-23-3-31C134-8 116 4 84 4 32 4 16-41 15-95c0-56 19-97 73-99zm17 164c33 0 40-30 41-66 1-37-9-64-41-64s-38 30-39 65c0 43 13 65 39 65" id="aY"/><g id="s"><use transform="matrix(0.044444444444444446,0,0,0.044444444444444446,0,0)" xlink:href="#aX"/><use transform="matrix(0.044444444444444446,0,0,0.044444444444444446,4.444444444444445,0)" xlink:href="#aY"/><use transform="matrix(0.044444444444444446,0,0,0.044444444444444446,14.177777777777779,0)" xlink:href="#aQ"/></g><path fill="#834187" d="M133-34C117-15 103 5 69 4 32 3 11-16 11-54c-1-60 55-63 116-61 1-26-3-47-28-47-18 1-26 9-28 27l-52-2c7-38 36-58 82-57s74 22 75 68l1 82c-1 14 12 18 25 15v27c-30 8-71 5-69-32zm-48 3c29 0 43-24 42-57-32 0-66-3-65 30 0 17 8 27 23 27" id="aZ"/><path fill="#834187" d="M85 4C-2 5 27-109 22-190h50c7 57-23 150 33 157 60-5 35-97 40-157h50l1 190h-47c-2-12 1-28-3-38-12 25-28 42-61 42" id="ba"/><path fill="#834187" d="M115-3C79 11 28 4 28-45v-112H4v-33h27l15-45h31v45h36v33H77v99c-1 23 16 31 38 25v30" id="bb"/><path fill="#834187" d="M114-157C55-157 80-60 75 0H25v-261h50l-1 109c12-26 28-41 61-42 86-1 58 113 63 194h-50c-7-57 23-157-34-157" id="bc"/><path fill="#834187" d="M101-251c68 0 84 54 84 127C185-50 166 4 99 4S15-52 14-124c-1-75 17-127 87-127zm-1 216c37-5 36-46 36-89s4-89-36-89c-39 0-36 45-36 89 0 43-3 85 36 89" id="bd"/><g id="t"><use transform="matrix(0.044444444444444446,0,0,0.044444444444444446,0,0)" xlink:href="#aZ"/><use transform="matrix(0.044444444444444446,0,0,0.044444444444444446,8.88888888888889,0)" xlink:href="#ba"/><use transform="matrix(0.044444444444444446,0,0,0.044444444444444446,18.622222222222224,0)" xlink:href="#bb"/><use transform="matrix(0.044444444444444446,0,0,0.044444444444444446,23.91111111111111,0)" xlink:href="#bc"/><use transform="matrix(0.044444444444444446,0,0,0.044444444444444446,33.644444444444446,0)" xlink:href="#bd"/></g><path fill="#569cd6" d="M133-34C117-15 103 5 69 4 32 3 11-16 11-54c-1-60 55-63 116-61 1-26-3-47-28-47-18 1-26 9-28 27l-52-2c7-38 36-58 82-57s74 22 75 68l1 82c-1 14 12 18 25 15v27c-30 8-71 5-69-32zm-48 3c29 0 43-24 42-57-32 0-66-3-65 30 0 17 8 27 23 27" id="be"/><path fill="#569cd6" d="M220-157c-53 9-28 100-34 157h-49v-107c1-27-5-49-29-50C55-147 81-57 75 0H25l-1-190h47c2 12-1 28 3 38 10-53 101-56 108 0 13-22 24-43 59-42 82 1 51 116 57 194h-49v-107c-1-25-5-48-29-50" id="bf"/><g id="u"><use transform="matrix(0.044444444444444446,0,0,0.044444444444444446,0,0)" xlink:href="#aL"/><use transform="matrix(0.044444444444444446,0,0,0.044444444444444446,9.733333333333334,0)" xlink:href="#be"/><use transform="matrix(0.044444444444444446,0,0,0.044444444444444446,18.622222222222224,0)" xlink:href="#bf"/><use transform="matrix(0.044444444444444446,0,0,0.044444444444444446,32.84444444444445,0)" xlink:href="#aM"/><use transform="matrix(0.044444444444444446,0,0,0.044444444444444446,41.733333333333334,0)" xlink:href="#aQ"/></g><path fill="#834187" d="M199 0l-22-63H83L61 0H9l90-248h61L250 0h-51zm-33-102l-36-108c-10 38-24 72-36 108h72" id="bg"/><g id="v"><use transform="matrix(0.044444444444444446,0,0,0.044444444444444446,0,0)" xlink:href="#bg"/><use transform="matrix(0.044444444444444446,0,0,0.044444444444444446,11.511111111111111,0)" xlink:href="#ba"/><use transform="matrix(0.044444444444444446,0,0,0.044444444444444446,21.244444444444447,0)" xlink:href="#bb"/><use transform="matrix(0.044444444444444446,0,0,0.044444444444444446,26.533333333333335,0)" xlink:href="#bc"/><use transform="matrix(0.044444444444444446,0,0,0.044444444444444446,36.266666666666666,0)" xlink:href="#bd"/></g><path fill="#569cd6" d="M128 0H69L1-190h53L99-40l48-150h52" id="bh"/><g id="w"><use transform="matrix(0.044444444444444446,0,0,0.044444444444444446,0,0)" xlink:href="#bh"/><use transform="matrix(0.044444444444444446,0,0,0.044444444444444446,8.88888888888889,0)" xlink:href="#aM"/><use transform="matrix(0.044444444444444446,0,0,0.044444444444444446,17.77777777777778,0)" xlink:href="#aO"/><use transform="matrix(0.044444444444444446,0,0,0.044444444444444446,24,0)" xlink:href="#aP"/><use transform="matrix(0.044444444444444446,0,0,0.044444444444444446,32.888888888888886,0)" xlink:href="#aX"/><use transform="matrix(0.044444444444444446,0,0,0.044444444444444446,37.33333333333333,0)" xlink:href="#aK"/><use transform="matrix(0.044444444444444446,0,0,0.044444444444444446,47.066666666666656,0)" xlink:href="#aL"/><use transform="matrix(0.044444444444444446,0,0,0.044444444444444446,56.800000000000004,0)" xlink:href="#aQ"/></g><path fill="#834187" d="M23 0v-37h61v-169l-59 37v-38l62-41h46v211h57V0H23" id="bi"/><use transform="matrix(0.044444444444444446,0,0,0.044444444444444446,0,0)" xlink:href="#bi" id="x"/><path fill="#569cd6" d="M121-226c-27-7-43 5-38 36h38v33H83V0H34v-157H6v-33h28c-9-59 32-81 87-68v32" id="bj"/><path fill="#569cd6" d="M195-6C206 82 75 100 31 46c-4-6-6-13-8-21l49-6c3 16 16 24 34 25 40 0 42-37 40-79-11 22-30 35-61 35-53 0-70-43-70-97 0-56 18-96 73-97 30 0 46 14 59 34l2-30h47zm-90-29c32 0 41-27 41-63 0-35-9-62-40-62-32 0-39 29-40 63 0 36 9 62 39 62" id="bk"/><g id="y"><use transform="matrix(0.044444444444444446,0,0,0.044444444444444446,0,0)" xlink:href="#aJ"/><use transform="matrix(0.044444444444444446,0,0,0.044444444444444446,8.88888888888889,0)" xlink:href="#aK"/><use transform="matrix(0.044444444444444446,0,0,0.044444444444444446,18.622222222222224,0)" xlink:href="#aL"/><use transform="matrix(0.044444444444444446,0,0,0.044444444444444446,28.355555555555558,0)" xlink:href="#bj"/><use transform="matrix(0.044444444444444446,0,0,0.044444444444444446,33.644444444444446,0)" xlink:href="#aX"/><use transform="matrix(0.044444444444444446,0,0,0.044444444444444446,38.08888888888889,0)" xlink:href="#bk"/><use transform="matrix(0.044444444444444446,0,0,0.044444444444444446,47.82222222222222,0)" xlink:href="#aQ"/></g><path fill="#569cd6" d="M85 4C-2 5 27-109 22-190h50c7 57-23 150 33 157 60-5 35-97 40-157h50l1 190h-47c-2-12 1-28-3-38-12 25-28 42-61 42" id="bl"/><g id="A"><use transform="matrix(0.044444444444444446,0,0,0.044444444444444446,0,0)" xlink:href="#aX"/><use transform="matrix(0.044444444444444446,0,0,0.044444444444444446,4.444444444444445,0)" xlink:href="#aP"/><use transform="matrix(0.044444444444444446,0,0,0.044444444444444446,13.333333333333334,0)" xlink:href="#aP"/><use transform="matrix(0.044444444444444446,0,0,0.044444444444444446,22.22222222222222,0)" xlink:href="#bl"/><use transform="matrix(0.044444444444444446,0,0,0.044444444444444446,31.955555555555556,0)" xlink:href="#aM"/><use transform="matrix(0.044444444444444446,0,0,0.044444444444444446,40.84444444444445,0)" xlink:href="#aO"/><use transform="matrix(0.044444444444444446,0,0,0.044444444444444446,47.06666666666667,0)" xlink:href="#aQ"/></g><path fill="#834187" d="M135-194c53 0 70 44 70 98 0 56-19 98-73 100-31 1-45-17-59-34 3 33 2 69 2 105H25l-1-265h48c2 10 0 23 3 31 11-24 29-35 60-35zM114-30c33 0 39-31 40-66 0-38-9-64-40-64-56 0-55 130 0 130" id="bm"/><path fill="#834187" d="M137-138c1-29-70-34-71-4 15 46 118 7 119 86 1 83-164 76-172 9l43-7c4 19 20 25 44 25 33 8 57-30 24-41C81-84 22-81 20-136c-2-80 154-74 161-7" id="bn"/><path fill="#834187" d="M35-132v-50h50v50H35zM35 0v-49h50V0H35" id="bo"/><path fill="#834187" d="M4 7l51-268h42L46 7H4" id="bp"/><path fill="#834187" d="M185-48c-13 30-37 53-82 52C43 2 14-33 14-96s30-98 90-98c62 0 83 45 84 108H66c0 31 8 55 39 56 18 0 30-7 34-22zm-45-69c5-46-57-63-70-21-2 6-4 13-4 21h74" id="bq"/><path fill="#834187" d="M128 0H69L1-190h53L99-40l48-150h52" id="br"/><path fill="#834187" d="M14-72v-43h91v43H14" id="bs"/><path fill="#834187" d="M147 0L96-86 75-71V0H25v-261h50v150l67-79h53l-66 74L201 0h-54" id="bt"/><path fill="#834187" d="M128-127c34 4 56 21 59 58 7 91-148 94-172 28-4-9-6-17-7-26l51-5c1 24 16 35 40 36 23 0 39-12 38-36-1-31-31-36-65-34v-40c32 2 59-3 59-33 0-20-13-33-34-33s-33 13-35 32l-50-3c6-44 37-68 86-68 50 0 83 20 83 66 0 35-22 52-53 58" id="bu"/><path fill="#834187" d="M165-50V0h-47v-50H5v-38l105-160h55v161h33v37h-33zm-47-37l2-116L46-87h72" id="bv"/><path fill="#834187" d="M144 0l-44-69L55 0H2l70-98-66-92h53l41 62 40-62h54l-67 91 71 99h-54" id="bw"/><path fill="#834187" d="M139-81c0-46-55-55-73-27H18l9-140h149v37H72l-4 63c44-38 133-4 122 66C201 21 21 35 11-62l49-4c5 18 15 30 39 30 26 0 40-18 40-45" id="bx"/><path fill="#834187" d="M123 10C108 53 80 86 19 72V37c35 8 53-11 59-39L3-190h52l48 148c12-52 28-100 44-148h51" id="by"/><path fill="#834187" d="M25-224v-37h50v37H25zM75 22c2 45-34 59-81 51V38c22 5 31-5 31-27v-201h50V22" id="bz"/><path fill="#834187" d="M135-194c87-1 58 113 63 194h-50c-7-57 23-157-34-157-59 0-34 97-39 157H25l-1-190h47c2 12-1 28 3 38 12-26 28-41 61-42" id="bA"/><path fill="#834187" d="M24 0v-54h51V0H24" id="bB"/><path fill="#834187" d="M220-157c-53 9-28 100-34 157h-49v-107c1-27-5-49-29-50C55-147 81-57 75 0H25l-1-190h47c2 12-1 28 3 38 10-53 101-56 108 0 13-22 24-43 59-42 82 1 51 116 57 194h-49v-107c-1-25-5-48-29-50" id="bC"/><g id="B"><use transform="matrix(0.044444444444444446,0,0,0.044444444444444446,0,0)" xlink:href="#bc"/><use transform="matrix(0.044444444444444446,0,0,0.044444444444444446,9.733333333333334,0)" xlink:href="#bb"/><use transform="matrix(0.044444444444444446,0,0,0.044444444444444446,15.022222222222222,0)" xlink:href="#bb"/><use transform="matrix(0.044444444444444446,0,0,0.044444444444444446,20.31111111111111,0)" xlink:href="#bm"/><use transform="matrix(0.044444444444444446,0,0,0.044444444444444446,30.044444444444444,0)" xlink:href="#bn"/><use transform="matrix(0.044444444444444446,0,0,0.044444444444444446,38.93333333333334,0)" xlink:href="#bo"/><use transform="matrix(0.044444444444444446,0,0,0.044444444444444446,44.22222222222223,0)" xlink:href="#bp"/><use transform="matrix(0.044444444444444446,0,0,0.044444444444444446,48.66666666666667,0)" xlink:href="#bp"/><use transform="matrix(0.044444444444444446,0,0,0.044444444444444446,53.111111111111114,0)" xlink:href="#aV"/><use transform="matrix(0.044444444444444446,0,0,0.044444444444444446,62.84444444444445,0)" xlink:href="#bq"/><use transform="matrix(0.044444444444444446,0,0,0.044444444444444446,71.73333333333333,0)" xlink:href="#br"/><use transform="matrix(0.044444444444444446,0,0,0.044444444444444446,80.62222222222222,0)" xlink:href="#bs"/><use transform="matrix(0.044444444444444446,0,0,0.044444444444444446,85.91111111111111,0)" xlink:href="#bt"/><use transform="matrix(0.044444444444444446,0,0,0.044444444444444446,94.8,0)" xlink:href="#bu"/><use transform="matrix(0.044444444444444446,0,0,0.044444444444444446,103.6888888888889,0)" xlink:href="#bv"/><use transform="matrix(0.044444444444444446,0,0,0.044444444444444446,112.57777777777777,0)" xlink:href="#bw"/><use transform="matrix(0.044444444444444446,0,0,0.044444444444444446,121.46666666666665,0)" xlink:href="#bx"/><use transform="matrix(0.044444444444444446,0,0,0.044444444444444446,130.35555555555555,0)" xlink:href="#by"/><use transform="matrix(0.044444444444444446,0,0,0.044444444444444446,139.24444444444444,0)" xlink:href="#bz"/><use transform="matrix(0.044444444444444446,0,0,0.044444444444444446,143.6888888888889,0)" xlink:href="#bA"/><use transform="matrix(0.044444444444444446,0,0,0.044444444444444446,153.42222222222222,0)" xlink:href="#bB"/><use transform="matrix(0.044444444444444446,0,0,0.044444444444444446,157.86666666666667,0)" xlink:href="#ba"/><use transform="matrix(0.044444444444444446,0,0,0.044444444444444446,167.60000000000002,0)" xlink:href="#bn"/><use transform="matrix(0.044444444444444446,0,0,0.044444444444444446,176.4888888888889,0)" xlink:href="#bB"/><use transform="matrix(0.044444444444444446,0,0,0.044444444444444446,180.93333333333337,0)" xlink:href="#aZ"/><use transform="matrix(0.044444444444444446,0,0,0.044444444444444446,189.82222222222228,0)" xlink:href="#ba"/><use transform="matrix(0.044444444444444446,0,0,0.044444444444444446,199.5555555555556,0)" xlink:href="#bb"/><use transform="matrix(0.044444444444444446,0,0,0.044444444444444446,204.8444444444445,0)" xlink:href="#bc"/><use transform="matrix(0.044444444444444446,0,0,0.044444444444444446,214.57777777777784,0)" xlink:href="#bd"/><use transform="matrix(0.044444444444444446,0,0,0.044444444444444446,223.46666666666673,0)" xlink:href="#bB"/><use transform="matrix(0.044444444444444446,0,0,0.044444444444444446,227.9111111111112,0)" xlink:href="#aW"/><use transform="matrix(0.044444444444444446,0,0,0.044444444444444446,236.80000000000004,0)" xlink:href="#aT"/><use transform="matrix(0.044444444444444446,0,0,0.044444444444444446,246.53333333333342,0)" xlink:href="#bC"/><use transform="matrix(0.044444444444444446,0,0,0.044444444444444446,260.75555555555565,0)" xlink:href="#bp"/></g><path fill="#569cd6" d="M25 0v-261h50V0H25" id="bD"/><path fill="#569cd6" d="M24 0v-248h52V0H24" id="bE"/><path fill="#569cd6" d="M24-248c120-7 223 5 221 122C244-46 201 0 124 0H24v-248zM76-40c74 7 117-18 117-86 0-67-45-88-117-82v168" id="bF"/><g id="C"><use transform="matrix(0.044444444444444446,0,0,0.044444444444444446,0,0)" xlink:href="#aJ"/><use transform="matrix(0.044444444444444446,0,0,0.044444444444444446,8.88888888888889,0)" xlink:href="#bD"/><use transform="matrix(0.044444444444444446,0,0,0.044444444444444446,13.333333333333334,0)" xlink:href="#aX"/><use transform="matrix(0.044444444444444446,0,0,0.044444444444444446,17.77777777777778,0)" xlink:href="#aM"/><use transform="matrix(0.044444444444444446,0,0,0.044444444444444446,26.666666666666668,0)" xlink:href="#aL"/><use transform="matrix(0.044444444444444446,0,0,0.044444444444444446,36.400000000000006,0)" xlink:href="#aN"/><use transform="matrix(0.044444444444444446,0,0,0.044444444444444446,41.6888888888889,0)" xlink:href="#bE"/><use transform="matrix(0.044444444444444446,0,0,0.044444444444444446,46.13333333333333,0)" xlink:href="#bF"/><use transform="matrix(0.044444444444444446,0,0,0.044444444444444446,57.64444444444446,0)" xlink:href="#aQ"/></g><path fill="#834187" d="M195-6C206 82 75 100 31 46c-4-6-6-13-8-21l49-6c3 16 16 24 34 25 40 0 42-37 40-79-11 22-30 35-61 35-53 0-70-43-70-97 0-56 18-96 73-97 30 0 46 14 59 34l2-30h47zm-90-29c32 0 41-27 41-63 0-35-9-62-40-62-32 0-39 29-40 63 0 36 9 62 39 62" id="bG"/><path fill="#834187" d="M140-251c80 0 125 45 125 126S219 4 139 4C58 4 15-44 15-125s44-126 125-126zm-1 214c52 0 73-35 73-88 0-50-21-86-72-86-52 0-73 35-73 86s22 88 72 88" id="bH"/><path fill="#834187" d="M135-150c-39-12-60 13-60 57V0H25l-1-190h47c2 13-1 29 3 40 6-28 27-53 61-41v41" id="bI"/><path fill="#834187" d="M136-208V0H84v-208H4v-40h212v40h-80" id="bJ"/><path fill="#834187" d="M24 0v-248h52v208h133V0H24" id="bK"/><path fill="#834187" d="M24-248c93 1 206-16 204 79-1 75-69 88-152 82V0H24v-248zm52 121c47 0 100 7 100-41 0-47-54-39-100-39v80" id="bL"/><path fill="#834187" d="M182-130c37 4 62 22 62 59C244 23 116-4 24 0v-248c84 5 203-23 205 63 0 31-19 50-47 55zM76-148c40-3 101 13 101-30 0-44-60-28-101-31v61zm0 110c48-3 116 14 116-37 0-48-69-32-116-35v72" id="bM"/><path fill="#834187" d="M240-174c0 40-23 61-54 70L253 0h-59l-57-94H76V0H24v-248c93 4 217-23 216 74zM76-134c48-2 112 12 112-38 0-48-66-32-112-35v73" id="bN"/><path fill="#834187" d="M24-248c120-7 223 5 221 122C244-46 201 0 124 0H24v-248zM76-40c74 7 117-18 117-86 0-67-45-88-117-82v168" id="bO"/><path fill="#834187" d="M182 0l-62-99L58 0H3l86-130-79-118h55l55 88 55-88h55l-75 118L237 0h-55" id="bP"/><path fill="#834187" d="M12 0v-35l95-120H19v-35h142v35L67-36h103V0H12" id="bQ"/><path fill="#834187" d="M231 0h-52l-39-155L100 0H48L-1-190h46L77-45c9-52 24-97 36-145h53l37 145 32-145h46" id="bR"/><g id="D"><use transform="matrix(0.044444444444444446,0,0,0.044444444444444446,0,0)" xlink:href="#bc"/><use transform="matrix(0.044444444444444446,0,0,0.044444444444444446,9.733333333333334,0)" xlink:href="#bq"/><use transform="matrix(0.044444444444444446,0,0,0.044444444444444446,18.622222222222224,0)" xlink:href="#bG"/><use transform="matrix(0.044444444444444446,0,0,0.044444444444444446,28.355555555555558,0)" xlink:href="#bC"/><use transform="matrix(0.044444444444444446,0,0,0.044444444444444446,42.57777777777778,0)" xlink:href="#bH"/><use transform="matrix(0.044444444444444446,0,0,0.044444444444444446,55.022222222222226,0)" xlink:href="#aW"/><use transform="matrix(0.044444444444444446,0,0,0.044444444444444446,63.91111111111111,0)" xlink:href="#bx"/><use transform="matrix(0.044444444444444446,0,0,0.044444444444444446,72.8,0)" xlink:href="#bI"/><use transform="matrix(0.044444444444444446,0,0,0.044444444444444446,79.02222222222223,0)" xlink:href="#bJ"/><use transform="matrix(0.044444444444444446,0,0,0.044444444444444446,87.55555555555556,0)" xlink:href="#aT"/><use transform="matrix(0.044444444444444446,0,0,0.044444444444444446,97.28888888888889,0)" xlink:href="#bb"/><use transform="matrix(0.044444444444444446,0,0,0.044444444444444446,102.57777777777778,0)" xlink:href="#bK"/><use transform="matrix(0.044444444444444446,0,0,0.044444444444444446,112.31111111111112,0)" xlink:href="#bL"/><use transform="matrix(0.044444444444444446,0,0,0.044444444444444446,122.97777777777779,0)" xlink:href="#ba"/><use transform="matrix(0.044444444444444446,0,0,0.044444444444444446,132.7111111111111,0)" xlink:href="#bx"/><use transform="matrix(0.044444444444444446,0,0,0.044444444444444446,141.6,0)" xlink:href="#bM"/><use transform="matrix(0.044444444444444446,0,0,0.044444444444444446,153.11111111111111,0)" xlink:href="#by"/><use transform="matrix(0.044444444444444446,0,0,0.044444444444444446,162,0)" xlink:href="#bN"/><use transform="matrix(0.044444444444444446,0,0,0.044444444444444446,173.51111111111112,0)" xlink:href="#bO"/><use transform="matrix(0.044444444444444446,0,0,0.044444444444444446,185.02222222222224,0)" xlink:href="#bP"/><use transform="matrix(0.044444444444444446,0,0,0.044444444444444446,195.6888888888889,0)" xlink:href="#bH"/><use transform="matrix(0.044444444444444446,0,0,0.044444444444444446,208.13333333333335,0)" xlink:href="#br"/><use transform="matrix(0.044444444444444446,0,0,0.044444444444444446,217.02222222222224,0)" xlink:href="#bM"/><use transform="matrix(0.044444444444444446,0,0,0.044444444444444446,228.53333333333333,0)" xlink:href="#bg"/><use transform="matrix(0.044444444444444446,0,0,0.044444444444444446,240.0444444444445,0)" xlink:href="#bQ"/><use transform="matrix(0.044444444444444446,0,0,0.044444444444444446,248.0444444444445,0)" xlink:href="#bG"/><use transform="matrix(0.044444444444444446,0,0,0.044444444444444446,257.7777777777778,0)" xlink:href="#bn"/><use transform="matrix(0.044444444444444446,0,0,0.044444444444444446,266.66666666666674,0)" xlink:href="#bu"/><use transform="matrix(0.044444444444444446,0,0,0.044444444444444446,275.55555555555566,0)" xlink:href="#bR"/><use transform="matrix(0.044444444444444446,0,0,0.044444444444444446,288.0000000000001,0)" xlink:href="#ba"/><use transform="matrix(0.044444444444444446,0,0,0.044444444444444446,297.73333333333346,0)" xlink:href="#bR"/><use transform="matrix(0.044444444444444446,0,0,0.044444444444444446,310.1777777777779,0)" xlink:href="#bx"/></g><path fill="#569cd6" d="M169-182c-1-43-94-46-97-3 18 66 151 10 154 114 3 95-165 93-204 36-6-8-10-19-12-30l50-8c3 46 112 56 116 5-17-69-150-10-154-114-4-87 153-88 188-35 5 8 8 18 10 28" id="bS"/><path fill="#834187" d="M52 0c1-96 47-148 87-207H15v-41h169v40c-36 62-79 113-81 208H52" id="bT"/><path fill="#834187" d="M138-131c27 9 52 24 51 61 0 53-36 74-89 74S11-19 11-69c0-35 22-54 51-61-78-25-46-121 38-121 51 0 83 19 83 66 0 30-18 49-45 54zm-38-16c24 0 32-13 32-36 1-23-11-34-32-34-22 0-33 12-32 34 0 22 9 36 32 36zm1 116c27 0 37-17 37-43 0-25-13-39-39-39-24 0-37 15-37 40 0 27 11 42 39 42" id="bU"/><path fill="#834187" d="M238-95c0 69-44 99-111 99C63 4 22-25 22-93v-155h51v151c-1 38 19 59 55 60 90 1 49-130 58-211h52v153" id="bV"/><path fill="#834187" d="M135-194c52 0 70 43 70 98 0 56-19 99-73 100-30 1-46-15-58-35L72 0H24l1-261h50v104c11-23 29-37 60-37zM114-30c31 0 40-27 40-66 0-37-7-63-39-63s-41 28-41 65c0 36 8 64 40 64" id="bW"/><path fill="#834187" d="M176-78C186 10 51 31 16-35c-5-9-9-19-11-32l52-8c4 21 12 37 35 38 23 0 32-16 32-40v-130H75v-41h101v170" id="bX"/><path fill="#834187" d="M-4 44V30h207v14H-4" id="bY"/><path fill="#834187" d="M182-182c0 78-84 86-111 141h115V0H12c-6-101 99-100 120-180 1-22-12-31-33-32-23 0-32 14-35 34l-49-3c5-45 32-70 84-70 51 0 83 22 83 69" id="bZ"/><path fill="#834187" d="M169-182c-1-43-94-46-97-3 18 66 151 10 154 114 3 95-165 93-204 36-6-8-10-19-12-30l50-8c3 46 112 56 116 5-17-69-150-10-154-114-4-87 153-88 188-35 5 8 8 18 10 28" id="ca"/><path fill="#834187" d="M84 4C32 4 15-41 15-95c0-55 18-99 73-99 29 0 47 12 58 34l2-30h48l-1 265h-49V-32C136-9 114 4 84 4zm21-34c32 0 41-29 41-66 0-36-9-64-40-64-33 0-39 30-40 65 0 43 13 65 39 65" id="cb"/><path fill="#834187" d="M25 0v-261h50V0H25" id="cc"/><path fill="#834187" d="M210 0H11v-37l134-170H24v-41h178v36L68-41h142V0" id="cd"/><path fill="#834187" d="M115-159c48 0 72 30 72 78 0 54-30 85-83 85-64 0-91-50-91-122 0-98 58-163 141-120 15 8 21 24 27 44l-47 6c-5-31-48-31-61-4-7 14-11 33-11 60 9-17 28-27 53-27zM102-35c24 0 36-20 36-45s-11-43-37-43c-23 0-36 14-36 38 0 27 11 50 37 50" id="ce"/><path fill="#834187" d="M230 0l2-204L168 0h-37L68-204 70 0H24v-248h70l56 185 57-185h69V0h-46" id="cf"/><path fill="#834187" d="M99-251c69 0 84 53 88 123 5 99-61 162-144 118-15-8-21-25-26-45l46-6c4 31 50 33 63 7 7-15 12-36 12-60-9 18-29 28-54 28-48 0-72-32-72-82 0-55 31-83 87-83zm-1 128c24 0 37-16 37-39 0-27-10-51-37-51-25 0-35 19-35 45 0 25 10 45 35 45" id="cg"/><g id="E"><use transform="matrix(0.044444444444444446,0,0,0.044444444444444446,0,0)" xlink:href="#aJ"/><use transform="matrix(0.044444444444444446,0,0,0.044444444444444446,8.88888888888889,0)" xlink:href="#bD"/><use transform="matrix(0.044444444444444446,0,0,0.044444444444444446,13.333333333333334,0)" xlink:href="#aX"/><use transform="matrix(0.044444444444444446,0,0,0.044444444444444446,17.77777777777778,0)" xlink:href="#aM"/><use transform="matrix(0.044444444444444446,0,0,0.044444444444444446,26.666666666666668,0)" xlink:href="#aL"/><use transform="matrix(0.044444444444444446,0,0,0.044444444444444446,36.400000000000006,0)" xlink:href="#aN"/><use transform="matrix(0.044444444444444446,0,0,0.044444444444444446,41.6888888888889,0)" xlink:href="#bS"/><use transform="matrix(0.044444444444444446,0,0,0.044444444444444446,52.35555555555557,0)" xlink:href="#aM"/><use transform="matrix(0.044444444444444446,0,0,0.044444444444444446,61.244444444444454,0)" xlink:href="#aJ"/><use transform="matrix(0.044444444444444446,0,0,0.044444444444444446,70.13333333333334,0)" xlink:href="#aO"/><use transform="matrix(0.044444444444444446,0,0,0.044444444444444446,76.35555555555557,0)" xlink:href="#aM"/><use transform="matrix(0.044444444444444446,0,0,0.044444444444444446,85.24444444444445,0)" xlink:href="#aN"/><use transform="matrix(0.044444444444444446,0,0,0.044444444444444446,90.53333333333335,0)" xlink:href="#aQ"/><use transform="matrix(0.044444444444444446,0,0,0.044444444444444446,95.82222222222225,0)" xlink:href="#bT"/><use transform="matrix(0.044444444444444446,0,0,0.044444444444444446,104.71111111111111,0)" xlink:href="#bw"/><use transform="matrix(0.044444444444444446,0,0,0.044444444444444446,113.60000000000001,0)" xlink:href="#bt"/><use transform="matrix(0.044444444444444446,0,0,0.044444444444444446,122.4888888888889,0)" xlink:href="#bU"/><use transform="matrix(0.044444444444444446,0,0,0.044444444444444446,131.3777777777778,0)" xlink:href="#bH"/><use transform="matrix(0.044444444444444446,0,0,0.044444444444444446,143.82222222222225,0)" xlink:href="#bT"/><use transform="matrix(0.044444444444444446,0,0,0.044444444444444446,152.71111111111114,0)" xlink:href="#bi"/><use transform="matrix(0.044444444444444446,0,0,0.044444444444444446,161.60000000000002,0)" xlink:href="#bV"/><use transform="matrix(0.044444444444444446,0,0,0.044444444444444446,173.11111111111114,0)" xlink:href="#bc"/><use transform="matrix(0.044444444444444446,0,0,0.044444444444444446,182.8444444444445,0)" xlink:href="#bm"/><use transform="matrix(0.044444444444444446,0,0,0.044444444444444446,192.57777777777784,0)" xlink:href="#bx"/><use transform="matrix(0.044444444444444446,0,0,0.044444444444444446,201.46666666666673,0)" xlink:href="#bJ"/><use transform="matrix(0.044444444444444446,0,0,0.044444444444444446,210.3111111111112,0)" xlink:href="#bs"/><use transform="matrix(0.044444444444444446,0,0,0.044444444444444446,215.60000000000008,0)" xlink:href="#bW"/><use transform="matrix(0.044444444444444446,0,0,0.044444444444444446,225.33333333333343,0)" xlink:href="#bX"/><use transform="matrix(0.044444444444444446,0,0,0.044444444444444446,234.2222222222223,0)" xlink:href="#bm"/><use transform="matrix(0.044444444444444446,0,0,0.044444444444444446,243.95555555555563,0)" xlink:href="#bY"/><use transform="matrix(0.044444444444444446,0,0,0.044444444444444446,252.84444444444455,0)" xlink:href="#aZ"/><use transform="matrix(0.044444444444444446,0,0,0.044444444444444446,261.7333333333334,0)" xlink:href="#bL"/><use transform="matrix(0.044444444444444446,0,0,0.044444444444444446,272.4000000000001,0)" xlink:href="#bZ"/><use transform="matrix(0.044444444444444446,0,0,0.044444444444444446,281.288888888889,0)" xlink:href="#ca"/><use transform="matrix(0.044444444444444446,0,0,0.044444444444444446,291.9555555555557,0)" xlink:href="#cb"/><use transform="matrix(0.044444444444444446,0,0,0.044444444444444446,301.68888888888904,0)" xlink:href="#ba"/><use transform="matrix(0.044444444444444446,0,0,0.044444444444444446,311.4222222222224,0)" xlink:href="#bR"/><use transform="matrix(0.044444444444444446,0,0,0.044444444444444446,323.86666666666684,0)" xlink:href="#cc"/><use transform="matrix(0.044444444444444446,0,0,0.044444444444444446,328.3111111111113,0)" xlink:href="#bc"/><use transform="matrix(0.044444444444444446,0,0,0.044444444444444446,338.04444444444465,0)" xlink:href="#bv"/><use transform="matrix(0.044444444444444446,0,0,0.044444444444444446,346.93333333333356,0)" xlink:href="#bQ"/><use transform="matrix(0.044444444444444446,0,0,0.044444444444444446,354.93333333333356,0)" xlink:href="#cd"/><use transform="matrix(0.044444444444444446,0,0,0.044444444444444446,364.6666666666669,0)" xlink:href="#bJ"/><use transform="matrix(0.044444444444444446,0,0,0.044444444444444446,374.40000000000026,0)" xlink:href="#bX"/><use transform="matrix(0.044444444444444446,0,0,0.044444444444444446,383.2888888888891,0)" xlink:href="#bn"/><use transform="matrix(0.044444444444444446,0,0,0.044444444444444446,392.1777777777781,0)" xlink:href="#ce"/><use transform="matrix(0.044444444444444446,0,0,0.044444444444444446,401.066666666667,0)" xlink:href="#bx"/><use transform="matrix(0.044444444444444446,0,0,0.044444444444444446,409.9555555555559,0)" xlink:href="#bV"/><use transform="matrix(0.044444444444444446,0,0,0.044444444444444446,421.466666666667,0)" xlink:href="#bN"/><use transform="matrix(0.044444444444444446,0,0,0.044444444444444446,432.9777777777781,0)" xlink:href="#bL"/><use transform="matrix(0.044444444444444446,0,0,0.044444444444444446,443.64444444444484,0)" xlink:href="#bC"/><use transform="matrix(0.044444444444444446,0,0,0.044444444444444446,457.8666666666671,0)" xlink:href="#aZ"/><use transform="matrix(0.044444444444444446,0,0,0.044444444444444446,466.755555555556,0)" xlink:href="#bs"/><use transform="matrix(0.044444444444444446,0,0,0.044444444444444446,472.0444444444449,0)" xlink:href="#bZ"/><use transform="matrix(0.044444444444444446,0,0,0.044444444444444446,480.93333333333374,0)" xlink:href="#bV"/><use transform="matrix(0.044444444444444446,0,0,0.044444444444444446,492.44444444444497,0)" xlink:href="#bJ"/><use transform="matrix(0.044444444444444446,0,0,0.044444444444444446,502.17777777777826,0)" xlink:href="#bT"/><use transform="matrix(0.044444444444444446,0,0,0.044444444444444446,511.0666666666672,0)" xlink:href="#bA"/><use transform="matrix(0.044444444444444446,0,0,0.044444444444444446,520.8000000000005,0)" xlink:href="#bi"/><use transform="matrix(0.044444444444444446,0,0,0.044444444444444446,529.6888888888894,0)" xlink:href="#aU"/><use transform="matrix(0.044444444444444446,0,0,0.044444444444444446,534.1333333333339,0)" xlink:href="#aU"/><use transform="matrix(0.044444444444444446,0,0,0.044444444444444446,538.5777777777784,0)" xlink:href="#bG"/><use transform="matrix(0.044444444444444446,0,0,0.044444444444444446,548.3111111111117,0)" xlink:href="#bO"/><use transform="matrix(0.044444444444444446,0,0,0.044444444444444446,559.8222222222228,0)" xlink:href="#aZ"/><use transform="matrix(0.044444444444444446,0,0,0.044444444444444446,568.7111111111117,0)" xlink:href="#cf"/><use transform="matrix(0.044444444444444446,0,0,0.044444444444444446,582.0000000000006,0)" xlink:href="#bV"/><use transform="matrix(0.044444444444444446,0,0,0.044444444444444446,593.5111111111116,0)" xlink:href="#bO"/><use transform="matrix(0.044444444444444446,0,0,0.044444444444444446,605.0222222222227,0)" xlink:href="#cg"/><use transform="matrix(0.044444444444444446,0,0,0.044444444444444446,613.9111111111116,0)" xlink:href="#bg"/><use transform="matrix(0.044444444444444446,0,0,0.044444444444444446,625.4222222222227,0)" xlink:href="#bI"/><use transform="matrix(0.044444444444444446,0,0,0.044444444444444446,631.6444444444448,0)" xlink:href="#bc"/><use transform="matrix(0.044444444444444446,0,0,0.044444444444444446,641.3777777777782,0)" xlink:href="#bV"/><use transform="matrix(0.044444444444444446,0,0,0.044444444444444446,652.8888888888893,0)" xlink:href="#bN"/><use transform="matrix(0.044444444444444446,0,0,0.044444444444444446,664.4000000000003,0)" xlink:href="#bs"/><use transform="matrix(0.044444444444444446,0,0,0.044444444444444446,669.6888888888892,0)" xlink:href="#bZ"/><use transform="matrix(0.044444444444444446,0,0,0.044444444444444446,678.5777777777781,0)" xlink:href="#aZ"/><use transform="matrix(0.044444444444444446,0,0,0.044444444444444446,687.466666666667,0)" xlink:href="#bK"/></g><path fill="#6a9955" d="M160-152l-12 59h37v26h-43L128 0h-28l14-67H60L46 0H20l13-67H6v-26h33l13-59H15v-26h42l15-67h27l-15 67h54l15-67h27l-14 67h28v26h-34zm-81 0L66-93h55l12-59H79" id="ch"/><use transform="matrix(0.044444444444444446,0,0,0.044444444444444446,0,0)" xlink:href="#ch" id="G"/><path fill="#6a9955" d="M24-248c120-7 223 5 221 122C244-46 201 0 124 0H24v-248zM76-40c74 7 117-18 117-86 0-67-45-88-117-82v168" id="ci"/><path fill="#6a9955" d="M185-48c-13 30-37 53-82 52C43 2 14-33 14-96s30-98 90-98c62 0 83 45 84 108H66c0 31 8 55 39 56 18 0 30-7 34-22zm-45-69c5-46-57-63-70-21-2 6-4 13-4 21h74" id="cj"/><path fill="#6a9955" d="M144 0l-44-69L55 0H2l70-98-66-92h53l41 62 40-62h54l-67 91 71 99h-54" id="ck"/><path fill="#6a9955" d="M62-158H24l-5-90h48" id="cl"/><path fill="#6a9955" d="M137-138c1-29-70-34-71-4 15 46 118 7 119 86 1 83-164 76-172 9l43-7c4 19 20 25 44 25 33 8 57-30 24-41C81-84 22-81 20-136c-2-80 154-74 161-7" id="cm"/><g id="H"><use transform="matrix(0.044444444444444446,0,0,0.044444444444444446,0,0)" xlink:href="#ci"/><use transform="matrix(0.044444444444444446,0,0,0.044444444444444446,11.511111111111111,0)" xlink:href="#cj"/><use transform="matrix(0.044444444444444446,0,0,0.044444444444444446,20.4,0)" xlink:href="#ck"/><use transform="matrix(0.044444444444444446,0,0,0.044444444444444446,29.28888888888889,0)" xlink:href="#cl"/><use transform="matrix(0.044444444444444446,0,0,0.044444444444444446,33.06666666666666,0)" xlink:href="#cm"/></g><path fill="#6a9955" d="M25-224v-37h50v37H25zM25 0v-190h50V0H25" id="cn"/><path fill="#6a9955" d="M85 4C-2 5 27-109 22-190h50c7 57-23 150 33 157 60-5 35-97 40-157h50l1 190h-47c-2-12 1-28-3-38-12 25-28 42-61 42" id="co"/><path fill="#6a9955" d="M135-150c-39-12-60 13-60 57V0H25l-1-190h47c2 13-1 29 3 40 6-28 27-53 61-41v41" id="cp"/><g id="I"><use transform="matrix(0.044444444444444446,0,0,0.044444444444444446,0,0)" xlink:href="#cn"/><use transform="matrix(0.044444444444444446,0,0,0.044444444444444446,4.444444444444445,0)" xlink:href="#cm"/><use transform="matrix(0.044444444444444446,0,0,0.044444444444444446,13.333333333333334,0)" xlink:href="#cm"/><use transform="matrix(0.044444444444444446,0,0,0.044444444444444446,22.22222222222222,0)" xlink:href="#co"/><use transform="matrix(0.044444444444444446,0,0,0.044444444444444446,31.955555555555556,0)" xlink:href="#cj"/><use transform="matrix(0.044444444444444446,0,0,0.044444444444444446,40.84444444444445,0)" xlink:href="#cp"/></g><path fill="#6a9955" d="M238-95c0 69-44 99-111 99C63 4 22-25 22-93v-155h51v151c-1 38 19 59 55 60 90 1 49-130 58-211h52v153" id="cq"/><path fill="#6a9955" d="M240-174c0 40-23 61-54 70L253 0h-59l-57-94H76V0H24v-248c93 4 217-23 216 74zM76-134c48-2 112 12 112-38 0-48-66-32-112-35v73" id="cr"/><path fill="#6a9955" d="M24 0v-248h52v208h133V0H24" id="cs"/><g id="J"><use transform="matrix(0.044444444444444446,0,0,0.044444444444444446,0,0)" xlink:href="#cq"/><use transform="matrix(0.044444444444444446,0,0,0.044444444444444446,11.511111111111111,0)" xlink:href="#cr"/><use transform="matrix(0.044444444444444446,0,0,0.044444444444444446,23.022222222222222,0)" xlink:href="#cs"/></g><path fill="#6a9955" d="M125-100v72H85v-72H15v-39h70v-72h40v72h71v39h-71" id="ct"/><use transform="matrix(0.044444444444444446,0,0,0.044444444444444446,0,0)" xlink:href="#ct" id="K"/><path fill="#6a9955" d="M142-158h-39l-4-90h48zm-75 0H28l-4-90h48" id="cu"/><path fill="#6a9955" d="M4 7l51-268h42L46 7H4" id="cv"/><path fill="#6a9955" d="M190-63c-7 42-38 67-86 67-59 0-84-38-90-98-12-110 154-137 174-36l-49 2c-2-19-15-32-35-32-30 0-35 28-38 64-6 74 65 87 74 30" id="cw"/><path fill="#6a9955" d="M133-34C117-15 103 5 69 4 32 3 11-16 11-54c-1-60 55-63 116-61 1-26-3-47-28-47-18 1-26 9-28 27l-52-2c7-38 36-58 82-57s74 22 75 68l1 82c-1 14 12 18 25 15v27c-30 8-71 5-69-32zm-48 3c29 0 43-24 42-57-32 0-66-3-65 30 0 17 8 27 23 27" id="cx"/><path fill="#6a9955" d="M25 0v-261h50V0H25" id="cy"/><path fill="#6a9955" d="M135-194c52 0 70 43 70 98 0 56-19 99-73 100-30 1-46-15-58-35L72 0H24l1-261h50v104c11-23 29-37 60-37zM114-30c31 0 40-27 40-66 0-37-7-63-39-63s-41 28-41 65c0 36 8 64 40 64" id="cz"/><path fill="#6a9955" d="M147 0L96-86 75-71V0H25v-261h50v150l67-79h53l-66 74L201 0h-54" id="cA"/><g id="L"><use transform="matrix(0.044444444444444446,0,0,0.044444444444444446,0,0)" xlink:href="#cu"/><use transform="matrix(0.044444444444444446,0,0,0.044444444444444446,7.555555555555556,0)" xlink:href="#cv"/><use transform="matrix(0.044444444444444446,0,0,0.044444444444444446,12,0)" xlink:href="#cw"/><use transform="matrix(0.044444444444444446,0,0,0.044444444444444446,20.88888888888889,0)" xlink:href="#cx"/><use transform="matrix(0.044444444444444446,0,0,0.044444444444444446,29.77777777777778,0)" xlink:href="#cy"/><use transform="matrix(0.044444444444444446,0,0,0.044444444444444446,34.22222222222222,0)" xlink:href="#cy"/><use transform="matrix(0.044444444444444446,0,0,0.044444444444444446,38.666666666666664,0)" xlink:href="#cz"/><use transform="matrix(0.044444444444444446,0,0,0.044444444444444446,48.4,0)" xlink:href="#cx"/><use transform="matrix(0.044444444444444446,0,0,0.044444444444444446,57.28888888888889,0)" xlink:href="#cw"/><use transform="matrix(0.044444444444444446,0,0,0.044444444444444446,66.17777777777778,0)" xlink:href="#cA"/><use transform="matrix(0.044444444444444446,0,0,0.044444444444444446,75.06666666666666,0)" xlink:href="#cu"/></g><path fill="#569cd6" d="M238-95c0 69-44 99-111 99C63 4 22-25 22-93v-155h51v151c-1 38 19 59 55 60 90 1 49-130 58-211h52v153" id="cB"/><path fill="#569cd6" d="M240-174c0 40-23 61-54 70L253 0h-59l-57-94H76V0H24v-248c93 4 217-23 216 74zM76-134c48-2 112 12 112-38 0-48-66-32-112-35v73" id="cC"/><g id="M"><use transform="matrix(0.044444444444444446,0,0,0.044444444444444446,0,0)" xlink:href="#aO"/><use transform="matrix(0.044444444444444446,0,0,0.044444444444444446,6.222222222222222,0)" xlink:href="#aM"/><use transform="matrix(0.044444444444444446,0,0,0.044444444444444446,15.111111111111112,0)" xlink:href="#aY"/><use transform="matrix(0.044444444444444446,0,0,0.044444444444444446,24.844444444444445,0)" xlink:href="#aX"/><use transform="matrix(0.044444444444444446,0,0,0.044444444444444446,29.28888888888889,0)" xlink:href="#aO"/><use transform="matrix(0.044444444444444446,0,0,0.044444444444444446,35.51111111111111,0)" xlink:href="#aM"/><use transform="matrix(0.044444444444444446,0,0,0.044444444444444446,44.400000000000006,0)" xlink:href="#aJ"/><use transform="matrix(0.044444444444444446,0,0,0.044444444444444446,53.28888888888889,0)" xlink:href="#aN"/><use transform="matrix(0.044444444444444446,0,0,0.044444444444444446,58.57777777777778,0)" xlink:href="#cB"/><use transform="matrix(0.044444444444444446,0,0,0.044444444444444446,70.08888888888889,0)" xlink:href="#cC"/><use transform="matrix(0.044444444444444446,0,0,0.044444444444444446,81.6,0)" xlink:href="#bE"/><use transform="matrix(0.044444444444444446,0,0,0.044444444444444446,86.04444444444444,0)" xlink:href="#aQ"/></g><path fill="#834187" d="M15-91v-56l181-69v40L49-119l147 57v40" id="cD"/><path fill="#834187" d="M15-22v-40l146-57-146-57v-40l181 69v56" id="cE"/><g id="N"><use transform="matrix(0.044444444444444446,0,0,0.044444444444444446,0,0)" xlink:href="#bc"/><use transform="matrix(0.044444444444444446,0,0,0.044444444444444446,9.733333333333334,0)" xlink:href="#bb"/><use transform="matrix(0.044444444444444446,0,0,0.044444444444444446,15.022222222222222,0)" xlink:href="#bb"/><use transform="matrix(0.044444444444444446,0,0,0.044444444444444446,20.31111111111111,0)" xlink:href="#bm"/><use transform="matrix(0.044444444444444446,0,0,0.044444444444444446,30.044444444444444,0)" xlink:href="#bo"/><use transform="matrix(0.044444444444444446,0,0,0.044444444444444446,35.333333333333336,0)" xlink:href="#bp"/><use transform="matrix(0.044444444444444446,0,0,0.044444444444444446,39.77777777777778,0)" xlink:href="#bp"/><use transform="matrix(0.044444444444444446,0,0,0.044444444444444446,44.22222222222222,0)" xlink:href="#cD"/><use transform="matrix(0.044444444444444446,0,0,0.044444444444444446,53.55555555555556,0)" xlink:href="#aU"/><use transform="matrix(0.044444444444444446,0,0,0.044444444444444446,58,0)" xlink:href="#bm"/><use transform="matrix(0.044444444444444446,0,0,0.044444444444444446,67.73333333333333,0)" xlink:href="#cE"/><use transform="matrix(0.044444444444444446,0,0,0.044444444444444446,77.06666666666666,0)" xlink:href="#bo"/><use transform="matrix(0.044444444444444446,0,0,0.044444444444444446,82.35555555555555,0)" xlink:href="#bu"/><use transform="matrix(0.044444444444444446,0,0,0.044444444444444446,91.24444444444445,0)" xlink:href="#bd"/><use transform="matrix(0.044444444444444446,0,0,0.044444444444444446,100.13333333333331,0)" xlink:href="#ce"/><use transform="matrix(0.044444444444444446,0,0,0.044444444444444446,109.02222222222221,0)" xlink:href="#bx"/><use transform="matrix(0.044444444444444446,0,0,0.044444444444444446,117.9111111111111,0)" xlink:href="#bU"/><use transform="matrix(0.044444444444444446,0,0,0.044444444444444446,126.79999999999998,0)" xlink:href="#bp"/><use transform="matrix(0.044444444444444446,0,0,0.044444444444444446,131.24444444444444,0)" xlink:href="#aW"/><use transform="matrix(0.044444444444444446,0,0,0.044444444444444446,140.13333333333333,0)" xlink:href="#aZ"/><use transform="matrix(0.044444444444444446,0,0,0.044444444444444446,149.0222222222222,0)" xlink:href="#cc"/><use transform="matrix(0.044444444444444446,0,0,0.044444444444444446,153.46666666666667,0)" xlink:href="#cc"/><use transform="matrix(0.044444444444444446,0,0,0.044444444444444446,157.91111111111113,0)" xlink:href="#bW"/><use transform="matrix(0.044444444444444446,0,0,0.044444444444444446,167.64444444444445,0)" xlink:href="#aZ"/><use transform="matrix(0.044444444444444446,0,0,0.044444444444444446,176.53333333333333,0)" xlink:href="#aW"/><use transform="matrix(0.044444444444444446,0,0,0.044444444444444446,185.42222222222222,0)" xlink:href="#bt"/></g><g id="P"><use transform="matrix(0.044444444444444446,0,0,0.044444444444444446,0,0)" xlink:href="#aP"/><use transform="matrix(0.044444444444444446,0,0,0.044444444444444446,8.88888888888889,0)" xlink:href="#aJ"/><use transform="matrix(0.044444444444444446,0,0,0.044444444444444446,17.77777777777778,0)" xlink:href="#aK"/><use transform="matrix(0.044444444444444446,0,0,0.044444444444444446,27.511111111111113,0)" xlink:href="#aS"/><use transform="matrix(0.044444444444444446,0,0,0.044444444444444446,37.24444444444445,0)" xlink:href="#aM"/><use transform="matrix(0.044444444444444446,0,0,0.044444444444444446,46.13333333333333,0)" xlink:href="#aP"/><use transform="matrix(0.044444444444444446,0,0,0.044444444444444446,55.022222222222226,0)" xlink:href="#aQ"/></g><path fill="#569cd6" d="M14-72v-43h91v43H14" id="cF"/><use transform="matrix(0.044444444444444446,0,0,0.044444444444444446,0,0)" xlink:href="#cF" id="R"/><g id="S"><use transform="matrix(0.044444444444444446,0,0,0.044444444444444446,0,0)" xlink:href="#bG"/><use transform="matrix(0.044444444444444446,0,0,0.044444444444444446,9.733333333333334,0)" xlink:href="#bI"/><use transform="matrix(0.044444444444444446,0,0,0.044444444444444446,15.955555555555556,0)" xlink:href="#aT"/><use transform="matrix(0.044444444444444446,0,0,0.044444444444444446,25.68888888888889,0)" xlink:href="#ba"/><use transform="matrix(0.044444444444444446,0,0,0.044444444444444446,35.422222222222224,0)" xlink:href="#bm"/><use transform="matrix(0.044444444444444446,0,0,0.044444444444444446,45.15555555555556,0)" xlink:href="#bn"/></g><use transform="matrix(0.044444444444444446,0,0,0.044444444444444446,0,0)" xlink:href="#cF" id="U"/><g id="V"><use transform="matrix(0.044444444444444446,0,0,0.044444444444444446,0,0)" xlink:href="#bq"/><use transform="matrix(0.044444444444444446,0,0,0.044444444444444446,8.88888888888889,0)" xlink:href="#bC"/><use transform="matrix(0.044444444444444446,0,0,0.044444444444444446,23.11111111111111,0)" xlink:href="#aZ"/><use transform="matrix(0.044444444444444446,0,0,0.044444444444444446,32,0)" xlink:href="#aU"/><use transform="matrix(0.044444444444444446,0,0,0.044444444444444446,36.44444444444444,0)" xlink:href="#cc"/></g><path fill="#834187" d="M121-226c-27-7-43 5-38 36h38v33H83V0H34v-157H6v-33h28c-9-59 32-81 87-68v32" id="cG"/><g id="W"><use transform="matrix(0.044444444444444446,0,0,0.044444444444444446,0,0)" xlink:href="#bm"/><use transform="matrix(0.044444444444444446,0,0,0.044444444444444446,9.733333333333334,0)" xlink:href="#bI"/><use transform="matrix(0.044444444444444446,0,0,0.044444444444444446,15.955555555555556,0)" xlink:href="#aT"/><use transform="matrix(0.044444444444444446,0,0,0.044444444444444446,25.68888888888889,0)" xlink:href="#cG"/><use transform="matrix(0.044444444444444446,0,0,0.044444444444444446,30.977777777777778,0)" xlink:href="#aU"/><use transform="matrix(0.044444444444444446,0,0,0.044444444444444446,35.422222222222224,0)" xlink:href="#cc"/><use transform="matrix(0.044444444444444446,0,0,0.044444444444444446,39.86666666666667,0)" xlink:href="#bq"/></g><path fill="#569cd6" d="M230 0l2-204L168 0h-37L68-204 70 0H24v-248h70l56 185 57-185h69V0h-46" id="cH"/><g id="Y"><use transform="matrix(0.044444444444444446,0,0,0.044444444444444446,0,0)" xlink:href="#aJ"/><use transform="matrix(0.044444444444444446,0,0,0.044444444444444446,8.88888888888889,0)" xlink:href="#bD"/><use transform="matrix(0.044444444444444446,0,0,0.044444444444444446,13.333333333333334,0)" xlink:href="#be"/><use transform="matrix(0.044444444444444446,0,0,0.044444444444444446,22.22222222222222,0)" xlink:href="#aX"/><use transform="matrix(0.044444444444444446,0,0,0.044444444444444446,26.666666666666664,0)" xlink:href="#bf"/><use transform="matrix(0.044444444444444446,0,0,0.044444444444444446,40.888888888888886,0)" xlink:href="#cH"/><use transform="matrix(0.044444444444444446,0,0,0.044444444444444446,54.17777777777778,0)" xlink:href="#be"/><use transform="matrix(0.044444444444444446,0,0,0.044444444444444446,63.066666666666656,0)" xlink:href="#aS"/><use transform="matrix(0.044444444444444446,0,0,0.044444444444444446,72.8,0)" xlink:href="#aS"/><use transform="matrix(0.044444444444444446,0,0,0.044444444444444446,82.53333333333333,0)" xlink:href="#aX"/><use transform="matrix(0.044444444444444446,0,0,0.044444444444444446,86.97777777777777,0)" xlink:href="#aL"/><use transform="matrix(0.044444444444444446,0,0,0.044444444444444446,96.71111111111111,0)" xlink:href="#bk"/><use transform="matrix(0.044444444444444446,0,0,0.044444444444444446,106.44444444444444,0)" xlink:href="#aQ"/></g><g id="aa"><use transform="matrix(0.044444444444444446,0,0,0.044444444444444446,0,0)" xlink:href="#bk"/><use transform="matrix(0.044444444444444446,0,0,0.044444444444444446,9.733333333333334,0)" xlink:href="#aO"/><use transform="matrix(0.044444444444444446,0,0,0.044444444444444446,15.955555555555556,0)" xlink:href="#aK"/><use transform="matrix(0.044444444444444446,0,0,0.044444444444444446,25.68888888888889,0)" xlink:href="#bl"/><use transform="matrix(0.044444444444444446,0,0,0.044444444444444446,35.422222222222224,0)" xlink:href="#aS"/><use transform="matrix(0.044444444444444446,0,0,0.044444444444444446,45.15555555555556,0)" xlink:href="#aP"/><use transform="matrix(0.044444444444444446,0,0,0.044444444444444446,54.044444444444444,0)" xlink:href="#aQ"/></g><g id="ab"><use transform="matrix(0.044444444444444446,0,0,0.044444444444444446,0,0)" xlink:href="#bc"/><use transform="matrix(0.044444444444444446,0,0,0.044444444444444446,9.733333333333334,0)" xlink:href="#bb"/><use transform="matrix(0.044444444444444446,0,0,0.044444444444444446,15.022222222222222,0)" xlink:href="#bb"/><use transform="matrix(0.044444444444444446,0,0,0.044444444444444446,20.31111111111111,0)" xlink:href="#bm"/><use transform="matrix(0.044444444444444446,0,0,0.044444444444444446,30.044444444444444,0)" xlink:href="#bo"/><use transform="matrix(0.044444444444444446,0,0,0.044444444444444446,35.333333333333336,0)" xlink:href="#bp"/><use transform="matrix(0.044444444444444446,0,0,0.044444444444444446,39.77777777777778,0)" xlink:href="#bp"/><use transform="matrix(0.044444444444444446,0,0,0.044444444444444446,44.22222222222222,0)" xlink:href="#bm"/><use transform="matrix(0.044444444444444446,0,0,0.044444444444444446,53.955555555555556,0)" xlink:href="#aZ"/><use transform="matrix(0.044444444444444446,0,0,0.044444444444444446,62.84444444444445,0)" xlink:href="#aW"/><use transform="matrix(0.044444444444444446,0,0,0.044444444444444446,71.73333333333333,0)" xlink:href="#bc"/><use transform="matrix(0.044444444444444446,0,0,0.044444444444444446,81.46666666666667,0)" xlink:href="#by"/><use transform="matrix(0.044444444444444446,0,0,0.044444444444444446,90.35555555555555,0)" xlink:href="#aV"/><use transform="matrix(0.044444444444444446,0,0,0.044444444444444446,100.08888888888889,0)" xlink:href="#bq"/><use transform="matrix(0.044444444444444446,0,0,0.044444444444444446,108.97777777777779,0)" xlink:href="#bI"/><use transform="matrix(0.044444444444444446,0,0,0.044444444444444446,115.2,0)" xlink:href="#bC"/><use transform="matrix(0.044444444444444446,0,0,0.044444444444444446,129.42222222222222,0)" xlink:href="#bB"/><use transform="matrix(0.044444444444444446,0,0,0.044444444444444446,133.86666666666667,0)" xlink:href="#aW"/><use transform="matrix(0.044444444444444446,0,0,0.044444444444444446,142.75555555555556,0)" xlink:href="#aT"/><use transform="matrix(0.044444444444444446,0,0,0.044444444444444446,152.48888888888888,0)" xlink:href="#bC"/><use transform="matrix(0.044444444444444446,0,0,0.044444444444444446,166.7111111111111,0)" xlink:href="#bp"/><use transform="matrix(0.044444444444444446,0,0,0.044444444444444446,171.15555555555557,0)" xlink:href="#bG"/><use transform="matrix(0.044444444444444446,0,0,0.044444444444444446,180.8888888888889,0)" xlink:href="#bI"/><use transform="matrix(0.044444444444444446,0,0,0.044444444444444446,187.11111111111117,0)" xlink:href="#aT"/><use transform="matrix(0.044444444444444446,0,0,0.044444444444444446,196.8444444444445,0)" xlink:href="#ba"/><use transform="matrix(0.044444444444444446,0,0,0.044444444444444446,206.57777777777784,0)" xlink:href="#bm"/><use transform="matrix(0.044444444444444446,0,0,0.044444444444444446,216.3111111111112,0)" xlink:href="#bn"/></g><path fill="#569cd6" d="M24 0v-248h195v40H76v63h132v40H76v65h150V0H24" id="cI"/><path fill="#569cd6" d="M135-194c52 0 70 43 70 98 0 56-19 99-73 100-30 1-46-15-58-35L72 0H24l1-261h50v104c11-23 29-37 60-37zM114-30c31 0 40-27 40-66 0-37-7-63-39-63s-41 28-41 65c0 36 8 64 40 64" id="cJ"/><path fill="#569cd6" d="M67-125c0 54 23 88 75 88 28 0 53-7 68-21v-34h-60v-39h108v91C232-14 192 4 140 4 58 4 20-42 15-125 8-236 126-280 215-234c19 10 29 26 37 47l-47 15c-11-23-29-39-63-39-53 1-75 33-75 86" id="cK"/><g id="ac"><use transform="matrix(0.044444444444444446,0,0,0.044444444444444446,0,0)" xlink:href="#aX"/><use transform="matrix(0.044444444444444446,0,0,0.044444444444444446,4.444444444444445,0)" xlink:href="#aL"/><use transform="matrix(0.044444444444444446,0,0,0.044444444444444446,14.177777777777779,0)" xlink:href="#aP"/><use transform="matrix(0.044444444444444446,0,0,0.044444444444444446,23.066666666666666,0)" xlink:href="#aM"/><use transform="matrix(0.044444444444444446,0,0,0.044444444444444446,31.955555555555556,0)" xlink:href="#aJ"/><use transform="matrix(0.044444444444444446,0,0,0.044444444444444446,40.84444444444445,0)" xlink:href="#bl"/><use transform="matrix(0.044444444444444446,0,0,0.044444444444444446,50.57777777777778,0)" xlink:href="#aO"/><use transform="matrix(0.044444444444444446,0,0,0.044444444444444446,56.800000000000004,0)" xlink:href="#aM"/><use transform="matrix(0.044444444444444446,0,0,0.044444444444444446,65.6888888888889,0)" xlink:href="#cI"/><use transform="matrix(0.044444444444444446,0,0,0.044444444444444446,76.35555555555557,0)" xlink:href="#aL"/><use transform="matrix(0.044444444444444446,0,0,0.044444444444444446,86.0888888888889,0)" xlink:href="#be"/><use transform="matrix(0.044444444444444446,0,0,0.044444444444444446,94.97777777777777,0)" xlink:href="#cJ"/><use transform="matrix(0.044444444444444446,0,0,0.044444444444444446,104.71111111111111,0)" xlink:href="#bD"/><use transform="matrix(0.044444444444444446,0,0,0.044444444444444446,109.15555555555557,0)" xlink:href="#aM"/><use transform="matrix(0.044444444444444446,0,0,0.044444444444444446,118.04444444444445,0)" xlink:href="#cK"/><use transform="matrix(0.044444444444444446,0,0,0.044444444444444446,130.4888888888889,0)" xlink:href="#aO"/><use transform="matrix(0.044444444444444446,0,0,0.044444444444444446,136.71111111111114,0)" xlink:href="#aK"/><use transform="matrix(0.044444444444444446,0,0,0.044444444444444446,146.44444444444446,0)" xlink:href="#bl"/><use transform="matrix(0.044444444444444446,0,0,0.044444444444444446,156.1777777777778,0)" xlink:href="#aS"/><use transform="matrix(0.044444444444444446,0,0,0.044444444444444446,165.91111111111115,0)" xlink:href="#aP"/><use transform="matrix(0.044444444444444446,0,0,0.044444444444444446,174.80000000000004,0)" xlink:href="#aQ"/></g><g id="ad"><use transform="matrix(0.044444444444444446,0,0,0.044444444444444446,0,0)" xlink:href="#bb"/><use transform="matrix(0.044444444444444446,0,0,0.044444444444444446,5.288888888888889,0)" xlink:href="#bI"/><use transform="matrix(0.044444444444444446,0,0,0.044444444444444446,11.511111111111111,0)" xlink:href="#ba"/><use transform="matrix(0.044444444444444446,0,0,0.044444444444444446,21.244444444444447,0)" xlink:href="#bq"/></g><path fill="#333" d="M135-194c53 0 70 44 70 98 0 56-19 98-73 100-31 1-45-17-59-34 3 33 2 69 2 105H25l-1-265h48c2 10 0 23 3 31 11-24 29-35 60-35zM114-30c33 0 39-31 40-66 0-38-9-64-40-64-56 0-55 130 0 130" id="cL"/><path fill="#333" d="M133-34C117-15 103 5 69 4 32 3 11-16 11-54c-1-60 55-63 116-61 1-26-3-47-28-47-18 1-26 9-28 27l-52-2c7-38 36-58 82-57s74 22 75 68l1 82c-1 14 12 18 25 15v27c-30 8-71 5-69-32zm-48 3c29 0 43-24 42-57-32 0-66-3-65 30 0 17 8 27 23 27" id="cM"/><path fill="#333" d="M190-63c-7 42-38 67-86 67-59 0-84-38-90-98-12-110 154-137 174-36l-49 2c-2-19-15-32-35-32-30 0-35 28-38 64-6 74 65 87 74 30" id="cN"/><path fill="#333" d="M114-157C55-157 80-60 75 0H25v-261h50l-1 109c12-26 28-41 61-42 86-1 58 113 63 194h-50c-7-57 23-157-34-157" id="cO"/><path fill="#333" d="M88-194c31-1 46 15 58 34l-1-101h50l1 261h-48c-2-10 0-23-3-31C134-8 116 4 84 4 32 4 16-41 15-95c0-56 19-97 73-99zm17 164c33 0 40-30 41-66 1-37-9-64-41-64s-38 30-39 65c0 43 13 65 39 65" id="cP"/><g id="ae"><use transform="matrix(0.04444444444444443,0,0,0.04444444444444443,0,0)" xlink:href="#cL"/><use transform="matrix(0.04444444444444443,0,0,0.04444444444444443,9.73333333333333,0)" xlink:href="#cM"/><use transform="matrix(0.04444444444444443,0,0,0.04444444444444443,18.622222222222216,0)" xlink:href="#cN"/><use transform="matrix(0.04444444444444443,0,0,0.04444444444444443,27.511111111111102,0)" xlink:href="#cO"/><use transform="matrix(0.04444444444444443,0,0,0.04444444444444443,37.24444444444443,0)" xlink:href="#cP"/></g></defs></g></svg>