<svg xmlns="http://www.w3.org/2000/svg" xmlns:xlink="http://www.w3.org/1999/xlink" xmlns:lucid="lucid" width="1171.58" height="620"><g transform="translate(-60 -160)" lucid:page-tab-id="0_0"><path d="M380 306c0-3.3 2.7-6 6-6h148c3.3 0 6 2.7 6 6v86c0 3.3-2.7 6-6 6H386c-3.3 0-6-2.7-6-6z" stroke="#5e5e5e" stroke-width="2" fill="#fff"/><use xlink:href="#a" transform="matrix(1,0,0,1,385,305) translate(33.00308641975309 49.80555555555556)"/><path d="M180 466c0-3.3 2.7-6 6-6h148c3.3 0 6 2.7 6 6v86c0 3.3-2.7 6-6 6H186c-3.3 0-6-2.7-6-6z" stroke="#5e5e5e" stroke-width="2" fill="#fff"/><use xlink:href="#b" transform="matrix(1,0,0,1,185,465) translate(33.64814814814817 38.80555555555556)"/><use xlink:href="#c" transform="matrix(1,0,0,1,185,465) translate(4.530864197530917 62.80555555555554)"/><path d="M580 466c0-3.3 2.7-6 6-6h148c3.3 0 6 2.7 6 6v86c0 3.3-2.7 6-6 6H586c-3.3 0-6-2.7-6-6z" stroke="#5e5e5e" stroke-width="2" fill="#fff"/><use xlink:href="#d" transform="matrix(1,0,0,1,585,465) translate(33.64814814814817 38.80555555555556)"/><use xlink:href="#e" transform="matrix(1,0,0,1,585,465) translate(63.17283950617285 62.80555555555554)"/><path d="M80 626c0-3.3 2.7-6 6-6h148c3.3 0 6 2.7 6 6v86c0 3.3-2.7 6-6 6H86c-3.3 0-6-2.7-6-6z" stroke="#5e5e5e" stroke-width="2" fill="#fff"/><use xlink:href="#f" transform="matrix(1,0,0,1,85,625) translate(44.546296296296305 38.80555555555556)"/><use xlink:href="#g" transform="matrix(1,0,0,1,85,625) translate(14.407407407407447 62.80555555555554)"/><path d="M280 626c0-3.3 2.7-6 6-6h148c3.3 0 6 2.7 6 6v86c0 3.3-2.7 6-6 6H286c-3.3 0-6-2.7-6-6z" stroke="#5e5e5e" stroke-width="2" fill="#fff"/><use xlink:href="#f" transform="matrix(1,0,0,1,285,625) translate(44.546296296296305 38.80555555555556)"/><use xlink:href="#h" transform="matrix(1,0,0,1,285,625) translate(16.30864197530868 62.80555555555554)"/><path d="M480 626c0-3.3 2.7-6 6-6h148c3.3 0 6 2.7 6 6v86c0 3.3-2.7 6-6 6H486c-3.3 0-6-2.7-6-6z" stroke="#5e5e5e" stroke-width="2" fill="#fff"/><use xlink:href="#f" transform="matrix(1,0,0,1,485,625) translate(44.546296296296305 38.80555555555556)"/><use xlink:href="#i" transform="matrix(1,0,0,1,485,625) translate(35.049382716049415 62.80555555555554)"/><path d="M680 626c0-3.3 2.7-6 6-6h148c3.3 0 6 2.7 6 6v86c0 3.3-2.7 6-6 6H686c-3.3 0-6-2.7-6-6z" stroke="#5e5e5e" stroke-width="2" fill="#fff"/><use xlink:href="#f" transform="matrix(1,0,0,1,685,625) translate(44.546296296296305 38.80555555555556)"/><use xlink:href="#j" transform="matrix(1,0,0,1,685,625) translate(16.802469135802504 62.80555555555554)"/><path d="M493 400v74c0 3.3 2.7 6 6 6h79" stroke="#5e5e5e" stroke-width="2" fill="none"/><path d="M494 400.03h-2V399h2zM579 481h-1.03v-2H579z" fill="#5e5e5e"/><path d="M421.33 400v72.67c0 3.3-2.68 6-6 6H342" stroke="#5e5e5e" stroke-width="2" fill="none"/><path d="M422.33 400.03h-2V399h2zM342.03 479.67H341v-2h1.03z" fill="#5e5e5e"/><path d="M220.67 560v23c0 3.3-2.7 6-6 6h-48c-3.32 0-6 2.7-6 6v23" stroke="#5e5e5e" stroke-width="2" fill="none"/><path d="M221.67 560.03h-2V559h2zM161.67 619h-2v-1.03h2z" fill="#5e5e5e"/><path d="M620 560v23c0 3.3-2.7 6-6 6h-48c-3.3 0-6 2.7-6 6v23" stroke="#5e5e5e" stroke-width="2" fill="none"/><path d="M621 560.03h-2V559h2zM561 619h-2v-1.03h2z" fill="#5e5e5e"/><path d="M300 560v23c0 3.3 2.7 6 6 6h48c3.3 0 6 2.7 6 6v23" stroke="#5e5e5e" stroke-width="2" fill="none"/><path d="M301 560.03h-2V559h2zM361 619h-2v-1.03h2z" fill="#5e5e5e"/><path d="M701 560v23c0 3.3 2.7 6 6 6h48c3.3 0 6 2.7 6 6v23" stroke="#5e5e5e" stroke-width="2" fill="none"/><path d="M702 560.03h-2V559h2zM762 619h-2v-1.03h2z" fill="#5e5e5e"/><path d="M1059.5 309.5c0 5.25-4.25 9.5-9.5 9.5s-9.5-4.25-9.5-9.5 4.25-9.5 9.5-9.5 9.5 4.25 9.5 9.5z" stroke="#5e5e5e" stroke-width="3" fill="#fff"/><path d="M1050 319v20.6c0 3.3 1.9 7.9 4.2 10.27L1080 376m-30-30.4l-30 30.4m0-47.5h60" stroke="#5e5e5e" stroke-width="3" fill="none"/><path d="M1020 306c0-3.3 2.7-6 6-6h48c3.3 0 6 2.7 6 6v86c0 3.3-2.7 6-6 6h-48c-3.3 0-6-2.7-6-6z" fill="none"/><path d="M1059.5 469.5c0 5.25-4.25 9.5-9.5 9.5s-9.5-4.25-9.5-9.5 4.25-9.5 9.5-9.5 9.5 4.25 9.5 9.5z" stroke="#5e5e5e" stroke-width="3" fill="#fff"/><path d="M1050 479v20.6c0 3.3 1.9 7.9 4.2 10.27L1080 536m-30-30.4l-30 30.4m0-47.5h60" stroke="#5e5e5e" stroke-width="3" fill="none"/><path d="M1020 466c0-3.3 2.7-6 6-6h48c3.3 0 6 2.7 6 6v86c0 3.3-2.7 6-6 6h-48c-3.3 0-6-2.7-6-6z" fill="none"/><path d="M1059.5 629.5c0 5.25-4.25 9.5-9.5 9.5s-9.5-4.25-9.5-9.5 4.25-9.5 9.5-9.5 9.5 4.25 9.5 9.5z" stroke="#5e5e5e" stroke-width="3" fill="#fff"/><path d="M1050 639v20.6c0 3.3 1.9 7.9 4.2 10.27L1080 696m-30-30.4l-30 30.4m0-47.5h60" stroke="#5e5e5e" stroke-width="3" fill="none"/><path d="M1020 626c0-3.3 2.7-6 6-6h48c3.3 0 6 2.7 6 6v86c0 3.3-2.7 6-6 6h-48c-3.3 0-6-2.7-6-6z" fill="none"/><path d="M1009 349H559.5" stroke="#5e5e5e" stroke-width="2" fill="none"/><path d="M1010 350h-1.03v-2h1.03z" fill="#5e5e5e"/><path d="M544.24 349l14.26-4.64v9.28z" stroke="#5e5e5e" stroke-width="2" fill="#5e5e5e"/><path d="M830 306c0-3.3 2.7-6 6-6h168c3.3 0 6 2.7 6 6v48c0 3.3-2.7 6-6 6H836c-3.3 0-6-2.7-6-6z" stroke="#000" stroke-opacity="0" stroke-width="3" fill="#fff" fill-opacity="0"/><use xlink:href="#k" transform="matrix(1,0,0,1,835,305) translate(23.395061728395056 30.27777777777778)"/><path d="M840 466c0-3.3 2.7-6 6-6h148c3.3 0 6 2.7 6 6v48c0 3.3-2.7 6-6 6H846c-3.3 0-6-2.7-6-6z" stroke="#000" stroke-opacity="0" stroke-width="3" fill="#fff" fill-opacity="0"/><use xlink:href="#l" transform="matrix(1,0,0,1,845,465) translate(16.45061728395062 30.27777777777778)"/><path d="M999 509H759.5" stroke="#5e5e5e" stroke-width="2" fill="none"/><path d="M1000 510h-1.03v-2h1.03z" fill="#5e5e5e"/><path d="M744.24 509l14.26-4.64v9.28z" stroke="#5e5e5e" stroke-width="2" fill="#5e5e5e"/><path d="M840 626c0-3.3 2.7-6 6-6h148c3.3 0 6 2.7 6 6v48c0 3.3-2.7 6-6 6H846c-3.3 0-6-2.7-6-6z" stroke="#000" stroke-opacity="0" stroke-width="3" fill="#fff" fill-opacity="0"/><use xlink:href="#m" transform="matrix(1,0,0,1,845,625) translate(19.16666666666667 30.27777777777778)"/><path d="M999 669H859.5" stroke="#5e5e5e" stroke-width="2" fill="none"/><path d="M1000 670h-1.03v-2h1.03z" fill="#5e5e5e"/><path d="M844.24 669l14.26-4.64v9.28z" stroke="#5e5e5e" stroke-width="2" fill="#5e5e5e"/><path d="M930 386c0-3.3 2.7-6 6-6h228c3.3 0 6 2.7 6 6v48c0 3.3-2.7 6-6 6H936c-3.3 0-6-2.7-6-6z" stroke="#000" stroke-opacity="0" stroke-width="3" fill="#fff" fill-opacity="0"/><use xlink:href="#n" transform="matrix(1,0,0,1,935,385) translate(33.12345679012347 29.84722222222222)"/><path d="M930 546c0-3.3 2.7-6 6-6h228c3.3 0 6 2.7 6 6v48c0 3.3-2.7 6-6 6H936c-3.3 0-6-2.7-6-6z" stroke="#000" stroke-opacity="0" stroke-width="3" fill="#fff" fill-opacity="0"/><use xlink:href="#o" transform="matrix(1,0,0,1,935,545) translate(-40.3086419753086 28.555555555555557)"/><path d="M920 706c0-3.3 2.7-6 6-6h228c3.3 0 6 2.7 6 6v48c0 3.3-2.7 6-6 6H926c-3.3 0-6-2.7-6-6z" stroke="#000" stroke-opacity="0" stroke-width="3" fill="#fff" fill-opacity="0"/><use xlink:href="#p" transform="matrix(1,0,0,1,925,705) translate(-55.419753086419746 28.555555555555557)"/><a xlink:href="http://Ressources" target="_blank"><path d="M400 186c0-3.3 2.7-6 6-6h128c3.3 0 6 2.7 6 6v22.4c0 3.3-2.55 6.84-5.7 7.87l-58.6 19.2c-3.15 1.03-8.25 1.03-11.4 0l-58.6-19.2c-3.15-1.03-5.7-4.56-5.7-7.87z" stroke="#834187" stroke-width="2" fill="#fff"/><use xlink:href="#q" transform="matrix(1,0,0,1,405,185) translate(2.129629629629626 17.77777777777778)"/><path class="lucid-link lucid-hotspot lucid-overlay-hotspot" d="M400 186c0-3.3 2.7-6 6-6h128c3.3 0 6 2.7 6 6v22.4c0 3.3-2.55 6.84-5.7 7.87l-58.6 19.2c-3.15 1.03-8.25 1.03-11.4 0l-58.6-19.2c-3.15-1.03-5.7-4.56-5.7-7.87z" fill="none"/></a><path d="M880 186c0-3.3 2.7-6 6-6h68c3.3 0 6 2.7 6 6v24c0 3.3-2.3 7.38-5.14 9.1l-29.72 17.8c-2.84 1.72-7.44 1.72-10.28 0l-29.72-17.8c-2.84-1.72-5.14-5.8-5.14-9.1z" stroke="#834187" stroke-width="2" fill="#fff"/><g><use xlink:href="#r" transform="matrix(1,0,0,1,885,185) translate(4.814814814814817 17.77777777777778)"/></g><path d="M1020 186c0-3.3 2.7-6 6-6h68c3.3 0 6 2.7 6 6v22.4c0 3.3-2.33 7.34-5.2 8.98l-29.6 16.97c-2.87 1.65-7.53 1.65-10.4 0l-29.6-16.97c-2.87-1.64-5.2-5.67-5.2-8.98z" stroke="#834187" stroke-width="2" fill="#fff"/><g><use xlink:href="#s" transform="matrix(1,0,0,1,1025,185) translate(4.166666666666668 17.77777777777778)"/></g><defs><path fill="#333" d="M67-125c0 53 21 87 73 88 37 1 54-22 65-47l45 17C233-25 199 4 140 4 58 4 20-42 15-125 8-235 124-281 211-232c18 10 29 29 36 50l-46 12c-8-25-30-41-62-41-52 0-71 34-72 86" id="t"/><path fill="#333" d="M25 0v-261h50V0H25" id="u"/><path fill="#333" d="M85 4C-2 5 27-109 22-190h50c7 57-23 150 33 157 60-5 35-97 40-157h50l1 190h-47c-2-12 1-28-3-38-12 25-28 42-61 42" id="v"/><path fill="#333" d="M137-138c1-29-70-34-71-4 15 46 118 7 119 86 1 83-164 76-172 9l43-7c4 19 20 25 44 25 33 8 57-30 24-41C81-84 22-81 20-136c-2-80 154-74 161-7" id="w"/><path fill="#333" d="M115-3C79 11 28 4 28-45v-112H4v-33h27l15-45h31v45h36v33H77v99c-1 23 16 31 38 25v30" id="x"/><path fill="#333" d="M185-48c-13 30-37 53-82 52C43 2 14-33 14-96s30-98 90-98c62 0 83 45 84 108H66c0 31 8 55 39 56 18 0 30-7 34-22zm-45-69c5-46-57-63-70-21-2 6-4 13-4 21h74" id="y"/><path fill="#333" d="M135-150c-39-12-60 13-60 57V0H25l-1-190h47c2 13-1 29 3 40 6-28 27-53 61-41v41" id="z"/><g id="a"><use transform="matrix(0.06790123456790122,0,0,0.06790123456790122,0,0)" xlink:href="#t"/><use transform="matrix(0.06790123456790122,0,0,0.06790123456790122,17.586419753086414,0)" xlink:href="#u"/><use transform="matrix(0.06790123456790122,0,0,0.06790123456790122,24.376543209876537,0)" xlink:href="#v"/><use transform="matrix(0.06790123456790122,0,0,0.06790123456790122,39.246913580246904,0)" xlink:href="#w"/><use transform="matrix(0.06790123456790122,0,0,0.06790123456790122,52.82716049382716,0)" xlink:href="#x"/><use transform="matrix(0.06790123456790122,0,0,0.06790123456790122,60.9074074074074,0)" xlink:href="#y"/><use transform="matrix(0.06790123456790122,0,0,0.06790123456790122,74.48765432098764,0)" xlink:href="#z"/></g><path fill="#333" d="M24-248c93 1 206-16 204 79-1 75-69 88-152 82V0H24v-248zm52 121c47 0 100 7 100-41 0-47-54-39-100-39v80" id="A"/><path fill="#333" d="M110-194c64 0 96 36 96 99 0 64-35 99-97 99-61 0-95-36-95-99 0-62 34-99 96-99zm-1 164c35 0 45-28 45-65 0-40-10-65-43-65-34 0-45 26-45 65 0 36 10 65 43 65" id="B"/><path fill="#333" d="M25-224v-37h50v37H25zM75 22c2 45-34 59-81 51V38c22 5 31-5 31-27v-201h50V22" id="C"/><path fill="#333" d="M190-63c-7 42-38 67-86 67-59 0-84-38-90-98-12-110 154-137 174-36l-49 2c-2-19-15-32-35-32-30 0-35 28-38 64-6 74 65 87 74 30" id="D"/><g id="b"><use transform="matrix(0.06790123456790122,0,0,0.06790123456790122,0,0)" xlink:href="#A"/><use transform="matrix(0.06790123456790122,0,0,0.06790123456790122,16.29629629629629,0)" xlink:href="#z"/><use transform="matrix(0.06790123456790122,0,0,0.06790123456790122,25.80246913580246,0)" xlink:href="#B"/><use transform="matrix(0.06790123456790122,0,0,0.06790123456790122,40.67283950617283,0)" xlink:href="#C"/><use transform="matrix(0.06790123456790122,0,0,0.06790123456790122,47.46296296296295,0)" xlink:href="#y"/><use transform="matrix(0.06790123456790122,0,0,0.06790123456790122,61.04320987654319,0)" xlink:href="#D"/><use transform="matrix(0.06790123456790122,0,0,0.06790123456790122,74.62345679012343,0)" xlink:href="#x"/></g><path fill="#333" d="M24-231v-30h32v30H24zM24 0v-190h32V0H24" id="E"/><path fill="#333" d="M210-169c-67 3-38 105-44 169h-31v-121c0-29-5-50-35-48C34-165 62-65 56 0H25l-1-190h30c1 10-1 24 2 32 10-44 99-50 107 0 11-21 27-35 58-36 85-2 47 119 55 194h-31v-121c0-29-5-49-35-48" id="F"/><path fill="#333" d="M141-36C126-15 110 5 73 4 37 3 15-17 15-53c-1-64 63-63 125-63 3-35-9-54-41-54-24 1-41 7-42 31l-33-3c5-37 33-52 76-52 45 0 72 20 72 64v82c-1 20 7 32 28 27v20c-31 9-61-2-59-35zM48-53c0 20 12 33 32 33 41-3 63-29 60-74-43 2-92-5-92 41" id="G"/><path fill="#333" d="M177-190C167-65 218 103 67 71c-23-6-38-20-44-43l32-5c15 47 100 32 89-28v-30C133-14 115 1 83 1 29 1 15-40 15-95c0-56 16-97 71-98 29-1 48 16 59 35 1-10 0-23 2-32h30zM94-22c36 0 50-32 50-73 0-42-14-75-50-75-39 0-46 34-46 75s6 73 46 73" id="H"/><path fill="#333" d="M100-194c63 0 86 42 84 106H49c0 40 14 67 53 68 26 1 43-12 49-29l28 8c-11 28-37 45-77 45C44 4 14-33 15-96c1-61 26-98 85-98zm52 81c6-60-76-77-97-28-3 7-6 17-6 28h103" id="I"/><path fill="#333" d="M16-82v-28h88v28H16" id="J"/><path fill="#333" d="M114-163C36-179 61-72 57 0H25l-1-190h30c1 12-1 29 2 39 6-27 23-49 58-41v29" id="K"/><path fill="#333" d="M96-169c-40 0-48 33-48 73s9 75 48 75c24 0 41-14 43-38l32 2c-6 37-31 61-74 61-59 0-76-41-82-99-10-93 101-131 147-64 4 7 5 14 7 22l-32 3c-4-21-16-35-41-35" id="L"/><path fill="#333" d="M100-194c62-1 85 37 85 99 1 63-27 99-86 99S16-35 15-95c0-66 28-99 85-99zM99-20c44 1 53-31 53-75 0-43-8-75-51-75s-53 32-53 75 10 74 51 75" id="M"/><path fill="#333" d="M117-194c89-4 53 116 60 194h-32v-121c0-31-8-49-39-48C34-167 62-67 57 0H25l-1-190h30c1 10-1 24 2 32 11-22 29-35 61-36" id="N"/><path fill="#333" d="M59-47c-2 24 18 29 38 22v24C64 9 27 4 27-40v-127H5v-23h24l9-43h21v43h35v23H59v120" id="O"/><g id="c"><use transform="matrix(0.049382716049382686,0,0,0.049382716049382686,0,0)" xlink:href="#E"/><use transform="matrix(0.049382716049382686,0,0,0.049382716049382686,3.9012345679012324,0)" xlink:href="#F"/><use transform="matrix(0.049382716049382686,0,0,0.049382716049382686,18.666666666666657,0)" xlink:href="#G"/><use transform="matrix(0.049382716049382686,0,0,0.049382716049382686,28.54320987654319,0)" xlink:href="#H"/><use transform="matrix(0.049382716049382686,0,0,0.049382716049382686,38.41975308641973,0)" xlink:href="#I"/><use transform="matrix(0.049382716049382686,0,0,0.049382716049382686,48.29629629629627,0)" xlink:href="#J"/><use transform="matrix(0.049382716049382686,0,0,0.049382716049382686,54.17283950617281,0)" xlink:href="#K"/><use transform="matrix(0.049382716049382686,0,0,0.049382716049382686,60.049382716049344,0)" xlink:href="#I"/><use transform="matrix(0.049382716049382686,0,0,0.049382716049382686,69.92592592592588,0)" xlink:href="#L"/><use transform="matrix(0.049382716049382686,0,0,0.049382716049382686,78.81481481481477,0)" xlink:href="#M"/><use transform="matrix(0.049382716049382686,0,0,0.049382716049382686,88.69135802469131,0)" xlink:href="#H"/><use transform="matrix(0.049382716049382686,0,0,0.049382716049382686,98.56790123456784,0)" xlink:href="#N"/><use transform="matrix(0.049382716049382686,0,0,0.049382716049382686,108.44444444444437,0)" xlink:href="#E"/><use transform="matrix(0.049382716049382686,0,0,0.049382716049382686,112.34567901234561,0)" xlink:href="#O"/><use transform="matrix(0.049382716049382686,0,0,0.049382716049382686,117.28395061728385,0)" xlink:href="#E"/><use transform="matrix(0.049382716049382686,0,0,0.049382716049382686,121.18518518518509,0)" xlink:href="#M"/><use transform="matrix(0.049382716049382686,0,0,0.049382716049382686,131.06172839506164,0)" xlink:href="#N"/></g><g id="d"><use transform="matrix(0.06790123456790122,0,0,0.06790123456790122,0,0)" xlink:href="#A"/><use transform="matrix(0.06790123456790122,0,0,0.06790123456790122,16.29629629629629,0)" xlink:href="#z"/><use transform="matrix(0.06790123456790122,0,0,0.06790123456790122,25.80246913580246,0)" xlink:href="#B"/><use transform="matrix(0.06790123456790122,0,0,0.06790123456790122,40.67283950617283,0)" xlink:href="#C"/><use transform="matrix(0.06790123456790122,0,0,0.06790123456790122,47.46296296296295,0)" xlink:href="#y"/><use transform="matrix(0.06790123456790122,0,0,0.06790123456790122,61.04320987654319,0)" xlink:href="#D"/><use transform="matrix(0.06790123456790122,0,0,0.06790123456790122,74.62345679012343,0)" xlink:href="#x"/></g><path fill="#333" d="M24 0v-261h32V0H24" id="P"/><path fill="#333" d="M115-194c55 1 70 41 70 98S169 2 115 4C84 4 66-9 55-30l1 105H24l-1-265h31l2 30c10-21 28-34 59-34zm-8 174c40 0 45-34 45-75s-6-73-45-74c-42 0-51 32-51 76 0 43 10 73 51 73" id="Q"/><g id="e"><use transform="matrix(0.049382716049382686,0,0,0.049382716049382686,0,0)" xlink:href="#N"/><use transform="matrix(0.049382716049382686,0,0,0.049382716049382686,9.876543209876537,0)" xlink:href="#P"/><use transform="matrix(0.049382716049382686,0,0,0.049382716049382686,13.77777777777777,0)" xlink:href="#Q"/></g><path fill="#333" d="M240-174c0 40-23 61-54 70L253 0h-59l-57-94H76V0H24v-248c93 4 217-23 216 74zM76-134c48-2 112 12 112-38 0-48-66-32-112-35v73" id="R"/><path fill="#333" d="M135-194c53 0 70 44 70 98 0 56-19 98-73 100-31 1-45-17-59-34 3 33 2 69 2 105H25l-1-265h48c2 10 0 23 3 31 11-24 29-35 60-35zM114-30c33 0 39-31 40-66 0-38-9-64-40-64-56 0-55 130 0 130" id="S"/><g id="f"><use transform="matrix(0.06790123456790122,0,0,0.06790123456790122,0,0)" xlink:href="#R"/><use transform="matrix(0.06790123456790122,0,0,0.06790123456790122,17.586419753086414,0)" xlink:href="#y"/><use transform="matrix(0.06790123456790122,0,0,0.06790123456790122,31.166666666666657,0)" xlink:href="#S"/><use transform="matrix(0.06790123456790122,0,0,0.06790123456790122,46.037037037037024,0)" xlink:href="#B"/></g><path fill="#333" d="M135-143c-3-34-86-38-87 0 15 53 115 12 119 90S17 21 10-45l28-5c4 36 97 45 98 0-10-56-113-15-118-90-4-57 82-63 122-42 12 7 21 19 24 35" id="T"/><g id="g"><use transform="matrix(0.049382716049382686,0,0,0.049382716049382686,0,0)" xlink:href="#O"/><use transform="matrix(0.049382716049382686,0,0,0.049382716049382686,4.938271604938269,0)" xlink:href="#K"/><use transform="matrix(0.049382716049382686,0,0,0.049382716049382686,10.81481481481481,0)" xlink:href="#G"/><use transform="matrix(0.049382716049382686,0,0,0.049382716049382686,20.691358024691347,0)" xlink:href="#E"/><use transform="matrix(0.049382716049382686,0,0,0.049382716049382686,24.59259259259258,0)" xlink:href="#N"/><use transform="matrix(0.049382716049382686,0,0,0.049382716049382686,34.46913580246912,0)" xlink:href="#E"/><use transform="matrix(0.049382716049382686,0,0,0.049382716049382686,38.37037037037035,0)" xlink:href="#N"/><use transform="matrix(0.049382716049382686,0,0,0.049382716049382686,48.24691358024689,0)" xlink:href="#H"/><use transform="matrix(0.049382716049382686,0,0,0.049382716049382686,58.123456790123434,0)" xlink:href="#J"/><use transform="matrix(0.049382716049382686,0,0,0.049382716049382686,63.99999999999996,0)" xlink:href="#E"/><use transform="matrix(0.049382716049382686,0,0,0.049382716049382686,67.9012345679012,0)" xlink:href="#F"/><use transform="matrix(0.049382716049382686,0,0,0.049382716049382686,82.66666666666663,0)" xlink:href="#G"/><use transform="matrix(0.049382716049382686,0,0,0.049382716049382686,92.54320987654316,0)" xlink:href="#H"/><use transform="matrix(0.049382716049382686,0,0,0.049382716049382686,102.41975308641969,0)" xlink:href="#I"/><use transform="matrix(0.049382716049382686,0,0,0.049382716049382686,112.29629629629623,0)" xlink:href="#T"/></g><path fill="#333" d="M9 0v-24l116-142H16v-24h144v24L44-24h123V0H9" id="U"/><path fill="#333" d="M115-194c53 0 69 39 70 98 0 66-23 100-70 100C84 3 66-7 56-30L54 0H23l1-261h32v101c10-23 28-34 59-34zm-8 174c40 0 45-34 45-75 0-40-5-75-45-74-42 0-51 32-51 76 0 43 10 73 51 73" id="V"/><g id="h"><use transform="matrix(0.049382716049382686,0,0,0.049382716049382686,0,0)" xlink:href="#K"/><use transform="matrix(0.049382716049382686,0,0,0.049382716049382686,5.87654320987654,0)" xlink:href="#I"/><use transform="matrix(0.049382716049382686,0,0,0.049382716049382686,15.75308641975308,0)" xlink:href="#L"/><use transform="matrix(0.049382716049382686,0,0,0.049382716049382686,24.64197530864196,0)" xlink:href="#M"/><use transform="matrix(0.049382716049382686,0,0,0.049382716049382686,34.5185185185185,0)" xlink:href="#H"/><use transform="matrix(0.049382716049382686,0,0,0.049382716049382686,44.395061728395035,0)" xlink:href="#N"/><use transform="matrix(0.049382716049382686,0,0,0.049382716049382686,54.27160493827157,0)" xlink:href="#E"/><use transform="matrix(0.049382716049382686,0,0,0.049382716049382686,58.17283950617281,0)" xlink:href="#U"/><use transform="matrix(0.049382716049382686,0,0,0.049382716049382686,67.06172839506169,0)" xlink:href="#I"/><use transform="matrix(0.049382716049382686,0,0,0.049382716049382686,76.93827160493822,0)" xlink:href="#J"/><use transform="matrix(0.049382716049382686,0,0,0.049382716049382686,82.81481481481477,0)" xlink:href="#V"/><use transform="matrix(0.049382716049382686,0,0,0.049382716049382686,92.69135802469131,0)" xlink:href="#M"/><use transform="matrix(0.049382716049382686,0,0,0.049382716049382686,102.56790123456784,0)" xlink:href="#G"/><use transform="matrix(0.049382716049382686,0,0,0.049382716049382686,112.44444444444437,0)" xlink:href="#O"/></g><path fill="#333" d="M185-189c-5-48-123-54-124 2 14 75 158 14 163 119 3 78-121 87-175 55-17-10-28-26-33-46l33-7c5 56 141 63 141-1 0-78-155-14-162-118-5-82 145-84 179-34 5 7 8 16 11 25" id="W"/><g id="i"><use transform="matrix(0.049382716049382686,0,0,0.049382716049382686,0,0)" xlink:href="#W"/><use transform="matrix(0.049382716049382686,0,0,0.049382716049382686,11.851851851851844,0)" xlink:href="#I"/><use transform="matrix(0.049382716049382686,0,0,0.049382716049382686,21.72839506172838,0)" xlink:href="#N"/><use transform="matrix(0.049382716049382686,0,0,0.049382716049382686,31.60493827160492,0)" xlink:href="#O"/><use transform="matrix(0.049382716049382686,0,0,0.049382716049382686,36.54320987654319,0)" xlink:href="#E"/><use transform="matrix(0.049382716049382686,0,0,0.049382716049382686,40.44444444444442,0)" xlink:href="#F"/><use transform="matrix(0.049382716049382686,0,0,0.049382716049382686,55.209876543209845,0)" xlink:href="#I"/><use transform="matrix(0.049382716049382686,0,0,0.049382716049382686,65.08641975308637,0)" xlink:href="#N"/><use transform="matrix(0.049382716049382686,0,0,0.049382716049382686,74.9629629629629,0)" xlink:href="#O"/></g><path fill="#333" d="M141 0L90-78 38 0H4l68-98-65-92h35l48 74 47-74h35l-64 92 68 98h-35" id="X"/><g id="j"><use transform="matrix(0.049382716049382686,0,0,0.049382716049382686,0,0)" xlink:href="#L"/><use transform="matrix(0.049382716049382686,0,0,0.049382716049382686,8.888888888888884,0)" xlink:href="#G"/><use transform="matrix(0.049382716049382686,0,0,0.049382716049382686,18.765432098765423,0)" xlink:href="#O"/><use transform="matrix(0.049382716049382686,0,0,0.049382716049382686,23.70370370370369,0)" xlink:href="#I"/><use transform="matrix(0.049382716049382686,0,0,0.049382716049382686,33.580246913580226,0)" xlink:href="#H"/><use transform="matrix(0.049382716049382686,0,0,0.049382716049382686,43.45679012345676,0)" xlink:href="#M"/><use transform="matrix(0.049382716049382686,0,0,0.049382716049382686,53.3333333333333,0)" xlink:href="#K"/><use transform="matrix(0.049382716049382686,0,0,0.049382716049382686,59.20987654320984,0)" xlink:href="#E"/><use transform="matrix(0.049382716049382686,0,0,0.049382716049382686,63.11111111111107,0)" xlink:href="#U"/><use transform="matrix(0.049382716049382686,0,0,0.049382716049382686,71.99999999999996,0)" xlink:href="#I"/><use transform="matrix(0.049382716049382686,0,0,0.049382716049382686,81.8765432098765,0)" xlink:href="#J"/><use transform="matrix(0.049382716049382686,0,0,0.049382716049382686,87.75308641975305,0)" xlink:href="#O"/><use transform="matrix(0.049382716049382686,0,0,0.049382716049382686,92.69135802469131,0)" xlink:href="#I"/><use transform="matrix(0.049382716049382686,0,0,0.049382716049382686,102.56790123456784,0)" xlink:href="#X"/><use transform="matrix(0.049382716049382686,0,0,0.049382716049382686,111.45679012345673,0)" xlink:href="#O"/></g><path fill="#333" d="M133-34C117-15 103 5 69 4 32 3 11-16 11-54c-1-60 55-63 116-61 1-26-3-47-28-47-18 1-26 9-28 27l-52-2c7-38 36-58 82-57s74 22 75 68l1 82c-1 14 12 18 25 15v27c-30 8-71 5-69-32zm-48 3c29 0 43-24 42-57-32 0-66-3-65 30 0 17 8 27 23 27" id="Y"/><path fill="#333" d="M88-194c31-1 46 15 58 34l-1-101h50l1 261h-48c-2-10 0-23-3-31C134-8 116 4 84 4 32 4 16-41 15-95c0-56 19-97 73-99zm17 164c33 0 40-30 41-66 1-37-9-64-41-64s-38 30-39 65c0 43 13 65 39 65" id="Z"/><g id="k"><use transform="matrix(0.06172839506172839,0,0,0.06172839506172839,0,0)" xlink:href="#z"/><use transform="matrix(0.06172839506172839,0,0,0.06172839506172839,8.641975308641975,0)" xlink:href="#y"/><use transform="matrix(0.06172839506172839,0,0,0.06172839506172839,20.98765432098765,0)" xlink:href="#S"/><use transform="matrix(0.06172839506172839,0,0,0.06172839506172839,34.50617283950617,0)" xlink:href="#B"/><use transform="matrix(0.06172839506172839,0,0,0.06172839506172839,48.02469135802469,0)" xlink:href="#R"/><use transform="matrix(0.06172839506172839,0,0,0.06172839506172839,64.01234567901234,0)" xlink:href="#y"/><use transform="matrix(0.06172839506172839,0,0,0.06172839506172839,76.35802469135803,0)" xlink:href="#Y"/><use transform="matrix(0.06172839506172839,0,0,0.06172839506172839,88.70370370370371,0)" xlink:href="#Z"/><use transform="matrix(0.06172839506172839,0,0,0.06172839506172839,102.22222222222223,0)" xlink:href="#y"/><use transform="matrix(0.06172839506172839,0,0,0.06172839506172839,114.56790123456791,0)" xlink:href="#z"/></g><path fill="#333" d="M140-251c80 0 125 45 125 126S219 4 139 4C58 4 15-44 15-125s44-126 125-126zm-1 214c52 0 73-35 73-88 0-50-21-86-72-86-52 0-73 35-73 86s22 88 72 88" id="aa"/><path fill="#333" d="M231 0h-52l-39-155L100 0H48L-1-190h46L77-45c9-52 24-97 36-145h53l37 145 32-145h46" id="ab"/><path fill="#333" d="M135-194c87-1 58 113 63 194h-50c-7-57 23-157-34-157-59 0-34 97-39 157H25l-1-190h47c2 12-1 28 3 38 12-26 28-41 61-42" id="ac"/><g id="l"><use transform="matrix(0.06172839506172839,0,0,0.06172839506172839,0,0)" xlink:href="#z"/><use transform="matrix(0.06172839506172839,0,0,0.06172839506172839,8.641975308641975,0)" xlink:href="#y"/><use transform="matrix(0.06172839506172839,0,0,0.06172839506172839,20.98765432098765,0)" xlink:href="#S"/><use transform="matrix(0.06172839506172839,0,0,0.06172839506172839,34.50617283950617,0)" xlink:href="#B"/><use transform="matrix(0.06172839506172839,0,0,0.06172839506172839,48.02469135802469,0)" xlink:href="#aa"/><use transform="matrix(0.06172839506172839,0,0,0.06172839506172839,65.30864197530863,0)" xlink:href="#ab"/><use transform="matrix(0.06172839506172839,0,0,0.06172839506172839,82.59259259259258,0)" xlink:href="#ac"/><use transform="matrix(0.06172839506172839,0,0,0.06172839506172839,96.1111111111111,0)" xlink:href="#y"/><use transform="matrix(0.06172839506172839,0,0,0.06172839506172839,108.45679012345678,0)" xlink:href="#z"/></g><path fill="#333" d="M275 0h-61l-44-196L126 0H64L0-248h53L97-49l45-199h58l43 199 44-199h52" id="ad"/><path fill="#333" d="M25-224v-37h50v37H25zM25 0v-190h50V0H25" id="ae"/><g id="m"><use transform="matrix(0.06172839506172839,0,0,0.06172839506172839,0,0)" xlink:href="#z"/><use transform="matrix(0.06172839506172839,0,0,0.06172839506172839,8.641975308641975,0)" xlink:href="#y"/><use transform="matrix(0.06172839506172839,0,0,0.06172839506172839,20.98765432098765,0)" xlink:href="#S"/><use transform="matrix(0.06172839506172839,0,0,0.06172839506172839,34.50617283950617,0)" xlink:href="#B"/><use transform="matrix(0.06172839506172839,0,0,0.06172839506172839,48.02469135802469,0)" xlink:href="#ad"/><use transform="matrix(0.06172839506172839,0,0,0.06172839506172839,68.5185185185185,0)" xlink:href="#z"/><use transform="matrix(0.06172839506172839,0,0,0.06172839506172839,77.16049382716048,0)" xlink:href="#ae"/><use transform="matrix(0.06172839506172839,0,0,0.06172839506172839,83.33333333333331,0)" xlink:href="#x"/><use transform="matrix(0.06172839506172839,0,0,0.06172839506172839,90.679012345679,0)" xlink:href="#y"/><use transform="matrix(0.06172839506172839,0,0,0.06172839506172839,103.02469135802468,0)" xlink:href="#z"/></g><path fill="#333" d="M103-194c29 0 47 14 56 36 2-11 5-23 8-32h30L160-5C157 61 82 97 21 62 9 55 4 45 1 30l28-7c7 42 83 31 92-3 4-16 9-38 13-55-13 20-29 36-62 36-40 0-60-25-60-64 0-71 23-131 91-131zm4 24c-53 0-58 54-61 104-2 27 10 44 36 44 49 0 65-50 67-102 1-29-15-46-42-46" id="af"/><path fill="#333" d="M66-151c12-25 30-51 66-40l-6 26C45-176 58-65 38 0H6l36-190h30" id="ag"/><path fill="#333" d="M30-147c31-64 166-65 159 27C183-49 158 1 86 4 9 8 1-88 30-147zM88-20c53 0 68-48 68-100 0-31-11-51-44-50-52 1-68 46-68 97 0 32 13 53 44 53" id="ah"/><path fill="#333" d="M67 3c-93-2-31-127-26-193h32L48-50c-3 39 53 32 70 12 30-34 30-101 43-152h32L157 0h-30c1-10 6-24 4-33-14 20-29 37-64 36" id="ai"/><path fill="#333" d="M67-162c32-53 139-36 121 50C175-51 163 2 97 4 68 4 52-11 42-31 38 6 28 39 22 75H-9l50-265h29c-1 10 0 20-3 28zm89 36c0-26-10-43-35-43-54 0-67 50-69 103-1 29 14 45 42 46 53 0 62-58 62-106" id="aj"/><path fill="#333" d="M44-154l7-36h35l-8 36H44zM14 0l7-36h35L49 0H14" id="ak"/><path fill="#333" d="M133-28C103 26-5 8 13-77c13-62 24-115 90-117 29-1 46 15 56 35l19-102h32L160 0h-30zM45-64c-2 27 10 43 35 43 54-1 69-50 69-103 0-29-15-46-42-46-53-1-58 58-62 106" id="al"/><path fill="#333" d="M165-48c-4 18 1 34 23 27l-3 20c-29 8-62 0-52-35h-2C116-14 99 4 63 4 30 4 8-16 8-49c0-68 71-67 138-67 10-26 0-56-31-54-26 1-42 9-47 31l-32-5c8-67 160-71 144 15-5 28-9 54-15 81zM42-50c3 52 80 24 89-6 7-12 7-24 11-38-47 1-103-4-100 44" id="am"/><path fill="#333" d="M51-54c-9 22 5 41 31 30L79-1C43 14 10-4 19-52l22-115H19l5-23h22l19-43h21l-9 43h35l-4 23H73" id="an"/><path fill="#333" d="M18-82l6-28h88l-6 28H18" id="ao"/><path fill="#333" d="M55-144c13 50 104 24 104 88C159 21 15 23 1-39l26-10c6 40 102 42 102-4-13-50-104-23-104-87 0-71 143-71 148-8l-29 4c-5-35-85-37-89 0" id="ap"/><path fill="#333" d="M44-68c0 29 11 47 38 47 30 0 42-19 51-41l28 9C148-21 126 4 82 4 31 4 10-29 12-85c3-77 74-140 146-93 12 8 15 23 18 40l-31 5c-1-22-13-36-36-36-52 0-65 49-65 101" id="aq"/><path fill="#333" d="M50-231l6-30h32l-6 30H50zM6 0l37-190h31L37 0H6" id="ar"/><path fill="#333" d="M111-194c62-3 86 47 72 106H45c-7 38 6 69 45 68 27-1 43-14 53-32l24 11C152-15 129 4 87 4 38 3 12-23 12-71c0-70 32-119 99-123zm44 81c14-66-71-72-95-28-4 8-8 17-11 28h106" id="as"/><path fill="#333" d="M67-158c22-48 132-52 116 29L158 0h-32l25-140c3-38-53-32-70-12C52-117 51-52 38 0H6l36-190h30" id="at"/><g id="n"><use transform="matrix(0.049382716049382706,0,0,0.049382716049382706,0,0)" xlink:href="#af"/><use transform="matrix(0.049382716049382706,0,0,0.049382716049382706,9.87654320987654,0)" xlink:href="#ag"/><use transform="matrix(0.049382716049382706,0,0,0.049382716049382706,15.75308641975308,0)" xlink:href="#ah"/><use transform="matrix(0.049382716049382706,0,0,0.049382716049382706,25.629629629629626,0)" xlink:href="#ai"/><use transform="matrix(0.049382716049382706,0,0,0.049382716049382706,35.50617283950616,0)" xlink:href="#aj"/><use transform="matrix(0.049382716049382706,0,0,0.049382716049382706,45.38271604938271,0)" xlink:href="#ak"/><use transform="matrix(0.049382716049382706,0,0,0.049382716049382706,50.32098765432098,0)" xlink:href="#al"/><use transform="matrix(0.049382716049382706,0,0,0.049382716049382706,60.19753086419752,0)" xlink:href="#am"/><use transform="matrix(0.049382716049382706,0,0,0.049382716049382706,70.07407407407406,0)" xlink:href="#an"/><use transform="matrix(0.049382716049382706,0,0,0.049382716049382706,75.01234567901233,0)" xlink:href="#am"/><use transform="matrix(0.049382716049382706,0,0,0.049382716049382706,84.88888888888887,0)" xlink:href="#ao"/><use transform="matrix(0.049382716049382706,0,0,0.049382716049382706,90.76543209876542,0)" xlink:href="#ap"/><use transform="matrix(0.049382716049382706,0,0,0.049382716049382706,99.6543209876543,0)" xlink:href="#aq"/><use transform="matrix(0.049382716049382706,0,0,0.049382716049382706,108.54320987654319,0)" xlink:href="#ar"/><use transform="matrix(0.049382716049382706,0,0,0.049382716049382706,112.44444444444443,0)" xlink:href="#as"/><use transform="matrix(0.049382716049382706,0,0,0.049382716049382706,122.32098765432096,0)" xlink:href="#at"/><use transform="matrix(0.049382716049382706,0,0,0.049382716049382706,132.1975308641975,0)" xlink:href="#an"/><use transform="matrix(0.049382716049382706,0,0,0.049382716049382706,137.13580246913577,0)" xlink:href="#ar"/><use transform="matrix(0.049382716049382706,0,0,0.049382716049382706,141.037037037037,0)" xlink:href="#ap"/><use transform="matrix(0.049382716049382706,0,0,0.049382716049382706,149.9259259259259,0)" xlink:href="#an"/><use transform="matrix(0.049382716049382706,0,0,0.049382716049382706,154.86419753086417,0)" xlink:href="#ap"/></g><path fill="#333" d="M67-158c15-20 31-36 64-36 94 0 33 127 27 194h-32l25-140c3-38-53-32-70-12C52-117 51-51 37 0H6l51-261h31" id="au"/><path fill="#333" d="M198-190L69 30C53 58 25 83-20 72c4-11-1-27 19-22 33-1 43-29 59-52L20-190h32L79-34l84-156h35" id="av"/><path fill="#333" d="M248-111c6-24 9-61-24-58-72 9-57 108-77 169h-31l26-142c3-37-50-30-64-10C52-115 50-51 37 0H6l36-190h30c-1 10-6 24-4 32 13-43 101-52 105 5 13-22 29-41 61-41 90 0 28 129 23 194h-31" id="aw"/><path fill="#333" d="M204-261c85 0 136 45 136 128 0 61-22 110-78 115-28 2-39-18-37-44-13 22-31 44-66 44-40 0-58-27-58-68 0-60 30-105 88-108 29-1 43 15 54 32l7-28h27L250-56c-1 11 6 16 15 16 39 0 51-48 51-92 0-69-42-107-112-107-94 0-145 59-145 153 0 72 41 113 114 113 43 0 78-13 106-28l10 19c-30 18-68 32-116 32C85 50 34 0 34-86c0-107 62-175 170-175zM164-41c46 0 70-44 70-90 0-26-17-40-43-40-44 0-59 41-61 85-1 26 9 45 34 45" id="ax"/><path fill="#333" d="M14 0l8-38h34L48 0H14" id="ay"/><g id="o"><use transform="matrix(0.049382716049382706,0,0,0.049382716049382706,0,0)" xlink:href="#ai"/><use transform="matrix(0.049382716049382706,0,0,0.049382716049382706,9.87654320987654,0)" xlink:href="#ap"/><use transform="matrix(0.049382716049382706,0,0,0.049382716049382706,18.76543209876543,0)" xlink:href="#as"/><use transform="matrix(0.049382716049382706,0,0,0.049382716049382706,28.64197530864197,0)" xlink:href="#ag"/><use transform="matrix(0.049382716049382706,0,0,0.049382716049382706,34.51851851851851,0)" xlink:href="#ak"/><use transform="matrix(0.049382716049382706,0,0,0.049382716049382706,39.456790123456784,0)" xlink:href="#ah"/><use transform="matrix(0.049382716049382706,0,0,0.049382716049382706,49.33333333333333,0)" xlink:href="#at"/><use transform="matrix(0.049382716049382706,0,0,0.049382716049382706,59.20987654320987,0)" xlink:href="#as"/><use transform="matrix(0.049382716049382706,0,0,0.049382716049382706,69.08641975308642,0)" xlink:href="#ao"/><use transform="matrix(0.049382716049382706,0,0,0.049382716049382706,74.96296296296296,0)" xlink:href="#aj"/><use transform="matrix(0.049382716049382706,0,0,0.049382716049382706,84.8395061728395,0)" xlink:href="#am"/><use transform="matrix(0.049382716049382706,0,0,0.049382716049382706,94.71604938271605,0)" xlink:href="#aq"/><use transform="matrix(0.049382716049382706,0,0,0.049382716049382706,103.60493827160494,0)" xlink:href="#au"/><use transform="matrix(0.049382716049382706,0,0,0.049382716049382706,113.48148148148148,0)" xlink:href="#av"/><use transform="matrix(0.049382716049382706,0,0,0.049382716049382706,122.37037037037037,0)" xlink:href="#al"/><use transform="matrix(0.049382716049382706,0,0,0.049382716049382706,132.2469135802469,0)" xlink:href="#as"/><use transform="matrix(0.049382716049382706,0,0,0.049382716049382706,142.12345679012344,0)" xlink:href="#ag"/><use transform="matrix(0.049382716049382706,0,0,0.049382716049382706,147.99999999999997,0)" xlink:href="#aw"/><use transform="matrix(0.049382716049382706,0,0,0.049382716049382706,162.7654320987654,0)" xlink:href="#ao"/><use transform="matrix(0.049382716049382706,0,0,0.049382716049382706,168.64197530864192,0)" xlink:href="#ai"/><use transform="matrix(0.049382716049382706,0,0,0.049382716049382706,178.51851851851845,0)" xlink:href="#ap"/><use transform="matrix(0.049382716049382706,0,0,0.049382716049382706,187.40740740740733,0)" xlink:href="#as"/><use transform="matrix(0.049382716049382706,0,0,0.049382716049382706,197.28395061728386,0)" xlink:href="#ag"/><use transform="matrix(0.049382716049382706,0,0,0.049382716049382706,203.16049382716042,0)" xlink:href="#ax"/><use transform="matrix(0.049382716049382706,0,0,0.049382716049382706,221.1851851851851,0)" xlink:href="#aq"/><use transform="matrix(0.049382716049382706,0,0,0.049382716049382706,230.074074074074,0)" xlink:href="#ah"/><use transform="matrix(0.049382716049382706,0,0,0.049382716049382706,239.9506172839505,0)" xlink:href="#aw"/><use transform="matrix(0.049382716049382706,0,0,0.049382716049382706,254.7160493827159,0)" xlink:href="#aj"/><use transform="matrix(0.049382716049382706,0,0,0.049382716049382706,264.59259259259244,0)" xlink:href="#am"/><use transform="matrix(0.049382716049382706,0,0,0.049382716049382706,274.469135802469,0)" xlink:href="#at"/><use transform="matrix(0.049382716049382706,0,0,0.049382716049382706,284.34567901234556,0)" xlink:href="#av"/><use transform="matrix(0.049382716049382706,0,0,0.049382716049382706,291.90123456790116,0)" xlink:href="#ay"/><use transform="matrix(0.049382716049382706,0,0,0.049382716049382706,296.83950617283944,0)" xlink:href="#ar"/><use transform="matrix(0.049382716049382706,0,0,0.049382716049382706,300.74074074074065,0)" xlink:href="#ah"/></g><g id="p"><use transform="matrix(0.049382716049382706,0,0,0.049382716049382706,0,0)" xlink:href="#ai"/><use transform="matrix(0.049382716049382706,0,0,0.049382716049382706,9.87654320987654,0)" xlink:href="#ap"/><use transform="matrix(0.049382716049382706,0,0,0.049382716049382706,18.76543209876543,0)" xlink:href="#as"/><use transform="matrix(0.049382716049382706,0,0,0.049382716049382706,28.64197530864197,0)" xlink:href="#ag"/><use transform="matrix(0.049382716049382706,0,0,0.049382716049382706,34.51851851851851,0)" xlink:href="#ak"/><use transform="matrix(0.049382716049382706,0,0,0.049382716049382706,39.456790123456784,0)" xlink:href="#am"/><use transform="matrix(0.049382716049382706,0,0,0.049382716049382706,49.33333333333333,0)" xlink:href="#at"/><use transform="matrix(0.049382716049382706,0,0,0.049382716049382706,59.20987654320987,0)" xlink:href="#ah"/><use transform="matrix(0.049382716049382706,0,0,0.049382716049382706,69.08641975308642,0)" xlink:href="#an"/><use transform="matrix(0.049382716049382706,0,0,0.049382716049382706,74.02469135802468,0)" xlink:href="#au"/><use transform="matrix(0.049382716049382706,0,0,0.049382716049382706,83.90123456790123,0)" xlink:href="#as"/><use transform="matrix(0.049382716049382706,0,0,0.049382716049382706,93.77777777777777,0)" xlink:href="#ag"/><use transform="matrix(0.049382716049382706,0,0,0.049382716049382706,99.30864197530863,0)" xlink:href="#ao"/><use transform="matrix(0.049382716049382706,0,0,0.049382716049382706,105.18518518518519,0)" xlink:href="#aj"/><use transform="matrix(0.049382716049382706,0,0,0.049382716049382706,115.06172839506173,0)" xlink:href="#am"/><use transform="matrix(0.049382716049382706,0,0,0.049382716049382706,124.93827160493827,0)" xlink:href="#aq"/><use transform="matrix(0.049382716049382706,0,0,0.049382716049382706,133.82716049382717,0)" xlink:href="#au"/><use transform="matrix(0.049382716049382706,0,0,0.049382716049382706,143.7037037037037,0)" xlink:href="#av"/><use transform="matrix(0.049382716049382706,0,0,0.049382716049382706,152.59259259259258,0)" xlink:href="#al"/><use transform="matrix(0.049382716049382706,0,0,0.049382716049382706,162.4691358024691,0)" xlink:href="#as"/><use transform="matrix(0.049382716049382706,0,0,0.049382716049382706,172.34567901234564,0)" xlink:href="#ag"/><use transform="matrix(0.049382716049382706,0,0,0.049382716049382706,178.22222222222217,0)" xlink:href="#aw"/><use transform="matrix(0.049382716049382706,0,0,0.049382716049382706,192.9876543209876,0)" xlink:href="#ao"/><use transform="matrix(0.049382716049382706,0,0,0.049382716049382706,198.86419753086412,0)" xlink:href="#ai"/><use transform="matrix(0.049382716049382706,0,0,0.049382716049382706,208.74074074074065,0)" xlink:href="#ap"/><use transform="matrix(0.049382716049382706,0,0,0.049382716049382706,217.62962962962953,0)" xlink:href="#as"/><use transform="matrix(0.049382716049382706,0,0,0.049382716049382706,227.5061728395061,0)" xlink:href="#ag"/><use transform="matrix(0.049382716049382706,0,0,0.049382716049382706,233.3827160493826,0)" xlink:href="#ax"/><use transform="matrix(0.049382716049382706,0,0,0.049382716049382706,251.40740740740728,0)" xlink:href="#aq"/><use transform="matrix(0.049382716049382706,0,0,0.049382716049382706,260.2962962962962,0)" xlink:href="#ah"/><use transform="matrix(0.049382716049382706,0,0,0.049382716049382706,270.17283950617275,0)" xlink:href="#aw"/><use transform="matrix(0.049382716049382706,0,0,0.049382716049382706,284.93827160493817,0)" xlink:href="#aj"/><use transform="matrix(0.049382716049382706,0,0,0.049382716049382706,294.8148148148147,0)" xlink:href="#am"/><use transform="matrix(0.049382716049382706,0,0,0.049382716049382706,304.6913580246913,0)" xlink:href="#at"/><use transform="matrix(0.049382716049382706,0,0,0.049382716049382706,314.56790123456784,0)" xlink:href="#av"/><use transform="matrix(0.049382716049382706,0,0,0.049382716049382706,322.12345679012344,0)" xlink:href="#ay"/><use transform="matrix(0.049382716049382706,0,0,0.049382716049382706,327.0617283950617,0)" xlink:href="#ar"/><use transform="matrix(0.049382716049382706,0,0,0.049382716049382706,330.96296296296293,0)" xlink:href="#ah"/></g><path fill="#834187" d="M240-174c0 40-23 61-54 70L253 0h-59l-57-94H76V0H24v-248c93 4 217-23 216 74zM76-134c48-2 112 12 112-38 0-48-66-32-112-35v73" id="az"/><path fill="#834187" d="M185-48c-13 30-37 53-82 52C43 2 14-33 14-96s30-98 90-98c62 0 83 45 84 108H66c0 31 8 55 39 56 18 0 30-7 34-22zm-45-69c5-46-57-63-70-21-2 6-4 13-4 21h74" id="aA"/><path fill="#834187" d="M137-138c1-29-70-34-71-4 15 46 118 7 119 86 1 83-164 76-172 9l43-7c4 19 20 25 44 25 33 8 57-30 24-41C81-84 22-81 20-136c-2-80 154-74 161-7" id="aB"/><path fill="#834187" d="M110-194c64 0 96 36 96 99 0 64-35 99-97 99-61 0-95-36-95-99 0-62 34-99 96-99zm-1 164c35 0 45-28 45-65 0-40-10-65-43-65-34 0-45 26-45 65 0 36 10 65 43 65" id="aC"/><path fill="#834187" d="M85 4C-2 5 27-109 22-190h50c7 57-23 150 33 157 60-5 35-97 40-157h50l1 190h-47c-2-12 1-28-3-38-12 25-28 42-61 42" id="aD"/><path fill="#834187" d="M135-150c-39-12-60 13-60 57V0H25l-1-190h47c2 13-1 29 3 40 6-28 27-53 61-41v41" id="aE"/><path fill="#834187" d="M190-63c-7 42-38 67-86 67-59 0-84-38-90-98-12-110 154-137 174-36l-49 2c-2-19-15-32-35-32-30 0-35 28-38 64-6 74 65 87 74 30" id="aF"/><g id="q"><use transform="matrix(0.06172839506172839,0,0,0.06172839506172839,0,0)" xlink:href="#az"/><use transform="matrix(0.06172839506172839,0,0,0.06172839506172839,15.987654320987653,0)" xlink:href="#aA"/><use transform="matrix(0.06172839506172839,0,0,0.06172839506172839,28.333333333333332,0)" xlink:href="#aB"/><use transform="matrix(0.06172839506172839,0,0,0.06172839506172839,40.67901234567901,0)" xlink:href="#aB"/><use transform="matrix(0.06172839506172839,0,0,0.06172839506172839,53.02469135802469,0)" xlink:href="#aC"/><use transform="matrix(0.06172839506172839,0,0,0.06172839506172839,66.5432098765432,0)" xlink:href="#aD"/><use transform="matrix(0.06172839506172839,0,0,0.06172839506172839,80.06172839506172,0)" xlink:href="#aE"/><use transform="matrix(0.06172839506172839,0,0,0.06172839506172839,88.7037037037037,0)" xlink:href="#aF"/><use transform="matrix(0.06172839506172839,0,0,0.06172839506172839,101.04938271604938,0)" xlink:href="#aA"/><use transform="matrix(0.06172839506172839,0,0,0.06172839506172839,113.39506172839506,0)" xlink:href="#aB"/></g><path fill="#834187" d="M25 0v-261h50V0H25" id="aG"/><g id="r"><use transform="matrix(0.06172839506172839,0,0,0.06172839506172839,0,0)" xlink:href="#az"/><use transform="matrix(0.06172839506172839,0,0,0.06172839506172839,15.987654320987653,0)" xlink:href="#aC"/><use transform="matrix(0.06172839506172839,0,0,0.06172839506172839,29.50617283950617,0)" xlink:href="#aG"/><use transform="matrix(0.06172839506172839,0,0,0.06172839506172839,35.67901234567901,0)" xlink:href="#aA"/><use transform="matrix(0.06172839506172839,0,0,0.06172839506172839,48.02469135802469,0)" xlink:href="#aB"/></g><path fill="#834187" d="M238-95c0 69-44 99-111 99C63 4 22-25 22-93v-155h51v151c-1 38 19 59 55 60 90 1 49-130 58-211h52v153" id="aH"/><g id="s"><use transform="matrix(0.06172839506172839,0,0,0.06172839506172839,0,0)" xlink:href="#aH"/><use transform="matrix(0.06172839506172839,0,0,0.06172839506172839,15.987654320987653,0)" xlink:href="#aB"/><use transform="matrix(0.06172839506172839,0,0,0.06172839506172839,28.333333333333332,0)" xlink:href="#aA"/><use transform="matrix(0.06172839506172839,0,0,0.06172839506172839,40.67901234567901,0)" xlink:href="#aE"/><use transform="matrix(0.06172839506172839,0,0,0.06172839506172839,49.32098765432099,0)" xlink:href="#aB"/></g></defs></g></svg>