<svg xmlns="http://www.w3.org/2000/svg" width="20" height="20" fill="currentColor" viewBox="0 0 20 20">
  <path fill-rule="evenodd" d="M20 10c0 5.523-4.477 10-10 10S0 15.523 0 10 4.477 0 10 0s10 4.477 10 10Zm-9.187-6.432L9.761 2.5 7.224 5l-.074.085a.75.75 0 0 0 .075.985l2.537 2.487 1.05-1.072-.977-.957H10l.215.006C12.858 6.666 15 8.857 15 11.5h2l-.004-.238c-.128-3.712-3.23-6.706-6.989-6.734H9.84l.974-.96ZM10.24 17.5l-1.053-1.068.975-.96h-.168c-3.76-.028-6.861-3.022-6.989-6.734L3 8.5h2c0 2.643 2.142 4.834 4.785 4.966l.215.006h.165l-.977-.957 1.05-1.072 2.537 2.487a.75.75 0 0 1 .075.985l-.073.085-2.538 2.5Z" clip-rule="evenodd"/>
</svg>
