<svg xmlns="http://www.w3.org/2000/svg" width="20" height="20" fill="currentColor" viewBox="0 0 20 20">
  <path fill-rule="evenodd" d="M12.984 3.499c.12-.36.582-.572 1.03-.476l5.363 1.15a.841.841 0 0 1 .51.313.557.557 0 0 1 .084.51l-1.436 4.29c-.12.36-.582.572-1.03.476-.45-.096-.716-.465-.595-.824l.907-2.71c-2.53 1.247-4.634 2.844-6.272 4.668a.906.906 0 0 1-.615.278.97.97 0 0 1-.663-.195l-3.538-2.83-5.293 4.234a.996.996 0 0 1-1.19 0c-.328-.262-.328-.688 0-.951l5.888-4.71a.996.996 0 0 1 1.19 0l3.447 2.757c1.684-1.716 3.768-3.224 6.22-4.425l-3.412-.73c-.449-.097-.715-.466-.595-.825Z" clip-rule="evenodd"/>
</svg>
