<svg xmlns="http://www.w3.org/2000/svg" width="20" height="20" fill="currentColor" viewBox="0 0 20 20">
  <path fill-rule="evenodd" d="M2.998 6a2 2 0 1 0 0-4 2 2 0 0 0 0 4Zm16.004-2a1.5 1.5 0 0 0-1.5-1.5H8.48l-.145.007A1.5 1.5 0 0 0 8.48 5.5h9.023l.145-.007A1.5 1.5 0 0 0 19.002 4ZM4.998 10a2 2 0 1 1-4 0 2 2 0 0 1 4 0Zm14.004 0a1.5 1.5 0 0 0-1.5-1.5H8.48l-.145.007A1.5 1.5 0 0 0 8.48 11.5h9.023l.145-.007A1.5 1.5 0 0 0 19.002 10ZM4.998 16a2 2 0 1 1-4 0 2 2 0 0 1 4 0Zm14.004 0a1.5 1.5 0 0 0-1.5-1.5H8.48l-.145.007A1.5 1.5 0 0 0 8.48 17.5h9.023l.145-.007A1.5 1.5 0 0 0 19.002 16Z" clip-rule="evenodd"/>
</svg>
