<svg xmlns="http://www.w3.org/2000/svg" width="20" height="20" fill="currentColor" viewBox="0 0 20 20">
  <path fill-rule="evenodd" d="M8 1a1 1 0 0 1 1 1v6a1 1 0 0 1-1 1H2a1 1 0 0 1-1-1V2a1 1 0 0 1 1-1h6ZM7 3H3v4h4V3Zm11-2a1 1 0 0 1 1 1v6a1 1 0 0 1-1 1h-6a1 1 0 0 1-1-1V2a1 1 0 0 1 1-1h6Zm-1 2h-4v4h4V3Zm-8 9a1 1 0 0 0-1-1H2a1 1 0 0 0-1 1v6a1 1 0 0 0 1 1h6a1 1 0 0 0 1-1v-6Zm-6 1h4v4H3v-4Zm15-2a1 1 0 0 1 1 1v6a1 1 0 0 1-1 1h-6a1 1 0 0 1-1-1v-6a1 1 0 0 1 1-1h6Zm-1 2h-4v4h4v-4Z" clip-rule="evenodd"/>
</svg>
