<svg xmlns="http://www.w3.org/2000/svg" width="20" height="20" fill="currentColor">
    <g clip-path="url(#a)">
        <path fill="#272728" d="M10 0C4.477 0 0 4.477 0 10h1.666A8.333 8.333 0 0 1 17.22 5.834H12.5V7.5H20V0h-1.666v4.47A9.99 9.99 0 0 0 10 0Zm0 20c5.522 0 10-4.477 10-10h-1.667a8.333 8.333 0 0 1-15.552 4.167H7.5V12.5H0V20h1.666v-4.47A9.99 9.99 0 0 0 10 20Z"/>
    </g>
    <defs>
        <clipPath id="a">
            <path fill="#fff" d="M0 0h20v20H0z"/>
        </clipPath>
    </defs>
</svg>