<svg width="28" height="33" xmlns="http://www.w3.org/2000/svg">
  <g fill="#5BA3B1" fill-rule="nonzero">
    <path d="M27.211 7.464L21.473 1.01A2.99 2.99 0 0019.25 0H3.026A2.974 2.974 0 00.888.903 3.143 3.143 0 000 3.096v26.812C.002 31.616 1.35 33 3.012 33h21.969c.8.002 1.567-.323 2.133-.903A3.14 3.14 0 0028 29.908V9.551a3.125 3.125 0 00-.789-2.087zm-1.902.917h-3.697c-.554 0-1.003-.461-1.003-1.03V3.095l4.7 5.285zm-.328 22.569H3.026a.99.99 0 01-.715-.305 1.046 1.046 0 01-.291-.737V3.096c0-.274.106-.537.295-.73a.99.99 0 01.711-.3H18.6V7.35c.004 1.708 1.35 3.09 3.012 3.093h4.382v19.465c.003.277-.103.544-.293.74a.99.99 0 01-.72.302z"/>
    <path d="M4.784 20.112c.71 0 1.247-.181 1.612-.544.365-.363.548-.907.548-1.632V14.4H3.44v1.224h1.936v2.408c0 .267-.06.47-.18.608-.12.139-.295.208-.524.208-.347 0-.67-.195-.968-.584l-.864 1.024c.213.267.488.47.824.612.336.141.71.212 1.12.212zm5.2 0c.533 0 .987-.081 1.36-.244.373-.163.653-.38.84-.652.187-.272.28-.576.28-.912 0-.39-.103-.697-.308-.924a1.83 1.83 0 00-.728-.496 7.72 7.72 0 00-1.06-.292c-.379-.08-.653-.157-.824-.232-.17-.075-.256-.187-.256-.336 0-.15.072-.27.216-.364.144-.093.373-.14.688-.14.501 0 1.019.144 1.552.432l.488-1.176a3.332 3.332 0 00-.944-.364 4.812 4.812 0 00-1.088-.124c-.539 0-.993.08-1.364.24-.37.16-.65.377-.836.652-.187.275-.28.583-.28.924 0 .39.101.699.304.928.203.23.445.396.728.5a7.98 7.98 0 001.056.292c.384.085.663.167.836.244.173.077.26.196.26.356 0 .304-.304.456-.912.456-.32 0-.645-.05-.976-.152a3.365 3.365 0 01-.872-.4l-.52 1.168c.267.187.613.336 1.04.448.427.112.867.168 1.32.168zm6.032 0a3.35 3.35 0 001.596-.376c.472-.25.843-.597 1.112-1.04a2.82 2.82 0 00.404-1.496 2.82 2.82 0 00-.404-1.496c-.27-.443-.64-.79-1.112-1.04a3.35 3.35 0 00-1.596-.376 3.35 3.35 0 00-1.596.376c-.472.25-.843.597-1.112 1.04a2.82 2.82 0 00-.404 1.496c0 .555.135 1.053.404 1.496.27.443.64.79 1.112 1.04a3.35 3.35 0 001.596.376zm0-1.312a1.5 1.5 0 01-.768-.2 1.439 1.439 0 01-.544-.564 1.708 1.708 0 01-.2-.836c0-.315.067-.593.2-.836s.315-.43.544-.564a1.5 1.5 0 01.768-.2 1.5 1.5 0 01.768.2c.23.133.41.321.544.564.133.243.2.521.2.836 0 .315-.067.593-.2.836s-.315.43-.544.564a1.5 1.5 0 01-.768.2zm5.496 1.2v-2.984L23.984 20h1.304v-5.6h-1.552v2.984L21.264 14.4H19.96V20h1.552z"/>
  </g>
</svg>
