<svg width="26" height="24" xmlns="http://www.w3.org/2000/svg">
  <path d="M2.275 0A2.29 2.29 0 000 2.27v19.46A2.29 2.29 0 002.275 24h21.45A2.29 2.29 0 0026 21.73V2.27A2.29 2.29 0 0023.725 0H2.275zm0 1.946h21.45c.197 0 .325.128.325.324v13.216l-3.534-3.527a.976.976 0 00-1.402.02l-3.86 4.136-6.113-6.102a.976.976 0 00-.803-.283.976.976 0 00-.548.253l-5.84 5.32V2.27c0-.196.128-.324.325-.324zM14.95 3.243c-1.963 0-3.575 1.609-3.575 3.568s1.612 3.567 3.575 3.567 3.575-1.608 3.575-3.567-1.612-3.568-3.575-3.568zm-.173 1.946c.056-.005.116 0 .173 0 .909 0 1.625.715 1.625 1.622 0 .907-.716 1.621-1.625 1.621a1.609 1.609 0 01-1.625-1.621c0-.85.625-1.54 1.452-1.622zM8.42 12.041l6.164 6.152a.976.976 0 001.402-.02l3.86-4.136 4.204 4.196v3.497c0 .196-.128.324-.325.324H2.275c-.197 0-.325-.128-.325-.324v-3.79l6.47-5.9z" fill="#5BA3B1" fill-rule="nonzero"/>
</svg>
