<svg xmlns="http://www.w3.org/2000/svg" width="20" height="20" fill="currentColor" viewBox="0 0 20 20">
  <g clip-path="url(#a)">
    <path fill-rule="evenodd" d="M.833 0H0v16.667h5.833v1.666H4.167V20h11.666v-1.667h-1.666v-1.666H20V0H.833Zm5.834 15h-5V1.667h16.666V15H6.667Zm.833 3.333v-1.666h5v1.666h-5Zm.807-12.872L7.053 4.208 5.875 5.387 7.128 6.64a3.314 3.314 0 0 0-.356.86H5v1.667h1.772c.078.306.2.594.356.86L5.875 11.28l1.178 1.178 1.254-1.253c.265.157.554.278.86.357v1.771h1.666v-1.771c.306-.079.595-.2.86-.357l1.254 1.253 1.178-1.178-1.253-1.253c.157-.266.278-.554.356-.86H15V7.5h-1.772a3.314 3.314 0 0 0-.356-.86l1.253-1.253-1.178-1.179-1.254 1.253a3.312 3.312 0 0 0-.86-.356V3.333H9.167v1.772c-.306.079-.595.2-.86.356Zm.026 2.872a1.667 1.667 0 1 1 3.333 0 1.667 1.667 0 0 1-3.333 0Z" clip-rule="evenodd"/>
  </g>
  <defs>
    <clipPath id="a">
      <path d="M0 0h20v20H0z"/>
    </clipPath>
  </defs>
</svg>
