<?xml version="1.0" encoding="UTF-8"?>
<svg xmlns="http://www.w3.org/2000/svg" xmlns:xlink="http://www.w3.org/1999/xlink" width="20px" height="20px" viewBox="0 0 20 20" version="1.1">
<g id="surface1">
<rect x="0" y="0" width="20" height="20" style="fill:rgb(100%,100%,100%);fill-opacity:0.0117647;stroke:none;"/>
<path style=" stroke:none;fill-rule:evenodd;fill:rgb(15.294118%,15.294118%,15.686275%);fill-opacity:1;" d="M 1.25 1.25 C 1.941406 1.25 2.5 1.808594 2.5 2.5 L 2.5 17.5 C 2.5 18.191406 1.941406 18.75 1.25 18.75 C 0.558594 18.75 0 18.191406 0 17.5 L 0 2.5 C 0 1.808594 0.558594 1.25 1.25 1.25 Z M 10.882812 5.367188 C 11.371094 5.855469 11.371094 6.644531 10.882812 7.132812 L 9.269531 8.75 L 18.75 8.75 C 19.441406 8.75 20 9.308594 20 10 C 20 10.691406 19.441406 11.25 18.75 11.25 L 9.269531 11.25 L 10.882812 12.867188 C 11.371094 13.355469 11.371094 14.144531 10.882812 14.632812 C 10.394531 15.121094 9.605469 15.121094 9.117188 14.632812 L 5.367188 10.882812 C 5.132812 10.648438 5 10.332031 5 10 C 5 9.667969 5.132812 9.351562 5.367188 9.117188 L 9.117188 5.367188 C 9.605469 4.878906 10.394531 4.878906 10.882812 5.367188 Z M 10.882812 5.367188 "/>
</g>
</svg>
