<svg xmlns="http://www.w3.org/2000/svg" width="20" height="20" fill="currentColor" viewBox="0 0 20 20">
  <path fill-rule="evenodd" d="M12.5 19H8a.5.5 0 0 1-.5-.5v-2A.5.5 0 0 1 8 16h4.5v1h4v-4h-1a.5.5 0 0 1-.5-.5V6.132C13.92 4.239 12.072 3 10 3 7.929 3 6.082 4.238 5.001 6.13L5 12.5a.5.5 0 0 1-.5.5H3a2 2 0 0 1-2-2V9a3 3 0 0 1 1.71-2.709C3.96 3.181 6.737 1 10 1c3.262 0 6.04 2.18 7.292 5.291A3 3 0 0 1 19 9v2a2 2 0 0 1-1.499 1.937L17.5 17.5a.5.5 0 0 1-.41.492L17 18h-4.5v1Z" clip-rule="evenodd"/>
</svg>
