<svg width="287" height="173" xmlns="http://www.w3.org/2000/svg"><g transform="translate(1 1)" fill="none" fill-rule="evenodd"><circle stroke="#623578" stroke-width="1.8" cx="34.5" cy="135.5" r="34.5"/><path fill="#623578" d="M116.015 118.965l14.215 8.42-14.03 8.1z"/><path fill="#D16F6F" d="M150.678 89.271l-9.861 13.257-6.59-14.8z"/><circle fill="#D16F6F" cx="61.5" cy="85.5" r="7.5"/><circle stroke="#D16F6F" stroke-width="1.8" cx="196" cy="48" r="48"/><circle stroke="#65ADBB" stroke-width="1.794" cx="254.5" cy="140.5" r="30.5"/><circle fill="#65ADBB" cx="189.5" cy="65.5" r="6.5"/><path fill="#623578" d="M200.946 82.438l14.616 6.508-6.508 14.616-14.616-6.508z"/><path fill="#5DA7B5" d="M88.103 71.096l9.8-4.993 4.994 9.8-9.8 4.994z"/><g fill-rule="nonzero"><path fill="#A5597E" d="M215.807 138.004l12.62 3.157 6.692-10.655-12.673-3.667z"/><path fill="#F69279" d="M222.446 126.84l-3.596-8.901 11.728 3.05 4.541 9.517z"/><path fill="#D06868" d="M212.38 128.636l3.427 9.368 6.64-11.165-3.597-8.9z"/></g></g></svg>