<svg width="500" height="339" xmlns="http://www.w3.org/2000/svg" xmlns:xlink="http://www.w3.org/1999/xlink"><defs><path id="b" d="M13.677 186.3h447.12v51.03H13.677z"/><path d="M84.53.213c10.888.01 13.403 2.622 19.05 2.622 5.646 0 3.323-1.919 15.648-1.919 4.236 0 7.926 1.046 11.091 2.652 15.383.85 28.662 2.263 39.838 4.241 17.754 3.142 34.624 9.847 40.443 26.664 5.214 15.068-13.016 26.197-20.17 42.837-7.154 16.64-8.496 34.063-17.968 45.895-9.471 11.833-10.575-3.082-17.228-10.044-6.654-6.962-9.646-7.051-16.549-6.962-1.173.016-2.202-.122-3.086-.412 1.338 5.355 1.845 8.166 1.845 9.25v3.307c-2.832-.49-5.365-.49-7.6 0-3.353.735-5.222 1.423-5.222 3.49 0 2.068-1.43 1.245-2.526 7.833-1.095 6.588-4.303 35.195-4.303 38.23 0 3.035-.477 24.882-2.421 26.959-1.945 2.076-3.389 3.594-9.633 3.594s-10.13-2.846-11.798-6.02c-1.67-3.174-3.007-35.728-3.007-38.888 0-3.16-1.634-23.964-1.634-26.687 0-2.723-2.005-7.594-2.48-7.594-.476 0-1.412 1.41-2.29 0-.877-1.41-3.549-3.591-6.035-4.223a57.614 57.614 0 00-5.427-1.083v-1.786c0-.639.265-2.583.697-5.014-.755.185-1.604.272-2.546.26-6.902-.09-9.895 0-16.548 6.961-6.653 6.962-7.757 21.877-17.229 10.044-9.47-11.832-10.813-29.255-17.967-45.895C12.32 61.885-4 56.323 1.215 41.255 7.035 24.438 16.073 8.072 33.825 4.93c9.782-1.731 22.521-2.098 38.22-1.1C75.58 1.707 79.769.21 84.53.213z" id="f"/><path d="M103.627 1.298c5.646 0 12.127-2.325 22.567.997s13.057 7.476 16.691 13.214c3.634 5.738 2.218 6.103 5.043 15.531 2.824 9.428 5.363 10.762 5.363 19.204s-4.026 29.082-10.406 31.593c-6.38 2.511-11.763 7.195-9.071 17.123 2.692 9.93 4.436 15.552 3.564 17.174-.582 1.08-1.292 1.804-2.133 2.17.326-3.663-.628-5.25-2.863-4.76-3.353.734-6.188 8.52-6.188 10.588 0 2.067-3.002-1.053-4.098 5.535-1.095 6.588-4.303 35.195-4.303 38.23 0 3.035-.477 24.882-2.421 26.959-1.945 2.076-3.389 3.594-9.633 3.594s-10.13-2.846-11.798-6.02c-1.67-3.174-3.007-35.728-3.007-38.888 0-3.16-1.634-23.964-1.634-26.687 0-2.723-2.183-7.135-3.787-5.704-1.605 1.432-1.165-1.438-2.042-2.847-.878-1.41-2.385-6.531-4.32-6.531-1.291 0-2.295 1.035-3.011 3.105-2.178.29-3.267-.154-3.267-1.335 0-1.77 2.266-15.16 4.271-19.45 2.006-4.29-8.225-14.926-11.389-16.4-3.163-1.476-14.226-18.9-10.223-32.434 4.004-13.533 1.974-7.06 3.575-15.239 1.6-8.179-1.27-11.555 2.69-16.764C65.754 8.046 75.12.427 84.53.214 93.94 0 97.98 1.298 103.627 1.298z" id="i"/><path d="M84.53.213c10.888.01 13.403 2.622 19.05 2.622 5.646 0 3.323-1.919 15.648-1.919 4.236 0 7.926 1.046 11.091 2.652 15.383.85 28.662 2.263 39.838 4.241 17.754 3.142 34.624 9.847 40.443 26.664 5.214 15.068-13.016 26.197-20.17 42.837-7.154 16.64-8.496 34.063-17.968 45.895-9.471 11.833-10.575-3.082-17.228-10.044-6.654-6.962-9.646-7.051-16.549-6.962-1.173.016-2.202-.122-3.086-.412 1.338 5.355 1.845 8.166 1.845 9.25v3.307c-2.832-.49-5.365-.49-7.6 0-3.353.735-5.222 1.423-5.222 3.49 0 2.068-1.43 1.245-2.526 7.833-1.095 6.588-4.303 35.195-4.303 38.23 0 3.035-.477 24.882-2.421 26.959-1.945 2.076-3.389 3.594-9.633 3.594s-10.13-2.846-11.798-6.02c-1.67-3.174-3.007-35.728-3.007-38.888 0-3.16-1.634-23.964-1.634-26.687 0-2.723-2.005-7.594-2.48-7.594-.476 0-1.412 1.41-2.29 0-.877-1.41-3.549-3.591-6.035-4.223a57.614 57.614 0 00-5.427-1.083v-1.786c0-.639.265-2.583.697-5.014-.755.185-1.604.272-2.546.26-6.902-.09-9.895 0-16.548 6.961-6.653 6.962-7.757 21.877-17.229 10.044-9.47-11.832-10.813-29.255-17.967-45.895C12.32 61.885-4 56.323 1.215 41.255 7.035 24.438 16.073 8.072 33.825 4.93c9.782-1.731 22.521-2.098 38.22-1.1C75.58 1.707 79.769.21 84.53.213z" id="k"/><path d="M49.257 0c5.646 0 6.368.511 16.361.511 9.994 0 19.035 5.901 23.803 14.76 4.767 8.86 3.536 7.9 6.11 16.483 2.576 8.584 4.295 9.77 4.295 18.2 0 8.428-4.026 29.037-10.405 31.544-6.38 2.508-12.193 8.24-9.07 17.097 3.122 8.857 5.856 16.07 4.984 17.689-.582 1.08-.542 2.411.12 3.996-1.168-.489-2.87-.489-5.105 0-3.352.733-7.067 1.108-7.067 3.172s-3.554-.775-4.649 5.802c-1.096 6.578-4.303 35.142-4.303 38.172 0 3.03-.476 24.844-2.421 26.918-1.945 2.073-3.388 3.588-9.632 3.588-6.243 0-10.128-2.842-11.797-6.01-1.668-3.17-3.006-35.674-3.006-38.83 0-3.155-1.634-23.926-1.634-26.645 0-2.719-2.458-6.572-4.063-5.142-1.604 1.43-2.18-1.297-3.058-2.704-.877-1.407-1.436-2.317-3.72-2.317-1.523 0-2.664-.599-3.422-1.796-1.441.29-2.162-.154-2.162-1.332 0-.89.412-5.134 1.239-9.267.815-4.073 2.036-8.027 3.032-10.153 2.005-4.284-8.225-14.904-11.388-16.376C9.136 75.887-2.126 62.628.51 48.375 3.15 34.122 3.148 36.189 4.805 27.734c1.658-8.456-.423-9.51 3.536-14.712C12.299 7.821 19.459 0 31.072 0h18.185z" id="n"/><path d="M225.487.32l1.313 51.03-117.728.04c.426-6.033.954-10.836 1.583-14.41.553-3.136 2.397-11.065 3.044-14.592 1.751-9.556 3.45-16.87 5.095-21.944L225.487.319zM85.565.164c-.005 4.997-.12 12.218-.343 21.663a756.44 756.44 0 01-1.299 29.531L.666 51.35 1.638.32z" id="q"/><path d="M114.538-.797c-1 6.578-3.93 35.142-3.93 38.172 0 3.03-.435 24.844-2.21 26.918-1.777 2.073-3.094 3.588-8.796 3.588s-9.25-2.842-10.773-6.01c-1.524-3.17-2.745-35.674-2.745-38.83 0-3.155-1.493-23.926-1.493-26.645 0-2.72 30.947-3.77 29.947 2.807z" id="t"/><linearGradient x1="50%" y1="0%" x2="50%" y2="100%" id="d"><stop stop-color="#4B2357" offset="0%"/><stop stop-color="#4C446D" offset="100%"/></linearGradient><linearGradient x1="50%" y1="0%" x2="50%" y2="100%" id="e"><stop stop-color="#D3CBAF" offset="0%"/><stop stop-color="#EFE8CD" offset="100%"/></linearGradient><linearGradient x1="50%" y1="-7.809%" x2="50%" y2="100%" id="g"><stop stop-color="#4E567C" offset="0%"/><stop stop-color="#4E5C80" offset="100%"/></linearGradient><linearGradient x1="50%" y1="-10.848%" x2="50%" y2="100%" id="j"><stop stop-color="#8AC4D2" offset="0%"/><stop stop-color="#4E5C80" offset="100%"/></linearGradient><linearGradient x1="50%" y1="-10.848%" x2="50%" y2="100%" id="o"><stop stop-color="#507E98" offset="0%"/><stop stop-color="#4C436D" offset="100%"/></linearGradient><filter x="-6.3%" y="-39.2%" width="112.5%" height="209.7%" filterUnits="objectBoundingBox" id="a"><feOffset dy="8" in="SourceAlpha" result="shadowOffsetOuter1"/><feGaussianBlur stdDeviation="8" in="shadowOffsetOuter1" result="shadowBlurOuter1"/><feColorMatrix values="0 0 0 0 0 0 0 0 0 0 0 0 0 0 0 0 0 0 0.0769777098 0" in="shadowBlurOuter1"/></filter><filter x="-12.7%" y="-13.6%" width="125.4%" height="127.1%" filterUnits="objectBoundingBox" id="c"><feOffset dy="2" in="SourceAlpha" result="shadowOffsetOuter1"/><feGaussianBlur stdDeviation="6" in="shadowOffsetOuter1" result="shadowBlurOuter1"/><feColorMatrix values="0 0 0 0 0 0 0 0 0 0 0 0 0 0 0 0 0 0 0.156823645 0" in="shadowBlurOuter1" result="shadowMatrixOuter1"/><feMerge><feMergeNode in="shadowMatrixOuter1"/><feMergeNode in="SourceGraphic"/></feMerge></filter><filter x="-48.4%" y="-12.9%" width="196.8%" height="139.4%" filterUnits="objectBoundingBox" id="s"><feOffset dy="5" in="SourceAlpha" result="shadowOffsetOuter1"/><feGaussianBlur stdDeviation="4" in="shadowOffsetOuter1" result="shadowBlurOuter1"/><feComposite in="shadowBlurOuter1" in2="SourceAlpha" operator="out" result="shadowBlurOuter1"/><feColorMatrix values="0 0 0 0 0 0 0 0 0 0 0 0 0 0 0 0 0 0 0.595634834 0" in="shadowBlurOuter1"/></filter><radialGradient cx="50%" cy="29.493%" fx="50%" fy="29.493%" r="54.772%" gradientTransform="scale(-.9381 -1) rotate(3.573 9.44 -16.56)" id="l"><stop stop-color="#4E567C" stop-opacity="0" offset="0%"/><stop stop-opacity=".139" offset="25.82%"/><stop stop-opacity="0" offset="100%"/></radialGradient></defs><g transform="translate(5 2)" fill="none" fill-rule="evenodd"><circle fill="#623578" cx="452.299" cy="255.555" r="21.465"/><circle stroke="#623578" stroke-width="2.43" cx="234.495" cy="72.495" r="72.495"/><g transform="rotate(-5 237.237 211.815)"><use fill="#000" filter="url(#a)" xlink:href="#b"/><use fill="#FFF" xlink:href="#b"/></g><text transform="rotate(-5 237.157 211.904)" font-family="Montserrat-ExtraBold, Montserrat" font-size="27" font-weight="600"><tspan x="117.533" y="221.404" fill="#5BA3B1">Grow</tspan> <tspan x="194.078" y="221.404" fill="#21131F"> Your Team</tspan></text><text font-family="Montserrat-Medium, Montserrat" font-size="14.58" font-weight="400" fill="#5C0025"><tspan x="184.219" y="48.02">Team Feature</tspan></text><g filter="url(#c)" transform="translate(131.134 56.7)"><path d="M98.787 196.795c2.942 1.526 14.734 3.698 22.047-2.44 7.314-6.14 19.897-31.624 18.357-42.015-1.54-10.39-14.202-8.53-14.202-4.804 0 3.726-1.99 10.643-1.99 13.977 0 2.222-2.274 6.353-6.82 12.392-13.556 14.242-19.354 21.873-17.392 22.89z" fill="url(#d)"/><path d="M128.123 105.963l8.182 8.435c5.273 14.7 7.711 27.74 7.314 39.12-.595 17.07-10.687 36.961-12.458 35.186-1.77-1.776 3.244-24.92 3.001-37.9-.161-8.654-4.138-19.183-11.929-31.589l5.89-13.252zm-45.06-3.903l4.798 13.443c-6.953 12.288-10.658 22.755-11.114 31.403-.683 12.971 8.117 37.175 6.316 38.888-1.802 1.714-16.238-18.777-16.238-35.867 0-11.393 2.166-23.384 6.499-35.972l9.739-11.895z" fill="url(#e)"/><g transform="translate(.256)"><mask id="h" fill="#fff"><use xlink:href="#f"/></mask><use fill="url(#g)" xlink:href="#f"/><path d="M73.561 108.135c-11.523-8.708-10.837 2.441-25.216-2.025-14.38-4.466-14.956-23.335-14.38-34.71.344-6.792 18.238-10.088 14.38-18.748-3.859-8.66 11.764-10.478 13.693-13.595 14.057-22.714 17.552-9.918 43.294-9.398 27.063.547 52.215 10.351 55.51 21.18 3.296 10.83 12.14 3.756 17.074 12.158 4.933 8.403-7.759 56.12-24.625 45.254-7.812-5.034-13.227-5.072-16.244-.116-34.642 5.805-55.803 5.805-63.486 0z" fill="#4D4C75" mask="url(#h)"/><g mask="url(#h)"><use fill="#48678A" xlink:href="#i"/><use fill="url(#j)" xlink:href="#i"/></g><mask id="m" fill="#fff"><use xlink:href="#k"/></mask><use fill="url(#l)" xlink:href="#k"/><g mask="url(#m)"><g transform="translate(53.61 .405)"><mask id="p" fill="#fff"><use xlink:href="#n"/></mask><use fill="#48678A" xlink:href="#n"/><use fill="url(#o)" xlink:href="#n"/><path d="M35.589 127.218c.532-45.301-.968-69.819-4.498-73.551-5.295-5.6-27.866-13.134-27.866 2.246 0 10.253 5.394 23.043 16.182 38.372 2.552-2.561 3.71-2.561 3.476 0-.126 1.363-.709 4.144-1.75 8.344-.611 2.46-1.88 7.246-3.809 14.357l13.767 17.097 4.498-6.865z" fill="#47466D" mask="url(#p)"/><path d="M100.591 128.066c.626-45.867-.826-70.667-4.356-74.4-5.295-5.598-27.866-13.133-27.866 2.247 0 10.253 5.602 23.962 16.806 41.127l-2.707 19.946 13.767 17.097 4.356-6.017z" fill="#47466D" mask="url(#p)" transform="matrix(-1 0 0 1 169.101 0)"/><path d="M36.534 81.12c4.368-1.832 9.38-2.748 15.038-2.748 5.658 0 11.041 1.253 16.15 3.758-2.86-4.194-8.376-6.291-16.55-6.291-8.175 0-13.055 1.76-14.638 5.281zM36.534 89.652c4.29-1.396 9.264-2.094 14.922-2.094 5.657 0 11.08 1.227 16.266 3.68-2.67-4.22-8.092-6.33-16.266-6.33-8.175 0-13.149 1.581-14.922 4.744zM36.817 98.13c4.18-1.378 9.098-2.068 14.755-2.068 5.658 0 10.886 1.109 15.684 3.325-2.549-3.769-7.91-5.653-16.085-5.653-8.174 0-12.96 1.465-14.354 4.396z" fill="#507E99" mask="url(#p)"/><path d="M36.534 81.12c4.368-3.073 9.38-4.61 15.038-4.61 5.658 0 11.041 1.874 16.15 5.62-2.67-5.62-8.092-8.431-16.266-8.431-8.175 0-13.149 2.474-14.922 7.421z" fill="#464F76" opacity=".5" mask="url(#p)"/><path d="M36.534 89.652c4.368-2.544 9.38-3.816 15.038-3.816 5.658 0 11.041 1.801 16.15 5.402-2.67-5.483-8.092-8.224-16.266-8.224-8.175 0-13.149 2.213-14.922 6.638z" fill="#3E476F" opacity=".5" mask="url(#p)"/><path d="M36.817 98.13c4.18-2.28 9.098-3.42 14.755-3.42 5.658 0 10.886 1.56 15.684 4.677-2.359-4.975-7.626-7.463-15.8-7.463-8.175 0-13.054 2.069-14.639 6.206z" fill="#3D4771" opacity=".5" mask="url(#p)"/><path d="M3.923 26.964c5.398 6.864 10.767 10.775 16.108 11.735 5.34.96 9.003 1.438 10.987 1.434-1.25 1.65-5.992 1.997-14.225 1.04-8.234-.955-13.478-3.71-15.732-8.262l2.862-5.947zM48.476 27.495c.898-.58 3.486 8.499 7.774 10.927 4.288 2.428 11.906 2.574 10.817 3.278-1.09.704-9.982 2.342-14.573-.85-4.591-3.192-4.917-12.774-4.018-13.355z" fill="#507E99" mask="url(#p)"/><path d="M4.805 16.129C15.41 7.529 22.634 3.112 26.481 2.878c5.772-.351 9.958-.242 13.124 1.048 9.885 4.028 8.037 11.513 8.98 11.808.542.17.542-3.673-.405-6.386-.683-1.957-3.842-4.605-3.474-4.516 10.57 2.545 17.63-4.053 26.855-.906 9.226 3.147 13.059 7.666 16.601 13.837 2.362 4.114 6.32 12.673 11.873 25.678l-1.95-12.806-12.5-39.461-74.05 8.633-6.73 16.322z" fill="#5DA7B5" mask="url(#p)"/><path d="M23.099 94.285c3.062-6.05 5.183-11.065 6.362-15.043 1.768-5.967 7.883-14.392 2.109-24.563-5.774-10.17-23.956-9.617-26.765-5.436-2.808 4.182-2.984 12.185 1.03 20.427 2.676 5.494 8.43 13.7 17.264 24.615z" fill="#4C4D74" mask="url(#p)"/><path d="M90.201 96.643c4.201 1.702 5.12-12.539 6.888-18.506 1.768-5.967 7.883-14.392 2.11-24.562-5.775-10.17-23.956-9.618-26.765-5.437-2.81 4.182-2.985 12.186 1.029 20.427C77.477 76.807 86 94.941 90.2 96.643z" fill="#4C4D74" mask="url(#p)" transform="matrix(-1 0 0 1 172.004 0)"/></g></g><path d="M136.852 64.395c1.613 0 4.428-1.936 4.054-4.294-.374-2.358-2.965-4.787-5.274-3.4-2.31 1.385-3.198 2.738-3.197 3.932 0 1.194 2.804 3.761 4.417 3.762z" fill="#2D1E2D" mask="url(#m)" transform="scale(-1 1) rotate(33 0 -401.104)"/><path d="M73.672 64.395c1.613 0 4.428-1.936 4.054-4.294-.374-2.358-2.965-4.787-5.274-3.4-2.31 1.385-3.198 2.738-3.197 3.932 0 1.194 2.804 3.761 4.417 3.762z" fill="#2D1E2D" mask="url(#m)" transform="rotate(33 73.507 60.345)"/><path d="M.205 53.904C1.358 47.208 9.58 22.93 21.703 13.93c5.022-3.729 6.898-8.402 48.538-7.564 1.489.03 5.825-5.037 7.225-5.219 9.49-1.234 24.327-2.492 44.512-3.776L133.32 8.505c11.464-2.078 26.567-.27 45.31 5.425 18.744 5.694 30.701 16.29 35.874 31.789l3.593-31.79L111.233-8.42-7.094-6.077C-2.997 38.375-.564 58.368.205 53.904z" fill="#5DA7B5" mask="url(#m)"/></g><circle fill="#C3E5D7" cx="136.89" cy="59.13" r="1"/><circle fill="#C3E5D7" cx="73.71" cy="59.13" r="1"/></g><g transform="rotate(-5 2298.269 -1457.029)"><mask id="r" fill="#fff"><use xlink:href="#q"/></mask><use fill="#FFF" xlink:href="#q"/><text mask="url(#r)" font-family="Montserrat-ExtraBold, Montserrat" font-size="27.54" font-weight="600"><tspan x="-22.386" y="35.419" fill="#5BA3B1">Grow</tspan> <tspan x="55.69" y="35.419" fill="#241220"> Your Team</tspan></text><g mask="url(#r)" transform="rotate(6 99.576 31.081)"><use fill="#000" filter="url(#s)" xlink:href="#t"/><use fill-opacity="0" fill="#48678A" xlink:href="#t"/></g></g><g fill-rule="nonzero"><path fill="#A5597E" d="M147.765 281.092l30.38 8.735 17.157-25.306-30.466-9.98z"/><path fill="#F69279" d="M164.836 254.54l-7.978-21.92 28.223 8.404 10.22 23.497z"/><path fill="#D06868" d="M140.239 258.05l7.526 23.042 17.071-26.551-7.978-21.92z"/></g><g fill-rule="nonzero"><path fill="#A5597E" d="M334.374 116.661l-6.305 16.39 13.174 10.721 6.999-16.377z"/><path fill="#F69279" d="M348.242 127.395l12.518-3.355-6.017 15.213-13.5 4.52z"/><path fill="#D06868" d="M347.49 113.611l-13.116 3.05 13.868 10.734 12.518-3.355z"/></g><path fill="#D16F6F" d="M409.716 127.086l60.082-24.274 24.274 60.081-60.082 24.275z"/><circle fill="#65ADBB" cx="66.015" cy="123.525" r="21.465"/><path fill="#D16F6F" d="M14.599 38.092l63.139 14.577-14.577 63.139L.022 101.231z"/><path fill="#623578" d="M122.534 151.608l-2.193 22.196-17.915-12.544z"/><path fill="#65ADBB" d="M407.74 25.248l-2.193 22.196L387.632 34.9z"/><path fill="#D16F6F" d="M304.722 36.7l6.281 21.4-21.31-4.919z"/><circle stroke="#65ADBB" stroke-width="2.43" cx="342.949" cy="295.245" r="40.095"/></g></svg>
