<svg width="202" height="32" xmlns="http://www.w3.org/2000/svg" xmlns:xlink="http://www.w3.org/1999/xlink"><defs><linearGradient x1="90.51%" y1="47.625%" x2="0%" y2="56.172%" id="au"><stop stop-color="#FE9B7C" offset="0%"/><stop stop-color="#D06868" offset="100%"/></linearGradient><linearGradient x1="36.072%" y1="101.288%" x2="65.768%" y2="13.528%" id="eu"><stop stop-color="#4C416C" offset="0%"/><stop stop-color="#4F7995" offset="100%"/></linearGradient><linearGradient x1="60.159%" y1="-2.451%" x2="33.185%" y2="98.382%" id="ku"><stop stop-color="#5190A5" offset="0%"/><stop stop-color="#4E6586" offset="100%"/></linearGradient><linearGradient x1="78.616%" y1="38.058%" x2="3.475%" y2="94.021%" id="mu"><stop stop-color="#EFE8CD" offset="0%"/><stop stop-color="#D3CAAF" offset="100%"/></linearGradient><path id="bu" d="M4.206.01l-3.1.002L0 .926 3.377.923z"/><path d="M13.026 2.876c-1.14-.627-.803-2.314-.803-2.314s.06-.427-.246-.487c-.307-.061-.4-.152-.368.396.03.548-.302 2.071.62 2.862.672.578 1.627.456 2.303 1.37.673.908-.258 2.187-.463 2.284-.644.305-.614.426-1.136.488-.521.061-1.9-.09-2.667.184-.767.275-.556.549-1.292 1.006-.737.457-1.965 1.067-2.486 1.646a2.013 2.013 0 00-.422.746c-.494.147-1.593.295-2.46.779-.507.283-1.844 1.196-2.455 2.072-.552.792-.827 1.737-.98 2.56-.095.508-.153 1.492-.153 2.1 0 .6.088 1.079.195 1.668.047.262.091.717.091 1.01 0 .294-.091.366-.091.57 0 .204.064.267.113.317.049.05 0-.154 0-.208 0-.054.073-.197.095-.151.022.046-.003.004-.023.237-.02.233.174.673.174.474 0-.2 0-.474.047-.594.046-.12.049-.028.049 0s-.012.095.017.081c.03-.014.084-.068.03-.34-.053-.27-.084-.27-.103-.385-.064-.39-.063-.587-.101-.851-.062-.427-.093-1.767-.063-2.224.047-.699.227-.78.306-.913.127-.214.252 1.289.8 2.618.465 1.127 1.106 1.126 1.352 1.37.246.243-.214 1.31-.03 2.07.167.684-.06 1.128.002 1.31.061.183.798.396 1.35.396.553 0 1.229-.154 1.229-.397 0-.64-.246-.518-.308-.914s.574-.976.644-1.462c.122-.853 0-1.035-.185-1.675-.012-.04-.093-.792-.093-.792s1.013.152 1.688-.305c1.117-.757 1.534-2.011 1.534-2.011s.46.505.738.73c.4.324.583.355.798.426.277.091 1.01.274 1.01.274s-.365.426-.58.579c-.151.107-.586.457-.494.64.092.182.394.677.707.882.556.365 1.017.487 1.17.456.154-.03.334-1.035.549-1.218.214-.183.617-.793.586-1.097-.03-.298-.093-1.462-.86-1.888-.418-.231-.937-.362-1.138-1.156-.184-.731-1.351-1.218-1.351-1.218.37-.525.99-1.207 1.154-1.387.18.089.346.146.53.138.334-.016.232-.381.04-.883l.055.09s.595-.359.798-.761c.214-.427.766-1.402 1.227-1.554.531-.176 1.473-.671 1.381-.854-.13-.256-.952-.273-.952-.273S15.156 9 15.21 8.905c.428-.764 1.03-2.19.673-3.808-.431-1.949-2.304-1.917-2.857-2.221z" id="du"/><path d="M1.151 2.928C.6 3.72.324 4.664.171 5.487.076 5.996.018 6.979.018 7.588c0 .6.08 1.269.186 1.858.154.853.339 1.827.462 1.797.06-.015-.025-.928-.155-1.828C.449 8.99.418 7.65.448 7.192c.047-.699.227-.78.306-.914.127-.213.252 1.29.8 2.619.465 1.126 1.106 1.126 1.352 1.37.246.243-.214 1.31-.03 2.07.167.684-.06 1.127.002 1.31.061.183.798.395 1.35.395.553 0 1.229-.153 1.229-.397 0-.64-.246-.517-.308-.913s.574-.976.644-1.462c.122-.853 0-1.036-.185-1.675a30.42 30.42 0 01-.093-.792s1.013.152 1.688-.306c1.117-.756 1.534-2.01 1.534-2.01s.46.505.738.73c.4.323.583.355.798.426a22.1 22.1 0 001.01.273s-.365.427-.58.58c-.151.107-.586.456-.494.64.092.182.394.677.707.882.556.365 1.017.486 1.17.456.154-.03.334-1.036.549-1.219.214-.183.617-.792.586-1.096-.03-.299-.093-1.462-.86-1.888-.418-.231-.937-.362-1.138-1.157-.184-.73-1.351-1.217-1.351-1.217.429-.61 1.196-1.432 1.196-1.432L6.231.016c-.36.175-1.643.29-2.625.84-.507.283-1.844 1.195-2.455 2.072z" id="gu"/><path d="M6.272 3.317c.673.578 1.628.456 2.304 1.369.673.909-.259 2.187-.463 2.284-.645.305-.614.427-1.136.488-.174.02-.442.017-.752.014-.62-.006-1.403-.012-1.915.17-.768.275-.556.55-1.293 1.007-.736.457-1.964 1.067-2.486 1.646-.521.579-.613 1.401-.398 1.736.216.335.86.7 2.61.73 1.75.029 2.181.881 2.856.85.335-.015.233-.38.04-.883l.056.091s.595-.36.798-.762c.214-.426.766-1.401 1.227-1.554.531-.176 1.473-.67 1.38-.853-.129-.257-.951-.274-.951-.274s1.051-.392 1.105-.488c.428-.764 1.03-2.19.673-3.807-.431-1.949-2.304-1.917-2.857-2.222C5.93 2.232 6.267.545 6.267.545S6.327.12 6.02.058C5.913.037 5.83.012 5.773.012c-.109 0-.14.086-.12.442.03.549-.303 2.072.619 2.863z" id="ju"/><radialGradient cx="41.057%" cy="27.737%" fx="41.057%" fy="27.737%" r="60.073%" gradientTransform="matrix(0 1 -.66914 0 .596 -.133)" id="cu"><stop stop-opacity=".5" offset="0%"/><stop stop-opacity="0" offset="100%"/></radialGradient><filter x="-36.4%" y="-28.6%" width="172.7%" height="157.1%" filterUnits="objectBoundingBox" id="iu"><feOffset in="SourceAlpha" result="shadowOffsetOuter1"/><feGaussianBlur stdDeviation="1" in="shadowOffsetOuter1" result="shadowBlurOuter1"/><feColorMatrix values="0 0 0 0 0 0 0 0 0 0 0 0 0 0 0 0 0 0 0.5 0" in="shadowBlurOuter1" result="shadowMatrixOuter1"/><feMerge><feMergeNode in="shadowMatrixOuter1"/><feMergeNode in="SourceGraphic"/></feMerge></filter></defs><g fill="none" fill-rule="evenodd"><path d="M25.888 27.8v-2.928h1.952c1.013 0 1.893-.168 2.64-.504.747-.336 1.323-.813 1.728-1.432s.608-1.35.608-2.192c0-.843-.203-1.576-.608-2.2-.405-.624-.981-1.104-1.728-1.44-.747-.336-1.627-.504-2.64-.504h-5.12v11.2h3.168zm1.76-5.424h-1.76v-3.28h1.76c.65 0 1.141.144 1.472.432.33.288.496.693.496 1.216s-.165.925-.496 1.208c-.33.283-.821.424-1.472.424zm9.456 5.568c1.27 0 2.123-.421 2.56-1.264v1.12h2.832v-4.816c0-1.355-.379-2.36-1.136-3.016-.757-.656-1.856-.984-3.296-.984a8.33 8.33 0 00-2.072.264c-.688.176-1.272.424-1.752.744l1.024 2.064a3.368 3.368 0 011.088-.552c.427-.133.848-.2 1.264-.2 1.173 0 1.787.459 1.84 1.376h-1.728c-1.312 0-2.283.227-2.912.68-.63.453-.944 1.09-.944 1.912 0 .512.125.968.376 1.368.25.4.621.717 1.112.952.49.235 1.072.352 1.744.352zm.848-1.92c-.352 0-.63-.08-.832-.24a.774.774 0 01-.304-.64c0-.587.443-.88 1.328-.88h1.312v.752c-.117.33-.31.581-.576.752-.267.17-.576.256-.928.256zm10.896 1.92c.981 0 1.83-.21 2.544-.632a3.499 3.499 0 001.52-1.752l-2.352-1.2c-.395.779-.97 1.168-1.728 1.168-.544 0-.995-.184-1.352-.552-.357-.368-.536-.877-.536-1.528 0-.64.179-1.141.536-1.504.357-.363.808-.544 1.352-.544.757 0 1.333.39 1.728 1.168l2.352-1.2a3.499 3.499 0 00-1.52-1.752c-.715-.421-1.563-.632-2.544-.632-.96 0-1.819.19-2.576.568-.757.379-1.347.907-1.768 1.584-.421.677-.632 1.448-.632 2.312 0 .864.21 1.637.632 2.32.421.683 1.01 1.216 1.768 1.6.757.384 1.616.576 2.576.576zm8.256-.144v-4.192c0-.683.157-1.195.472-1.536.315-.341.733-.512 1.256-.512.95 0 1.424.592 1.424 1.776V27.8h3.04v-4.96c0-1.29-.328-2.256-.984-2.896-.656-.64-1.523-.96-2.6-.96-.512 0-.992.08-1.44.24-.448.16-.837.395-1.168.704v-4h-3.04V27.8h3.04zm9.584 3.248c.907 0 1.675-.216 2.304-.648.63-.432 1.163-1.181 1.6-2.248l3.744-9.024H71.44l-2.144 5.296-2.128-5.296h-3.12l3.712 8.784c-.128.256-.285.443-.472.56-.187.117-.424.176-.712.176-.245 0-.488-.045-.728-.136a1.839 1.839 0 01-.616-.376l-1.056 2.128c.288.235.664.424 1.128.568a4.65 4.65 0 001.384.216zm12.208-3.104c1.13 0 1.979-.336 2.544-1.008v.864h2.896V15.928h-3.04v3.952c-.565-.597-1.365-.896-2.4-.896-.79 0-1.51.181-2.16.544a3.95 3.95 0 00-1.544 1.56c-.379.677-.568 1.464-.568 2.36 0 .896.19 1.685.568 2.368a3.992 3.992 0 001.544 1.576c.65.368 1.37.552 2.16.552zm.64-2.416c-.533 0-.97-.184-1.312-.552-.341-.368-.512-.877-.512-1.528 0-.64.17-1.141.512-1.504.341-.363.779-.544 1.312-.544s.968.181 1.304.544c.336.363.504.864.504 1.504 0 .65-.17 1.16-.512 1.528-.341.368-.773.552-1.296.552zm11.296 2.416c1.621 0 2.853-.47 3.696-1.408l-1.6-1.664c-.31.267-.616.459-.92.576a2.996 2.996 0 01-1.08.176c-.555 0-1.016-.12-1.384-.36a1.764 1.764 0 01-.744-1.032h6.304c.032-.48.048-.73.048-.752 0-.928-.205-1.73-.616-2.408a4.078 4.078 0 00-1.672-1.552c-.704-.357-1.488-.536-2.352-.536-.907 0-1.723.192-2.448.576a4.304 4.304 0 00-1.704 1.592c-.41.677-.616 1.443-.616 2.296 0 .864.21 1.637.632 2.32.421.683 1.016 1.216 1.784 1.6.768.384 1.659.576 2.672.576zm1.472-5.312h-3.552c.085-.459.285-.821.6-1.088.315-.267.707-.4 1.176-.4.47 0 .861.133 1.176.4.315.267.515.63.6 1.088zM99.6 27.8v-3.984c0-.725.184-1.264.552-1.616.368-.352.877-.528 1.528-.528.181 0 .41.016.688.048v-2.736c-.64 0-1.208.099-1.704.296a2.83 2.83 0 00-1.208.888v-1.04H96.56V27.8h3.04zm7.088 0v-4.304c0-.65.139-1.136.416-1.456.277-.32.65-.48 1.12-.48.875 0 1.312.592 1.312 1.776V27.8h3.04v-4.304c0-.65.139-1.136.416-1.456.277-.32.645-.48 1.104-.48.416 0 .739.144.968.432.23.288.344.736.344 1.344V27.8h3.04v-4.96c0-1.29-.317-2.256-.952-2.896-.635-.64-1.485-.96-2.552-.96-.619 0-1.19.117-1.712.352-.523.235-.955.57-1.296 1.008a2.772 2.772 0 00-1.168-1.024c-.48-.224-1.024-.336-1.632-.336-.523 0-1.005.088-1.448.264-.443.176-.824.44-1.144.792v-.912h-2.896V27.8h3.04zm21.648 0v-4.368h4.32V27.8h3.168V16.6h-3.168v4.208h-4.32V16.6h-3.168v11.2h3.168zm13.232.144c.501 0 .976-.09 1.424-.272a3.116 3.116 0 001.152-.8v.928h2.896v-8.672H144v4.176c0 .693-.152 1.208-.456 1.544-.304.336-.696.504-1.176.504-.47 0-.827-.15-1.072-.448-.245-.299-.368-.773-.368-1.424v-4.352h-3.04v4.848c0 1.323.333 2.315 1 2.976s1.56.992 2.68.992zm12.88 0c.79 0 1.507-.184 2.152-.552a4.008 4.008 0 001.536-1.576c.379-.683.568-1.472.568-2.368 0-.896-.19-1.683-.568-2.36a3.966 3.966 0 00-1.536-1.56 4.316 4.316 0 00-2.152-.544c-1.024 0-1.83.299-2.416.896v-3.952h-3.04V27.8h2.896v-.864c.565.672 1.419 1.008 2.56 1.008zm-.64-2.416c-.533 0-.97-.184-1.312-.552-.341-.368-.512-.877-.512-1.528 0-.64.17-1.141.512-1.504.341-.363.779-.544 1.312-.544s.97.181 1.312.544c.341.363.512.864.512 1.504 0 .65-.17 1.16-.512 1.528-.341.368-.779.552-1.312.552z" fill="#020408" fill-rule="nonzero"/><path fill="#D06868" d="M12.435 26.618l-.83.923v2.954l.83-.914z"/><g transform="translate(8.228 26.618)"><use fill="url(#au)" xlink:href="#bu"/><use fill="url(#cu)" xlink:href="#bu"/></g><path fill="#A5597E" d="M11.606 27.532l-3.378.003v2.963l3.378-.003z"/><path d="M12.74 15.728c-.001-.158-.126-.825.533-.842.527-.014 1.625.171 2.568-.07 1.001-.256 2.03-1.21 2.153-1.1.124.11-1.08 1.58-2.605 1.99-.892.24-2.086.143-2.65.022-.22-.047.11.143-.686.002" fill="#C1BBA7"/><g transform="translate(0 5.604)"><path d="M4.78 24.017s.615.091 1.075.09c.461 0 .799-.152.921-.213.123-.06.184-.487-.123-.7-.201-.14-.056-1.458-.37-1.95-.368-.578.275-2.314.275-2.314l-2.117 1.22s.462 2.405.493 2.618c.03.214-.276 1.158-.153 1.25" fill="#4B2357"/><path d="M10.03 16.02s-.19.88.192 1.858c.382.978 1.249 1.293 1.273 1.753.01.205-.099.425-.165.77-.082.428.206.846.023 1.199-.161.308-2.27.216-2.014-.282.257-.499.329-1.193.339-1.315.01-.121-1.296-1.48-1.196-2.327.1-.847-.465-1.079-.465-1.079l2.013-.577z" fill="#4B2A5C"/><mask id="fu" fill="#fff"><use xlink:href="#du"/></mask><use fill="url(#eu)" xlink:href="#du"/><g mask="url(#fu)"><g transform="translate(0 10.98)"><mask id="hu" fill="#fff"><use xlink:href="#gu"/></mask><path d="M.213 6.837S.489 3.943 1.87 3.76c1.38-.183 1.601-.174 2.201.347.737.64.457.931.62.931.162 0 .99-.53.835-1.504-.151-.942.877-1.932 3.063-1.843 2.185.09-2.512-.642-2.512-.642L1.563 2.817S.305 4.46.273 5.71l-.06 1.127z" fill="#4F6486" mask="url(#hu)"/><path d="M7.77 9.03s-2.224-.014-2.209-.3c.015-.287.119-.695.03-1.088-.019-.078 1.01.154 1.61-.333 1.194-.967.089-1.842.089-1.842s1.366.728 1.463 1.086c.174.644-.983 2.477-.983 2.477" fill="#4C3D6A" mask="url(#hu)"/><path d="M.189 9.43s.043-1.66.06-2.466c.03-1.493.259-2.477.795-3.26.46-.67 2.247-.089 2.917-.976C5.34.9 7.49 1.568 7.49 1.568l3.93.85s-.95 1.717-1.445 1.495c-.338-.152-1.105-.548-1.105-.548s.195.395.617.578c.983.426 1.32.79 1.536 1.4.09.254.446.723.697.829.246.103.452.234.62.377.035.03-.094.181-.062.212.028.027.275-.112.3-.084.029.03-.157.256-.132.287.025.03.266-.111.288-.08.032.043-.239.198-.213.241.018.03.272-.03.287 0 .064.126.104.245.12.348.061.396.277.67-.306 1.798-.427.825 1.81-1.22 1.81-1.22L8.994-2.087-.798 2.762l.74 6.7.247-.031z" fill="#4F728F" mask="url(#hu)"/><path d="M12.098 4.52s-1.061-2.817-1.046-3.106c.015-.29-2.886.306-2.886.306l1.843.608c1.105.365-.46 1.371-.46 1.371l2.027.913.522-.092z" fill="#4C416D" mask="url(#hu)"/><path d="M2.34 13.571S.602 7.405.617 7.116c.015-.29-.092-2.333.244-1.584.123.274.77 3.685 2.121 3.836.794.089.29 2.129.401 2.558.277 1.066-.367 2.132-.367 2.132l-.676-.487z" fill="#4C3D6A" mask="url(#hu)"/><path d="M.213 5.04C.4 3.942 1.719 2.277 3.02 1.544 4.324.812 4.891.488 6.491.488c1.598 0-1.218-.968-1.218-.968L.4 1.545s-.885.18-.915 1.428L.213 5.04z" fill="#5191A6" mask="url(#hu)"/></g></g><g filter="url(#iu)" mask="url(#fu)"><g transform="translate(5.956 .016)"><mask id="lu" fill="#fff"><use xlink:href="#ju"/></mask><path d="M6.272 3.317c.673.578 1.628.456 2.304 1.369.673.909-.259 2.187-.463 2.284-.645.305-.614.427-1.136.488-.174.02-.442.017-.752.014-.62-.006-1.403-.012-1.915.17-.768.275-.556.55-1.293 1.007-.736.457-1.964 1.067-2.486 1.646-.521.579-.613 1.401-.398 1.736.216.335.86.7 2.61.73 1.75.029 2.181.881 2.856.85.335-.015.233-.38.04-.883l.056.091s.595-.36.798-.762c.214-.426.766-1.401 1.227-1.554.531-.176 1.473-.67 1.38-.853-.129-.257-.951-.274-.951-.274s1.051-.392 1.105-.488c.428-.764 1.03-2.19.673-3.807-.431-1.949-2.304-1.917-2.857-2.222C5.93 2.232 6.267.545 6.267.545S6.327.12 6.02.058C5.913.037 5.83.012 5.773.012c-.109 0-.14.086-.12.442.03.549-.303 2.072.619 2.863z" fill="url(#ku)" mask="url(#lu)"/><path d="M5.695 12.82s.595-.36.798-.763c.214-.426.766-1.401 1.227-1.554.531-.176 1.473-.67 1.38-.853-.129-.257-.951-.274-.951-.274s1.051-.392 1.105-.488c.428-.764 1.015-1.444.443-3-.37-1.005-2.366-2.283-2.918-2.587-1.14-.627-.892-2.405-.892-2.405s0-.518-.308-.579c-.307-.06-.184-.06-.153.488s-.076 1.72.846 2.512c.673.578 1.674.897 2.35 1.81.673.91 1.66 1.888.739 2.924-.473.531-2.18 1.493-2.732 1.707-.49.19-1.35.305-1.535.275-.805-.133-1.351-.913-1.78-.638-.732.466.952 1.126.43 1.705-.522.579-2.484.489-2.517.885-.03.365.092.578 1.843.607 1.75.03 1.854 1.05 2.53 1.02.675-.032-.431-1.493-.463-2.62-.031-1.127-1.352-1.308-1.352-1.308" fill="#4E567C" mask="url(#lu)"/><path d="M3.558 8.633c.491-.64.675-.701 1.166-.793.332-.061 1.28-.022 2.068-.096.05-.005.108.179.175.179.067 0-.009-.351.065-.365.074-.014.226.386.295.365.07-.02-.092-.383 0-.41.092-.026.277.336.33.308.053-.028-.104-.308-.052-.378s.096.106.105.101c.851-.458 1.19-1.148 1.22-1.655.03-.518-.585-1.249-.585-1.249L3.77 2.237S3.874.456 5.702.195c.645-.091-.067 1.004.677 2.315.385.677 1.321.553 2.218 1.14.062.042.16-.068.2-.038.04.03-.1.135.056.26.157.126.225-.084.283-.027.059.057-.159.167 0 .302.16.135.242-.046.295.022.054.067-.11.148-.04.227.223.248.23.335.336.761.333 1.336.198 1.05.646 1.583.849 1.012-3.959 2.47-3.959 2.47l5.68-.887-.347-1.212-7.83-14.528L-.432 12.29s.828-1.736 1.902-2.438c1.298-.847 1.596-.58 2.087-1.219z" fill="#5DA7B5" mask="url(#lu)"/><path d="M6.048 12.986l-.443-.299s-.293-1.138-.449-1.497c-.184-.426-.198-.638-.737-.76-1.597-.365-.645-.823-.645-.823s1.044.274 1.29 1.005c.103.307.185 1.126.645 1.126s.614-.7 1.013-.945c.399-.244.675-.548 1.043-.61.369-.06 1.351-.061 1.351-.061l-3.068 2.864z" fill="#4C416D" mask="url(#lu)"/><path d="M5.523 8.906c.46-.244.553-.092.83-.275.275-.183-1.014-.486-1.444-.243-.246.14-.35 1.018-.091 1.158.675.365.325-.439.705-.64z" fill="#4E567C" mask="url(#lu)"/></g></g></g><path d="M5.61 25.231c.203-.88.276-1.003-.28-1.651-.37-.433-.575-.755-.616-.966-.016.29.163.643.536 1.06.56.626.037 1.718.283 2.441.163.483.265.837.304 1.062-.05-.428-.109-.796-.178-1.104-.035-.152-.132-.487-.05-.842z" fill="#4F6486"/><path d="M12.923 15.56s.824-.023 1.075-.091c.338-.092.829-.123.829-.336l-.53-.155-.835.29-.03.08-.509.213z" fill="#4B2A5C"/><path d="M15.881 7.625c-.75.602-1.805.946-2.271 1.19-.583.304-.215.76-.153.883.551-.157 1.657-.61 2.363-1.19 1.206-.99 1.718-2.65 1.564-2.68l-.006-.001c-.161 0-.71 1.166-1.497 1.798" fill="url(#mu)" transform="translate(0 5.604)"/><path d="M13.457 15.301c-.227-.35-.166-.502-.166-.502s.246.213.676.06a6.117 6.117 0 001.903-1.036c.798-.64 1.35-1.707 1.35-1.707s-.194 1.006-1.4 1.996c-.706.58-1.812 1.033-2.363 1.19" fill="#D3CBAF"/><g><path d="M11.172 14.258a.205.205 0 01.411 0 .205.205 0 01-.205.205.205.205 0 01-.206-.205" fill="#020408"/><path d="M11.48 14.16c0 .034-.028.061-.062.062a.061.061 0 01-.061-.061.061.061 0 01.123 0" fill="#D5B8D8"/></g><path fill="#FE9B7C" d="M11.974.006l2.156 1.992-.113 1.144-2.285-2.111z"/><path fill="#D06868" d="M11.98 0l-.248 1.03-2.03 2.163.242-1.025z"/><path fill="#A5597E" d="M11.737 1.025l2.285 2.11-2.035 2.169-2.285-2.111z"/><g transform="translate(164 12)"><rect fill="#F2E9E9" width="38" height="20" rx="6"/><path d="M12.258 13.3c.822 0 1.448-.149 1.877-.446.428-.296.643-.721.643-1.273 0-.39-.102-.718-.306-.986a1.661 1.661 0 00-.846-.571c.264-.138.47-.327.617-.567.146-.24.22-.513.22-.819 0-.504-.205-.903-.616-1.197C13.434 7.147 12.846 7 12.078 7H9v6.3h3.258zm-.36-3.717h-1.449V8.098h1.449c.36 0 .633.061.819.184.186.123.279.308.279.554 0 .246-.093.432-.279.558-.186.126-.459.189-.819.189zm.252 2.619h-1.701v-1.557h1.701c.774 0 1.161.261 1.161.783 0 .264-.098.459-.293.585-.195.126-.484.189-.868.189zm6.039 1.17c.876 0 1.542-.261 1.998-.783l-.747-.81c-.168.162-.35.28-.545.355a1.859 1.859 0 01-.67.113c-.366 0-.672-.087-.918-.261a1.14 1.14 0 01-.468-.711h3.663c.018-.234.027-.36.027-.378 0-.504-.11-.947-.328-1.328a2.233 2.233 0 00-.905-.877 2.7 2.7 0 00-1.287-.306c-.486 0-.925.107-1.319.32-.393.213-.702.51-.927.89a2.474 2.474 0 00-.337 1.283c0 .48.114.909.342 1.287.228.378.552.673.972.886.42.213.903.32 1.449.32zm1.017-2.916h-2.385a1.15 1.15 0 01.396-.738c.216-.18.483-.27.801-.27.312 0 .576.091.792.274.216.184.348.428.396.734zm4.239 2.916c.222 0 .433-.025.634-.076s.371-.128.509-.23l-.378-.99a.902.902 0 01-.567.18c-.192 0-.34-.056-.445-.167-.105-.11-.158-.268-.158-.472V9.646h1.206v-1.08H23.04V7.387h-1.404v1.179h-.747v1.08h.747v1.989c0 .57.158 1.002.473 1.296.314.294.76.441 1.336.441zm3.429 0c.72 0 1.212-.225 1.476-.675v.603h1.314v-2.763c0-.72-.201-1.259-.603-1.616-.402-.356-.978-.535-1.728-.535-.39 0-.77.051-1.138.153a3.041 3.041 0 00-.95.432l.504.981c.174-.138.386-.248.635-.329.248-.08.502-.121.76-.121.372 0 .651.082.837.247.186.165.279.401.279.707h-1.116c-.708 0-1.231.129-1.57.387-.34.258-.509.612-.509 1.062 0 .282.072.534.216.756.144.222.353.396.626.522s.595.189.967.189zm.351-.945c-.246 0-.44-.053-.58-.157a.505.505 0 01-.212-.428c0-.378.288-.567.864-.567h.963v.495a.911.911 0 01-.396.49 1.223 1.223 0 01-.639.167z" fill="#020408" fill-rule="nonzero"/></g></g></svg>
