<svg width="22" height="15" xmlns="http://www.w3.org/2000/svg"><path d="M8.21.855a1.263 1.263 0 01.03 1.79L4.766 6.227H20.23c.701 0 1.27.566 1.27 1.265 0 .7-.569 1.266-1.27 1.266H4.765l3.476 3.582a1.262 1.262 0 01-.598 2.124 1.274 1.274 0 01-1.23-.366L.858 8.372c-.02-.021-.035-.046-.054-.068l-.017-.021C.764 8.256.738 8.23.718 8.201L.71 8.186C.687 8.152.67 8.116.65 8.08c-.02-.037-.04-.073-.056-.111a1.237 1.237 0 01-.038-.12c-.01-.033-.024-.065-.03-.1l-.003-.016c-.007-.04-.01-.08-.013-.121C.507 7.575.5 7.538.5 7.5L.5 7.492c.001-.045.007-.081.01-.118.005-.04.007-.081.014-.122l.003-.017c.006-.033.02-.065.03-.097.01-.04.023-.081.037-.121L.6 6.999c.013-.032.034-.06.05-.09.017-.038.037-.074.059-.11l.01-.016c.016-.025.04-.047.058-.07l.028-.034c.018-.022.032-.045.052-.066L6.414.887A1.273 1.273 0 018.21.855z" fill="#FFF" fill-rule="nonzero"/></svg>
