<svg xmlns="http://www.w3.org/2000/svg" xmlns:xlink="http://www.w3.org/1999/xlink" width="16" height="16" viewBox="0 0 16 16">
  <defs>
    <path id="success-icon-a" d="M8,0 C12.418278,0 16,3.581722 16,8 C16,12.418278 12.418278,16 8,16 C3.581722,16 0,12.418278 0,8 C0,3.581722 3.581722,0 8,0 Z M11.8264003,4.14997511 C11.6266287,4.17751929 11.4419089,4.27579338 11.3030013,4.42843227 L6.01391687,9.95918 L4.27843605,8.37483938 C3.91076124,8.04074902 3.35370155,8.08159249 3.03420837,8.46606583 C2.71471518,8.85053917 2.75377407,9.43305016 3.12144883,9.76714057 L5.47215302,11.9179821 C5.82280113,12.2352658 6.3485607,12.2142751 6.67505243,11.8699569 L12.5518129,5.72469839 C12.8230056,5.4481795 12.8949746,5.02142214 12.7305923,4.66458178 C12.5662101,4.30774142 12.2022213,4.1005829 11.8264003,4.14997511 Z"/>
  </defs>
  <use fill="#006955" fill-rule="evenodd" xlink:href="#success-icon-a"/>
</svg>
