<svg xmlns="http://www.w3.org/2000/svg" xmlns:xlink="http://www.w3.org/1999/xlink" width="16" height="16" viewBox="0 0 16 16">
  <defs>
    <path id="warning-icon-a" d="M8,0 C12.418278,0 16,3.581722 16,8 C16,12.418278 12.418278,16 8,16 C3.581722,16 0,12.418278 0,8 C0,3.581722 3.581722,0 8,0 Z M8,11 C7.17157288,11 6.5,11.6715729 6.5,12.5 C6.5,13.3284271 7.17157288,14 8,14 C8.82842712,14 9.5,13.3284271 9.5,12.5 C9.5,11.6715729 8.82842712,11 8,11 Z M8,2 C7.17157288,2 6.5,2.67157288 6.5,3.5 L6.5,3.5 L6.5,8.5 C6.5,9.32842712 7.17157288,10 8,10 C8.82842712,10 9.5,9.32842712 9.5,8.5 L9.5,8.5 L9.5,3.5 C9.5,2.67157288 8.82842712,2 8,2 Z"/>
  </defs>
  <use fill="#E30022" fill-rule="evenodd" xlink:href="#warning-icon-a"/>
</svg>
