<svg width="535" height="361" viewBox="0 0 535 361" fill="none" xmlns="http://www.w3.org/2000/svg">
<g clip-path="url(#clip0_147_3764)">
<g filter="url(#filter0_f_147_3764)">
<path fill-rule="evenodd" clip-rule="evenodd" d="M378.318 313.188C477.726 289.502 464.34 303.958 464.34 292.572C464.34 281.186 425.827 271.956 378.318 271.956C330.81 271.956 292.297 281.186 292.297 292.572C292.297 303.958 278.911 336.875 378.318 313.188Z" fill="black" fill-opacity="0.140217"/>
</g>
<path d="M352.644 138.391L354.399 148.918" stroke="black" stroke-width="2" stroke-linecap="square"/>
<path d="M337.151 200.283C337.151 200.283 326.969 239.453 325.608 250.989C325.038 255.507 328.549 281.738 329.69 286.519C331.445 293.976 335.439 297.31 323.941 300.599C309.896 304.547 302.83 304.854 304.366 292.134C305.902 279.413 296.115 263.622 302.611 242.611C305.683 232.917 302.523 191.378 297.827 176.157C298.09 170.543 334.957 189.141 334.957 189.141L337.151 200.283Z" fill="#4B2357"/>
<path d="M344.47 204.686C344.47 204.686 329.613 242.311 326.809 253.564C325.697 257.976 325.989 284.458 326.548 289.34C327.393 296.972 330.94 300.757 319.117 302.583C304.733 304.854 297.63 304.242 300.732 291.862C303.782 279.399 295.964 262.558 305.044 242.478C309.208 233.175 305.692 183.948 302.864 168.255C303.789 162.715 343.65 193.309 343.65 193.309L344.466 204.642L344.47 204.686Z" fill="url(#paint0_linear_147_3764)"/>
<path d="M438.338 232.168C436.862 233.093 433.51 227.848 432.183 229.186C426.739 234.678 429.525 262.179 428.103 271.927C427.645 275.227 424.274 281.444 420.489 281.067C416.132 280.607 412.494 281.698 409.27 279.933C402.249 276.182 400.692 279.747 403.993 269.105C404.312 265.71 403.431 256.435 402.018 248.05C399.646 233.973 397.107 218.12 405.962 205.533C412.463 196.282 467.883 194.547 460.693 210.698C453.504 226.848 453.161 222.569 438.338 232.168Z" fill="#4B2357"/>
<path d="M242.084 208.878C251.028 204.605 256.801 196.368 260.591 193.152C265.341 189.113 271.139 194.582 272.722 195.709C270.04 200.092 262.716 208.321 254.1 212.275C239.413 219.033 216.387 216.307 216.1 214.744L216.142 214.667C216.303 213.201 232.702 213.309 242.084 208.878Z" fill="#D3CBAF"/>
<path d="M488.434 205.064C487.293 201.116 482.553 167.911 480.359 151.769L477.638 165.937L484.66 200.195C486.591 209.845 484.221 216.03 485.538 222.302C486.547 227.347 489.488 229.759 490.804 230.329L489.707 224.978L491.068 228.399L493.964 232.259L491.682 220.943L493.877 226.162C494.359 220.372 489.532 209.012 488.434 205.064Z" fill="#4C3D6A"/>
<path d="M306.95 119.782C306.95 119.782 323.297 124.923 337.034 120.75C340.79 119.639 345.498 117.518 350.778 115.769C356.154 114.044 365.324 114.34 369.429 113.603C397.211 108.601 431.057 111.012 457.11 124.452C483.111 137.858 480.326 152.173 482.938 163.818C485.569 175.548 488.432 191.535 478.589 206.631C475.471 211.374 471.673 218.765 467.749 233.637C463.74 248.526 467.318 254.19 467.852 264.078C468.118 268.213 467.766 279.206 467.855 283.6C467.923 286.918 470.687 287.632 467.857 290.838C463.097 296.205 452.742 294.973 444.818 293.247C439.853 292.165 436.87 292.163 433.627 289.516C430.75 287.167 437.434 282.155 436.039 278.55C432.351 269.017 435.213 258.942 433.674 247.069L431.834 233.153C431.834 233.153 411.881 241.426 396.032 239.678C380.192 237.973 372.254 233.559 372.254 233.559L362.488 250.702L361.632 251.108C361.632 251.108 362.344 254.455 362.718 275.186C368.263 307.755 371.507 307.521 360.126 308.587C358.742 308.717 354.76 312.813 350.911 313.192C347.343 313.543 343.926 310.148 341.915 310.997C325.432 314.496 339.286 288.19 337.637 283.606C334.24 273.967 331.473 269.397 332.058 257.388C332.345 251.99 327.179 220.122 327.179 220.122C327.179 220.122 316.555 214.888 311.043 213.232C305.541 211.62 292.355 167.148 292.355 167.148L331.705 167.18L306.95 119.782Z" fill="url(#paint1_linear_147_3764)"/>
<mask id="mask0_147_3764" style="mask-type:alpha" maskUnits="userSpaceOnUse" x="292" y="111" width="194" height="189">
<path d="M306.949 119.777C306.949 119.777 323.296 124.918 337.032 120.746C340.789 119.635 345.496 117.514 350.776 115.765C356.152 114.041 365.321 114.337 369.426 113.6C397.207 108.599 431.052 111.012 457.106 124.453C483.107 137.86 480.322 152.175 482.934 163.82C485.565 175.551 488.429 191.538 478.588 206.634C475.47 211.378 478.254 218.77 474.331 233.641C470.322 248.531 469.814 258.191 470.348 268.079C470.815 275.335 473.339 279.662 466.76 287.114C459.018 295.844 449.395 296.523 440.98 289.653C438.102 287.304 440.941 282.306 439.546 278.7C435.857 269.167 435.214 258.944 433.674 247.072L431.834 233.155C431.834 233.155 411.882 241.427 396.033 239.679C380.193 237.974 372.256 233.559 372.256 233.559L362.491 250.702L361.635 251.108C361.635 251.108 362.347 254.455 362.722 275.187C358.512 293.348 371.773 289.681 349.75 298.976C333.268 302.475 339.29 288.19 337.642 283.606C334.245 273.967 331.478 269.396 332.062 257.387C332.349 251.988 327.182 220.12 327.182 220.12C327.182 220.12 316.557 214.885 311.046 213.23C305.544 211.617 292.356 167.144 292.356 167.144L331.706 167.177L306.949 119.777Z" fill="white"/>
</mask>
<g mask="url(#mask0_147_3764)">
<path d="M431.523 235.911L432.688 216.511C433.152 208.788 435.098 200.436 435.098 200.436C435.098 200.436 426.834 229.057 414.493 230.511C402.195 231.955 392.412 227.932 388.465 223.298C384.518 218.664 383.816 201.455 377.71 191.314C371.638 181.121 367.418 183.003 367.418 183.003C367.418 183.003 378.293 186.256 375.765 209.578C373.28 232.89 371.076 235.601 371.076 235.601L396.727 251.371L431.523 235.911Z" fill="#4C3D6A"/>
<path opacity="0.5" d="M348.244 188.792C348.244 188.792 370.405 167.489 395.227 164.597C419.998 161.671 418.948 165.169 426.892 172.14C431.703 176.317 435.17 181.825 436.855 187.968C436.855 187.968 443.359 171.515 451.121 158.024C458.873 144.491 474.511 140.812 482.946 155.574C491.373 170.293 481.585 100.058 481.585 100.058L319.868 134.301L348.253 188.835L348.244 188.792Z" fill="#4F6486"/>
<path opacity="0.5" d="M323.088 123.487C323.088 123.487 332.049 159.267 341.114 162.86C354.694 168.276 387.725 141.974 396.817 142.96C419.615 145.522 421.936 155.795 430.535 150.874C439.168 145.901 434.643 131.386 457.709 130.571C480.742 129.808 493.163 150.229 493.163 150.229L480.696 93.1226C480.696 93.1226 429.268 89.6857 401.309 95.1279C373.375 100.475 323.088 123.487 323.088 123.487Z" fill="#4F728F"/>
<path opacity="0.4" d="M345.973 161.886C347.631 161.668 364.795 136.491 384.965 131.761C393.633 129.696 406.271 124.995 415.775 130.02C426.648 135.786 422.158 135.977 429.169 130.765C437.205 124.887 449.727 124.068 432.036 116.833C412.979 109.081 365.778 105.06 365.778 105.06L281.446 107.442C281.446 107.442 343.566 162.172 345.973 161.886Z" fill="#507E98"/>
<path d="M327.173 220.138C330.931 215.034 334.955 165.651 334.955 165.651L282.064 167.326C282.064 167.326 289.289 209.073 298.011 212.111C310.025 216.288 325.751 222.099 327.216 220.129L327.173 220.138Z" fill="#4C3D6A"/>
<g filter="url(#filter1_f_147_3764)">
<path d="M217.944 4.51636C216.485 11.2854 232.54 29.428 228.363 45.2619C224.165 61.0578 205.13 66.8725 200.284 88.5634C195.439 110.254 198.26 125.749 211.13 147.147C223.962 168.568 226.22 171.774 251.094 183.258C255.218 185.134 249.035 189.867 252.545 191.032C262.021 194.279 274.01 191.617 283.503 190.597C291.631 189.758 297.575 190.837 303.368 190.079C318.545 188.11 328.034 176.911 328.034 176.911C328.034 176.911 341.068 181.144 351.893 179.711C358.04 178.951 344.12 179.586 351.104 170.541C360.064 159.04 366.422 140.58 359.006 123.886C348.928 101.181 333.948 110.33 322.901 108.396C315.192 107.068 312.801 95.1247 301.016 93.6673C293.031 92.6508 295.453 87.8092 287.037 90.0808C268.484 95.061 244.206 130.648 244.206 130.648C244.206 130.648 222.373 114.167 226.39 97.9694C230.385 81.7337 247.941 70.6423 250.241 50.4201C252.601 30.2141 242.53 -0.195444 240.02 -4.97819C237.494 -9.70102 232.883 -1.72178 227.163 0.565656C221.442 2.85309 219.382 -2.29064 217.906 4.53828L217.944 4.51636Z" fill="#4C3D6A"/>
</g>
<path d="M369.413 238.825C369.413 238.825 364.541 247.125 358.611 244.975C352.767 242.807 363.972 270.163 363.972 270.163C363.972 270.163 364.159 265.773 361.026 251.055C368.856 253.07 369.404 238.782 369.404 238.782L369.413 238.825Z" fill="#4C3D6A"/>
</g>
<path d="M166.82 68.3834C167.751 75.5172 191.74 77.9055 193.199 94.8715C194.688 111.868 178.21 125.671 181.096 148.592C184.013 171.544 192.206 185.129 212.192 200.141C232.146 215.122 240.122 220.054 268.828 215.37C268.828 215.37 261.039 224.706 267.804 224.272C278.231 223.652 288.845 215.526 297.721 210.501C305.293 206.159 311.407 204.639 316.807 201.351C330.834 192.915 336.11 178.089 336.11 178.089C336.11 178.089 352.216 201.196 362.24 195.148C367.919 191.705 352.185 173.56 355.816 161.867C360.471 146.979 363.419 124.988 350.324 112.147C332.572 94.7784 322.268 107.061 310.879 110.008C302.903 112.024 292.693 106.161 280.714 109.883C272.645 112.365 255.484 117.855 249.742 133.146C244.032 148.406 246.608 156.873 245.801 167.481C245.677 169.404 238.508 169.931 238.508 169.931C238.508 169.931 211.571 163.604 209.771 146.297C207.971 128.99 221.129 110.752 216.288 90.3431C211.478 69.9653 197.233 56.9073 188.389 50.5489C179.544 44.1906 172.251 51.7896 167.286 56.4421C162.32 61.0945 165.858 61.2186 166.82 68.3834Z" fill="#4F7C96"/>
<path d="M166.182 78.334C167.182 85.4644 191.724 77.8964 193.2 94.8944C194.675 111.892 178.211 125.66 181.125 148.62C184.005 171.552 192.204 185.13 212.192 200.121C232.145 215.085 240.094 220.051 268.841 215.378C268.841 215.378 261.02 224.683 267.781 224.284C278.23 223.654 288.8 215.558 297.72 210.473C305.286 206.154 311.395 204.608 316.795 201.359C330.794 192.933 336.126 178.058 336.126 178.058C336.126 178.058 352.199 201.226 362.263 195.148C367.924 191.715 352.192 173.564 355.866 161.919C360.438 146.937 363.344 125.019 350.294 112.199C332.549 94.7897 322.208 107.135 310.812 110.047C302.849 112.069 292.685 106.213 280.654 109.909C272.585 112.41 255.437 117.891 249.712 133.182C244.015 148.438 246.59 156.9 245.773 167.527C245.631 169.445 238.479 169.978 238.479 169.978C238.479 169.978 211.565 163.604 209.749 146.33C207.932 129.056 221.085 110.802 216.284 90.3799C213.245 77.2165 205.462 65.6328 194.42 57.8404C191.321 55.6709 185.524 47.4228 180.46 48.2353C170.506 49.7176 164.053 57.1943 163.411 60.287C162.019 67.232 165.266 71.1012 166.237 78.2658L166.182 78.334Z" fill="url(#paint2_linear_147_3764)"/>
<mask id="mask1_147_3764" style="mask-type:alpha" maskUnits="userSpaceOnUse" x="166" y="47" width="198" height="181">
<path d="M167.896 66.0631C168.203 66.3116 169.683 65.2517 169.907 65.6024C170.221 65.9125 168.689 67.664 168.981 68.0699C169.239 68.4482 171.579 66.955 171.754 67.4356C172.051 68.184 170.457 71.1271 170.527 72.0866C170.59 72.9844 176.04 70.5095 175.658 71.3293C168.514 85.5839 192.433 86.0341 193.21 94.9033C194.685 111.901 178.221 125.669 181.101 148.601C183.981 171.533 192.214 185.139 212.202 200.13C232.155 215.094 240.104 220.06 268.851 215.387C268.851 215.387 259.512 224.647 267.061 227.215C277.375 230.724 288.897 218.072 297.783 212.959C305.348 208.64 311.405 204.617 316.805 201.368C330.804 192.942 336.136 178.067 336.136 178.067C336.136 178.067 352.174 201.208 362.239 195.129C367.934 191.724 352.202 173.573 355.842 161.9C360.482 146.973 363.382 124.994 350.332 112.174C332.587 94.7645 322.245 107.109 310.85 110.022C302.887 112.043 292.722 106.187 280.692 109.884C272.589 112.357 255.475 117.866 249.75 133.156C244.018 148.385 246.593 156.847 245.81 167.502C245.669 169.419 238.516 169.952 238.516 169.952C238.516 169.952 211.603 163.579 209.752 146.278C207.936 129.003 221.122 110.777 216.322 90.3547C211.494 69.9663 193.585 64.0508 189.479 60.6149C185.339 57.1514 179.845 69.299 179.531 68.9888C177.024 66.5078 176.106 64.0156 174.275 59.6546C173.666 58.3152 179.804 51.9943 180.473 50.0528C181.91 45.9099 178.505 46.7665 171.924 52.7285C165.997 58.0916 165.688 64.0497 167.896 66.0631Z" fill="white"/>
</mask>
<g mask="url(#mask1_147_3764)">
<path d="M357.781 197.843C357.781 197.843 342.122 175.349 343.654 164.397C345.282 153.466 350.095 128.915 336.368 125.087C327.431 122.595 308.117 133.886 305.702 143.559C304.382 148.812 315.725 150.147 318.813 156.372C327.633 174.064 345.943 201.301 345.943 201.301L357.781 197.843Z" fill="#4E567C"/>
<path d="M162.775 62.765C162.775 62.765 163.242 58.0067 173.505 50.8472C176.815 48.5034 180.15 47.8724 181.403 48.2086C182.621 48.5173 185.687 56.304 186.374 57.1986C198.546 73.5408 204.098 80.3489 199.396 108.038C199.198 109.119 202.098 106.725 200.374 109.62C199.253 111.421 195.811 111.627 195.676 112.421C195.318 114.954 200.323 113.586 199.663 115.027C198.329 118.068 193.034 114.008 191.854 117.625C191.213 119.533 198.652 120.248 197.799 121.928C197.022 123.445 192.361 120.067 191.659 121.7C189.018 127.747 187.607 138.063 188.466 146.829C188.614 148.529 189.825 153.517 190.331 155.959C190.498 156.658 193.858 155.37 194.025 156.07C194.246 156.982 190.993 159.881 191.214 160.793C191.467 162.014 191.808 162.29 192.076 163.354C192.343 164.698 195.34 162.044 195.702 163.41C196.044 164.59 193.169 167.512 193.546 168.72C199.713 189.684 210.591 191.941 221.61 201.762C243.891 221.658 257.516 225.404 257.516 225.404C257.516 225.404 249.15 230.711 244.714 228.588C240.244 226.438 202.531 224.194 188.118 205.529C173.766 186.859 169.726 115.802 169.726 115.802L166.469 64.0612L162.775 62.765Z" fill="#5DA7B5"/>
<path d="M336.667 178.779C336.667 178.779 330.513 172.331 329.391 166.908C328.242 161.519 327.632 154.534 323.309 157.075C319.049 159.61 327.714 163.462 328.79 170.373C329.93 177.278 315.887 188.376 304.903 194.839C293.892 201.336 262.124 212.313 259.747 218.686C257.342 225.093 285.714 237.304 285.714 237.304C285.714 237.304 288.695 210.902 330.961 197.359C335.291 193.018 336.702 178.808 336.702 178.808L336.667 178.779Z" fill="#4C416D"/>
<path opacity="0.4" d="M217.587 93.1846C217.587 93.1846 216.49 108.27 210.489 120.346C204.488 132.422 197.983 137.035 197.9 153.448C197.896 157.565 198.822 165.483 201.119 174.567C201.971 177.804 202.882 181.025 203.851 184.229C212.132 209.556 229.996 236.996 262.688 219.091C311.953 192.022 240.705 236.463 220.271 190.519C211.613 171.094 204.544 137.999 213.659 125.564C224.853 110.354 217.587 93.1846 217.587 93.1846Z" fill="#4D547F"/>
<path d="M267.654 221.078C267.654 221.078 268.322 225.69 274.961 223.048C279.957 220.511 287.221 214.798 292.516 210.108C297.089 206.059 299.306 199.967 303.269 197.388C303.269 197.388 297.605 199.596 291.2 203.09C286.412 205.702 281.175 209.565 277.777 210.871C269.86 214.002 267.601 221.035 267.601 221.035L267.654 221.078Z" fill="#4B2A5C"/>
<path d="M291.248 203.148C291.248 203.148 308.345 195.988 315.111 190.006C321.878 184.025 326.321 176.728 326.321 176.728L302.403 191.123C294.424 195.953 287.047 198.506 287.047 198.506L291.248 203.148Z" fill="#4E567C"/>
<path d="M234.09 168.515C234.09 168.515 245.749 173.153 255.786 167.109C265.794 161.099 260.309 139.501 266.531 127.152C268.82 122.514 272.394 119.706 276.966 116.294C280.587 113.637 289.254 108.517 289.254 108.517C289.254 108.517 255.474 103.021 241.617 117.544C227.761 132.067 234.118 168.481 234.118 168.481L234.09 168.515Z" fill="#4F718F"/>
<path d="M247.959 168.056C240.364 176.245 218.061 158.815 218.108 160.151C218.743 168.568 248.45 184.596 261.766 173.529C262.999 172.495 263.46 170.95 263.698 169.054C263.743 168.3 258.412 166.864 258.445 165.988C258.408 165.337 263.83 165.266 263.786 164.553C263.777 163.868 259.441 163.295 259.459 162.575C259.464 161.733 263.912 160.704 263.944 159.827C264.188 156.226 265.385 152.753 267.411 149.764C268.607 148.079 273.056 144.399 273.056 144.399C273.056 144.399 268.846 143.532 268.015 142.746C264.156 139.284 267.126 130.739 269.926 126.796C279.153 113.944 289.226 108.551 289.226 108.551L271.12 106.991C271.12 106.991 246.396 131.232 251.683 139.97C256.921 149.101 255.395 160.605 247.959 168.056ZM358.271 155.626C358.271 155.626 353.273 113.144 336.565 110.346C322.775 107.989 305.554 130.288 303.985 132.574C299.899 138.523 289.721 142.93 289.721 142.93C289.721 142.93 294.179 140.216 298.969 124.337C303.792 108.486 289.371 108.442 289.371 108.442C289.371 108.442 291.972 105.58 297.406 105.914C299.633 106.023 332.502 84.7622 355.454 101.531C382.329 121.194 358.237 155.599 358.237 155.599L358.271 155.626ZM291.449 187.845C286.934 190.572 282.71 193.754 278.842 197.34C278.842 197.34 285.039 198.405 286.259 197.247C291.939 191.91 296.206 191.244 300.815 188.483C309.854 183.042 295.735 185.274 295.735 185.274C295.735 185.274 299.161 183.136 291.449 187.845Z" fill="#507E98"/>
<path d="M256.923 207.596C267.214 206.047 275.916 199.488 280.809 197.352C286.898 194.716 290.474 202.013 291.575 203.581C287.276 207.214 277.089 213.305 267.279 214.679C250.486 217.004 229.213 207.294 229.572 205.666L229.599 205.632C230.314 204.122 246.111 209.23 256.923 207.596Z" fill="url(#paint3_linear_147_3764)"/>
<path d="M291.534 203.492C288.637 198.494 286.654 197.736 286.654 197.736C286.654 197.736 287.946 201.717 284.34 204.217C278.418 208.508 271.526 211.267 264.277 212.25C253.561 213.905 239.178 209.771 239.178 209.771C239.178 209.771 251.283 216.577 267.734 214.257C277.365 212.964 287.346 206.988 291.562 203.458L291.534 203.492Z" fill="#D3CBAF"/>
<path d="M310.95 156.594C313.811 158.33 311.082 165.961 305.003 169.296C298.923 172.631 291.281 171.941 288.567 165.825C285.817 159.66 291.785 157.573 296.686 154.62C301.587 151.668 306.333 152.885 309.194 154.62L310.95 156.594Z" fill="#4E567C"/>
<path d="M301.489 162.353C302.17 164.499 300.114 167.455 298.222 167.56C297.295 167.581 294.672 167.554 294.006 166.909C293.34 166.264 292.961 165.379 292.952 164.452C292.868 162.465 293.111 159.123 295.369 158.568C297.628 158.013 300.809 160.207 301.489 162.353Z" fill="#020408"/>
<path d="M296.551 164.994C296.589 165.645 296.119 166.225 295.434 166.234C294.816 166.299 294.292 165.762 294.282 165.077C294.245 164.426 294.749 163.874 295.4 163.837C296.017 163.772 296.542 164.309 296.551 164.994Z" fill="#D5B8D8"/>
</g>
<mask id="mask2_147_3764" style="mask-type:alpha" maskUnits="userSpaceOnUse" x="164" y="37" width="75" height="167">
<path d="M164.611 74.5794C165.006 77.1575 170.957 63.1219 175.175 67.3257C182.432 74.6098 192.259 84.0875 193.209 94.9033C194.685 111.901 178.221 125.669 181.101 148.601C183.981 171.533 192.214 185.139 212.201 200.13C232.155 215.094 238.516 169.952 238.516 169.952C238.516 169.952 211.603 163.579 209.752 146.278C207.936 129.003 221.122 110.777 216.322 90.3547C211.494 69.9663 185.526 41.7251 181.42 38.2892C177.28 34.8257 181.734 39.7845 176.983 44.4626C172.261 49.1066 163.7 67.4083 164.638 74.5453L164.611 74.5794Z" fill="white"/>
</mask>
<g mask="url(#mask2_147_3764)">
<g filter="url(#filter2_f_147_3764)">
<path d="M212.311 98.6214C203.375 109.631 198.272 110.951 185.706 117.644C182.883 114.203 182.433 110.441 184.257 106.272C186.573 101.135 193.814 93.478 206.015 83.3288C206.015 83.3288 212.796 97.9968 212.249 98.6258L212.311 98.6214Z" fill="black" fill-opacity="0.5"/>
</g>
</g>
<path d="M177.03 65.8711C174.765 61.932 173.834 59.7608 174.237 59.3576C174.858 58.7373 179.513 58.6752 180.909 58.272C182.337 57.8998 184.106 55.9458 183.703 56.7212C183.33 57.5276 179.792 60.8774 179.823 61.2186C179.885 61.6528 183.237 58.5512 183.858 58.4271C184.54 58.3651 182.182 60.4742 184.013 60.133C185.254 59.9469 182.927 61.8389 177.03 65.8711Z" fill="#4F6E8E"/>
<path d="M177.03 65.8711C176.348 64.7844 175.737 63.6551 175.199 62.4903C176.565 62.6143 177.372 62.8004 177.837 62.9555C178.147 63.0796 177.775 63.5759 177.992 63.7309C178.178 63.855 178.675 63.6689 178.923 63.7309C179.296 63.793 179.358 64.1031 179.389 64.1962C179.389 64.4443 178.613 65.0336 177.061 65.9021L177.03 65.8711Z" fill="#3A5877"/>
<path d="M163.107 73.3669L164.958 72.3578C165.623 75.8481 167.89 77.9157 171.782 78.5982C172.821 78.7933 176.018 76.6174 178.899 74.6824C180.509 73.6133 182.503 72.1602 182.027 70.3474C181.59 68.5121 180.552 69.5959 180.054 69.0244C179.151 68.0319 177.601 66.9498 176.869 65.1372L191.021 57.8844L194.838 79.9023L158.247 87.3398L163.107 73.3669Z" fill="#F69279"/>
<mask id="mask3_147_3764" style="mask-type:alpha" maskUnits="userSpaceOnUse" x="158" y="57" width="37" height="31">
<path d="M163.107 73.3669L164.958 72.3578C165.623 75.8481 167.89 77.9157 171.782 78.5982C172.821 78.7933 176.018 76.6174 178.899 74.6824C180.509 73.6133 182.503 72.1602 182.027 70.3474C181.59 68.5121 180.552 69.5959 180.054 69.0244C179.151 68.0319 177.601 66.9498 176.869 65.1372L191.021 57.8844L194.838 79.9023L158.247 87.3398L163.107 73.3669Z" fill="white"/>
</mask>
<g mask="url(#mask3_147_3764)">
<g style="mix-blend-mode:multiply" filter="url(#filter3_f_147_3764)">
<path d="M183.262 70.5794C178.701 75.1123 177.384 75.0896 176.604 75.2209C175.96 75.3267 173.18 76.9173 168.017 77.47C167.341 74.9854 167.099 73.4641 167.232 72.889C169.742 64.0252 173.535 60.3692 175.69 57.9216C178.693 54.6525 183.042 54.3503 188.756 57.0533C188.756 57.0533 185.705 60.5992 185.214 61.5233C184.659 62.3322 181.439 63.7647 180.961 65.4344C180.383 67.5599 183.314 70.4005 183.203 70.5623L183.262 70.5794Z" fill="black" fill-opacity="0.4"/>
</g>
</g>
<path d="M158.189 86.9961L186.787 71.5353L202.991 98.4859L174.443 114.019L158.189 86.9961Z" fill="#D06868"/>
<path d="M191.09 57.8685L186.61 71.6601L202.938 98.7893L207.444 85.0336L191.09 57.8685Z" fill="#A5597E"/>
<g filter="url(#filter4_f_147_3764)">
<path fill-rule="evenodd" clip-rule="evenodd" d="M73.952 321.084L107.307 328.102C102.696 331.088 100.355 334.743 100.285 339.068C100.215 343.393 102.409 348.73 106.868 355.078L65.8326 357.052L52.8856 337.971L80.7547 334.747L73.952 321.084ZM131.885 317.794L303.489 318.233L286.153 340.823L248.847 331.83L211.981 350.692L131.885 317.794ZM135.615 333.366C142.16 333.366 147.465 335.133 147.465 337.313C147.465 339.494 142.16 341.261 135.615 341.261C129.071 341.261 123.765 339.494 123.765 337.313C123.765 335.133 129.071 333.366 135.615 333.366Z" fill="black" fill-opacity="0.1758"/>
</g>
<path d="M200.351 238.356L271.45 269.324V297.836L200.351 266.912V238.356Z" fill="#482557"/>
<path d="M200.351 238.4L134.123 273.316V302.003L200.351 267.087V238.4Z" fill="#5F2A6F"/>
<path d="M186.967 260.834L181.44 282.192L168.959 273.782L182.296 251.879L186.967 260.834Z" fill="#7C3C5B"/>
<path d="M182.24 251.98L176.632 273.661L155.263 269.123L160.903 247.449L182.24 251.98Z" fill="#7C3C5B"/>
<path d="M217.35 278.298L211.743 299.98L190.373 295.442L196.014 273.767L217.35 278.298Z" fill="#4A2457"/>
<path d="M181.712 282.031L176.929 273.39L155.79 268.9L160.606 277.548L181.712 282.031Z" fill="#4A2457"/>
<path d="M156.462 303.977C165.794 303.977 173.359 296.416 173.359 287.089C173.359 277.763 165.794 270.202 156.462 270.202C147.13 270.202 139.565 277.763 139.565 287.089C139.565 296.416 147.13 303.977 156.462 303.977Z" fill="url(#paint4_radial_147_3764)"/>
<path d="M181.745 249.57L209.754 241.279L208.718 261.169L174.767 260.972L181.745 249.57Z" fill="#A5597E"/>
<path d="M174.709 260.805L202.924 252.443L212.228 279.446L184 287.766L174.709 260.805Z" fill="#925252"/>
<path d="M209.21 241.048L202.884 252.318L212.231 279.443L218.543 268.132L209.21 241.048Z" fill="#7C3C5B"/>
<path d="M187.843 249.66L198.096 281.582C217.93 283.464 228.965 279.969 247.97 264.401L237.717 232.479C222.162 247.432 211.323 251.342 187.843 249.66Z" fill="url(#paint5_linear_147_3764)"/>
<path opacity="0.3" d="M203.642 277.22L197.937 257.92" stroke="black"/>
<path opacity="0.3" d="M209.787 279.413L204.081 260.113" stroke="black"/>
<path opacity="0.3" d="M220.759 275.904L215.931 256.165" stroke="black"/>
<path opacity="0.3" d="M241.386 265.815L237.875 254.849" stroke="black"/>
<path opacity="0.3" d="M231.292 271.518L224.709 252.217" stroke="black"/>
<path opacity="0.3" d="M235.681 269.324L229.098 250.024" stroke="black"/>
<path opacity="0.3" d="M206.715 278.097L199.692 253.972" stroke="black"/>
<path opacity="0.3" d="M212.859 278.097L205.837 253.972" stroke="black"/>
<path opacity="0.3" d="M222.514 274.588L216.809 250.024" stroke="black"/>
<path opacity="0.3" d="M233.487 269.763L225.587 245.638" stroke="black"/>
<path opacity="0.3" d="M238.753 268.447L230.853 244.322" stroke="black"/>
<path d="M156.462 303.977C165.794 303.977 173.359 296.416 173.359 287.089C173.359 277.763 165.794 270.202 156.462 270.202C147.13 270.202 139.565 277.763 139.565 287.089C139.565 296.416 147.13 303.977 156.462 303.977Z" fill="url(#paint6_radial_147_3764)"/>
<path d="M171.543 274.822L197.075 279.549L188.22 294.884L161.41 281.039L171.543 274.822Z" fill="#F69279"/>
<path d="M161.714 280.811L190.24 285.95L186.73 310.902L158.209 305.725L161.714 280.811Z" fill="#D06868"/>
<path d="M196.676 279.275L187.363 285.628L183.837 310.694L193.155 304.303L196.676 279.275Z" fill="#7C3C5B"/>
<path d="M261.594 242.392L283.558 262.259C265.078 268.937 258.155 276.796 251.502 297.66L229.536 277.793C236.876 259.137 243.696 251.201 261.594 242.392Z" fill="url(#paint7_linear_147_3764)"/>
<path d="M244.239 290.818C253.571 290.818 261.136 283.257 261.136 273.93C261.136 264.603 253.571 257.043 244.239 257.043C234.907 257.043 227.342 264.603 227.342 273.93C227.342 283.257 234.907 290.818 244.239 290.818Z" fill="url(#paint8_radial_147_3764)"/>
<path d="M208.078 275.888L236.087 267.597L235.051 287.488L201.1 287.291L208.078 275.888Z" fill="#A5597E"/>
<path d="M201.042 287.124L229.257 278.762L238.562 305.764L210.333 314.085L201.042 287.124Z" fill="#D06868"/>
<path d="M235.543 267.366L229.217 278.636L238.564 305.761L244.876 294.45L235.543 267.366Z" fill="#7C3C5B"/>
<path d="M206.056 317.136C215.388 317.136 222.953 309.575 222.953 300.248C222.953 290.922 215.388 283.361 206.056 283.361C196.724 283.361 189.159 290.922 189.159 300.248C189.159 309.575 196.724 317.136 206.056 317.136Z" fill="url(#paint9_radial_147_3764)"/>
<path d="M134.079 273.009L205.178 303.977V345.648L134.079 314.724V273.009Z" fill="#A5597E"/>
<path d="M271.45 269.105L205.222 304.021V345.867L271.45 310.951V269.105Z" fill="#5F2A6F"/>
<path d="M254.231 287.506L239.418 317.587C252.378 332.711 262.744 337.859 287.236 339.854L302.049 309.773C280.466 309.73 269.952 305.017 254.231 287.506Z" fill="url(#paint10_linear_147_3764)"/>
<path opacity="0.3" d="M246.44 318.3L255.75 300.456" stroke="black"/>
<path opacity="0.3" d="M249.335 324.144L258.646 306.299" stroke="black"/>
<path opacity="0.3" d="M259.667 329.237L269.914 311.686" stroke="black"/>
<path opacity="0.3" d="M281.517 336.301L286.614 325.975" stroke="black"/>
<path opacity="0.3" d="M270.293 333.395L278.972 314.941" stroke="black"/>
<path opacity="0.3" d="M274.974 334.864L283.653 316.41" stroke="black"/>
<path opacity="0.3" d="M248.04 321.064L259.757 298.835" stroke="black"/>
<path opacity="0.3" d="M252.46 325.33L264.177 303.1" stroke="black"/>
<path opacity="0.3" d="M261.844 329.509L274.813 307.878" stroke="black"/>
<path opacity="0.3" d="M273.091 333.656L284.176 310.817" stroke="black"/>
<path opacity="0.3" d="M277.794 336.366L288.879 313.527" stroke="black"/>
<path d="M135.835 339.068C145.167 339.068 152.732 331.507 152.732 322.18C152.732 312.854 145.167 305.293 135.835 305.293C126.503 305.293 118.938 312.854 118.938 322.18C118.938 331.507 126.503 339.068 135.835 339.068Z" fill="url(#paint11_radial_147_3764)"/>
<path d="M74.1764 320.768L73.9764 295.177L90.272 300.878L82.0211 329.456L74.1764 320.768Z" fill="#925252"/>
<path d="M82.1094 329.431L81.9136 303.525L107.05 302.209L107.284 328.113L82.1094 329.431Z" fill="#A5597E"/>
<path d="M73.964 295.181L81.9022 303.551L106.856 302.245L98.9181 293.875L73.964 295.181Z" fill="#5F2A6F"/>
<path d="M64.0722 352.441L52.946 327.63C71.018 335.342 81.4446 334.313 100.548 323.589L111.674 348.401C93.5762 357.043 83.173 358.198 64.0722 352.441Z" fill="url(#paint12_linear_147_3764)"/>
</g>
<defs>
<filter id="filter0_f_147_3764" x="255.694" y="235.956" width="245.248" height="121.606" filterUnits="userSpaceOnUse" color-interpolation-filters="sRGB">
<feFlood flood-opacity="0" result="BackgroundImageFix"/>
<feBlend mode="normal" in="SourceGraphic" in2="BackgroundImageFix" result="shape"/>
<feGaussianBlur stdDeviation="18" result="effect1_foregroundBlur_147_3764"/>
</filter>
<filter id="filter1_f_147_3764" x="158.058" y="-46.4468" width="244.207" height="279.041" filterUnits="userSpaceOnUse" color-interpolation-filters="sRGB">
<feFlood flood-opacity="0" result="BackgroundImageFix"/>
<feBlend mode="normal" in="SourceGraphic" in2="BackgroundImageFix" result="shape"/>
<feGaussianBlur stdDeviation="20" result="effect1_foregroundBlur_147_3764"/>
</filter>
<filter id="filter2_f_147_3764" x="171.166" y="71.3288" width="53.1453" height="58.3149" filterUnits="userSpaceOnUse" color-interpolation-filters="sRGB">
<feFlood flood-opacity="0" result="BackgroundImageFix"/>
<feBlend mode="normal" in="SourceGraphic" in2="BackgroundImageFix" result="shape"/>
<feGaussianBlur stdDeviation="6" result="effect1_foregroundBlur_147_3764"/>
</filter>
<filter id="filter3_f_147_3764" x="159.197" y="47.2264" width="37.5587" height="38.2437" filterUnits="userSpaceOnUse" color-interpolation-filters="sRGB">
<feFlood flood-opacity="0" result="BackgroundImageFix"/>
<feBlend mode="normal" in="SourceGraphic" in2="BackgroundImageFix" result="shape"/>
<feGaussianBlur stdDeviation="4" result="effect1_foregroundBlur_147_3764"/>
</filter>
<filter id="filter4_f_147_3764" x="42.8856" y="307.794" width="270.603" height="59.2582" filterUnits="userSpaceOnUse" color-interpolation-filters="sRGB">
<feFlood flood-opacity="0" result="BackgroundImageFix"/>
<feBlend mode="normal" in="SourceGraphic" in2="BackgroundImageFix" result="shape"/>
<feGaussianBlur stdDeviation="5" result="effect1_foregroundBlur_147_3764"/>
</filter>
<linearGradient id="paint0_linear_147_3764" x1="315.266" y1="181.743" x2="291.007" y2="280.799" gradientUnits="userSpaceOnUse">
<stop stop-color="#462656"/>
<stop offset="1" stop-color="#4B2357"/>
</linearGradient>
<linearGradient id="paint1_linear_147_3764" x1="291.394" y1="231.902" x2="408.017" y2="309.272" gradientUnits="userSpaceOnUse">
<stop stop-color="#4C5D7F"/>
<stop offset="1" stop-color="#4C426D"/>
</linearGradient>
<linearGradient id="paint2_linear_147_3764" x1="160.48" y1="92.5569" x2="325.951" y2="179.905" gradientUnits="userSpaceOnUse">
<stop stop-color="#518EA3"/>
<stop offset="1" stop-color="#4E6687"/>
</linearGradient>
<linearGradient id="paint3_linear_147_3764" x1="244.23" y1="193.594" x2="283.462" y2="184.843" gradientUnits="userSpaceOnUse">
<stop stop-color="#EFE8CD"/>
<stop offset="1" stop-color="#D3CAAF"/>
</linearGradient>
<radialGradient id="paint4_radial_147_3764" cx="0" cy="0" r="1" gradientUnits="userSpaceOnUse" gradientTransform="translate(56.2459 241.147) rotate(124.838) scale(21.2154 20.4241)">
<stop stop-color="#E6DEC3"/>
<stop offset="0.563191" stop-color="#C5BB96"/>
<stop offset="1" stop-color="#9E9473"/>
</radialGradient>
<linearGradient id="paint5_linear_147_3764" x1="221.111" y1="260.689" x2="183.828" y2="254.257" gradientUnits="userSpaceOnUse">
<stop stop-color="#F69279"/>
<stop offset="1" stop-color="#D06868"/>
</linearGradient>
<radialGradient id="paint6_radial_147_3764" cx="0" cy="0" r="1" gradientUnits="userSpaceOnUse" gradientTransform="translate(56.2459 241.147) rotate(124.838) scale(21.2154 20.4241)">
<stop stop-color="#E6DEC3"/>
<stop offset="0.563191" stop-color="#C5BB96"/>
<stop offset="1" stop-color="#9E9473"/>
</radialGradient>
<linearGradient id="paint7_linear_147_3764" x1="254.27" y1="266.658" x2="239.464" y2="286.029" gradientUnits="userSpaceOnUse">
<stop stop-color="#5DA7B5"/>
<stop offset="1" stop-color="#518EA3"/>
</linearGradient>
<radialGradient id="paint8_radial_147_3764" cx="0" cy="0" r="1" gradientUnits="userSpaceOnUse" gradientTransform="translate(16.5257 320.398) rotate(124.838) scale(21.2154 20.4241)">
<stop stop-color="#E6DEC3"/>
<stop offset="0.563191" stop-color="#C5BB96"/>
<stop offset="1" stop-color="#9E9473"/>
</radialGradient>
<radialGradient id="paint9_radial_147_3764" cx="0" cy="0" r="1" gradientUnits="userSpaceOnUse" gradientTransform="translate(17.5224 274.605) rotate(124.838) scale(21.2154 20.4241)">
<stop stop-color="#E6DEC3"/>
<stop offset="0.563191" stop-color="#C5BB96"/>
<stop offset="1" stop-color="#9E9473"/>
</radialGradient>
<linearGradient id="paint10_linear_147_3764" x1="270.496" y1="318.537" x2="248.158" y2="288.018" gradientUnits="userSpaceOnUse">
<stop stop-color="#F69279"/>
<stop offset="1" stop-color="#D06868"/>
</linearGradient>
<radialGradient id="paint11_radial_147_3764" cx="0" cy="0" r="1" gradientUnits="userSpaceOnUse" gradientTransform="translate(40.2821 204.936) rotate(124.838) scale(21.2154 20.4241)">
<stop stop-color="#E6DEC3"/>
<stop offset="0.563191" stop-color="#C5BB96"/>
<stop offset="1" stop-color="#9E9473"/>
</radialGradient>
<linearGradient id="paint12_linear_147_3764" x1="82.9167" y1="341.063" x2="101.619" y2="340.148" gradientUnits="userSpaceOnUse">
<stop stop-color="#5DA7B5"/>
<stop offset="1" stop-color="#518EA3"/>
</linearGradient>
<clipPath id="clip0_147_3764">
<rect width="535" height="361" fill="white"/>
</clipPath>
</defs>
</svg>
