<svg xmlns="http://www.w3.org/2000/svg" width="20" height="20" fill="currentColor" viewBox="0 0 20 20">
  <path fill-rule="evenodd" d="M9.606 2.08a1 1 0 0 1 .788 0l7 3a1 1 0 0 1 0 1.84l-7 3a1 1 0 0 1-.788 0l-1.94-.832 2.728-1.169a1 1 0 0 0-.788-1.838l-4 1.714a.999.999 0 0 0-.356.257L2.606 6.92a1 1 0 0 1 0-1.838l7-3ZM5 10.122l-1.69-.724a11.024 11.024 0 0 0-.25 3.762 1 1 0 0 0 .89.89c.357.038.707.096 1.05.174V17a1 1 0 1 0 2 0v-2.065a9.026 9.026 0 0 1 2.3 1.638 1 1 0 0 0 1.4 0 8.968 8.968 0 0 1 5.35-2.524 1 1 0 0 0 .89-.89 11.137 11.137 0 0 0-.25-3.762l-5.508 2.36a3 3 0 0 1-2.364 0L7 10.978v3.957a8.935 8.935 0 0 0-2-.712V10.12Z" clip-rule="evenodd"/>
</svg>
