<svg width="28" height="33" xmlns="http://www.w3.org/2000/svg">
  <g fill="#5BA3B1" fill-rule="nonzero">
    <path d="M10.66 20.03a.33.33 0 00-.471-.036 2.567 2.567 0 01-.396.275 1.603 1.603 0 01-.821.209 1.58 1.58 0 01-1.324-.657 3.025 3.025 0 01-.493-1.834 3.477 3.477 0 01.143-1.041c.084-.282.217-.545.393-.778.156-.207.356-.375.585-.491a1.58 1.58 0 01.714-.173 1.49 1.49 0 01.713.173c.126.068.245.148.357.238.141.107.34.081.45-.059l.5-.62a.374.374 0 00-.043-.487 3.81 3.81 0 00-.714-.47 2.753 2.753 0 00-1.3-.3 3.485 3.485 0 00-1.355.27 3.178 3.178 0 00-1.128.793 3.91 3.91 0 00-.76 1.295 4.74 4.74 0 00-.29 1.709c-.005.577.093 1.15.29 1.69.163.463.42.884.753 1.237.316.32.694.57 1.11.734.429.17.885.256 1.345.253.811.027 1.6-.28 2.188-.855a.374.374 0 00.028-.477l-.474-.598zM15.317 17.5l-.964-.404-.435-.194a2.396 2.396 0 01-.357-.198.873.873 0 01-.243-.228.513.513 0 01-.085-.3.592.592 0 01.257-.514c.213-.135.463-.2.713-.183.28-.004.559.051.818.16.172.075.336.166.492.272a.326.326 0 00.443-.07l.464-.594a.352.352 0 00-.054-.487 3.432 3.432 0 00-2.163-.781 3.133 3.133 0 00-1.07.175 2.63 2.63 0 00-.846.492c-.232.202-.42.452-.553.733a2.106 2.106 0 00-.193.892c-.005.26.037.519.125.763.085.216.206.416.357.59.142.168.304.317.482.444.175.122.363.224.56.304l.978.426.442.198c.125.05.244.114.357.187a.696.696 0 01.218.231c.052.094.078.2.075.308a.656.656 0 01-.257.543 1.286 1.286 0 01-.789.202 2.292 2.292 0 01-.96-.228 3.666 3.666 0 01-.653-.385.322.322 0 00-.442.063l-.614.69a.374.374 0 00.05.498 3.77 3.77 0 001.038.594c.468.183.963.278 1.463.279.407.006.811-.06 1.196-.194.326-.116.628-.293.892-.521.476-.418.748-1.03.742-1.673a2.053 2.053 0 00-.385-1.313 2.626 2.626 0 00-1.1-.777zM22.754 14.136H21.74a.337.337 0 00-.324.257l-.821 3.334c-.107.425-.207.836-.3 1.236s-.189.807-.296 1.232h-.046a26.077 26.077 0 01-.307-1.232c-.09-.396-.19-.81-.304-1.236l-.831-3.334a.338.338 0 00-.31-.257H17.13a.329.329 0 00-.267.138.349.349 0 00-.05.302l2.062 7.02a.333.333 0 00.317.243h1.506c.149 0 .28-.1.322-.246l2.052-7.017a.349.349 0 00-.051-.302.329.329 0 00-.267-.138z"/>
    <path d="M27.211 7.464L21.473 1.01A2.99 2.99 0 0019.25 0H3.026A2.974 2.974 0 00.888.903 3.143 3.143 0 000 3.096v26.812C.002 31.616 1.35 33 3.012 33h21.969c.8.002 1.567-.323 2.133-.903A3.14 3.14 0 0028 29.908V9.551a3.125 3.125 0 00-.789-2.087zm-1.902.917h-3.697c-.554 0-1.003-.461-1.003-1.03V3.095l4.7 5.285zm-.328 22.569H3.026a.99.99 0 01-.715-.305 1.046 1.046 0 01-.291-.737V3.096c0-.274.106-.537.295-.73a.99.99 0 01.711-.3H18.6V7.35c.004 1.708 1.35 3.09 3.012 3.093h4.382v19.465c.003.277-.103.544-.293.74a.99.99 0 01-.72.302z"/>
  </g>
</svg>
