<?xml version="1.0" encoding="UTF-8"?>
<svg xmlns="http://www.w3.org/2000/svg" xmlns:xlink="http://www.w3.org/1999/xlink" width="20px" height="20px" viewBox="0 0 20 20" version="1.1">
<g id="surface1">
<path style=" stroke:none;fill-rule:evenodd;fill:rgb(15.294118%,15.294118%,15.686275%);fill-opacity:1;" d="M 3.972656 0 C 2.988281 0 2.1875 0.800781 2.1875 1.785156 L 2.1875 3.398438 C 1.324219 3.976562 0.757812 4.957031 0.757812 6.070312 C 0.757812 7.1875 1.324219 8.167969 2.1875 8.746094 L 2.1875 18.214844 C 2.1875 19.199219 2.988281 20 3.972656 20 C 4.960938 20 5.757812 19.199219 5.757812 18.214844 L 5.757812 8.746094 C 6.621094 8.167969 7.1875 7.1875 7.1875 6.070312 C 7.1875 4.957031 6.621094 3.976562 5.757812 3.398438 L 5.757812 1.785156 C 5.757812 0.800781 4.960938 0 3.972656 0 Z M 16.027344 0 C 15.039062 0 14.242188 0.800781 14.242188 1.785156 L 14.242188 10.542969 C 13.378906 11.117188 12.8125 12.101562 12.8125 13.214844 C 12.8125 14.328125 13.378906 15.3125 14.242188 15.886719 L 14.242188 18.214844 C 14.242188 19.199219 15.039062 20 16.027344 20 C 17.011719 20 17.8125 19.199219 17.8125 18.214844 L 17.8125 15.886719 C 18.675781 15.3125 19.242188 14.328125 19.242188 13.214844 C 19.242188 12.101562 18.675781 11.117188 17.8125 10.542969 L 17.8125 1.785156 C 17.8125 0.800781 17.011719 0 16.027344 0 Z M 16.027344 0 "/>
</g>
</svg>
