<svg xmlns="http://www.w3.org/2000/svg" width="20" height="20" fill="currentColor" viewBox="0 0 20 20">
  <path fill-rule="evenodd" d="M10 0c5.523 0 10 4.477 10 10s-4.477 10-10 10S0 15.523 0 10 4.477 0 10 0Zm0 2a8 8 0 1 0 0 16 8 8 0 0 0 0-16Zm0 5.8c.555 0 1.003-.157 1.344-.472.341-.315.512-.712.512-1.192 0-.459-.17-.835-.512-1.128-.341-.293-.79-.44-1.344-.44-.555 0-1.003.155-1.344.464-.341.31-.512.693-.512 1.152 0 .459.17.843.512 1.152.341.31.79.464 1.344.464Zm1.52 7.632V8.76H8.48v6.672h3.04Z" clip-rule="evenodd"/>
</svg>
