<svg xmlns="http://www.w3.org/2000/svg" width="20" height="20" fill="currentColor" viewBox="0 0 20 20">
  <path fill-rule="evenodd" d="M17.997 9.135a4.965 4.965 0 0 0-7.022-7.02l-.77.769-.079.088a1.155 1.155 0 0 0 .08 1.545l.087.079c.454.37 1.123.343 1.546-.08l.77-.769a2.656 2.656 0 0 1 3.755 3.755L12.9 10.966a2.111 2.111 0 0 1-2.986 0l-.088-.079a1.155 1.155 0 0 0-1.545 1.712 4.42 4.42 0 0 0 6.252 0l3.464-3.464Zm-15.994 1.73a4.965 4.965 0 0 0 7.022 7.02l.77-.769.079-.088a1.155 1.155 0 0 0-.08-1.545l-.087-.079a1.155 1.155 0 0 0-1.546.08l-.77.769a2.656 2.656 0 1 1-3.755-3.755L7.1 9.034a2.111 2.111 0 0 1 2.986 0l.088.079a1.155 1.155 0 0 0 1.545-1.712 4.42 4.42 0 0 0-6.252 0l-3.464 3.464Z" clip-rule="evenodd"/>
</svg>
