<svg xmlns="http://www.w3.org/2000/svg" width="20" height="20" fill="currentColor" viewBox="0 0 20 20">
  <path fill-rule="evenodd" d="M18.343 8.46a.75.75 0 0 1 .657.745v1.588a.75.75 0 0 1-.657.746l-1.3.163a.186.186 0 0 0-.158.137 7.044 7.044 0 0 1-.72 1.725.188.188 0 0 0 .015.209l.808 1.038a.75.75 0 0 1-.061.99l-1.125 1.125a.75.75 0 0 1-.99.061l-1.037-.806a.186.186 0 0 0-.21-.014c-.54.315-1.12.556-1.724.718a.189.189 0 0 0-.138.158l-.163 1.3a.75.75 0 0 1-.744.657H9.207a.75.75 0 0 1-.744-.657l-.162-1.3a.189.189 0 0 0-.139-.158 7.03 7.03 0 0 1-1.725-.718.187.187 0 0 0-.209.014l-1.037.806a.75.75 0 0 1-.99-.062L3.074 15.8a.75.75 0 0 1-.061-.99l.806-1.04a.188.188 0 0 0 .014-.209 7.047 7.047 0 0 1-.719-1.724.186.186 0 0 0-.158-.137l-1.3-.163A.75.75 0 0 1 1 10.793V9.205a.75.75 0 0 1 .658-.744l1.3-.164a.187.187 0 0 0 .157-.137 7.048 7.048 0 0 1 .72-1.725.188.188 0 0 0-.015-.21l-.808-1.034a.75.75 0 0 1 .061-.991l1.125-1.125a.75.75 0 0 1 .99-.062l1.039.807c.06.047.143.053.209.014a7.045 7.045 0 0 1 1.725-.718.189.189 0 0 0 .138-.158l.163-1.301A.75.75 0 0 1 9.206 1h1.588a.75.75 0 0 1 .744.658l.165 1.3c.01.076.064.138.138.158a7.044 7.044 0 0 1 1.725.718.188.188 0 0 0 .209-.014l1.034-.808a.75.75 0 0 1 .99.062L16.926 4.2a.75.75 0 0 1 .061.991l-.806 1.037a.188.188 0 0 0-.014.21c.315.54.557 1.12.719 1.724.02.074.082.128.157.138l1.301.162ZM10 14.5a4.5 4.5 0 1 0 0-9 4.5 4.5 0 0 0 0 9Z" clip-rule="evenodd"/>
</svg>
