<svg xmlns="http://www.w3.org/2000/svg" width="20" height="20" fill="currentColor" viewBox="0 0 20 20">
  <g clip-path="url(#a)">
    <path fill-rule="evenodd" d="M6.667 0A5 5 0 0 0 3.56 8.918a5.734 5.734 0 0 0-1.572.99C.718 11.039 0 12.745 0 15v5h9.167v-1.667h-7.5V15c0-1.887.588-3.098 1.43-3.848C3.954 10.388 5.19 10 6.666 10c1.33 0 2.365.33 3.208 1.05l1.083-1.267a5.773 5.773 0 0 0-1.247-.816A5 5 0 0 0 6.667 0Zm0 8.333a3.333 3.333 0 1 0 0-6.666 3.333 3.333 0 0 0 0 6.666Zm10.026 3.796a3.312 3.312 0 0 0-.86-.357V10h-1.666v1.772a3.31 3.31 0 0 0-.86.357l-1.253-1.253-1.179 1.178 1.254 1.254a3.317 3.317 0 0 0-.357.858H10v1.667h1.772c.079.306.2.594.357.86l-1.254 1.253 1.179 1.179 1.253-1.254c.265.157.554.278.86.357V20h1.667v-1.772c.305-.079.593-.2.858-.357l1.254 1.254 1.178-1.179-1.253-1.253a3.31 3.31 0 0 0 .357-.86H20v-1.667h-1.772a3.31 3.31 0 0 0-.357-.859l1.254-1.253-1.179-1.178-1.253 1.253ZM15 13.333A1.67 1.67 0 0 0 13.334 15 1.67 1.67 0 0 0 15 16.666 1.67 1.67 0 0 0 16.667 15 1.67 1.67 0 0 0 15 13.333Z" clip-rule="evenodd"/>
  </g>
  <defs>
    <clipPath id="a">
      <path d="M0 0h20v20H0z"/>
    </clipPath>
  </defs>
</svg>
