<svg xmlns="http://www.w3.org/2000/svg" width="20" height="20" fill="currentColor" viewBox="0 0 20 20">
  <path fill-rule="evenodd" d="M4.726 1.25c-.863 0-1.562.7-1.562 1.563v1.41a2.81 2.81 0 0 0-1.25 2.34 2.81 2.81 0 0 0 1.25 2.339v8.286a1.562 1.562 0 1 0 3.125 0V8.902a2.81 2.81 0 0 0 1.25-2.34 2.81 2.81 0 0 0-1.25-2.338V2.813c0-.863-.7-1.563-1.563-1.563Zm10.548 0c-.863 0-1.563.7-1.563 1.563v7.66a2.81 2.81 0 0 0-1.25 2.34 2.81 2.81 0 0 0 1.25 2.339v2.036a1.563 1.563 0 0 0 3.125 0v-2.036a2.81 2.81 0 0 0 1.25-2.34 2.81 2.81 0 0 0-1.25-2.338V2.813c0-.863-.7-1.563-1.562-1.563Z" clip-rule="evenodd"/>
</svg>
