<svg xmlns="http://www.w3.org/2000/svg" width="20" height="20" fill="currentColor" viewBox="0 0 20 20">
  <path fill-rule="evenodd" d="M2.439 16.001A1.5 1.5 0 1 1 2.56 19a1.5 1.5 0 0 1-.122-2.998ZM17.5 11.5c-.544 1.753-1.558 3.273-2.902 4.348C13.254 16.922 11.648 17.5 10 17.5c-1.648 0-3.254-.578-4.598-1.652C4.058 14.773 3.044 13.253 2.5 11.5c1.46 1.954 4.275 3.274 7.498 3.274s6.037-1.32 7.502-3.274ZM10 2.501c1.648 0 3.254.578 4.598 1.653C15.942 5.229 16.956 6.748 17.5 8.5c-1.461-1.954-4.275-3.274-7.498-3.274S3.965 6.551 2.5 8.501c.544-1.753 1.558-3.272 2.902-4.347C6.746 3.079 8.352 2.5 10 2.5Zm-7.74.356a.937.937 0 1 1-.645 1.76.937.937 0 0 1 .645-1.76Zm15.176-1.856a1.5 1.5 0 1 1 .128 2.997 1.5 1.5 0 0 1-.128-2.997Z" clip-rule="evenodd"/>
</svg>
