<svg xmlns="http://www.w3.org/2000/svg" width="20" height="20" fill="currentColor" viewBox="0 0 20 20">
  <path fill-rule="evenodd" d="M0 0h20v16.667h-5.833v1.666h1.666V20H4.167v-1.667h1.666v-1.666H0V0Zm5.833 15h12.5V1.667H1.667V15h4.166ZM7.5 16.667v1.666h5v-1.666h-5Zm6.485-13.36c-.954-.81-1.859-1.066-2.703-.925-.909.152-1.622.75-2.136 1.264l-.5.5-.353.354.353.354.897.896-1.397 1.396.708.708 1.396-1.397 1.293 1.293-1.397 1.396.708.708 1.396-1.397.896.897.354.353.354-.353.5-.5c.513-.514 1.118-1.233 1.274-2.145.145-.847-.112-1.753-.932-2.698l1.158-1.157-.708-.708-1.161 1.162Zm-9.603 5.97c-.142.843.116 1.748.927 2.708l-1.163 1.162.708.708 1.156-1.156c.945.826 1.852 1.084 2.7.936.912-.159 1.631-.768 2.144-1.28l.5-.5.353-.354-.353-.354-4.5-4.5-.354-.353-.354.353-.5.5c-.512.513-1.112 1.222-1.264 2.13Zm5.472-4.922c.486-.486 1.01-.888 1.594-.986.542-.09 1.264.063 2.2.988.935.922 1.087 1.641.994 2.185-.1.588-.51 1.12-.996 1.605l-.146.147L9.707 4.5l.147-.146ZM6.5 7.707l-.146.147c-.488.487-.888 1.006-.986 1.587-.09.54.063 1.262.99 2.21.921.941 1.64 1.092 2.181.998.589-.102 1.12-.515 1.607-1.003l.147-.146L6.5 7.707Z" clip-rule="evenodd"/>
</svg>
