<svg xmlns="http://www.w3.org/2000/svg" width="20" height="20" fill="currentColor" viewBox="0 0 20 20">
  <g clip-path="url(#a)">
    <path fill-rule="evenodd" d="M10 20c5.523 0 10-4.477 10-10S15.523 0 10 0 0 4.477 0 10s4.477 10 10 10ZM9.941 6.003h-.44v7.953h2.85c.938 0 1.712-.173 2.32-.517a3.27 3.27 0 0 0 1.359-1.42c.297-.604.445-1.294.445-2.067 0-.752-.143-1.417-.429-1.997-.286-.58-.733-1.04-1.342-1.38-.605-.341-1.386-.528-2.343-.561a17.321 17.321 0 0 0-.698-.011 37.393 37.393 0 0 0-.908 0h-.814Zm1.7 6.27V7.686h.775c.363 0 .682.084.957.253.275.168.488.42.638.753.154.33.231.74.231 1.227 0 .575-.097 1.036-.291 1.38-.19.345-.427.594-.71.748-.278.15-.553.226-.825.226h-.775Zm-4.606 1.683V8.269H5v5.687h2.035Zm0-6.15V6.004H5v1.804h2.035Z" clip-rule="evenodd"/>
  </g>
  <defs>
    <clipPath id="a">
      <path d="M0 0h20v20H0z"/>
    </clipPath>
  </defs>
</svg>
