<svg xmlns="http://www.w3.org/2000/svg" width="20" height="20" fill="currentColor" viewBox="0 0 20 20">
  <path fill="#4FAEC0" fill-rule="evenodd" d="M2.438 1.5c-1.14 0-2.063.923-2.063 2.063v12.375c0 1.139.923 2.062 2.063 2.062h15.125a2.062 2.062 0 0 0 2.062-2.063V5.626c0-1.14-.923-2.062-2.063-2.062h-7.74a.687.687 0 0 1-.448-.166l-1.634-1.4A2.062 2.062 0 0 0 6.398 1.5h-3.96Zm4.125 8.938c0-.38.307-.688.687-.688h2.063V7.688a.688.688 0 0 1 1.374 0V9.75h2.063a.687.687 0 1 1 0 1.375h-2.063v2.063a.688.688 0 0 1-1.374 0v-2.063H7.25a.688.688 0 0 1-.687-.688Z" clip-rule="evenodd"/>
</svg>
