<svg xmlns="http://www.w3.org/2000/svg" width="20" height="20" fill="currentColor" viewBox="0 0 20 20">
  <g clip-path="url(#a)">
    <path fill-rule="evenodd" d="M10 .833a9.167 9.167 0 1 0 0 18.334A9.167 9.167 0 0 0 10 .833ZM2.5 10a7.5 7.5 0 1 1 15 0 7.5 7.5 0 0 1-15 0Zm8.333-4.167a.833.833 0 0 0-1.666 0V10c0 .262.123.51.333.667l3.333 2.5a.833.833 0 1 0 1-1.334l-3-2.25v-3.75Z" clip-rule="evenodd"/>
  </g>
  <defs>
    <clipPath id="a">
      <path d="M0 0h20v20H0z"/>
    </clipPath>
  </defs>
</svg>
