<svg xmlns="http://www.w3.org/2000/svg" width="20" height="20" fill="currentColor" viewBox="0 0 20 20">
  <g clip-path="url(#a)">
    <path fill-rule="evenodd" d="M12.137.636c1.407-.235 2.914.193 4.505 1.544L18.577.244l1.179 1.179-1.93 1.929c1.368 1.575 1.795 3.084 1.554 4.497-.26 1.52-1.268 2.717-2.124 3.574l-.833.833-.59.59-.589-.59-1.494-1.494-2.327 2.327-1.179-1.178 2.328-2.328-2.155-2.154-2.328 2.327-1.178-1.179L9.238 6.25 7.744 4.756l-.59-.59.59-.589.833-.833c.857-.857 2.045-1.854 3.56-2.108ZM2.182 16.64C.83 15.04.4 13.53.637 12.126c.254-1.513 1.252-2.694 2.107-3.549l.833-.833.59-.59.589.59 7.5 7.5.59.59-.59.589-.833.833c-.854.854-2.052 1.87-3.572 2.134-1.415.246-2.926-.183-4.502-1.56l-1.926 1.926-1.179-1.179 1.938-1.937Zm10.23-14.36c-.973.163-1.846.833-2.656 1.643l-.244.244 6.321 6.321.244-.244c.811-.81 1.492-1.696 1.66-2.676.155-.906-.099-2.105-1.656-3.642-1.561-1.54-2.765-1.797-3.668-1.646Zm-8.49 7.476.245-.244 6.321 6.321-.244.244c-.813.813-1.698 1.5-2.678 1.671-.903.157-2.1-.094-3.637-1.664-1.544-1.578-1.8-2.782-1.649-3.682.163-.968.83-1.834 1.643-2.646Z" clip-rule="evenodd"/>
  </g>
  <defs>
    <clipPath id="a">
      <path d="M0 0h20v20H0z"/>
    </clipPath>
  </defs>
</svg>
