<svg xmlns="http://www.w3.org/2000/svg" width="20" height="20" fill="currentColor" viewBox="0 0 20 20">
  <g clip-path="url(#a)">
    <path fill-rule="evenodd" d="M13.333 3.167h3.822l-6.322 6.321-3.577-3.577-.59-.59-.589.59-5.833 5.833 1.179 1.179 5.244-5.244 3.577 3.577.59.59.589-.59 6.91-6.91v3.82H20V1.5h-6.667v1.667ZM18 13.647c.442 0 .8-.369.8-.824A.812.812 0 0 0 18 12c-.442 0-.8.369-.8.823a.84.84 0 0 0 .1.401l-.775.959a1.168 1.168 0 0 0-.525-.124c-.663 0-1.2.553-1.2 1.235v.003l-1.346.347a.793.793 0 0 0-.654-.35c-.442 0-.8.369-.8.824 0 .455.358.823.8.823.442 0 .8-.368.8-.823a.844.844 0 0 0-.032-.232l1.26-.324a1.21 1.21 0 0 0 1.172.967c.343 0 .652-.148.87-.385l.923.949a1.256 1.256 0 0 0-.193.672c0 .682.537 1.235 1.2 1.235.663 0 1.2-.553 1.2-1.235 0-.683-.537-1.236-1.2-1.236-.33 0-.628.137-.845.358l-.927-.954a1.264 1.264 0 0 0-.285-1.609l.72-.89c.142.133.33.213.537.213Z" clip-rule="evenodd"/>
  </g>
  <defs>
    <clipPath id="a">
      <path d="M0 0h20v20H0z"/>
    </clipPath>
  </defs>
</svg>
