<svg xmlns="http://www.w3.org/2000/svg" width="21" height="21" fill="currentColor" viewBox="0 0 21 21">
  <path fill-rule="evenodd" d="M3.398.25h14.594a2.258 2.258 0 0 1 2.258 2.258v15.484a2.258 2.258 0 0 1-2.258 2.258H2.508A2.258 2.258 0 0 1 .25 17.992V3.398l.283-.284L3.114.534 3.398.25Zm.801 1.935L2.185 4.2v13.793c0 .178.145.322.323.322h1.936v-5.483c0-1.07.866-1.936 1.935-1.936h7.742c1.069 0 1.935.867 1.935 1.936v5.483h1.936a.323.323 0 0 0 .322-.322V2.508a.323.323 0 0 0-.322-.323h-1.936V5.09a1.936 1.936 0 0 1-1.935 1.935H8.96A1.935 1.935 0 0 1 7.024 5.09V2.185H4.2Zm10.567 16.13V12.83a.645.645 0 0 0-.645-.646H6.379a.645.645 0 0 0-.645.646v5.483h9.032ZM8.315 2.184h6.451V5.09a.645.645 0 0 1-.645.645H8.96a.645.645 0 0 1-.645-.645V2.185Z" clip-rule="evenodd"/>
</svg>
