<svg xmlns="http://www.w3.org/2000/svg"  width="20" height="20" fill="currentColor" viewBox="0 0 20 20">
  <path fill-rule="evenodd" d="M10 20c5.523 0 10-4.477 10-10S15.523 0 10 0 0 4.477 0 10s4.477 10 10 10Zm-1.312-8.723a3.521 3.521 0 0 0-.237 1.336h3.256c0-.388.086-.726.259-1.013a4.54 4.54 0 0 1 .69-.82c.273-.258.56-.524.862-.797a8.48 8.48 0 0 0 .884-.884c.274-.317.497-.69.669-1.122.172-.431.259-.927.259-1.488 0-.862-.237-1.588-.712-2.178-.46-.589-1.1-1.035-1.919-1.337-.82-.316-1.768-.474-2.846-.474-1.452 0-2.689.266-3.71.798-1.02.517-1.818 1.215-2.393 2.092l2.61 1.53a3.53 3.53 0 0 1 1.315-1.164c.532-.287 1.135-.431 1.811-.431.704 0 1.265.158 1.682.474.431.317.647.733.647 1.251 0 .316-.086.604-.259.863-.158.258-.366.51-.625.754-.245.23-.51.475-.798.733-.288.26-.56.54-.82.841a4.61 4.61 0 0 0-.625 1.036Zm-.086 6.167c.388.388.884.582 1.488.582.618 0 1.114-.194 1.488-.582.388-.388.582-.848.582-1.38 0-.547-.194-1-.582-1.359-.374-.374-.87-.56-1.488-.56-.604 0-1.1.186-1.488.56-.388.36-.582.812-.582 1.359 0 .532.194.992.582 1.38Z" clip-rule="evenodd" />
</svg>