<svg xmlns="http://www.w3.org/2000/svg" width="20" height="20" fill="currentColor" viewBox="0 0 20 20">
  <path fill-rule="evenodd" d="M13.993 1.883A1 1 0 0 0 13 1H7l-.117.007A1 1 0 0 0 6 2v2H1.5v2h1.101l1.291 12.106.02.115a1 1 0 0 0 .975.779h10.17l.116-.007a1 1 0 0 0 .878-.883L17.395 6H18.5V4H14V2l-.007-.117ZM12 4V3H8v1h4ZM4.612 6h10.77l-1.22 11H5.786L4.612 6ZM8 7.75a.75.75 0 0 1 .743.648l.007.102v6a.75.75 0 0 1-1.493.102L7.25 14.5v-6A.75.75 0 0 1 8 7.75Zm4.743.648a.75.75 0 0 0-1.493.102v6l.007.102a.75.75 0 0 0 1.493-.102v-6l-.007-.102Z" clip-rule="evenodd"/>
</svg>
