<svg xmlns="http://www.w3.org/2000/svg" width="20" height="20" fill="currentColor" viewBox="0 0 20 20">
  <path fill-rule="evenodd" d="M.249 3.199a1.005 1.005 0 0 1 1.2 0l5.343 4.274 4.266-3.413a.975.975 0 0 1 .644-.198.94.94 0 0 1 .616.25c1.915 1.89 3.403 4.103 4.315 6.57l1.783-2.47c.234-.325.753-.436 1.16-.249.405.188.545.603.31.928l-2.801 3.882c-.235.325-.754.436-1.16.248l-4.853-2.24c-.405-.188-.545-.604-.31-.929.234-.324.753-.436 1.16-.248l3.066 1.416c-.754-2.018-1.923-3.85-3.41-5.455L7.392 8.914a.967.967 0 0 1-.6.199.967.967 0 0 1-.6-.2L.249 4.16c-.332-.265-.332-.695 0-.96Z" clip-rule="evenodd"/>
</svg>
