<svg width="20" height="20" viewBox="0 0 20 20" fill="current-color" xmlns="http://www.w3.org/2000/svg">
    <path fill-rule="evenodd" clip-rule="evenodd" d="M9.99999 0.833332C6.77833 0.833332 4.16666 3.445 4.16666 6.66667C4.16666 8.5547 5.06363 10.2332 6.45469 11.2994C5.63304 11.5417 4.87478 11.8853 4.2121 12.3456C2.62291 13.4494 1.66666 15.1693 1.66666 17.5V20H3.33332V17.5C3.33332 15.6885 4.04374 14.4918 5.16288 13.7145C6.32565 12.9068 8.01014 12.5 9.99999 12.5C11.992 12.5 13.6762 12.9015 14.8381 13.706C15.9553 14.4794 16.6667 15.6749 16.6667 17.5V20H18.3333V17.5C18.3333 15.1584 17.3781 13.4373 15.7868 12.3357C15.1254 11.8777 14.3688 11.5367 13.5493 11.2963C14.9381 10.23 15.8333 8.55287 15.8333 6.66667C15.8333 3.445 13.2217 0.833332 9.99999 0.833332ZM9.99999 10.8333C12.3012 10.8333 14.1667 8.96785 14.1667 6.66667C14.1667 4.36548 12.3012 2.5 9.99999 2.5C7.6988 2.5 5.83332 4.36548 5.83332 6.66667C5.83332 8.96785 7.6988 10.8333 9.99999 10.8333Z"/>
</svg>
