<svg xmlns="http://www.w3.org/2000/svg" width="20" height="20" fill="currentColor" viewBox="0 0 20 20">
  <path fill-rule="evenodd" d="M7 3.4H5.097L8.65 6.951 6.95 8.65 3.4 5.097v2.027H1V2.2a1.2 1.2 0 0 1 1.084-1.195L2.2 1H7v2.4Zm9.6 1.697V7H19V2.2l-.006-.116A1.2 1.2 0 0 0 17.8 1h-4.924v2.4h2.027L11.35 6.951l1.697 1.698L16.6 5.097ZM13 16.6h1.903l-3.552-3.552 1.697-1.697 3.552 3.552v-2.027H19V17.8a1.2 1.2 0 0 1-1.084 1.194L17.8 19H13v-2.4ZM3.4 13v1.903l3.551-3.552 1.698 1.697L5.097 16.6h2.027V19H2.2a1.2 1.2 0 0 1-1.195-1.084L1 17.8V13h2.4Z" clip-rule="evenodd"/>
</svg>
