<svg xmlns="http://www.w3.org/2000/svg" width="20" height="20" fill="currentColor" viewBox="0 0 20 20">
  <path fill-rule="evenodd" d="M2.99 1a1 1 0 0 0-1 1v16a1 1 0 0 0 1 1h1a1 1 0 0 0 1-1V2a1 1 0 0 0-1-1h-1Zm8.823 1.068L10.761 1 8.224 3.5l-.075.085a.75.75 0 0 0 .076.985l2.537 2.487 1.05-1.072-.976-.957H11l.215.006C13.858 5.166 16 7.357 16 10h2l-.004-.238c-.128-3.712-3.23-6.706-6.989-6.734h-.168l.974-.96ZM10.128 18l-1-.001.002-2 .999.001-.001 2Zm1.125-.007a7.097 7.097 0 0 0 1.153-.16l-.436-1.952c-.272.06-.549.1-.828.115l.11 1.997Zm3.387-1.072a7.268 7.268 0 0 1-1.03.53l-.77-1.846c.258-.108.508-.237.747-.385l1.053 1.7Zm.915-.67a7.23 7.23 0 0 0 .817-.825l-1.529-1.289c-.18.213-.378.413-.59.596l1.303 1.517Zm2.032-2.905c-.135.366-.302.72-.498 1.06l-1.732-1a4.86 4.86 0 0 0 .353-.751l1.877.691ZM18 11.032c0 .395-.035.786-.103 1.171l-1.97-.35a4.59 4.59 0 0 0 .073-.821h2Z" clip-rule="evenodd"/>
</svg>
