<svg xmlns="http://www.w3.org/2000/svg" width="1219" height="823" fill="none" viewBox="0 0 1219 823">
  <g id="pachyderm-error__Pachyderm Error" clip-path="url(#pachyderm-error__clip0_0_2)">
    <g id="pachyderm-error__Oval" filter="url(#pachyderm-error__filter0_f_0_2)">
      <ellipse cx="862" cy="676.546" fill="#000" fill-opacity=".14" rx="197.373" ry="56.545"/>
    </g>
    <path id="pachyderm-error__Line" stroke="#000" stroke-linecap="square" stroke-width="2" d="m803.5 315.5 4 24"/>
    <g id="pachyderm-error__Group 2">
      <g id="pachyderm-error__Group 5 Copy">
        <path id="pachyderm-error__Path" fill="#4B2357" d="M768.2 456.6s-23.2 89.3-26.3 115.6c-1.3 10.3 6.7 70.1 9.3 81 4 17 13.1 24.6-13.1 32.1-32 9-48.1 9.7-44.6-19.3s-18.8-65-4-112.9c7-22.1-.2-116.8-10.9-151.5.6-12.8 84.6 29.6 84.6 29.6l5 25.4Z"/>
        <path id="pachyderm-error__Path_2" fill="url(#pachyderm-error__paint0_linear_0_2)" d="M784.877 466.639s-33.853 85.777-40.242 111.431c-2.533 10.059-1.868 70.431-.593 81.562 1.923 17.399 10.006 26.027-16.933 30.191-32.774 5.176-48.957 3.781-41.89-24.442 6.95-28.414-10.864-66.808 9.825-112.585 9.488-21.208 1.476-133.436-4.967-169.211 2.107-12.632 92.932 57.118 92.932 57.118l1.859 25.836.009.1Z"/>
        <path id="pachyderm-error__Path_3" fill="#4B2357" d="M998.756 529.291c-3.363 2.109-11.002-9.847-14.025-6.798-12.403 12.521-6.056 75.216-9.295 97.44-1.045 7.523-8.725 21.697-17.351 20.838-9.927-1.048-18.216 1.437-25.56-2.586-15.999-8.552-19.547-.424-12.025-24.685.727-7.74-1.281-28.885-4.5-48-5.405-32.094-11.191-68.234 8.986-96.931 14.814-21.09 141.084-25.044 124.704 11.775-16.38 36.82-17.16 27.065-50.934 48.947Z"/>
        <path id="pachyderm-error__Path_4" fill="#D3CBAF" d="M551.591 476.195c20.378-9.742 33.53-28.52 42.168-35.851 10.821-9.209 24.033 3.26 27.638 5.83-6.109 9.991-22.797 28.753-42.428 37.765-33.466 15.408-85.931 9.193-86.585 5.629l.097-.175c.366-3.342 37.731-3.095 59.11-13.198Z"/>
        <path id="pachyderm-error__Path_5" fill="#4C3D6A" d="M1112.9 467.5c-2.6-9-13.4-84.7-18.4-121.5l-6.2 32.3 16 78.1c4.4 22-1 36.1 2 50.4 2.3 11.5 9 17 12 18.3l-2.5-12.2 3.1 7.8 6.6 8.8-5.2-25.8 5 11.9c1.1-13.2-9.9-39.1-12.4-48.1Z"/>
        <g id="pachyderm-error__Group">
          <g id="pachyderm-error__h-link">
            <path id="pachyderm-error__h" fill="url(#pachyderm-error__paint1_linear_0_2)" d="M699.395 273.13s37.249 11.711 68.554 2.194c8.56-2.535 19.289-7.371 31.323-11.36 12.25-3.933 33.146-3.263 42.501-4.945 63.31-11.412 140.436-5.928 199.797 24.699 59.25 30.55 52.9 63.184 58.84 89.727 6 26.739 12.51 63.18-9.92 97.596-7.11 10.814-15.77 27.664-24.71 61.565-9.15 33.943-.99 46.854.22 69.394.61 9.424-.2 34.485 0 44.5.15 7.564 6.45 9.19 0 16.5-10.85 12.236-34.44 9.431-52.5 5.5-11.32-2.464-18.113-2.468-25.5-8.5-6.556-5.354 8.678-16.781 5.5-25-8.401-21.728-1.875-44.697-5.378-71.76l-4.187-31.723s-45.472 18.866-81.588 14.888c-36.095-3.88-54.182-13.939-54.182-13.939l-22.261 39.082-1.95.926s1.622 7.629 2.466 54.887c12.622 74.24 20.015 73.705-5.92 76.139-3.154.296-12.23 9.635-21 10.5-8.13.802-15.916-6.936-20.5-5-37.561 7.984-5.983-51.989-9.737-62.436-7.737-21.972-14.041-32.389-12.703-59.765.656-12.305-11.105-84.948-11.105-84.948s-24.208-11.927-36.767-15.698c-12.538-3.674-42.57-105.045-42.57-105.045l89.671.057-56.394-108.035Z"/>
          </g>
          <g id="pachyderm-error__Clipped">
            <mask id="pachyderm-error__mask0_0_2" width="441" height="430" x="666" y="253" maskUnits="userSpaceOnUse" style="mask-type:alpha">
              <path id="pachyderm-error__h_2" fill="#fff" fill-rule="evenodd" d="M699.395 273.13s37.249 11.711 68.554 2.194c8.56-2.535 19.289-7.371 31.323-11.36 12.25-3.933 33.146-3.263 42.501-4.945 63.31-11.412 140.436-5.928 199.797 24.699 59.25 30.55 52.9 63.184 58.84 89.727 6 26.739 12.51 63.18-9.92 97.596-7.11 10.814-.77 27.664-9.71 61.565-9.15 33.943-10.31 55.963-9.1 78.503 1.07 16.541 6.82 26.402-8.18 43.391-17.65 19.904-39.58 21.456-58.75 5.801-6.557-5.354-.08-16.749-3.26-24.968-8.404-21.728-9.865-45.03-13.368-72.093l-4.187-31.723s-45.472 18.866-81.588 14.888c-36.095-3.88-54.182-13.939-54.182-13.939l-22.261 39.082-1.95.926s1.622 7.629 2.466 54.887c-9.603 41.401 20.618 33.034-29.571 54.233-37.561 7.984-23.832-24.583-27.586-35.03-7.737-21.972-14.041-32.389-12.703-59.765.656-12.305-11.105-84.948-11.105-84.948s-24.208-11.927-36.767-15.698c-12.538-3.674-42.57-105.045-42.57-105.045l89.671.057-56.394-108.035Z" clip-rule="evenodd"/>
            </mask>
            <g mask="url(#pachyderm-error__mask0_0_2)">
              <g id="pachyderm-error__Group_2">
                <path id="pachyderm-error__Path_6" fill="#4C3D6A" d="m983.226 537.802 2.664-44.221c1.063-17.605 5.502-36.644 5.502-36.644s-18.847 65.244-46.972 68.564c-28.026 3.299-50.319-5.866-59.311-16.427-8.992-10.562-10.583-49.788-24.492-72.901-13.833-23.232-23.45-18.939-23.45-18.939s24.782 7.41 19.009 60.572c-5.676 53.141-10.701 59.321-10.701 59.321l58.448 35.933 79.303-35.258Z"/>
                <path id="pachyderm-error__Path_7" fill="#4F6486" d="M793.451 430.411s50.507-48.562 107.07-55.166c56.444-6.682 54.049 1.29 72.147 17.175a73.495 73.495 0 0 1 22.696 36.069s14.826-37.502 32.516-68.253c17.68-30.848 53.31-39.24 72.52-5.6 19.2 33.543-3.07-126.526-3.07-126.526l-368.509 78.125 64.651 124.274-.021-.098Z" opacity=".5"/>
                <path id="pachyderm-error__Path_8" fill="#4F728F" d="M736.153 281.572s20.399 81.54 41.052 89.725c30.942 12.337 106.22-47.625 126.939-45.384 51.946 5.827 57.23 29.241 76.825 18.021 19.671-11.338 9.37-44.418 61.931-46.287 52.48-1.75 80.78 44.784 80.78 44.784l-28.38-130.143s-117.187-7.807-180.898 4.61c-63.654 12.201-178.249 64.674-178.249 64.674Z" opacity=".5"/>
                <path id="pachyderm-error__Path_9" fill="#507E98" d="M788.279 369.046c3.78-.497 42.903-57.885 88.864-68.677 19.752-4.71 48.552-15.432 70.206-3.984 24.772 13.137 14.539 13.574 30.518 1.692 18.314-13.4 46.853-15.274 6.541-31.754-43.42-17.658-150.97-26.797-150.97-26.797l-192.162 5.472S782.796 369.7 788.279 369.046Z" opacity=".4"/>
                <path id="pachyderm-error__Path_10" fill="#4C3D6A" d="M745.455 501.851c8.568-11.635 17.764-124.207 17.764-124.207l-120.534 3.844s16.444 95.161 36.317 102.08c27.377 9.516 63.212 22.755 66.551 18.262l-.098.021Z"/>
                <g id="pachyderm-error__Group_3">
                  <g id="pachyderm-error__l-link">
                    <g id="pachyderm-error__l" filter="url(#pachyderm-error__filter1_f_0_2)">
                      <path fill="#4C3D6A" d="M496.627 10.325c-3.33 15.432 33.247 56.784 23.72 92.884-9.576 36.013-52.955 49.28-64.009 98.732-11.055 49.453-4.634 84.775 24.682 133.552 29.23 48.827 34.372 56.134 91.049 82.301 9.396 4.275-4.696 15.067 3.304 17.723 21.591 7.395 48.913 1.32 70.547-1.009 18.523-1.918 32.066.54 45.268-1.194 34.586-4.495 56.216-30.031 56.216-30.031s29.7 9.642 54.368 6.369c14.009-1.737-17.713-.281-1.792-20.905 20.424-26.225 34.922-68.313 18.033-106.366-22.954-51.757-57.095-30.891-82.269-35.294-17.565-3.023-23.007-30.249-49.863-33.566-18.194-2.313-12.674-13.351-31.852-8.168-42.283 11.364-97.626 92.506-97.626 92.506s-49.745-37.559-40.581-74.489c9.113-37.015 49.126-62.311 54.378-108.413C575.589 68.89 552.656-.43 546.939-11.333c-5.754-10.765-16.265 7.428-29.303 12.646-13.038 5.218-17.729-6.507-21.095 9.062l.086-.05Z"/>
                    </g>
                  </g>
                </g>
                <path id="pachyderm-error__Path_11" fill="#4C3D6A" d="M841.72 544.468s-11.109 18.923-24.622 14.026c-13.318-4.939 12.204 57.417 12.204 57.417s.429-10.008-6.703-43.558c17.845 4.59 19.1-27.983 19.1-27.983l.021.098Z"/>
              </g>
            </g>
          </g>
        </g>
        <g id="pachyderm-error__Group_4">
          <path id="pachyderm-error__Path_12" fill="#4F7C96" d="M380.1 155.899c2.122 16.263 56.781 21.708 60.105 60.387 3.394 38.749-34.154 70.216-27.578 122.471 6.647 52.326 25.315 83.297 70.852 117.521 45.467 34.153 63.64 45.396 129.047 34.719 0 0-17.748 21.284-2.333 20.294 23.759-1.414 47.942-19.941 68.165-31.396 17.253-9.899 31.183-13.364 43.487-20.859 31.961-19.234 43.982-53.033 43.982-53.033s36.699 52.679 59.539 38.891c12.94-7.849-22.911-49.215-14.638-75.873 10.607-33.941 17.325-84.075-12.515-113.349-40.447-39.598-63.923-11.597-89.874-4.879-18.172 4.596-41.436-8.768-68.73-.283-18.385 5.657-57.488 18.173-70.57 53.033-13.01 34.79-7.141 54.094-8.98 78.277-.283 4.384-16.617 5.586-16.617 5.586s-61.377-14.425-65.478-53.882c-4.101-39.456 25.88-81.034 14.849-127.562-10.96-46.457-43.416-76.226-63.569-90.722-20.152-14.495-36.769 2.829-48.083 13.435-11.314 10.607-3.253 10.89-1.061 27.224Z"/>
          <path id="pachyderm-error__Path_13" fill="url(#pachyderm-error__paint2_linear_0_2)" d="M378.647 178.584c2.277 16.256 58.197-.998 61.559 37.754 3.362 38.752-34.15 70.139-27.511 122.482 6.561 52.28 25.243 83.236 70.785 117.412 45.463 34.114 63.575 45.435 129.076 34.782 0 0-17.821 21.212-2.416 20.304 23.809-1.436 47.892-19.893 68.217-31.486 17.238-9.846 31.159-13.371 43.462-20.779 31.896-19.208 44.045-53.119 44.045-53.119s36.622 52.817 59.553 38.96c12.9-7.826-22.947-49.207-14.574-75.754 10.417-34.157 17.039-84.125-12.696-113.35-40.432-39.691-63.995-11.547-89.96-4.907-18.143 4.608-41.303-8.742-68.715-.315-18.385 5.701-57.456 18.197-70.501 53.057-12.982 34.781-7.115 54.072-8.977 78.3-.322 4.371-16.619 5.586-16.619 5.586s-61.322-14.529-65.461-53.91c-4.139-39.381 25.828-80.996 14.891-127.555a125.299 125.299 0 0 0-49.817-74.183c-7.061-4.946-20.271-23.75-31.808-21.897-22.681 3.379-37.385 20.424-38.848 27.475-3.171 15.833 4.226 24.654 6.441 40.988l-.126.155Z"/>
          <g id="pachyderm-error__Group_5">
            <g id="pachyderm-error__Clipped_2">
              <mask id="pachyderm-error__mask1_0_2" width="450" height="412" x="379" y="108" maskUnits="userSpaceOnUse" style="mask-type:alpha">
                <path id="pachyderm-error__o" fill="#fff" fill-rule="evenodd" d="M382.553 150.609c.699.567 4.071-1.85 4.582-1.05.714.707-2.777 4.7-2.111 5.625.589.863 5.919-2.541 6.318-1.446.678 1.707-2.954 8.416-2.796 10.604.144 2.046 12.563-3.596 11.693-1.727-16.279 32.497 38.22 33.524 39.99 53.743 3.362 38.752-34.151 70.14-27.589 122.42 6.561 52.28 25.321 83.298 70.862 117.475 45.464 34.113 63.575 45.434 129.077 34.781 0 0-21.279 21.111-4.079 26.966 23.5 8 49.753-20.845 70-32.5 17.238-9.846 31.038-19.019 43.342-26.427 31.896-19.207 44.045-53.119 44.045-53.119s36.544 52.755 59.475 38.897c12.978-7.763-22.869-49.144-14.574-75.754 10.572-34.03 17.179-84.139-12.555-113.365-40.433-39.69-63.995-11.546-89.96-4.907-18.144 4.609-41.304-8.741-68.716-.314-18.462 5.638-57.456 18.197-70.501 53.056-13.059 34.719-7.192 54.01-8.976 78.301-.323 4.371-16.619 5.586-16.619 5.586s-61.323-14.53-65.539-53.974c-4.14-39.381 25.906-80.933 14.969-127.491-11-46.481-51.807-59.967-61.163-67.8-9.433-7.897-21.951 19.797-22.665 19.09-5.714-5.656-7.804-11.338-11.977-21.28-1.388-3.053 12.598-17.463 14.123-21.89 3.273-9.445-4.484-7.492-19.48 6.1-13.504 12.227-14.209 25.81-9.176 30.4Z" clip-rule="evenodd"/>
              </mask>
              <g mask="url(#pachyderm-error__mask1_0_2)">
                <g id="pachyderm-error__Group_6">
                  <path id="pachyderm-error__Path_14" fill="#4E567C" d="M815.205 451.038s-35.678-51.282-32.188-76.249c3.709-24.919 14.677-80.89-16.6-89.619-20.363-5.681-64.371 20.061-69.874 42.112-3.007 11.977 22.838 15.019 29.875 29.211 20.095 40.334 61.815 102.428 61.815 102.428l26.972-7.883Z"/>
                  <path id="pachyderm-error__Path_15" fill="#5DA7B5" d="M370.884 143.09s1.064-10.848 24.447-27.17c7.544-5.343 15.142-6.782 17.996-6.015 2.776.704 9.761 18.456 11.326 20.495 27.734 37.257 40.386 52.778 29.672 115.903-.451 2.465 6.156-2.993 2.228 3.605-2.554 4.108-10.397 4.577-10.705 6.387-.815 5.774 10.589 2.655 9.086 5.942-3.04 6.932-15.104-2.323-17.793 5.923-1.462 4.348 15.489 5.979 13.545 9.81-1.77 3.456-12.391-4.244-13.99-.521-6.017 13.786-9.233 37.303-7.275 57.29.336 3.875 3.096 15.245 4.25 20.812.381 1.595 8.035-1.342 8.416.253.503 2.08-6.908 8.689-6.405 10.769.577 2.784 1.354 3.413 1.965 5.837.606 3.065 7.436-2.985 8.261.127.78 2.691-5.772 9.352-4.914 12.106 14.054 47.796 38.839 52.94 63.945 75.329 50.769 45.358 81.813 53.898 81.813 53.898s-19.063 12.1-29.17 7.261c-10.185-4.902-96.114-10.019-128.955-52.569-32.701-42.565-41.906-204.559-41.906-204.559L379.3 146.045l-8.416-2.955Z"/>
                  <path id="pachyderm-error__Path_16" fill="#4C416D" d="M767.098 407.578s-14.023-14.701-16.578-27.064c-2.618-12.286-4.009-28.21-13.859-22.418-9.707 5.78 10.036 14.561 12.489 30.316 2.597 15.742-29.4 41.044-54.427 55.778-25.09 14.811-97.473 39.836-102.889 54.365C586.355 513.162 651 541 651 541s6.793-60.19 103.095-91.066c9.866-9.896 13.082-42.292 13.082-42.292l-.079-.064Z"/>
                  <path id="pachyderm-error__Path_17" fill="#4D547F" d="M495.773 212.44s-2.5 34.391-16.173 61.922c-13.673 27.531-28.494 38.047-28.685 75.466-.009 9.386 2.102 27.437 7.336 48.146A624.179 624.179 0 0 0 464.476 420c18.867 57.742 59.57 120.298 134.059 79.478 112.251-61.71-50.087 39.606-96.646-65.137-19.727-44.284-35.834-119.735-15.066-148.082 25.506-34.676 8.95-73.819 8.95-73.819Z" opacity=".4"/>
                  <path id="pachyderm-error__Path_18" fill="#4B2A5C" d="M609.851 504.01s1.522 10.512 16.649 4.49c11.384-5.784 27.934-18.809 40-29.5 10.418-9.231 15.47-23.121 24.5-29 0 0-12.906 5.034-27.5 13-10.908 5.954-22.842 14.761-30.584 17.739-18.04 7.138-23.186 23.172-23.186 23.172l.121.099Z"/>
                  <path id="pachyderm-error__Path_19" fill="#4E567C" d="M663.611 463.132s38.953-16.324 54.371-29.96c15.417-13.636 25.543-30.272 25.543-30.272l-54.498 32.818c-18.182 11.011-34.989 16.831-34.989 16.831l9.573 10.583Z"/>
                  <path id="pachyderm-error__Path_20" fill="#4F718F" d="M533.376 384.177s26.565 10.574 49.433-3.205c22.805-13.702 10.306-62.941 24.483-91.093 5.216-10.574 13.36-16.975 23.776-24.754 8.251-6.057 27.998-17.731 27.998-17.731s-76.967-12.53-108.54 20.58c-31.572 33.109-17.088 116.125-17.088 116.125l-.062.078Z"/>
                  <path id="pachyderm-error__Shape" fill="#507E98" fill-rule="evenodd" d="M564.976 383.13c-13.105 14.139-45.43-5.218-60.303-14.124-4.766-2.855-7.74-4.635-7.714-3.896 1.448 19.187 69.136 55.728 99.475 30.498 2.81-2.357 3.861-5.88 4.402-10.203.051-.828-2.748-2.018-5.652-3.253-3.117-1.325-6.354-2.702-6.316-3.737-.041-.725 2.887-1.134 5.881-1.553 3.134-.438 6.34-.886 6.289-1.717-.011-.769-2.412-1.477-4.842-2.193-2.504-.737-5.038-1.484-5.017-2.316.005-.954 2.509-2.013 5.036-3.082 2.561-1.083 5.146-2.177 5.184-3.183a46.5 46.5 0 0 1 7.898-22.942c2.725-3.841 12.863-12.23 12.863-12.23s-9.593-1.978-11.487-3.77c-8.793-7.892-2.024-27.374 4.354-36.363 21.024-29.299 43.976-41.594 43.976-41.594l-41.256-3.556s-56.333 55.264-44.285 75.186c11.933 20.814 8.457 47.041-8.486 64.028Zm251.347-28.337-.018-.149c2.009-2.919 53.656-79.21-6.402-123.175-43.389-31.719-102.335-3.755-124.052 6.548-4.458 2.115-7.347 3.485-8.211 3.443-12.38-.761-18.307 5.764-18.307 5.764s32.859.101 21.868 36.238c-10.913 36.199-21.07 42.386-21.07 42.386s23.19-10.045 32.5-23.609c3.576-5.21 42.813-56.047 74.235-50.675 37.2 6.233 48.923 98.854 49.439 103.08l-.06.086.078.063Zm-180.98 95.099a176.375 176.375 0 0 1 28.725-21.647c17.571-10.735 9.764-5.861 9.764-5.861s32.172-5.088 11.577 7.315c-3.416 2.047-6.749 3.589-10.137 5.156-7.03 3.253-14.297 6.615-23.029 14.825-2.78 2.639-16.9.212-16.9.212Z" clip-rule="evenodd"/>
                  <path id="pachyderm-error__Path_21" fill="url(#pachyderm-error__paint3_linear_0_2)" d="M585.4 473.272c23.447-3.531 43.277-18.484 54.426-23.353 13.872-6.009 22.02 10.625 24.529 14.201-9.795 8.282-33.007 22.169-55.359 25.3-38.263 5.301-86.734-16.835-85.916-20.548l.063-.077c1.629-3.442 37.621 8.204 62.257 4.477Z"/>
                  <path id="pachyderm-error__Path_22" fill="#D3CBAF" d="M664.262 463.917c-6.601-11.394-11.12-13.123-11.12-13.123s2.945 9.076-5.273 14.774a100.989 100.989 0 0 1-45.712 18.314c-24.417 3.775-57.189-5.65-57.189-5.65s27.582 15.516 65.064 10.226c21.945-2.946 44.687-16.571 54.293-24.619l-.063.078Z"/>
                  <path id="pachyderm-error__Path_23" fill="#4E567C" d="M708.5 357c6.519 3.957.303 21.355-13.55 28.957-13.852 7.603-31.265 6.03-37.449-7.913-6.266-14.054 7.332-18.813 18.499-25.544 11.167-6.731 21.981-3.957 28.5 0l4 4.5Z"/>
                  <path id="pachyderm-error__Path_24" fill="#020408" d="M686.945 370.13c1.551 4.892-3.133 11.63-7.445 11.87-2.112.047-8.088-.014-9.606-1.484a7.906 7.906 0 0 1-2.402-5.601c-.191-4.53.362-12.149 5.508-13.415s12.394 3.737 13.945 8.63Z"/>
                  <path id="pachyderm-error__Path_25" fill="#D5B8D8" d="M675.694 376.15c.085 1.485-.985 2.806-2.547 2.828-1.407.147-2.602-1.078-2.624-2.64-.085-1.484 1.063-2.742 2.547-2.827 1.407-.148 2.602 1.077 2.624 2.639Z"/>
                </g>
              </g>
            </g>
            <g id="pachyderm-error__Clipped_3">
              <mask id="pachyderm-error__mask2_0_2" width="170" height="380" x="374" y="84" maskUnits="userSpaceOnUse" style="mask-type:alpha">
                <path id="pachyderm-error__r" fill="#fff" fill-rule="evenodd" d="M375.066 170.024c.902 5.878 14.461-26.12 24.071-16.536 16.534 16.606 38.927 38.213 41.092 62.87 3.362 38.752-34.151 70.14-27.589 122.42 6.561 52.28 25.321 83.298 70.862 117.475 45.464 34.113 59.959-68.799 59.959-68.799s-61.323-14.53-65.539-53.974c-4.14-39.381 25.906-80.933 14.969-127.491-11-46.481-70.168-110.865-79.524-118.698-9.433-7.896.714 3.409-10.11 14.074-10.761 10.587-30.265 52.311-28.128 68.582l-.063.077Z" clip-rule="evenodd"/>
              </mask>
              <g mask="url(#pachyderm-error__mask2_0_2)">
                <g id="pachyderm-error__Path_26" filter="url(#pachyderm-error__filter2_f_0_2)">
                  <path fill="#000" fill-opacity=".5" d="M483.752 224.835c-20.361 25.099-31.988 28.109-60.621 43.367-6.432-7.844-7.457-16.42-3.301-25.925 5.277-11.711 21.777-29.168 49.576-52.306 0 0 15.451 33.44 14.205 34.874l.141-.01Z"/>
                </g>
              </g>
            </g>
          </g>
          <path id="pachyderm-error__Path_27" fill="#4F6E8E" d="M403.364 150.171c-5.162-8.98-7.283-13.93-6.364-14.849 1.415-1.414 12.021-1.555 15.203-2.475 3.253-.848 7.283-5.303 6.364-3.535-.848 1.838-8.909 9.475-8.839 10.253.142.99 7.778-6.081 9.193-6.364 1.555-.142-3.819 4.667.353 3.889 2.829-.424-2.475 3.889-15.91 13.081Z"/>
          <path id="pachyderm-error__Path_28" fill="#3A5877" d="M403.364 150.171a68.584 68.584 0 0 1-4.172-7.707c3.112.283 4.95.707 6.011 1.061.707.282-.142 1.414.353 1.767.425.283 1.556-.141 2.122 0 .848.142.99.849 1.06 1.061 0 .566-1.767 1.909-5.303 3.889l-.071-.071Z"/>
        </g>
      </g>
      <g id="pachyderm-error__Group_7">
        <g id="pachyderm-error__Group_8">
          <g id="pachyderm-error__M-link">
            <path id="pachyderm-error__M" fill="#F69279" d="m371.642 167.264 4.217-2.301c1.514 7.957 6.679 12.669 15.547 14.224 2.367.445 9.652-4.516 16.218-8.928 3.668-2.437 8.211-5.75 7.128-9.883-.997-4.183-3.362-1.712-4.495-3.015-2.06-2.263-5.591-4.729-7.257-8.861l32.245-16.537 8.693 50.192-83.372 16.963 11.076-31.854Z"/>
          </g>
          <g id="pachyderm-error__Clipped_4">
            <mask id="pachyderm-error__mask3_0_2" width="84" height="69" x="360" y="131" maskUnits="userSpaceOnUse" style="mask-type:alpha">
              <path id="pachyderm-error__M_2" fill="#fff" fill-rule="evenodd" d="m371.642 167.264 4.217-2.301c1.514 7.957 6.679 12.669 15.547 14.224 2.367.445 9.652-4.516 16.218-8.928 3.668-2.437 8.211-5.75 7.128-9.883-.997-4.183-3.362-1.712-4.495-3.015-2.06-2.263-5.591-4.729-7.257-8.861l32.245-16.537 8.693 50.192-83.372 16.963 11.076-31.854Z" clip-rule="evenodd"/>
            </mask>
            <g mask="url(#pachyderm-error__mask3_0_2)">
              <g id="pachyderm-error__Path_29" filter="url(#pachyderm-error__filter3_f_0_2)" style="mix-blend-mode:multiply">
                <path fill="#000" fill-opacity=".4" d="M417.563 160.904c-10.393 10.334-13.394 10.283-15.172 10.582-1.467.241-7.803 3.868-19.567 5.129-1.538-5.664-2.089-9.132-1.786-10.443 5.72-20.207 14.363-28.542 19.273-34.122 6.845-7.453 16.753-8.143 29.772-1.982 0 0-6.952 8.084-8.071 10.19-1.265 1.845-8.601 5.111-9.693 8.917-1.315 4.846 5.361 11.321 5.108 11.69l.136.039Z"/>
              </g>
            </g>
          </g>
        </g>
        <path id="pachyderm-error__Path_30" fill="#D06868" d="m360.435 198.337 65.165-35.253 36.915 61.437-65.05 35.417-37.03-61.601Z"/>
        <path id="pachyderm-error__Path_31" fill="#A5597E" d="m435.402 131.927-10.211 31.444 37.202 61.847 10.268-31.362-37.259-61.929Z"/>
      </g>
    </g>
    <g id="pachyderm-error__Combined Shape" filter="url(#pachyderm-error__filter4_f_0_2)">
      <path fill="#000" fill-opacity=".176" fill-rule="evenodd" d="m300.5 724.5 182.5 75 84-43 85 20.5 39.5-51.5-391-1ZM336 769c0 4.971-12.088 9-27 9s-27-4.029-27-9 12.088-9 27-9 27 4.029 27 9Zm-92.5 40.5L150 814l-29.5-43.5 63.5-7.351L168.5 732l76 16s-15.76 10.21-16 25c-.24 14.79 15 36.5 15 36.5Z" clip-rule="evenodd"/>
    </g>
    <g id="pachyderm-error__Group Copy 9">
      <path id="pachyderm-error__Path Copy 4" fill="#482557" d="m456.5 543.4 162 70.6v65l-162-70.5v-65.1Z"/>
      <path id="pachyderm-error__Path Copy 2" fill="#5F2A6F" d="m456.5 543.5-150.9 79.6v65.4l150.9-79.6v-65.4Z"/>
      <g id="pachyderm-error__Group Copy 8">
        <path id="pachyderm-error__Path_32" fill="#7C3C5B" d="m426.006 594.645-12.59 48.691-28.443-19.177 30.387-49.929 10.646 20.415Z"/>
        <path id="pachyderm-error__Path_33" fill="#7C3C5B" d="m415.234 574.463-12.773 49.424-48.695-10.35 12.848-49.409 48.62 10.335Z"/>
        <path id="pachyderm-error__Path Copy 5" fill="#4A2457" d="m495.234 634.463-12.773 49.424-48.695-10.35 12.848-49.409 48.62 10.335Z"/>
        <path id="pachyderm-error__Path_34" fill="#4A2457" d="m414.033 642.967-10.9-19.696-48.166-10.238 10.974 19.712 48.092 10.222Z"/>
      </g>
      <circle id="pachyderm-error__highlight" cx="356.5" cy="654.5" r="38.5" fill="url(#pachyderm-error__paint4_radial_0_2)"/>
      <g id="pachyderm-error__Group Copy 10">
        <path id="pachyderm-error__Path_35" fill="#A5597E" d="m414.109 568.97 63.821-18.909-2.367 45.341-77.358-.438 15.904-25.994Z"/>
        <path id="pachyderm-error__Path_36" fill="#925252" d="m398.075 594.585 64.294-19.071 21.195 61.554-64.327 18.976-21.162-61.459Z"/>
        <path id="pachyderm-error__Path_37" fill="#7C3C5B" d="m476.692 549.536-14.421 25.695 21.293 61.837 14.387-25.79-21.259-61.742Z"/>
      </g>
      <g id="pachyderm-error__Group 4">
        <path id="pachyderm-error__Path_38" fill="url(#pachyderm-error__paint5_linear_0_2)" d="m428 569.169 23.362 72.776c45.192 4.29 70.335-3.677 113.638-39.169L541.64 530c-35.444 34.09-60.14 43.003-113.64 39.169Z"/>
        <path id="pachyderm-error__Path_39" stroke="#000" d="m464 632-13-44" opacity=".3"/>
        <path id="pachyderm-error__Path_40" stroke="#000" d="m478 637-13-44" opacity=".3"/>
        <path id="pachyderm-error__Path_41" stroke="#000" d="m503 629-11-45" opacity=".3"/>
        <path id="pachyderm-error__Path_42" stroke="#000" d="m550 606-8-25" opacity=".3"/>
        <path id="pachyderm-error__Path_43" stroke="#000" d="m527 619-15-44" opacity=".3"/>
        <path id="pachyderm-error__Path_44" stroke="#000" d="m537 614-15-44" opacity=".3"/>
        <path id="pachyderm-error__Path_45" stroke="#000" d="m471 634-16-55" opacity=".3"/>
        <path id="pachyderm-error__Path_46" stroke="#000" d="m485 634-16-55" opacity=".3"/>
        <path id="pachyderm-error__Path_47" stroke="#000" d="m507 626-13-56" opacity=".3"/>
        <path id="pachyderm-error__Path_48" stroke="#000" d="m532 615-18-55" opacity=".3"/>
        <path id="pachyderm-error__Path_49" stroke="#000" d="m544 612-18-55" opacity=".3"/>
      </g>
      <circle id="pachyderm-error__highlight copy 3" cx="356.5" cy="654.5" r="38.5" fill="url(#pachyderm-error__paint6_radial_0_2)"/>
      <g id="pachyderm-error__Group Copy 7">
        <path id="pachyderm-error__Path_50" fill="#F69279" d="m390.858 626.535 58.177 10.779-20.172 34.955-61.09-31.565 23.085-14.169Z"/>
        <path id="pachyderm-error__Path_51" fill="#D06868" d="m368.462 640.186 65.002 11.72-7.994 56.882-64.99-11.807 7.982-56.795Z"/>
        <path id="pachyderm-error__Path_52" fill="#7C3C5B" d="m448.127 636.687-21.222 14.482-8.032 57.144 21.235-14.569 8.019-57.057Z"/>
      </g>
      <path id="pachyderm-error__Path_53" fill="url(#pachyderm-error__paint7_linear_0_2)" d="m596.042 552.6 50.047 45.293c-42.107 15.223-57.882 33.141-73.041 80.707L523 633.306c16.722-42.531 32.262-60.623 73.042-80.706Z"/>
      <circle id="pachyderm-error__highlight copy" cx="556.5" cy="624.5" r="38.5" fill="url(#pachyderm-error__paint8_radial_0_2)"/>
      <g id="pachyderm-error__Group Copy 6">
        <path id="pachyderm-error__Path_54" fill="#A5597E" d="m474.109 628.97 63.821-18.909-2.367 45.341-77.358-.438 15.904-25.994Z"/>
        <path id="pachyderm-error__Path_55" fill="#D06868" d="m458.075 654.585 64.294-19.071 21.195 61.554-64.327 18.976-21.162-61.459Z"/>
        <path id="pachyderm-error__Path_56" fill="#7C3C5B" d="m536.692 609.536-14.421 25.695 21.293 61.837 14.387-25.79-21.259-61.742Z"/>
      </g>
      <circle id="pachyderm-error__highlight copy 2" cx="469.5" cy="684.5" r="38.5" fill="url(#pachyderm-error__paint9_radial_0_2)"/>
      <path id="pachyderm-error__Path Copy 3" fill="#A5597E" d="m305.5 622.4 162 70.6v95l-162-70.5v-95.1Z"/>
      <path id="pachyderm-error__Path Copy" fill="#5F2A6F" d="m618.5 613.5-150.9 79.6v95.4l150.9-79.6v-95.4Z"/>
      <g id="pachyderm-error__Group 4 Copy">
        <path id="pachyderm-error__Path_57" fill="url(#pachyderm-error__paint10_linear_0_2)" d="m579.264 655.449-33.749 68.579c29.529 34.479 53.149 46.215 108.954 50.764l33.75-68.578c-49.177-.099-73.134-10.843-108.955-50.765Z"/>
        <path id="pachyderm-error__Path_58" stroke="#000" d="m561.514 725.654 21.214-40.682" opacity=".3"/>
        <path id="pachyderm-error__Path_59" stroke="#000" d="m568.112 738.975 21.214-40.681" opacity=".3"/>
        <path id="pachyderm-error__Path_60" stroke="#000" d="M591.653 750.587 615 710.576" opacity=".3"/>
        <path id="pachyderm-error__Path_61" stroke="#000" d="m641.439 766.691 11.612-23.54" opacity=".3"/>
        <path id="pachyderm-error__Path_62" stroke="#000" d="m615.863 760.066 19.775-42.071" opacity=".3"/>
        <path id="pachyderm-error__Path_63" stroke="#000" d="m626.53 763.415 19.775-42.07" opacity=".3"/>
        <path id="pachyderm-error__Path_64" stroke="#000" d="m565.161 731.955 26.696-50.678" opacity=".3"/>
        <path id="pachyderm-error__Path_65" stroke="#000" d="m575.231 741.68 26.697-50.678" opacity=".3"/>
        <path id="pachyderm-error__Path_66" stroke="#000" d="m596.614 751.208 29.549-49.314" opacity=".3"/>
        <path id="pachyderm-error__Path_67" stroke="#000" d="m622.239 760.662 25.258-52.068" opacity=".3"/>
        <path id="pachyderm-error__Path_68" stroke="#000" d="m632.955 766.839 25.258-52.067" opacity=".3"/>
      </g>
      <circle id="pachyderm-error__highlight copy 4" cx="309.5" cy="734.5" r="38.5" fill="url(#pachyderm-error__paint11_radial_0_2)"/>
    </g>
    <g id="pachyderm-error__Group Copy 5">
      <path id="pachyderm-error__Path_69" fill="#925252" d="m169.01 731.279-.454-58.34 37.131 12.996-18.803 65.151-17.874-19.807Z"/>
      <path id="pachyderm-error__Path_70" fill="#A5597E" d="m187.085 751.03-.444-59.058 57.274-3.002.532 59.053-57.362 3.007Z"/>
      <path id="pachyderm-error__Path_71" fill="#5F2A6F" d="m168.527 672.95 18.087 19.08 56.859-2.98-18.087-19.08-56.859 2.98Z"/>
    </g>
    <path id="pachyderm-error__Path Copy 6" fill="url(#pachyderm-error__paint12_linear_0_2)" d="m145.989 803.488-25.351-56.565c41.177 17.583 64.934 15.237 108.461-9.212l25.351 56.567c-41.236 19.701-64.94 22.335-108.461 9.21Z"/>
  </g>
  <defs>
    <linearGradient id="pachyderm-error__paint0_linear_0_2" x1="649.723" x2="498.794" y1="313.625" y2="396.105" gradientUnits="userSpaceOnUse">
      <stop stop-color="#462656"/>
      <stop offset="1" stop-color="#4B2357"/>
    </linearGradient>
    <linearGradient id="pachyderm-error__paint1_linear_0_2" x1="539.548" x2="838.359" y1="687.856" y2="854.329" gradientUnits="userSpaceOnUse">
      <stop stop-color="#4C5D7F"/>
      <stop offset="1" stop-color="#4C426D"/>
    </linearGradient>
    <linearGradient id="pachyderm-error__paint2_linear_0_2" x1="276.423" x2="687.143" y1="424.945" y2="525.48" gradientUnits="userSpaceOnUse">
      <stop stop-color="#518EA3"/>
      <stop offset="1" stop-color="#4E6687"/>
    </linearGradient>
    <linearGradient id="pachyderm-error__paint3_linear_0_2" x1="572.291" x2="670.008" y1="493" y2="461.079" gradientUnits="userSpaceOnUse">
      <stop stop-color="#EFE8CD"/>
      <stop offset="1" stop-color="#D3CAAF"/>
    </linearGradient>
    <linearGradient id="pachyderm-error__paint5_linear_0_2" x1="512.766" x2="428.676" y1="562.623" y2="541.31" gradientUnits="userSpaceOnUse">
      <stop stop-color="#F69279"/>
      <stop offset="1" stop-color="#D06868"/>
    </linearGradient>
    <linearGradient id="pachyderm-error__paint7_linear_0_2" x1="557.177" x2="521.837" y1="590.346" y2="634.443" gradientUnits="userSpaceOnUse">
      <stop stop-color="#5DA7B5"/>
      <stop offset="1" stop-color="#518EA3"/>
    </linearGradient>
    <linearGradient id="pachyderm-error__paint10_linear_0_2" x1="644.787" x2="599.103" y1="709.623" y2="635.878" gradientUnits="userSpaceOnUse">
      <stop stop-color="#F69279"/>
      <stop offset="1" stop-color="#D06868"/>
    </linearGradient>
    <linearGradient id="pachyderm-error__paint12_linear_0_2" x1="194.386" x2="243.651" y1="805.697" y2="792.701" gradientUnits="userSpaceOnUse">
      <stop stop-color="#5DA7B5"/>
      <stop offset="1" stop-color="#518EA3"/>
    </linearGradient>
    <radialGradient id="pachyderm-error__paint4_radial_0_2" cx="0" cy="0" r="1" gradientTransform="rotate(124.823 17.265 417.157) scale(48.3575 46.5449)" gradientUnits="userSpaceOnUse">
      <stop stop-color="#E6DEC3"/>
      <stop offset=".563" stop-color="#C5BB96"/>
      <stop offset="1" stop-color="#9E9473"/>
    </radialGradient>
    <radialGradient id="pachyderm-error__paint6_radial_0_2" cx="0" cy="0" r="1" gradientTransform="rotate(124.823 17.265 417.157) scale(48.3575 46.5449)" gradientUnits="userSpaceOnUse">
      <stop stop-color="#E6DEC3"/>
      <stop offset=".563" stop-color="#C5BB96"/>
      <stop offset="1" stop-color="#9E9473"/>
    </radialGradient>
    <radialGradient id="pachyderm-error__paint8_radial_0_2" cx="0" cy="0" r="1" gradientTransform="rotate(124.823 125.103 454.41) scale(48.3575 46.5449)" gradientUnits="userSpaceOnUse">
      <stop stop-color="#E6DEC3"/>
      <stop offset=".563" stop-color="#C5BB96"/>
      <stop offset="1" stop-color="#9E9473"/>
    </radialGradient>
    <radialGradient id="pachyderm-error__paint9_radial_0_2" cx="0" cy="0" r="1" gradientTransform="rotate(124.823 65.927 461.68) scale(48.3575 46.5449)" gradientUnits="userSpaceOnUse">
      <stop stop-color="#E6DEC3"/>
      <stop offset=".563" stop-color="#C5BB96"/>
      <stop offset="1" stop-color="#9E9473"/>
    </radialGradient>
    <radialGradient id="pachyderm-error__paint11_radial_0_2" cx="0" cy="0" r="1" gradientTransform="rotate(124.823 -27.136 444.877) scale(48.3575 46.5449)" gradientUnits="userSpaceOnUse">
      <stop stop-color="#E6DEC3"/>
      <stop offset=".563" stop-color="#C5BB96"/>
      <stop offset="1" stop-color="#9E9473"/>
    </radialGradient>
    <filter id="pachyderm-error__filter0_f_0_2" width="492.604" height="210.949" x="615.698" y="571.071" color-interpolation-filters="sRGB" filterUnits="userSpaceOnUse">
      <feFlood flood-opacity="0" result="BackgroundImageFix"/>
      <feBlend in="SourceGraphic" in2="BackgroundImageFix" result="shape"/>
      <feGaussianBlur result="effect1_foregroundBlur_0_2" stdDeviation="24.465"/>
    </filter>
    <filter id="pachyderm-error__filter1_f_0_2" width="482.908" height="562.481" x="396.887" y="-69.045" color-interpolation-filters="sRGB" filterUnits="userSpaceOnUse">
      <feFlood flood-opacity="0" result="BackgroundImageFix"/>
      <feBlend in="SourceGraphic" in2="BackgroundImageFix" result="shape"/>
      <feGaussianBlur result="effect1_foregroundBlur_0_2" stdDeviation="27.183"/>
    </filter>
    <filter id="pachyderm-error__filter2_f_0_2" width="99.027" height="110.85" x="401.035" y="173.662" color-interpolation-filters="sRGB" filterUnits="userSpaceOnUse">
      <feFlood flood-opacity="0" result="BackgroundImageFix"/>
      <feBlend in="SourceGraphic" in2="BackgroundImageFix" result="shape"/>
      <feGaussianBlur result="effect1_foregroundBlur_0_2" stdDeviation="8.155"/>
    </filter>
    <filter id="pachyderm-error__filter3_f_0_2" width="70.871" height="72.457" x="370.085" y="115.031" color-interpolation-filters="sRGB" filterUnits="userSpaceOnUse">
      <feFlood flood-opacity="0" result="BackgroundImageFix"/>
      <feBlend in="SourceGraphic" in2="BackgroundImageFix" result="shape"/>
      <feGaussianBlur result="effect1_foregroundBlur_0_2" stdDeviation="5.437"/>
    </filter>
    <filter id="pachyderm-error__filter4_f_0_2" width="598.183" height="116.683" x="106.909" y="710.909" color-interpolation-filters="sRGB" filterUnits="userSpaceOnUse">
      <feFlood flood-opacity="0" result="BackgroundImageFix"/>
      <feBlend in="SourceGraphic" in2="BackgroundImageFix" result="shape"/>
      <feGaussianBlur result="effect1_foregroundBlur_0_2" stdDeviation="6.796"/>
    </filter>
    <clipPath id="pachyderm-error__clip0_0_2">
      <path fill="#fff" d="M0 0h1219v823H0z"/>
    </clipPath>
  </defs>
</svg>
