<svg width="37" height="37" xmlns="http://www.w3.org/2000/svg"><path d="M33.68 15.64h-.04C32.48 9.28 27.48 4.28 21.16 3.16v-.04c0-1.52-1.24-2.76-2.76-2.76-1.52 0-2.76 1.24-2.76 2.76v.04C9.28 4.32 4.28 9.32 3.16 15.64h-.04C1.6 15.64.36 16.88.36 18.4c0 1.52 1.24 2.76 2.76 2.76h.04c1.16 6.36 6.16 11.36 12.48 12.48v.04c0 1.52 1.24 2.76 2.76 2.76 1.52 0 2.76-1.24 2.76-2.76v-.04c6.36-1.16 11.36-6.16 12.48-12.48h.04c1.52 0 2.76-1.24 2.76-2.76 0-1.52-1.24-2.76-2.76-2.76zm-12.6 17.6c-.2-1.32-1.36-2.32-2.72-2.32s-2.52 1-2.72 2.32c-6.16-1.12-11-6-12.12-12.12 1.32-.2 2.32-1.36 2.32-2.72s-1-2.52-2.32-2.72c1.12-6.16 6-11 12.12-12.12.2 1.32 1.36 2.32 2.72 2.32s2.52-1 2.72-2.32c6.16 1.12 11 6 12.12 12.12-1.32.2-2.32 1.36-2.32 2.72s1 2.52 2.32 2.72c-1.12 6.16-5.96 11-12.12 12.12z" fill="#DF686C" fill-rule="nonzero"/></svg>
