<svg width="235" height="298" xmlns="http://www.w3.org/2000/svg" xmlns:xlink="http://www.w3.org/1999/xlink"><defs><linearGradient x1="90.51%" y1="47.602%" x2="0%" y2="56.232%" id="a"><stop stop-color="#FE9B7C" offset="0%"/><stop stop-color="#D06868" offset="100%"/></linearGradient><linearGradient x1="36.207%" y1="101.288%" x2="65.616%" y2="13.528%" id="e"><stop stop-color="#4C416C" offset="0%"/><stop stop-color="#4F7995" offset="100%"/></linearGradient><linearGradient x1="60.061%" y1="-2.451%" x2="33.348%" y2="98.382%" id="k"><stop stop-color="#5190A5" offset="0%"/><stop stop-color="#4E6586" offset="100%"/></linearGradient><linearGradient x1="78.616%" y1="37.941%" x2="3.475%" y2="94.45%" id="m"><stop stop-color="#EFE8CD" offset="0%"/><stop stop-color="#D3CAAF" offset="100%"/></linearGradient><path id="b" d="M44.897.098l-33.1.033L0 9.93l36.048-.033z"/><path d="M139.04 30.587c-12.165-6.727-8.576-24.82-8.576-24.82s.652-4.574-2.625-5.226c-3.278-.651-4.261-1.63-3.93 4.25.332 5.879-3.224 22.214 6.613 30.7 7.186 6.2 17.372 4.89 24.588 14.685 7.185 9.752-2.755 23.464-4.94 24.502-6.88 3.271-6.55 4.577-12.121 5.234-5.571.657-20.28-.967-28.47 1.978-8.192 2.945-5.935 5.884-13.797 10.789-7.862 4.905-20.966 11.446-26.534 17.656-2.172 2.424-3.643 5.244-4.496 7.997-5.278 1.584-17.013 3.164-26.259 8.355-5.417 3.043-19.683 12.83-26.203 22.23-5.893 8.497-8.836 18.625-10.469 27.446-1.01 5.46-1.628 16.007-1.626 22.54.006 6.435.938 11.564 2.074 17.88.505 2.813.975 7.7.975 10.846 0 3.147-.975 3.912-.975 6.102 0 2.19.682 2.87 1.208 3.402.525.533 0-1.65 0-2.23 0-.58.778-2.117 1.015-1.62.238.497-.035.04-.246 2.541-.21 2.502 1.864 7.224 1.864 5.082 0-2.142 0-5.082.495-6.363.495-1.282.522-.3.522 0s-.13 1.012.19.865c.32-.146.886-.729.32-3.64-.567-2.91-.903-2.91-1.103-4.139-.681-4.191-.673-6.298-1.081-9.13-.659-4.573-.995-18.945-.67-23.845.496-7.497 2.423-8.366 3.27-9.802 1.349-2.288 2.682 13.828 8.538 28.087 4.963 12.083 11.806 12.079 14.43 14.69 2.623 2.612-2.286 14.048-.314 22.213 1.77 7.332-.648 12.087.009 14.047.657 1.959 8.523 4.238 14.422 4.238 5.899-.005 13.107-1.643 13.106-4.256-.005-6.86-2.626-5.552-3.284-9.798-.658-4.246 6.128-10.469 6.872-15.684 1.305-9.147-.007-11.106-1.978-17.964-.125-.437-.988-8.493-.988-8.493s10.816 1.627 18.022-3.278c11.92-8.113 16.372-21.57 16.372-21.57s4.897 5.42 7.87 7.835c4.269 3.47 6.222 3.805 8.523 4.568 2.95.978 10.778 2.933 10.778 2.933s-3.89 4.576-6.184 6.21c-1.621 1.156-6.262 4.904-5.278 6.864.984 1.959 4.207 7.268 7.543 9.468 5.941 3.916 10.858 5.22 12.496 4.892 1.638-.328 3.558-11.109 5.851-13.07 2.293-1.962 6.588-8.498 6.258-11.764-.323-3.2-.993-15.679-9.188-20.247-4.45-2.48-9.991-3.886-12.134-12.405-1.971-7.839-14.427-13.057-14.427-13.057 3.947-5.63 10.563-12.951 12.324-14.876 1.915.947 3.687 1.562 5.652 1.471 3.567-.163 2.477-4.085.426-9.468l.59.975s6.355-3.857 8.516-8.172c2.291-4.575 8.183-15.032 13.098-16.668 5.672-1.889 15.726-7.196 14.741-9.156-1.381-2.75-10.16-2.933-10.16-2.933s11.22-4.205 11.794-5.234c4.568-8.194 11.002-23.487 7.183-40.837-4.601-20.903-24.592-20.564-30.492-23.826z" id="d"/><path d="M12.29 31.404C6.398 39.9 3.455 50.028 1.822 58.85.811 64.31.193 74.857.196 81.39c.005 6.434.844 13.607 1.98 19.925 1.644 9.145 3.617 19.597 4.928 19.27.636-.16-.262-9.953-1.651-19.599-.658-4.573-.995-18.945-.67-23.846.496-7.496 2.423-8.365 3.27-9.801 1.349-2.288 2.682 13.828 8.539 28.087 4.962 12.083 11.805 12.078 14.429 14.69 2.623 2.612-2.286 14.048-.314 22.213 1.77 7.332-.648 12.087.009 14.046.656 1.96 8.523 4.241 14.422 4.238 5.899-.004 13.107-1.642 13.106-4.255-.005-6.86-2.626-5.552-3.284-9.798-.658-4.246 6.128-10.47 6.872-15.684 1.305-9.147-.007-11.106-1.978-17.965-.125-.436-.988-8.492-.988-8.492s10.816 1.626 18.022-3.278c11.92-8.113 16.372-21.57 16.372-21.57s4.897 5.419 7.87 7.835c4.269 3.469 6.222 3.805 8.523 4.568 2.95.978 10.778 2.933 10.778 2.933s-3.89 4.575-6.184 6.21c-1.621 1.156-6.262 4.904-5.278 6.863.984 1.96 4.207 7.269 7.543 9.469 5.94 3.916 10.858 5.22 12.496 4.891 1.638-.327 3.558-11.108 5.851-13.07 2.293-1.96 6.588-8.497 6.258-11.763-.323-3.201-.993-15.68-9.188-20.247-4.45-2.48-9.991-3.886-12.134-12.405-1.971-7.839-14.427-13.058-14.427-13.058 4.583-6.536 12.77-15.36 12.77-15.36L66.507.172c-3.843 1.873-17.53 3.115-28.014 9.001-5.417 3.042-19.683 12.83-26.202 22.23z" id="g"/><path d="M66.686 35.575c7.186 6.2 17.372 4.889 24.588 14.684 7.184 9.752-2.756 23.464-4.94 24.503-6.88 3.27-6.55 4.577-12.122 5.234-1.854.219-4.723.184-8.026.15-6.617-.068-14.98-.137-20.444 1.828-8.19 2.945-5.934 5.883-13.796 10.788-7.862 4.905-20.967 11.446-26.534 17.657-5.567 6.21-6.545 15.03-4.248 18.622 2.296 3.592 9.18 7.507 27.86 7.822 18.68.314 23.274 9.458 30.483 9.127 3.568-.164 2.479-4.085.428-9.468l.59.974s6.354-3.856 8.515-8.172c2.291-4.575 8.183-15.031 13.098-16.668 5.672-1.888 15.725-7.196 14.741-9.155-1.382-2.75-10.161-2.934-10.161-2.934s11.22-4.205 11.794-5.234c4.568-8.194 11.003-23.487 7.184-40.836-4.602-20.904-24.592-20.565-30.493-23.827-12.165-6.727-8.575-24.82-8.575-24.82s.652-4.574-2.625-5.226C62.855.396 61.989.128 61.362.128c-1.165 0-1.505.924-1.29 4.746.332 5.88-3.223 22.214 6.614 30.701z" id="j"/><radialGradient cx="41.057%" cy="27.737%" fx="41.057%" fy="27.737%" r="60.073%" gradientTransform="matrix(0 1 -.6724 0 .597 -.133)" id="c"><stop stop-opacity=".5" offset="0%"/><stop stop-opacity="0" offset="100%"/></radialGradient><filter x="-27.6%" y="-20.2%" width="155.1%" height="140.4%" filterUnits="objectBoundingBox" id="i"><feOffset dy="1" in="SourceAlpha" result="shadowOffsetOuter1"/><feGaussianBlur stdDeviation="7" in="shadowOffsetOuter1" result="shadowBlurOuter1"/><feColorMatrix values="0 0 0 0 0 0 0 0 0 0 0 0 0 0 0 0 0 0 0.5 0" in="shadowBlurOuter1" result="shadowMatrixOuter1"/><feMerge><feMergeNode in="shadowMatrixOuter1"/><feMergeNode in="SourceGraphic"/></feMerge></filter></defs><g fill="none" fill-rule="evenodd"><circle stroke="#65ADBB" stroke-width="1.2" cx="214.5" cy="116.5" r="10.5"/><path fill="#D06868" d="M138.93 243.45l-10.288 8.392-4.957 31.296 10.272-8.295z"/><g transform="rotate(9 -1454.752 719.124)"><use fill="url(#a)" xlink:href="#b"/><use fill="url(#c)" xlink:href="#b"/></g><path fill="#A5597E" d="M128.657 251.745l-35.61-5.607-4.972 31.393 35.61 5.607z"/><path d="M160.411 128.597c.264-1.682.066-8.949 7.043-8.033 5.576.732 16.847 4.53 27.185 3.549 10.992-1.043 23.433-9.44 24.551-8.06 1.12 1.38-14.042 14.93-30.804 16.733-9.808 1.055-22.232-1.967-27.975-4.189-2.237-.866.922 1.694-7.24-1.13" fill="#C1BBA7"/><g transform="rotate(9 19.458 273.717)"><path d="M51.03 257.342s6.555.976 11.47.973c4.916-.003 8.52-1.639 9.83-2.293 1.31-.654 1.963-5.227-1.315-7.512-2.15-1.497-.6-15.63-3.946-20.903-3.937-6.205 2.933-24.828 2.933-24.828l-22.604 13.08s4.932 25.803 5.262 28.09c.329 2.286-2.942 12.414-1.63 13.393" fill="#4B2357"/><path d="M107.062 171.563s-2.032 9.441 2.043 19.932c4.075 10.49 13.334 13.864 13.588 18.8.113 2.197-1.052 4.567-1.755 8.252-.876 4.598 2.198 9.082.237 12.866-1.714 3.31-24.227 2.325-21.488-3.024 2.739-5.349 3.503-12.794 3.61-14.096.106-1.303-13.829-15.871-12.757-24.96 1.072-9.09-4.963-11.572-4.963-11.572l21.485-6.198z" fill="#4B2A5C"/><mask id="f" fill="#fff"><use xlink:href="#d"/></mask><use fill="url(#e)" xlink:href="#d"/><g mask="url(#f)"><g transform="translate(0 117.513)"><mask id="h" fill="#fff"><use xlink:href="#g"/></mask><path d="M2.269 73.329s2.949-31.033 17.696-32.993c14.733-1.958 17.088-1.86 23.49 3.724 7.866 6.86 4.877 9.99 6.61 9.99 1.733 0 10.578-5.678 8.914-16.131-1.61-10.109 9.363-20.722 32.693-19.768 23.33.952-26.81-6.887-26.81-6.887L16.688 30.21S3.252 47.85 2.924 61.242L2.269 73.33z" fill="#4F6486" mask="url(#h)"/><path d="M82.934 96.853S59.2 96.707 59.358 93.63c.157-3.077 1.27-7.45.31-11.66-.191-.845 10.785 1.651 17.201-3.574 12.736-10.373.943-19.758.943-19.758s14.584 7.807 15.617 11.65c1.857 6.904-10.495 26.565-10.495 26.565" fill="#4C3D6A" mask="url(#h)"/><path d="M2.012 101.151s.467-17.812.638-26.46c.318-16.006 2.77-26.569 8.499-34.957 4.91-7.19 23.974-.956 31.126-10.473C57.009 9.653 79.954 16.824 79.954 16.824l41.953 9.12s-10.15 18.412-15.426 16.025c-3.606-1.63-11.797-5.88-11.797-5.88s2.083 4.24 6.587 6.201c10.49 4.567 14.098 8.484 16.396 15.016.96 2.73 4.764 7.759 7.437 8.89 2.631 1.113 4.828 2.517 6.62 4.043.372.317-.999 1.949-.661 2.275.303.293 2.931-1.198 3.207-.9.301.325-1.683 2.75-1.414 3.078.267.327 2.841-1.191 3.078-.863.335.465-2.55 2.134-2.277 2.594.195.329 2.898-.322 3.063 0 .688 1.349 1.108 2.63 1.28 3.736.657 4.246 2.953 7.184-3.265 19.275-4.555 8.855 19.326-13.079 19.326-13.079L95.987-22.385-8.521 29.62l7.912 71.86 2.621-.329z" fill="#4F728F" mask="url(#h)"/><path d="M129.13 48.479s-11.325-30.209-11.163-33.312c.162-3.104-30.803 3.286-30.803 3.286l19.667 6.52c11.8 3.913-4.906 14.703-4.906 14.703l21.635 9.786 5.57-.983z" fill="#4C416D" mask="url(#h)"/><path d="M24.98 145.562S6.422 79.426 6.584 76.322c.162-3.103-.978-25.022 2.611-16.987 1.313 2.939 8.218 39.52 22.638 41.144 8.467.954 3.087 22.831 4.278 27.437 2.957 11.43-3.918 22.868-3.918 22.868l-7.213-5.222z" fill="#4C3D6A" mask="url(#h)"/><path d="M2.269 54.05c2.002-11.754 16.078-29.617 29.98-37.478 13.902-7.861 19.964-11.34 37.028-11.34S56.28-5.149 56.28-5.149l-52.01 21.72s-9.444 1.925-9.772 15.317l7.77 22.16z" fill="#5191A6" mask="url(#h)"/></g></g><g filter="url(#i)" mask="url(#f)"><g transform="translate(63.836 -.083)"><mask id="l" fill="#fff"><use xlink:href="#j"/></mask><path d="M66.686 35.575c7.186 6.2 17.372 4.889 24.588 14.684 7.184 9.752-2.756 23.464-4.94 24.503-6.88 3.27-6.55 4.577-12.122 5.234-1.854.219-4.723.184-8.026.15-6.617-.068-14.98-.137-20.444 1.828-8.19 2.945-5.934 5.883-13.796 10.788-7.862 4.905-20.967 11.446-26.534 17.657-5.567 6.21-6.545 15.03-4.248 18.622 2.296 3.592 9.18 7.507 27.86 7.822 18.68.314 23.274 9.458 30.483 9.127 3.568-.164 2.479-4.085.428-9.468l.59.974s6.354-3.856 8.515-8.172c2.291-4.575 8.183-15.031 13.098-16.668 5.672-1.888 15.725-7.196 14.741-9.155-1.382-2.75-10.161-2.934-10.161-2.934s11.22-4.205 11.794-5.234c4.568-8.194 11.003-23.487 7.184-40.836-4.602-20.904-24.592-20.565-30.493-23.827-12.165-6.727-8.575-24.82-8.575-24.82s.652-4.574-2.625-5.226C62.855.396 61.989.128 61.362.128c-1.165 0-1.505.924-1.29 4.746.332 5.88-3.223 22.214 6.614 30.701z" fill="url(#k)" mask="url(#l)"/><path d="M60.525 137.496s6.354-3.857 8.515-8.172c2.29-4.575 8.183-15.031 13.098-16.668 5.672-1.888 15.726-7.196 14.741-9.155-1.382-2.75-10.161-2.934-10.161-2.934s11.22-4.205 11.794-5.234c4.568-8.194 10.832-15.49 4.732-32.179-3.94-10.777-25.25-24.483-31.15-27.746-12.166-6.726-9.521-25.8-9.521-25.8s-.003-5.553-3.281-6.204c-3.278-.651-1.967-.652-1.635 5.228.331 5.88-.808 18.456 9.029 26.943 7.186 6.2 17.866 9.625 25.082 19.42 7.185 9.752 17.71 20.242 7.885 31.354-5.04 5.7-23.257 16.021-29.154 18.312-5.227 2.03-14.418 3.275-16.384 2.95-8.59-1.422-14.425-9.79-19.012-6.848-7.798 5.004 10.167 12.08 4.6 18.29-5.567 6.21-26.514 5.246-26.867 9.49-.325 3.92.988 6.206 19.667 6.52 18.68.316 19.795 11.258 27.004 10.927 7.21-.332-4.598-16.004-4.933-28.09-.336-12.086-14.429-14.037-14.429-14.037" fill="#4E567C" mask="url(#l)"/><path d="M37.72 92.595c5.239-6.863 7.205-7.518 12.448-8.5 3.538-.665 13.654-.24 22.067-1.033.533-.05 1.153 1.917 1.87 1.917.717 0-.096-3.766.696-3.915.792-.148 2.413 4.139 3.15 3.915.738-.223-.981-4.105 0-4.391.983-.286 2.954 3.6 3.52 3.3.565-.3-1.112-3.3-.56-4.052.553-.753 1.033 1.13 1.125 1.08C91.12 76.005 94.733 68.6 95.05 63.16c.324-5.554-6.235-13.39-6.235-13.39L39.97 23.996s1.125-19.11 20.632-21.9c6.881-.984-.72 10.764 7.225 24.822 4.108 7.268 14.1 5.938 23.672 12.24.663.437 1.706-.739 2.134-.412.428.327-1.068 1.438.606 2.789 1.675 1.35 2.394-.905 3.019-.294.624.61-1.7 1.79 0 3.237 1.698 1.446 2.577-.488 3.152.234.575.723-1.178 1.591-.424 2.438 2.368 2.663 2.449 3.598 3.58 8.165 3.551 14.325 2.108 11.253 6.893 16.981 9.06 10.845-42.258 26.486-42.258 26.486l60.62-9.511-3.696-13L41.542-79.555l-46.4 211.377s8.837-18.625 20.302-26.145c13.85-9.086 17.037-6.218 22.276-13.08z" fill="#5DA7B5" mask="url(#l)"/><path d="M64.294 139.29l-4.725-3.208s-3.133-12.21-4.79-16.058c-1.97-4.573-2.113-6.841-7.87-8.162-17.044-3.91-6.889-8.815-6.889-8.815s11.145 2.933 13.771 10.77c1.105 3.296 1.974 12.086 6.89 12.082 4.916-.002 6.55-7.517 10.808-10.133 4.259-2.616 7.206-5.884 11.138-6.54 3.932-.656 14.419-.662 14.419-.662L64.294 139.29z" fill="#4C416D" mask="url(#l)"/><path d="M58.695 95.522c4.914-2.617 5.898-.984 8.847-2.946 2.948-1.962-10.818-5.22-15.405-2.603-2.622 1.496-3.739 10.913-.975 12.413 7.212 3.916 3.476-4.704 7.533-6.864z" fill="#4E567C" mask="url(#l)"/></g></g></g><path d="M69.3 217.36c3.631-8.983 4.597-10.162-.167-17.959-3.177-5.198-4.802-8.95-4.874-11.256-.655 3.04.635 7.082 3.869 12.123 4.85 7.562-2.49 18.26-1.118 26.333.915 5.382 1.39 9.301 1.424 11.758.198-4.62.19-8.618-.023-11.994-.106-1.672-.572-5.386.89-9.004z" fill="#4F6486"/><path d="M162.635 127.128s8.72 1.122 11.483.82c3.713-.407 8.944.087 9.3-2.172l-5.325-2.522-9.29 1.673-.452.805-5.716 1.396z" fill="#4B2A5C"/><path d="M169.51 81.526c-8.009 6.456-19.268 10.14-24.242 12.755-6.225 3.27-2.29 8.168-1.633 9.474 5.886-1.68 17.692-6.545 25.226-12.756 12.876-10.616 18.333-28.43 16.695-28.756a.338.338 0 00-.064-.006c-1.724.001-7.573 12.51-15.982 19.289" fill="url(#m)" transform="rotate(9 19.458 273.717)"/><path d="M168.694 125.273c-1.804-4.088-.902-5.599-.902-5.599s2.234 2.667 7.02 1.769c5.525-1.037 12.88-2.681 21.8-7.805 9.486-5.449 17.094-15.823 17.094-15.823s-3.723 10.334-18.101 18.805c-8.413 4.957-20.835 7.914-26.91 8.653" fill="#D3CBAF"/><g><path d="M146.356 110.408a2.193 2.193 0 012.51-1.821 2.193 2.193 0 011.827 2.505 2.193 2.193 0 01-2.51 1.822 2.193 2.193 0 01-1.827-2.506" fill="#020408"/><path d="M149.762 109.886a.654.654 0 11-1.292-.207.654.654 0 011.292.207" fill="#D5B8D8"/></g><path fill="#DF686C" d="M200.5 15.965l14.215 8.42-14.03 8.1z"/><circle stroke="#623578" stroke-width="1.794" cx="103.5" cy="49.5" r="30.5"/><circle fill="#5BA3B1" cx="214" cy="167" r="7"/><path fill="#5DA7B5" d="M146.89 62.32l13.79 11.57-11.57 13.79-13.79-11.57z"/></g></svg>