<svg width="174" height="186" xmlns="http://www.w3.org/2000/svg" xmlns:xlink="http://www.w3.org/1999/xlink">
  <defs>
    <path id="e9fc0945-9f63-4de6-83c9-42661dcb806e" d="M63.3542998 89.836686L27.9685167 75.1607323.00003004 37.5805159 0 0l120.843469.00029947V37.5044498l-9.970208 37.5044498z"/>
    <path d="M31.8666388 0s4.553321 4.37259929 9.8371438 5.4890331c1.437875.30396468 3.3704608.47825773 5.4102789.86966841 2.1022952.4030901 5.0981936 2.07504557 6.5901354 2.56019117C63.7996596 12.2020107 74.6319318 18.7877124 80.9865765 27.3424464c6.3546447 8.554734 2.973671 12.3960689 1.8493831 16.3880386-1.124288 3.9919696-2.9057872 9.3204854-8.7789375 12.1939249-1.8442767.9020114-2.1695783 3.6119389-6.0332479 7.4356049-3.8633693 3.8239655-3.8111048 7.6302622-5.3084532 10.7310014-1.0978553 2.2732964 1.1957761 4.681655-2.2653966 5.7962919-4.0763322 1.3125884-9.5641067-.8196564-11.190915-4.347743-.5559864-1.2056767 1.2378281-2.2319692 1.3931198-3.5643228.4079035-3.5053267.0585723-7.7087239 1.57154-11.5800061 1.9806451-5.0676752 1.7652792-4.5163461 1.7652792-4.5163461s-8.0445308-.9388466-13.0168691-4.2016005c-4.9723382-3.2630533-6.8679784-5.9639966-6.8679784-5.9639966l-6.1666126 3.5077224-.366152-.0335409s4.9275831 3.774852.4361384 8.5499425c-4.4914446 4.7750904-6.0801057 3.567018-8.8534294 1.2197518-2.602713-2.2029204-6.2041589-6.9666308-5.9611589-8.6631431.5019196-3.5035298-2.4345054-5.0838467-.1838269-8.6113343 1.0098466-1.5827126 8.4142873-7.8189299 8.4142873-7.8189299s-3.7369132-2.0199426-5.2937351-3.4654968c-1.5568218-1.4458536-3.7555361-4.9380035-3.7555361-4.9380035L0 19.1943962 31.8666388 0z" id="019825d9-9cbd-407c-bdd2-5e66865f4e23"/>
    <path d="M31.8666388 0s4.553321 4.37259929 9.8371438 5.4890331c1.437875.30396468 3.3704608.47825773 5.4102789.86966841 2.1022952.4030901 5.0981936 2.07504557 6.5901354 2.56019117C63.7996596 12.2020107 74.6319318 18.7877124 80.9865765 27.3424464c6.3546447 8.554734 2.973671 12.3960689 1.8493831 16.3880386-1.124288 3.9919696-2.9057872 9.3204854-8.7789375 12.1939249-1.8442767.9020114-2.1695783 3.6119389-6.0332479 7.4356049-3.8633693 3.8239655-3.8111048 7.6302622-5.3084532 10.7310014-1.0978553 2.2732964 1.1957761 4.681655-2.2653966 5.7962919-4.0763322 1.3125884-9.5641067-.8196564-11.190915-4.347743-.5559864-1.2056767 1.2378281-2.2319692 1.3931198-3.5643228.4079035-3.5053267.0585723-7.7087239 1.57154-11.5800061 1.9806451-5.0676752 1.7652792-4.5163461 1.7652792-4.5163461s-8.0445308-.9388466-13.0168691-4.2016005c-4.9723382-3.2630533-6.8679784-5.9639966-6.8679784-5.9639966l-6.1666126 3.5077224-.366152-.0335409s4.9275831 3.774852.4361384 8.5499425c-4.4914446 4.7750904-6.0801057 3.567018-8.8534294 1.2197518-2.602713-2.2029204-6.2041589-6.9666308-5.9611589-8.6631431.5019196-3.5035298-2.4345054-5.0838467-.1838269-8.6113343 1.0098466-1.5827126 8.4142873-7.8189299 8.4142873-7.8189299s-3.7369132-2.0199426-5.2937351-3.4654968c-1.5568218-1.4458536-3.7555361-4.9380035-3.7555361-4.9380035L0 19.1943962 31.8666388 0z" id="9a4f2d5a-31a8-4131-be82-b8a3648cb655"/>
    <path d="M31.6196966.75021922C29.8505126 2.5248938 29.292724 12.2808124 24.9304389 16.2769746c-4.3625856 3.9964617-11.6513835 2.3966791-17.34341019 8.0366464C1.895002 29.9532888-.10817088 35.0781633.00446817 43.7137549c.11263905 8.6355916.42742765 11.8695961 7.80813901 18.7460857 0 0-4.22381422-.1721967-2.67870681 1.5937931 2.39515678 2.7371795 6.86347283 3.916802 10.14382233 5.2794023 2.7991555 1.1625526 4.5175769 2.5176661 6.554091 3.3088727 5.2991417 2.058874 10.4982599.3773354 10.4982599.3773354s-2.9451357 9.287843.8437416 10.7597507c2.1437464.8328333 3.8120058-7.3122222 7.7916186-8.7802368 5.0942888-1.8791905 11.7577147-5.7238197 12.5143487-12.0187335 1.0257663-8.5364662-4.5530206-8.7646643-7.7705926-11.2733462-2.2464733-1.7513157-2.7937489-5.7801204-6.3519414-8.2879039-2.4014646-1.6929186-7.5501205-5.2237004-12.9622016-3.5667186-5.4120811 1.6569819-7.1965841 4.1497917-10.2943082 6.1817132-.5526822.3623619-2.2215424-1.4814909-2.2215424-1.4814909s-3.95378089-8.7269307.4217206-12.8761234c4.3752011-4.1494923 12.1812375-4.3956587 16.7754089-10.0272408 4.5941715-5.631582 7.6976026-18.59634941 7.7823072-20.45727208.0847045-1.86092268-1.1930729.30037101-3.4827995-.01317679-2.2894262-.3135478-1.9869528-2.20292038-3.7561369-.4282458z" id="be432bc8-52c0-45d6-936b-1ad785960b8f"/>
    <path d="M31.6196966.75021922C29.8505126 2.5248938 29.292724 12.2808124 24.9304389 16.2769746c-4.3625856 3.9964617-11.6513835 2.3966791-17.34341019 8.0366464C1.895002 29.9532888-.10817088 35.0781633.00446817 43.7137549c.11263905 8.6355916.42742765 11.8695961 7.80813901 18.7460857 0 0-4.22381422-.1721967-2.67870681 1.5937931 2.39515678 2.7371795 6.86347283 3.916802 10.14382233 5.2794023 2.7991555 1.1625526 4.5175769 2.5176661 6.554091 3.3088727 5.2991417 2.058874 10.4982599.3773354 10.4982599.3773354s-2.9451357 9.287843.8437416 10.7597507c2.1437464.8328333 3.8120058-7.3122222 7.7916186-8.7802368 5.0942888-1.8791905 11.7577147-5.7238197 12.5143487-12.0187335 1.0257663-8.5364662-4.5530206-8.7646643-7.7705926-11.2733462-2.2464733-1.7513157-2.7937489-5.7801204-6.3519414-8.2879039-2.4014646-1.6929186-7.5501205-5.2237004-12.9622016-3.5667186-5.4120811 1.6569819-7.1965841 4.1497917-10.2943082 6.1817132-.5526822.3623619-2.2215424-1.4814909-2.2215424-1.4814909s-3.95378089-8.7269307.4217206-12.8761234c4.3752011-4.1494923 12.1812375-4.3956587 16.7754089-10.0272408 4.5941715-5.631582 7.6976026-18.59634941 7.7823072-20.45727208.0847045-1.86092268-1.1930729.30037101-3.4827995-.01317679-2.2894262-.3135478-1.9869528-2.20292038-3.7561369-.4282458z" id="0f904f13-e55f-4b47-955f-629de56e9d14"/>
    <linearGradient x1="47.0586715%" y1="-3.46746313%" x2="27.1499723%" y2="88.1936512%" id="3377d187-1a3a-45d8-85a9-326a74de6860">
      <stop stop-color="#462656" offset="0%"/>
      <stop stop-color="#4B2357" offset="100%"/>
    </linearGradient>
    <linearGradient x1="-10.6861808%" y1="41.4808907%" x2="17.16651%" y2="110.678688%" id="07d83390-b810-4f9e-b65a-7c64e62cac86">
      <stop stop-color="#4C5D7F" offset="0%"/>
      <stop stop-color="#4C436D" offset="100%"/>
    </linearGradient>
    <linearGradient x1="34.078229%" y1="6.99226382%" x2="42.6705917%" y2="85.4376008%" id="840e9551-f9da-4a87-a61a-b7bb3c176d1d">
      <stop stop-color="#518EA3" offset="0%"/>
      <stop stop-color="#4E6687" offset="100%"/>
    </linearGradient>
    <linearGradient x1="45.5490155%" y1="8.80884636%" x2="108.933756%" y2="69.4782225%" id="d5ebd915-5084-4b6d-84b2-505a4302dd03">
      <stop stop-color="#EFE8CD" offset="0%"/>
      <stop stop-color="#D3CAAF" offset="100%"/>
    </linearGradient>
  </defs>
  <g fill="none" fill-rule="evenodd">
    <ellipse fill="#F2E9E9" fill-rule="nonzero" cx="87" cy="99.2601601" rx="87" ry="86.7398399"/>
    <path fill="#DDA560" fill-rule="nonzero" d="M44.7888911 157.73398l.328906-46.557506 47.0984423-12.5976141 35.8126096 12.3325811.398893 46.822539-48.2284373 13.419367z"/>
    <path fill="#CD9650" fill-rule="nonzero" d="M80.2563751 171.144662l.2733374-47.547562 47.4576855-12.582341.435838 46.722216z"/>
    <path fill="#E6BC88" fill-rule="nonzero" d="M128.033956 112.966122L92.2114334 98.4168452l16.2101116-1.3527177 33.513271 12.9638695z"/>
    <path fill="#E6BC88" fill-rule="nonzero" d="M93.6393962 142.235675l-13.1229-14.460633 47.5123528-14.811615 13.428378 15.582757zM45.1208009 113.119452l-13.7825143-1.681539L74.640943 97.8190979l17.5837067.6046352z"/>
    <path fill="#B48447" fill-rule="nonzero" d="M92.1201207 124.173884V98.720211l35.9165383 14.243515z"/>
    <path fill="#E5B67A" fill-rule="nonzero" d="M45.1093868 113.115858L31.8104695 128.45155l36.5319981 14.856536 12.1878457-15.560296z"/>
    <path fill="#B48447" fill-rule="nonzero" d="M80.5125914 127.791513l-35.4032046-14.675655 47.1068526-14.6969165 35.8216216 14.5417905z"/>
    <path fill="#A6773D" fill-rule="nonzero" d="M92.2192431 98.4168452L45.1129912 113.11466l35.403505 14.674157 11.6036245-3.770958z"/>
    <g transform="translate(17.159193 37.952131)">
      <mask id="92475717-4df5-4f9e-b512-a3ec92fa56c3" fill="#fff">
        <use xlink:href="#e9fc0945-9f63-4de6-83c9-42661dcb806e"/>
      </mask>
      <g mask="url(#92475717-4df5-4f9e-b512-a3ec92fa56c3)">
        <path stroke="#979797" stroke-width=".811434" fill="#D8D8D8" fill-rule="nonzero" d="M56.4280498 97.4244228L44.403005 99.1892147l3.2079602-8.2082442 12.0250447-1.7644925zM41.2037556 58.2944357l-7.4149536 1.1242201 1.9656265-5.0287437 7.4149537-1.1242201zM33.0447835 59.0916318l-3.9904261-5.4069777 1.98995657-5.0916329 3.99042613 5.4069776z"/>
        <path d="M55.5563737 80.9705002s-7.0109549 10.7822112-8.4860759 14.5558653c-.5749097 1.4716083.9548788 10.9481185 1.0233633 12.6718835.1075327 2.69705 1.4234572 4.199803-3.401399 4.206423-5.8557288.007755-11.0040843-1.417136-9.3817816-5.568125 1.6223027-4.1509898-4.5256869-9.4935808-.2628245-15.9810555 1.9677292-2.994127 7.5381057-13.7739423 8.7149585-17.786875.5484771-1.8702063 11.8168877 3.9350698 11.8168877 3.9350698l-.0231285 3.9668139z" fill="#4B2357"/>
        <path d="M33.6422107 77.6724492s-7.0109549 10.7822112-8.4860759 14.5558653c-.5749097 1.4716083.9548788 10.9481185 1.0233633 12.6718835.1075327 2.69705 1.4234572 4.199803-3.401399 4.206423-5.8557288.007755-11.0040843-1.417136-9.3817816-5.568125 1.6223027-4.1509898-4.5256869-9.4935808-.2628245-15.9810555 1.9677292-2.994127 7.5381057-13.7739423 8.7149585-17.786875.5484771-1.8702063 11.8168877 3.9350698 11.8168877 3.9350698l-.0231285 3.9668139z" fill="url(#c-1)" transform="translate(21.914163 3.298051)"/>
        <path d="M94.3765966 95.9522155c-2.2332569 5.7136376-2.4873706 4.2315477-7.7462626 7.8177315-.5235464.356972-1.9040506-1.3997344-2.358812-.9163856-1.884226 2.0010756-2.2482754 7.1903366-2.5132025 10.5773716-.0901112 1.15297-2.3543063 3.156142-3.7750602 3.085167-1.648435-.082355-2.9751728.36925-4.2136016-.173095-2.7084436-1.185612-5.7277709-3.921294-3.7372136-5.664524 2.3347823-2.045099-.8905994-8.3298304 3.8288267-15.5153758 2.178289-3.3166589 22.7485827-4.9245272 20.5153258.7891103z" fill="#4B2357"/>
        <path d="M26.87396575 51.1433297c2.48106283 2.6260752 6.07139505 3.8260619 7.63872985 4.8119256 1.9614214 1.2335276.5893275 3.6727319.3514339 4.3055175-1.8815227-.5135955-5.62744702-2.2340656-7.95862482-4.7682026-3.9844187-4.3312721-5.42139261-12.3203024-4.8825274-12.5443079.00690853-.0026952.01381706-.0044921.02072559-.00569.56049192-.0763655 2.22514691 5.4438128 4.83026288 8.2007574z" fill="#D3CBAF"/>
        <path d="M62.1248824 48.1420154s4.553321 4.3725993 9.8371438 5.4890332c1.437875.3039646 3.3704608.4782577 5.4102789.8696684 2.1022952.4030901 5.0981936 2.0750455 6.5901354 2.5601911 10.0954627 3.283118 20.9277349 9.8688198 27.2823796 18.4235538 6.3546447 8.554734 2.973671 12.3960689 1.849383 16.3880385-1.1242879 3.9919696-2.9057871 9.3204854-8.7789374 12.1939246-1.8442767.902012-2.1695783 3.611939-6.0332479 7.435605-3.8633693 3.823966-3.8111048 7.630262-5.3084532 10.731002-1.0978553 2.273296 1.1957761 4.681655-2.2653966 5.796292-4.0763322 1.312588-9.5641068-.819657-11.190915-4.347743-.5559864-1.205677 1.2378281-2.23197 1.3931198-3.564323.4079035-3.505327.0585723-7.708724 1.57154-11.580006 1.9806451-5.067676 1.7652792-4.516346 1.7652792-4.516346s-8.0445308-.9388471-13.0168691-4.2016009c-4.9723383-3.2630534-6.8679784-5.9639967-6.8679784-5.9639967l-6.1666126 3.5077225-.366152-.0335409s4.927583 3.774852.4361384 8.549942c-4.4914446 4.775091-6.0801058 3.567018-8.8534294 1.219752-2.602713-2.20292-6.2041589-6.9666306-5.9611589-8.6631428.5019196-3.5035299-2.4345054-5.0838467-.183827-8.6113344 1.0098467-1.5827126 8.4142873-7.8189298 8.4142873-7.8189298s-3.7369131-2.0199426-5.293735-3.4654968c-1.5568219-1.4458537-3.7555361-4.9380036-3.7555361-4.9380036l-12.37407562-6.265865L62.1248824 48.1420154z" fill="#4E587D"/>
        <path d="M40.2107194 44.8439644s4.553321 4.3725993 9.8371438 5.4890332c1.437875.3039646 3.3704608.4782577 5.4102789.8696684 2.1022952.4030901 5.0981936 2.0750455 6.5901354 2.5601911 10.0954627 3.283118 20.9277349 9.8688198 27.2823796 18.4235538 6.3546447 8.554734 2.973671 12.3960689 1.849383 16.3880385-1.1242879 3.9919696-2.9057871 9.3204854-8.7789374 12.1939246-1.8442767.902012-2.1695783 3.611939-6.0332479 7.435605-3.8633693 3.823966-3.8111048 7.630262-5.3084532 10.731002-1.0978553 2.273296 1.1957761 4.681655-2.2653966 5.796292-4.0763322 1.312588-9.5641068-.819657-11.190915-4.347743-.5559864-1.205677 1.2378281-2.23197 1.3931198-3.564323.4079035-3.505327.0585723-7.708724 1.57154-11.580006 1.9806451-5.067676 1.7652792-4.516346 1.7652792-4.516346s-8.0445308-.9388471-13.0168691-4.2016009c-4.9723383-3.2630534-6.8679784-5.9639967-6.8679784-5.9639967l-6.1666126 3.5077225-.366152-.0335409s4.927583 3.774852.4361384 8.549942c-4.4914446 4.775091-6.0801058 3.567018-8.8534294 1.219752-2.602713-2.20292-6.2041589-6.9666306-5.9611589-8.6631428.5019196-3.5035299-2.4345054-5.0838467-.183827-8.6113344 1.0098467-1.5827126 8.4142873-7.8189298 8.4142873-7.8189298s-3.7369131-2.0199426-5.293735-3.4654968c-1.5568219-1.4458537-3.7555361-4.9380036-3.7555361-4.9380036l-12.37407562-6.265865L40.2107194 44.8439644z" fill="url(#07d83390-b810-4f9e-b65a-7c64e62cac86)" transform="translate(21.914163 3.298051)"/>
        <g transform="translate(30.258244 48.142015)">
          <mask id="dee67954-db0d-43f0-976b-ab5a7182c409" fill="#fff">
            <use xlink:href="#019825d9-9cbd-407c-bdd2-5e66865f4e23"/>
          </mask>
          <g mask="url(#dee67954-db0d-43f0-976b-ab5a7182c409)">
            <path d="M53.4089322 56.6515294s2.2398651-3.4056023 3.7101801-5.6558394c1.4703151-2.250237 3.5488811-4.4564516 3.5488811-4.4564516s-7.6498436 7.2280704-11.9911028 5.5414408c-4.3412592-1.6866296-6.8896051-4.5909148-7.4185581-6.6728482-.528953-2.081634 2.1860987-7.4071551 1.9043509-11.5371816-.2820482-4.1303259-2.0190926-4.2950359-2.0190926-4.2950359s3.0688885 2.868648-1.7517625 9.4887891c-4.8209514 6.620141-6.0302442 7.0660557-6.0302442 7.0660557l5.8274939 9.2006964 14.2198542 1.3203747z" fill="#4C3D6A"/>
            <path d="M33.780301 28.018955s11.0248099-2.6075078 19.7595929.7858161c8.7344825 3.3936234 7.7889152 4.2614949 9.2559262 7.7566395 1.467011 3.4948452.5833201 6.5057426.5833201 6.5057426s4.9855546-3.8575064 9.8719868-6.604269c4.8867326-2.7464632 10.7169299-1.1610553 11.0031833 4.7544268.285953 5.9151826 9.042663-17.0247173 9.042663-17.0247173L33.6832812 6.6333179l.0970198 21.3856371z" fill="#4F6486" opacity=".5"/>
            <path d="M36.602585 3.9048231s-3.1364719 12.3861863-.7515277 15.0299304c3.59664 3.9865791 19.0684397 1.7225663 21.9288708 3.6068478 7.1362095 4.7005218 6.1449859 8.2148327 9.8584701 8.1995596 3.7134843-.0149737 4.6993012-5.1841701 12.4960261-1.4404632 7.796725 3.7440063 8.4208955 12.0663496 8.4208955 12.0663496l5.6268462-19.4384664S77.6773912 12.0283166 67.4635824 8.8311472C57.2494733 5.6339778 36.602585 3.9048231 36.602585 3.9048231z" fill="#4F728F" opacity=".5"/>
            <path d="M37.6364613 19.469911c.5938331.2308933 10.6033897-4.4345901 18.1174657-2.3849997 3.2428032.8843425 8.2388708 1.6402113 10.5445171 4.8068345 2.6312482 3.6134363 1.0957527 2.8917073 4.3223358 2.5386292 3.6786412-.4021917 7.9712404 1.5135344 3.3275078-3.7344232-4.9819502-5.6300847-19.9935818-14.9856084-19.9935818-14.9856084L25.5077887-8.1432587S36.7861116 19.1395927 37.6364613 19.469911z" fill="#507E98" opacity=".4"/>
            <path d="M21.4233465 33.8634621c2.1254238-.9005141 6.8866014-6.9738182 6.8866014-6.9738182L6.1912428 19.1737326s2.5101988 9.5244262 4.890337 11.9513521c3.2785473 3.3424136 9.520553 3.0863645 10.3417667 2.7383774z" fill="#4C3D6A"/>
            <path d="M24.1356949-42.55804978c-1.769184 1.77467457.0171211 9.99489768-4.3454644 13.99105998-4.3622852 3.9964617-11.6510831 2.3966791-17.34310979 8.0363469C-3.244906-14.8906756-5.24807888-9.7658012-5.13543983-1.1302096c.11263905 8.6355917.23549071 9.992502 6.13927883 17.7563289.975304 1.2829405-1.91786757 1.6186493-1.00984663 2.58355 2.47565615 2.6299683 6.86347283 3.916802 10.14382233 5.2794023 2.7991555 1.1625526 4.5175769 2.5176661 6.554091 3.3088726 5.2988413 2.0588741 10.4982599.3773355 10.4982599.3773355s-2.9451357 9.2878429.8437416 10.7597507c2.1437464.8328333 3.8120058-7.3122222 7.7916186-8.7802369 5.0942888-1.8791905 11.7577147-5.7238196 12.5143487-12.0187334 1.0257663-8.5364662-4.5530206-8.7646643-7.7705926-11.2733462-2.2464733-1.7513157-2.7937489-5.7801205-6.3519414-8.287904-2.4014646-1.6929185-.6890506-2.7105264-3.8606659-3.5080219C23.3766579-6.6884208 8.7392883-.2916863 8.7392883-.2916863s-3.95378089-8.7269307.4217206-12.876423c4.3752011-4.1491927 12.1812375-4.3953592 16.7754089-10.0269412 4.5941715-5.6315821 7.0833443-16.47967718 7.1683492-18.34059986.0847046-1.86092267-2.9232086-.28060581-5.2129352-.59415361-2.2894263-.3135478-1.9869529-2.20292038-3.7561369-.4282458z" fill="#4F7C96"/>
          </g>
        </g>
        <path d="M56.7380324 4.04827022c-1.769184 1.77467457-2.3269726 11.53059318-6.6892578 15.52675538-4.3625855 3.9964617-11.6513834 2.3966791-17.3434101 8.0366464-5.6920267 5.6396678-7.69519958 10.7645423-7.58256053 19.4001339.11263905 8.6355916.42742765 11.8695961 7.80813903 18.7460857 0 0-4.22381425-.1721967-2.67870684 1.5937931 2.39515674 2.7371795 6.86347284 3.916802 10.14382234 5.2794023 2.7991555 1.1625526 4.5175769 2.5176661 6.5540909 3.3088727 5.2991417 2.058874 10.49826.3773354 10.49826.3773354s-2.9451357 9.287843.8437416 10.7597507c2.1437464.8328333 3.8120058-7.3122222 7.7916186-8.7802368 5.0942888-1.8791905 11.7577147-5.7238197 12.5143487-12.0187335 1.0257663-8.5364662-4.5530206-8.7646643-7.7705926-11.2733462-2.2464733-1.7513157-2.7937489-5.7801204-6.3519414-8.2879039-2.4014646-1.6929186-7.5501205-5.2237004-12.9622016-3.5667186-5.4120811 1.6569819-7.1965841 4.1497917-10.2943082 6.1817132-.5526822.3623619-2.2215424-1.4814909-2.2215424-1.4814909s-3.9537809-8.7269307.4217206-12.8761234c4.3752011-4.1494923 12.1812375-4.3956587 16.7754089-10.0272408 4.5941715-5.631582 7.6976026-18.59634941 7.7823072-20.45727208.0847045-1.86092268-1.1930729.30037101-3.4827995-.01317679-2.2894262-.3135478-1.9869529-2.20292038-3.7561369-.4282458z" fill="#4F7C96"/>
        <path d="M34.8238694.75021922c-1.769184 1.77467457-2.3269726 11.53059318-6.6892578 15.52675538-4.3625855 3.9964617-11.6513834 2.3966791-17.3434101 8.0366464-5.6920267 5.6396678-7.69519958 10.7645423-7.58256053 19.4001339.11263905 8.6355916.42742765 11.8695961 7.80813903 18.7460857 0 0-4.22381425-.1721967-2.67870684 1.5937931 2.39515674 2.7371795 6.86347284 3.916802 10.14382234 5.2794023 2.7991555 1.1625526 4.5175769 2.5176661 6.5540909 3.3088727 5.2991417 2.058874 10.49826.3773354 10.49826.3773354s-2.9451357 9.287843.8437416 10.7597507c2.1437464.8328333 3.8120058-7.3122222 7.7916186-8.7802368 5.0942888-1.8791905 11.7577147-5.7238197 12.5143487-12.0187335 1.0257663-8.5364662-4.5530206-8.7646643-7.7705926-11.2733462-2.2464733-1.7513157-2.7937489-5.7801204-6.3519414-8.2879039-2.4014646-1.6929186-7.5501205-5.2237004-12.9622016-3.5667186-5.4120811 1.6569819-7.1965841 4.1497917-10.2943082 6.1817132-.5526822.3623619-2.2215424-1.4814909-2.2215424-1.4814909s-3.9537809-8.7269307.4217206-12.8761234c4.3752011-4.1494923 12.1812375-4.3956587 16.7754089-10.0272408 4.5941715-5.631582 7.6976026-18.59634941 7.7823072-20.45727208.0847045-1.86092268-1.1930729.30037101-3.4827995-.01317679-2.2894262-.3135478-1.9869529-2.20292038-3.7561369-.4282458z" fill="url(#840e9551-f9da-4a87-a61a-b7bb3c176d1d)" transform="translate(21.914163 3.298051)"/>
        <g transform="translate(25.118336 3.298051)">
          <mask id="2896102d-ef51-48af-9dc7-20f886f9482d" fill="#fff">
            <use xlink:href="#be432bc8-52c0-45d6-936b-1ad785960b8f"/>
          </mask>
          <g mask="url(#2896102d-ef51-48af-9dc7-20f886f9482d)">
            <path d="M31.4893356 83.1246469s2.8631345-9.0536554 6.2116682-10.9283538c3.3485337-1.8746984 11.1284379-5.7349001 9.2634355-10.3156328-1.2089924-2.9695702-8.4112835-5.8783475-11.5828988-4.4998752-1.7202236.7477831.3153893 4.141107-.7389122 6.3062938-2.9974003 6.1562581-6.6162677 16.9279876-6.6162677 16.9279876l3.462975 2.5095804z" fill="#4E567C"/>
            <path d="M32.3673195-1.5961489s7.9529177-.75467092 6.6484073 2.58325057c-.6962595 1.78186191-2.6856154 3.30647687-4.1991838 2.94201872-1.3216316-.31833936-2.2239454-2.46376099-2.3278737-2.09540971-1.9091569 6.77646582-1.2384289 14.36270542-9.8617742 18.93115982-.3322101.1629131.9284461.4498078-.2276811.5827736-.7389122.0850502-1.5249826-.8229507-1.76588-.6860917-.7788614.44292.6578121 1.5156308.1276576 1.6438051-1.117079.2704237-1.130896-2.0337184-2.3765338-1.5988842-.6557094.2287971.7244944 2.420038.0817009 2.5434207-.5842212.1123022-.641592-1.8812868-1.2339232-1.7363421-2.2245462.5447407-5.3643222 2.3529562-7.5972788 4.4375849-.4370395.4078816-1.5517155 1.786354-2.1080023 2.4410011-.1597972.1880688.9071199.8493042.7458208 1.0436619-.2084574.251557-1.6967947-.0332414-1.9004461.2165187-.2691323.3303183-.277843.4773593-.5220445.7777303-.2982682.3671534 1.0597082.6151167.7593374 1.0074258-.2586192.3378051-1.6685598.1787852-1.9262779.5327618-4.45930497 6.1227171-2.76311105 9.5714434-3.13587122 14.6726595-.75182812 10.2946698 1.10536456 14.8349737 1.10536456 14.8349737S-.58185574 60.3015413-.9350918 58.6349763c-.35323606-1.6668644-7.73815262-12.4933975-5.65027517-20.3692271C-4.49778989 30.38962 14.2063 14.2552348 14.2063 14.2552348L27.7614336 2.42397116l4.6058859-4.02012005z" fill="#5DA7B5"/>
            <path d="M32.2687978 72.9880986s.4688789-2.966276 1.7130147-4.3824819c1.2441359-1.4162058 3.0301407-3.0120953 1.4213547-3.6370946-1.6084857-.6249993-.8353312 2.4847241-2.4984844 4.1959105-1.6631531 1.7111864-7.6885914.2488617-11.8021696-1.3494235-4.1132777-1.5979857-13.8753288-7.8243204-16.1362198-7.1478118-2.26119144.6768081-3.29717034 8.4358434-3.29717034 8.4358434s22.16526264 5.9091932 24.27686934 6.1634454c2.1116068.2545517 6.3228054-2.2783875 6.3228054-2.2783875z" fill="#4C416D"/>
            <path d="M30.5711021 22.5937496s-4.3827104 2.883921-8.9732774 3.7976119c-4.5902666.9136909-7.2500501.1021201-11.781444 3.5424613-1.1384053.8639784-3.1079367 2.7976729-5.13574 5.3327084-.1760173.2201123-.9035154 1.1643494-1.0900456 1.4165053-.0717886.0970291-.82812232 1.1544669-.98942144 1.3904513-5.21233454 7.6287647-8.98048626 18.3187383 2.87695154 23.4795494 17.8990961 7.7901805-9.427438-2.342774-1.1188812-17.6569039 3.5098328-6.4692069 11.1212289-15.3988806 16.4666277-15.5294506 6.5591972-.1599184 9.7452304-5.7729331 9.7452304-5.7729331z" fill="#4D547F" opacity=".4"/>
            <path d="M5.9899571 63.2205006s-.3736613.2521559 1.7799973 1.0888824c2.1533583.8367264 9.9578929 2.6859696 9.9578929 2.6859696s-4.2343272-2.3283994-6.7796694-3.3172579c-2.5450418-.9888585-4.9582208-.4575941-4.9582208-.4575941z" fill="#4B2A5C"/>
            <path d="M15.9280254 66.0226656s5.5838932 3.1564411 8.6641958 3.7505948c3.0803026.5944531 6.0311454.2695253 6.0311454.2695253s-5.993599-2.3286989-9.0216371-3.5050272c-3.0277377-1.1763283-5.2967387-2.6542256-5.2967387-2.6542256l-.3769654 2.1391327z" fill="#4E567C"/>
            <path d="M13.3466387 43.0411391s1.1942744 4.1761453 4.9792468 5.6468551c3.7849725 1.4704105 8.5593664-4.5915137 13.2772906-5.5084988 1.7622755-.3425966 3.2845548.0326425 5.1943123.5719927 1.4988503.4234542 4.7419539 1.7291547 4.7419539 1.7291547S35.8891671 35.0589967 28.959012 34.3282835c-6.9298548-.7310125-15.6123733 8.7128556-15.6123733 8.7128556z" fill="#4F718F"/>
            <path d="M16.4017102 46.7432192c-3.8657722-.3524792-3.7936833-10.154816-4.1415126-9.8460598-2.1963114 1.9483687-.3021731 13.4711755 5.5601639 14.7756781.55088.1227838 1.0804338-.070376 1.6433286-.4186626.2216737-.1371585-.5091285-1.9052447-.2736378-2.0807356.1853288-.1383563 1.3336464 1.3212731 1.53099 1.1703389.1961422-.1503352-.5770123-1.4593299-.3658516-1.6126599.2309851-.1677047 1.4480876.8205549 1.7009998.6606365.9584833-.6052341 2.0902805-1.1107438 3.5086314-1.1832162.7214907-.0368351 2.6684942.4072827 2.6684942.4072827s-.6457972-1.3401398-.6151594-1.7333473c.1402732-1.7866535 3.113043-2.7728167 4.802028-2.8345081 5.4928809-.2006466 9.1189572 1.4326769 9.1189572 1.4326769l-3.4185201-5.2979696s-11.9091016-1.6459013-13.1919853 1.6363182c-1.2828837 3.2822196-4.6614545 5.2764076-8.5269263 4.9242278zM43.2119069 74.3372226s10.6313242-10.3464785 7.8564987-15.5156749c-2.2879244-4.2620939-12.064994-4.2752707-13.0318876-4.2186703-2.4888725.1455436-5.8695459-1.7111864-5.8695459-1.7111864s1.6958936.6324861 7.0824432-1.3919486 2.3443941-5.9981365 2.3443941-5.9981365 1.325236.1123022 2.3966586 1.6653671c.4433473.6426681 13.2520595 5.1485327 13.5004661 14.9942931.2904586 11.5060364-14.2790272 12.1759565-14.2790272 12.1759565zM20.1770708 62.8389725c-2.9295164-1.1167332-5.2841232-1.4452547-5.2841232-1.4452547s1.0155537 1.9157262 1.6000753 2.0088622c2.6775053.42585 3.757038 1.4596294 5.4991887 2.1364374 3.4095089 1.3248668-.2051533-2.0747461-.2051533-2.0747461s1.3195289.4911351-1.6099875-.6252988z" fill="#507E98"/>
            <path d="M14.3871054 59.2178098c2.6141271 2.4829272 6.2648339 3.4849625 7.8823306 4.3827813 2.0235981 1.1233217.7752571 3.627811.5692027 4.2713776-1.9073546-.4102775-5.740086-1.9226141-8.1995222-4.3219884-4.2036894-4.1009777-6.04526275-11.9845936-5.51751125-12.2367496.00660816-.0032941.01321632-.0053905.02042522-.0068878.55658709-.1063128 2.50058693 5.304558 5.24507493 7.9114669z" fill="url(#d5ebd915-5084-4b6d-84b2-505a4302dd03)" transform="translate(-6.95657 -1.66932)"/>
            <path d="M15.9009921 66.166712c.7500258-1.8492433.5367626-2.5491107.5367626-2.5491107s-.8200123 1.1954946-2.2768107.7349057c-1.6814758-.5318633-3.9078241-1.3602045-6.4657819-3.7949166-2.720158-2.5892401-4.6290144-7.4098503-4.6290144-7.4098503s.695058 4.7616141 4.8086361 8.7832315c2.4068713 2.3529562 6.158803 3.8344471 8.0262083 4.2357404z" fill="#D3CBAF"/>
            <path d="M24.1437676 57.0750236c.3994932-1.0218005 4.3043136-.2518564 6.2134704 1.4015317 1.9091569 1.6536877 2.3900505 4.0997798.2366922 5.4012877-2.1533583 1.3015078-2.0028725-1.8591259-3.6404941-3.1783026-1.6376216-1.3188773-3.2088613-2.6024168-2.8096685-3.6245168z" fill="#4E567C"/>
            <path d="M28.6637475 58.430736c.4244239.502515.6581124 1.0008374.1270568 1.4356716-.5307552.4348342-1.625006.6414703-2.04943.1386558-.4244239-.502515-.3382175-1.2625764.1928381-1.6974106.5307552-.4348342 1.3051111-.3797313 1.7295351.1230832z" fill="#020408"/>
            <path d="M28.5832481 59.0027287c-.1769184.1449447-.4349369.1266769-.5764116-.0410278-.1411743-.1671057-.1123387-.4204595.0645797-.5654042.1766181-.1446453.4346366-.1263775.5761112.0410277.1411743.1674052.1123387.420759-.0642793.5654043z" fill="#D5B8D8"/>
          </g>
        </g>
      </g>
    </g>
    <path d="M106.686903 43.0991668c0 1.4692125-1.194575 2.660215-2.668194 2.660215-1.473619 0-2.668194-1.1910025-2.668194-2.660215s1.194575-2.660215 2.668194-2.660215c1.473619 0 2.668194 1.1910025 2.668194 2.660215z" stroke="#CE6767" stroke-width=".9" fill="#CE6767" fill-rule="nonzero"/>
    <path d="M37.9933021 104.861795c0 1.469212-1.1945747 2.660215-2.6681939 2.660215-1.4736191 0-2.6681938-1.191003-2.6681938-2.660215 0-1.469213 1.1945747-2.660215 2.6681938-2.660215 1.4736192 0 2.6681939 1.191002 2.6681939 2.660215z" stroke="#5BA3B1" stroke-width=".9" fill="#5BA3B1" fill-rule="nonzero"/>
    <path d="M95.1688843 73.8954306c0 2.2328676-1.8154411 4.04288-4.0550058 4.04288s-4.0550058-1.8100124-4.0550058-4.04288c0-2.2328676 1.8154411-4.04288 4.0550058-4.04288s4.0550058 1.8100124 4.0550058 4.04288z" stroke="#5BA3B1" stroke-width=".9"/>
    <path d="M26.4753133 135.658358c0 2.232568-1.8154712 4.04288-4.0550058 4.04288-2.2395046 0-4.0550059-1.810312-4.0550059-4.04288 0-2.232868 1.8155013-4.04288 4.0550059-4.04288 2.2395346 0 4.0550058 1.810012 4.0550058 4.04288zM145.722492 84.9819059c0 4.3827814-3.563599 7.9360236-7.959826 7.9360236s-7.959827-3.5532422-7.959827-7.9360236c0-4.3830808 3.5636-7.9360236 7.959827-7.9360236s7.959826 3.5529428 7.959826 7.9360236z" stroke="#CE6767" stroke-width=".9"/>
    <path d="M83.312648 35.4141012c0 1.2374207-1.0062422 2.2406539-2.2473743 2.2406539-1.2414325 0-2.2476747-1.0032332-2.2476747-2.2406539 0-1.2377202 1.0062422-2.2409534 2.2476747-2.2409534 1.2411321 0 2.2473743 1.0032332 2.2473743 2.2409534z" stroke="#5F2A6F" stroke-width=".9"/>
    <path d="M96.7302118 63.7915249c-.1558925-.0503114-.3003708-.131169-.4247243-.2371823-.1246539-.1063128-.22678-.2359844-.3009716-.3818276l-1.5991741-3.1366759c-.1498851-.2943815-.1766181-.6357803-.0741916-.9493281.1027268-.3138472.3262027-.5740889.6211668-.7235257.2949641-.1494369.6373868-.1760899.9521754-.0739698.3144883.1024196.5755105.3249278.7256959.6193093l1.5991742 3.1366759c.1117379.219214.1558924.4668778.1267564.7112474-.0294363.2443697-.1306613.4743646-.2910593.6612355-.160398.1871704-.3730605.322532-.6106538.3890149-.2375933.0664829-.4896044.0613919-.724194-.0149736z" fill="#5F2A6F" fill-rule="nonzero"/>
    <path d="M76.0908328 15.7120391c-.0543671-.1093075-.0868071-.228288-.0949172-.3501134-.0084103-.1217955.0078097-.2440402.0468579-.3596666l.8425401-2.4911628c.0792979-.2335886.2481063-.4263291.4694796-.5357864.2216736-.1094871.4775895-.1267368.7118788-.0479755.2342892.0787913.427728.2471248.5376637.4680158.1096353.220891.1270568.4761914.0480593.7098099l-.8428404 2.4911328c-.0588727.1742032-.1682077.327084-.3141879.4392964-.1459802.1121824-.3222979.1786953-.5061248.1910934-.1841273.0123682-.3676539-.0298873-.5274511-.121496-.1597973-.0916087-.2889567-.2284377-.370958-.3931476zM128.250523 73.5312719c-.100324-.1290726-.174515-.2764132-.217769-.4342352-.042953-.1575226-.054667-.3222325-.033942-.4842472l.443348-3.490952c.041751-.3273235.212061-.6246998.473684-.8268438.261323-.202144.592932-.2925847.921238-.250958.328305.0413272.626573.2111281.829323.4719688.202751.2608406.293463.5911589.251711.9184824l-.443347 3.490952c-.030938.2440702-.133966.4734662-.295565.6594386-.1619.185673-.375464.3195373-.613357.3842234-.238194.0649855-.490205.0580977-.724194-.0200647-.233989-.0778629-.439743-.2234065-.59113-.4177643z" fill="#5BA3B1" fill-rule="nonzero"/>
    <path d="M72.7798455 29.6771048c-.8936032-1.1481779-2.751697-3.4374662-3.1088378-3.5969353-.5358616-.2391589-1.8734127-.2558095-3.3581456.161775-1.4844325.4176745-2.6645894.7174465-3.5296573.2002574-.1123387-.0673814-.1931384-.2502393-.4995167-.5234482.8473461 1.02776 2.5114003 3.212712 2.784137 3.2585313.409105.0685793 1.6268083-.0167704 3.1614027-.4288447 1.5345944-.4123738 1.9010468-.2964779 2.7126487-.2539528.5409678.0281505 1.1537243.4225559 1.837969 1.1826173z" fill="#A5597E" fill-rule="nonzero"/>
    <path d="M65.040191 29.1733919c-.3376168-.1332653-.555686-.2431718-.654508-.3297193-.6572113-.5755863-2.0998923-2.7591308-2.2152347-3.0555488-.2117614-.5448604.0630779-1.73185.5613931-3.1968999.4980148-1.4650199.8617638-2.6307768.3880791-3.5158381-.0615761-.1150574-.3201953-.4218371-.7761582-.9202793.3490309.2199327 1.6718639 1.9974522 1.7658799 2.0870245.6821421.6488673 1.1338998 1.3245972 1.1600321 1.5518071.0474586.4114154-.1030272 1.6234708-.5983387 3.1385925-.4953114 1.5150618-.398592 1.8858088-.3988924 2.6979785-.0003003.541147.2556156 1.0556409.7677478 1.5428828zM24.5140121 78.9343564c.2664289 1.5614501.7538406 4.7397527.6551989 5.1554207-.1479927.6238014-.9150797 1.7767708-2.0653196 2.7536504-1.15027.9765801-2.0424915 1.7752735-2.1915655 2.87314-.0193739.1428485.0589328.339003.0677336.7906077-.2108903-1.4380674-.7397532-4.3779898-.6123659-4.6427236.1910959-.3971006.958363-1.3766755 2.1339543-2.3996738 1.1755912-1.0232979 1.3095867-1.4165054 1.7528439-2.1388333.2955047-.4812524.3820115-1.2784485.2595203-2.3915881zM23.4327073 67.1219596c.2664289 1.5614501.7538406 4.7397527.6551988 5.1554206-.1479927.6238014-.9150796 1.7767709-2.0653196 2.7536505-1.15027.9765801-2.0424914 1.7752735-2.1915654 2.87314-.019374.1428484.0589027.339003.0677336.7906076-.2108904-1.4380673-.7397532-4.3782892-.612366-4.6427235.1910959-.3971007.9583631-1.3766755 2.1339543-2.3999734 1.1755613-1.0229983 1.3095867-1.4165053 1.7528439-2.1385337.2955048-.481552.3820116-1.278748.2595204-2.3915881z" fill="#5F2A6F" fill-rule="nonzero"/>
    <path d="M19.2731123 74.0781089c-.1051898.3809291-.1568836.6435666-.155127.7882118.0119102.9610076.6685208 3.7113639.8045888 4.0159275.2500887.5597143 1.2235004 1.1505737 2.5173776 1.7444278 1.2938773.5938542 2.3043848 1.0942729 2.6352432 2.1142765.0429831.1323669.1026067.5666021.1787807 1.3027058.0523847-.4510057-.3957385-2.8162403-.4023167-2.9590887-.0476688-1.0334799-.2476557-1.8890731-.3881391-2.0693556-.254384-.3267246-1.1725575-1.0412662-2.4991151-1.6722549-1.3265576-.6312883-1.5242317-.9717886-2.0809089-1.5362944-.3711081-.3761376-.5745793-.9526223-.6103835-1.7285558zM19.2941984 63.7436093c-.1436374.4384279.1951509 3.2040572.3608354 3.5774995.2485568.5603133.3704173.6848939 1.6547728 1.2805448 1.2843255.595651 2.2874138 1.0972676 2.6164099 2.1178702.0427728.1326664.1002938.6507539.172563 1.5542627.0548477-.2563485.076114-.5109002.0637687-.7630561-.0543971-1.1119418-.5791149-4.6460178-.70476-4.8086314-.2526418-.3270241-1.1642372-1.0427636-2.4810328-1.6755491-.8778637-.4219569-1.438716-.8496038-1.682557-1.2829406zM106.881844 116.025834c1.362482.978975 4.162839 2.90668 4.609791 2.967174.670127.090441 2.153959-.324928 3.658816-1.267967 1.504558-.943039 2.710847-1.656982 3.835735-1.365894.146281.037733.295265.213823.723293.416266-1.27207-.860983-3.82402-2.736281-4.140611-2.698547-.474586.0569-1.792613.546238-3.354241 1.499459-1.561628.953221-2.004374.944237-2.915399 1.160456-.607049.144346-1.412944-.092836-2.417384-.710947z" fill="#A5597E" fill-rule="nonzero"/>
    <path d="M115.600407 114.072374c.416914.037733.693856.088644.831426.152132.914028.422855 3.221177 2.368529 3.445253 2.658718.411809.53336.495312 1.934592.422622 3.715556-.07269 1.780664-.094317 3.187287.718187 4.011735.10543.107211.491707.362362 1.158229.765452-.457464-.129971-2.499686-1.665667-2.63275-1.733947-.965692-.495926-1.685681-1.096369-1.788708-1.338942-.18653-.439326-.415713-1.82798-.362547-3.663148.053165-1.835168-.174816-2.213702-.439443-3.111221-.176318-.598346-.627174-1.083791-1.352269-1.456335zM105.698383 109.700673c.490806.01677 2.970066 1.593494 3.245506 1.948069.41301.531863.471883.728916.405801 2.499099-.066382 1.770482-.082902 3.168719.730802 3.991371.105731.106911.573408.395303 1.402432.865176-.272737-.044322-.526851-.127575-.762041-.249461-1.037481-.537254-4.160136-2.660514-4.253551-2.877931-.187732-.43753-.42112-1.818997-.374562-3.643384.030938-1.216458-.100625-2.060671-.394387-2.532939zM140.370185 47.997041c-.076295-1.7408341-.166706-5.2740118.013216-5.7076481.269733-.650155 1.351668-1.7653909 2.858929-2.6212836 1.507561-.8558926 2.682912-1.5641453 3.026536-2.7287942.044756-.1515331-.017721-.3782339.04055-.8696684.029737 1.5973868.205454 4.8796064.014719 5.1443402-.286254.3968011-1.342057 1.3236688-2.886263 2.2253808-1.544207.9017119-1.762576 1.304802-2.396359 2.0097605-.422321.4698725-.646097 1.3191768-.671328 2.5479128z" fill="#F69279" fill-rule="nonzero"/>
    <path d="M146.343959 41.1879327c.182325-.3947048.28325-.6705191.303375-.8274427.132463-1.0445604-.222876-4.1438023-.337317-4.4980783-.209659-.6513529-1.269066-1.464421-2.706341-2.3373836-1.437274-.8729626-2.554053-1.5943921-2.788943-2.759041-.030637-.1515331-.034843-.6327856-.012315-1.4446557-.130661.479755.037246 3.124697.023429 3.2804227-.101525 1.1296106.003905 2.0930139.142376 2.3134258.250509.3991969 1.225813 1.3365461 2.695828 2.2556275 1.470315.9193809 1.651739 1.3236689 2.222744 2.0343173.38087.4737657.533158 1.1347017.457164 1.982808zM144.741481 52.3929992c.236692-.4501073.258619-3.5095193.119848-3.944054-.207857-.6516524-.332811-.8082766-1.758371-1.6812392-1.42586-.873262-2.533628-1.5946915-2.766415-2.7599394-.030337-.1512336-.019224-.7235257.033341-1.7162774-.103928.2683275-.167607.5405481-.191636.8163623-.105431 1.2155593-.025232 5.1416449.098221 5.3401952.248407.399197 1.215601 1.3368457 2.673901 2.2562265.9723.612721 1.569437 1.1757294 1.791111 1.688726zM89.4870702 26.7174172c1.2303189-1.9664269 3.6422964-6.0004724 3.6846487-6.621309.0636786-.93127-.648801-2.9359994-2.0938849-4.9207839-1.4450839-1.9848145-2.5456425-3.5800451-2.2461728-5.15581.0390482-.20483921.2688318-.4262393.5100296-1.03410876-1.0750271 1.83094546-3.4374435 5.51805196-3.356043 5.95031076.1225513.648418.9221384 2.4176721 2.3867464 4.4800201 1.4643077 2.0623479 1.4928429 2.6730324 1.8764164 3.9071889.2559159.822771.0018022 1.9542683-.7617404 3.3944919z" fill="#A5597E" fill-rule="nonzero"/>
    <path d="M85.9763363 14.8925922c.0141174-.5773831.0585723-.963583.1339654-1.1585995.5016192-1.2975249 2.9835832-4.65386398 3.3650541-4.98918344.7010654-.61637448 2.6342519-.86053449 5.1078055-.92495104 2.4735535-.06438661 4.4235608-.16441045 5.4910787-1.35894672.138771-.15527654.456263-.71043882.953076-1.66551681-.137569.6419195-2.0761625 3.59534813-2.1587645 3.7852437-.5980382 1.37523803-1.3630827 2.42210441-1.6895857 2.58633511-.5914302.2974062-2.4936784.740985-5.0408229.8372056-2.5471444.0962505-3.0502655.4451061-4.2691702.8921588-.8128034.2980052-1.443582.9634333-1.8926364 1.9962543zM80.8345889 28.9305196c-.0219271-.677407 1.9331865-4.2367286 2.3990616-4.6486232.6986625-.6178419.9659925-.717117 3.4245275-.7893199 2.4582347-.0722028 4.3965275-.1783359 5.4610416-1.3747588.1384709-.1555161.4947107-.8257358 1.0690197-2.0106291-.0363449.3795217-.127958.7369422-.2751397 1.0722617-.6485005 1.4778972-3.3013755 5.9736995-3.594237 6.1222379-.5887268.2988736-2.4804621.7480825-5.0119872.852299-1.6877836.0694776-2.8451123.328222-3.4722865.7765324z" fill="#F69279" fill-rule="nonzero"/>
    <path d="M71.2305329 8.61639542c0 1.24044541-1.0086452 2.24604438-2.2527811 2.24604438-1.2441358 0-2.252781-1.00559897-2.252781-2.24604438 0-1.24044542 1.0086452-2.24604443 2.252781-2.24604443 1.2441359 0 2.2527811 1.00559901 2.2527811 2.24604443z" stroke="#5F2A6F" stroke-width=".9" fill="#5F2A6F" fill-rule="nonzero"/>
    <path fill="#CE6767" fill-rule="nonzero" d="M54.4539224 47.7709392l4.763881 3.8227676-5.7025397 2.2017225z"/>
    <path fill="#5F2A6F" fill-rule="nonzero" d="M115.607015 26.9851457l.63168 5.8274371-5.377539-2.3682292zM38.1801327 57.0009839l.6316798 5.8274371-5.3775385-2.3682292z"/>
    <path fill="#CE6767" fill-rule="nonzero" d="M81.7002576 0l3.6846486 5.38604448-6.5207498.48846974z"/>
    <path fill="#5BA3B1" fill-rule="nonzero" d="M147.164872 99.5356748l6.00171 4.6289482-7.021769 2.867749z"/>
    <path d="M114.516969 94.9651242c-.430732-2.7665278-1.396724-8.36966-1.784803-9.019216-.582119-.9738849-2.45433-2.5203614-4.847084-3.5721091-2.392754-1.0520472-4.271273-1.9366892-5.116516-3.7092675-.109936-.2302944-.091913-.6010415-.326503-1.3661939.452358 2.5305433 1.220106 7.7542437 1.57154 8.1342744.52685.5701959 2.303544 1.8243871 4.762679 2.9411204 2.459136 1.1170327 2.891971 1.7102879 4.004544 2.6979485.741615.6585402 1.32043 1.9564544 1.736143 3.8934432z" fill="#A5597E" fill-rule="nonzero"/>
    <path d="M103.977559 85.3954775c-.379669-.5872657-.607651-1.0032331-.684546-1.2473033-.51033-1.6246388-.967494-6.5943864-.916131-7.1774596.094918-1.0715129 1.338453-2.5682769 3.097124-4.2354408 1.758671-1.6668644 3.111841-3.0303631 3.083306-4.9185378-.003905-.2452681-.147182-1.0074258-.42983-2.2858743.333111.7322105.914028 4.9466882.982212 5.1901595.492608 1.7647919.641892 3.3091721.514836 3.6853097-.230385.6810006-1.316826 2.3574482-3.107336 4.1042718-1.790811 1.7465241-1.922073 2.4218348-2.508397 3.6592556-.390782.825047-.401295 1.9001536-.031238 3.2256192zM109.707132 102.787648c-.473385-.664231-1.451392-5.4962208-1.389816-6.2104629.091913-1.0715129.219571-1.344033 1.962022-3.0091006 1.742151-1.6650676 3.082705-3.0270689 3.050866-4.9152436-.004205-.245268-.197043-1.147579-.578514-2.7063338.229784.4036891.404299.8211539.523546 1.2523944.525048 1.900453 1.626809 8.1219961 1.513869 8.4606996-.227381.6807012-1.302408 2.3562503-3.076398 4.1006782-1.18286 1.1631517-1.851185 2.1720747-2.005575 3.0273687z" fill="#5F2A6F" fill-rule="nonzero"/>
    <path d="M57.1614648 24.1839989c-.4310321-2.7667075-1.3967242-8.3699595-1.7848033-9.0192759-.582419-.9739747-2.4546302-2.5204811-4.8470836-3.5722888-2.3927538-1.0518076-4.2712728-1.93674911-5.1168166-3.70905784-.1099357-.23038427-.0916131-.60116128-.3265031-1.36622391.4526588 2.53051344 1.2204066 7.75412395 1.57154 8.13421465.5268504.5701359 2.3038441 1.8242672 4.7629799 2.9412101 2.4588354 1.1169429 2.8916697 1.710288 4.0042431 2.6979186.7419159.6584205 1.3207305 1.9562448 1.7364436 3.8935031z" fill="#A5597E" fill-rule="nonzero"/>
    <path fill="#5F2A6F" fill-rule="nonzero" d="M144.65046906 134.99382859l6.07841825 3.2735633-3.28338102 6.06024112-6.07841872-3.27356242z"/>
    <path fill="#FE9B7C" fill-rule="nonzero" d="M11.88666391 92.46872042l6.07841862 3.27356282-3.28338133 6.06024232-6.07841831-3.27356334z"/>
    <path fill="#5F2A6F" fill-rule="nonzero" d="M45.15594418 32.8500167l6.59244633-4.13481037 4.1472119 6.5727326-6.59244633 4.13481036z"/>
    <path fill="#CE6767" fill-rule="nonzero" d="M119.74041706 61.56524617l6.59244709-4.13481085 4.14721174 6.5727327-6.59244625 4.13481032z"/>
  </g>
</svg>
