<svg viewbox="0 0 15 15" xmlns="http://www.w3.org/2000/svg"><path d="M13.6363636 4.09090909V2.325L8.46136364 7.5l5.17499996 5.175v-1.7659091c0-.3765578.3052604-.6818182.6818182-.6818182.3765578 0 .6818182.3052604.6818182.6818182v3.4090909c-.0010773.0890981-.0196084.1771212-.0545455.2590909-.0691874.1666018-.20158.2989944-.3681818.3681818-.0819697.0349371-.1699928.0534682-.2590909.0545455h-3.4090909c-.3765578 0-.6818182-.3052604-.6818182-.6818182 0-.3765578.3052604-.6818182.6818182-.6818182H12.675L7.5 8.46136364 2.325 13.6363636h1.76590909c.37655778 0 .68181818.3052604.68181818.6818182 0 .3765578-.3052604.6818182-.68181818.6818182H.68181819c-.08909814-.0010773-.17712116-.0196084-.25909092-.0545455-.1666018-.0691874-.29899437-.20158-.36818182-.3681818C.01960843 14.495303.00107726 14.4072799 0 14.3181818v-3.4090909c0-.3765578.3052604-.6818182.68181818-.6818182.37655779 0 .68181818.3052604.68181818.6818182V12.675l5.175-5.175-5.175-5.175v1.76590909c0 .37655778-.30526039.68181818-.68181818.68181818C.3052604 4.77272727 0 4.46746687 0 4.09090909V.68181819C.00107726.59272004.01960843.50469702.05454545.42272726.1237329.25612547.25612546.1237329.42272727.05454545.50469703.01960843.59272005.00107726.68181818 0H4.0909091c.37655778 0 .68181818.3052604.68181818.68181818 0 .37655779-.3052604.68181818-.68181818.68181818H2.325l5.175 5.175 5.175-5.175h-1.7659091c-.3765578 0-.6818182-.30526039-.6818182-.68181818C10.2272727.3052604 10.5325331 0 10.9090909 0h3.4090909c.0890981.00107726.1771212.01960843.2590909.05454545.1666018.06918745.2989944.20158001.3681818.36818182.0349371.08196976.0534682.16999278.0545455.25909091V4.0909091c0 .37655778-.3052604.68181818-.6818182.68181818-.3765578 0-.6818182-.3052604-.6818182-.68181818z" /></svg>
