<svg width="589" height="718" xmlns="http://www.w3.org/2000/svg" xmlns:xlink="http://www.w3.org/1999/xlink"><defs><path d="M90.657 177.909C20.097 138.767 40.914 33.48 40.914 33.48S44.7 6.867 25.69 3.075C6.68-.713.973-6.412 2.895 27.8c1.923 34.215-18.697 129.268 38.358 178.653 41.679 36.075 100.761 28.445 142.615 85.445 41.671 56.746-15.982 136.536-28.649 142.579-39.905 19.032 67.306 125.692 70.634 119.704 26.495-47.681 63.817-136.669 41.665-237.628-26.687-121.632-142.636-119.66-176.861-138.644z" id="a"/><path d="M40.615 207.01c41.677 36.076 100.76 28.448 142.613 85.445 41.67 56.747-15.982 136.535-28.649 142.58-39.905 19.032-37.999 26.635-70.31 30.456-10.759 1.273-27.395 1.074-46.553.876-38.38-.4 119.087 118.828 119.087 118.828s65.082-24.469 68.41-30.458c26.495-47.68 63.817-136.67 41.665-237.625-26.689-121.634-142.636-119.66-176.861-138.646C19.455 139.325 40.274 34.038 40.274 34.038S44.06 7.425 25.05 3.632C18.394 2.306 13.37.745 9.731.745c-6.754 0-8.725 5.376-7.476 27.615 1.921 34.212-18.697 129.266 38.36 178.65z" id="c"/><path d="M40.615 207.01c41.677 36.076 100.76 28.448 142.613 85.445 41.67 56.747-15.982 136.535-28.649 142.58-39.905 19.032-37.999 26.635-70.31 30.456-10.759 1.273-27.395 1.074-46.553.876-38.38-.4 119.087 118.828 119.087 118.828s65.082-24.469 68.41-30.458c26.495-47.68 63.817-136.67 41.665-237.625-26.689-121.634-142.636-119.66-176.861-138.646C19.455 139.325 40.274 34.038 40.274 34.038S44.06 7.425 25.05 3.632C18.394 2.306 13.37.745 9.731.745c-6.754 0-8.725 5.376-7.476 27.615 1.921 34.212-18.697 129.266 38.36 178.65z" id="f"/><path d="M40.615 207.01c41.677 36.076 100.76 28.448 142.613 85.445 41.67 56.747-15.982 136.535-28.649 142.58-39.905 19.032-37.999 26.635-70.31 30.456-10.759 1.273-27.395 1.074-46.553.876-38.38-.4 119.087 118.828 119.087 118.828s65.082-24.469 68.41-30.458c26.495-47.68 63.817-136.67 41.665-237.625-26.689-121.634-142.636-119.66-176.861-138.646C19.455 139.325 40.274 34.038 40.274 34.038S44.06 7.425 25.05 3.632C18.394 2.306 13.37.745 9.731.745c-6.754 0-8.725 5.376-7.476 27.615 1.921 34.212-18.697 129.266 38.36 178.65z" id="h"/><linearGradient x1="54.105%" y1="-2.451%" x2="43.205%" y2="98.382%" id="d"><stop stop-color="#5190A5" offset="0%"/><stop stop-color="#4E6586" offset="100%"/></linearGradient></defs><g fill="none" fill-rule="evenodd"><path fill="#F2E9E9" d="M327.1 1l250.77 188.97L388.9 440.74l-250.77-188.97z"/><path fill="#65ADBB" d="M135.51 555.629l-2.193 22.196-17.915-12.544z"/><path fill="#582F6B" d="M544.641 396.439l19.759 10.348-18.342 11.911z"/><path fill="#D16F6F" d="M.952 299.601l35.318-18.779 18.778 35.318-35.318 18.78zM517.02 497.388l58.463-13.497 13.497 58.462-58.463 13.497z"/><g transform="rotate(25 -481.288 866.911)"><mask id="b" fill="#fff"><use xlink:href="#a"/></mask><g mask="url(#b)"><g transform="translate(.64 -.558)"><mask id="e" fill="#fff"><use xlink:href="#c"/></mask><path d="M40.615 207.01c41.677 36.076 100.76 28.448 142.613 85.445 41.67 56.747-15.982 136.535-28.649 142.58-39.905 19.032-37.999 26.635-70.31 30.456-10.759 1.273 72.534 119.704 72.534 119.704s65.082-24.469 68.41-30.458c26.495-47.68 63.817-136.67 41.665-237.625-26.689-121.634-142.636-119.66-176.861-138.646C19.455 139.325 40.274 34.038 40.274 34.038S44.06 7.425 25.05 3.632C18.394 2.306 13.37.745 9.731.745c-6.754 0-8.725 5.376-7.476 27.615 1.921 34.212-18.697 129.266 38.36 178.65z" fill="url(#d)" fill-rule="nonzero" mask="url(#e)"/></g><g transform="translate(.64 -.558)"><mask id="g" fill="#fff"><use xlink:href="#f"/></mask><path d="M225.215 554.737c26.493-47.68 62.823-90.132 27.44-187.246C229.807 304.78 106.202 225.026 71.976 206.04 1.418 166.898 16.758 55.91 16.758 55.91s-.02-32.313-19.031-36.104c-19.012-3.788-11.409-3.794-9.485 30.42 1.922 34.215-4.684 107.398 52.37 156.783 41.68 36.077 103.632 56.008 145.484 113.004 41.671 56.748 102.72 117.785 45.735 182.448-29.23 33.171-9.946 58.265-6.618 52.276h.002z" fill="#4E567C" fill-rule="nonzero" mask="url(#g)"/></g><g transform="translate(.64 -.558)"><mask id="i" fill="#fff"><use xlink:href="#h"/></mask><path d="M129.646 470.847c52.69-28.58 73.647-71.66 75.489-103.325 1.881-32.314-36.165-77.91-36.165-77.91l-283.314-149.983S-107.82 28.436 5.324 12.199c39.913-5.727-4.174 62.632 41.91 144.435 23.824 42.292 81.785 34.554 137.298 71.224 3.847 2.542 9.897-4.3 12.38-2.398 2.484 1.9-6.195 8.37 3.516 16.227 9.711 7.856 13.888-5.265 17.507-1.71 3.62 3.555-9.852 10.42 0 18.838 9.853 8.415 14.95-2.84 18.285 1.363 3.336 4.202-6.831 9.258-2.461 14.187 13.739 15.492 14.204 20.938 20.768 47.507 20.595 83.361 12.222 65.483 39.98 98.815 35.031 42.07 70.534 74.994 106.507 98.773l-21.441-75.64-484.797-906.75-269.13 1229.99s503.466-295.926 504-296.213z" fill="#5DA7B5" fill-rule="nonzero" mask="url(#i)"/></g></g></g><path fill="#FAFAFA" d="M206 739.87h264v164H206z"/></g></svg>
