<svg width="16" height="18" xmlns="http://www.w3.org/2000/svg"><g fill="#582F6B" fill-rule="nonzero"><path d="M10.12 5.76H1.38C.613 5.76 0 6.373 0 7.14v8.76c0 .747.613 1.38 1.38 1.38h8.76c.747 0 1.38-.613 1.38-1.38V7.14a1.403 1.403 0 00-1.4-1.38zm.23 10.12c0 .116-.095.212-.21.212H1.38a.213.213 0 01-.21-.211V7.14c0-.116.095-.212.21-.212h8.76c.115 0 .21.096.21.211v8.74z"/><path d="M14.458 0H5.702C4.934 0 4.32.614 4.32 1.382v3.226h1.152V1.382c0-.115.096-.21.211-.21h8.775c.115 0 .21.095.21.21v8.775a.213.213 0 01-.21.211h-2.074v1.152h2.074c.748 0 1.382-.614 1.382-1.382V1.382C15.84.614 15.226 0 14.458 0z"/></g></svg>