<svg width="14" height="16" xmlns="http://www.w3.org/2000/svg"><path d="M11.339 0h-6.38c-.97 0-1.787.83-1.787 1.876v.536h-.51c-.97 0-1.787.83-1.787 1.876v9.836c0 1.018.791 1.876 1.786 1.876h6.38c.97 0 1.787-.83 1.787-1.876v-.536h.51c.97 0 1.787-.83 1.787-1.876V1.876C13.125.831 12.334 0 11.339 0zm-1.66 14.097c0 .375-.28.67-.637.67h-6.38c-.358 0-.639-.295-.639-.67V4.288c0-.375.281-.67.638-.67h6.38c.358 0 .639.295.639.67v9.81zm2.298-2.412c0 .375-.281.67-.638.67h-.51V4.288c0-1.018-.792-1.876-1.787-1.876H4.32v-.536c0-.375.281-.67.638-.67h6.38c.358 0 .639.295.639.67v9.81z" fill="#582F6B"/></svg>