<svg xmlns="http://www.w3.org/2000/svg" viewBox="-50 0 641.58 588.92"><defs><mask id="b" x="180.45" y="183.2" width="323.02" height="345.52" maskUnits="userSpaceOnUse"><path d="M203.87 231.89S174 202 329.28 184.06c37.11-4.28 57.22 7.84 106.45 27.48C519.51 245 490.7 337 450.27 427.1c-26.08 58.12-11.26 64.75-14.18 73.7s-19.74 8.95-34.38 8.95-15.33-5.41-14.43-8.95c.56-2.21-3-30.09 1.84-66.5 1.8-13.5 1.8-22.49 6.29-37.78 0 0-19.14 4.14-30.57 3.59-32.38-1.56-18.53 111.88-19.38 116.95-1.8 10.61-17 12.67-29.63 11.26s-25.88-.09-23.18-7.16c4.26-11.18 11-122.85-11.45-122.85-41.36 0-1.14 118.23-3.12 122.85-2.69 6.3-18.37 6.69-34.42 6.69-10.86 0-16.36-.9-15.46-10.79a77 77 0 00-6.2-38.22c-12.8-29.58-11.37-65.48-12.7-82.32-2.22-28.35-60-100.47-5.39-164.63z" fill="#fff"/></mask><mask id="c" x="180.45" y="183.2" width="354.5" height="345.52" maskUnits="userSpaceOnUse"><g data-name="mask-2"><path data-name="path-1" d="M203.87 231.89S174 202 329.28 184.06c37.11-4.28 57.22 7.84 106.45 27.48C519.51 245 490.7 337 450.27 427.1c-26.08 58.12-11.26 64.75-14.18 73.7s-19.74 8.95-34.38 8.95-15.33-5.41-14.43-8.95c.56-2.21-3-30.09 1.84-66.5 1.8-13.5 1.8-22.49 6.29-37.78 0 0-19.14 4.14-30.57 3.59-32.38-1.56-18.53 111.88-19.38 116.95-1.8 10.61-17 12.67-29.63 11.26s-25.88-.09-23.18-7.16c4.26-11.18 11-122.85-11.45-122.85-41.36 0-1.14 118.23-3.12 122.85-2.69 6.3-18.37 6.69-34.42 6.69-10.86 0-16.36-.9-15.46-10.79a77 77 0 00-6.2-38.22c-12.8-29.58-11.37-65.48-12.7-82.32-2.22-28.35-60-100.47-5.39-164.63z" fill="#fff"/></g></mask><mask id="d" x="322.04" y="148.83" width="142.25" height="201.47" maskUnits="userSpaceOnUse"><path d="M326.06 187.26c-.19-5.17 8.9-10.13 13.48-12.53 7.57-4 26.59 0 40.31.93 40 2.57 62.82 36.17 62.82 72.85 0 29.84-17.67 28.79-42.56 51.86s-13.11 44.88-29.87 49.38c-12.71 3.42-18.57-9.84-32.41-17.27-11.89-6.39-3.54-27.49-11.55-26.38-10.83 1.48 2-46 6.62-56z" fill="#fff"/></mask><mask id="e" x="319.79" y="170.76" width="125.12" height="181.8" maskUnits="userSpaceOnUse"><g data-name="mask-4"><path data-name="path-3" d="M326.06 187.26c-.19-5.17 8.9-10.13 13.48-12.53 7.57-4 26.59 0 40.31.93 40 2.57 62.82 36.17 62.82 72.85 0 29.84-17.67 28.79-42.56 51.86s-13.11 44.88-29.87 49.38c-12.71 3.42-18.57-9.84-32.41-17.27-11.89-6.39-3.54-27.49-11.55-26.38-10.83 1.48 2-46 6.62-56z" fill="#fff"/></g></mask><mask id="f" x="138.3" y="135.1" width="141.29" height="158.11" maskUnits="userSpaceOnUse"><path d="M276.47 191a14 14 0 002.17-13.86c-3.05-7.54-12.86-16.76-23.88-22.92-20.26-11.31-55.93-12.55-74.34-11.48-22.24 1.29-30 6.11-35 25.2-5.38 20.54 9.28 40.6 5 58.32-4.06 16.78-5 25.09 0 55.14s12.95-7.66 44.18 0c12 2.94 6.62-2.77 11.69 2.74 6.85 7.42 25.76-37.31 28.29-47.77l42-45.37z" fill="#fff"/></mask><mask id="g" x="57.74" y="161.78" width="309.96" height="221.65" maskUnits="userSpaceOnUse"><path d="M274.18 349.41c-15.2 1.14-52.69 22.44-65.35 26.73-24.57 8.32-52.88 12.28-92.3-3.49C75.79 356.35 67 328 65.29 310.47 64.71 304.53 57.15 265 67 273s18.49-6.21 25.15 6.24c10 18.71-11.23 65.3 46.27 67.07 31.31 1 38.74-15.46 41.56-24 8-24.23-6.9-41.49-6.93-67.56a71 71 0 013-20.11c1.29-4.4 6.75-5.75 8.46-9.84 2.7-6.44 2-15.37 5.62-20.95 17.11-26 44.25-41.93 76.2-42.06 8.46 0 14.8 4 23.42 6.27 10 2.69 26.36 3.82 34.91 9.36a98.45 98.45 0 0142.85 62.33c1.64 7.75-5.39 13.18-5.65 21.11-.25 7.46 6.38 17.43 4.42 24.75-11.53 43-49.76 60.64-92 63.81z" fill="#fff"/></mask><mask id="h" x="61.97" y="130.31" width="335.63" height="253.12" maskUnits="userSpaceOnUse"><g data-name="mask-8"><path data-name="path-7" d="M274.18 349.41c-15.2 1.14-52.69 22.44-65.35 26.73-24.57 8.32-52.88 12.28-92.3-3.49C75.79 356.35 67 328 65.29 310.47 64.71 304.53 57.15 265 67 273s18.49-6.21 25.15 6.24c10 18.71-11.23 65.3 46.27 67.07 31.31 1 38.74-15.46 41.56-24 8-24.23-6.9-41.49-6.93-67.56a71 71 0 013-20.11c1.29-4.4 6.75-5.75 8.46-9.84 2.7-6.44 2-15.37 5.62-20.95 17.11-26 44.25-41.93 76.2-42.06 8.46 0 14.8 4 23.42 6.27 10 2.69 26.36 3.82 34.91 9.36a98.45 98.45 0 0142.85 62.33c1.64 7.75-5.39 13.18-5.65 21.11-.25 7.46 6.38 17.43 4.42 24.75-11.53 43-49.76 60.64-92 63.81z" fill="#fff"/></g></mask><filter id="a" height="180%" y="-40%" x="-40%" width="180%"><feGaussianBlur stdDeviation="23"/></filter></defs><g data-name="Layer 2"><circle cx="479.4" cy="183.2" r="66.91" fill="#582f6b"/><path transform="rotate(-23.53 230.029 444.573)" filter="url(#a)" fill="#d2d2d2" d="M28.81 280.36h182.28v182.28H28.81z"/><path fill="#ce6767" d="M-.018 324.347l167.124-72.772L239.878 418.7 72.754 491.47z"/><path fill="#582f6b" d="M86.25 88.61l-20.09 20.57 27.87 7.11-7.78-27.68z"/><path fill="#fe9b7c" d="M190.59 568.18l7.33 20.74 14.3-16.71-21.63-4.03zM569.96 140.57l7.32 20.75 14.3-16.71-21.62-4.04z"/><path fill="#ffe1d7" d="M358.22 0l7.33 20.75 14.3-16.72L358.22 0z"/></g><g data-name="Layer 1"><path d="M480.2 307.46c-7.24 0 8.5 8.78 4.62 23.4-3.19 12 2.71 17.13 6.82 19.78 15.28 9.89 26.08-3.6 26.08-3.6" fill="none" stroke="#26101a" stroke-linecap="round" stroke-width="4.5"/><path data-name="Path" d="M482.41 307.46c-7.07 0-5.16 33.89 9.23 43.18 4.72 3.06 9 4.07 12.69 3.6 18.78-2.7 24.18 6.29 24.18 6.29" fill="none" stroke="#26101a" stroke-linecap="round" stroke-width="4.5"/><path data-name="Path" d="M480.2 307.46c-1.25 9.93-2.95 33.89 11.44 43.18 4.72 3.06 9 4 12.68 3.6 13.39-1.8 15.19 9 15.19 9" fill="none" stroke="#26101a" stroke-linecap="round" stroke-width="4.5"/><path data-name="Path" d="M391.39 389.85s-16.77 15.5-17.53 16.19c-9 8.1-17.54 21.59-17.09 89.06.1 14.39-50.81 6.3-50.81 6.3l18.89-110.65 66.54-.9z" fill="#4c3d6a" stroke="#26101a" stroke-width="3.6"/><g data-name="Path"><path data-name="path-1" d="M203.87 231.89S174 202 329.28 184.06c37.11-4.28 57.22 7.84 106.45 27.48C519.51 245 490.7 337 450.27 427.1c-26.08 58.12-11.26 64.75-14.18 73.7s-19.74 8.95-34.38 8.95-15.33-5.41-14.43-8.95c.56-2.21-3-30.09 1.84-66.5 1.8-13.5 1.8-22.49 6.29-37.78 0 0-19.14 4.14-30.57 3.59-32.38-1.56-18.53 111.88-19.38 116.95-1.8 10.61-17 12.67-29.63 11.26s-25.88-.09-23.18-7.16c4.26-11.18 11-122.85-11.45-122.85-41.36 0-1.14 118.23-3.12 122.85-2.69 6.3-18.37 6.69-34.42 6.69-10.86 0-16.36-.9-15.46-10.79a77 77 0 00-6.2-38.22c-12.8-29.58-11.37-65.48-12.7-82.32-2.22-28.35-60-100.47-5.39-164.63z" fill="#4f728f" stroke="#26101a" stroke-width="4.5"/></g><g mask="url(#b)"><path data-name="Path-2" d="M430.39 252.61q33.47 12.33 38.24 33.59t0 97.48q34.83-108 34.84-109.95t-44.63-59.9l-51.73-11.09 23.28 49.87z" fill="#4f6486"/></g><g mask="url(#c)"><path d="M488.26 310.89Q492 265.83 464.81 240T409 218.08l39.86-27.94 86.08 83.59-46.68 37.16z" fill="#5da7b5"/></g><path data-name="Path" d="M212.19 440.43c29.92-7.29-4.59-31.21 24.6-54 1.18-.92 5.89-4.15 8.06-5.52 12.86-8.15 27.57-13.83 43.76-14.13 11.76-.2 26.4-11.3 37.47-13.24 13.51-2.36 18.92 5.74 28.6 2.88 2.64-.79 14.53 4.62 15.93 4.1 13.44-5 19.16-17.87 25.38-22.71C473 277.9 377.92 192.07 316.74 198S203.4 369.66 203.4 369.66l8.79 70.76z" fill="#4f597e"/><path d="M203.87 231.89S174 202 329.28 184.06c37.1-4.29 57.22 7.84 106.45 27.48 57.4 22.91 61.95 73.32 46.12 131.77-7.27 26.87-18.85 55.42-31.58 83.79-26.08 58.12-11.27 64.75-14.18 73.7s-19.74 8.95-34.38 8.95-15.33-5.41-14.43-8.95c.56-2.21-3-30.09 1.84-66.5 1.8-13.5 1.8-22.49 6.29-37.78 0 0-19.14 4.14-30.57 3.59-32.38-1.56-18.53 111.88-19.38 116.95-1.8 10.61-17 12.67-29.63 11.26s-25.88-.09-23.18-7.16c4.26-11.18 11-122.85-11.45-122.85-41.36 0-1.14 118.23-3.12 122.85-2.69 6.3-18.37 6.69-34.43 6.69-10.85 0-16.35-.9-15.45-10.79a77 77 0 00-6.2-38.22c-12.8-29.58-11.37-65.48-12.7-82.32-2.22-28.35-60-100.47-5.39-164.63z" fill="none" stroke="#26101a" stroke-width="4.5"/><path data-name="Path" d="M396.42 452.48a32 32 0 0012.49.3" fill="none" stroke="#26101a" stroke-linecap="round" stroke-linejoin="round" stroke-width="4.5"/><path d="M395.42 459.67a47.68 47.68 0 0015.28.31" fill="none" stroke="#26101a" stroke-linecap="round" stroke-linejoin="round" stroke-width="4.5"/><g><path data-name="Path" d="M207.07 293.21a102.67 102.67 0 01-23.91 23.67c-25 17.12-64.44 9.44-62.94 15.41.74 3 43.09 10.73 66.09 0 14.42-6.73 30-17.09 30-17.09l-9.26-22z" fill="#e1d9be" stroke="#26101a" stroke-width="4.5"/><path data-name="path-3" d="M326.06 187.26c-.19-5.17 8.9-10.13 13.48-12.53 7.57-4 26.59 0 40.31.93 40 2.57 62.82 36.17 62.82 72.85 0 29.84-17.67 28.79-42.56 51.86s-13.11 44.88-29.87 49.38c-12.71 3.42-18.57-9.84-32.41-17.27-11.89-6.39-3.54-27.49-11.55-26.38-10.83 1.48 2-46 6.62-56z" fill="#4f728f" stroke="#26101a" stroke-width="4.5"/><g mask="url(#d)"><path data-name="Path-5" d="M322.58 190.14q18.06-7 26.08-8.55c8-1.51 22.94 2.95 28.82 2.95s28 4.8 35.92 12.81 26.75 24.12 26.75 65.2q0 41.08 24.14-59.83l-86.81-53.89-54.9 18.09z" fill="#5da7b5"/></g><g mask="url(#e)"><path data-name="Path" d="M326.06 187.26c-.19-5.17 8.9-10.13 13.48-12.53 7.57-4 26.59 0 40.31.93 40 2.57 62.82 36.17 62.82 72.85 0 29.84-17.67 28.79-42.56 51.86s-13.11 44.88-29.87 49.38c-12.71 3.42-18.57-9.84-32.41-17.27-11.89-6.39-3.54-27.49-11.55-26.38-10.83 1.48 2-46 6.62-56z" fill="none" stroke="#26101a" stroke-width="4.5"/></g><g data-name="Path"><path data-name="path-5" d="M276.47 191a14 14 0 002.17-13.86c-3.05-7.54-12.86-16.76-23.88-22.92-20.26-11.31-55.93-12.55-74.34-11.48-22.24 1.29-30 6.11-35 25.2-5.38 20.54 9.28 40.6 5 58.32-4.06 16.78-5 25.09 0 55.14s12.95-7.66 44.18 0c12 2.94 6.62-2.77 11.69 2.74 6.85 7.42 25.76-37.31 28.29-47.77l42-45.37z" fill="#4f728f" stroke="#26101a" stroke-width="4.5"/></g><g mask="url(#f)"><path d="M257.26 158.57q-15-4.38-25.5-4.38c-10.54 0-15.31.38-41.93-5.34s-42.33 9.73-46.83 24.79-1 14.93-4.41-11.8q-3.42-26.73 41.92-26.74l82.07 6.06z" fill="#5da7b5"/></g><path d="M276.47 191a14 14 0 002.17-13.86c-3.05-7.54-12.86-16.76-23.88-22.92-20.26-11.31-55.93-12.55-74.34-11.48-22.24 1.29-30 6.11-35 25.2-5.39 20.54 9.27 40.6 5 58.32-4.05 16.78-5 25.09 0 55.14s12.95-7.66 44.17 0c12 2.94 6.62-2.77 11.69 2.74 6.86 7.42 25.76-37.31 28.29-47.77l42-45.37z" fill="none" stroke="#26101a" stroke-width="4.5"/><path data-name="Path" d="M274.18 349.41c-15.2 1.14-52.69 22.44-65.35 26.73-24.57 8.32-52.88 12.28-92.3-3.49C75.79 356.35 67 328 65.29 310.47 64.71 304.53 57.15 265 67 273s18.49-6.21 25.15 6.25c10 18.7-11.23 65.29 46.27 67.06 31.31 1 38.73-15.46 41.56-24 8-24.23-6.9-41.49-6.93-67.56a71 71 0 013-20.11c1.28-4.4 6.75-5.75 8.46-9.84 2.7-6.44 2-15.37 5.62-20.95 17.11-26 44.25-41.93 76.2-42.06 8.46 0 14.8 4 23.42 6.27 10 2.69 26.36 3.82 34.91 9.36a98.45 98.45 0 0142.85 62.33c1.64 7.75-5.39 13.18-5.66 21.11-.24 7.46 6.39 17.43 4.43 24.75-11.53 43-49.76 60.64-92 63.81z" fill="#4f728f" stroke="#26101a" stroke-width="4.5"/><path data-name="Path" d="M271.78 162s-35.81-1.85-50.17 51.75c-8.39 31.28 22.77 46.81 6.39 73.42-2.52 4.1-31.65 7.18-31.58 11.77.05 3.18 21.56 1.89 27.61 8.58s7.29 10.51 10.41 16.3c.59 1.09-13.81-13.49-24.91-16.45-12-3.21-20.69 5.17-15.28 6.62 3.66 1 8.64-1.57 13.53-.11q9 2.68 18 17.87-16.8-8.35-21.29-9.43c-11.87-2.82-12.88 1.68-14.15 2.73-2.48 2 17.29 4.86 16.44 8.13-2.07 8-22.38 18.14-28.72 22.16-10.57 6.7-36 .52-57.39-4.72-7.28-1.78 71.7 17.35 60.32-58.34-1.22-8.16-7.55-20-7.4-33.18 0 0-3.4-17.36 2.26-24.08 11.53-13.66 14-33.11 29-47 35.97-33.18 66.93-26.02 66.93-26.02z" fill="#4f6486"/><path data-name="path-7" d="M274.18 349.41c-15.2 1.14-52.69 22.44-65.35 26.73-24.57 8.32-52.88 12.28-92.3-3.49C75.79 356.35 67 328 65.29 310.47 64.71 304.53 57.15 265 67 273s18.49-6.21 25.15 6.24c10 18.71-11.23 65.3 46.27 67.07 31.31 1 38.74-15.46 41.56-24 8-24.23-6.9-41.49-6.93-67.56a71 71 0 013-20.11c1.29-4.4 6.75-5.75 8.46-9.84 2.7-6.44 2-15.37 5.62-20.95 17.11-26 44.25-41.93 76.2-42.06 8.46 0 14.8 4 23.42 6.27 10 2.69 26.36 3.82 34.91 9.36a98.45 98.45 0 0142.85 62.33c1.64 7.75-5.39 13.18-5.65 21.11-.25 7.46 6.38 17.43 4.42 24.75-11.53 43-49.76 60.64-92 63.81z" fill="none" stroke="#26101a" stroke-width="4.5"/><g mask="url(#g)"><path data-name="Path-4" d="M61.66 279.41q2.28 5.11 8.35 3.41c6.06-1.7 13-6.06 16.21-3.41s6 8.46 6 20.89-1.87 49.15 38.83 51.52q40.71 2.37 45.56-19.41l-84.38-75.35-34.49 9 3.92 13.39z" fill="#5da7b5"/></g><g mask="url(#h)"><path d="M229.48 168.36q41.6-7.11 41.59 2.7c0 9.8-8.87 3.1-5.7 5.75s32.8-9.25 57.21 6.39q24.42 15.63 38.14 38.18l36.88-15.72-84.38-75.35-34.49 9-49.25 29.09z" fill="#5da7b5"/></g><path data-name="Path" d="M213.71 274.54c1-3.6-1.41-6.43-5-7.4s-7.07.31-8 3.91a6.74 6.74 0 1012.95 3.76 2.76 2.76 0 00.05-.27zm76.1 20.65c3-5.56-1-10.23-6.76-10.74a6.76 6.76 0 00-7 4.1c-2 5.2 1.87 12.66 8.42 11a8.56 8.56 0 005.32-4.33z" fill="#26101a"/><path data-name="Path" d="M188.79 327.46a28.54 28.54 0 0114 .55c7.14 2.28 11.89 7.5 13.26 12.35M86.22 283.45s-2.9 3.55-6.55 4.66c-6.08 1.86-9.63-1-9.63-1m123.11 27.59q7.86-2.62 16.82.9c10.16 4 15.93 11.39 16.5 16.2m-29-29.9q7.16-3.15 18.91 1.79c11.76 5 17.79 15.38 17.79 21.08" fill="none" stroke="#26101a" stroke-linecap="round" stroke-width="4.5"/><path d="M316.54 289.36c2.81 8.91-2 19.18-11.4 21.32M82.93 337.49a12.71 12.71 0 01-9.13.13M89.23 346.48a12.69 12.69 0 01-9.14.13M97.32 355.48a12.71 12.71 0 01-9.13.13M181.82 253.27c-6.88 6.31-6.37 18-5.56 26.13" fill="none" stroke="#26101a" stroke-linecap="round" stroke-width="4.5"/><path data-name="Path" d="M163.32 163.3c2.68-10 17.39-15.42 33.19-11.18 25.92 6.94 41.68-4.7 63.8 9.18" fill="none" stroke="#26101a" stroke-linecap="round" stroke-width="4.5"/><path data-name="Path" d="M316.18 338.28s16-6.81 23.89-4.7c6.17 1.66 22.88-27 49.05-41.42 26.66-14.65 40.75-49.18 21.59-45.73-10.27 1.85-18.81 3.75-25 1.8-5.72-1.8-6.46-10.06-13.66-27.78s-17.37-7.18-6.43 19.27c1.89 4.54-4 32.13-4.92 37.79-3.16 18.65-7.3 13.53-11.68 22.64-13.32 27.72-32.85 38.13-32.85 38.13z" fill="#4e567c"/><path data-name="Path" d="M61.46 285.29c0-6 7.26 5.09 12.91 4.6 7.84-.69-1.52 20.8 5.7 34.73s16.17 34.92 51.44 42c54.79 10.95 76.87-2.69 103.41-11.41A120.44 120.44 0 01271 349s-16.39 3.06-28 11.13-54.83 23.51-75.24 23.51-60.1-10.57-77.17-24.1-23.45-35.38-26.23-49.1l-1.77-5.54v-9.06z" fill="#4d4c75"/><ellipse cx="280.62" cy="288.48" rx="2.7" ry="2.25" transform="rotate(-75 280.612 288.484)" fill="#c3e5d7"/><ellipse data-name="Oval" cx="205.08" cy="269.83" rx="1.62" ry="1.35" transform="rotate(-75 205.085 269.83)" fill="#c3e5d7"/><path data-name="Path" d="M205.2 177.73c-12 8.73-20.16 16.06-26.88 26.22-2.56 3.87-3.11 9.59-5.38 14.52-1.53 3.31-5.44 5.24-6.33 9.46-8.44 40-4.46 63.75-4.46 63.75l13.44-8.38v-7s-6.11-24.36.28-41.28c1.83-4.83 4.36-5.26 7-10.71 6.5-13.62 15.22-32.84 27.52-41.52A196.08 196.08 0 01244.26 164c-2.15-.25-23.09 2.13-39.06 13.75z" fill="#4f597e"/><path data-name="Path" d="M244.26 164c-2.15-.25-23.51-2.57-39.51 1.52-23.54 6-42.17 17.39-44.14 43.12-2.44 31.94-7 83.06-7 83.06h8.52v-19.33s-.66-25.33 5.73-42.24 18.94-35.91 36.16-48.06c16.61-11.73 40.24-18.07 40.24-18.07z" fill="#4f6486"/><path d="M274.18 349.41c-15.2 1.14-52.69 22.44-65.35 26.73-24.57 8.32-52.88 12.28-92.3-3.49C75.79 356.35 67 328 65.29 310.47 64.71 304.53 57.15 265 67 273s18.49-6.21 25.15 6.25c10 18.7-11.23 65.29 46.27 67.06 31.31 1 38.73-15.46 41.56-24 8-24.23-6.9-41.49-6.93-67.56a71 71 0 013-20.11c1.28-4.4 6.75-5.75 8.46-9.84 2.7-6.44 2-15.37 5.62-20.95 17.11-26 44.25-41.93 76.2-42.06 8.46 0 14.8 4 23.42 6.27 10 2.69 26.36 3.82 34.91 9.36a98.45 98.45 0 0142.85 62.33c1.64 7.75-5.39 13.18-5.66 21.11-.24 7.46 6.39 17.43 4.43 24.75-11.53 43-49.76 60.64-92 63.81z" fill="none" stroke="#26101a" stroke-width="4.5"/><path data-name="Path" d="M273.12 339.59c4.45 2.13 3.72 7 1.66 11.43-3.2 6.81-12.15 20.62-20.64 28.87-16.8 16.3-64.6 34.34-67.84 29.26-2-3 44.3-27 52.88-36.44a103.67 103.67 0 0019.44-32.4s3.61-5.22 12.81-1.46c.59.29 1.17.5 1.69.74z" fill="#e1d9be" stroke="#26101a" stroke-linecap="round" stroke-linejoin="round" stroke-width="4.5"/><path data-name="Path" d="M260.33 328l-3.09 15m5.29-163.81s12.47-15.28 38.53-8.3M285.69 337.6l-6.5 10.4" fill="none" stroke="#26101a" stroke-linecap="round" stroke-width="4.5"/></g><path data-name="Path" d="M219.26 472.27a16 16 0 0012.48-2.89m-9.74 9.19a16 16 0 0012.48-2.89m74.64-10.8a16.92 16.92 0 0013.49.9m26.08-48.57c3.6-19.79 11.16-36.89 12.06-54m28.41 68.37c2.7-46.78 24.28-49.48 16.19-83.66M309.08 473s8.18 3.95 15.29.9" fill="none" stroke="#26101a" stroke-linecap="round" stroke-linejoin="round" stroke-width="4.5"/><g><path d="M407.11 173.33a35.28 35.28 0 0110.89 5.19c4.86 3.46 11.27 9.91 12.09 11.62" fill="none" stroke="#26101a" stroke-linecap="round" stroke-width="2.7"/></g><g><path data-name="Path-3" d="M75.31 169.69c3.69-1.36 6.71-1.68 9.09-1a20.56 20.56 0 017.86 4.9" fill="none" stroke="#26101a" stroke-linecap="round" stroke-width="2.7"/></g><g data-name="Group-4" stroke="#26101a"><g stroke-linejoin="round" stroke-width="4.5"><path d="M52.91 182.54l36.62 21.8-19.11 39.34-36.62-23.6z" fill="#a5597e"/><path data-name="Rectangle" d="M89.53 204.34l26.37-7.45-19.11 36.64-26.37 10.15z" fill="#d06868"/><path d="M80.17 176l35.73 20.9-26.37 7.45-36.63-21.81z" fill="#f59178"/></g><path data-name="Path-3" d="M114.13 188.63q7.64 4.85 7.64 7.51t-3.43 8.59" fill="none" stroke-linecap="round" stroke-width="2.7"/></g></g></svg>