<svg width="127" height="118" xmlns="http://www.w3.org/2000/svg" xmlns:xlink="http://www.w3.org/1999/xlink"><defs><linearGradient x1="50%" y1="0%" x2="50%" y2="100%" id="a"><stop stop-color="#4B2357" offset="0%"/><stop stop-color="#4C446D" offset="100%"/></linearGradient><linearGradient x1="50%" y1="0%" x2="50%" y2="100%" id="b"><stop stop-color="#D3CBAF" offset="0%"/><stop stop-color="#EFE8CD" offset="100%"/></linearGradient><linearGradient x1="50%" y1="-7.809%" x2="50%" y2="100%" id="d"><stop stop-color="#4E567C" offset="0%"/><stop stop-color="#4E5C80" offset="100%"/></linearGradient><linearGradient x1="50%" y1="-10.848%" x2="50%" y2="100%" id="g"><stop stop-color="#8AC4D2" offset="0%"/><stop stop-color="#4E5C80" offset="100%"/></linearGradient><linearGradient x1="50%" y1="-10.848%" x2="50%" y2="100%" id="l"><stop stop-color="#507E98" offset="0%"/><stop stop-color="#4C436D" offset="100%"/></linearGradient><path d="M50.092.126C56.544.132 58.034 1.68 61.38 1.68S63.35.543 70.654.543c2.51 0 4.696.62 6.572 1.571 9.116.504 16.985 1.342 23.608 2.514 10.52 1.861 20.517 5.835 23.966 15.8 3.09 8.93-7.713 15.524-11.953 25.385-4.24 9.86-5.035 20.186-10.647 27.198-5.613 7.012-6.267-1.827-10.21-5.953-3.942-4.125-5.716-4.178-9.806-4.125-.696.009-1.306-.073-1.83-.245.794 3.174 1.095 4.84 1.095 5.483v1.959c-1.679-.29-3.18-.29-4.504 0-1.987.435-3.095.843-3.095 2.068s-.847.738-1.497 4.641c-.649 3.904-2.55 20.857-2.55 22.656 0 1.798-.282 14.745-1.435 15.975-1.152 1.23-2.007 2.13-5.708 2.13-3.7 0-6.003-1.687-6.992-3.567-.988-1.881-1.781-21.173-1.781-23.045 0-1.873-.969-14.201-.969-15.815 0-1.613-1.188-4.5-1.47-4.5-.281 0-.836.835-1.356 0-.52-.835-2.103-2.128-3.577-2.502a34.142 34.142 0 00-3.215-.642V66.47c0-.378.157-1.53.412-2.97-.446.11-.95.16-1.508.153-4.09-.053-5.864 0-9.806 4.125-3.943 4.126-4.597 12.965-10.21 5.953S15.78 56.394 11.541 46.533C7.3 36.673-2.37 33.377.72 24.447 4.169 14.482 9.525 4.783 20.045 2.921c5.796-1.025 13.345-1.243 22.648-.651 2.096-1.258 4.578-2.146 7.4-2.144z" id="c"/><path d="M61.409.77c3.345 0 7.186-1.378 13.373.59 6.187 1.969 7.737 4.43 9.89 7.83 2.154 3.4 1.315 3.617 2.989 9.204 1.674 5.587 3.178 6.378 3.178 11.38 0 5.003-2.386 17.234-6.166 18.722-3.78 1.488-6.97 4.264-5.376 10.147 1.595 5.884 2.63 9.216 2.112 10.177-.345.64-.766 1.07-1.264 1.286.194-2.17-.372-3.111-1.697-2.821-1.986.435-3.666 5.05-3.666 6.275 0 1.225-1.78-.624-2.429 3.28-.649 3.903-2.55 20.856-2.55 22.655 0 1.798-.282 14.745-1.435 15.975-1.152 1.23-2.007 2.13-5.708 2.13-3.7 0-6.003-1.687-6.992-3.567-.988-1.881-1.781-21.173-1.781-23.045 0-1.873-.969-14.201-.969-15.815 0-1.613-1.293-4.228-2.244-3.38-.95.849-.69-.852-1.21-1.687-.52-.835-1.413-3.87-2.56-3.87-.765 0-1.36.613-1.784 1.84-1.29.172-1.936-.092-1.936-.791 0-1.05 1.343-8.984 2.531-11.526 1.189-2.542-4.874-8.845-6.749-9.72-1.875-.873-8.43-11.199-6.058-19.219 2.372-8.02 1.17-4.183 2.118-9.03.949-4.847-.752-6.848 1.594-9.935C38.966 4.768 44.516.253 50.092.127 55.668 0 58.062.769 61.41.769z" id="f"/><path d="M50.092.126C56.544.132 58.034 1.68 61.38 1.68S63.35.543 70.654.543c2.51 0 4.696.62 6.572 1.571 9.116.504 16.985 1.342 23.608 2.514 10.52 1.861 20.517 5.835 23.966 15.8 3.09 8.93-7.713 15.524-11.953 25.385-4.24 9.86-5.035 20.186-10.647 27.198-5.613 7.012-6.267-1.827-10.21-5.953-3.942-4.125-5.716-4.178-9.806-4.125-.696.009-1.306-.073-1.83-.245.794 3.174 1.095 4.84 1.095 5.483v1.959c-1.679-.29-3.18-.29-4.504 0-1.987.435-3.095.843-3.095 2.068s-.847.738-1.497 4.641c-.649 3.904-2.55 20.857-2.55 22.656 0 1.798-.282 14.745-1.435 15.975-1.152 1.23-2.007 2.13-5.708 2.13-3.7 0-6.003-1.687-6.992-3.567-.988-1.881-1.781-21.173-1.781-23.045 0-1.873-.969-14.201-.969-15.815 0-1.613-1.188-4.5-1.47-4.5-.281 0-.836.835-1.356 0-.52-.835-2.103-2.128-3.577-2.502a34.142 34.142 0 00-3.215-.642V66.47c0-.378.157-1.53.412-2.97-.446.11-.95.16-1.508.153-4.09-.053-5.864 0-9.806 4.125-3.943 4.126-4.597 12.965-10.21 5.953S15.78 56.394 11.541 46.533C7.3 36.673-2.37 33.377.72 24.447 4.169 14.482 9.525 4.783 20.045 2.921c5.796-1.025 13.345-1.243 22.648-.651 2.096-1.258 4.578-2.146 7.4-2.144z" id="h"/><path d="M29.19 0c3.345 0 3.773.303 9.695.303 5.922 0 11.28 3.497 14.105 8.747 2.825 5.25 2.095 4.68 3.621 9.767 1.526 5.087 2.545 5.79 2.545 10.785S56.77 46.81 52.99 48.295c-3.78 1.486-7.225 4.883-5.375 10.132 1.85 5.248 3.47 9.522 2.954 10.482-.345.64-.321 1.429.071 2.368-.692-.29-1.7-.29-3.025 0-1.987.434-4.188.656-4.188 1.88 0 1.223-2.106-.46-2.755 3.438-.65 3.898-2.55 20.825-2.55 22.62 0 1.796-.282 14.723-1.435 15.952-1.152 1.228-2.007 2.126-5.707 2.126-3.7 0-6.002-1.684-6.991-3.562-.989-1.878-1.782-21.14-1.782-23.01 0-1.87-.968-14.178-.968-15.79 0-1.61-1.457-3.894-2.408-3.047-.95.847-1.291-.768-1.812-1.602-.52-.833-.85-1.373-2.204-1.373-.903 0-1.579-.355-2.028-1.064-.854.172-1.281-.091-1.281-.79 0-.527.244-3.042.734-5.491.483-2.414 1.207-4.757 1.797-6.017 1.188-2.538-4.874-8.831-6.749-9.704-1.874-.873-8.548-8.73-6.985-17.176 1.563-8.447 1.563-7.221 2.545-12.232.982-5.01-.251-5.636 2.095-8.718C7.288 4.635 11.53 0 18.413 0H29.19z" id="k"/><radialGradient cx="50%" cy="29.493%" fx="50%" fy="29.493%" r="54.772%" gradientTransform="scale(-.9381 -1) rotate(3.573 9.44 -16.56)" id="i"><stop stop-color="#4E567C" stop-opacity="0" offset="0%"/><stop stop-opacity=".139" offset="25.82%"/><stop stop-opacity="0" offset="100%"/></radialGradient></defs><g fill="none" fill-rule="evenodd"><path d="M58.54 116.62c1.744.904 8.732 2.19 13.066-1.447 4.334-3.638 11.79-18.74 10.877-24.897-.912-6.158-8.416-5.055-8.416-2.847 0 2.208-1.179 6.307-1.179 8.282 0 1.317-1.347 3.765-4.042 7.344-8.033 8.44-11.468 12.961-10.306 13.564z" fill="url(#a)"/><path d="M75.925 62.793l4.849 4.999c3.124 8.71 4.569 16.438 4.334 23.182-.353 10.115-6.334 21.902-7.383 20.85-1.049-1.052 1.922-14.767 1.779-22.459-.096-5.128-2.453-11.368-7.07-18.719l3.49-7.853zM49.222 60.48l2.844 7.966c-4.12 7.282-6.316 13.485-6.586 18.61-.405 7.686 4.81 22.029 3.742 23.044-1.067 1.016-9.622-11.127-9.622-21.254 0-6.752 1.284-13.857 3.851-21.317l5.771-7.049z" fill="url(#b)"/><g transform="translate(.151)"><mask id="e" fill="#fff"><use xlink:href="#c"/></mask><use fill="url(#d)" xlink:href="#c"/><path d="M43.592 64.08c-6.829-5.16-6.422 1.447-14.943-1.2-8.521-2.647-8.863-13.828-8.521-20.57.203-4.024 10.807-5.977 8.52-11.109-2.286-5.131 6.972-6.21 8.115-8.056 8.33-13.46 10.401-5.878 25.656-5.57 16.037.325 30.942 6.135 32.895 12.552 1.953 6.418 7.194 2.226 10.118 7.205 2.923 4.979-4.598 33.256-14.593 26.817-4.63-2.983-7.838-3.006-9.626-.069-20.528 3.44-33.069 3.44-37.621 0z" fill="#4D4C75" mask="url(#e)"/><g mask="url(#e)"><use fill="#48678A" xlink:href="#f"/><use fill="url(#g)" xlink:href="#f"/></g><mask id="j" fill="#fff"><use xlink:href="#h"/></mask><use fill="url(#i)" xlink:href="#h"/><g mask="url(#j)"><g transform="translate(31.769 .24)"><mask id="m" fill="#fff"><use xlink:href="#k"/></mask><use fill="#48678A" xlink:href="#k"/><use fill="url(#l)" xlink:href="#k"/><path d="M21.09 75.389c.315-26.846-.574-41.375-2.666-43.587-3.137-3.317-16.513-7.782-16.513 1.331 0 6.076 3.196 13.656 9.59 22.74 1.512-1.518 2.198-1.518 2.059 0-.074.807-.42 2.456-1.037 4.944-.362 1.458-1.114 4.294-2.257 8.508l8.158 10.132 2.666-4.068z" fill="#47466D" mask="url(#m)"/><path d="M59.61 75.89c.37-27.18-.49-41.876-2.582-44.088-3.138-3.317-16.513-7.782-16.513 1.331 0 6.076 3.32 14.2 9.959 24.372l-1.604 11.82 8.158 10.132 2.582-3.566z" fill="#47466D" mask="url(#m)" transform="matrix(-1 0 0 1 100.208 0)"/><path d="M21.65 48.071c2.588-1.086 5.559-1.628 8.911-1.628 3.353 0 6.543.742 9.57 2.227-1.694-2.486-4.963-3.729-9.807-3.729s-7.736 1.044-8.674 3.13zM21.65 53.127c2.542-.827 5.49-1.24 8.842-1.24 3.353 0 6.566.726 9.64 2.18-1.583-2.5-4.796-3.751-9.64-3.751s-7.791.937-8.842 2.811zM21.817 58.151c2.477-.817 5.392-1.225 8.744-1.225 3.353 0 6.451.657 9.294 1.97-1.51-2.233-4.687-3.35-9.531-3.35s-7.68.868-8.507 2.605z" fill="#507E99" mask="url(#m)"/><path d="M21.65 48.071c2.588-1.82 5.559-2.731 8.911-2.731 3.353 0 6.543 1.11 9.57 3.33-1.582-3.331-4.795-4.997-9.639-4.997-4.844 0-7.791 1.466-8.842 4.398z" fill="#464F76" opacity=".5" mask="url(#m)"/><path d="M21.65 53.127c2.588-1.507 5.559-2.261 8.911-2.261 3.353 0 6.543 1.067 9.57 3.201-1.582-3.25-4.795-4.874-9.639-4.874-4.844 0-7.791 1.312-8.842 3.934z" fill="#3E476F" opacity=".5" mask="url(#m)"/><path d="M21.817 58.151c2.477-1.35 5.392-2.027 8.744-2.027 3.353 0 6.451.924 9.294 2.772-1.398-2.948-4.519-4.423-9.363-4.423-4.844 0-7.736 1.226-8.675 3.678z" fill="#3D4771" opacity=".5" mask="url(#m)"/><path d="M2.325 15.979c3.199 4.067 6.38 6.385 9.545 6.954 3.165.568 5.335.852 6.511.85-.74.977-3.55 1.183-8.43.616-4.879-.566-7.986-2.198-9.322-4.896l1.696-3.524zM28.726 16.293c.533-.344 2.066 5.036 4.607 6.475 2.542 1.44 7.056 1.526 6.41 1.943-.645.417-5.915 1.388-8.635-.504-2.721-1.891-2.914-7.57-2.382-7.914z" fill="#507E99" mask="url(#m)"/><path d="M2.848 9.558C9.13 4.462 13.413 1.844 15.693 1.705c3.42-.208 5.9-.143 7.777.622 5.857 2.386 4.762 6.822 5.321 6.997.321.1.321-2.177-.24-3.784-.405-1.16-2.277-2.73-2.058-2.677 6.263 1.508 10.446-2.401 15.914-.536 5.467 1.865 7.738 4.542 9.837 8.2 1.4 2.437 3.745 7.51 7.036 15.216l-1.156-7.589L50.717-5.23 6.835-.114 2.848 9.558z" fill="#5DA7B5" mask="url(#m)"/><path d="M13.688 55.872c1.815-3.585 3.072-6.556 3.77-8.914 1.048-3.536 4.672-8.529 1.25-14.555-3.421-6.027-14.196-5.7-15.86-3.222-1.665 2.478-1.769 7.221.61 12.105 1.585 3.256 4.995 8.118 10.23 14.586z" fill="#4C4D74" mask="url(#m)"/><path d="M53.453 57.27c2.49 1.009 3.033-7.43 4.081-10.967 1.048-3.536 4.672-8.528 1.25-14.555-3.421-6.027-14.196-5.7-15.86-3.222-1.665 2.478-1.769 7.221.61 12.105 2.378 4.884 7.429 15.63 9.919 16.64z" fill="#4C4D74" mask="url(#m)" transform="matrix(-1 0 0 1 101.928 0)"/></g></g><path d="M81.098 38.16c.956 0 2.624-1.147 2.402-2.545-.222-1.397-1.757-2.836-3.126-2.015-1.368.822-1.894 1.623-1.894 2.33 0 .708 1.662 2.23 2.618 2.23z" fill="#2D1E2D" mask="url(#j)" transform="scale(-1 1) rotate(33 0 -237.691)"/><path d="M43.658 38.16c.956 0 2.624-1.147 2.402-2.545-.222-1.397-1.757-2.836-3.126-2.015-1.368.822-1.894 1.623-1.894 2.33 0 .708 1.662 2.23 2.618 2.23z" fill="#2D1E2D" mask="url(#j)" transform="rotate(33 43.56 35.76)"/><path d="M.121 31.943c.684-3.968 5.556-18.355 12.74-23.688 2.976-2.21 4.088-4.98 28.763-4.482.883.018 3.452-2.985 4.282-3.093 5.623-.731 14.416-1.477 26.377-2.238l6.721 6.598c6.793-1.231 15.743-.16 26.85 3.215 11.108 3.374 18.194 9.653 21.259 18.838l2.13-18.838L65.915-4.99-4.204-3.6C-1.776 22.74-.334 34.588.121 31.942z" fill="#5DA7B5" mask="url(#j)"/></g><circle fill="#C3E5D7" cx="81.12" cy="35.04" r="0.5"/><circle fill="#C3E5D7" cx="43.68" cy="35.04" r="0.5"/></g></svg>
