<?xml version="1.0" encoding="UTF-8"?>
<svg width="174px" height="186px" viewBox="0 0 174 186" version="1.1" xmlns="http://www.w3.org/2000/svg" xmlns:xlink="http://www.w3.org/1999/xlink">
    <title>D347C214-6CD9-46FA-8497-603110C24D2B</title>
    <defs>
        <polygon id="path-1" points="63.3542998 89.836686 27.9685167 75.1607323 3.00370803e-05 37.5805159 6.40278875e-15 8.51152294e-15 120.843469 0.00029947259 120.843469 37.5044498 110.873261 75.0088996"></polygon>
        <linearGradient x1="47.0586715%" y1="-3.46746313%" x2="27.1499723%" y2="88.1936512%" id="linearGradient-3">
            <stop stop-color="#462656" offset="0%"></stop>
            <stop stop-color="#4B2357" offset="100%"></stop>
        </linearGradient>
        <linearGradient x1="-10.6861808%" y1="41.4808907%" x2="17.16651%" y2="110.678688%" id="linearGradient-4">
            <stop stop-color="#4C5D7F" offset="0%"></stop>
            <stop stop-color="#4C436D" offset="100%"></stop>
        </linearGradient>
        <path d="M31.8666388,-1.70230459e-14 C31.8666388,-1.70230459e-14 36.4199598,4.37259929 41.7037826,5.4890331 C43.1416576,5.79299778 45.0742434,5.96729083 47.1140615,6.35870151 C49.2163567,6.76179161 52.2122551,8.43374708 53.7041969,8.91889268 C63.7996596,12.2020107 74.6319318,18.7877124 80.9865765,27.3424464 C87.3412212,35.8971804 83.9602475,39.7385153 82.8359596,43.730485 C81.7116716,47.7224546 79.9301724,53.0509704 74.0570221,55.9244099 C72.2127454,56.8264213 71.8874438,59.5363488 68.0237742,63.3600148 C64.1604049,67.1839803 64.2126694,70.990277 62.715321,74.0910162 C61.6174657,76.3643126 63.9110971,78.7726712 60.4499244,79.8873081 C56.3735922,81.1998965 50.8858177,79.0676517 49.2590094,75.5395651 C48.703023,74.3338884 50.4968375,73.3075959 50.6521292,71.9752423 C51.0600327,68.4699156 50.7107015,64.2665184 52.2236692,60.3952362 C54.2043143,55.327561 53.9889484,55.8788901 53.9889484,55.8788901 C53.9889484,55.8788901 45.9444176,54.9400435 40.9720793,51.6772896 C35.9997411,48.4142363 34.1041009,45.713293 34.1041009,45.713293 L27.9374883,49.2210154 L27.5713363,49.1874745 C27.5713363,49.1874745 32.4989194,52.9623265 28.0074747,57.737417 C23.5160301,62.5125074 21.927369,61.304435 19.1540453,58.9571688 C16.5513323,56.7542484 12.9498864,51.990538 13.1928864,50.2940257 C13.694806,46.7904959 10.758381,45.210179 13.0090595,41.6826914 C14.0189061,40.0999788 21.4233468,33.8637615 21.4233468,33.8637615 C21.4233468,33.8637615 17.6864336,31.8438189 16.1296117,30.3982647 C14.5727899,28.9524111 12.3740756,25.4602612 12.3740756,25.4602612 L0,19.1943962 L31.8666388,-1.70230459e-14 Z" id="path-5"></path>
        <path d="M31.8666388,-1.70230459e-14 C31.8666388,-1.70230459e-14 36.4199598,4.37259929 41.7037826,5.4890331 C43.1416576,5.79299778 45.0742434,5.96729083 47.1140615,6.35870151 C49.2163567,6.76179161 52.2122551,8.43374708 53.7041969,8.91889268 C63.7996596,12.2020107 74.6319318,18.7877124 80.9865765,27.3424464 C87.3412212,35.8971804 83.9602475,39.7385153 82.8359596,43.730485 C81.7116716,47.7224546 79.9301724,53.0509704 74.0570221,55.9244099 C72.2127454,56.8264213 71.8874438,59.5363488 68.0237742,63.3600148 C64.1604049,67.1839803 64.2126694,70.990277 62.715321,74.0910162 C61.6174657,76.3643126 63.9110971,78.7726712 60.4499244,79.8873081 C56.3735922,81.1998965 50.8858177,79.0676517 49.2590094,75.5395651 C48.703023,74.3338884 50.4968375,73.3075959 50.6521292,71.9752423 C51.0600327,68.4699156 50.7107015,64.2665184 52.2236692,60.3952362 C54.2043143,55.327561 53.9889484,55.8788901 53.9889484,55.8788901 C53.9889484,55.8788901 45.9444176,54.9400435 40.9720793,51.6772896 C35.9997411,48.4142363 34.1041009,45.713293 34.1041009,45.713293 L27.9374883,49.2210154 L27.5713363,49.1874745 C27.5713363,49.1874745 32.4989194,52.9623265 28.0074747,57.737417 C23.5160301,62.5125074 21.927369,61.304435 19.1540453,58.9571688 C16.5513323,56.7542484 12.9498864,51.990538 13.1928864,50.2940257 C13.694806,46.7904959 10.758381,45.210179 13.0090595,41.6826914 C14.0189061,40.0999788 21.4233468,33.8637615 21.4233468,33.8637615 C21.4233468,33.8637615 17.6864336,31.8438189 16.1296117,30.3982647 C14.5727899,28.9524111 12.3740756,25.4602612 12.3740756,25.4602612 L0,19.1943962 L31.8666388,-1.70230459e-14 Z" id="path-7"></path>
        <linearGradient x1="34.078229%" y1="6.99226382%" x2="42.6705917%" y2="85.4376008%" id="linearGradient-9">
            <stop stop-color="#518EA3" offset="0%"></stop>
            <stop stop-color="#4E6687" offset="100%"></stop>
        </linearGradient>
        <path d="M31.6196966,0.750219221 C29.8505126,2.52489379 29.292724,12.2808124 24.9304389,16.2769746 C20.5678533,20.2734363 13.2790554,18.6736537 7.58702871,24.313621 C1.895002,29.9532888 -0.10817088,35.0781633 0.00446817072,43.7137549 C0.117107222,52.3493465 0.431895823,55.583351 7.81260718,62.4598406 C7.81260718,62.4598406 3.58879296,62.2876439 5.13390037,64.0536337 C7.52905715,66.7908132 11.9973732,67.9704357 15.2777227,69.333036 C18.0768782,70.4955886 19.7952996,71.8507021 21.8318137,72.6419087 C27.1309554,74.7007827 32.3300736,73.0192441 32.3300736,73.0192441 C32.3300736,73.0192441 29.3849379,82.3070871 33.1738152,83.7789948 C35.3175616,84.6118281 36.985821,76.4667726 40.9654338,74.998758 C46.0597226,73.1195675 52.7231485,69.2749383 53.4797825,62.9800245 C54.5055488,54.4435583 48.9267619,54.2153602 45.7091899,51.7066783 C43.4627166,49.9553626 42.915441,45.9265579 39.3572485,43.4187744 C36.9557839,41.7258558 31.807128,38.195074 26.3950469,39.8520558 C20.9829658,41.5090377 19.1984628,44.0018475 16.1007387,46.033769 C15.5480565,46.3961309 13.8791963,44.5522781 13.8791963,44.5522781 C13.8791963,44.5522781 9.92541541,35.8253474 14.3009169,31.6761547 C18.676118,27.5266624 26.4821544,27.280496 31.0763258,21.6489139 C35.6704973,16.0173319 38.7739284,3.05256449 38.858633,1.19164182 C38.9433375,-0.669280856 37.6655601,1.49201283 35.3758335,1.17846503 C33.0864073,0.864917223 33.3888807,-1.02445535 31.6196966,0.750219221 Z" id="path-10"></path>
        <linearGradient x1="45.5490155%" y1="8.80884636%" x2="108.933756%" y2="69.4782225%" id="linearGradient-12">
            <stop stop-color="#EFE8CD" offset="0%"></stop>
            <stop stop-color="#D3CAAF" offset="100%"></stop>
        </linearGradient>
        <path d="M31.6196966,0.750219221 C29.8505126,2.52489379 29.292724,12.2808124 24.9304389,16.2769746 C20.5678533,20.2734363 13.2790554,18.6736537 7.58702871,24.313621 C1.895002,29.9532888 -0.10817088,35.0781633 0.00446817072,43.7137549 C0.117107222,52.3493465 0.431895823,55.583351 7.81260718,62.4598406 C7.81260718,62.4598406 3.58879296,62.2876439 5.13390037,64.0536337 C7.52905715,66.7908132 11.9973732,67.9704357 15.2777227,69.333036 C18.0768782,70.4955886 19.7952996,71.8507021 21.8318137,72.6419087 C27.1309554,74.7007827 32.3300736,73.0192441 32.3300736,73.0192441 C32.3300736,73.0192441 29.3849379,82.3070871 33.1738152,83.7789948 C35.3175616,84.6118281 36.985821,76.4667726 40.9654338,74.998758 C46.0597226,73.1195675 52.7231485,69.2749383 53.4797825,62.9800245 C54.5055488,54.4435583 48.9267619,54.2153602 45.7091899,51.7066783 C43.4627166,49.9553626 42.915441,45.9265579 39.3572485,43.4187744 C36.9557839,41.7258558 31.807128,38.195074 26.3950469,39.8520558 C20.9829658,41.5090377 19.1984628,44.0018475 16.1007387,46.033769 C15.5480565,46.3961309 13.8791963,44.5522781 13.8791963,44.5522781 C13.8791963,44.5522781 9.92541541,35.8253474 14.3009169,31.6761547 C18.676118,27.5266624 26.4821544,27.280496 31.0763258,21.6489139 C35.6704973,16.0173319 38.7739284,3.05256449 38.858633,1.19164182 C38.9433375,-0.669280856 37.6655601,1.49201283 35.3758335,1.17846503 C33.0864073,0.864917223 33.3888807,-1.02445535 31.6196966,0.750219221 Z" id="path-13"></path>
    </defs>
    <g id="MVP-Design" stroke="none" stroke-width="1" fill="none" fill-rule="evenodd">
        <g id="ProjectView_JobListEmpty" transform="translate(-1088.000000, -406.000000)">
            <g id="Group-6" transform="translate(1046.000000, 406.000000)">
                <g id="Elephant-Empty-State-Graphic" transform="translate(42.000000, 0.000000)">
                    <ellipse id="Oval" fill="#F2E9E9" fill-rule="nonzero" cx="87" cy="99.2601601" rx="87" ry="86.7398399"></ellipse>
                    <polygon id="Path" fill="#DDA560" fill-rule="nonzero" points="44.7888911 157.73398 45.1177971 111.176474 92.2162394 98.5788599 128.028849 110.911441 128.427742 157.73398 80.1993047 171.153347"></polygon>
                    <polygon id="Path" fill="#CD9650" fill-rule="nonzero" points="80.2563751 171.144662 80.5297125 123.5971 127.987398 111.014759 128.423236 157.736975"></polygon>
                    <polygon id="Path" fill="#E6BC88" fill-rule="nonzero" points="128.033956 112.966122 92.2114334 98.4168452 108.421545 97.0641275 141.934816 110.027997"></polygon>
                    <polygon id="Path" fill="#E6BC88" fill-rule="nonzero" points="93.6393962 142.235675 80.5164962 127.775042 128.028849 112.963427 141.457227 128.546184"></polygon>
                    <polygon id="Path" fill="#E6BC88" fill-rule="nonzero" points="45.1208009 113.119452 31.3382866 111.437913 74.640943 97.8190979 92.2246497 98.4237331"></polygon>
                    <polygon id="Path" fill="#B48447" fill-rule="nonzero" points="92.1201207 124.173884 92.1201207 98.720211 128.036659 112.963726"></polygon>
                    <polygon id="Path" fill="#E5B67A" fill-rule="nonzero" points="45.1093868 113.115858 31.8104695 128.45155 68.3424676 143.308086 80.5303133 127.74779"></polygon>
                    <polygon id="Path" fill="#B48447" fill-rule="nonzero" points="80.5125914 127.791513 45.1093868 113.115858 92.2162394 98.4189415 128.037861 112.960732"></polygon>
                    <polygon id="Path" fill="#A6773D" fill-rule="nonzero" points="92.2192431 98.4168452 45.1129912 113.11466 80.5164962 127.788817 92.1201207 124.017859"></polygon>
                    <g id="Clipped" transform="translate(17.159193, 37.952131)">
                        <mask id="mask-2" fill="white">
                            <use xlink:href="#path-1"></use>
                        </mask>
                        <g id="Path"></g>
                        <g id="Group" mask="url(#mask-2)">
                            <g transform="translate(21.914163, 3.298051)">
                                <polygon id="Path" stroke="#979797" stroke-width="0.811434" fill="#D8D8D8" fill-rule="nonzero" points="34.5138868 94.1263718 22.488842 95.8911637 25.6968022 87.6829195 37.7218469 85.918427"></polygon>
                                <polygon id="Path" stroke="#979797" stroke-width="0.811434" fill="#D8D8D8" fill-rule="nonzero" points="19.2895926 54.9963847 11.874639 56.1206048 13.8402655 51.0918611 21.2552192 49.967641"></polygon>
                                <polygon id="Path" stroke="#979797" stroke-width="0.811434" fill="#D8D8D8" fill-rule="nonzero" points="11.1306205 55.7935808 7.1401944 50.3866031 9.13015097 45.2949702 13.1205771 50.7019478"></polygon>
                                <path d="M33.6422107,77.6724492 C33.6422107,77.6724492 26.6312558,88.4546604 25.1561348,92.2283145 C24.5812251,93.6999228 26.1110136,103.176433 26.1794981,104.900198 C26.2870308,107.597248 27.6029553,109.100001 22.7780991,109.106621 C16.9223703,109.114376 11.7740148,107.689485 13.3963175,103.538496 C15.0186202,99.3875062 8.8706306,94.0449152 13.133493,87.5574405 C15.1012222,84.5633135 20.6715987,73.7834982 21.8484515,69.7705655 C22.3969286,67.9003592 33.6653392,73.7056353 33.6653392,73.7056353 L33.6422107,77.6724492 Z" id="Path" stroke="none" fill="#4B2357" fill-rule="evenodd"></path>
                                <path d="M33.6422107,77.6724492 C33.6422107,77.6724492 26.6312558,88.4546604 25.1561348,92.2283145 C24.5812251,93.6999228 26.1110136,103.176433 26.1794981,104.900198 C26.2870308,107.597248 27.6029553,109.100001 22.7780991,109.106621 C16.9223703,109.114376 11.7740148,107.689485 13.3963175,103.538496 C15.0186202,99.3875062 8.8706306,94.0449152 13.133493,87.5574405 C15.1012222,84.5633135 20.6715987,73.7834982 21.8484515,69.7705655 C22.3969286,67.9003592 33.6653392,73.7056353 33.6653392,73.7056353 L33.6422107,77.6724492 Z" id="Path" stroke="none" fill="url(#linearGradient-3)" fill-rule="evenodd"></path>
                                <path d="M72.4624336,92.6541645 C70.2291767,98.3678021 69.975063,96.8857122 64.716171,100.471896 C64.1926246,100.828868 62.8121204,99.0721616 62.357359,99.5555104 C60.473133,101.556586 60.1090836,106.745847 59.8441565,110.132882 C59.7540453,111.285852 57.4898502,113.289024 56.0690963,113.218049 C54.4206613,113.135694 53.0939235,113.587299 51.8554947,113.044954 C49.1470511,111.859342 46.1277238,109.12366 48.1182811,107.38043 C50.4530634,105.335331 47.2276817,99.0505996 51.9471078,91.8650542 C54.1253968,88.5483953 74.6956905,86.940527 72.4624336,92.6541645 Z" id="Path" stroke="none" fill="#4B2357" fill-rule="evenodd"></path>
                                <path d="M4.95980275,47.8452787 C7.44086558,50.4713539 11.0311978,51.6713406 12.5985326,52.6572043 C14.559954,53.8907319 13.1878601,56.3299362 12.9499665,56.9627218 C11.0684438,56.4491263 7.32251948,54.7286562 4.99134168,52.1945192 C1.00692298,47.8632471 -0.430050935,39.8742168 0.108814285,39.6502113 C0.115722813,39.6475161 0.122631342,39.6457192 0.12953987,39.6445213 C0.690031788,39.5681558 2.35468678,45.0883341 4.95980275,47.8452787 Z" id="Path" stroke="none" fill="#D3CBAF" fill-rule="evenodd"></path>
                                <path d="M40.2107194,44.8439644 C40.2107194,44.8439644 44.7640404,49.2165637 50.0478632,50.3329976 C51.4857382,50.6369622 53.418324,50.8112553 55.4581421,51.202666 C57.5604373,51.6057561 60.5563357,53.2777115 62.0482775,53.7628571 C72.1437402,57.0459751 82.9760124,63.6316769 89.3306571,72.1864109 C95.6853018,80.7411449 92.3043281,84.5824798 91.1800401,88.5744494 C90.0557522,92.566419 88.274253,97.8949348 82.4011027,100.768374 C80.556826,101.670386 80.2315244,104.380313 76.3678548,108.203979 C72.5044855,112.027945 72.55675,115.834241 71.0594016,118.934981 C69.9615463,121.208277 72.2551777,123.616636 68.794005,124.731273 C64.7176728,126.043861 59.2298982,123.911616 57.60309,120.38353 C57.0471036,119.177853 58.8409181,118.15156 58.9962098,116.819207 C59.4041133,113.31388 59.0547821,109.110483 60.5677498,105.239201 C62.5483949,100.171525 62.333029,100.722855 62.333029,100.722855 C62.333029,100.722855 54.2884982,99.7840079 49.3161599,96.5212541 C44.3438216,93.2582007 42.4481815,90.5572574 42.4481815,90.5572574 L36.2815689,94.0649799 L35.9154169,94.031439 C35.9154169,94.031439 40.8429999,97.806291 36.3515553,102.581381 C31.8601107,107.356472 30.2714495,106.148399 27.4981259,103.801133 C24.8954129,101.598213 21.293967,96.8345024 21.536967,95.1379902 C22.0388866,91.6344603 19.1024616,90.0541435 21.35314,86.5266558 C22.3629867,84.9439432 29.7674273,78.707726 29.7674273,78.707726 C29.7674273,78.707726 26.0305142,76.6877834 24.4736923,75.2422292 C22.9168704,73.7963755 20.7181562,70.3042256 20.7181562,70.3042256 L8.34408058,64.0383606 L40.2107194,44.8439644 Z" id="Path" stroke="none" fill="#4E587D" fill-rule="evenodd"></path>
                                <path d="M40.2107194,44.8439644 C40.2107194,44.8439644 44.7640404,49.2165637 50.0478632,50.3329976 C51.4857382,50.6369622 53.418324,50.8112553 55.4581421,51.202666 C57.5604373,51.6057561 60.5563357,53.2777115 62.0482775,53.7628571 C72.1437402,57.0459751 82.9760124,63.6316769 89.3306571,72.1864109 C95.6853018,80.7411449 92.3043281,84.5824798 91.1800401,88.5744494 C90.0557522,92.566419 88.274253,97.8949348 82.4011027,100.768374 C80.556826,101.670386 80.2315244,104.380313 76.3678548,108.203979 C72.5044855,112.027945 72.55675,115.834241 71.0594016,118.934981 C69.9615463,121.208277 72.2551777,123.616636 68.794005,124.731273 C64.7176728,126.043861 59.2298982,123.911616 57.60309,120.38353 C57.0471036,119.177853 58.8409181,118.15156 58.9962098,116.819207 C59.4041133,113.31388 59.0547821,109.110483 60.5677498,105.239201 C62.5483949,100.171525 62.333029,100.722855 62.333029,100.722855 C62.333029,100.722855 54.2884982,99.7840079 49.3161599,96.5212541 C44.3438216,93.2582007 42.4481815,90.5572574 42.4481815,90.5572574 L36.2815689,94.0649799 L35.9154169,94.031439 C35.9154169,94.031439 40.8429999,97.806291 36.3515553,102.581381 C31.8601107,107.356472 30.2714495,106.148399 27.4981259,103.801133 C24.8954129,101.598213 21.293967,96.8345024 21.536967,95.1379902 C22.0388866,91.6344603 19.1024616,90.0541435 21.35314,86.5266558 C22.3629867,84.9439432 29.7674273,78.707726 29.7674273,78.707726 C29.7674273,78.707726 26.0305142,76.6877834 24.4736923,75.2422292 C22.9168704,73.7963755 20.7181562,70.3042256 20.7181562,70.3042256 L8.34408058,64.0383606 L40.2107194,44.8439644 Z" id="Path" stroke="none" fill="url(#linearGradient-4)" fill-rule="evenodd"></path>
                                <g id="Clipped" stroke="none" stroke-width="1" fill="none" fill-rule="evenodd" transform="translate(8.344081, 44.843964)">
                                    <mask id="mask-6" fill="white">
                                        <use xlink:href="#path-5"></use>
                                    </mask>
                                    <g id="Path"></g>
                                    <g id="Group" mask="url(#mask-6)">
                                        <g transform="translate(-5.139908, -43.308269)" id="Path">
                                            <path d="M58.5488402,99.9597984 C58.5488402,99.9597984 60.7887053,96.5541961 62.2590203,94.303959 C63.7293354,92.053722 65.8079014,89.8475074 65.8079014,89.8475074 C65.8079014,89.8475074 58.1580578,97.0755778 53.8167986,95.3889482 C49.4755394,93.7023186 46.9271935,90.7980334 46.3982405,88.7161 C45.8692875,86.634466 48.5843392,81.3089449 48.3025914,77.1789184 C48.0205432,73.0485925 46.2834988,72.8838825 46.2834988,72.8838825 C46.2834988,72.8838825 49.3523873,75.7525305 44.5317363,82.3726716 C39.7107849,88.9928126 38.5014921,89.4387273 38.5014921,89.4387273 L44.328986,98.6394237 L58.5488402,99.9597984 Z" fill="#4C3D6A"></path>
                                            <path d="M38.920209,71.327224 C38.920209,71.327224 49.9450189,68.7197162 58.6798019,72.1130401 C67.4142844,75.5066635 66.4687171,76.374535 67.9357281,79.8696796 C69.4027391,83.3645248 68.5190482,86.3754222 68.5190482,86.3754222 C68.5190482,86.3754222 73.5046028,82.5179158 78.391035,79.7711532 C83.2777676,77.02469 89.1079649,78.6100979 89.3942183,84.52558 C89.6801713,90.4407626 98.4368813,67.5008627 98.4368813,67.5008627 L38.8231892,49.9415869 L38.920209,71.327224 Z" fill="#4F6486" opacity="0.5"></path>
                                            <path d="M41.742493,47.2130921 C41.742493,47.2130921 38.6060211,59.5992784 40.9909653,62.2430225 C44.5876053,66.2296016 60.059405,63.9655888 62.9198361,65.8498703 C70.0560456,70.5503921 69.064822,74.064703 72.7783062,74.0494299 C76.4917905,74.0344562 77.4776074,68.8652598 85.2743323,72.6089667 C93.0710573,76.352973 93.6952278,84.6753163 93.6952278,84.6753163 L99.322074,65.2368499 C99.322074,65.2368499 82.8172992,55.3365856 72.6034904,52.1394162 C62.3893813,48.9422468 41.742493,47.2130921 41.742493,47.2130921 Z" fill="#4F728F" opacity="0.5"></path>
                                            <path d="M42.7763693,62.77818 C43.3702024,63.0090733 53.379759,58.3435899 60.893835,60.3931803 C64.1366382,61.2775228 69.1327058,62.0333916 71.4383521,65.2000148 C74.0696003,68.8134511 72.5341048,68.0917221 75.7606879,67.738644 C79.4393291,67.3364523 83.7319283,69.2521784 79.0881957,64.0042208 C74.1062455,58.3741361 59.0946139,49.0186124 59.0946139,49.0186124 L30.6476967,35.1650103 C30.6476967,35.1650103 41.9260196,62.4478617 42.7763693,62.77818 Z" fill="#507E98" opacity="0.4"></path>
                                            <path d="M26.5632545,77.1717311 C28.6886783,76.271217 33.4498559,70.1979129 33.4498559,70.1979129 L11.3311508,62.4820016 C11.3311508,62.4820016 13.8413496,72.0064278 16.2214878,74.4333537 C19.5000351,77.7757673 25.7420408,77.5197182 26.5632545,77.1717311 Z" fill="#4C3D6A"></path>
                                            <path d="M29.2756029,0.750219221 C27.5064189,2.52489379 29.292724,10.7451169 24.9301385,14.7412792 C20.5678533,18.7377409 13.2790554,17.1379583 7.58702871,22.7776261 C1.895002,28.4175934 -0.10817088,33.5424678 0.00446817072,42.1780594 C0.117107222,50.8136511 0.23995888,52.1705614 6.143747,59.9343883 C7.119051,61.2173288 4.22587943,61.5530376 5.13390037,62.5179383 C7.60955652,65.1479066 11.9973732,66.4347403 15.2777227,67.7973406 C18.0768782,68.9598932 19.7952996,70.3150067 21.8318137,71.1062132 C27.130655,73.1650873 32.3300736,71.4835487 32.3300736,71.4835487 C32.3300736,71.4835487 29.3849379,80.7713916 33.1738152,82.2432994 C35.3175616,83.0761327 36.985821,74.9310772 40.9654338,73.4630625 C46.0597226,71.583872 52.7231485,67.7392429 53.4797825,61.4443291 C54.5055488,52.9078629 48.9267619,52.6796648 45.7091899,50.1709829 C43.4627166,48.4196672 42.915441,44.3908624 39.3572485,41.8830789 C36.9557839,40.1901604 38.6681979,39.1725525 35.4965826,38.375057 C28.5165659,36.6198482 13.8791963,43.0165827 13.8791963,43.0165827 C13.8791963,43.0165827 9.92541541,34.289652 14.3009169,30.1401597 C18.676118,25.990967 26.4821544,25.7448005 31.0763258,20.1132185 C35.6704973,14.4816364 38.1596701,3.63354132 38.244675,1.77261864 C38.3293796,-0.0883040311 35.3214664,1.49201283 33.0317398,1.17846503 C30.7423135,0.864917223 31.0447869,-1.02445535 29.2756029,0.750219221 Z" fill="#4F7C96"></path>
                                        </g>
                                    </g>
                                    <mask id="mask-8" fill="white">
                                        <use xlink:href="#path-7"></use>
                                    </mask>
                                    <g id="Path"></g>
                                </g>
                                <path d="M34.8238694,0.750219221 C33.0546854,2.52489379 32.4968968,12.2808124 28.1346116,16.2769746 C23.7720261,20.2734363 16.4832282,18.6736537 10.7912015,24.313621 C5.0991748,29.9532888 3.09600192,35.0781633 3.20864097,43.7137549 C3.32128002,52.3493465 3.63606862,55.583351 11.01678,62.4598406 C11.01678,62.4598406 6.79296575,62.2876439 8.33807316,64.0536337 C10.7332299,66.7908132 15.201546,67.9704357 18.4818955,69.333036 C21.281051,70.4955886 22.9994724,71.8507021 25.0359864,72.6419087 C30.3351281,74.7007827 35.5342464,73.0192441 35.5342464,73.0192441 C35.5342464,73.0192441 32.5891107,82.3070871 36.377988,83.7789948 C38.5217344,84.6118281 40.1899938,76.4667726 44.1696066,74.998758 C49.2638954,73.1195675 55.9273213,69.2749383 56.6839553,62.9800245 C57.7097216,54.4435583 52.1309347,54.2153602 48.9133627,51.7066783 C46.6668894,49.9553626 46.1196138,45.9265579 42.5614213,43.4187744 C40.1599567,41.7258558 35.0113008,38.195074 29.5992197,39.8520558 C24.1871386,41.5090377 22.4026356,44.0018475 19.3049115,46.033769 C18.7522293,46.3961309 17.0833691,44.5522781 17.0833691,44.5522781 C17.0833691,44.5522781 13.1295882,35.8253474 17.5050897,31.6761547 C21.8802908,27.5266624 29.6863272,27.280496 34.2804986,21.6489139 C38.8746701,16.0173319 41.9781012,3.05256449 42.0628058,1.19164182 C42.1475103,-0.669280856 40.8697329,1.49201283 38.5800063,1.17846503 C36.2905801,0.864917223 36.5930534,-1.02445535 34.8238694,0.750219221 Z" id="Path" stroke="none" fill="#4F7C96" fill-rule="evenodd"></path>
                                <path d="M34.8238694,0.750219221 C33.0546854,2.52489379 32.4968968,12.2808124 28.1346116,16.2769746 C23.7720261,20.2734363 16.4832282,18.6736537 10.7912015,24.313621 C5.0991748,29.9532888 3.09600192,35.0781633 3.20864097,43.7137549 C3.32128002,52.3493465 3.63606862,55.583351 11.01678,62.4598406 C11.01678,62.4598406 6.79296575,62.2876439 8.33807316,64.0536337 C10.7332299,66.7908132 15.201546,67.9704357 18.4818955,69.333036 C21.281051,70.4955886 22.9994724,71.8507021 25.0359864,72.6419087 C30.3351281,74.7007827 35.5342464,73.0192441 35.5342464,73.0192441 C35.5342464,73.0192441 32.5891107,82.3070871 36.377988,83.7789948 C38.5217344,84.6118281 40.1899938,76.4667726 44.1696066,74.998758 C49.2638954,73.1195675 55.9273213,69.2749383 56.6839553,62.9800245 C57.7097216,54.4435583 52.1309347,54.2153602 48.9133627,51.7066783 C46.6668894,49.9553626 46.1196138,45.9265579 42.5614213,43.4187744 C40.1599567,41.7258558 35.0113008,38.195074 29.5992197,39.8520558 C24.1871386,41.5090377 22.4026356,44.0018475 19.3049115,46.033769 C18.7522293,46.3961309 17.0833691,44.5522781 17.0833691,44.5522781 C17.0833691,44.5522781 13.1295882,35.8253474 17.5050897,31.6761547 C21.8802908,27.5266624 29.6863272,27.280496 34.2804986,21.6489139 C38.8746701,16.0173319 41.9781012,3.05256449 42.0628058,1.19164182 C42.1475103,-0.669280856 40.8697329,1.49201283 38.5800063,1.17846503 C36.2905801,0.864917223 36.5930534,-1.02445535 34.8238694,0.750219221 Z" id="Path" stroke="none" fill="url(#linearGradient-9)" fill-rule="evenodd"></path>
                                <g id="Clipped" stroke="none" stroke-width="1" fill="none" fill-rule="evenodd" transform="translate(3.204173, 0.000000)">
                                    <mask id="mask-11" fill="white">
                                        <use xlink:href="#path-10"></use>
                                    </mask>
                                    <g id="Path"></g>
                                    <g id="Group" mask="url(#mask-11)">
                                        <g transform="translate(-6.956570, -1.669320)" id="Path">
                                            <path d="M38.4459056,84.7939669 C38.4459056,84.7939669 41.3090401,75.7403115 44.6575738,73.8656131 C48.0061075,71.9909147 55.7860117,68.130713 53.9210093,63.5499803 C52.7120169,60.5804101 45.5097258,57.6716328 42.3381105,59.0501051 C40.6178869,59.7978882 42.6534998,63.1912121 41.5991983,65.3563989 C38.601798,71.512657 34.9829306,82.2843865 34.9829306,82.2843865 L38.4459056,84.7939669 Z" fill="#4E567C"></path>
                                            <path d="M39.3238895,0.0731711061 C39.3238895,0.0731711061 47.2768072,-0.681499821 45.9722968,2.65642167 C45.2760373,4.43828358 43.2866814,5.96289854 41.773113,5.59844039 C40.4514814,5.28010103 39.5491676,3.1346794 39.4452393,3.50303068 C37.5360824,10.2794965 38.2068104,17.8657361 29.5834651,22.4341905 C29.251255,22.5971036 30.5119112,22.8839983 29.355784,23.0169641 C28.6168718,23.1020143 27.8308014,22.1940134 27.589904,22.3308724 C26.8110426,22.7737924 28.2477161,23.8465032 27.7175616,23.9746775 C26.6004826,24.2451012 26.5866656,21.9409591 25.3410278,22.3757933 C24.6853184,22.6045904 26.0655222,24.7958313 25.4227287,24.919214 C24.8385075,25.0315162 24.7811367,23.0379272 24.1888055,23.1828719 C21.9642593,23.7276126 18.8244833,25.5358281 16.5915267,27.6204568 C16.1544872,28.0283384 15.0398112,29.4068108 14.4835244,30.0614579 C14.3237272,30.2495267 15.3906443,30.9107621 15.2293452,31.1051198 C15.0208878,31.3566768 13.5325505,31.0718784 13.3288991,31.3216385 C13.0597668,31.6519568 13.0510561,31.7989978 12.8068546,32.0993688 C12.5085864,32.4665222 13.8665628,32.7144855 13.566192,33.1067946 C13.3075728,33.4445997 11.8976322,33.2855798 11.6399141,33.6395564 C7.18060913,39.7622735 8.87680305,43.2109998 8.50404288,48.3122159 C7.75221476,58.6068857 9.60940744,63.1471896 9.60940744,63.1471896 C9.60940744,63.1471896 6.37471426,61.9708613 6.0214782,60.3042963 C5.66824214,58.6374319 -1.71667442,47.8108988 0.371203032,39.9350692 C2.45878011,32.05894 21.16287,15.9245548 21.16287,15.9245548 L34.7180036,4.09329116 L39.3238895,0.0731711061 Z" fill="#5DA7B5"></path>
                                            <path d="M39.2253678,74.6574186 C39.2253678,74.6574186 39.6942467,71.6911426 40.9383825,70.2749367 C42.1825184,68.8587309 43.9685232,67.2628414 42.3597372,66.6378421 C40.7512515,66.0128428 41.524406,69.1225662 39.8612528,70.8337526 C38.1980997,72.544939 32.1726614,71.0826143 28.0590832,69.4843291 C23.9458055,67.8863434 14.1837544,61.6600087 11.9228634,62.3365173 C9.66167196,63.0133254 8.62569306,70.7723607 8.62569306,70.7723607 C8.62569306,70.7723607 30.7909557,76.6815539 32.9025624,76.9358061 C35.0141692,77.1903578 39.2253678,74.6574186 39.2253678,74.6574186 Z" fill="#4C416D"></path>
                                            <path d="M37.5276721,24.2630696 C37.5276721,24.2630696 33.1449617,27.1469906 28.5543947,28.0606815 C23.9641281,28.9743724 21.3043446,28.1628016 16.7729507,31.6031428 C15.6345454,32.4671212 13.665014,34.4008157 11.6372107,36.9358512 C11.4611934,37.1559635 10.7336953,38.1002006 10.5471651,38.3523565 C10.4753765,38.4493856 9.71904278,39.5068234 9.55774366,39.7428078 C4.34540912,47.3715725 0.577257402,58.0615461 12.4346952,63.2223572 C30.3337913,71.0125377 3.0072572,60.8795832 11.315814,45.5654533 C14.8256468,39.0962464 22.4370429,30.1665727 27.7824417,30.0360027 C34.3416389,29.8760843 37.5276721,24.2630696 37.5276721,24.2630696 Z" fill="#4D547F" opacity="0.4"></path>
                                            <path d="M12.9465271,64.8898206 C12.9465271,64.8898206 12.5728658,65.1419765 14.7265244,65.978703 C16.8798827,66.8154294 24.6844173,68.6646726 24.6844173,68.6646726 C24.6844173,68.6646726 20.4500901,66.3362732 17.9047479,65.3474147 C15.3597061,64.3585562 12.9465271,64.8898206 12.9465271,64.8898206 Z" fill="#4B2A5C"></path>
                                            <path d="M22.8845954,67.6919856 C22.8845954,67.6919856 28.4684886,70.8484267 31.5487912,71.4425804 C34.6290938,72.0370335 37.5799366,71.7121057 37.5799366,71.7121057 C37.5799366,71.7121057 31.5863376,69.3834068 28.5582995,68.2070785 C25.5305618,67.0307502 23.2615608,65.5528529 23.2615608,65.5528529 L22.8845954,67.6919856 Z" fill="#4E567C"></path>
                                            <path d="M20.3032087,44.7104591 C20.3032087,44.7104591 21.4974831,48.8866044 25.2824555,50.3573142 C29.067428,51.8277247 33.8418219,45.7658005 38.5597461,44.8488154 C40.3220216,44.5062188 41.8443009,44.8814579 43.7540584,45.4208081 C45.2529087,45.8442623 48.4960123,47.1499628 48.4960123,47.1499628 C48.4960123,47.1499628 42.8457371,36.7283167 35.915582,35.9976035 C28.9857272,35.266591 20.3032087,44.7104591 20.3032087,44.7104591 Z" fill="#4F718F"></path>
                                            <path d="M23.3582802,48.4125392 C19.492508,48.06006 19.5645969,38.2577232 19.2167676,38.5664794 C17.0204562,40.5148481 18.9145945,52.0376549 24.7769315,53.3421575 C25.3278115,53.4649413 25.8573653,53.2717815 26.4202601,52.9234949 C26.6419338,52.7863364 25.9111316,51.0182502 26.1466223,50.8427593 C26.3319511,50.704403 27.4802687,52.1640324 27.6776123,52.0130982 C27.8737545,51.862763 27.1006,50.5537683 27.3117607,50.4004383 C27.5427458,50.2327336 28.7598483,51.2209932 29.0127605,51.0610748 C29.9712438,50.4558407 31.103041,49.950331 32.5213919,49.8778586 C33.2428826,49.8410235 35.1898861,50.2851413 35.1898861,50.2851413 C35.1898861,50.2851413 34.5440889,48.9450015 34.5747267,48.551794 C34.7149999,46.7651405 37.6877697,45.7789773 39.3767547,45.7172859 C44.8696356,45.5166393 48.4957119,47.1499628 48.4957119,47.1499628 L45.0771918,41.8519932 C45.0771918,41.8519932 33.1680902,40.2060919 31.8852065,43.4883114 C30.6023228,46.770531 27.223752,48.764719 23.3582802,48.4125392 Z" fill="#507E98"></path>
                                            <path d="M50.1684769,76.0065426 C50.1684769,76.0065426 60.7998011,65.6600641 58.0249756,60.4908677 C55.7370512,56.2287738 45.9599816,56.215597 44.993088,56.2721974 C42.5042155,56.417741 39.1235421,54.561011 39.1235421,54.561011 C39.1235421,54.561011 40.8194357,55.1934971 46.2059853,53.1690624 C51.5925349,51.1446277 48.5503794,47.1709259 48.5503794,47.1709259 C48.5503794,47.1709259 49.8756154,47.2832281 50.947038,48.836293 C51.3903853,49.4789611 64.1990975,53.9848257 64.4475041,63.8305861 C64.7379627,75.3366225 50.1684769,76.0065426 50.1684769,76.0065426 Z" fill="#507E98"></path>
                                            <path d="M27.1336408,64.5082925 C24.2041244,63.3915593 21.8495176,63.0630378 21.8495176,63.0630378 C21.8495176,63.0630378 22.8650713,64.978764 23.4495929,65.0719 C26.1270982,65.49775 27.2066309,66.5315294 28.9487816,67.2083374 C32.3582905,68.5332042 28.7436283,65.1335913 28.7436283,65.1335913 C28.7436283,65.1335913 30.0631572,65.6247264 27.1336408,64.5082925 Z" fill="#507E98"></path>
                                            <path d="M14.3871054,59.2178098 C17.0012325,61.700737 20.6519393,62.7027723 22.269436,63.6005911 C24.2930341,64.7239128 23.0446931,67.2284021 22.8386387,67.8719687 C20.9312841,67.4616912 17.0985527,65.9493546 14.6391165,63.5499803 C10.4354271,59.4490026 8.59385375,51.5653867 9.12160525,51.3132307 C9.12821341,51.3099366 9.13482157,51.3078402 9.14203047,51.3063429 C9.69861756,51.2000301 11.6426174,56.6109009 14.3871054,59.2178098 Z" fill="url(#linearGradient-12)"></path>
                                            <path d="M22.8575621,67.836032 C23.6075879,65.9867887 23.3943247,65.2869213 23.3943247,65.2869213 C23.3943247,65.2869213 22.5743124,66.4824159 21.117514,66.021827 C19.4360382,65.4899637 17.2096899,64.6616225 14.6517321,62.2269104 C11.9315741,59.6376703 10.0227177,54.8170601 10.0227177,54.8170601 C10.0227177,54.8170601 10.7177757,59.5786742 14.8313538,63.6002916 C17.2382251,65.9532478 20.9901568,67.4347387 22.8575621,67.836032 Z" fill="#D3CBAF"></path>
                                            <path d="M31.1003376,58.7443436 C31.4998308,57.7225431 35.4046512,58.4924872 37.313808,60.1458753 C39.2229649,61.799563 39.7038585,64.2456551 37.5505002,65.547163 C35.3971419,66.8486708 35.5476277,63.6880371 33.9100061,62.3688604 C32.2723845,61.0499831 30.7011448,59.7664436 31.1003376,58.7443436 Z" fill="#4E567C"></path>
                                            <path d="M35.6203175,60.100056 C36.0447414,60.602571 36.2784299,61.1008934 35.7473743,61.5357276 C35.2166191,61.9705618 34.1223683,62.1771979 33.6979443,61.6743834 C33.2735204,61.1718684 33.3597268,60.411807 33.8907824,59.9769728 C34.4215376,59.5421386 35.1958935,59.5972415 35.6203175,60.100056 Z" fill="#020408"></path>
                                            <path d="M35.5398181,60.6720487 C35.3628997,60.8169934 35.1048812,60.7987256 34.9634065,60.6310209 C34.8222322,60.4639152 34.8510678,60.2105614 35.0279862,60.0656167 C35.2046043,59.9209714 35.4626228,59.9392392 35.6040974,60.1066444 C35.7452717,60.2740496 35.7164361,60.5274034 35.5398181,60.6720487 Z" fill="#D5B8D8"></path>
                                        </g>
                                    </g>
                                    <mask id="mask-14" fill="white">
                                        <use xlink:href="#path-13"></use>
                                    </mask>
                                    <g id="Path"></g>
                                </g>
                            </g>
                        </g>
                    </g>
                    <path d="M106.686903,43.0991668 C106.686903,44.5683793 105.492328,45.7593818 104.018709,45.7593818 C102.54509,45.7593818 101.350515,44.5683793 101.350515,43.0991668 C101.350515,41.6299543 102.54509,40.4389518 104.018709,40.4389518 C105.492328,40.4389518 106.686903,41.6299543 106.686903,43.0991668 Z" id="Path" stroke="#CE6767" stroke-width="0.9" fill="#CE6767" fill-rule="nonzero"></path>
                    <path d="M37.9933021,104.861795 C37.9933021,106.331007 36.7987274,107.52201 35.3251082,107.52201 C33.8514891,107.52201 32.6569144,106.331007 32.6569144,104.861795 C32.6569144,103.392582 33.8514891,102.20158 35.3251082,102.20158 C36.7987274,102.20158 37.9933021,103.392582 37.9933021,104.861795 Z" id="Path" stroke="#5BA3B1" stroke-width="0.9" fill="#5BA3B1" fill-rule="nonzero"></path>
                    <path d="M95.1688843,73.8954306 C95.1688843,76.1282982 93.3534432,77.9383106 91.1138785,77.9383106 C88.8743138,77.9383106 87.0588727,76.1282982 87.0588727,73.8954306 C87.0588727,71.662563 88.8743138,69.8525506 91.1138785,69.8525506 C93.3534432,69.8525506 95.1688843,71.662563 95.1688843,73.8954306 Z" id="Path" stroke="#5BA3B1" stroke-width="0.9"></path>
                    <path d="M26.4753133,135.658358 C26.4753133,137.890926 24.6598421,139.701238 22.4203075,139.701238 C20.1808029,139.701238 18.3653016,137.890926 18.3653016,135.658358 C18.3653016,133.42549 20.1808029,131.615478 22.4203075,131.615478 C24.6598421,131.615478 26.4753133,133.42549 26.4753133,135.658358 Z" id="Path" stroke="#CE6767" stroke-width="0.9"></path>
                    <path d="M145.722492,84.9819059 C145.722492,89.3646873 142.158893,92.9179295 137.762666,92.9179295 C133.366439,92.9179295 129.802839,89.3646873 129.802839,84.9819059 C129.802839,80.5988251 133.366439,77.0458823 137.762666,77.0458823 C142.158893,77.0458823 145.722492,80.5988251 145.722492,84.9819059 Z" id="Path" stroke="#CE6767" stroke-width="0.9"></path>
                    <path d="M83.312648,35.4141012 C83.312648,36.6515219 82.3064058,37.6547551 81.0652737,37.6547551 C79.8238412,37.6547551 78.817599,36.6515219 78.817599,35.4141012 C78.817599,34.176381 79.8238412,33.1731478 81.0652737,33.1731478 C82.3064058,33.1731478 83.312648,34.176381 83.312648,35.4141012 Z" id="Path" stroke="#5F2A6F" stroke-width="0.9"></path>
                    <path d="M96.7302118,63.7915249 C96.5743193,63.7412135 96.429841,63.6603559 96.3054875,63.5543426 C96.1808336,63.4480298 96.0787075,63.3183582 96.0045159,63.172515 L94.4053418,60.0358391 C94.2554567,59.7414576 94.2287237,59.4000588 94.3311502,59.086511 C94.433877,58.7726638 94.6573529,58.5124221 94.952317,58.3629853 C95.2472811,58.2135484 95.5897038,58.1868954 95.9044924,58.2890155 C96.2189807,58.3914351 96.4800029,58.6139433 96.6301883,58.9083248 L98.2293625,62.0450007 C98.3411004,62.2642147 98.3852549,62.5118785 98.3561189,62.7562481 C98.3266826,63.0006178 98.2254576,63.2306127 98.0650596,63.4174836 C97.9046616,63.604654 97.6919991,63.7400156 97.4544058,63.8064985 C97.2168125,63.8729814 96.9648014,63.8678904 96.7302118,63.7915249 Z" id="Path" fill="#5F2A6F" fill-rule="nonzero"></path>
                    <path d="M76.0908328,15.7120391 C76.0364657,15.6027316 76.0040257,15.4837511 75.9959156,15.3619257 C75.9875053,15.2401302 76.0037253,15.1178855 76.0427735,15.0022591 L76.8853136,12.5110963 C76.9646115,12.2775077 77.1334199,12.0847672 77.3547932,11.9753099 C77.5764668,11.8658228 77.8323827,11.8485731 78.066672,11.9273344 C78.3009612,12.0061257 78.4944,12.1744592 78.6043357,12.3953502 C78.713971,12.6162412 78.7313925,12.8715416 78.652395,13.1051601 L77.8095546,15.5962929 C77.7506819,15.7704961 77.6413469,15.9233769 77.4953667,16.0355893 C77.3493865,16.1477717 77.1730688,16.2142846 76.9892419,16.2266827 C76.8051146,16.2390509 76.621588,16.1967954 76.4617908,16.1051867 C76.3019935,16.013578 76.1728341,15.876749 76.0908328,15.7120391 Z" id="Path" fill="#5BA3B1" fill-rule="nonzero"></path>
                    <path d="M128.250523,73.5312719 C128.150199,73.4021993 128.076008,73.2548587 128.032754,73.0970367 C127.989801,72.9395141 127.978087,72.7748042 127.998812,72.6127895 L128.44216,69.1218375 C128.483911,68.794514 128.654221,68.4971377 128.915844,68.2949937 C129.177167,68.0928497 129.508776,68.002409 129.837082,68.0440357 C130.165387,68.0853629 130.463655,68.2551638 130.666405,68.5160045 C130.869156,68.7768451 130.959868,69.1071634 130.918116,69.4344869 L130.474769,72.9254389 C130.443831,73.1695091 130.340803,73.3989051 130.179204,73.5848775 C130.017304,73.7705505 129.80374,73.9044148 129.565847,73.9691009 C129.327653,74.0340864 129.075642,74.0271986 128.841653,73.9490362 C128.607664,73.8711733 128.40191,73.7256297 128.250523,73.5312719 Z" id="Path" fill="#5BA3B1" fill-rule="nonzero"></path>
                    <path d="M72.7798455,29.6771048 C71.8862423,28.5289269 70.0281485,26.2396386 69.6710077,26.0801695 C69.1351461,25.8410106 67.797595,25.82436 66.3128621,26.2419445 C64.8284296,26.659619 63.6482727,26.959391 62.7832048,26.4422019 C62.6708661,26.3748205 62.5900664,26.1919626 62.2836881,25.9187537 C63.1310342,26.9465137 64.7950884,29.1314657 65.0678251,29.177285 C65.4769301,29.2458643 66.6946334,29.1605146 68.2292278,28.7484403 C69.7638222,28.3360665 70.1302746,28.4519624 70.9418765,28.4944875 C71.4828443,28.522638 72.0956008,28.9170434 72.7798455,29.6771048 Z" id="Path" fill="#A5597E" fill-rule="nonzero"></path>
                    <path d="M65.040191,29.1733919 C64.7025742,29.0401266 64.484505,28.9302201 64.385683,28.8436726 C63.7284717,28.2680863 62.2857907,26.0845418 62.1704483,25.7881238 C61.9586869,25.2432634 62.2335262,24.0562738 62.7318414,22.5912239 C63.2298562,21.126204 63.5936052,19.9604471 63.1199205,19.0753858 C63.0583444,18.9603284 62.7997252,18.6535487 62.3437623,18.1551065 C62.6927932,18.3750392 64.0156262,20.1525587 64.1096422,20.242131 C64.7917843,20.8909983 65.243542,21.5667282 65.2696743,21.7939381 C65.3171329,22.2053535 65.1666471,23.4174089 64.6713356,24.9325306 C64.1760242,26.4475924 64.2727436,26.8183394 64.2724432,27.6305091 C64.2721429,28.1716561 64.5280588,28.68615 65.040191,29.1733919 Z" id="Path" fill="#5F2A6F" fill-rule="nonzero"></path>
                    <path d="M24.5140121,78.9343564 C24.780441,80.4958065 25.2678527,83.6741091 25.169211,84.0897771 C25.0212183,84.7135785 24.2541313,85.8665479 23.1038914,86.8434275 C21.9536214,87.8200076 21.0613999,88.618701 20.9123259,89.7165675 C20.892952,89.859416 20.9712587,90.0555705 20.9800595,90.5071752 C20.7691692,89.0691078 20.2403063,86.1291854 20.3676936,85.8644516 C20.5587895,85.467351 21.3260566,84.4877761 22.5016479,83.4647778 C23.6772391,82.4414799 23.8112346,82.0482724 24.2544918,81.3259445 C24.5499965,80.8446921 24.6365033,80.047496 24.5140121,78.9343564 Z" id="Path" fill="#5F2A6F" fill-rule="nonzero"></path>
                    <path d="M23.4327073,67.1219596 C23.6991362,68.6834097 24.1865479,71.8617123 24.0879061,72.2773802 C23.9399134,72.9011816 23.1728265,74.0541511 22.0225865,75.0310307 C20.8723165,76.0076108 19.9800951,76.8063042 19.8310211,77.9041707 C19.8116471,78.0470191 19.8899238,78.2431737 19.8987547,78.6947783 C19.6878643,77.256711 19.1590015,74.3164891 19.2863887,74.0520548 C19.4774846,73.6549541 20.2447518,72.6753793 21.420343,71.6520814 C22.5959043,70.6290831 22.7299297,70.2355761 23.1731869,69.5135477 C23.4686917,69.0319957 23.5551985,68.2347997 23.4327073,67.1219596 Z" id="Path" fill="#5F2A6F" fill-rule="nonzero"></path>
                    <path d="M19.2731123,74.0781089 C19.1679225,74.459038 19.1162287,74.7216755 19.1179853,74.8663207 C19.1298955,75.8273283 19.7865061,78.5776846 19.9225741,78.8822482 C20.1726628,79.4419625 21.1460745,80.0328219 22.4399517,80.626676 C23.733829,81.2205302 24.7443365,81.7209489 25.0751949,82.7409525 C25.118178,82.8733194 25.1778016,83.3075546 25.2539756,84.0436583 C25.3063603,83.5926526 24.8582371,81.227418 24.8516589,81.0845696 C24.8039901,80.0510897 24.6040032,79.1954965 24.4635198,79.015214 C24.2091358,78.6884894 23.2909623,77.9739478 21.9644047,77.3429591 C20.6378471,76.7116708 20.440173,76.3711705 19.8834958,75.8066647 C19.5123877,75.4305271 19.3089165,74.8540424 19.2731123,74.0781089 Z" id="Path" fill="#A5597E" fill-rule="nonzero"></path>
                    <path d="M19.2941984,63.7436093 C19.150561,64.1820372 19.4893493,66.9476665 19.6550338,67.3211088 C19.9035906,67.8814221 20.0254511,68.0060027 21.3098066,68.6016536 C22.5941321,69.1973046 23.5972204,69.6989212 23.9262165,70.7195238 C23.9689893,70.8521902 24.0265103,71.3702777 24.0987795,72.2737865 C24.1536272,72.017438 24.1748935,71.7628863 24.1625482,71.5107304 C24.1081511,70.3987886 23.5834333,66.8647126 23.4577882,66.702099 C23.2051464,66.3750749 22.293551,65.6593354 20.9767554,65.0265499 C20.0988917,64.604593 19.5380394,64.1769461 19.2941984,63.7436093 Z" id="Path" fill="#A5597E" fill-rule="nonzero"></path>
                    <path d="M106.881844,116.025834 C108.244326,117.004809 111.044683,118.932514 111.491635,118.993008 C112.161762,119.083449 113.645594,118.66808 115.150451,117.725041 C116.655009,116.782002 117.861298,116.068059 118.986186,116.359147 C119.132467,116.39688 119.281451,116.57297 119.709479,116.775413 C118.437409,115.91443 115.885459,114.039132 115.568868,114.076866 C115.094282,114.133766 113.776255,114.623104 112.214627,115.576325 C110.652999,116.529546 110.210253,116.520562 109.299228,116.736781 C108.692179,116.881127 107.886284,116.643945 106.881844,116.025834 Z" id="Path" fill="#A5597E" fill-rule="nonzero"></path>
                    <path d="M115.600407,114.072374 C116.017321,114.110107 116.294263,114.161018 116.431833,114.224506 C117.345861,114.647361 119.65301,116.593035 119.877086,116.883224 C120.288895,117.416584 120.372398,118.817816 120.299708,120.59878 C120.227018,122.379444 120.205391,123.786067 121.017895,124.610515 C121.123325,124.717726 121.509602,124.972877 122.176124,125.375967 C121.71866,125.245996 119.676438,123.7103 119.543374,123.64202 C118.577682,123.146094 117.857693,122.545651 117.754666,122.303078 C117.568136,121.863752 117.338953,120.475098 117.392119,118.63993 C117.445284,116.804762 117.217303,116.426228 116.952676,115.528709 C116.776358,114.930363 116.325502,114.444918 115.600407,114.072374 Z" id="Path" fill="#F69279" fill-rule="nonzero"></path>
                    <path d="M105.698383,109.700673 C106.189189,109.717443 108.668449,111.294167 108.943889,111.648742 C109.356899,112.180605 109.415772,112.377658 109.34969,114.147841 C109.283308,115.918323 109.266788,117.31656 110.080492,118.139212 C110.186223,118.246123 110.6539,118.534515 111.482924,119.004388 C111.210187,118.960066 110.956073,118.876813 110.720883,118.754927 C109.683402,118.217673 106.560747,116.094413 106.467332,115.876996 C106.2796,115.439466 106.046212,114.057999 106.09277,112.233612 C106.123708,111.017154 105.992145,110.172941 105.698383,109.700673 Z" id="Path" fill="#F69279" fill-rule="nonzero"></path>
                    <path d="M140.370185,47.997041 C140.29389,46.2562069 140.203479,42.7230292 140.383401,42.2893929 C140.653134,41.6392379 141.735069,40.524002 143.24233,39.6681093 C144.749891,38.8122167 145.925242,38.103964 146.268866,36.9393151 C146.313622,36.787782 146.251145,36.5610812 146.309416,36.0696467 C146.339153,37.6670335 146.51487,40.9492531 146.324135,41.2139869 C146.037881,41.610788 144.982078,42.5376557 143.437872,43.4393677 C141.893665,44.3410796 141.675296,44.7441697 141.041513,45.4491282 C140.619192,45.9190007 140.395416,46.768305 140.370185,47.997041 Z" id="Path" fill="#F69279" fill-rule="nonzero"></path>
                    <path d="M146.343959,41.1879327 C146.526284,40.7932279 146.627209,40.5174136 146.647334,40.36049 C146.779797,39.3159296 146.424458,36.2166877 146.310017,35.8624117 C146.100358,35.2110588 145.040951,34.3979907 143.603676,33.5250281 C142.166402,32.6520655 141.049623,31.930636 140.814733,30.7659871 C140.784096,30.614454 140.77989,30.1332015 140.802418,29.3213314 C140.671757,29.8010864 140.839664,32.4460284 140.825847,32.6017541 C140.724322,33.7313647 140.829752,34.694768 140.968223,34.9151799 C141.218732,35.3143768 142.194036,36.251726 143.664051,37.1708074 C145.134366,38.0901883 145.31579,38.4944763 145.886795,39.2051247 C146.267665,39.6788904 146.419953,40.3398264 146.343959,41.1879327 Z" id="Path" fill="#A5597E" fill-rule="nonzero"></path>
                    <path d="M144.741481,52.3929992 C144.978173,51.9428919 145.0001,48.8834799 144.861329,48.4489452 C144.653472,47.7972928 144.528518,47.6406686 143.102958,46.767706 C141.677098,45.894444 140.56933,45.1730145 140.336543,44.0077666 C140.306206,43.856533 140.317319,43.2842409 140.369884,42.2914892 C140.265956,42.5598167 140.202277,42.8320373 140.178248,43.1078515 C140.072817,44.3234108 140.153016,48.2494964 140.276469,48.4480467 C140.524876,48.8472437 141.49207,49.7848924 142.95037,50.7042732 C143.92267,51.3169942 144.519807,51.8800026 144.741481,52.3929992 Z" id="Path" fill="#A5597E" fill-rule="nonzero"></path>
                    <path d="M89.4870702,26.7174172 C90.7173891,24.7509903 93.1293666,20.7169448 93.1717189,20.0961082 C93.2353975,19.1648382 92.5229179,17.1601088 91.077834,15.1753243 C89.6327501,13.1905098 88.5321915,11.5952792 88.8316612,10.0195143 C88.8707094,9.81467509 89.100493,9.593275 89.3416908,8.98540554 C88.2666637,10.816351 85.9042473,14.5034575 85.9856478,14.9357163 C86.1081991,15.5841343 86.9077862,17.3533884 88.3723942,19.4157364 C89.8367019,21.4780843 89.8652371,22.0887688 90.2488106,23.3229253 C90.5047265,24.1456963 90.2506128,25.2771936 89.4870702,26.7174172 Z" id="Path" fill="#A5597E" fill-rule="nonzero"></path>
                    <path d="M85.9763363,14.8925922 C85.9904537,14.3152091 86.0349086,13.9290092 86.1103017,13.7339927 C86.6119209,12.4364678 89.0938849,9.08012872 89.4753558,8.74480926 C90.1764212,8.12843478 92.1096077,7.88427477 94.5831613,7.81985822 C97.0567148,7.75547161 99.0067221,7.65544777 100.07424,6.4609115 C100.213011,6.30563496 100.530503,5.75047268 101.027316,4.79539469 C100.889747,5.43731419 98.9511535,8.39074282 98.8685515,8.58063839 C98.2705133,9.95587642 97.5054688,11.0027428 97.1789658,11.1669735 C96.5875356,11.4643797 94.6852874,11.9079585 92.1381429,12.0041791 C89.5909985,12.1004296 89.0878774,12.4492852 87.8689727,12.8963379 C87.0561693,13.1943431 86.4253907,13.8597712 85.9763363,14.8925922 Z" id="Path" fill="#F69279" fill-rule="nonzero"></path>
                    <path d="M80.8345889,28.9305196 C80.8126618,28.2531126 82.7677754,24.693791 83.2336505,24.2818964 C83.932313,23.6640545 84.199643,23.5647794 86.658178,23.4925765 C89.1164127,23.4203737 91.0547055,23.3142406 92.1192196,22.1178177 C92.2576905,21.9623016 92.6139303,21.2920819 93.1882393,20.1071886 C93.1518944,20.4867103 93.0602813,20.8441308 92.9130996,21.1794503 C92.2645991,22.6573475 89.6117241,27.1531498 89.3188626,27.3016882 C88.7301358,27.6005618 86.8384005,28.0497707 84.3068754,28.1539872 C82.6190918,28.2234648 81.4617631,28.4822092 80.8345889,28.9305196 Z" id="Path" fill="#F69279" fill-rule="nonzero"></path>
                    <path d="M71.2305329,8.61639542 C71.2305329,9.85684083 70.2218877,10.8624398 68.9777518,10.8624398 C67.733616,10.8624398 66.7249708,9.85684083 66.7249708,8.61639542 C66.7249708,7.37595 67.733616,6.37035099 68.9777518,6.37035099 C70.2218877,6.37035099 71.2305329,7.37595 71.2305329,8.61639542 Z" id="Path" stroke="#5F2A6F" stroke-width="0.9" fill="#5F2A6F" fill-rule="nonzero"></path>
                    <polygon id="Path" fill="#CE6767" fill-rule="nonzero" points="54.4539224 47.7709392 59.2178034 51.5937068 53.5152637 53.7954293"></polygon>
                    <polygon id="Path" fill="#5F2A6F" fill-rule="nonzero" points="115.607015 26.9851457 116.238695 32.8125828 110.861156 30.4443536"></polygon>
                    <polygon id="Path" fill="#5F2A6F" fill-rule="nonzero" points="38.1801327 57.0009839 38.8118125 62.828421 33.434274 60.4601918"></polygon>
                    <polygon id="Path" fill="#CE6767" fill-rule="nonzero" points="81.7002576 4.78773165e-15 85.3849062 5.38604448 78.8641564 5.87451422"></polygon>
                    <polygon id="Path" fill="#5BA3B1" fill-rule="nonzero" points="147.164872 99.5356748 153.166582 104.164623 146.144813 107.032372"></polygon>
                    <path d="M114.516969,94.9651242 C114.086237,92.1985964 113.120245,86.5954642 112.732166,85.9459082 C112.150047,84.9720233 110.277836,83.4255468 107.885082,82.3737991 C105.492328,81.3217519 103.613809,80.4371099 102.768566,78.6645316 C102.65863,78.4342372 102.676653,78.0634901 102.442063,77.2983377 C102.894421,79.828881 103.662169,85.0525814 104.013603,85.4326121 C104.540453,86.002808 106.317147,87.2569992 108.776282,88.3737325 C111.235418,89.4907652 111.668253,90.0840204 112.780826,91.071681 C113.522441,91.7302212 114.101256,93.0281354 114.516969,94.9651242 Z" id="Path" fill="#A5597E" fill-rule="nonzero"></path>
                    <path d="M103.977559,85.3954775 C103.59789,84.8082118 103.369908,84.3922444 103.293013,84.1481742 C102.782683,82.5235354 102.325519,77.5537878 102.376882,76.9707146 C102.4718,75.8992017 103.715335,74.4024377 105.474006,72.7352738 C107.232677,71.0684094 108.585847,69.7049107 108.557312,67.816736 C108.553407,67.5714679 108.41013,66.8093102 108.127482,65.5308617 C108.460593,66.2630722 109.04151,70.4775499 109.109694,70.7210212 C109.602302,72.4858131 109.751586,74.0301933 109.62453,74.4063309 C109.394145,75.0873315 108.307704,76.7637791 106.517194,78.5106027 C104.726383,80.2571268 104.595121,80.9324375 104.008797,82.1698583 C103.618015,82.9949053 103.607502,84.0700119 103.977559,85.3954775 Z" id="Path" fill="#5F2A6F" fill-rule="nonzero"></path>
                    <path d="M109.707132,102.787648 C109.233747,102.123417 108.25574,97.2914272 108.317316,96.5771851 C108.409229,95.5056722 108.536887,95.2331521 110.279338,93.5680845 C112.021489,91.9030169 113.362043,90.5410156 113.330204,88.6528409 C113.325999,88.4075729 113.133161,87.5052619 112.75169,85.9465071 C112.981474,86.3501962 113.155989,86.767661 113.275236,87.1989015 C113.800284,89.0993545 114.902045,95.3208976 114.789105,95.6596011 C114.561724,96.3403023 113.486697,98.0158514 111.712707,99.7602793 C110.529847,100.923431 109.861522,101.932354 109.707132,102.787648 Z" id="Path" fill="#5F2A6F" fill-rule="nonzero"></path>
                    <path d="M57.1614648,24.1839989 C56.7304327,21.4172914 55.7647406,15.8140394 55.3766615,15.164723 C54.7942425,14.1907483 52.9220313,12.6442419 50.5295779,11.5924342 C48.1368241,10.5406266 46.2583051,9.65568509 45.4127613,7.88337636 C45.3028256,7.65299209 45.3211482,7.28221508 45.0862582,6.51715245 C45.538917,9.04766589 46.3066648,14.2712764 46.6577982,14.6513671 C47.1846486,15.221503 48.9616423,16.4756343 51.4207781,17.5925772 C53.8796135,18.7095201 54.3124478,19.3028652 55.4250212,20.2904958 C56.1669371,20.9489163 56.7457517,22.2467406 57.1614648,24.1839989 Z" id="Path" fill="#A5597E" fill-rule="nonzero"></path>
                    <polygon id="Rectangle" fill="#5F2A6F" fill-rule="nonzero" transform="translate(146.047987, 139.660731) rotate(28.376600) translate(-146.047987, -139.660731) " points="142.600376 136.218782 149.504238 136.210144 149.495599 143.102679 142.591737 143.111318"></polygon>
                    <polygon id="Rectangle" fill="#FE9B7C" fill-rule="nonzero" transform="translate(13.284183, 97.135623) rotate(28.376600) translate(-13.284183, -97.135623) " points="9.83657091 93.6936744 16.740433 93.6850358 16.7317943 100.577572 9.82793223 100.58621"></polygon>
                    <polygon id="Rectangle" fill="#5F2A6F" fill-rule="nonzero" transform="translate(50.525773, 34.068978) rotate(-32.173400) translate(-50.525773, -34.068978) " points="46.6296092 30.1778553 54.4114403 30.1883525 54.4219375 37.9601007 46.6401064 37.9496035"></polygon>
                    <polygon id="Rectangle" fill="#CE6767" fill-rule="nonzero" transform="translate(125.110247, 62.784207) rotate(-32.173400) translate(-125.110247, -62.784207) " points="121.214082 58.8930841 128.995914 58.9035813 129.006411 66.6753295 121.22458 66.6648323"></polygon>
                </g>
            </g>
        </g>
    </g>
</svg>