<?xml version="1.0" encoding="UTF-8"?>
<svg width="16px" height="16px" viewBox="0 0 16 16" version="1.1" xmlns="http://www.w3.org/2000/svg" xmlns:xlink="http://www.w3.org/1999/xlink">
    <title>D3A5325B-35DC-489B-829A-4AF5C72B0F54</title>
    <g id="onboarding-Flow" stroke="none" stroke-width="1" fill="none" fill-rule="evenodd">
        <g id="UpdatedBilling_ProMonthly" transform="translate(-879.000000, -631.000000)" fill="#582F6B" fill-rule="nonzero">
            <g id="Group-2-Copy" transform="translate(879.000000, 626.000000)">
                <g id="Group" transform="translate(0.000000, 5.000000)">
                    <g id="Path">
                        <path d="M5.96,0.0123076923 L0.753846154,0.0123076923 C0.344615385,0.0123076923 0.00923076923,0.344615385 0.00923076923,0.756923077 L0.00923076923,5.96 C0.00923076923,6.36923077 0.341538462,6.70461538 0.753846154,6.70461538 C1.16307692,6.70461538 1.49846154,6.37230769 1.49846154,5.96 L1.49846154,1.49846154 L5.96,1.49846154 C6.36923077,1.49846154 6.70461538,1.16615385 6.70461538,0.753846154 C6.70153846,0.344615385 6.36923077,0.0123076923 5.96,0.0123076923 Z"></path>
                        <path d="M14.1384615,8.19076923 C13.7292308,8.19076923 13.3938462,8.52307692 13.3938462,8.93538462 L13.3938462,13.3969231 L8.93230769,13.3969231 C8.52307692,13.3969231 8.18769231,13.7292308 8.18769231,14.1415385 C8.18769231,14.5507692 8.52,14.8861538 8.93230769,14.8861538 L14.1384615,14.8861538 C14.5476923,14.8861538 14.8830769,14.5538462 14.8830769,14.1415385 L14.8830769,8.93230769 C14.8830769,8.52307692 14.5476923,8.19076923 14.1384615,8.19076923 Z"></path>
                    </g>
                    <path d="M14.1384615,0.0123076923 L11.1630769,0.0123076923 C10.7538462,0.0123076923 10.4184615,0.344615385 10.4184615,0.756923077 C10.4184615,1.16615385 10.7507692,1.50153846 11.1630769,1.50153846 L12.3415385,1.50153846 L1.49846154,12.3446154 L1.49846154,11.1661538 C1.49846154,10.7569231 1.16615385,10.4215385 0.753846154,10.4215385 C0.344615385,10.4215385 0.00923076923,10.7538462 0.00923076923,11.1661538 L0.00923076923,14.1415385 C0.00923076923,14.5507692 0.341538462,14.8861538 0.753846154,14.8861538 L3.72923077,14.8861538 C4.13846154,14.8861538 4.47384615,14.5538462 4.47384615,14.1415385 C4.47384615,13.7323077 4.14153846,13.3969231 3.72923077,13.3969231 L2.55076923,13.3969231 L13.3938462,2.54769231 L13.3938462,3.72615385 C13.3938462,4.13538462 13.7261538,4.47076923 14.1384615,4.47076923 C14.5476923,4.47076923 14.8830769,4.13846154 14.8830769,3.72615385 L14.8830769,0.753846154 C14.8830769,0.344615385 14.5476923,0.0123076923 14.1384615,0.0123076923 Z" id="Path"></path>
                </g>
            </g>
        </g>
    </g>
</svg>