<svg width="16" height="16" xmlns="http://www.w3.org/2000/svg">
  <g fill="#672373" fill-rule="nonzero">
    <path d="M5.792 15.123h9.733a.476.476 0 00.475-.474v-.83a.476.476 0 00-.475-.474H5.792a.476.476 0 00-.474.474v.83c0 .26.213.474.474.474zM5.792 8.889h9.733A.476.476 0 0016 8.415v-.83a.476.476 0 00-.475-.474H5.792a.476.476 0 00-.474.474v.83c0 .26.213.474.474.474zM5.792 2.679h9.733A.476.476 0 0016 2.204v-.83a.476.476 0 00-.475-.473H5.792a.476.476 0 00-.474.474v.83c0 .26.213.474.474.474z"/>
    <ellipse cx="1.78" cy="14.222" rx="1.78" ry="1.778"/>
    <ellipse cx="1.78" cy="8.012" rx="1.78" ry="1.778"/>
    <ellipse cx="1.78" cy="1.778" rx="1.78" ry="1.778"/>
  </g>
</svg>
