<svg width="25" height="18" xmlns="http://www.w3.org/2000/svg"><g fill-rule="nonzero" fill="none"><path d="M1.042 0h22.916C24.531 0 25 .433 25 .963V15.4c0 .53-.469.963-1.042.963H1.042C.469 16.364 0 15.93 0 15.4V.963C0 .433.469 0 1.042 0z" fill="#4361C3"/><path d="M15.495 5.114c2.083 0 3.776 1.662 3.776 3.707s-1.693 3.707-3.776 3.707c-2.084 0-3.776-1.662-3.776-3.707s1.692-3.707 3.776-3.707z" fill="#FFAF38"/><path fill="#FFAF38" d="M12.24 6.903h2.604v.512H12.24z"/><path d="M9.505 12.528c-2.083 0-3.776-1.662-3.776-3.707s1.693-3.707 3.776-3.707c2.084 0 3.776 1.662 3.776 3.707s-1.692 3.707-3.776 3.707z" fill="#EB3636"/><path d="M12.24 10.483v-.511h3.385v.511H12.24zm0-3.58h3.385v.512H12.24v-.512zm3.125 1.535h-3.386v-.512h3.386v.511zm0 1.022h-3.386V8.95h3.386v.511z" fill="#FFAF38"/><path d="M1.042 17.386h.468L25 1.483v-.46C25 .46 24.531 0 23.958 0H1.042C.469 0 0 .46 0 1.023v15.34c0 .563.469 1.023 1.042 1.023z" fill="#FFF" opacity=".05"/></g></svg>