<svg xmlns="http://www.w3.org/2000/svg" xmlns:xlink="http://www.w3.org/1999/xlink" viewBox="0 0 451 97"><defs><linearGradient id="a" x1="90.51%" x2="0%" y1="47.625%" y2="56.172%"><stop offset="0%" stop-color="#FE9B7C"/><stop offset="100%" stop-color="#D06868"/></linearGradient><linearGradient id="e" x1="36.072%" x2="65.768%" y1="101.288%" y2="13.528%"><stop offset="0%" stop-color="#4C416C"/><stop offset="100%" stop-color="#4F7995"/></linearGradient><linearGradient id="k" x1="60.159%" x2="33.185%" y1="-2.451%" y2="98.382%"><stop offset="0%" stop-color="#5190A5"/><stop offset="100%" stop-color="#4E6586"/></linearGradient><linearGradient id="m" x1="78.616%" x2="3.475%" y1="38.058%" y2="94.021%"><stop offset="0%" stop-color="#EFE8CD"/><stop offset="100%" stop-color="#D3CAAF"/></linearGradient><path id="b" d="M11.67.025L3.066.034 0 2.569l9.37-.009z"/><path id="d" d="M36.14 7.979c-3.163-1.74-2.23-6.42-2.23-6.42s.17-1.183-.682-1.352c-.852-.168-1.108-.422-1.022 1.1.087 1.52-.838 5.745 1.72 7.94 1.867 1.604 4.515 1.265 6.39 3.799 1.867 2.522-.716 6.069-1.284 6.337-1.788.846-1.703 1.184-3.15 1.354-1.448.17-5.272-.25-7.4.512-2.13.762-1.543 1.522-3.586 2.79-2.044 1.27-5.45 2.961-6.897 4.567a5.583 5.583 0 00-1.169 2.069c-1.372.41-4.422.818-6.825 2.161-1.408.787-5.116 3.318-6.81 5.75-1.532 2.198-2.297 4.818-2.722 7.1-.262 1.412-.423 4.14-.422 5.83.001 1.664.243 2.99.539 4.624.131.728.253 1.992.253 2.806 0 .814-.253 1.012-.253 1.578 0 .566.177.742.314.88.136.138 0-.427 0-.577 0-.15.202-.548.264-.419.061.129-.01.01-.064.657-.055.647.484 1.869.484 1.315s0-1.315.129-1.646c.128-.332.135-.078.135 0s-.033.262.05.224c.083-.038.23-.189.083-.942-.147-.753-.235-.753-.287-1.07-.177-1.084-.175-1.63-.28-2.362-.172-1.183-.26-4.9-.175-6.168.13-1.939.63-2.164.85-2.535.35-.592.697 3.577 2.22 7.265 1.29 3.125 3.068 3.124 3.75 3.8.682.675-.594 3.633-.082 5.745.46 1.897-.168 3.127.003 3.634.17.506 2.215 1.096 3.748 1.096 1.533-.001 3.407-.425 3.407-1.101-.002-1.774-.683-1.436-.854-2.534-.17-1.099 1.593-2.708 1.786-4.057.34-2.366-.001-2.873-.514-4.647-.032-.113-.257-2.197-.257-2.197s2.812.421 4.685-.847c3.098-2.099 4.255-5.58 4.255-5.58s1.273 1.402 2.046 2.027c1.11.897 1.617.984 2.215 1.181.767.253 2.801.76 2.801.76s-1.01 1.183-1.607 1.605c-.421.3-1.628 1.269-1.372 1.776.256.507 1.094 1.88 1.96 2.449 1.545 1.013 2.823 1.35 3.249 1.265.425-.085.925-2.873 1.52-3.38.596-.508 1.713-2.199 1.627-3.043-.084-.828-.258-4.056-2.388-5.237-1.157-.642-2.597-1.006-3.154-3.21-.512-2.027-3.75-3.377-3.75-3.377 1.026-1.456 2.746-3.35 3.204-3.847.497.245.958.404 1.468.38.928-.042.644-1.056.111-2.449l.154.252s1.651-.997 2.213-2.113c.596-1.184 2.127-3.888 3.404-4.312 1.475-.488 4.088-1.861 3.832-2.368-.359-.711-2.641-.759-2.641-.759s2.916-1.087 3.066-1.354c1.187-2.119 2.86-6.075 1.867-10.562-1.196-5.407-6.392-5.32-7.926-6.163z"/><path id="g" d="M3.195 8.123C1.663 10.32.898 12.94.473 15.222c-.262 1.413-.423 4.14-.422 5.83.001 1.665.22 3.52.515 5.154.427 2.366.94 5.07 1.28 4.984.166-.04-.068-2.574-.429-5.069-.17-1.183-.258-4.9-.174-6.168.13-1.939.63-2.164.85-2.535.35-.592.697 3.577 2.22 7.265 1.29 3.125 3.068 3.124 3.75 3.8.682.675-.594 3.633-.082 5.745.46 1.897-.168 3.127.003 3.633.17.507 2.215 1.097 3.748 1.096 1.533 0 3.407-.424 3.407-1.1-.002-1.774-.683-1.436-.854-2.534-.17-1.099 1.593-2.708 1.786-4.057.34-2.366-.001-2.873-.514-4.647-.032-.113-.257-2.197-.257-2.197s2.812.421 4.685-.848c3.098-2.098 4.255-5.579 4.255-5.579s1.273 1.402 2.046 2.027c1.11.897 1.617.984 2.215 1.181.767.253 2.801.759 2.801.759s-1.01 1.184-1.607 1.606c-.421.3-1.628 1.269-1.372 1.776.256.506 1.094 1.88 1.96 2.449 1.545 1.013 2.823 1.35 3.249 1.265.425-.085.925-2.873 1.52-3.38.596-.508 1.713-2.199 1.627-3.043-.084-.828-.258-4.056-2.388-5.238-1.157-.641-2.597-1.005-3.154-3.208-.512-2.028-3.75-3.378-3.75-3.378 1.191-1.69 3.32-3.973 3.32-3.973L17.286.045c-1 .484-4.557.805-7.282 2.328-1.408.787-5.116 3.318-6.81 5.75z"/><path id="j" d="M17.4 9.202c1.868 1.603 4.516 1.264 6.391 3.798 1.868 2.522-.716 6.07-1.283 6.338-1.789.846-1.703 1.184-3.151 1.354-.482.056-1.228.047-2.086.039-1.72-.018-3.894-.036-5.314.472-2.13.762-1.543 1.522-3.586 2.79-2.044 1.27-5.45 2.962-6.897 4.568-1.447 1.606-1.7 3.888-1.104 4.817.597.929 2.386 1.941 7.242 2.023 4.855.081 6.049 2.446 7.923 2.36.927-.042.644-1.056.11-2.448l.154.252s1.652-.998 2.213-2.114c.596-1.183 2.127-3.888 3.405-4.311 1.474-.489 4.087-1.862 3.831-2.369-.359-.71-2.64-.758-2.64-.758s2.916-1.088 3.065-1.354c1.187-2.12 2.86-6.075 1.867-10.563-1.196-5.407-6.392-5.319-7.926-6.163-3.162-1.74-2.229-6.42-2.229-6.42s.17-1.183-.682-1.352c-.298-.059-.523-.128-.686-.128-.303 0-.391.24-.335 1.228.086 1.52-.838 5.746 1.719 7.94z"/><radialGradient id="c" cx="41.057%" cy="27.737%" r="60.073%" fx="41.057%" fy="27.737%" gradientTransform="matrix(0 1 -.66914 0 .596 -.133)"><stop offset="0%" stop-opacity=".5"/><stop offset="100%" stop-opacity="0"/></radialGradient><filter id="i" width="147.2%" height="135%" x="-23.3%" y="-17.2%" filterUnits="objectBoundingBox"><feOffset in="SourceAlpha" result="shadowOffsetOuter1"/><feGaussianBlur in="shadowOffsetOuter1" result="shadowBlurOuter1" stdDeviation="1.5"/><feColorMatrix in="shadowBlurOuter1" result="shadowMatrixOuter1" values="0 0 0 0 0 0 0 0 0 0 0 0 0 0 0 0 0 0 0.5 0"/><feMerge><feMergeNode in="shadowMatrixOuter1"/><feMergeNode in="SourceGraphic"/></feMerge></filter></defs><g fill="none" fill-rule="evenodd"><path fill="#020408" fill-rule="nonzero" d="M87.96 39.2c4.053 0 7.573.672 10.56 2.016 2.987 1.344 5.29 3.264 6.912 5.76 1.621 2.496 2.432 5.43 2.432 8.8 0 3.37-.81 6.293-2.432 8.768-1.621 2.475-3.925 4.384-6.912 5.728-2.987 1.344-6.507 2.016-10.56 2.016h-7.808V84H67.48V39.2h20.48zm-.768 23.104c2.603 0 4.565-.565 5.888-1.696 1.323-1.13 1.984-2.741 1.984-4.832 0-2.09-.661-3.712-1.984-4.864-1.323-1.152-3.285-1.728-5.888-1.728h-7.04v13.12h7.04zm41.664-13.568c5.76 0 10.155 1.312 13.184 3.936 3.03 2.624 4.544 6.645 4.544 12.064V84h-11.328v-4.48c-1.75 3.37-5.163 5.056-10.24 5.056-2.688 0-5.013-.47-6.976-1.408-1.963-.939-3.445-2.208-4.448-3.808-1.003-1.6-1.504-3.424-1.504-5.472 0-3.285 1.259-5.835 3.776-7.648 2.517-1.813 6.4-2.72 11.648-2.72h6.912c-.213-3.67-2.667-5.504-7.36-5.504-1.664 0-3.35.267-5.056.8-1.707.533-3.157 1.27-4.352 2.208l-4.096-8.256c1.92-1.28 4.256-2.272 7.008-2.976a33.321 33.321 0 018.288-1.056zm-.448 28.16c1.408 0 2.645-.341 3.712-1.024 1.067-.683 1.835-1.685 2.304-3.008v-3.008h-5.248c-3.541 0-5.312 1.173-5.312 3.52 0 1.067.405 1.92 1.216 2.56.81.64 1.92.96 3.328.96zm43.584 7.68c-3.84 0-7.275-.768-10.304-2.304-3.03-1.536-5.387-3.67-7.072-6.4-1.685-2.73-2.528-5.824-2.528-9.28 0-3.456.843-6.539 2.528-9.248 1.685-2.71 4.043-4.821 7.072-6.336 3.03-1.515 6.464-2.272 10.304-2.272 3.925 0 7.317.843 10.176 2.528s4.885 4.021 6.08 7.008l-9.408 4.8c-1.579-3.115-3.883-4.672-6.912-4.672-2.176 0-3.979.725-5.408 2.176-1.43 1.45-2.144 3.456-2.144 6.016 0 2.603.715 4.64 2.144 6.112 1.43 1.472 3.232 2.208 5.408 2.208 3.03 0 5.333-1.557 6.912-4.672l9.408 4.8c-1.195 2.987-3.221 5.323-6.08 7.008-2.859 1.685-6.25 2.528-10.176 2.528zm43.456-35.84c4.31 0 7.776 1.28 10.4 3.84 2.624 2.56 3.936 6.421 3.936 11.584V84h-12.16V66.144c0-4.736-1.899-7.104-5.696-7.104-2.09 0-3.765.683-5.024 2.048s-1.888 3.413-1.888 6.144V84h-12.16V36.512h12.16v16c1.323-1.237 2.88-2.176 4.672-2.816 1.792-.64 3.712-.96 5.76-.96zm58.496.576l-14.976 36.096c-1.75 4.267-3.883 7.264-6.4 8.992-2.517 1.728-5.59 2.592-9.216 2.592-1.835 0-3.68-.288-5.536-.864-1.856-.576-3.36-1.333-4.512-2.272l4.224-8.512c.683.64 1.504 1.141 2.464 1.504s1.93.544 2.912.544c1.152 0 2.101-.235 2.848-.704.747-.47 1.376-1.216 1.888-2.24l-14.848-35.136h12.48l8.512 21.184 8.576-21.184h11.584zm40-12.8V84H302.36v-3.456c-2.261 2.688-5.653 4.032-10.176 4.032-3.157 0-6.037-.736-8.64-2.208-2.603-1.472-4.661-3.573-6.176-6.304-1.515-2.73-2.272-5.888-2.272-9.472 0-3.584.757-6.73 2.272-9.44 1.515-2.71 3.573-4.79 6.176-6.24 2.603-1.45 5.483-2.176 8.64-2.176 4.139 0 7.339 1.195 9.6 3.584V36.512h12.16zm-19.2 38.4c2.09 0 3.819-.736 5.184-2.208 1.365-1.472 2.048-3.51 2.048-6.112 0-2.56-.672-4.565-2.016-6.016-1.344-1.45-3.083-2.176-5.216-2.176s-3.883.725-5.248 2.176c-1.365 1.45-2.048 3.456-2.048 6.016 0 2.603.683 4.64 2.048 6.112 1.365 1.472 3.115 2.208 5.248 2.208zm62.464-8.192c0 .085-.064 1.088-.192 3.008H331.8c.512 1.792 1.504 3.168 2.976 4.128s3.317 1.44 5.536 1.44c1.664 0 3.104-.235 4.32-.704 1.216-.47 2.443-1.237 3.68-2.304l6.4 6.656c-3.37 3.755-8.299 5.632-14.784 5.632-4.053 0-7.616-.768-10.688-2.304-3.072-1.536-5.45-3.67-7.136-6.4-1.685-2.73-2.528-5.824-2.528-9.28 0-3.413.821-6.475 2.464-9.184 1.643-2.71 3.915-4.832 6.816-6.368 2.901-1.536 6.165-2.304 9.792-2.304 3.456 0 6.592.715 9.408 2.144 2.816 1.43 5.045 3.499 6.688 6.208 1.643 2.71 2.464 5.92 2.464 9.632zm-18.496-9.344c-1.877 0-3.445.533-4.704 1.6-1.259 1.067-2.059 2.517-2.4 4.352h14.208c-.341-1.835-1.141-3.285-2.4-4.352-1.259-1.067-2.827-1.6-4.704-1.6zm35.712-3.904c1.237-1.579 2.848-2.763 4.832-3.552 1.984-.79 4.256-1.184 6.816-1.184V59.68c-1.11-.128-2.027-.192-2.752-.192-2.603 0-4.64.704-6.112 2.112-1.472 1.408-2.208 3.563-2.208 6.464V84h-12.16V49.312h11.584v4.16zm61.952-4.736c4.267 0 7.67 1.28 10.208 3.84 2.539 2.56 3.808 6.421 3.808 11.584V84h-12.16V66.144c0-2.432-.459-4.224-1.376-5.376-.917-1.152-2.208-1.728-3.872-1.728-1.835 0-3.307.64-4.416 1.92-1.11 1.28-1.664 3.221-1.664 5.824V84h-12.16V66.144c0-4.736-1.75-7.104-5.248-7.104-1.877 0-3.37.64-4.48 1.92-1.11 1.28-1.664 3.221-1.664 5.824V84h-12.16V49.312h11.584v3.648a12.193 12.193 0 014.576-3.168c1.77-.704 3.701-1.056 5.792-1.056 2.432 0 4.608.448 6.528 1.344 1.92.896 3.477 2.261 4.672 4.096 1.365-1.75 3.093-3.093 5.184-4.032 2.09-.939 4.373-1.408 6.848-1.408z"/><path fill="#D06868" d="M34.497 73.847l-2.3 2.56v8.196l2.3-2.535z"/><g transform="translate(22.828 73.847)"><use fill="url(#a)" xlink:href="#b"/><use fill="url(#c)" xlink:href="#b"/></g><path fill="#A5597E" d="M32.198 76.382l-9.37.008v8.221l9.37-.008z"/><path fill="#C1BBA7" d="M35.342 43.635c0-.44-.347-2.288 1.482-2.337 1.461-.038 4.509.476 7.123-.193 2.78-.711 5.632-3.36 5.975-3.053.343.308-2.998 4.383-7.228 5.522-2.475.666-5.787.397-7.352.061-.61-.13.306.396-1.904.005"/><g transform="translate(0 15.547)"><path fill="#4B2357" d="M13.264 66.631s1.703.253 2.981.252a5.799 5.799 0 002.555-.593c.34-.17.51-1.352-.342-1.943-.558-.388-.156-4.043-1.026-5.407-1.023-1.605.763-6.422.763-6.422L12.32 55.9s1.282 6.674 1.367 7.266c.086.591-.764 3.211-.423 3.464"/><path fill="#4B2A5C" d="M27.827 44.444s-.528 2.442.531 5.155c1.06 2.714 3.466 3.586 3.532 4.863.03.568-.273 1.181-.456 2.134-.228 1.19.571 2.35.062 3.329-.446.856-6.297.6-5.585-.783.711-1.383.91-3.31.938-3.646.027-.337-3.594-4.105-3.316-6.456.279-2.351-1.29-2.993-1.29-2.993l5.584-1.603z"/><mask id="f" fill="#fff"><use xlink:href="#d"/></mask><use fill="url(#e)" xlink:href="#d"/><g mask="url(#f)"><g transform="translate(0 30.463)"><mask id="h" fill="#fff"><use xlink:href="#g"/></mask><path fill="#4F6486" d="M.59 18.967s.766-8.027 4.6-8.534c3.829-.506 4.44-.48 6.105.964 2.044 1.774 1.267 2.583 1.718 2.583.45 0 2.75-1.468 2.317-4.172-.419-2.615 2.433-5.36 8.497-5.113 6.064.246-6.968-1.782-6.968-1.782L4.338 7.814S.845 12.377.76 15.841l-.17 3.126z" mask="url(#h)"/><path fill="#4C3D6A" d="M21.556 25.052s-6.169-.038-6.128-.834c.041-.796.33-1.927.081-3.016-.05-.218 2.803.427 4.47-.924 3.311-2.683.246-5.11.246-5.11s3.79 2.019 4.06 3.013c.482 1.785-2.729 6.871-2.729 6.871" mask="url(#h)"/><path fill="#4F728F" d="M.523 26.164s.121-4.608.166-6.844c.082-4.14.72-6.873 2.209-9.042 1.276-1.86 6.231-.248 8.09-2.71 3.83-5.071 9.793-3.216 9.793-3.216L31.686 6.71s-2.638 4.762-4.01 4.145c-.937-.422-3.066-1.521-3.066-1.521s.541 1.096 1.712 1.604c2.727 1.181 3.665 2.194 4.262 3.884.25.706 1.238 2.007 1.933 2.3a6.63 6.63 0 011.72 1.045c.097.082-.259.504-.171.589.079.075.762-.31.833-.233.079.084-.437.71-.367.796.07.084.738-.308.8-.223.087.12-.663.552-.592.67.05.086.753-.083.796 0 .179.35.288.68.333.967.17 1.098.768 1.858-.849 4.986-1.184 2.29 5.023-3.383 5.023-3.383L24.95-5.79-2.215 7.662l2.057 18.587.681-.085z" mask="url(#h)"/><path fill="#4C416D" d="M33.564 12.54s-2.944-7.814-2.902-8.617c.042-.803-8.006.85-8.006.85l5.112 1.687c3.067 1.012-1.276 3.803-1.276 3.803l5.624 2.53 1.448-.253z" mask="url(#h)"/><path fill="#4C3D6A" d="M6.493 37.651S1.669 20.544 1.71 19.741c.042-.802-.254-6.472.679-4.393.341.76 2.136 10.222 5.884 10.642 2.2.247.802 5.905 1.112 7.097.769 2.956-1.018 5.915-1.018 5.915l-1.875-1.35z" mask="url(#h)"/><path fill="#5191A6" d="M.59 13.98c.52-3.04 4.179-7.66 7.792-9.693 3.613-2.034 5.19-2.934 9.624-2.934 4.436 0-3.377-2.685-3.377-2.685L1.11 4.287s-2.455.497-2.54 3.962L.59 13.98z" mask="url(#h)"/></g></g><g filter="url(#i)" mask="url(#f)"><g transform="translate(16.525 .046)"><mask id="l" fill="#fff"><use xlink:href="#j"/></mask><path fill="url(#k)" d="M17.4 9.202c1.868 1.603 4.516 1.264 6.391 3.798 1.868 2.522-.716 6.07-1.283 6.338-1.789.846-1.703 1.184-3.151 1.354-.482.056-1.228.047-2.086.039-1.72-.018-3.894-.036-5.314.472-2.13.762-1.543 1.522-3.586 2.79-2.044 1.27-5.45 2.962-6.897 4.568-1.447 1.606-1.7 3.888-1.104 4.817.597.929 2.386 1.941 7.242 2.023 4.855.081 6.049 2.446 7.923 2.36.927-.042.644-1.056.11-2.448l.154.252s1.652-.998 2.213-2.114c.596-1.183 2.127-3.888 3.405-4.311 1.474-.489 4.087-1.862 3.831-2.369-.359-.71-2.64-.758-2.64-.758s2.916-1.088 3.065-1.354c1.187-2.12 2.86-6.075 1.867-10.563-1.196-5.407-6.392-5.319-7.926-6.163-3.162-1.74-2.229-6.42-2.229-6.42s.17-1.183-.682-1.352c-.298-.059-.523-.128-.686-.128-.303 0-.391.24-.335 1.228.086 1.52-.838 5.746 1.719 7.94z" mask="url(#l)"/><path fill="#4E567C" d="M15.8 35.565s1.65-.998 2.212-2.114c.596-1.183 2.127-3.888 3.405-4.311 1.474-.489 4.087-1.862 3.831-2.369-.359-.71-2.64-.758-2.64-.758s2.916-1.088 3.065-1.354c1.187-2.12 2.815-4.007 1.23-8.324-1.024-2.787-6.563-6.332-8.097-7.176-3.162-1.74-2.475-6.674-2.475-6.674s0-1.436-.852-1.605c-.852-.168-.512-.168-.425 1.353.086 1.52-.21 4.774 2.347 6.969 1.867 1.603 4.643 2.49 6.519 5.023 1.867 2.523 4.603 5.236 2.05 8.11-1.31 1.475-6.046 4.144-7.578 4.737-1.359.525-3.748.847-4.259.763-2.233-.368-3.75-2.533-4.941-1.772-2.027 1.295 2.642 3.125 1.195 4.731C8.94 32.4 3.496 32.151 3.404 33.25c-.084 1.014.257 1.605 5.112 1.687 4.855.081 5.145 2.911 7.019 2.826 1.874-.086-1.195-4.14-1.283-7.266-.087-3.126-3.75-3.63-3.75-3.63" mask="url(#l)"/><path fill="#5DA7B5" d="M9.872 23.95c1.361-1.775 1.872-1.944 3.235-2.198.92-.172 3.55-.062 5.736-.267.138-.013.3.496.486.496s-.025-.975.18-1.013c.207-.038.628 1.07.82 1.013.191-.058-.255-1.062 0-1.136.255-.074.767.93.914.853.147-.077-.289-.853-.145-1.048.144-.194.268.293.292.28 2.362-1.27 3.3-3.186 3.383-4.593.084-1.437-1.62-3.463-1.62-3.463L10.456 6.207s.292-4.943 5.362-5.665c1.789-.254-.187 2.784 1.878 6.42 1.068 1.88 3.665 1.537 6.153 3.167.172.113.443-.191.555-.107.11.084-.278.372.157.721.435.35.622-.234.785-.076.162.158-.442.463 0 .838.441.374.67-.127.819.06.15.187-.306.412-.11.63.615.69.636.932.93 2.113.923 3.705.548 2.91 1.792 4.392 2.355 2.805-10.984 6.851-10.984 6.851l15.757-2.46-.961-3.363-21.725-40.306-12.06 54.675s2.297-4.818 5.277-6.763c3.6-2.35 4.428-1.608 5.79-3.383z" mask="url(#l)"/><path fill="#4C416D" d="M16.779 36.029l-1.228-.83s-.815-3.158-1.245-4.154c-.512-1.182-.55-1.77-2.046-2.11-4.43-1.012-1.79-2.281-1.79-2.281s2.896.759 3.579 2.786c.287.852.513 3.126 1.79 3.125 1.278 0 1.703-1.944 2.81-2.62 1.107-.678 1.873-1.523 2.895-1.693 1.022-.17 3.748-.17 3.748-.17l-8.513 7.947z" mask="url(#l)"/><path fill="#4E567C" d="M15.324 24.708c1.277-.677 1.533-.255 2.299-.762.766-.508-2.812-1.35-4.004-.674-.682.387-.972 2.823-.253 3.211 1.874 1.013.903-1.217 1.958-1.775z" mask="url(#l)"/></g></g></g><path fill="#4F6486" d="M15.562 70c.566-2.443.766-2.783-.774-4.582-1.027-1.2-1.596-2.093-1.709-2.679-.044.803.451 1.784 1.487 2.94 1.552 1.736.103 4.767.783 6.773.454 1.338.735 2.32.844 2.947a29.705 29.705 0 00-.494-3.064c-.095-.423-.366-1.352-.137-2.336z"/><path fill="#4B2A5C" d="M35.854 43.17s2.283-.066 2.98-.255c.937-.254 2.3-.34 2.3-.931l-1.47-.429-2.317.803-.083.224-1.41.588z"/><path fill="url(#m)" d="M44.059 21.155c-2.082 1.67-5.008 2.623-6.301 3.299-1.618.846-.595 2.113-.424 2.45 1.53-.434 4.598-1.692 6.556-3.299 3.347-2.746 4.765-7.354 4.34-7.438a.088.088 0 00-.017-.002c-.448 0-1.969 3.236-4.154 4.99" transform="translate(0 15.547)"/><path fill="#D3CBAF" d="M37.334 42.451c-.63-.971-.46-1.394-.46-1.394s.682.591 1.874.168c1.377-.488 3.198-1.206 5.28-2.876 2.213-1.776 3.744-4.734 3.744-4.734s-.535 2.79-3.882 5.537c-1.958 1.606-5.027 2.864-6.556 3.3"/><path fill="#020408" d="M30.994 39.557c0-.312.256-.566.57-.566.316 0 .572.253.572.566a.569.569 0 01-.57.567.569.569 0 01-.572-.567"/><path fill="#D5B8D8" d="M31.848 39.286a.17.17 0 01-.17.17.17.17 0 01-.171-.17.17.17 0 01.17-.169.17.17 0 01.17.17"/><path fill="#FE9B7C" d="M33.22.017l5.982 5.527-.315 3.172-6.34-5.856z"/><path fill="#D06868" d="M33.235 0l-.687 2.86-5.631 5.998.671-2.844z"/><path fill="#A5597E" d="M32.563 2.843l6.34 5.856-5.647 6.015-6.34-5.856z"/></g></svg>