<svg width="33" height="33" xmlns="http://www.w3.org/2000/svg"><g fill="none" fill-rule="evenodd"><path d="M0 0h32.4v32.4H0z"/><path d="M26.402 22.517a3.965 3.965 0 00-3.89 3.24H6.961c-2.425 0-2.517-2.265-2.52-2.52v-3.24c0-2.425 2.265-2.518 2.52-2.52h5.829a3.965 3.965 0 003.891 3.24c1.938 0 3.551-1.4 3.892-3.24h5.468c3.133 0 3.96-2.59 3.96-3.96v-3.24c0-3.132-2.59-3.96-3.96-3.96H10.853a3.964 3.964 0 00-3.891-3.24 3.965 3.965 0 00-3.96 3.96 3.965 3.965 0 003.96 3.96c1.938 0 3.551-1.4 3.891-3.24H26.04c.258.002 2.523.095 2.523 2.52v3.236c-.002.258-.095 2.524-2.52 2.524h-5.469a3.964 3.964 0 00-3.891-3.24 3.965 3.965 0 00-3.892 3.24H6.962c-1.37 0-3.96.828-3.96 3.96v3.24c0 1.37.828 3.96 3.96 3.96h15.55a3.964 3.964 0 003.89 3.24 3.965 3.965 0 003.96-3.96 3.965 3.965 0 00-3.96-3.96zM6.962 9.557c-1.39 0-2.52-1.13-2.52-2.52 0-1.39 1.13-2.52 2.52-2.52 1.39 0 2.52 1.13 2.52 2.52 0 1.39-1.13 2.52-2.52 2.52zm9.72 4.68c1.39 0 2.52 1.13 2.52 2.52 0 1.39-1.13 2.52-2.52 2.52-1.39 0-2.52-1.13-2.52-2.52 0-1.39 1.13-2.52 2.52-2.52zm9.72 14.76c-1.389 0-2.52-1.13-2.52-2.52 0-1.39 1.131-2.52 2.52-2.52 1.39 0 2.52 1.13 2.52 2.52 0 1.39-1.13 2.52-2.52 2.52z" fill="#DF686C" fill-rule="nonzero"/></g></svg>
