<svg width="25" height="25" xmlns="http://www.w3.org/2000/svg"><path d="M23.6795775 11.179577h-1.8485916c-.2200704-1.628521-.8802817-3.125-1.8045774-4.357394l1.3204225-1.320422c.528169-.528169.528169-1.364437 0-1.848592-.528169-.528169-1.3644366-.528169-1.8485916 0l-1.3204225 1.320423c-1.2323944-.924296-2.7288732-1.584507-4.3573944-1.804578V1.320423C13.8204225.572183 13.2482394 0 12.5 0c-.7482394 0-1.3204225.572183-1.3204225 1.320423v1.848591c-1.6285212.220071-3.125.880282-4.3573944 1.804578L5.5017606 3.653169c-.5281691-.528169-1.3644367-.528169-1.8485916 0-.528169.528169-.528169 1.364437 0 1.848592l1.3204225 1.320422c-.9242957 1.232394-1.584507 2.728873-1.8045774 4.357394H1.3204225C.5721831 11.179577 0 11.751761 0 12.5c0 .748239.5721831 1.320423 1.3204225 1.320423h1.8485916c.2200704 1.628521.8802817 3.125 1.8045774 4.357394L3.653169 19.498239c-.528169.528169-.528169 1.364437 0 1.848592.2640845.264084.6161972.396127.9242958.396127s.6602113-.132043.9242958-.396127l1.3204225-1.320423c1.2323944.924296 2.7288732 1.584507 4.3573944 1.804578v1.848591C11.1795775 24.427817 11.7517606 25 12.5 25c.7482394 0 1.3204225-.572183 1.3204225-1.320423v-1.848591c1.6285212-.220071 3.125-.880282 4.3573944-1.804578l1.3204225 1.320423c.2640845.264084.6161972.396127.9242958.396127s.6602113-.132043.9242958-.396127c.528169-.528169.528169-1.364437 0-1.848592l-1.3204225-1.320422c.9683098-1.232394 1.584507-2.728873 1.8045774-4.357394h1.8485916C24.4278169 13.820423 25 13.248239 25 12.5c0-.748239-.5721831-1.320423-1.3204225-1.320423zm-11.2235916 8.142606c-3.7852113 0-6.8221831-3.080986-6.8221831-6.822183 0-3.785211 3.0809859-6.822183 6.8221831-6.822183 3.7852113 0 6.8221831 3.080986 6.8221831 6.822183 0 3.785211-3.0369718 6.822183-6.8221831 6.822183z" fill="#F0F0F0" fill-rule="nonzero"/></svg>
