<svg width="24" height="22" xmlns="http://www.w3.org/2000/svg"><g fill="#FFF" fill-rule="nonzero"><path d="M3.479 14.614h-1.97c-.08 0-.162-.005-.242 0-.116.009.048-.02.034.012a.792.792 0 01-.11-.029l.065.029a1.374 1.374 0 01-.065-.034c-.105-.051.073.088-.003 0 .003.003-.051-.051-.051-.054l.042.057c-.014-.02-.025-.043-.04-.063-.065-.096.02.114 0-.003l-.016-.073c.011.088.014.099.011.034.009-.114 0-.233 0-.346V9.557 8.78v-.184-.023c-.009-.125-.028.088-.006.017.003-.008.017-.09.026-.09l-.029.065c.012-.023.023-.046.035-.066.034-.05.025-.042-.023.026a.941.941 0 01.05-.054c.077-.088-.101.048.004 0 .008-.003.062-.04.065-.034-.023.008-.045.02-.065.028.022-.008.048-.014.073-.02.12-.036-.124-.005.003.003h2.214c.12-.008-.048.02-.034-.011 0-.003.11.025.11.028-.002.023-.107-.062-.033-.011a.466.466 0 01.062.04c-.065-.054-.073-.06-.028-.02l.025.025c.04.046.034.037-.02-.028a.66.66 0 01.057.096c-.005.006-.037-.127-.011-.011.023.105-.023.011 0-.017v4.698c0 .416-.026.842 0 1.256.008.127.04-.117.003.002l-.009.037c-.02.06-.014.048.017-.031a.477.477 0 01-.056.096c-.012-.002.102-.102.02-.028l-.026.026c-.045.04-.037.034.028-.02a.66.66 0 01-.096.056c.023-.008.045-.02.065-.028-.023.009-.048.014-.074.02-.122.034.128-.014-.002-.009-.295.009-.582.256-.567.567.014.3.249.576.567.567A1.285 1.285 0 004.74 14.45v-.587V11.4 9.052c0-.159.003-.317 0-.476a1.287 1.287 0 00-1.293-1.27c-.706-.006-1.411 0-2.115 0-.722 0-1.31.527-1.326 1.264-.003.14 0 .28 0 .42V14.427c.003.598.382 1.168.995 1.29.314.063.652.031.97.031h1.507c.298 0 .582-.26.568-.567-.015-.309-.25-.567-.567-.567zM22.15 14.614h-1.96c-.073 0-.15-.005-.223 0-.128.009.116.04-.003.003l-.037-.008c-.06-.02-.048-.014.031.017a.477.477 0 01-.096-.057c.009-.023.088.088.028.02l-.025-.026c-.04-.045-.034-.036.02.029a.66.66 0 01-.057-.097c.008.023.02.046.028.066-.008-.023-.014-.049-.02-.074-.034-.11-.002.108.003-.003.009-.12 0-.241 0-.36v-4.57-.783-.178-.023c-.008-.125-.042.114-.003-.003.003-.008.018-.073.02-.073-.017-.003-.05.119.006 0 .034-.051.026-.043-.023.025a.941.941 0 01.051-.054c.077-.088-.102.049.003 0a.456.456 0 01.065-.034l-.065.029a.56.56 0 01.074-.02c.119-.037-.125-.006.003.003H22.15c.125-.009-.114-.043.003-.003.008.003.073.017.073.02.003-.017-.119-.051 0 .005.051.034.043.026-.025-.022.02.017.037.034.054.05.088.077-.048-.101 0 .003a.456.456 0 01.034.066c-.009-.023-.02-.046-.029-.066a.56.56 0 01.02.074c.037.12.006-.125-.003.003v4.681c0 .408-.025.825 0 1.233.009.127.04-.116.003.003l-.008.037c-.02.06-.014.048.017-.032a.477.477 0 01-.057.097c-.011-.003.102-.102.02-.029l-.026.026c-.045.04-.036.034.029-.02a.66.66 0 01-.097.057c.023-.009.046-.02.066-.029a.56.56 0 01-.074.02c-.122.04.13-.008 0-.003-.295.009-.581.256-.567.567.014.3.25.576.567.567a1.285 1.285 0 001.261-1.298v-.587-2.435-2.376c0-.159.003-.317 0-.476a1.284 1.284 0 00-1.284-1.27c-.697-.006-1.397 0-2.095 0-.723 0-1.31.527-1.327 1.264-.003.14 0 .28 0 .42v5.432c0 .586.36 1.15.959 1.287.314.07.663.037.98.037h1.505c.299 0 .582-.261.568-.567a.576.576 0 00-.567-.565zM12.335 20.557c-.448 0-.904.025-1.352-.003-.12-.009.008.014.014.005a.528.528 0 01-.077-.014c-.05-.011-.099-.025-.147-.04a.29.29 0 01-.07-.025s.11.054.03.011c-.054-.028-.11-.056-.161-.09-.009-.006-.063-.04-.063-.043 0 0 .091.08.026.02-.037-.034-.074-.065-.108-.102-.023-.023-.042-.045-.062-.068-.026-.028-.031-.077-.014-.014.02.065.008.008-.009-.017-.017-.026-.034-.051-.048-.08-.017-.028-.028-.054-.045-.082-.015-.023-.029-.093-.012-.017.02.088-.022-.074-.028-.093-.014-.049-.014-.122-.037-.168.008.014.008.136.006.034 0-.034-.003-.065-.006-.099 0-.045.003-.09.006-.139.005-.09-.006.037-.006.034a1.252 1.252 0 01.054-.224c0 .003.02-.07.025-.07a.739.739 0 00-.02.048l.026-.052a1.937 1.937 0 01.116-.192s-.08.09-.02.025c.037-.042.074-.082.114-.122l.054-.05c.088-.08-.014 0-.012.008-.002-.014.128-.082.142-.09l.065-.035c.1-.054-.014-.008-.014.003.003-.014.125-.043.145-.048l.073-.017.037-.009c.063-.011.051-.008-.037.003.012-.023.236-.008.281-.008h.42c.235 0 .47-.003.708 0 .029 0 .054 0 .083.002-.003 0 .076.003.079.006-.008-.02-.128-.023-.017 0 .051.011.1.023.147.037l.071.025c.048.015-.11-.06.003.003.045.023.088.046.13.074.009.006.08.045.077.051 0 .003-.108-.094-.025-.02.036.034.073.065.107.102l.051.054c.012.014.026.028.037.043a.752.752 0 00-.031-.043c.014-.003.082.128.09.142l.043.082c.048.09-.025-.08-.005-.014.02.06.04.119.053.181l.015.077c.017.068-.009-.125-.003-.017.003.054.005.105.003.159 0 .025-.003.05-.003.079-.006.13.028-.122 0 .003-.014.062-.029.125-.048.184-.003.009-.023.07-.026.07.009 0 .062-.121.003-.013-.028.054-.06.107-.094.161-.017.029-.028.085-.008.017.028-.036.028-.036-.003 0-.011.015-.026.029-.037.043-.037.042-.076.08-.119.116 0 0-.048.048-.057.048.066-.05.074-.056.026-.022-.011.005-.02.014-.031.02-.054.034-.108.062-.162.09-.076.043.031-.014.031-.011 0 .008-.099.034-.107.037-.057.017-.111.025-.168.04-.08.02.145-.006.017-.003a.321.321 0 01-.116.017c-.298.002-.581.258-.567.567.014.303.25.572.567.567A2.078 2.078 0 0014 20.823c.355-.482.46-1.131.304-1.707a2.061 2.061 0 00-1.185-1.343c-.363-.153-.738-.162-1.123-.162-.298 0-.595-.003-.893 0a2.06 2.06 0 00-1.486.627 2.065 2.065 0 00-.538 1.76c.088.587.476 1.126.99 1.42.421.244.872.273 1.346.273h.924c.298 0 .581-.261.567-.567-.017-.307-.252-.567-.57-.567z"/><path d="M13.806 20.216h3.43c.304 0 .61-.017.9-.113a2.451 2.451 0 001.397-1.16c.25-.473.286-.963.286-1.482V13.9 9.562c0-1.051.037-2.097-.184-3.135-.453-2.14-1.823-4.037-3.671-5.19A8.123 8.123 0 009.548.314 8.219 8.219 0 004.57 4.284 8.227 8.227 0 003.617 7.5c-.04.471-.025.944-.025 1.415v4.346c0 .298.26.581.567.567.306-.014.567-.25.567-.567V9.974 8.298c0-.201 0-.4.011-.601.009-.13.02-.26.034-.391l.009-.077c.014-.136-.02.133 0-.003.008-.065.02-.127.031-.192.043-.261.102-.516.173-.771.07-.25.153-.497.25-.74l.028-.071c.048-.125-.054.119.003-.003l.068-.156a8.203 8.203 0 01.556-1c.067-.106.138-.208.212-.307.025-.034.127-.204.045-.065.034-.057.085-.11.128-.162.32-.388.677-.748 1.069-1.066.045-.037.093-.088.147-.116a.472.472 0 00-.025.02c.025-.02.05-.037.073-.057a7.411 7.411 0 01.97-.604c.11-.06.224-.113.337-.167l.173-.077c.048-.022.04-.045-.031.015.031-.023.088-.037.122-.051a7.56 7.56 0 011.491-.414c.065-.012.128-.02.193-.031.062-.009.031-.032-.034.005.023-.011.07-.008.096-.011a7.49 7.49 0 011.562-.014c.066.005.13.014.196.02.102.01-.023-.006-.034-.006.042 0 .09.014.136.02.513.08 1.015.212 1.5.397.06.022.116.045.175.068.037.014.088.014-.03-.015.028.009.059.026.087.037a7.742 7.742 0 011.471.862c.012.009.052.031.06.046-.065-.051-.074-.057-.025-.02l.042.034a7.472 7.472 0 011.08 1.054l.12.145c.013.02.03.04.045.06.079.099-.057-.08-.009-.012.074.108.156.21.23.32a7.03 7.03 0 01.561.976c.028.056.054.113.08.17l.03.068c.012.023.02.045.032.068a7.945 7.945 0 01.417 1.435c.01.062.022.127.034.19.002.025.008.05.011.076l.006.04c.008.062.008.05-.006-.034.023.04.014.127.02.175.008.071.014.145.02.216.014.187.02.374.02.558V17.804c0 .054-.006.105-.006.159-.006.136.028-.128 0 .002-.006.026-.009.051-.014.077a1.96 1.96 0 01-.051.184c-.009.031-.023.06-.032.088-.017.04-.008.023.02-.048l-.03.068c-.026.051-.055.1-.083.147-.02.032-.06.125-.094.14l.043-.057-.048.056a.941.941 0 01-.051.054c-.015.017-.14.159-.165.15.009.003.097-.068.026-.02l-.094.063a1.5 1.5 0 01-.147.082c-.014.006-.074.045-.085.04.028.014.113-.043.014-.009a1.64 1.64 0 01-.201.06c-.032.008-.063.014-.094.02-.06.011-.096-.017.017 0-.06-.009-.136.011-.198.011h-3.607c-.297 0-.58.26-.567.567.015.32.25.578.567.578z"/></g></svg>
